  0
SECTION
  2
BLOCKS
  0
ENDSEC
  0
SECTION
  2
ENTITIES
  0
LINE
  8
0
 10
33.375
 20
17.5
 11
57.75
 21
17.5
  0
LINE
  8
0
 10
57.75
 20
17.5
 11
57.75
 21
-0.5
  0
LINE
  8
0
 10
57.75
 20
-0.5
 11
94.125
 21
-0.5
  0
LINE
  8
0
 10
94.125
 20
-0.5
 11
94.125
 21
17.5
  0
LINE
  8
0
 10
94.125
 20
17.5
 11
118.5
 21
17.5
  0
LINE
  8
0
 10
118.5
 20
17.5
 11
118.5
 21
-0.5
  0
LINE
  8
0
 10
118.5
 20
-0.5
 11
154.875
 21
-0.5
  0
LINE
  8
0
 10
154.875
 20
-0.5
 11
154.875
 21
17.5
  0
LINE
  8
0
 10
154.875
 20
17.5
 11
179.25
 21
17.5
  0
LINE
  8
0
 10
179.25
 20
17.5
 11
179.25
 21
-0.5
  0
LINE
  8
0
 10
179.25
 20
-0.5
 11
215.625
 21
-0.5
  0
LINE
  8
0
 10
215.625
 20
-0.5
 11
215.625
 21
17.5
  0
LINE
  8
0
 10
215.625
 20
17.5
 11
243
 21
17.5
  0
LINE
  8
0
 10
243
 20
17.5
 11
243
 21
388.5
  0
LINE
  8
0
 10
243
 20
388.5
 11
215.625
 21
388.5
  0
LINE
  8
0
 10
215.625
 20
388.5
 11
215.625
 21
406.5
  0
LINE
  8
0
 10
215.625
 20
406.5
 11
179.25
 21
406.5
  0
LINE
  8
0
 10
179.25
 20
406.5
 11
179.25
 21
388.5
  0
LINE
  8
0
 10
179.25
 20
388.5
 11
154.875
 21
388.5
  0
LINE
  8
0
 10
154.875
 20
388.5
 11
154.875
 21
406.5
  0
LINE
  8
0
 10
154.875
 20
406.5
 11
118.5
 21
406.5
  0
LINE
  8
0
 10
118.5
 20
406.5
 11
118.5
 21
388.5
  0
LINE
  8
0
 10
118.5
 20
388.5
 11
94.125
 21
388.5
  0
LINE
  8
0
 10
94.125
 20
388.5
 11
94.125
 21
406.5
  0
LINE
  8
0
 10
94.125
 20
406.5
 11
57.75
 21
406.5
  0
LINE
  8
0
 10
57.75
 20
406.5
 11
57.75
 21
388.5
  0
LINE
  8
0
 10
57.75
 20
388.5
 11
33.375
 21
388.5
  0
LINE
  8
0
 10
33.375
 20
388.5
 11
33.375
 21
406.5
  0
LINE
  8
0
 10
33.375
 20
406.5
 11
0
 21
406.5
  0
LINE
  8
0
 10
0
 20
406.5
 11
0
 21
-0.5
  0
LINE
  8
0
 10
0
 20
-0.5
 11
33.375
 21
-0.5
  0
LINE
  8
0
 10
33.375
 20
-0.5
 11
33.375
 21
17.5
  0
LINE
  8
0
 10
201.447
 20
362.204
 11
200
 21
362.804
  0
LINE
  8
0
 10
200
 20
362.804
 11
198.757
 21
363.757
  0
LINE
  8
0
 10
198.757
 20
363.757
 11
197.804
 21
365
  0
LINE
  8
0
 10
197.804
 20
365
 11
197.204
 21
366.447
  0
LINE
  8
0
 10
197.204
 20
366.447
 11
197
 21
368
  0
LINE
  8
0
 10
197
 20
368
 11
197.204
 21
369.553
  0
LINE
  8
0
 10
197.204
 20
369.553
 11
197.804
 21
371
  0
LINE
  8
0
 10
197.804
 20
371
 11
198.757
 21
372.243
  0
LINE
  8
0
 10
198.757
 20
372.243
 11
200
 21
373.196
  0
LINE
  8
0
 10
200
 20
373.196
 11
201.447
 21
373.796
  0
LINE
  8
0
 10
201.447
 20
373.796
 11
203
 21
374
  0
LINE
  8
0
 10
203
 20
374
 11
204.553
 21
373.796
  0
LINE
  8
0
 10
204.553
 20
373.796
 11
206
 21
373.196
  0
LINE
  8
0
 10
206
 20
373.196
 11
207.243
 21
372.243
  0
LINE
  8
0
 10
207.243
 20
372.243
 11
208.196
 21
371
  0
LINE
  8
0
 10
208.196
 20
371
 11
208.796
 21
369.553
  0
LINE
  8
0
 10
208.796
 20
369.553
 11
209
 21
368
  0
LINE
  8
0
 10
209
 20
368
 11
208.796
 21
366.447
  0
LINE
  8
0
 10
208.796
 20
366.447
 11
208.196
 21
365
  0
LINE
  8
0
 10
208.196
 20
365
 11
207.243
 21
363.757
  0
LINE
  8
0
 10
207.243
 20
363.757
 11
206
 21
362.804
  0
LINE
  8
0
 10
206
 20
362.804
 11
204.553
 21
362.204
  0
LINE
  8
0
 10
204.553
 20
362.204
 11
203
 21
362
  0
LINE
  8
0
 10
203
 20
362
 11
201.447
 21
362.204
  0
LINE
  8
0
 10
21.3177
 20
352.721
 11
19.75
 21
353.371
  0
LINE
  8
0
 10
19.75
 20
353.371
 11
18.4038
 21
354.404
  0
LINE
  8
0
 10
18.4038
 20
354.404
 11
17.3708
 21
355.75
  0
LINE
  8
0
 10
17.3708
 20
355.75
 11
16.7215
 21
357.318
  0
LINE
  8
0
 10
16.7215
 20
357.318
 11
16.5
 21
359
  0
LINE
  8
0
 10
16.5
 20
359
 11
16.7215
 21
360.682
  0
LINE
  8
0
 10
16.7215
 20
360.682
 11
17.3708
 21
362.25
  0
LINE
  8
0
 10
17.3708
 20
362.25
 11
18.4038
 21
363.596
  0
LINE
  8
0
 10
18.4038
 20
363.596
 11
19.75
 21
364.629
  0
LINE
  8
0
 10
19.75
 20
364.629
 11
21.3177
 21
365.279
  0
LINE
  8
0
 10
21.3177
 20
365.279
 11
23
 21
365.5
  0
LINE
  8
0
 10
23
 20
365.5
 11
24.6823
 21
365.279
  0
LINE
  8
0
 10
24.6823
 20
365.279
 11
26.25
 21
364.629
  0
LINE
  8
0
 10
26.25
 20
364.629
 11
27.5962
 21
363.596
  0
LINE
  8
0
 10
27.5962
 20
363.596
 11
28.6292
 21
362.25
  0
LINE
  8
0
 10
28.6292
 20
362.25
 11
29.2785
 21
360.682
  0
LINE
  8
0
 10
29.2785
 20
360.682
 11
29.5
 21
359
  0
LINE
  8
0
 10
29.5
 20
359
 11
29.2785
 21
357.318
  0
LINE
  8
0
 10
29.2785
 20
357.318
 11
28.6292
 21
355.75
  0
LINE
  8
0
 10
28.6292
 20
355.75
 11
27.5962
 21
354.404
  0
LINE
  8
0
 10
27.5962
 20
354.404
 11
26.25
 21
353.371
  0
LINE
  8
0
 10
26.25
 20
353.371
 11
24.6823
 21
352.721
  0
LINE
  8
0
 10
24.6823
 20
352.721
 11
23
 21
352.5
  0
LINE
  8
0
 10
23
 20
352.5
 11
21.3177
 21
352.721
  0
LINE
  8
0
 10
201.447
 20
344.204
 11
200
 21
344.804
  0
LINE
  8
0
 10
200
 20
344.804
 11
198.757
 21
345.757
  0
LINE
  8
0
 10
198.757
 20
345.757
 11
197.804
 21
347
  0
LINE
  8
0
 10
197.804
 20
347
 11
197.204
 21
348.447
  0
LINE
  8
0
 10
197.204
 20
348.447
 11
197
 21
350
  0
LINE
  8
0
 10
197
 20
350
 11
197.204
 21
351.553
  0
LINE
  8
0
 10
197.204
 20
351.553
 11
197.804
 21
353
  0
LINE
  8
0
 10
197.804
 20
353
 11
198.757
 21
354.243
  0
LINE
  8
0
 10
198.757
 20
354.243
 11
200
 21
355.196
  0
LINE
  8
0
 10
200
 20
355.196
 11
201.447
 21
355.796
  0
LINE
  8
0
 10
201.447
 20
355.796
 11
203
 21
356
  0
LINE
  8
0
 10
203
 20
356
 11
204.553
 21
355.796
  0
LINE
  8
0
 10
204.553
 20
355.796
 11
206
 21
355.196
  0
LINE
  8
0
 10
206
 20
355.196
 11
207.243
 21
354.243
  0
LINE
  8
0
 10
207.243
 20
354.243
 11
208.196
 21
353
  0
LINE
  8
0
 10
208.196
 20
353
 11
208.796
 21
351.553
  0
LINE
  8
0
 10
208.796
 20
351.553
 11
209
 21
350
  0
LINE
  8
0
 10
209
 20
350
 11
208.796
 21
348.447
  0
LINE
  8
0
 10
208.796
 20
348.447
 11
208.196
 21
347
  0
LINE
  8
0
 10
208.196
 20
347
 11
207.243
 21
345.757
  0
LINE
  8
0
 10
207.243
 20
345.757
 11
206
 21
344.804
  0
LINE
  8
0
 10
206
 20
344.804
 11
204.553
 21
344.204
  0
LINE
  8
0
 10
204.553
 20
344.204
 11
203
 21
344
  0
LINE
  8
0
 10
203
 20
344
 11
201.447
 21
344.204
  0
LINE
  8
0
 10
201.447
 20
310.204
 11
200
 21
310.804
  0
LINE
  8
0
 10
200
 20
310.804
 11
198.757
 21
311.757
  0
LINE
  8
0
 10
198.757
 20
311.757
 11
197.804
 21
313
  0
LINE
  8
0
 10
197.804
 20
313
 11
197.204
 21
314.447
  0
LINE
  8
0
 10
197.204
 20
314.447
 11
197
 21
316
  0
LINE
  8
0
 10
197
 20
316
 11
197.204
 21
317.553
  0
LINE
  8
0
 10
197.204
 20
317.553
 11
197.804
 21
319
  0
LINE
  8
0
 10
197.804
 20
319
 11
198.757
 21
320.243
  0
LINE
  8
0
 10
198.757
 20
320.243
 11
200
 21
321.196
  0
LINE
  8
0
 10
200
 20
321.196
 11
201.447
 21
321.796
  0
LINE
  8
0
 10
201.447
 20
321.796
 11
203
 21
322
  0
LINE
  8
0
 10
203
 20
322
 11
204.553
 21
321.796
  0
LINE
  8
0
 10
204.553
 20
321.796
 11
206
 21
321.196
  0
LINE
  8
0
 10
206
 20
321.196
 11
207.243
 21
320.243
  0
LINE
  8
0
 10
207.243
 20
320.243
 11
208.196
 21
319
  0
LINE
  8
0
 10
208.196
 20
319
 11
208.796
 21
317.553
  0
LINE
  8
0
 10
208.796
 20
317.553
 11
209
 21
316
  0
LINE
  8
0
 10
209
 20
316
 11
208.796
 21
314.447
  0
LINE
  8
0
 10
208.796
 20
314.447
 11
208.196
 21
313
  0
LINE
  8
0
 10
208.196
 20
313
 11
207.243
 21
311.757
  0
LINE
  8
0
 10
207.243
 20
311.757
 11
206
 21
310.804
  0
LINE
  8
0
 10
206
 20
310.804
 11
204.553
 21
310.204
  0
LINE
  8
0
 10
204.553
 20
310.204
 11
203
 21
310
  0
LINE
  8
0
 10
203
 20
310
 11
201.447
 21
310.204
  0
LINE
  8
0
 10
21.3177
 20
300.721
 11
19.75
 21
301.371
  0
LINE
  8
0
 10
19.75
 20
301.371
 11
18.4038
 21
302.404
  0
LINE
  8
0
 10
18.4038
 20
302.404
 11
17.3708
 21
303.75
  0
LINE
  8
0
 10
17.3708
 20
303.75
 11
16.7215
 21
305.318
  0
LINE
  8
0
 10
16.7215
 20
305.318
 11
16.5
 21
307
  0
LINE
  8
0
 10
16.5
 20
307
 11
16.7215
 21
308.682
  0
LINE
  8
0
 10
16.7215
 20
308.682
 11
17.3708
 21
310.25
  0
LINE
  8
0
 10
17.3708
 20
310.25
 11
18.4038
 21
311.596
  0
LINE
  8
0
 10
18.4038
 20
311.596
 11
19.75
 21
312.629
  0
LINE
  8
0
 10
19.75
 20
312.629
 11
21.3177
 21
313.279
  0
LINE
  8
0
 10
21.3177
 20
313.279
 11
23
 21
313.5
  0
LINE
  8
0
 10
23
 20
313.5
 11
24.6823
 21
313.279
  0
LINE
  8
0
 10
24.6823
 20
313.279
 11
26.25
 21
312.629
  0
LINE
  8
0
 10
26.25
 20
312.629
 11
27.5962
 21
311.596
  0
LINE
  8
0
 10
27.5962
 20
311.596
 11
28.6292
 21
310.25
  0
LINE
  8
0
 10
28.6292
 20
310.25
 11
29.2785
 21
308.682
  0
LINE
  8
0
 10
29.2785
 20
308.682
 11
29.5
 21
307
  0
LINE
  8
0
 10
29.5
 20
307
 11
29.2785
 21
305.318
  0
LINE
  8
0
 10
29.2785
 20
305.318
 11
28.6292
 21
303.75
  0
LINE
  8
0
 10
28.6292
 20
303.75
 11
27.5962
 21
302.404
  0
LINE
  8
0
 10
27.5962
 20
302.404
 11
26.25
 21
301.371
  0
LINE
  8
0
 10
26.25
 20
301.371
 11
24.6823
 21
300.721
  0
LINE
  8
0
 10
24.6823
 20
300.721
 11
23
 21
300.5
  0
LINE
  8
0
 10
23
 20
300.5
 11
21.3177
 21
300.721
  0
LINE
  8
0
 10
201.447
 20
292.204
 11
200
 21
292.804
  0
LINE
  8
0
 10
200
 20
292.804
 11
198.757
 21
293.757
  0
LINE
  8
0
 10
198.757
 20
293.757
 11
197.804
 21
295
  0
LINE
  8
0
 10
197.804
 20
295
 11
197.204
 21
296.447
  0
LINE
  8
0
 10
197.204
 20
296.447
 11
197
 21
298
  0
LINE
  8
0
 10
197
 20
298
 11
197.204
 21
299.553
  0
LINE
  8
0
 10
197.204
 20
299.553
 11
197.804
 21
301
  0
LINE
  8
0
 10
197.804
 20
301
 11
198.757
 21
302.243
  0
LINE
  8
0
 10
198.757
 20
302.243
 11
200
 21
303.196
  0
LINE
  8
0
 10
200
 20
303.196
 11
201.447
 21
303.796
  0
LINE
  8
0
 10
201.447
 20
303.796
 11
203
 21
304
  0
LINE
  8
0
 10
203
 20
304
 11
204.553
 21
303.796
  0
LINE
  8
0
 10
204.553
 20
303.796
 11
206
 21
303.196
  0
LINE
  8
0
 10
206
 20
303.196
 11
207.243
 21
302.243
  0
LINE
  8
0
 10
207.243
 20
302.243
 11
208.196
 21
301
  0
LINE
  8
0
 10
208.196
 20
301
 11
208.796
 21
299.553
  0
LINE
  8
0
 10
208.796
 20
299.553
 11
209
 21
298
  0
LINE
  8
0
 10
209
 20
298
 11
208.796
 21
296.447
  0
LINE
  8
0
 10
208.796
 20
296.447
 11
208.196
 21
295
  0
LINE
  8
0
 10
208.196
 20
295
 11
207.243
 21
293.757
  0
LINE
  8
0
 10
207.243
 20
293.757
 11
206
 21
292.804
  0
LINE
  8
0
 10
206
 20
292.804
 11
204.553
 21
292.204
  0
LINE
  8
0
 10
204.553
 20
292.204
 11
203
 21
292
  0
LINE
  8
0
 10
203
 20
292
 11
201.447
 21
292.204
  0
LINE
  8
0
 10
201.447
 20
258.204
 11
200
 21
258.804
  0
LINE
  8
0
 10
200
 20
258.804
 11
198.757
 21
259.757
  0
LINE
  8
0
 10
198.757
 20
259.757
 11
197.804
 21
261
  0
LINE
  8
0
 10
197.804
 20
261
 11
197.204
 21
262.447
  0
LINE
  8
0
 10
197.204
 20
262.447
 11
197
 21
264
  0
LINE
  8
0
 10
197
 20
264
 11
197.204
 21
265.553
  0
LINE
  8
0
 10
197.204
 20
265.553
 11
197.804
 21
267
  0
LINE
  8
0
 10
197.804
 20
267
 11
198.757
 21
268.243
  0
LINE
  8
0
 10
198.757
 20
268.243
 11
200
 21
269.196
  0
LINE
  8
0
 10
200
 20
269.196
 11
201.447
 21
269.796
  0
LINE
  8
0
 10
201.447
 20
269.796
 11
203
 21
270
  0
LINE
  8
0
 10
203
 20
270
 11
204.553
 21
269.796
  0
LINE
  8
0
 10
204.553
 20
269.796
 11
206
 21
269.196
  0
LINE
  8
0
 10
206
 20
269.196
 11
207.243
 21
268.243
  0
LINE
  8
0
 10
207.243
 20
268.243
 11
208.196
 21
267
  0
LINE
  8
0
 10
208.196
 20
267
 11
208.796
 21
265.553
  0
LINE
  8
0
 10
208.796
 20
265.553
 11
209
 21
264
  0
LINE
  8
0
 10
209
 20
264
 11
208.796
 21
262.447
  0
LINE
  8
0
 10
208.796
 20
262.447
 11
208.196
 21
261
  0
LINE
  8
0
 10
208.196
 20
261
 11
207.243
 21
259.757
  0
LINE
  8
0
 10
207.243
 20
259.757
 11
206
 21
258.804
  0
LINE
  8
0
 10
206
 20
258.804
 11
204.553
 21
258.204
  0
LINE
  8
0
 10
204.553
 20
258.204
 11
203
 21
258
  0
LINE
  8
0
 10
203
 20
258
 11
201.447
 21
258.204
  0
LINE
  8
0
 10
21.3177
 20
248.721
 11
19.75
 21
249.371
  0
LINE
  8
0
 10
19.75
 20
249.371
 11
18.4038
 21
250.404
  0
LINE
  8
0
 10
18.4038
 20
250.404
 11
17.3708
 21
251.75
  0
LINE
  8
0
 10
17.3708
 20
251.75
 11
16.7215
 21
253.318
  0
LINE
  8
0
 10
16.7215
 20
253.318
 11
16.5
 21
255
  0
LINE
  8
0
 10
16.5
 20
255
 11
16.7215
 21
256.682
  0
LINE
  8
0
 10
16.7215
 20
256.682
 11
17.3708
 21
258.25
  0
LINE
  8
0
 10
17.3708
 20
258.25
 11
18.4038
 21
259.596
  0
LINE
  8
0
 10
18.4038
 20
259.596
 11
19.75
 21
260.629
  0
LINE
  8
0
 10
19.75
 20
260.629
 11
21.3177
 21
261.279
  0
LINE
  8
0
 10
21.3177
 20
261.279
 11
23
 21
261.5
  0
LINE
  8
0
 10
23
 20
261.5
 11
24.6823
 21
261.279
  0
LINE
  8
0
 10
24.6823
 20
261.279
 11
26.25
 21
260.629
  0
LINE
  8
0
 10
26.25
 20
260.629
 11
27.5962
 21
259.596
  0
LINE
  8
0
 10
27.5962
 20
259.596
 11
28.6292
 21
258.25
  0
LINE
  8
0
 10
28.6292
 20
258.25
 11
29.2785
 21
256.682
  0
LINE
  8
0
 10
29.2785
 20
256.682
 11
29.5
 21
255
  0
LINE
  8
0
 10
29.5
 20
255
 11
29.2785
 21
253.318
  0
LINE
  8
0
 10
29.2785
 20
253.318
 11
28.6292
 21
251.75
  0
LINE
  8
0
 10
28.6292
 20
251.75
 11
27.5962
 21
250.404
  0
LINE
  8
0
 10
27.5962
 20
250.404
 11
26.25
 21
249.371
  0
LINE
  8
0
 10
26.25
 20
249.371
 11
24.6823
 21
248.721
  0
LINE
  8
0
 10
24.6823
 20
248.721
 11
23
 21
248.5
  0
LINE
  8
0
 10
23
 20
248.5
 11
21.3177
 21
248.721
  0
LINE
  8
0
 10
201.447
 20
240.204
 11
200
 21
240.804
  0
LINE
  8
0
 10
200
 20
240.804
 11
198.757
 21
241.757
  0
LINE
  8
0
 10
198.757
 20
241.757
 11
197.804
 21
243
  0
LINE
  8
0
 10
197.804
 20
243
 11
197.204
 21
244.447
  0
LINE
  8
0
 10
197.204
 20
244.447
 11
197
 21
246
  0
LINE
  8
0
 10
197
 20
246
 11
197.204
 21
247.553
  0
LINE
  8
0
 10
197.204
 20
247.553
 11
197.804
 21
249
  0
LINE
  8
0
 10
197.804
 20
249
 11
198.757
 21
250.243
  0
LINE
  8
0
 10
198.757
 20
250.243
 11
200
 21
251.196
  0
LINE
  8
0
 10
200
 20
251.196
 11
201.447
 21
251.796
  0
LINE
  8
0
 10
201.447
 20
251.796
 11
203
 21
252
  0
LINE
  8
0
 10
203
 20
252
 11
204.553
 21
251.796
  0
LINE
  8
0
 10
204.553
 20
251.796
 11
206
 21
251.196
  0
LINE
  8
0
 10
206
 20
251.196
 11
207.243
 21
250.243
  0
LINE
  8
0
 10
207.243
 20
250.243
 11
208.196
 21
249
  0
LINE
  8
0
 10
208.196
 20
249
 11
208.796
 21
247.553
  0
LINE
  8
0
 10
208.796
 20
247.553
 11
209
 21
246
  0
LINE
  8
0
 10
209
 20
246
 11
208.796
 21
244.447
  0
LINE
  8
0
 10
208.796
 20
244.447
 11
208.196
 21
243
  0
LINE
  8
0
 10
208.196
 20
243
 11
207.243
 21
241.757
  0
LINE
  8
0
 10
207.243
 20
241.757
 11
206
 21
240.804
  0
LINE
  8
0
 10
206
 20
240.804
 11
204.553
 21
240.204
  0
LINE
  8
0
 10
204.553
 20
240.204
 11
203
 21
240
  0
LINE
  8
0
 10
203
 20
240
 11
201.447
 21
240.204
  0
LINE
  8
0
 10
201.447
 20
206.204
 11
200
 21
206.804
  0
LINE
  8
0
 10
200
 20
206.804
 11
198.757
 21
207.757
  0
LINE
  8
0
 10
198.757
 20
207.757
 11
197.804
 21
209
  0
LINE
  8
0
 10
197.804
 20
209
 11
197.204
 21
210.447
  0
LINE
  8
0
 10
197.204
 20
210.447
 11
197
 21
212
  0
LINE
  8
0
 10
197
 20
212
 11
197.204
 21
213.553
  0
LINE
  8
0
 10
197.204
 20
213.553
 11
197.804
 21
215
  0
LINE
  8
0
 10
197.804
 20
215
 11
198.757
 21
216.243
  0
LINE
  8
0
 10
198.757
 20
216.243
 11
200
 21
217.196
  0
LINE
  8
0
 10
200
 20
217.196
 11
201.447
 21
217.796
  0
LINE
  8
0
 10
201.447
 20
217.796
 11
203
 21
218
  0
LINE
  8
0
 10
203
 20
218
 11
204.553
 21
217.796
  0
LINE
  8
0
 10
204.553
 20
217.796
 11
206
 21
217.196
  0
LINE
  8
0
 10
206
 20
217.196
 11
207.243
 21
216.243
  0
LINE
  8
0
 10
207.243
 20
216.243
 11
208.196
 21
215
  0
LINE
  8
0
 10
208.196
 20
215
 11
208.796
 21
213.553
  0
LINE
  8
0
 10
208.796
 20
213.553
 11
209
 21
212
  0
LINE
  8
0
 10
209
 20
212
 11
208.796
 21
210.447
  0
LINE
  8
0
 10
208.796
 20
210.447
 11
208.196
 21
209
  0
LINE
  8
0
 10
208.196
 20
209
 11
207.243
 21
207.757
  0
LINE
  8
0
 10
207.243
 20
207.757
 11
206
 21
206.804
  0
LINE
  8
0
 10
206
 20
206.804
 11
204.553
 21
206.204
  0
LINE
  8
0
 10
204.553
 20
206.204
 11
203
 21
206
  0
LINE
  8
0
 10
203
 20
206
 11
201.447
 21
206.204
  0
LINE
  8
0
 10
21.3177
 20
196.721
 11
19.75
 21
197.371
  0
LINE
  8
0
 10
19.75
 20
197.371
 11
18.4038
 21
198.404
  0
LINE
  8
0
 10
18.4038
 20
198.404
 11
17.3708
 21
199.75
  0
LINE
  8
0
 10
17.3708
 20
199.75
 11
16.7215
 21
201.318
  0
LINE
  8
0
 10
16.7215
 20
201.318
 11
16.5
 21
203
  0
LINE
  8
0
 10
16.5
 20
203
 11
16.7215
 21
204.682
  0
LINE
  8
0
 10
16.7215
 20
204.682
 11
17.3708
 21
206.25
  0
LINE
  8
0
 10
17.3708
 20
206.25
 11
18.4038
 21
207.596
  0
LINE
  8
0
 10
18.4038
 20
207.596
 11
19.75
 21
208.629
  0
LINE
  8
0
 10
19.75
 20
208.629
 11
21.3177
 21
209.279
  0
LINE
  8
0
 10
21.3177
 20
209.279
 11
23
 21
209.5
  0
LINE
  8
0
 10
23
 20
209.5
 11
24.6823
 21
209.279
  0
LINE
  8
0
 10
24.6823
 20
209.279
 11
26.25
 21
208.629
  0
LINE
  8
0
 10
26.25
 20
208.629
 11
27.5962
 21
207.596
  0
LINE
  8
0
 10
27.5962
 20
207.596
 11
28.6292
 21
206.25
  0
LINE
  8
0
 10
28.6292
 20
206.25
 11
29.2785
 21
204.682
  0
LINE
  8
0
 10
29.2785
 20
204.682
 11
29.5
 21
203
  0
LINE
  8
0
 10
29.5
 20
203
 11
29.2785
 21
201.318
  0
LINE
  8
0
 10
29.2785
 20
201.318
 11
28.6292
 21
199.75
  0
LINE
  8
0
 10
28.6292
 20
199.75
 11
27.5962
 21
198.404
  0
LINE
  8
0
 10
27.5962
 20
198.404
 11
26.25
 21
197.371
  0
LINE
  8
0
 10
26.25
 20
197.371
 11
24.6823
 21
196.721
  0
LINE
  8
0
 10
24.6823
 20
196.721
 11
23
 21
196.5
  0
LINE
  8
0
 10
23
 20
196.5
 11
21.3177
 21
196.721
  0
LINE
  8
0
 10
201.447
 20
188.204
 11
200
 21
188.804
  0
LINE
  8
0
 10
200
 20
188.804
 11
198.757
 21
189.757
  0
LINE
  8
0
 10
198.757
 20
189.757
 11
197.804
 21
191
  0
LINE
  8
0
 10
197.804
 20
191
 11
197.204
 21
192.447
  0
LINE
  8
0
 10
197.204
 20
192.447
 11
197
 21
194
  0
LINE
  8
0
 10
197
 20
194
 11
197.204
 21
195.553
  0
LINE
  8
0
 10
197.204
 20
195.553
 11
197.804
 21
197
  0
LINE
  8
0
 10
197.804
 20
197
 11
198.757
 21
198.243
  0
LINE
  8
0
 10
198.757
 20
198.243
 11
200
 21
199.196
  0
LINE
  8
0
 10
200
 20
199.196
 11
201.447
 21
199.796
  0
LINE
  8
0
 10
201.447
 20
199.796
 11
203
 21
200
  0
LINE
  8
0
 10
203
 20
200
 11
204.553
 21
199.796
  0
LINE
  8
0
 10
204.553
 20
199.796
 11
206
 21
199.196
  0
LINE
  8
0
 10
206
 20
199.196
 11
207.243
 21
198.243
  0
LINE
  8
0
 10
207.243
 20
198.243
 11
208.196
 21
197
  0
LINE
  8
0
 10
208.196
 20
197
 11
208.796
 21
195.553
  0
LINE
  8
0
 10
208.796
 20
195.553
 11
209
 21
194
  0
LINE
  8
0
 10
209
 20
194
 11
208.796
 21
192.447
  0
LINE
  8
0
 10
208.796
 20
192.447
 11
208.196
 21
191
  0
LINE
  8
0
 10
208.196
 20
191
 11
207.243
 21
189.757
  0
LINE
  8
0
 10
207.243
 20
189.757
 11
206
 21
188.804
  0
LINE
  8
0
 10
206
 20
188.804
 11
204.553
 21
188.204
  0
LINE
  8
0
 10
204.553
 20
188.204
 11
203
 21
188
  0
LINE
  8
0
 10
203
 20
188
 11
201.447
 21
188.204
  0
LINE
  8
0
 10
201.447
 20
154.204
 11
200
 21
154.804
  0
LINE
  8
0
 10
200
 20
154.804
 11
198.757
 21
155.757
  0
LINE
  8
0
 10
198.757
 20
155.757
 11
197.804
 21
157
  0
LINE
  8
0
 10
197.804
 20
157
 11
197.204
 21
158.447
  0
LINE
  8
0
 10
197.204
 20
158.447
 11
197
 21
160
  0
LINE
  8
0
 10
197
 20
160
 11
197.204
 21
161.553
  0
LINE
  8
0
 10
197.204
 20
161.553
 11
197.804
 21
163
  0
LINE
  8
0
 10
197.804
 20
163
 11
198.757
 21
164.243
  0
LINE
  8
0
 10
198.757
 20
164.243
 11
200
 21
165.196
  0
LINE
  8
0
 10
200
 20
165.196
 11
201.447
 21
165.796
  0
LINE
  8
0
 10
201.447
 20
165.796
 11
203
 21
166
  0
LINE
  8
0
 10
203
 20
166
 11
204.553
 21
165.796
  0
LINE
  8
0
 10
204.553
 20
165.796
 11
206
 21
165.196
  0
LINE
  8
0
 10
206
 20
165.196
 11
207.243
 21
164.243
  0
LINE
  8
0
 10
207.243
 20
164.243
 11
208.196
 21
163
  0
LINE
  8
0
 10
208.196
 20
163
 11
208.796
 21
161.553
  0
LINE
  8
0
 10
208.796
 20
161.553
 11
209
 21
160
  0
LINE
  8
0
 10
209
 20
160
 11
208.796
 21
158.447
  0
LINE
  8
0
 10
208.796
 20
158.447
 11
208.196
 21
157
  0
LINE
  8
0
 10
208.196
 20
157
 11
207.243
 21
155.757
  0
LINE
  8
0
 10
207.243
 20
155.757
 11
206
 21
154.804
  0
LINE
  8
0
 10
206
 20
154.804
 11
204.553
 21
154.204
  0
LINE
  8
0
 10
204.553
 20
154.204
 11
203
 21
154
  0
LINE
  8
0
 10
203
 20
154
 11
201.447
 21
154.204
  0
LINE
  8
0
 10
21.3177
 20
144.721
 11
19.75
 21
145.371
  0
LINE
  8
0
 10
19.75
 20
145.371
 11
18.4038
 21
146.404
  0
LINE
  8
0
 10
18.4038
 20
146.404
 11
17.3708
 21
147.75
  0
LINE
  8
0
 10
17.3708
 20
147.75
 11
16.7215
 21
149.318
  0
LINE
  8
0
 10
16.7215
 20
149.318
 11
16.5
 21
151
  0
LINE
  8
0
 10
16.5
 20
151
 11
16.7215
 21
152.682
  0
LINE
  8
0
 10
16.7215
 20
152.682
 11
17.3708
 21
154.25
  0
LINE
  8
0
 10
17.3708
 20
154.25
 11
18.4038
 21
155.596
  0
LINE
  8
0
 10
18.4038
 20
155.596
 11
19.75
 21
156.629
  0
LINE
  8
0
 10
19.75
 20
156.629
 11
21.3177
 21
157.279
  0
LINE
  8
0
 10
21.3177
 20
157.279
 11
23
 21
157.5
  0
LINE
  8
0
 10
23
 20
157.5
 11
24.6823
 21
157.279
  0
LINE
  8
0
 10
24.6823
 20
157.279
 11
26.25
 21
156.629
  0
LINE
  8
0
 10
26.25
 20
156.629
 11
27.5962
 21
155.596
  0
LINE
  8
0
 10
27.5962
 20
155.596
 11
28.6292
 21
154.25
  0
LINE
  8
0
 10
28.6292
 20
154.25
 11
29.2785
 21
152.682
  0
LINE
  8
0
 10
29.2785
 20
152.682
 11
29.5
 21
151
  0
LINE
  8
0
 10
29.5
 20
151
 11
29.2785
 21
149.318
  0
LINE
  8
0
 10
29.2785
 20
149.318
 11
28.6292
 21
147.75
  0
LINE
  8
0
 10
28.6292
 20
147.75
 11
27.5962
 21
146.404
  0
LINE
  8
0
 10
27.5962
 20
146.404
 11
26.25
 21
145.371
  0
LINE
  8
0
 10
26.25
 20
145.371
 11
24.6823
 21
144.721
  0
LINE
  8
0
 10
24.6823
 20
144.721
 11
23
 21
144.5
  0
LINE
  8
0
 10
23
 20
144.5
 11
21.3177
 21
144.721
  0
LINE
  8
0
 10
201.447
 20
136.204
 11
200
 21
136.804
  0
LINE
  8
0
 10
200
 20
136.804
 11
198.757
 21
137.757
  0
LINE
  8
0
 10
198.757
 20
137.757
 11
197.804
 21
139
  0
LINE
  8
0
 10
197.804
 20
139
 11
197.204
 21
140.447
  0
LINE
  8
0
 10
197.204
 20
140.447
 11
197
 21
142
  0
LINE
  8
0
 10
197
 20
142
 11
197.204
 21
143.553
  0
LINE
  8
0
 10
197.204
 20
143.553
 11
197.804
 21
145
  0
LINE
  8
0
 10
197.804
 20
145
 11
198.757
 21
146.243
  0
LINE
  8
0
 10
198.757
 20
146.243
 11
200
 21
147.196
  0
LINE
  8
0
 10
200
 20
147.196
 11
201.447
 21
147.796
  0
LINE
  8
0
 10
201.447
 20
147.796
 11
203
 21
148
  0
LINE
  8
0
 10
203
 20
148
 11
204.553
 21
147.796
  0
LINE
  8
0
 10
204.553
 20
147.796
 11
206
 21
147.196
  0
LINE
  8
0
 10
206
 20
147.196
 11
207.243
 21
146.243
  0
LINE
  8
0
 10
207.243
 20
146.243
 11
208.196
 21
145
  0
LINE
  8
0
 10
208.196
 20
145
 11
208.796
 21
143.553
  0
LINE
  8
0
 10
208.796
 20
143.553
 11
209
 21
142
  0
LINE
  8
0
 10
209
 20
142
 11
208.796
 21
140.447
  0
LINE
  8
0
 10
208.796
 20
140.447
 11
208.196
 21
139
  0
LINE
  8
0
 10
208.196
 20
139
 11
207.243
 21
137.757
  0
LINE
  8
0
 10
207.243
 20
137.757
 11
206
 21
136.804
  0
LINE
  8
0
 10
206
 20
136.804
 11
204.553
 21
136.204
  0
LINE
  8
0
 10
204.553
 20
136.204
 11
203
 21
136
  0
LINE
  8
0
 10
203
 20
136
 11
201.447
 21
136.204
  0
LINE
  8
0
 10
201.447
 20
102.204
 11
200
 21
102.804
  0
LINE
  8
0
 10
200
 20
102.804
 11
198.757
 21
103.757
  0
LINE
  8
0
 10
198.757
 20
103.757
 11
197.804
 21
105
  0
LINE
  8
0
 10
197.804
 20
105
 11
197.204
 21
106.447
  0
LINE
  8
0
 10
197.204
 20
106.447
 11
197
 21
108
  0
LINE
  8
0
 10
197
 20
108
 11
197.204
 21
109.553
  0
LINE
  8
0
 10
197.204
 20
109.553
 11
197.804
 21
111
  0
LINE
  8
0
 10
197.804
 20
111
 11
198.757
 21
112.243
  0
LINE
  8
0
 10
198.757
 20
112.243
 11
200
 21
113.196
  0
LINE
  8
0
 10
200
 20
113.196
 11
201.447
 21
113.796
  0
LINE
  8
0
 10
201.447
 20
113.796
 11
203
 21
114
  0
LINE
  8
0
 10
203
 20
114
 11
204.553
 21
113.796
  0
LINE
  8
0
 10
204.553
 20
113.796
 11
206
 21
113.196
  0
LINE
  8
0
 10
206
 20
113.196
 11
207.243
 21
112.243
  0
LINE
  8
0
 10
207.243
 20
112.243
 11
208.196
 21
111
  0
LINE
  8
0
 10
208.196
 20
111
 11
208.796
 21
109.553
  0
LINE
  8
0
 10
208.796
 20
109.553
 11
209
 21
108
  0
LINE
  8
0
 10
209
 20
108
 11
208.796
 21
106.447
  0
LINE
  8
0
 10
208.796
 20
106.447
 11
208.196
 21
105
  0
LINE
  8
0
 10
208.196
 20
105
 11
207.243
 21
103.757
  0
LINE
  8
0
 10
207.243
 20
103.757
 11
206
 21
102.804
  0
LINE
  8
0
 10
206
 20
102.804
 11
204.553
 21
102.204
  0
LINE
  8
0
 10
204.553
 20
102.204
 11
203
 21
102
  0
LINE
  8
0
 10
203
 20
102
 11
201.447
 21
102.204
  0
LINE
  8
0
 10
21.3177
 20
92.7215
 11
19.75
 21
93.3708
  0
LINE
  8
0
 10
19.75
 20
93.3708
 11
18.4038
 21
94.4038
  0
LINE
  8
0
 10
18.4038
 20
94.4038
 11
17.3708
 21
95.75
  0
LINE
  8
0
 10
17.3708
 20
95.75
 11
16.7215
 21
97.3177
  0
LINE
  8
0
 10
16.7215
 20
97.3177
 11
16.5
 21
99
  0
LINE
  8
0
 10
16.5
 20
99
 11
16.7215
 21
100.682
  0
LINE
  8
0
 10
16.7215
 20
100.682
 11
17.3708
 21
102.25
  0
LINE
  8
0
 10
17.3708
 20
102.25
 11
18.4038
 21
103.596
  0
LINE
  8
0
 10
18.4038
 20
103.596
 11
19.75
 21
104.629
  0
LINE
  8
0
 10
19.75
 20
104.629
 11
21.3177
 21
105.279
  0
LINE
  8
0
 10
21.3177
 20
105.279
 11
23
 21
105.5
  0
LINE
  8
0
 10
23
 20
105.5
 11
24.6823
 21
105.279
  0
LINE
  8
0
 10
24.6823
 20
105.279
 11
26.25
 21
104.629
  0
LINE
  8
0
 10
26.25
 20
104.629
 11
27.5962
 21
103.596
  0
LINE
  8
0
 10
27.5962
 20
103.596
 11
28.6292
 21
102.25
  0
LINE
  8
0
 10
28.6292
 20
102.25
 11
29.2785
 21
100.682
  0
LINE
  8
0
 10
29.2785
 20
100.682
 11
29.5
 21
99
  0
LINE
  8
0
 10
29.5
 20
99
 11
29.2785
 21
97.3177
  0
LINE
  8
0
 10
29.2785
 20
97.3177
 11
28.6292
 21
95.75
  0
LINE
  8
0
 10
28.6292
 20
95.75
 11
27.5962
 21
94.4038
  0
LINE
  8
0
 10
27.5962
 20
94.4038
 11
26.25
 21
93.3708
  0
LINE
  8
0
 10
26.25
 20
93.3708
 11
24.6823
 21
92.7215
  0
LINE
  8
0
 10
24.6823
 20
92.7215
 11
23
 21
92.5
  0
LINE
  8
0
 10
23
 20
92.5
 11
21.3177
 21
92.7215
  0
LINE
  8
0
 10
201.447
 20
84.2044
 11
200
 21
84.8038
  0
LINE
  8
0
 10
200
 20
84.8038
 11
198.757
 21
85.7574
  0
LINE
  8
0
 10
198.757
 20
85.7574
 11
197.804
 21
87
  0
LINE
  8
0
 10
197.804
 20
87
 11
197.204
 21
88.4471
  0
LINE
  8
0
 10
197.204
 20
88.4471
 11
197
 21
90
  0
LINE
  8
0
 10
197
 20
90
 11
197.204
 21
91.5529
  0
LINE
  8
0
 10
197.204
 20
91.5529
 11
197.804
 21
93
  0
LINE
  8
0
 10
197.804
 20
93
 11
198.757
 21
94.2426
  0
LINE
  8
0
 10
198.757
 20
94.2426
 11
200
 21
95.1962
  0
LINE
  8
0
 10
200
 20
95.1962
 11
201.447
 21
95.7955
  0
LINE
  8
0
 10
201.447
 20
95.7955
 11
203
 21
96
  0
LINE
  8
0
 10
203
 20
96
 11
204.553
 21
95.7955
  0
LINE
  8
0
 10
204.553
 20
95.7955
 11
206
 21
95.1962
  0
LINE
  8
0
 10
206
 20
95.1962
 11
207.243
 21
94.2426
  0
LINE
  8
0
 10
207.243
 20
94.2426
 11
208.196
 21
93
  0
LINE
  8
0
 10
208.196
 20
93
 11
208.796
 21
91.5529
  0
LINE
  8
0
 10
208.796
 20
91.5529
 11
209
 21
90
  0
LINE
  8
0
 10
209
 20
90
 11
208.796
 21
88.4471
  0
LINE
  8
0
 10
208.796
 20
88.4471
 11
208.196
 21
87
  0
LINE
  8
0
 10
208.196
 20
87
 11
207.243
 21
85.7574
  0
LINE
  8
0
 10
207.243
 20
85.7574
 11
206
 21
84.8038
  0
LINE
  8
0
 10
206
 20
84.8038
 11
204.553
 21
84.2044
  0
LINE
  8
0
 10
204.553
 20
84.2044
 11
203
 21
84
  0
LINE
  8
0
 10
203
 20
84
 11
201.447
 21
84.2044
  0
LINE
  8
0
 10
201.447
 20
50.2044
 11
200
 21
50.8038
  0
LINE
  8
0
 10
200
 20
50.8038
 11
198.757
 21
51.7574
  0
LINE
  8
0
 10
198.757
 20
51.7574
 11
197.804
 21
53
  0
LINE
  8
0
 10
197.804
 20
53
 11
197.204
 21
54.4471
  0
LINE
  8
0
 10
197.204
 20
54.4471
 11
197
 21
56
  0
LINE
  8
0
 10
197
 20
56
 11
197.204
 21
57.5529
  0
LINE
  8
0
 10
197.204
 20
57.5529
 11
197.804
 21
59
  0
LINE
  8
0
 10
197.804
 20
59
 11
198.757
 21
60.2426
  0
LINE
  8
0
 10
198.757
 20
60.2426
 11
200
 21
61.1962
  0
LINE
  8
0
 10
200
 20
61.1962
 11
201.447
 21
61.7955
  0
LINE
  8
0
 10
201.447
 20
61.7955
 11
203
 21
62
  0
LINE
  8
0
 10
203
 20
62
 11
204.553
 21
61.7955
  0
LINE
  8
0
 10
204.553
 20
61.7955
 11
206
 21
61.1962
  0
LINE
  8
0
 10
206
 20
61.1962
 11
207.243
 21
60.2426
  0
LINE
  8
0
 10
207.243
 20
60.2426
 11
208.196
 21
59
  0
LINE
  8
0
 10
208.196
 20
59
 11
208.796
 21
57.5529
  0
LINE
  8
0
 10
208.796
 20
57.5529
 11
209
 21
56
  0
LINE
  8
0
 10
209
 20
56
 11
208.796
 21
54.4471
  0
LINE
  8
0
 10
208.796
 20
54.4471
 11
208.196
 21
53
  0
LINE
  8
0
 10
208.196
 20
53
 11
207.243
 21
51.7574
  0
LINE
  8
0
 10
207.243
 20
51.7574
 11
206
 21
50.8038
  0
LINE
  8
0
 10
206
 20
50.8038
 11
204.553
 21
50.2044
  0
LINE
  8
0
 10
204.553
 20
50.2044
 11
203
 21
50
  0
LINE
  8
0
 10
203
 20
50
 11
201.447
 21
50.2044
  0
LINE
  8
0
 10
21.3177
 20
40.7215
 11
19.75
 21
41.3708
  0
LINE
  8
0
 10
19.75
 20
41.3708
 11
18.4038
 21
42.4038
  0
LINE
  8
0
 10
18.4038
 20
42.4038
 11
17.3708
 21
43.75
  0
LINE
  8
0
 10
17.3708
 20
43.75
 11
16.7215
 21
45.3177
  0
LINE
  8
0
 10
16.7215
 20
45.3177
 11
16.5
 21
47
  0
LINE
  8
0
 10
16.5
 20
47
 11
16.7215
 21
48.6823
  0
LINE
  8
0
 10
16.7215
 20
48.6823
 11
17.3708
 21
50.25
  0
LINE
  8
0
 10
17.3708
 20
50.25
 11
18.4038
 21
51.5962
  0
LINE
  8
0
 10
18.4038
 20
51.5962
 11
19.75
 21
52.6292
  0
LINE
  8
0
 10
19.75
 20
52.6292
 11
21.3177
 21
53.2785
  0
LINE
  8
0
 10
21.3177
 20
53.2785
 11
23
 21
53.5
  0
LINE
  8
0
 10
23
 20
53.5
 11
24.6823
 21
53.2785
  0
LINE
  8
0
 10
24.6823
 20
53.2785
 11
26.25
 21
52.6292
  0
LINE
  8
0
 10
26.25
 20
52.6292
 11
27.5962
 21
51.5962
  0
LINE
  8
0
 10
27.5962
 20
51.5962
 11
28.6292
 21
50.25
  0
LINE
  8
0
 10
28.6292
 20
50.25
 11
29.2785
 21
48.6823
  0
LINE
  8
0
 10
29.2785
 20
48.6823
 11
29.5
 21
47
  0
LINE
  8
0
 10
29.5
 20
47
 11
29.2785
 21
45.3177
  0
LINE
  8
0
 10
29.2785
 20
45.3177
 11
28.6292
 21
43.75
  0
LINE
  8
0
 10
28.6292
 20
43.75
 11
27.5962
 21
42.4038
  0
LINE
  8
0
 10
27.5962
 20
42.4038
 11
26.25
 21
41.3708
  0
LINE
  8
0
 10
26.25
 20
41.3708
 11
24.6823
 21
40.7215
  0
LINE
  8
0
 10
24.6823
 20
40.7215
 11
23
 21
40.5
  0
LINE
  8
0
 10
23
 20
40.5
 11
21.3177
 21
40.7215
  0
LINE
  8
0
 10
201.447
 20
32.2044
 11
200
 21
32.8038
  0
LINE
  8
0
 10
200
 20
32.8038
 11
198.757
 21
33.7574
  0
LINE
  8
0
 10
198.757
 20
33.7574
 11
197.804
 21
35
  0
LINE
  8
0
 10
197.804
 20
35
 11
197.204
 21
36.4471
  0
LINE
  8
0
 10
197.204
 20
36.4471
 11
197
 21
38
  0
LINE
  8
0
 10
197
 20
38
 11
197.204
 21
39.5529
  0
LINE
  8
0
 10
197.204
 20
39.5529
 11
197.804
 21
41
  0
LINE
  8
0
 10
197.804
 20
41
 11
198.757
 21
42.2426
  0
LINE
  8
0
 10
198.757
 20
42.2426
 11
200
 21
43.1962
  0
LINE
  8
0
 10
200
 20
43.1962
 11
201.447
 21
43.7955
  0
LINE
  8
0
 10
201.447
 20
43.7955
 11
203
 21
44
  0
LINE
  8
0
 10
203
 20
44
 11
204.553
 21
43.7955
  0
LINE
  8
0
 10
204.553
 20
43.7955
 11
206
 21
43.1962
  0
LINE
  8
0
 10
206
 20
43.1962
 11
207.243
 21
42.2426
  0
LINE
  8
0
 10
207.243
 20
42.2426
 11
208.196
 21
41
  0
LINE
  8
0
 10
208.196
 20
41
 11
208.796
 21
39.5529
  0
LINE
  8
0
 10
208.796
 20
39.5529
 11
209
 21
38
  0
LINE
  8
0
 10
209
 20
38
 11
208.796
 21
36.4471
  0
LINE
  8
0
 10
208.796
 20
36.4471
 11
208.196
 21
35
  0
LINE
  8
0
 10
208.196
 20
35
 11
207.243
 21
33.7574
  0
LINE
  8
0
 10
207.243
 20
33.7574
 11
206
 21
32.8038
  0
LINE
  8
0
 10
206
 20
32.8038
 11
204.553
 21
32.2044
  0
LINE
  8
0
 10
204.553
 20
32.2044
 11
203
 21
32
  0
LINE
  8
0
 10
203
 20
32
 11
201.447
 21
32.2044
  0
ENDSEC
  0
SECTION
  2
OBJECTS
  0
DICTIONARY
  0
ENDSEC
  0
EOF
