  0
SECTION
  2
BLOCKS
  0
ENDSEC
  0
SECTION
  2
ENTITIES
  0
LINE
  8
0
 10
59.098
 20
-20.3452
 11
59.1951
 21
-20.3308
  0
LINE
  8
0
 10
59.1951
 20
-20.3308
 11
59.2903
 21
-20.3069
  0
LINE
  8
0
 10
59.2903
 20
-20.3069
 11
59.3827
 21
-20.2739
  0
LINE
  8
0
 10
59.3827
 20
-20.2739
 11
59.4714
 21
-20.2319
  0
LINE
  8
0
 10
59.4714
 20
-20.2319
 11
59.5556
 21
-20.1815
  0
LINE
  8
0
 10
59.5556
 20
-20.1815
 11
59.6344
 21
-20.123
  0
LINE
  8
0
 10
59.6344
 20
-20.123
 11
59.7071
 21
-20.0571
  0
LINE
  8
0
 10
59.7071
 20
-20.0571
 11
59.773
 21
-19.9844
  0
LINE
  8
0
 10
59.773
 20
-19.9844
 11
59.8315
 21
-19.9056
  0
LINE
  8
0
 10
59.8315
 20
-19.9056
 11
59.8819
 21
-19.8214
  0
LINE
  8
0
 10
59.8819
 20
-19.8214
 11
59.9239
 21
-19.7327
  0
LINE
  8
0
 10
59.9239
 20
-19.7327
 11
59.9569
 21
-19.6403
  0
LINE
  8
0
 10
59.9569
 20
-19.6403
 11
59.9808
 21
-19.5451
  0
LINE
  8
0
 10
59.9808
 20
-19.5451
 11
59.9952
 21
-19.448
  0
LINE
  8
0
 10
59.9952
 20
-19.448
 11
60
 21
-19.35
  0
LINE
  8
0
 10
60
 20
-19.35
 11
60
 21
19.35
  0
LINE
  8
0
 10
60
 20
19.35
 11
59.9952
 21
19.448
  0
LINE
  8
0
 10
59.9952
 20
19.448
 11
59.9808
 21
19.5451
  0
LINE
  8
0
 10
59.9808
 20
19.5451
 11
59.9569
 21
19.6403
  0
LINE
  8
0
 10
59.9569
 20
19.6403
 11
59.9239
 21
19.7327
  0
LINE
  8
0
 10
59.9239
 20
19.7327
 11
59.8819
 21
19.8214
  0
LINE
  8
0
 10
59.8819
 20
19.8214
 11
59.8315
 21
19.9056
  0
LINE
  8
0
 10
59.8315
 20
19.9056
 11
59.773
 21
19.9844
  0
LINE
  8
0
 10
59.773
 20
19.9844
 11
59.7071
 21
20.0571
  0
LINE
  8
0
 10
59.7071
 20
20.0571
 11
59.6344
 21
20.123
  0
LINE
  8
0
 10
59.6344
 20
20.123
 11
59.5556
 21
20.1815
  0
LINE
  8
0
 10
59.5556
 20
20.1815
 11
59.4714
 21
20.2319
  0
LINE
  8
0
 10
59.4714
 20
20.2319
 11
59.3827
 21
20.2739
  0
LINE
  8
0
 10
59.3827
 20
20.2739
 11
59.2903
 21
20.3069
  0
LINE
  8
0
 10
59.2903
 20
20.3069
 11
59.1951
 21
20.3308
  0
LINE
  8
0
 10
59.1951
 20
20.3308
 11
59.098
 21
20.3452
  0
LINE
  8
0
 10
59.098
 20
20.3452
 11
59
 21
20.35
  0
LINE
  8
0
 10
59
 20
20.35
 11
-59
 21
20.35
  0
LINE
  8
0
 10
-59
 20
20.35
 11
-59.098
 21
20.3452
  0
LINE
  8
0
 10
-59.098
 20
20.3452
 11
-59.1951
 21
20.3308
  0
LINE
  8
0
 10
-59.1951
 20
20.3308
 11
-59.2903
 21
20.3069
  0
LINE
  8
0
 10
-59.2903
 20
20.3069
 11
-59.3827
 21
20.2739
  0
LINE
  8
0
 10
-59.3827
 20
20.2739
 11
-59.4714
 21
20.2319
  0
LINE
  8
0
 10
-59.4714
 20
20.2319
 11
-59.5556
 21
20.1815
  0
LINE
  8
0
 10
-59.5556
 20
20.1815
 11
-59.6344
 21
20.123
  0
LINE
  8
0
 10
-59.6344
 20
20.123
 11
-59.7071
 21
20.0571
  0
LINE
  8
0
 10
-59.7071
 20
20.0571
 11
-59.773
 21
19.9844
  0
LINE
  8
0
 10
-59.773
 20
19.9844
 11
-59.8315
 21
19.9056
  0
LINE
  8
0
 10
-59.8315
 20
19.9056
 11
-59.8819
 21
19.8214
  0
LINE
  8
0
 10
-59.8819
 20
19.8214
 11
-59.9239
 21
19.7327
  0
LINE
  8
0
 10
-59.9239
 20
19.7327
 11
-59.9569
 21
19.6403
  0
LINE
  8
0
 10
-59.9569
 20
19.6403
 11
-59.9808
 21
19.5451
  0
LINE
  8
0
 10
-59.9808
 20
19.5451
 11
-59.9952
 21
19.448
  0
LINE
  8
0
 10
-59.9952
 20
19.448
 11
-60
 21
19.35
  0
LINE
  8
0
 10
-60
 20
19.35
 11
-60
 21
-19.35
  0
LINE
  8
0
 10
-60
 20
-19.35
 11
-59.9952
 21
-19.448
  0
LINE
  8
0
 10
-59.9952
 20
-19.448
 11
-59.9808
 21
-19.5451
  0
LINE
  8
0
 10
-59.9808
 20
-19.5451
 11
-59.9569
 21
-19.6403
  0
LINE
  8
0
 10
-59.9569
 20
-19.6403
 11
-59.9239
 21
-19.7327
  0
LINE
  8
0
 10
-59.9239
 20
-19.7327
 11
-59.8819
 21
-19.8214
  0
LINE
  8
0
 10
-59.8819
 20
-19.8214
 11
-59.8315
 21
-19.9056
  0
LINE
  8
0
 10
-59.8315
 20
-19.9056
 11
-59.773
 21
-19.9844
  0
LINE
  8
0
 10
-59.773
 20
-19.9844
 11
-59.7071
 21
-20.0571
  0
LINE
  8
0
 10
-59.7071
 20
-20.0571
 11
-59.6344
 21
-20.123
  0
LINE
  8
0
 10
-59.6344
 20
-20.123
 11
-59.5556
 21
-20.1815
  0
LINE
  8
0
 10
-59.5556
 20
-20.1815
 11
-59.4714
 21
-20.2319
  0
LINE
  8
0
 10
-59.4714
 20
-20.2319
 11
-59.3827
 21
-20.2739
  0
LINE
  8
0
 10
-59.3827
 20
-20.2739
 11
-59.2903
 21
-20.3069
  0
LINE
  8
0
 10
-59.2903
 20
-20.3069
 11
-59.1951
 21
-20.3308
  0
LINE
  8
0
 10
-59.1951
 20
-20.3308
 11
-59.098
 21
-20.3452
  0
LINE
  8
0
 10
-59.098
 20
-20.3452
 11
-59
 21
-20.35
  0
LINE
  8
0
 10
-59
 20
-20.35
 11
59
 21
-20.35
  0
LINE
  8
0
 10
59
 20
-20.35
 11
59.098
 21
-20.3452
  0
LINE
  8
0
 10
-55.2058
 20
13.2601
 11
-55.4097
 21
13.2903
  0
LINE
  8
0
 10
-55.4097
 20
13.2903
 11
-55.6096
 21
13.3404
  0
LINE
  8
0
 10
-55.6096
 20
13.3404
 11
-55.8036
 21
13.4099
  0
LINE
  8
0
 10
-55.8036
 20
13.4099
 11
-55.9899
 21
13.498
  0
LINE
  8
0
 10
-55.9899
 20
13.498
 11
-56.1667
 21
13.6039
  0
LINE
  8
0
 10
-56.1667
 20
13.6039
 11
-56.3322
 21
13.7267
  0
LINE
  8
0
 10
-56.3322
 20
13.7267
 11
-56.4849
 21
13.8651
  0
LINE
  8
0
 10
-56.4849
 20
13.8651
 11
-56.6233
 21
14.0178
  0
LINE
  8
0
 10
-56.6233
 20
14.0178
 11
-56.7461
 21
14.1833
  0
LINE
  8
0
 10
-56.7461
 20
14.1833
 11
-56.852
 21
14.3601
  0
LINE
  8
0
 10
-56.852
 20
14.3601
 11
-56.9401
 21
14.5464
  0
LINE
  8
0
 10
-56.9401
 20
14.5464
 11
-57.0096
 21
14.7404
  0
LINE
  8
0
 10
-57.0096
 20
14.7404
 11
-57.0596
 21
14.9403
  0
LINE
  8
0
 10
-57.0596
 20
14.9403
 11
-57.0899
 21
15.1441
  0
LINE
  8
0
 10
-57.0899
 20
15.1441
 11
-57.1
 21
15.35
  0
LINE
  8
0
 10
-57.1
 20
15.35
 11
-57.0899
 21
15.5558
  0
LINE
  8
0
 10
-57.0899
 20
15.5558
 11
-57.0596
 21
15.7597
  0
LINE
  8
0
 10
-57.0596
 20
15.7597
 11
-57.0096
 21
15.9596
  0
LINE
  8
0
 10
-57.0096
 20
15.9596
 11
-56.9401
 21
16.1536
  0
LINE
  8
0
 10
-56.9401
 20
16.1536
 11
-56.852
 21
16.3399
  0
LINE
  8
0
 10
-56.852
 20
16.3399
 11
-56.7461
 21
16.5167
  0
LINE
  8
0
 10
-56.7461
 20
16.5167
 11
-56.6233
 21
16.6822
  0
LINE
  8
0
 10
-56.6233
 20
16.6822
 11
-56.4849
 21
16.8349
  0
LINE
  8
0
 10
-56.4849
 20
16.8349
 11
-56.3322
 21
16.9733
  0
LINE
  8
0
 10
-56.3322
 20
16.9733
 11
-56.1667
 21
17.0961
  0
LINE
  8
0
 10
-56.1667
 20
17.0961
 11
-55.9899
 21
17.202
  0
LINE
  8
0
 10
-55.9899
 20
17.202
 11
-55.8036
 21
17.2901
  0
LINE
  8
0
 10
-55.8036
 20
17.2901
 11
-55.6096
 21
17.3596
  0
LINE
  8
0
 10
-55.6096
 20
17.3596
 11
-55.4097
 21
17.4096
  0
LINE
  8
0
 10
-55.4097
 20
17.4096
 11
-55.2058
 21
17.4399
  0
LINE
  8
0
 10
-55.2058
 20
17.4399
 11
-55
 21
17.45
  0
LINE
  8
0
 10
-55
 20
17.45
 11
-54.7942
 21
17.4399
  0
LINE
  8
0
 10
-54.7942
 20
17.4399
 11
-54.5903
 21
17.4096
  0
LINE
  8
0
 10
-54.5903
 20
17.4096
 11
-54.3904
 21
17.3596
  0
LINE
  8
0
 10
-54.3904
 20
17.3596
 11
-54.1964
 21
17.2901
  0
LINE
  8
0
 10
-54.1964
 20
17.2901
 11
-54.0101
 21
17.202
  0
LINE
  8
0
 10
-54.0101
 20
17.202
 11
-53.8333
 21
17.0961
  0
LINE
  8
0
 10
-53.8333
 20
17.0961
 11
-53.6678
 21
16.9733
  0
LINE
  8
0
 10
-53.6678
 20
16.9733
 11
-53.5151
 21
16.8349
  0
LINE
  8
0
 10
-53.5151
 20
16.8349
 11
-53.3767
 21
16.6822
  0
LINE
  8
0
 10
-53.3767
 20
16.6822
 11
-53.2539
 21
16.5167
  0
LINE
  8
0
 10
-53.2539
 20
16.5167
 11
-53.148
 21
16.3399
  0
LINE
  8
0
 10
-53.148
 20
16.3399
 11
-53.0598
 21
16.1536
  0
LINE
  8
0
 10
-53.0598
 20
16.1536
 11
-52.9904
 21
15.9596
  0
LINE
  8
0
 10
-52.9904
 20
15.9596
 11
-52.9403
 21
15.7597
  0
LINE
  8
0
 10
-52.9403
 20
15.7597
 11
-52.9101
 21
15.5558
  0
LINE
  8
0
 10
-52.9101
 20
15.5558
 11
-52.9
 21
15.35
  0
LINE
  8
0
 10
-52.9
 20
15.35
 11
-52.9101
 21
15.1441
  0
LINE
  8
0
 10
-52.9101
 20
15.1441
 11
-52.9403
 21
14.9403
  0
LINE
  8
0
 10
-52.9403
 20
14.9403
 11
-52.9904
 21
14.7404
  0
LINE
  8
0
 10
-52.9904
 20
14.7404
 11
-53.0598
 21
14.5464
  0
LINE
  8
0
 10
-53.0598
 20
14.5464
 11
-53.148
 21
14.3601
  0
LINE
  8
0
 10
-53.148
 20
14.3601
 11
-53.2539
 21
14.1833
  0
LINE
  8
0
 10
-53.2539
 20
14.1833
 11
-53.3767
 21
14.0178
  0
LINE
  8
0
 10
-53.3767
 20
14.0178
 11
-53.5151
 21
13.8651
  0
LINE
  8
0
 10
-53.5151
 20
13.8651
 11
-53.6678
 21
13.7267
  0
LINE
  8
0
 10
-53.6678
 20
13.7267
 11
-53.8333
 21
13.6039
  0
LINE
  8
0
 10
-53.8333
 20
13.6039
 11
-54.0101
 21
13.498
  0
LINE
  8
0
 10
-54.0101
 20
13.498
 11
-54.1964
 21
13.4099
  0
LINE
  8
0
 10
-54.1964
 20
13.4099
 11
-54.3904
 21
13.3404
  0
LINE
  8
0
 10
-54.3904
 20
13.3404
 11
-54.5903
 21
13.2903
  0
LINE
  8
0
 10
-54.5903
 20
13.2903
 11
-54.7942
 21
13.2601
  0
LINE
  8
0
 10
-54.7942
 20
13.2601
 11
-55
 21
13.25
  0
LINE
  8
0
 10
-55
 20
13.25
 11
-55.2058
 21
13.2601
  0
LINE
  8
0
 10
54.7942
 20
13.2601
 11
54.5903
 21
13.2903
  0
LINE
  8
0
 10
54.5903
 20
13.2903
 11
54.3904
 21
13.3404
  0
LINE
  8
0
 10
54.3904
 20
13.3404
 11
54.1964
 21
13.4099
  0
LINE
  8
0
 10
54.1964
 20
13.4099
 11
54.0101
 21
13.498
  0
LINE
  8
0
 10
54.0101
 20
13.498
 11
53.8333
 21
13.6039
  0
LINE
  8
0
 10
53.8333
 20
13.6039
 11
53.6678
 21
13.7267
  0
LINE
  8
0
 10
53.6678
 20
13.7267
 11
53.5151
 21
13.8651
  0
LINE
  8
0
 10
53.5151
 20
13.8651
 11
53.3767
 21
14.0178
  0
LINE
  8
0
 10
53.3767
 20
14.0178
 11
53.2539
 21
14.1833
  0
LINE
  8
0
 10
53.2539
 20
14.1833
 11
53.148
 21
14.3601
  0
LINE
  8
0
 10
53.148
 20
14.3601
 11
53.0598
 21
14.5464
  0
LINE
  8
0
 10
53.0598
 20
14.5464
 11
52.9904
 21
14.7404
  0
LINE
  8
0
 10
52.9904
 20
14.7404
 11
52.9403
 21
14.9403
  0
LINE
  8
0
 10
52.9403
 20
14.9403
 11
52.9101
 21
15.1441
  0
LINE
  8
0
 10
52.9101
 20
15.1441
 11
52.9
 21
15.35
  0
LINE
  8
0
 10
52.9
 20
15.35
 11
52.9101
 21
15.5558
  0
LINE
  8
0
 10
52.9101
 20
15.5558
 11
52.9403
 21
15.7597
  0
LINE
  8
0
 10
52.9403
 20
15.7597
 11
52.9904
 21
15.9596
  0
LINE
  8
0
 10
52.9904
 20
15.9596
 11
53.0598
 21
16.1536
  0
LINE
  8
0
 10
53.0598
 20
16.1536
 11
53.148
 21
16.3399
  0
LINE
  8
0
 10
53.148
 20
16.3399
 11
53.2539
 21
16.5167
  0
LINE
  8
0
 10
53.2539
 20
16.5167
 11
53.3767
 21
16.6822
  0
LINE
  8
0
 10
53.3767
 20
16.6822
 11
53.5151
 21
16.8349
  0
LINE
  8
0
 10
53.5151
 20
16.8349
 11
53.6678
 21
16.9733
  0
LINE
  8
0
 10
53.6678
 20
16.9733
 11
53.8333
 21
17.0961
  0
LINE
  8
0
 10
53.8333
 20
17.0961
 11
54.0101
 21
17.202
  0
LINE
  8
0
 10
54.0101
 20
17.202
 11
54.1964
 21
17.2901
  0
LINE
  8
0
 10
54.1964
 20
17.2901
 11
54.3904
 21
17.3596
  0
LINE
  8
0
 10
54.3904
 20
17.3596
 11
54.5903
 21
17.4096
  0
LINE
  8
0
 10
54.5903
 20
17.4096
 11
54.7942
 21
17.4399
  0
LINE
  8
0
 10
54.7942
 20
17.4399
 11
55
 21
17.45
  0
LINE
  8
0
 10
55
 20
17.45
 11
55.2058
 21
17.4399
  0
LINE
  8
0
 10
55.2058
 20
17.4399
 11
55.4097
 21
17.4096
  0
LINE
  8
0
 10
55.4097
 20
17.4096
 11
55.6096
 21
17.3596
  0
LINE
  8
0
 10
55.6096
 20
17.3596
 11
55.8036
 21
17.2901
  0
LINE
  8
0
 10
55.8036
 20
17.2901
 11
55.9899
 21
17.202
  0
LINE
  8
0
 10
55.9899
 20
17.202
 11
56.1667
 21
17.0961
  0
LINE
  8
0
 10
56.1667
 20
17.0961
 11
56.3322
 21
16.9733
  0
LINE
  8
0
 10
56.3322
 20
16.9733
 11
56.4849
 21
16.8349
  0
LINE
  8
0
 10
56.4849
 20
16.8349
 11
56.6233
 21
16.6822
  0
LINE
  8
0
 10
56.6233
 20
16.6822
 11
56.7461
 21
16.5167
  0
LINE
  8
0
 10
56.7461
 20
16.5167
 11
56.852
 21
16.3399
  0
LINE
  8
0
 10
56.852
 20
16.3399
 11
56.9401
 21
16.1536
  0
LINE
  8
0
 10
56.9401
 20
16.1536
 11
57.0096
 21
15.9596
  0
LINE
  8
0
 10
57.0096
 20
15.9596
 11
57.0596
 21
15.7597
  0
LINE
  8
0
 10
57.0596
 20
15.7597
 11
57.0899
 21
15.5558
  0
LINE
  8
0
 10
57.0899
 20
15.5558
 11
57.1
 21
15.35
  0
LINE
  8
0
 10
57.1
 20
15.35
 11
57.0899
 21
15.1441
  0
LINE
  8
0
 10
57.0899
 20
15.1441
 11
57.0596
 21
14.9403
  0
LINE
  8
0
 10
57.0596
 20
14.9403
 11
57.0096
 21
14.7404
  0
LINE
  8
0
 10
57.0096
 20
14.7404
 11
56.9401
 21
14.5464
  0
LINE
  8
0
 10
56.9401
 20
14.5464
 11
56.852
 21
14.3601
  0
LINE
  8
0
 10
56.852
 20
14.3601
 11
56.7461
 21
14.1833
  0
LINE
  8
0
 10
56.7461
 20
14.1833
 11
56.6233
 21
14.0178
  0
LINE
  8
0
 10
56.6233
 20
14.0178
 11
56.4849
 21
13.8651
  0
LINE
  8
0
 10
56.4849
 20
13.8651
 11
56.3322
 21
13.7267
  0
LINE
  8
0
 10
56.3322
 20
13.7267
 11
56.1667
 21
13.6039
  0
LINE
  8
0
 10
56.1667
 20
13.6039
 11
55.9899
 21
13.498
  0
LINE
  8
0
 10
55.9899
 20
13.498
 11
55.8036
 21
13.4099
  0
LINE
  8
0
 10
55.8036
 20
13.4099
 11
55.6096
 21
13.3404
  0
LINE
  8
0
 10
55.6096
 20
13.3404
 11
55.4097
 21
13.2903
  0
LINE
  8
0
 10
55.4097
 20
13.2903
 11
55.2058
 21
13.2601
  0
LINE
  8
0
 10
55.2058
 20
13.2601
 11
55
 21
13.25
  0
LINE
  8
0
 10
55
 20
13.25
 11
54.7942
 21
13.2601
  0
LINE
  8
0
 10
24.75
 20
9.46227
 11
24.5025
 21
9.49899
  0
LINE
  8
0
 10
24.5025
 20
9.49899
 11
24.2598
 21
9.5598
  0
LINE
  8
0
 10
24.2598
 20
9.5598
 11
24.0242
 21
9.6441
  0
LINE
  8
0
 10
24.0242
 20
9.6441
 11
23.7979
 21
9.7511
  0
LINE
  8
0
 10
23.7979
 20
9.7511
 11
23.5833
 21
9.87975
  0
LINE
  8
0
 10
23.5833
 20
9.87975
 11
23.3823
 21
10.0288
  0
LINE
  8
0
 10
23.3823
 20
10.0288
 11
23.1969
 21
10.1969
  0
LINE
  8
0
 10
23.1969
 20
10.1969
 11
23.0288
 21
10.3823
  0
LINE
  8
0
 10
23.0288
 20
10.3823
 11
22.8797
 21
10.5833
  0
LINE
  8
0
 10
22.8797
 20
10.5833
 11
22.7511
 21
10.7979
  0
LINE
  8
0
 10
22.7511
 20
10.7979
 11
22.6441
 21
11.0242
  0
LINE
  8
0
 10
22.6441
 20
11.0242
 11
22.5598
 21
11.2598
  0
LINE
  8
0
 10
22.5598
 20
11.2598
 11
22.499
 21
11.5025
  0
LINE
  8
0
 10
22.499
 20
11.5025
 11
22.4623
 21
11.75
  0
LINE
  8
0
 10
22.4623
 20
11.75
 11
22.45
 21
12
  0
LINE
  8
0
 10
22.45
 20
12
 11
22.4623
 21
12.2499
  0
LINE
  8
0
 10
22.4623
 20
12.2499
 11
22.499
 21
12.4975
  0
LINE
  8
0
 10
22.499
 20
12.4975
 11
22.5598
 21
12.7402
  0
LINE
  8
0
 10
22.5598
 20
12.7402
 11
22.6441
 21
12.9758
  0
LINE
  8
0
 10
22.6441
 20
12.9758
 11
22.7511
 21
13.2021
  0
LINE
  8
0
 10
22.7511
 20
13.2021
 11
22.8797
 21
13.4167
  0
LINE
  8
0
 10
22.8797
 20
13.4167
 11
23.0288
 21
13.6177
  0
LINE
  8
0
 10
23.0288
 20
13.6177
 11
23.1969
 21
13.8031
  0
LINE
  8
0
 10
23.1969
 20
13.8031
 11
23.3823
 21
13.9712
  0
LINE
  8
0
 10
23.3823
 20
13.9712
 11
23.5833
 21
14.1202
  0
LINE
  8
0
 10
23.5833
 20
14.1202
 11
23.7979
 21
14.2489
  0
LINE
  8
0
 10
23.7979
 20
14.2489
 11
24.0242
 21
14.3559
  0
LINE
  8
0
 10
24.0242
 20
14.3559
 11
24.2598
 21
14.4402
  0
LINE
  8
0
 10
24.2598
 20
14.4402
 11
24.5025
 21
14.501
  0
LINE
  8
0
 10
24.5025
 20
14.501
 11
24.75
 21
14.5377
  0
LINE
  8
0
 10
24.75
 20
14.5377
 11
25
 21
14.55
  0
LINE
  8
0
 10
25
 20
14.55
 11
25.2499
 21
14.5377
  0
LINE
  8
0
 10
25.2499
 20
14.5377
 11
25.4975
 21
14.501
  0
LINE
  8
0
 10
25.4975
 20
14.501
 11
25.7402
 21
14.4402
  0
LINE
  8
0
 10
25.7402
 20
14.4402
 11
25.9758
 21
14.3559
  0
LINE
  8
0
 10
25.9758
 20
14.3559
 11
26.2021
 21
14.2489
  0
LINE
  8
0
 10
26.2021
 20
14.2489
 11
26.4167
 21
14.1202
  0
LINE
  8
0
 10
26.4167
 20
14.1202
 11
26.6177
 21
13.9712
  0
LINE
  8
0
 10
26.6177
 20
13.9712
 11
26.8031
 21
13.8031
  0
LINE
  8
0
 10
26.8031
 20
13.8031
 11
26.9712
 21
13.6177
  0
LINE
  8
0
 10
26.9712
 20
13.6177
 11
27.1202
 21
13.4167
  0
LINE
  8
0
 10
27.1202
 20
13.4167
 11
27.2489
 21
13.2021
  0
LINE
  8
0
 10
27.2489
 20
13.2021
 11
27.3559
 21
12.9758
  0
LINE
  8
0
 10
27.3559
 20
12.9758
 11
27.4402
 21
12.7402
  0
LINE
  8
0
 10
27.4402
 20
12.7402
 11
27.501
 21
12.4975
  0
LINE
  8
0
 10
27.501
 20
12.4975
 11
27.5377
 21
12.2499
  0
LINE
  8
0
 10
27.5377
 20
12.2499
 11
27.55
 21
12
  0
LINE
  8
0
 10
27.55
 20
12
 11
27.5377
 21
11.75
  0
LINE
  8
0
 10
27.5377
 20
11.75
 11
27.501
 21
11.5025
  0
LINE
  8
0
 10
27.501
 20
11.5025
 11
27.4402
 21
11.2598
  0
LINE
  8
0
 10
27.4402
 20
11.2598
 11
27.3559
 21
11.0242
  0
LINE
  8
0
 10
27.3559
 20
11.0242
 11
27.2489
 21
10.7979
  0
LINE
  8
0
 10
27.2489
 20
10.7979
 11
27.1202
 21
10.5833
  0
LINE
  8
0
 10
27.1202
 20
10.5833
 11
26.9712
 21
10.3823
  0
LINE
  8
0
 10
26.9712
 20
10.3823
 11
26.8031
 21
10.1969
  0
LINE
  8
0
 10
26.8031
 20
10.1969
 11
26.6177
 21
10.0288
  0
LINE
  8
0
 10
26.6177
 20
10.0288
 11
26.4167
 21
9.87975
  0
LINE
  8
0
 10
26.4167
 20
9.87975
 11
26.2021
 21
9.7511
  0
LINE
  8
0
 10
26.2021
 20
9.7511
 11
25.9758
 21
9.6441
  0
LINE
  8
0
 10
25.9758
 20
9.6441
 11
25.7402
 21
9.5598
  0
LINE
  8
0
 10
25.7402
 20
9.5598
 11
25.4975
 21
9.49899
  0
LINE
  8
0
 10
25.4975
 20
9.49899
 11
25.2499
 21
9.46227
  0
LINE
  8
0
 10
25.2499
 20
9.46227
 11
25
 21
9.45
  0
LINE
  8
0
 10
25
 20
9.45
 11
24.75
 21
9.46227
  0
LINE
  8
0
 10
9.75005
 20
9.46227
 11
9.50252
 21
9.49899
  0
LINE
  8
0
 10
9.50252
 20
9.49899
 11
9.25977
 21
9.5598
  0
LINE
  8
0
 10
9.25977
 20
9.5598
 11
9.02415
 21
9.6441
  0
LINE
  8
0
 10
9.02415
 20
9.6441
 11
8.79793
 21
9.7511
  0
LINE
  8
0
 10
8.79793
 20
9.7511
 11
8.58328
 21
9.87975
  0
LINE
  8
0
 10
8.58328
 20
9.87975
 11
8.38229
 21
10.0288
  0
LINE
  8
0
 10
8.38229
 20
10.0288
 11
8.19687
 21
10.1969
  0
LINE
  8
0
 10
8.19687
 20
10.1969
 11
8.02881
 21
10.3823
  0
LINE
  8
0
 10
8.02881
 20
10.3823
 11
7.87975
 21
10.5833
  0
LINE
  8
0
 10
7.87975
 20
10.5833
 11
7.7511
 21
10.7979
  0
LINE
  8
0
 10
7.7511
 20
10.7979
 11
7.6441
 21
11.0242
  0
LINE
  8
0
 10
7.6441
 20
11.0242
 11
7.5598
 21
11.2598
  0
LINE
  8
0
 10
7.5598
 20
11.2598
 11
7.49899
 21
11.5025
  0
LINE
  8
0
 10
7.49899
 20
11.5025
 11
7.46227
 21
11.75
  0
LINE
  8
0
 10
7.46227
 20
11.75
 11
7.45
 21
12
  0
LINE
  8
0
 10
7.45
 20
12
 11
7.46227
 21
12.2499
  0
LINE
  8
0
 10
7.46227
 20
12.2499
 11
7.49899
 21
12.4975
  0
LINE
  8
0
 10
7.49899
 20
12.4975
 11
7.5598
 21
12.7402
  0
LINE
  8
0
 10
7.5598
 20
12.7402
 11
7.6441
 21
12.9758
  0
LINE
  8
0
 10
7.6441
 20
12.9758
 11
7.7511
 21
13.2021
  0
LINE
  8
0
 10
7.7511
 20
13.2021
 11
7.87975
 21
13.4167
  0
LINE
  8
0
 10
7.87975
 20
13.4167
 11
8.02881
 21
13.6177
  0
LINE
  8
0
 10
8.02881
 20
13.6177
 11
8.19687
 21
13.8031
  0
LINE
  8
0
 10
8.19687
 20
13.8031
 11
8.38229
 21
13.9712
  0
LINE
  8
0
 10
8.38229
 20
13.9712
 11
8.58328
 21
14.1202
  0
LINE
  8
0
 10
8.58328
 20
14.1202
 11
8.79793
 21
14.2489
  0
LINE
  8
0
 10
8.79793
 20
14.2489
 11
9.02415
 21
14.3559
  0
LINE
  8
0
 10
9.02415
 20
14.3559
 11
9.25977
 21
14.4402
  0
LINE
  8
0
 10
9.25977
 20
14.4402
 11
9.50252
 21
14.501
  0
LINE
  8
0
 10
9.50252
 20
14.501
 11
9.75005
 21
14.5377
  0
LINE
  8
0
 10
9.75005
 20
14.5377
 11
10
 21
14.55
  0
LINE
  8
0
 10
10
 20
14.55
 11
10.2499
 21
14.5377
  0
LINE
  8
0
 10
10.2499
 20
14.5377
 11
10.4975
 21
14.501
  0
LINE
  8
0
 10
10.4975
 20
14.501
 11
10.7402
 21
14.4402
  0
LINE
  8
0
 10
10.7402
 20
14.4402
 11
10.9758
 21
14.3559
  0
LINE
  8
0
 10
10.9758
 20
14.3559
 11
11.2021
 21
14.2489
  0
LINE
  8
0
 10
11.2021
 20
14.2489
 11
11.4167
 21
14.1202
  0
LINE
  8
0
 10
11.4167
 20
14.1202
 11
11.6177
 21
13.9712
  0
LINE
  8
0
 10
11.6177
 20
13.9712
 11
11.8031
 21
13.8031
  0
LINE
  8
0
 10
11.8031
 20
13.8031
 11
11.9712
 21
13.6177
  0
LINE
  8
0
 10
11.9712
 20
13.6177
 11
12.1202
 21
13.4167
  0
LINE
  8
0
 10
12.1202
 20
13.4167
 11
12.2489
 21
13.2021
  0
LINE
  8
0
 10
12.2489
 20
13.2021
 11
12.3559
 21
12.9758
  0
LINE
  8
0
 10
12.3559
 20
12.9758
 11
12.4402
 21
12.7402
  0
LINE
  8
0
 10
12.4402
 20
12.7402
 11
12.501
 21
12.4975
  0
LINE
  8
0
 10
12.501
 20
12.4975
 11
12.5377
 21
12.2499
  0
LINE
  8
0
 10
12.5377
 20
12.2499
 11
12.55
 21
12
  0
LINE
  8
0
 10
12.55
 20
12
 11
12.5377
 21
11.75
  0
LINE
  8
0
 10
12.5377
 20
11.75
 11
12.501
 21
11.5025
  0
LINE
  8
0
 10
12.501
 20
11.5025
 11
12.4402
 21
11.2598
  0
LINE
  8
0
 10
12.4402
 20
11.2598
 11
12.3559
 21
11.0242
  0
LINE
  8
0
 10
12.3559
 20
11.0242
 11
12.2489
 21
10.7979
  0
LINE
  8
0
 10
12.2489
 20
10.7979
 11
12.1202
 21
10.5833
  0
LINE
  8
0
 10
12.1202
 20
10.5833
 11
11.9712
 21
10.3823
  0
LINE
  8
0
 10
11.9712
 20
10.3823
 11
11.8031
 21
10.1969
  0
LINE
  8
0
 10
11.8031
 20
10.1969
 11
11.6177
 21
10.0288
  0
LINE
  8
0
 10
11.6177
 20
10.0288
 11
11.4167
 21
9.87975
  0
LINE
  8
0
 10
11.4167
 20
9.87975
 11
11.2021
 21
9.7511
  0
LINE
  8
0
 10
11.2021
 20
9.7511
 11
10.9758
 21
9.6441
  0
LINE
  8
0
 10
10.9758
 20
9.6441
 11
10.7402
 21
9.5598
  0
LINE
  8
0
 10
10.7402
 20
9.5598
 11
10.4975
 21
9.49899
  0
LINE
  8
0
 10
10.4975
 20
9.49899
 11
10.2499
 21
9.46227
  0
LINE
  8
0
 10
10.2499
 20
9.46227
 11
10
 21
9.45
  0
LINE
  8
0
 10
10
 20
9.45
 11
9.75005
 21
9.46227
  0
LINE
  8
0
 10
24.75
 20
-2.53772
 11
24.5025
 21
-2.50099
  0
LINE
  8
0
 10
24.5025
 20
-2.50099
 11
24.2598
 21
-2.44019
  0
LINE
  8
0
 10
24.2598
 20
-2.44019
 11
24.0242
 21
-2.35588
  0
LINE
  8
0
 10
24.0242
 20
-2.35588
 11
23.7979
 21
-2.24889
  0
LINE
  8
0
 10
23.7979
 20
-2.24889
 11
23.5833
 21
-2.12024
  0
LINE
  8
0
 10
23.5833
 20
-2.12024
 11
23.3823
 21
-1.97118
  0
LINE
  8
0
 10
23.3823
 20
-1.97118
 11
23.1969
 21
-1.80312
  0
LINE
  8
0
 10
23.1969
 20
-1.80312
 11
23.0288
 21
-1.61769
  0
LINE
  8
0
 10
23.0288
 20
-1.61769
 11
22.8797
 21
-1.4167
  0
LINE
  8
0
 10
22.8797
 20
-1.4167
 11
22.7511
 21
-1.20206
  0
LINE
  8
0
 10
22.7511
 20
-1.20206
 11
22.6441
 21
-0.97583
  0
LINE
  8
0
 10
22.6441
 20
-0.97583
 11
22.5598
 21
-0.740219
  0
LINE
  8
0
 10
22.5598
 20
-0.740219
 11
22.499
 21
-0.497467
  0
LINE
  8
0
 10
22.499
 20
-0.497467
 11
22.4623
 21
-0.249939
  0
LINE
  8
0
 10
22.4623
 20
-0.249939
 11
22.45
 21
0
  0
LINE
  8
0
 10
22.45
 20
0
 11
22.4623
 21
0.249939
  0
LINE
  8
0
 10
22.4623
 20
0.249939
 11
22.499
 21
0.497467
  0
LINE
  8
0
 10
22.499
 20
0.497467
 11
22.5598
 21
0.740219
  0
LINE
  8
0
 10
22.5598
 20
0.740219
 11
22.6441
 21
0.97583
  0
LINE
  8
0
 10
22.6441
 20
0.97583
 11
22.7511
 21
1.20206
  0
LINE
  8
0
 10
22.7511
 20
1.20206
 11
22.8797
 21
1.4167
  0
LINE
  8
0
 10
22.8797
 20
1.4167
 11
23.0288
 21
1.61769
  0
LINE
  8
0
 10
23.0288
 20
1.61769
 11
23.1969
 21
1.80312
  0
LINE
  8
0
 10
23.1969
 20
1.80312
 11
23.3823
 21
1.97118
  0
LINE
  8
0
 10
23.3823
 20
1.97118
 11
23.5833
 21
2.12024
  0
LINE
  8
0
 10
23.5833
 20
2.12024
 11
23.7979
 21
2.24889
  0
LINE
  8
0
 10
23.7979
 20
2.24889
 11
24.0242
 21
2.35588
  0
LINE
  8
0
 10
24.0242
 20
2.35588
 11
24.2598
 21
2.44019
  0
LINE
  8
0
 10
24.2598
 20
2.44019
 11
24.5025
 21
2.50099
  0
LINE
  8
0
 10
24.5025
 20
2.50099
 11
24.75
 21
2.53772
  0
LINE
  8
0
 10
24.75
 20
2.53772
 11
25
 21
2.54999
  0
LINE
  8
0
 10
25
 20
2.54999
 11
25.2499
 21
2.53772
  0
LINE
  8
0
 10
25.2499
 20
2.53772
 11
25.4975
 21
2.50099
  0
LINE
  8
0
 10
25.4975
 20
2.50099
 11
25.7402
 21
2.44019
  0
LINE
  8
0
 10
25.7402
 20
2.44019
 11
25.9758
 21
2.35588
  0
LINE
  8
0
 10
25.9758
 20
2.35588
 11
26.2021
 21
2.24889
  0
LINE
  8
0
 10
26.2021
 20
2.24889
 11
26.4167
 21
2.12024
  0
LINE
  8
0
 10
26.4167
 20
2.12024
 11
26.6177
 21
1.97118
  0
LINE
  8
0
 10
26.6177
 20
1.97118
 11
26.8031
 21
1.80312
  0
LINE
  8
0
 10
26.8031
 20
1.80312
 11
26.9712
 21
1.61769
  0
LINE
  8
0
 10
26.9712
 20
1.61769
 11
27.1202
 21
1.4167
  0
LINE
  8
0
 10
27.1202
 20
1.4167
 11
27.2489
 21
1.20206
  0
LINE
  8
0
 10
27.2489
 20
1.20206
 11
27.3559
 21
0.97583
  0
LINE
  8
0
 10
27.3559
 20
0.97583
 11
27.4402
 21
0.740219
  0
LINE
  8
0
 10
27.4402
 20
0.740219
 11
27.501
 21
0.497467
  0
LINE
  8
0
 10
27.501
 20
0.497467
 11
27.5377
 21
0.249939
  0
LINE
  8
0
 10
27.5377
 20
0.249939
 11
27.55
 21
0
  0
LINE
  8
0
 10
27.55
 20
0
 11
27.5377
 21
-0.249939
  0
LINE
  8
0
 10
27.5377
 20
-0.249939
 11
27.501
 21
-0.497467
  0
LINE
  8
0
 10
27.501
 20
-0.497467
 11
27.4402
 21
-0.740219
  0
LINE
  8
0
 10
27.4402
 20
-0.740219
 11
27.3559
 21
-0.97583
  0
LINE
  8
0
 10
27.3559
 20
-0.97583
 11
27.2489
 21
-1.20206
  0
LINE
  8
0
 10
27.2489
 20
-1.20206
 11
27.1202
 21
-1.4167
  0
LINE
  8
0
 10
27.1202
 20
-1.4167
 11
26.9712
 21
-1.61769
  0
LINE
  8
0
 10
26.9712
 20
-1.61769
 11
26.8031
 21
-1.80312
  0
LINE
  8
0
 10
26.8031
 20
-1.80312
 11
26.6177
 21
-1.97118
  0
LINE
  8
0
 10
26.6177
 20
-1.97118
 11
26.4167
 21
-2.12024
  0
LINE
  8
0
 10
26.4167
 20
-2.12024
 11
26.2021
 21
-2.24889
  0
LINE
  8
0
 10
26.2021
 20
-2.24889
 11
25.9758
 21
-2.35588
  0
LINE
  8
0
 10
25.9758
 20
-2.35588
 11
25.7402
 21
-2.44019
  0
LINE
  8
0
 10
25.7402
 20
-2.44019
 11
25.4975
 21
-2.50099
  0
LINE
  8
0
 10
25.4975
 20
-2.50099
 11
25.2499
 21
-2.53772
  0
LINE
  8
0
 10
25.2499
 20
-2.53772
 11
25
 21
-2.54999
  0
LINE
  8
0
 10
25
 20
-2.54999
 11
24.75
 21
-2.53772
  0
LINE
  8
0
 10
9.75005
 20
-2.53772
 11
9.50252
 21
-2.50099
  0
LINE
  8
0
 10
9.50252
 20
-2.50099
 11
9.25977
 21
-2.44019
  0
LINE
  8
0
 10
9.25977
 20
-2.44019
 11
9.02415
 21
-2.35588
  0
LINE
  8
0
 10
9.02415
 20
-2.35588
 11
8.79793
 21
-2.24889
  0
LINE
  8
0
 10
8.79793
 20
-2.24889
 11
8.58328
 21
-2.12024
  0
LINE
  8
0
 10
8.58328
 20
-2.12024
 11
8.38229
 21
-1.97118
  0
LINE
  8
0
 10
8.38229
 20
-1.97118
 11
8.19687
 21
-1.80312
  0
LINE
  8
0
 10
8.19687
 20
-1.80312
 11
8.02881
 21
-1.61769
  0
LINE
  8
0
 10
8.02881
 20
-1.61769
 11
7.87975
 21
-1.4167
  0
LINE
  8
0
 10
7.87975
 20
-1.4167
 11
7.7511
 21
-1.20206
  0
LINE
  8
0
 10
7.7511
 20
-1.20206
 11
7.6441
 21
-0.97583
  0
LINE
  8
0
 10
7.6441
 20
-0.97583
 11
7.5598
 21
-0.740219
  0
LINE
  8
0
 10
7.5598
 20
-0.740219
 11
7.49899
 21
-0.497467
  0
LINE
  8
0
 10
7.49899
 20
-0.497467
 11
7.46227
 21
-0.249939
  0
LINE
  8
0
 10
7.46227
 20
-0.249939
 11
7.45
 21
0
  0
LINE
  8
0
 10
7.45
 20
0
 11
7.46227
 21
0.249939
  0
LINE
  8
0
 10
7.46227
 20
0.249939
 11
7.49899
 21
0.497467
  0
LINE
  8
0
 10
7.49899
 20
0.497467
 11
7.5598
 21
0.740219
  0
LINE
  8
0
 10
7.5598
 20
0.740219
 11
7.6441
 21
0.97583
  0
LINE
  8
0
 10
7.6441
 20
0.97583
 11
7.7511
 21
1.20206
  0
LINE
  8
0
 10
7.7511
 20
1.20206
 11
7.87975
 21
1.4167
  0
LINE
  8
0
 10
7.87975
 20
1.4167
 11
8.02881
 21
1.61769
  0
LINE
  8
0
 10
8.02881
 20
1.61769
 11
8.19687
 21
1.80312
  0
LINE
  8
0
 10
8.19687
 20
1.80312
 11
8.38229
 21
1.97118
  0
LINE
  8
0
 10
8.38229
 20
1.97118
 11
8.58328
 21
2.12024
  0
LINE
  8
0
 10
8.58328
 20
2.12024
 11
8.79793
 21
2.24889
  0
LINE
  8
0
 10
8.79793
 20
2.24889
 11
9.02415
 21
2.35588
  0
LINE
  8
0
 10
9.02415
 20
2.35588
 11
9.25977
 21
2.44019
  0
LINE
  8
0
 10
9.25977
 20
2.44019
 11
9.50252
 21
2.50099
  0
LINE
  8
0
 10
9.50252
 20
2.50099
 11
9.75005
 21
2.53772
  0
LINE
  8
0
 10
9.75005
 20
2.53772
 11
10
 21
2.54999
  0
LINE
  8
0
 10
10
 20
2.54999
 11
10.2499
 21
2.53772
  0
LINE
  8
0
 10
10.2499
 20
2.53772
 11
10.4975
 21
2.50099
  0
LINE
  8
0
 10
10.4975
 20
2.50099
 11
10.7402
 21
2.44019
  0
LINE
  8
0
 10
10.7402
 20
2.44019
 11
10.9758
 21
2.35588
  0
LINE
  8
0
 10
10.9758
 20
2.35588
 11
11.2021
 21
2.24889
  0
LINE
  8
0
 10
11.2021
 20
2.24889
 11
11.4167
 21
2.12024
  0
LINE
  8
0
 10
11.4167
 20
2.12024
 11
11.6177
 21
1.97118
  0
LINE
  8
0
 10
11.6177
 20
1.97118
 11
11.8031
 21
1.80312
  0
LINE
  8
0
 10
11.8031
 20
1.80312
 11
11.9712
 21
1.61769
  0
LINE
  8
0
 10
11.9712
 20
1.61769
 11
12.1202
 21
1.4167
  0
LINE
  8
0
 10
12.1202
 20
1.4167
 11
12.2489
 21
1.20206
  0
LINE
  8
0
 10
12.2489
 20
1.20206
 11
12.3559
 21
0.97583
  0
LINE
  8
0
 10
12.3559
 20
0.97583
 11
12.4402
 21
0.740219
  0
LINE
  8
0
 10
12.4402
 20
0.740219
 11
12.501
 21
0.497467
  0
LINE
  8
0
 10
12.501
 20
0.497467
 11
12.5377
 21
0.249939
  0
LINE
  8
0
 10
12.5377
 20
0.249939
 11
12.55
 21
0
  0
LINE
  8
0
 10
12.55
 20
0
 11
12.5377
 21
-0.249939
  0
LINE
  8
0
 10
12.5377
 20
-0.249939
 11
12.501
 21
-0.497467
  0
LINE
  8
0
 10
12.501
 20
-0.497467
 11
12.4402
 21
-0.740219
  0
LINE
  8
0
 10
12.4402
 20
-0.740219
 11
12.3559
 21
-0.97583
  0
LINE
  8
0
 10
12.3559
 20
-0.97583
 11
12.2489
 21
-1.20206
  0
LINE
  8
0
 10
12.2489
 20
-1.20206
 11
12.1202
 21
-1.4167
  0
LINE
  8
0
 10
12.1202
 20
-1.4167
 11
11.9712
 21
-1.61769
  0
LINE
  8
0
 10
11.9712
 20
-1.61769
 11
11.8031
 21
-1.80312
  0
LINE
  8
0
 10
11.8031
 20
-1.80312
 11
11.6177
 21
-1.97118
  0
LINE
  8
0
 10
11.6177
 20
-1.97118
 11
11.4167
 21
-2.12024
  0
LINE
  8
0
 10
11.4167
 20
-2.12024
 11
11.2021
 21
-2.24889
  0
LINE
  8
0
 10
11.2021
 20
-2.24889
 11
10.9758
 21
-2.35588
  0
LINE
  8
0
 10
10.9758
 20
-2.35588
 11
10.7402
 21
-2.44019
  0
LINE
  8
0
 10
10.7402
 20
-2.44019
 11
10.4975
 21
-2.50099
  0
LINE
  8
0
 10
10.4975
 20
-2.50099
 11
10.2499
 21
-2.53772
  0
LINE
  8
0
 10
10.2499
 20
-2.53772
 11
10
 21
-2.54999
  0
LINE
  8
0
 10
10
 20
-2.54999
 11
9.75005
 21
-2.53772
  0
LINE
  8
0
 10
24.75
 20
-14.5377
 11
24.5025
 21
-14.501
  0
LINE
  8
0
 10
24.5025
 20
-14.501
 11
24.2598
 21
-14.4402
  0
LINE
  8
0
 10
24.2598
 20
-14.4402
 11
24.0242
 21
-14.3559
  0
LINE
  8
0
 10
24.0242
 20
-14.3559
 11
23.7979
 21
-14.2489
  0
LINE
  8
0
 10
23.7979
 20
-14.2489
 11
23.5833
 21
-14.1202
  0
LINE
  8
0
 10
23.5833
 20
-14.1202
 11
23.3823
 21
-13.9712
  0
LINE
  8
0
 10
23.3823
 20
-13.9712
 11
23.1969
 21
-13.8031
  0
LINE
  8
0
 10
23.1969
 20
-13.8031
 11
23.0288
 21
-13.6177
  0
LINE
  8
0
 10
23.0288
 20
-13.6177
 11
22.8797
 21
-13.4167
  0
LINE
  8
0
 10
22.8797
 20
-13.4167
 11
22.7511
 21
-13.2021
  0
LINE
  8
0
 10
22.7511
 20
-13.2021
 11
22.6441
 21
-12.9758
  0
LINE
  8
0
 10
22.6441
 20
-12.9758
 11
22.5598
 21
-12.7402
  0
LINE
  8
0
 10
22.5598
 20
-12.7402
 11
22.499
 21
-12.4975
  0
LINE
  8
0
 10
22.499
 20
-12.4975
 11
22.4623
 21
-12.2499
  0
LINE
  8
0
 10
22.4623
 20
-12.2499
 11
22.45
 21
-12
  0
LINE
  8
0
 10
22.45
 20
-12
 11
22.4623
 21
-11.75
  0
LINE
  8
0
 10
22.4623
 20
-11.75
 11
22.499
 21
-11.5025
  0
LINE
  8
0
 10
22.499
 20
-11.5025
 11
22.5598
 21
-11.2598
  0
LINE
  8
0
 10
22.5598
 20
-11.2598
 11
22.6441
 21
-11.0242
  0
LINE
  8
0
 10
22.6441
 20
-11.0242
 11
22.7511
 21
-10.7979
  0
LINE
  8
0
 10
22.7511
 20
-10.7979
 11
22.8797
 21
-10.5833
  0
LINE
  8
0
 10
22.8797
 20
-10.5833
 11
23.0288
 21
-10.3823
  0
LINE
  8
0
 10
23.0288
 20
-10.3823
 11
23.1969
 21
-10.1969
  0
LINE
  8
0
 10
23.1969
 20
-10.1969
 11
23.3823
 21
-10.0288
  0
LINE
  8
0
 10
23.3823
 20
-10.0288
 11
23.5833
 21
-9.87975
  0
LINE
  8
0
 10
23.5833
 20
-9.87975
 11
23.7979
 21
-9.7511
  0
LINE
  8
0
 10
23.7979
 20
-9.7511
 11
24.0242
 21
-9.6441
  0
LINE
  8
0
 10
24.0242
 20
-9.6441
 11
24.2598
 21
-9.5598
  0
LINE
  8
0
 10
24.2598
 20
-9.5598
 11
24.5025
 21
-9.49899
  0
LINE
  8
0
 10
24.5025
 20
-9.49899
 11
24.75
 21
-9.46227
  0
LINE
  8
0
 10
24.75
 20
-9.46227
 11
25
 21
-9.45
  0
LINE
  8
0
 10
25
 20
-9.45
 11
25.2499
 21
-9.46227
  0
LINE
  8
0
 10
25.2499
 20
-9.46227
 11
25.4975
 21
-9.49899
  0
LINE
  8
0
 10
25.4975
 20
-9.49899
 11
25.7402
 21
-9.5598
  0
LINE
  8
0
 10
25.7402
 20
-9.5598
 11
25.9758
 21
-9.6441
  0
LINE
  8
0
 10
25.9758
 20
-9.6441
 11
26.2021
 21
-9.7511
  0
LINE
  8
0
 10
26.2021
 20
-9.7511
 11
26.4167
 21
-9.87975
  0
LINE
  8
0
 10
26.4167
 20
-9.87975
 11
26.6177
 21
-10.0288
  0
LINE
  8
0
 10
26.6177
 20
-10.0288
 11
26.8031
 21
-10.1969
  0
LINE
  8
0
 10
26.8031
 20
-10.1969
 11
26.9712
 21
-10.3823
  0
LINE
  8
0
 10
26.9712
 20
-10.3823
 11
27.1202
 21
-10.5833
  0
LINE
  8
0
 10
27.1202
 20
-10.5833
 11
27.2489
 21
-10.7979
  0
LINE
  8
0
 10
27.2489
 20
-10.7979
 11
27.3559
 21
-11.0242
  0
LINE
  8
0
 10
27.3559
 20
-11.0242
 11
27.4402
 21
-11.2598
  0
LINE
  8
0
 10
27.4402
 20
-11.2598
 11
27.501
 21
-11.5025
  0
LINE
  8
0
 10
27.501
 20
-11.5025
 11
27.5377
 21
-11.75
  0
LINE
  8
0
 10
27.5377
 20
-11.75
 11
27.55
 21
-12
  0
LINE
  8
0
 10
27.55
 20
-12
 11
27.5377
 21
-12.2499
  0
LINE
  8
0
 10
27.5377
 20
-12.2499
 11
27.501
 21
-12.4975
  0
LINE
  8
0
 10
27.501
 20
-12.4975
 11
27.4402
 21
-12.7402
  0
LINE
  8
0
 10
27.4402
 20
-12.7402
 11
27.3559
 21
-12.9758
  0
LINE
  8
0
 10
27.3559
 20
-12.9758
 11
27.2489
 21
-13.2021
  0
LINE
  8
0
 10
27.2489
 20
-13.2021
 11
27.1202
 21
-13.4167
  0
LINE
  8
0
 10
27.1202
 20
-13.4167
 11
26.9712
 21
-13.6177
  0
LINE
  8
0
 10
26.9712
 20
-13.6177
 11
26.8031
 21
-13.8031
  0
LINE
  8
0
 10
26.8031
 20
-13.8031
 11
26.6177
 21
-13.9712
  0
LINE
  8
0
 10
26.6177
 20
-13.9712
 11
26.4167
 21
-14.1202
  0
LINE
  8
0
 10
26.4167
 20
-14.1202
 11
26.2021
 21
-14.2489
  0
LINE
  8
0
 10
26.2021
 20
-14.2489
 11
25.9758
 21
-14.3559
  0
LINE
  8
0
 10
25.9758
 20
-14.3559
 11
25.7402
 21
-14.4402
  0
LINE
  8
0
 10
25.7402
 20
-14.4402
 11
25.4975
 21
-14.501
  0
LINE
  8
0
 10
25.4975
 20
-14.501
 11
25.2499
 21
-14.5377
  0
LINE
  8
0
 10
25.2499
 20
-14.5377
 11
25
 21
-14.55
  0
LINE
  8
0
 10
25
 20
-14.55
 11
24.75
 21
-14.5377
  0
LINE
  8
0
 10
9.75005
 20
-14.5377
 11
9.50252
 21
-14.501
  0
LINE
  8
0
 10
9.50252
 20
-14.501
 11
9.25977
 21
-14.4402
  0
LINE
  8
0
 10
9.25977
 20
-14.4402
 11
9.02415
 21
-14.3559
  0
LINE
  8
0
 10
9.02415
 20
-14.3559
 11
8.79793
 21
-14.2489
  0
LINE
  8
0
 10
8.79793
 20
-14.2489
 11
8.58328
 21
-14.1202
  0
LINE
  8
0
 10
8.58328
 20
-14.1202
 11
8.38229
 21
-13.9712
  0
LINE
  8
0
 10
8.38229
 20
-13.9712
 11
8.19687
 21
-13.8031
  0
LINE
  8
0
 10
8.19687
 20
-13.8031
 11
8.02881
 21
-13.6177
  0
LINE
  8
0
 10
8.02881
 20
-13.6177
 11
7.87975
 21
-13.4167
  0
LINE
  8
0
 10
7.87975
 20
-13.4167
 11
7.7511
 21
-13.2021
  0
LINE
  8
0
 10
7.7511
 20
-13.2021
 11
7.6441
 21
-12.9758
  0
LINE
  8
0
 10
7.6441
 20
-12.9758
 11
7.5598
 21
-12.7402
  0
LINE
  8
0
 10
7.5598
 20
-12.7402
 11
7.49899
 21
-12.4975
  0
LINE
  8
0
 10
7.49899
 20
-12.4975
 11
7.46227
 21
-12.2499
  0
LINE
  8
0
 10
7.46227
 20
-12.2499
 11
7.45
 21
-12
  0
LINE
  8
0
 10
7.45
 20
-12
 11
7.46227
 21
-11.75
  0
LINE
  8
0
 10
7.46227
 20
-11.75
 11
7.49899
 21
-11.5025
  0
LINE
  8
0
 10
7.49899
 20
-11.5025
 11
7.5598
 21
-11.2598
  0
LINE
  8
0
 10
7.5598
 20
-11.2598
 11
7.6441
 21
-11.0242
  0
LINE
  8
0
 10
7.6441
 20
-11.0242
 11
7.7511
 21
-10.7979
  0
LINE
  8
0
 10
7.7511
 20
-10.7979
 11
7.87975
 21
-10.5833
  0
LINE
  8
0
 10
7.87975
 20
-10.5833
 11
8.02881
 21
-10.3823
  0
LINE
  8
0
 10
8.02881
 20
-10.3823
 11
8.19687
 21
-10.1969
  0
LINE
  8
0
 10
8.19687
 20
-10.1969
 11
8.38229
 21
-10.0288
  0
LINE
  8
0
 10
8.38229
 20
-10.0288
 11
8.58328
 21
-9.87975
  0
LINE
  8
0
 10
8.58328
 20
-9.87975
 11
8.79793
 21
-9.7511
  0
LINE
  8
0
 10
8.79793
 20
-9.7511
 11
9.02415
 21
-9.6441
  0
LINE
  8
0
 10
9.02415
 20
-9.6441
 11
9.25977
 21
-9.5598
  0
LINE
  8
0
 10
9.25977
 20
-9.5598
 11
9.50252
 21
-9.49899
  0
LINE
  8
0
 10
9.50252
 20
-9.49899
 11
9.75005
 21
-9.46227
  0
LINE
  8
0
 10
9.75005
 20
-9.46227
 11
10
 21
-9.45
  0
LINE
  8
0
 10
10
 20
-9.45
 11
10.2499
 21
-9.46227
  0
LINE
  8
0
 10
10.2499
 20
-9.46227
 11
10.4975
 21
-9.49899
  0
LINE
  8
0
 10
10.4975
 20
-9.49899
 11
10.7402
 21
-9.5598
  0
LINE
  8
0
 10
10.7402
 20
-9.5598
 11
10.9758
 21
-9.6441
  0
LINE
  8
0
 10
10.9758
 20
-9.6441
 11
11.2021
 21
-9.7511
  0
LINE
  8
0
 10
11.2021
 20
-9.7511
 11
11.4167
 21
-9.87975
  0
LINE
  8
0
 10
11.4167
 20
-9.87975
 11
11.6177
 21
-10.0288
  0
LINE
  8
0
 10
11.6177
 20
-10.0288
 11
11.8031
 21
-10.1969
  0
LINE
  8
0
 10
11.8031
 20
-10.1969
 11
11.9712
 21
-10.3823
  0
LINE
  8
0
 10
11.9712
 20
-10.3823
 11
12.1202
 21
-10.5833
  0
LINE
  8
0
 10
12.1202
 20
-10.5833
 11
12.2489
 21
-10.7979
  0
LINE
  8
0
 10
12.2489
 20
-10.7979
 11
12.3559
 21
-11.0242
  0
LINE
  8
0
 10
12.3559
 20
-11.0242
 11
12.4402
 21
-11.2598
  0
LINE
  8
0
 10
12.4402
 20
-11.2598
 11
12.501
 21
-11.5025
  0
LINE
  8
0
 10
12.501
 20
-11.5025
 11
12.5377
 21
-11.75
  0
LINE
  8
0
 10
12.5377
 20
-11.75
 11
12.55
 21
-12
  0
LINE
  8
0
 10
12.55
 20
-12
 11
12.5377
 21
-12.2499
  0
LINE
  8
0
 10
12.5377
 20
-12.2499
 11
12.501
 21
-12.4975
  0
LINE
  8
0
 10
12.501
 20
-12.4975
 11
12.4402
 21
-12.7402
  0
LINE
  8
0
 10
12.4402
 20
-12.7402
 11
12.3559
 21
-12.9758
  0
LINE
  8
0
 10
12.3559
 20
-12.9758
 11
12.2489
 21
-13.2021
  0
LINE
  8
0
 10
12.2489
 20
-13.2021
 11
12.1202
 21
-13.4167
  0
LINE
  8
0
 10
12.1202
 20
-13.4167
 11
11.9712
 21
-13.6177
  0
LINE
  8
0
 10
11.9712
 20
-13.6177
 11
11.8031
 21
-13.8031
  0
LINE
  8
0
 10
11.8031
 20
-13.8031
 11
11.6177
 21
-13.9712
  0
LINE
  8
0
 10
11.6177
 20
-13.9712
 11
11.4167
 21
-14.1202
  0
LINE
  8
0
 10
11.4167
 20
-14.1202
 11
11.2021
 21
-14.2489
  0
LINE
  8
0
 10
11.2021
 20
-14.2489
 11
10.9758
 21
-14.3559
  0
LINE
  8
0
 10
10.9758
 20
-14.3559
 11
10.7402
 21
-14.4402
  0
LINE
  8
0
 10
10.7402
 20
-14.4402
 11
10.4975
 21
-14.501
  0
LINE
  8
0
 10
10.4975
 20
-14.501
 11
10.2499
 21
-14.5377
  0
LINE
  8
0
 10
10.2499
 20
-14.5377
 11
10
 21
-14.55
  0
LINE
  8
0
 10
10
 20
-14.55
 11
9.75005
 21
-14.5377
  0
LINE
  8
0
 10
-55.2058
 20
-17.4399
 11
-55.4097
 21
-17.4096
  0
LINE
  8
0
 10
-55.4097
 20
-17.4096
 11
-55.6096
 21
-17.3596
  0
LINE
  8
0
 10
-55.6096
 20
-17.3596
 11
-55.8036
 21
-17.2901
  0
LINE
  8
0
 10
-55.8036
 20
-17.2901
 11
-55.9899
 21
-17.202
  0
LINE
  8
0
 10
-55.9899
 20
-17.202
 11
-56.1667
 21
-17.0961
  0
LINE
  8
0
 10
-56.1667
 20
-17.0961
 11
-56.3322
 21
-16.9733
  0
LINE
  8
0
 10
-56.3322
 20
-16.9733
 11
-56.4849
 21
-16.8349
  0
LINE
  8
0
 10
-56.4849
 20
-16.8349
 11
-56.6233
 21
-16.6822
  0
LINE
  8
0
 10
-56.6233
 20
-16.6822
 11
-56.7461
 21
-16.5167
  0
LINE
  8
0
 10
-56.7461
 20
-16.5167
 11
-56.852
 21
-16.3399
  0
LINE
  8
0
 10
-56.852
 20
-16.3399
 11
-56.9401
 21
-16.1536
  0
LINE
  8
0
 10
-56.9401
 20
-16.1536
 11
-57.0096
 21
-15.9596
  0
LINE
  8
0
 10
-57.0096
 20
-15.9596
 11
-57.0596
 21
-15.7597
  0
LINE
  8
0
 10
-57.0596
 20
-15.7597
 11
-57.0899
 21
-15.5558
  0
LINE
  8
0
 10
-57.0899
 20
-15.5558
 11
-57.1
 21
-15.35
  0
LINE
  8
0
 10
-57.1
 20
-15.35
 11
-57.0899
 21
-15.1441
  0
LINE
  8
0
 10
-57.0899
 20
-15.1441
 11
-57.0596
 21
-14.9403
  0
LINE
  8
0
 10
-57.0596
 20
-14.9403
 11
-57.0096
 21
-14.7404
  0
LINE
  8
0
 10
-57.0096
 20
-14.7404
 11
-56.9401
 21
-14.5464
  0
LINE
  8
0
 10
-56.9401
 20
-14.5464
 11
-56.852
 21
-14.3601
  0
LINE
  8
0
 10
-56.852
 20
-14.3601
 11
-56.7461
 21
-14.1833
  0
LINE
  8
0
 10
-56.7461
 20
-14.1833
 11
-56.6233
 21
-14.0178
  0
LINE
  8
0
 10
-56.6233
 20
-14.0178
 11
-56.4849
 21
-13.8651
  0
LINE
  8
0
 10
-56.4849
 20
-13.8651
 11
-56.3322
 21
-13.7267
  0
LINE
  8
0
 10
-56.3322
 20
-13.7267
 11
-56.1667
 21
-13.6039
  0
LINE
  8
0
 10
-56.1667
 20
-13.6039
 11
-55.9899
 21
-13.498
  0
LINE
  8
0
 10
-55.9899
 20
-13.498
 11
-55.8036
 21
-13.4099
  0
LINE
  8
0
 10
-55.8036
 20
-13.4099
 11
-55.6096
 21
-13.3404
  0
LINE
  8
0
 10
-55.6096
 20
-13.3404
 11
-55.4097
 21
-13.2903
  0
LINE
  8
0
 10
-55.4097
 20
-13.2903
 11
-55.2058
 21
-13.2601
  0
LINE
  8
0
 10
-55.2058
 20
-13.2601
 11
-55
 21
-13.25
  0
LINE
  8
0
 10
-55
 20
-13.25
 11
-54.7942
 21
-13.2601
  0
LINE
  8
0
 10
-54.7942
 20
-13.2601
 11
-54.5903
 21
-13.2903
  0
LINE
  8
0
 10
-54.5903
 20
-13.2903
 11
-54.3904
 21
-13.3404
  0
LINE
  8
0
 10
-54.3904
 20
-13.3404
 11
-54.1964
 21
-13.4099
  0
LINE
  8
0
 10
-54.1964
 20
-13.4099
 11
-54.0101
 21
-13.498
  0
LINE
  8
0
 10
-54.0101
 20
-13.498
 11
-53.8333
 21
-13.6039
  0
LINE
  8
0
 10
-53.8333
 20
-13.6039
 11
-53.6678
 21
-13.7267
  0
LINE
  8
0
 10
-53.6678
 20
-13.7267
 11
-53.5151
 21
-13.8651
  0
LINE
  8
0
 10
-53.5151
 20
-13.8651
 11
-53.3767
 21
-14.0178
  0
LINE
  8
0
 10
-53.3767
 20
-14.0178
 11
-53.2539
 21
-14.1833
  0
LINE
  8
0
 10
-53.2539
 20
-14.1833
 11
-53.148
 21
-14.3601
  0
LINE
  8
0
 10
-53.148
 20
-14.3601
 11
-53.0598
 21
-14.5464
  0
LINE
  8
0
 10
-53.0598
 20
-14.5464
 11
-52.9904
 21
-14.7404
  0
LINE
  8
0
 10
-52.9904
 20
-14.7404
 11
-52.9403
 21
-14.9403
  0
LINE
  8
0
 10
-52.9403
 20
-14.9403
 11
-52.9101
 21
-15.1441
  0
LINE
  8
0
 10
-52.9101
 20
-15.1441
 11
-52.9
 21
-15.35
  0
LINE
  8
0
 10
-52.9
 20
-15.35
 11
-52.9101
 21
-15.5558
  0
LINE
  8
0
 10
-52.9101
 20
-15.5558
 11
-52.9403
 21
-15.7597
  0
LINE
  8
0
 10
-52.9403
 20
-15.7597
 11
-52.9904
 21
-15.9596
  0
LINE
  8
0
 10
-52.9904
 20
-15.9596
 11
-53.0598
 21
-16.1536
  0
LINE
  8
0
 10
-53.0598
 20
-16.1536
 11
-53.148
 21
-16.3399
  0
LINE
  8
0
 10
-53.148
 20
-16.3399
 11
-53.2539
 21
-16.5167
  0
LINE
  8
0
 10
-53.2539
 20
-16.5167
 11
-53.3767
 21
-16.6822
  0
LINE
  8
0
 10
-53.3767
 20
-16.6822
 11
-53.5151
 21
-16.8349
  0
LINE
  8
0
 10
-53.5151
 20
-16.8349
 11
-53.6678
 21
-16.9733
  0
LINE
  8
0
 10
-53.6678
 20
-16.9733
 11
-53.8333
 21
-17.0961
  0
LINE
  8
0
 10
-53.8333
 20
-17.0961
 11
-54.0101
 21
-17.202
  0
LINE
  8
0
 10
-54.0101
 20
-17.202
 11
-54.1964
 21
-17.2901
  0
LINE
  8
0
 10
-54.1964
 20
-17.2901
 11
-54.3904
 21
-17.3596
  0
LINE
  8
0
 10
-54.3904
 20
-17.3596
 11
-54.5903
 21
-17.4096
  0
LINE
  8
0
 10
-54.5903
 20
-17.4096
 11
-54.7942
 21
-17.4399
  0
LINE
  8
0
 10
-54.7942
 20
-17.4399
 11
-55
 21
-17.45
  0
LINE
  8
0
 10
-55
 20
-17.45
 11
-55.2058
 21
-17.4399
  0
LINE
  8
0
 10
54.7942
 20
-17.4399
 11
54.5903
 21
-17.4096
  0
LINE
  8
0
 10
54.5903
 20
-17.4096
 11
54.3904
 21
-17.3596
  0
LINE
  8
0
 10
54.3904
 20
-17.3596
 11
54.1964
 21
-17.2901
  0
LINE
  8
0
 10
54.1964
 20
-17.2901
 11
54.0101
 21
-17.202
  0
LINE
  8
0
 10
54.0101
 20
-17.202
 11
53.8333
 21
-17.0961
  0
LINE
  8
0
 10
53.8333
 20
-17.0961
 11
53.6678
 21
-16.9733
  0
LINE
  8
0
 10
53.6678
 20
-16.9733
 11
53.5151
 21
-16.8349
  0
LINE
  8
0
 10
53.5151
 20
-16.8349
 11
53.3767
 21
-16.6822
  0
LINE
  8
0
 10
53.3767
 20
-16.6822
 11
53.2539
 21
-16.5167
  0
LINE
  8
0
 10
53.2539
 20
-16.5167
 11
53.148
 21
-16.3399
  0
LINE
  8
0
 10
53.148
 20
-16.3399
 11
53.0598
 21
-16.1536
  0
LINE
  8
0
 10
53.0598
 20
-16.1536
 11
52.9904
 21
-15.9596
  0
LINE
  8
0
 10
52.9904
 20
-15.9596
 11
52.9403
 21
-15.7597
  0
LINE
  8
0
 10
52.9403
 20
-15.7597
 11
52.9101
 21
-15.5558
  0
LINE
  8
0
 10
52.9101
 20
-15.5558
 11
52.9
 21
-15.35
  0
LINE
  8
0
 10
52.9
 20
-15.35
 11
52.9101
 21
-15.1441
  0
LINE
  8
0
 10
52.9101
 20
-15.1441
 11
52.9403
 21
-14.9403
  0
LINE
  8
0
 10
52.9403
 20
-14.9403
 11
52.9904
 21
-14.7404
  0
LINE
  8
0
 10
52.9904
 20
-14.7404
 11
53.0598
 21
-14.5464
  0
LINE
  8
0
 10
53.0598
 20
-14.5464
 11
53.148
 21
-14.3601
  0
LINE
  8
0
 10
53.148
 20
-14.3601
 11
53.2539
 21
-14.1833
  0
LINE
  8
0
 10
53.2539
 20
-14.1833
 11
53.3767
 21
-14.0178
  0
LINE
  8
0
 10
53.3767
 20
-14.0178
 11
53.5151
 21
-13.8651
  0
LINE
  8
0
 10
53.5151
 20
-13.8651
 11
53.6678
 21
-13.7267
  0
LINE
  8
0
 10
53.6678
 20
-13.7267
 11
53.8333
 21
-13.6039
  0
LINE
  8
0
 10
53.8333
 20
-13.6039
 11
54.0101
 21
-13.498
  0
LINE
  8
0
 10
54.0101
 20
-13.498
 11
54.1964
 21
-13.4099
  0
LINE
  8
0
 10
54.1964
 20
-13.4099
 11
54.3904
 21
-13.3404
  0
LINE
  8
0
 10
54.3904
 20
-13.3404
 11
54.5903
 21
-13.2903
  0
LINE
  8
0
 10
54.5903
 20
-13.2903
 11
54.7942
 21
-13.2601
  0
LINE
  8
0
 10
54.7942
 20
-13.2601
 11
55
 21
-13.25
  0
LINE
  8
0
 10
55
 20
-13.25
 11
55.2058
 21
-13.2601
  0
LINE
  8
0
 10
55.2058
 20
-13.2601
 11
55.4097
 21
-13.2903
  0
LINE
  8
0
 10
55.4097
 20
-13.2903
 11
55.6096
 21
-13.3404
  0
LINE
  8
0
 10
55.6096
 20
-13.3404
 11
55.8036
 21
-13.4099
  0
LINE
  8
0
 10
55.8036
 20
-13.4099
 11
55.9899
 21
-13.498
  0
LINE
  8
0
 10
55.9899
 20
-13.498
 11
56.1667
 21
-13.6039
  0
LINE
  8
0
 10
56.1667
 20
-13.6039
 11
56.3322
 21
-13.7267
  0
LINE
  8
0
 10
56.3322
 20
-13.7267
 11
56.4849
 21
-13.8651
  0
LINE
  8
0
 10
56.4849
 20
-13.8651
 11
56.6233
 21
-14.0178
  0
LINE
  8
0
 10
56.6233
 20
-14.0178
 11
56.7461
 21
-14.1833
  0
LINE
  8
0
 10
56.7461
 20
-14.1833
 11
56.852
 21
-14.3601
  0
LINE
  8
0
 10
56.852
 20
-14.3601
 11
56.9401
 21
-14.5464
  0
LINE
  8
0
 10
56.9401
 20
-14.5464
 11
57.0096
 21
-14.7404
  0
LINE
  8
0
 10
57.0096
 20
-14.7404
 11
57.0596
 21
-14.9403
  0
LINE
  8
0
 10
57.0596
 20
-14.9403
 11
57.0899
 21
-15.1441
  0
LINE
  8
0
 10
57.0899
 20
-15.1441
 11
57.1
 21
-15.35
  0
LINE
  8
0
 10
57.1
 20
-15.35
 11
57.0899
 21
-15.5558
  0
LINE
  8
0
 10
57.0899
 20
-15.5558
 11
57.0596
 21
-15.7597
  0
LINE
  8
0
 10
57.0596
 20
-15.7597
 11
57.0096
 21
-15.9596
  0
LINE
  8
0
 10
57.0096
 20
-15.9596
 11
56.9401
 21
-16.1536
  0
LINE
  8
0
 10
56.9401
 20
-16.1536
 11
56.852
 21
-16.3399
  0
LINE
  8
0
 10
56.852
 20
-16.3399
 11
56.7461
 21
-16.5167
  0
LINE
  8
0
 10
56.7461
 20
-16.5167
 11
56.6233
 21
-16.6822
  0
LINE
  8
0
 10
56.6233
 20
-16.6822
 11
56.4849
 21
-16.8349
  0
LINE
  8
0
 10
56.4849
 20
-16.8349
 11
56.3322
 21
-16.9733
  0
LINE
  8
0
 10
56.3322
 20
-16.9733
 11
56.1667
 21
-17.0961
  0
LINE
  8
0
 10
56.1667
 20
-17.0961
 11
55.9899
 21
-17.202
  0
LINE
  8
0
 10
55.9899
 20
-17.202
 11
55.8036
 21
-17.2901
  0
LINE
  8
0
 10
55.8036
 20
-17.2901
 11
55.6096
 21
-17.3596
  0
LINE
  8
0
 10
55.6096
 20
-17.3596
 11
55.4097
 21
-17.4096
  0
LINE
  8
0
 10
55.4097
 20
-17.4096
 11
55.2058
 21
-17.4399
  0
LINE
  8
0
 10
55.2058
 20
-17.4399
 11
55
 21
-17.45
  0
LINE
  8
0
 10
55
 20
-17.45
 11
54.7942
 21
-17.4399
  0
ENDSEC
  0
SECTION
  2
OBJECTS
  0
DICTIONARY
  0
ENDSEC
  0
EOF
