  0
SECTION
  2
HEADER
  9
$ACADVER
  1
AC1024
  9
$ACADMAINTVER
 70
6
  9
$DWGCODEPAGE
  3
ANSI_1252
  9
$LASTSAVEDBY
  1
ezdxf
  9
$INSBASE
 10
0.0
 20
0.0
 30
0.0
  9
$EXTMIN
 10
1e+20
 20
1e+20
 30
1e+20
  9
$EXTMAX
 10
-1e+20
 20
-1e+20
 30
-1e+20
  9
$LIMMIN
 10
0.0
 20
0.0
  9
$LIMMAX
 10
420.0
 20
297.0
  9
$ORTHOMODE
 70
0
  9
$REGENMODE
 70
1
  9
$FILLMODE
 70
1
  9
$QTEXTMODE
 70
0
  9
$MIRRTEXT
 70
1
  9
$LTSCALE
 40
1.0
  9
$ATTMODE
 70
1
  9
$TEXTSIZE
 40
2.5
  9
$TRACEWID
 40
1.0
  9
$TEXTSTYLE
  7
Standard
  9
$CLAYER
  8
0
  9
$CELTYPE
  6
ByLayer
  9
$CECOLOR
 62
256
  9
$CELTSCALE
 40
1.0
  9
$DISPSILH
 70
0
  9
$DIMSCALE
 40
1.0
  9
$DIMASZ
 40
2.5
  9
$DIMEXO
 40
0.625
  9
$DIMDLI
 40
3.75
  9
$DIMRND
 40
0.0
  9
$DIMDLE
 40
0.0
  9
$DIMEXE
 40
1.25
  9
$DIMTP
 40
0.0
  9
$DIMTM
 40
0.0
  9
$DIMTXT
 40
2.5
  9
$DIMCEN
 40
2.5
  9
$DIMTSZ
 40
0.0
  9
$DIMTOL
 70
0
  9
$DIMLIM
 70
0
  9
$DIMTIH
 70
0
  9
$DIMTOH
 70
0
  9
$DIMSE1
 70
0
  9
$DIMSE2
 70
0
  9
$DIMTAD
 70
1
  9
$DIMZIN
 70
8
  9
$DIMBLK
  1

  9
$DIMASO
 70
1
  9
$DIMSHO
 70
1
  9
$DIMPOST
  1

  9
$DIMAPOST
  1

  9
$DIMALT
 70
0
  9
$DIMALTD
 70
3
  9
$DIMALTF
 40
0.03937007874
  9
$DIMLFAC
 40
1.0
  9
$DIMTOFL
 70
1
  9
$DIMTVP
 40
0.0
  9
$DIMTIX
 70
0
  9
$DIMSOXD
 70
0
  9
$DIMSAH
 70
0
  9
$DIMBLK1
  1

  9
$DIMBLK2
  1

  9
$DIMSTYLE
  2
ISO-25
  9
$DIMCLRD
 70
0
  9
$DIMCLRE
 70
0
  9
$DIMCLRT
 70
0
  9
$DIMTFAC
 40
1.0
  9
$DIMGAP
 40
0.625
  9
$DIMJUST
 70
0
  9
$DIMSD1
 70
0
  9
$DIMSD2
 70
0
  9
$DIMTOLJ
 70
0
  9
$DIMTZIN
 70
8
  9
$DIMALTZ
 70
0
  9
$DIMALTTZ
 70
0
  9
$DIMUPT
 70
0
  9
$DIMDEC
 70
2
  9
$DIMTDEC
 70
2
  9
$DIMALTU
 70
2
  9
$DIMALTTD
 70
3
  9
$DIMTXSTY
  7
Standard
  9
$DIMAUNIT
 70
0
  9
$DIMADEC
 70
0
  9
$DIMALTRND
 40
0.0
  9
$DIMAZIN
 70
0
  9
$DIMDSEP
 70
44
  9
$DIMATFIT
 70
3
  9
$DIMFRAC
 70
0
  9
$DIMLDRBLK
  1

  9
$DIMLUNIT
 70
2
  9
$DIMLWD
 70
-2
  9
$DIMLWE
 70
-2
  9
$DIMTMOVE
 70
0
  9
$DIMFXL
 40
1.0
  9
$DIMFXLON
 70
0
  9
$DIMJOGANG
 40
0.785398163397
  9
$DIMTFILL
 70
0
  9
$DIMTFILLCLR
 70
0
  9
$DIMARCSYM
 70
0
  9
$DIMLTYPE
  6

  9
$DIMLTEX1
  6

  9
$DIMLTEX2
  6

  9
$DIMTXTDIRECTION
 70
0
  9
$LUNITS
 70
2
  9
$LUPREC
 70
4
  9
$SKETCHINC
 40
1.0
  9
$FILLETRAD
 40
10.0
  9
$AUNITS
 70
0
  9
$AUPREC
 70
2
  9
$MENU
  1
.
  9
$ELEVATION
 40
0.0
  9
$PELEVATION
 40
0.0
  9
$THICKNESS
 40
0.0
  9
$LIMCHECK
 70
0
  9
$CHAMFERA
 40
0.0
  9
$CHAMFERB
 40
0.0
  9
$CHAMFERC
 40
0.0
  9
$CHAMFERD
 40
0.0
  9
$SKPOLY
 70
0
  9
$TDCREATE
 40
2461288.3092939816
  9
$TDUCREATE
 40
2458532.153996898
  9
$TDUPDATE
 40
2461288.3092939816
  9
$TDUUPDATE
 40
2458532.1544311
  9
$TDINDWG
 40
0.0
  9
$TDUSRTIMER
 40
0.0
  9
$USRTIMER
 70
1
  9
$ANGBASE
 50
0.0
  9
$ANGDIR
 70
0
  9
$PDMODE
 70
0
  9
$PDSIZE
 40
0.0
  9
$PLINEWID
 40
0.0
  9
$SPLFRAME
 70
0
  9
$SPLINETYPE
 70
6
  9
$SPLINESEGS
 70
8
  9
$HANDSEED
  5
5E
  9
$SURFTAB1
 70
6
  9
$SURFTAB2
 70
6
  9
$SURFTYPE
 70
6
  9
$SURFU
 70
6
  9
$SURFV
 70
6
  9
$UCSBASE
  2

  9
$UCSNAME
  2

  9
$UCSORG
 10
0.0
 20
0.0
 30
0.0
  9
$UCSXDIR
 10
1.0
 20
0.0
 30
0.0
  9
$UCSYDIR
 10
0.0
 20
1.0
 30
0.0
  9
$UCSORTHOREF
  2

  9
$UCSORTHOVIEW
 70
0
  9
$UCSORGTOP
 10
0.0
 20
0.0
 30
0.0
  9
$UCSORGBOTTOM
 10
0.0
 20
0.0
 30
0.0
  9
$UCSORGLEFT
 10
0.0
 20
0.0
 30
0.0
  9
$UCSORGRIGHT
 10
0.0
 20
0.0
 30
0.0
  9
$UCSORGFRONT
 10
0.0
 20
0.0
 30
0.0
  9
$UCSORGBACK
 10
0.0
 20
0.0
 30
0.0
  9
$PUCSBASE
  2

  9
$PUCSNAME
  2

  9
$PUCSORG
 10
0.0
 20
0.0
 30
0.0
  9
$PUCSXDIR
 10
1.0
 20
0.0
 30
0.0
  9
$PUCSYDIR
 10
0.0
 20
1.0
 30
0.0
  9
$PUCSORTHOREF
  2

  9
$PUCSORTHOVIEW
 70
0
  9
$PUCSORGTOP
 10
0.0
 20
0.0
 30
0.0
  9
$PUCSORGBOTTOM
 10
0.0
 20
0.0
 30
0.0
  9
$PUCSORGLEFT
 10
0.0
 20
0.0
 30
0.0
  9
$PUCSORGRIGHT
 10
0.0
 20
0.0
 30
0.0
  9
$PUCSORGFRONT
 10
0.0
 20
0.0
 30
0.0
  9
$PUCSORGBACK
 10
0.0
 20
0.0
 30
0.0
  9
$USERI1
 70
0
  9
$USERI2
 70
0
  9
$USERI3
 70
0
  9
$USERI4
 70
0
  9
$USERI5
 70
0
  9
$USERR1
 40
0.0
  9
$USERR2
 40
0.0
  9
$USERR3
 40
0.0
  9
$USERR4
 40
0.0
  9
$USERR5
 40
0.0
  9
$WORLDVIEW
 70
1
  9
$SHADEDGE
 70
3
  9
$SHADEDIF
 70
70
  9
$TILEMODE
 70
1
  9
$MAXACTVP
 70
64
  9
$PINSBASE
 10
0.0
 20
0.0
 30
0.0
  9
$PLIMCHECK
 70
0
  9
$PEXTMIN
 10
1e+20
 20
1e+20
 30
1e+20
  9
$PEXTMAX
 10
-1e+20
 20
-1e+20
 30
-1e+20
  9
$PLIMMIN
 10
0.0
 20
0.0
  9
$PLIMMAX
 10
420.0
 20
297.0
  9
$UNITMODE
 70
0
  9
$VISRETAIN
 70
1
  9
$PLINEGEN
 70
0
  9
$PSLTSCALE
 70
1
  9
$TREEDEPTH
 70
3020
  9
$CMLSTYLE
  2
Standard
  9
$CMLJUST
 70
0
  9
$CMLSCALE
 40
20.0
  9
$PROXYGRAPHICS
 70
1
  9
$MEASUREMENT
 70
1
  9
$CELWEIGHT
370
-1
  9
$ENDCAPS
280
0
  9
$JOINSTYLE
280
0
  9
$LWDISPLAY
290
0
  9
$INSUNITS
 70
4
  9
$HYPERLINKBASE
  1

  9
$STYLESHEET
  1

  9
$XEDIT
290
1
  9
$CEPSNTYPE
380
0
  9
$PSTYLEMODE
290
1
  9
$FINGERPRINTGUID
  2
{732904D6-A2AF-4F32-B28B-A2FFF78B1ACD}
  9
$VERSIONGUID
  2
{86656745-96CC-49F2-931E-CEF7D0EC6B48}
  9
$EXTNAMES
290
1
  9
$PSVPSCALE
 40
0.0
  9
$OLESTARTUP
290
0
  9
$SORTENTS
280
127
  9
$INDEXCTL
280
0
  9
$HIDETEXT
280
1
  9
$XCLIPFRAME
280
1
  9
$HALOGAP
280
0
  9
$OBSCOLOR
 70
257
  9
$OBSLTYPE
280
0
  9
$INTERSECTIONDISPLAY
280
0
  9
$INTERSECTIONCOLOR
 70
257
  9
$DIMASSOC
280
2
  9
$PROJECTNAME
  1

  9
$CAMERADISPLAY
290
0
  9
$LENSLENGTH
 40
50.0
  9
$CAMERAHEIGHT
 40
0.0
  9
$STEPSPERSEC
 40
24.0
  9
$STEPSIZE
 40
100.0
  9
$3DDWFPREC
 40
2.0
  9
$PSOLWIDTH
 40
0.005
  9
$PSOLHEIGHT
 40
0.08
  9
$LOFTANG1
 40
1.570796326795
  9
$LOFTANG2
 40
1.570796326795
  9
$LOFTMAG1
 40
0.0
  9
$LOFTMAG2
 40
0.0
  9
$LOFTPARAM
 70
7
  9
$LOFTNORMALS
280
1
  9
$LATITUDE
 40
37.795
  9
$LONGITUDE
 40
-122.394
  9
$NORTHDIRECTION
 40
0.0
  9
$TIMEZONE
 70
-8000
  9
$LIGHTGLYPHDISPLAY
280
1
  9
$TILEMODELIGHTSYNCH
280
1
  9
$CMATERIAL
347
20
  9
$SOLIDHIST
280
0
  9
$SHOWHIST
280
1
  9
$DWFFRAME
280
2
  9
$DGNFRAME
280
2
  9
$REALWORLDSCALE
290
1
  9
$INTERFERECOLOR
 62
256
  9
$CSHADOW
280
0
  9
$SHADOWPLANELOCATION
 40
0.0
  0
ENDSEC
  0
SECTION
  2
CLASSES
  0
CLASS
  1
ACDBDICTIONARYWDFLT
  2
AcDbDictionaryWithDefault
  3
ObjectDBX Classes
 90
0
 91
0
280
0
281
0
  0
CLASS
  1
SUN
  2
AcDbSun
  3
SCENEOE
 90
1153
 91
0
280
0
281
0
  0
CLASS
  1
VISUALSTYLE
  2
AcDbVisualStyle
  3
ObjectDBX Classes
 90
4095
 91
0
280
0
281
0
  0
CLASS
  1
MATERIAL
  2
AcDbMaterial
  3
ObjectDBX Classes
 90
1153
 91
0
280
0
281
0
  0
CLASS
  1
SCALE
  2
AcDbScale
  3
ObjectDBX Classes
 90
1153
 91
0
280
0
281
0
  0
CLASS
  1
TABLESTYLE
  2
AcDbTableStyle
  3
ObjectDBX Classes
 90
4095
 91
0
280
0
281
0
  0
CLASS
  1
MLEADERSTYLE
  2
AcDbMLeaderStyle
  3
ACDB_MLEADERSTYLE_CLASS
 90
4095
 91
0
280
0
281
0
  0
CLASS
  1
DICTIONARYVAR
  2
AcDbDictionaryVar
  3
ObjectDBX Classes
 90
0
 91
0
280
0
281
0
  0
CLASS
  1
CELLSTYLEMAP
  2
AcDbCellStyleMap
  3
ObjectDBX Classes
 90
1152
 91
0
280
0
281
0
  0
CLASS
  1
MENTALRAYRENDERSETTINGS
  2
AcDbMentalRayRenderSettings
  3
SCENEOE
 90
1024
 91
0
280
0
281
0
  0
CLASS
  1
ACDBDETAILVIEWSTYLE
  2
AcDbDetailViewStyle
  3
ObjectDBX Classes
 90
1025
 91
0
280
0
281
0
  0
CLASS
  1
ACDBSECTIONVIEWSTYLE
  2
AcDbSectionViewStyle
  3
ObjectDBX Classes
 90
1025
 91
0
280
0
281
0
  0
CLASS
  1
RASTERVARIABLES
  2
AcDbRasterVariables
  3
ISM
 90
0
 91
0
280
0
281
0
  0
CLASS
  1
ACDBPLACEHOLDER
  2
AcDbPlaceHolder
  3
ObjectDBX Classes
 90
0
 91
0
280
0
281
0
  0
CLASS
  1
LAYOUT
  2
AcDbLayout
  3
ObjectDBX Classes
 90
0
 91
0
280
0
281
0
  0
ENDSEC
  0
SECTION
  2
TABLES
  0
TABLE
  2
VPORT
  5
8
330
0
100
AcDbSymbolTable
 70
1
  0
VPORT
  5
23
330
8
100
AcDbSymbolTableRecord
100
AcDbViewportTableRecord
  2
*Active
 70
0
 10
0.0
 20
0.0
 11
1.0
 21
1.0
 12
0.0
 22
0.0
 13
0.0
 23
0.0
 14
0.5
 24
0.5
 15
0.5
 25
0.5
 16
0.0
 26
0.0
 36
1.0
 17
0.0
 27
0.0
 37
0.0
 40
1000.0
 41
1.34
 42
50.0
 43
0.0
 44
0.0
 50
0.0
 51
0.0
 71
0
 72
1000
 73
1
 74
3
 75
0
 76
0
 77
0
 78
0
281
0
 65
0
146
0.0
  0
ENDTAB
  0
TABLE
  2
LTYPE
  5
2
330
0
100
AcDbSymbolTable
 70
3
  0
LTYPE
  5
24
330
2
100
AcDbSymbolTableRecord
100
AcDbLinetypeTableRecord
  2
ByBlock
 70
0
  3

 72
65
 73
0
 40
0.0
  0
LTYPE
  5
25
330
2
100
AcDbSymbolTableRecord
100
AcDbLinetypeTableRecord
  2
ByLayer
 70
0
  3

 72
65
 73
0
 40
0.0
  0
LTYPE
  5
26
330
2
100
AcDbSymbolTableRecord
100
AcDbLinetypeTableRecord
  2
Continuous
 70
0
  3

 72
65
 73
0
 40
0.0
  0
ENDTAB
  0
TABLE
  2
LAYER
  5
1
330
0
100
AcDbSymbolTable
 70
3
  0
LAYER
  5
27
330
1
100
AcDbSymbolTableRecord
100
AcDbLayerTableRecord
  2
0
 70
0
 62
7
  6
Continuous
370
-3
390
13
347
21
  0
LAYER
  5
28
330
1
100
AcDbSymbolTableRecord
100
AcDbLayerTableRecord
  2
Defpoints
 70
0
 62
7
  6
Continuous
290
0
370
-3
390
13
347
21
  0
LAYER
  5
2F
330
1
100
AcDbSymbolTableRecord
100
AcDbLayerTableRecord
  2
BAND_03
 70
0
 62
3
  6
Continuous
370
-3
390
13
347
21
  0
ENDTAB
  0
TABLE
  2
STYLE
  5
5
330
0
100
AcDbSymbolTable
 70
1
  0
STYLE
  5
29
330
5
100
AcDbSymbolTableRecord
100
AcDbTextStyleTableRecord
  2
Standard
 70
0
 40
0.0
 41
1.0
 50
0.0
 71
0
 42
2.5
  3
txt
  4

  0
ENDTAB
  0
TABLE
  2
VIEW
  5
7
330
0
100
AcDbSymbolTable
 70
0
  0
ENDTAB
  0
TABLE
  2
UCS
  5
6
330
0
100
AcDbSymbolTable
 70
0
  0
ENDTAB
  0
TABLE
  2
APPID
  5
3
330
0
100
AcDbSymbolTable
 70
3
  0
APPID
  5
2A
330
3
100
AcDbSymbolTableRecord
100
AcDbRegAppTableRecord
  2
ACAD
 70
0
  0
APPID
  5
5B
330
3
100
AcDbSymbolTableRecord
100
AcDbRegAppTableRecord
  2
HATCHBACKGROUNDCOLOR
 70
0
  0
APPID
  5
5C
330
3
100
AcDbSymbolTableRecord
100
AcDbRegAppTableRecord
  2
EZDXF
 70
0
  0
ENDTAB
  0
TABLE
  2
DIMSTYLE
  5
4
330
0
100
AcDbSymbolTable
 70
1
100
AcDbDimStyleTable
  0
DIMSTYLE
105
2B
330
4
100
AcDbSymbolTableRecord
100
AcDbDimStyleTableRecord
  2
Standard
 70
0
 40
1.0
 41
2.5
 42
0.625
 43
3.75
 44
1.25
 45
0.0
 46
0.0
 47
0.0
 48
0.0
 49
2.5
140
2.5
141
2.5
142
0.0
143
0.03937007874
144
1.0
145
0.0
146
1.0
147
0.625
148
0.0
 69
0
 70
0
 71
0
 72
0
 73
0
 74
0
 75
0
 76
0
 77
1
 78
8
 79
3
170
0
171
3
172
1
173
0
174
0
175
0
176
0
177
0
178
0
179
2
271
2
272
2
273
2
274
3
275
0
276
0
277
2
278
44
279
0
280
0
281
0
282
0
283
0
284
8
285
0
286
0
288
0
289
3
290
0
371
-2
372
-2
  0
ENDTAB
  0
TABLE
  2
BLOCK_RECORD
  5
9
330
0
100
AcDbSymbolTable
 70
2
  0
BLOCK_RECORD
  5
17
330
9
100
AcDbSymbolTableRecord
100
AcDbBlockTableRecord
  2
*Model_Space
340
1A
 70
0
280
1
281
0
  0
BLOCK_RECORD
  5
1B
330
9
100
AcDbSymbolTableRecord
100
AcDbBlockTableRecord
  2
*Paper_Space
340
1E
 70
0
280
1
281
0
  0
ENDTAB
  0
ENDSEC
  0
SECTION
  2
BLOCKS
  0
BLOCK
  5
18
330
17
100
AcDbEntity
  8
0
100
AcDbBlockBegin
  2
*Model_Space
 70
0
 10
0.0
 20
0.0
 30
0.0
  3
*Model_Space
  1

  0
ENDBLK
  5
19
330
17
100
AcDbEntity
  8
0
100
AcDbBlockEnd
  0
BLOCK
  5
1C
330
1B
100
AcDbEntity
  8
0
100
AcDbBlockBegin
  2
*Paper_Space
 70
0
 10
0.0
 20
0.0
 30
0.0
  3
*Paper_Space
  1

  0
ENDBLK
  5
1D
330
1B
100
AcDbEntity
  8
0
100
AcDbBlockEnd
  0
ENDSEC
  0
SECTION
  2
ENTITIES
  0
LWPOLYLINE
  5
30
330
17
100
AcDbEntity
  8
BAND_03
100
AcDbPolyline
 90
8
 70
1
 10
180.67587405249918
 20
101.125
 10
181.75
 20
101.74060866992909
 10
183.5
 20
101.39174758314178
 10
185.25
 20
101.90471415299189
 10
186.72699130990588
 20
100.375
 10
185.75
 20
99.52110397188022
 10
183.0
 20
100.56319433037646
 10
181.0
 20
100.4907666369456
  0
LWPOLYLINE
  5
31
330
17
100
AcDbEntity
  8
BAND_03
100
AcDbPolyline
 90
27
 70
1
 10
146.125
 20
99.0
 10
145.125
 20
102.5
 10
141.125
 20
106.75
 10
136.0
 20
108.47706455101189
 10
130.125
 20
109.0
 10
128.875
 20
109.0
 10
127.875
 20
107.75
 10
127.125
 20
107.81799704312789
 10
126.625
 20
109.5
 10
126.05459865753998
 20
109.75
 10
126.25
 20
109.81737547304557
 10
126.8470674381124
 20
109.375
 10
127.5
 20
108.10748113654641
 10
128.5
 20
109.00773675842548
 10
129.5
 20
109.28040121242182
 10
134.5
 20
108.80785588378768
 10
136.0
 20
109.28234874516784
 10
138.75
 20
108.51894692986423
 10
141.75
 20
106.41788805253955
 10
145.17030411115428
 20
102.625
 10
145.84341433090066
 20
101.125
 10
146.75
 20
96.3684491471157
 10
149.25
 20
95.77729887563217
 10
157.93747171937338
 20
92.75
 10
148.875
 20
95.75
 10
146.875
 20
95.75
 10
146.125
 20
96.75
  0
LWPOLYLINE
  5
32
330
17
100
AcDbEntity
  8
BAND_03
100
AcDbPolyline
 90
12
 70
1
 10
100.0
 20
141.20627132593955
 10
101.30711523588555
 20
141.375
 10
101.7974834714305
 20
139.875
 10
103.06696602014283
 20
139.375
 10
103.01731066720473
 20
138.375
 10
104.25
 20
138.27762353713473
 10
104.71690872322826
 20
137.625
 10
103.46793289991933
 20
137.375
 10
103.0
 20
138.33058671268333
 10
100.22705715266267
 20
138.875
 10
98.96702158735337
 20
140.125
 10
98.63650124490721
 20
141.875
  0
LWPOLYLINE
  5
33
330
17
100
AcDbEntity
  8
BAND_03
100
AcDbPolyline
 90
45
 70
1
 10
60.0
 20
174.84696858222316
 10
62.0
 20
173.2803748580406
 10
62.75294889235299
 20
173.625
 10
64.30270805904235
 20
180.625
 10
62.72712370022759
 20
183.625
 10
60.25
 20
184.46260183919628
 10
57.75
 20
183.85434040211294
 10
55.5
 20
181.50497023901792
 10
53.957057731880695
 20
183.375
 10
50.25
 20
186.15961705454313
 10
50.25
 20
188.0702818806338
 10
54.25
 20
189.5188554595044
 10
53.8200782196761
 20
191.125
 10
55.30592506631301
 20
192.375
 10
55.0
 20
194.26825435395722
 10
57.25
 20
194.09903075082457
 10
58.75
 20
193.1148572651444
 10
61.5
 20
194.61543362346114
 10
63.826635891000336
 20
194.375
 10
65.53023317448987
 20
190.625
 10
65.18470455332462
 20
185.875
 10
65.8280360028071
 20
185.375
 10
65.60255971004435
 20
183.375
 10
66.25
 20
182.91727435959473
 10
71.0
 20
184.53985617218865
 10
73.0
 20
185.951261903726
 10
74.26998488776741
 20
188.375
 10
74.09226073496085
 20
190.125
 10
74.88991161536356
 20
190.625
 10
74.91982419787196
 20
186.875
 10
75.4155826468105
 20
186.125
 10
72.93680387107491
 20
183.875
 10
72.14467832873885
 20
181.375
 10
72.75
 20
180.11705045890443
 10
69.25
 20
182.04750006095924
 10
67.181425347123
 20
180.875
 10
66.20575420140399
 20
177.875
 10
66.45316911483161
 20
175.625
 10
65.94930188866391
 20
174.625
 10
66.45723146090627
 20
172.875
 10
70.75199907155772
 20
169.625
 10
71.0
 20
167.45970809530445
 10
66.5
 20
169.21072397077907
 10
64.75
 20
168.17026587059584
 10
60.25
 20
172.13724012380482
  0
LWPOLYLINE
  5
34
330
17
100
AcDbEntity
  8
BAND_03
100
AcDbPolyline
 90
98
 70
1
 10
230.5
 20
175.0055245336818
 10
229.75
 20
174.7427267965192
 10
228.5
 20
175.5303479910663
 10
227.0
 20
177.7111168359446
 10
225.73100216521905
 20
178.125
 10
227.01268063355843
 20
180.125
 10
225.00668074762706
 20
184.125
 10
225.75
 20
185.24197936911997
 10
227.36085050029425
 20
184.375
 10
227.07017390339846
 20
186.125
 10
227.7770536153468
 20
188.875
 10
226.25
 20
188.7551713765406
 10
225.09689850311167
 20
190.125
 10
224.7134861396067
 20
195.875
 10
225.0
 20
196.76288024906182
 10
226.0
 20
196.64648348506967
 10
227.97577210106655
 20
194.875
 10
230.71677833101455
 20
194.125
 10
229.04755298243614
 20
197.625
 10
230.5529146917971
 20
199.375
 10
230.62895236172145
 20
201.375
 10
228.25
 20
206.59353587209426
 10
225.89569815905136
 20
209.375
 10
223.39512042460777
 20
216.625
 10
223.07864295342634
 20
220.125
 10
221.75
 20
221.05601942107785
 10
217.70008189423754
 20
228.375
 10
217.27753619142015
 20
230.875
 10
215.50340722891573
 20
233.875
 10
216.0
 20
234.9527421791853
 10
220.46393757081626
 20
232.625
 10
222.27610680599466
 20
229.375
 10
222.7702260245036
 20
226.625
 10
224.5
 20
225.44569254398215
 10
226.5
 20
222.57084700173561
 10
228.25
 20
222.67660018552874
 10
229.5
 20
221.6337532665757
 10
229.75
 20
225.7310929138408
 10
231.0
 20
224.40246270181893
 10
232.0
 20
227.09217931012836
 10
234.25
 20
225.12739175930204
 10
235.1977756380015
 20
227.875
 10
233.5754923246284
 20
232.125
 10
234.5
 20
234.02671557242968
 10
236.75
 20
232.25000175487858
 10
237.5
 20
232.38856398790293
 10
238.0
 20
233.59690868370333
 10
242.0
 20
230.24582105187326
 10
243.25
 20
230.7754038475502
 10
244.75
 20
230.1582740444638
 10
246.3971259135427
 20
228.125
 10
246.00386575328838
 20
223.375
 10
245.125636213711
 20
222.625
 10
245.12408687307197
 20
221.625
 10
247.12711476965274
 20
219.125
 10
247.67422648200497
 20
216.875
 10
246.25
 20
213.18235495994242
 10
243.75
 20
216.49318420539927
 10
242.75
 20
216.35030880443554
 10
241.25
 20
218.07714541120382
 10
240.25
 20
218.06963168134433
 10
237.75
 20
220.3198974570015
 10
237.66056479278905
 20
214.625
 10
239.50536025417642
 20
211.625
 10
238.75
 20
211.40230654652714
 10
236.5
 20
213.5942843371521
 10
232.44284286498396
 20
215.125
 10
233.2514738316608
 20
212.625
 10
232.94210405244795
 20
208.625
 10
235.36462496296247
 20
207.625
 10
236.5
 20
204.44503440897654
 10
240.2339908315481
 20
202.375
 10
240.75
 20
199.4927714150837
 10
243.86522737596533
 20
197.125
 10
244.0218633381814
 20
193.625
 10
242.5
 20
189.8926210372672
 10
241.0
 20
192.4305334978336
 10
239.25
 20
193.59553142019206
 10
238.82533771721018
 20
193.125
 10
240.63783303486534
 20
191.375
 10
241.44019759620284
 20
189.375
 10
240.8424500707281
 20
188.125
 10
240.98702071284222
 20
185.875
 10
241.70885391047713
 20
184.625
 10
241.0
 20
183.22391413300616
 10
239.5
 20
183.003274784162
 10
236.5
 20
183.83066477559962
 10
234.5
 20
185.28655682157216
 10
233.22260329587897
 20
183.875
 10
234.91000984473223
 20
180.625
 10
234.75
 20
180.10453418693228
 10
233.75
 20
180.29196143642588
 10
233.0784079859691
 20
172.375
 10
231.22025607788981
 20
169.375
 10
230.25
 20
166.18529362880886
 10
228.0584667698633
 20
170.125
 10
229.86889901871444
 20
171.875
 10
230.97440544123273
 20
174.125
  0
LWPOLYLINE
  5
35
330
17
100
AcDbEntity
  8
BAND_03
100
AcDbPolyline
 90
11
 70
1
 10
237.25
 20
197.64193377464218
 10
237.28519702730736
 20
198.625
 10
236.0
 20
199.36563586288037
 10
234.25
 20
199.00456736042557
 10
232.75
 20
199.4528907952219
 10
233.1679294567809
 20
196.375
 10
235.0
 20
193.58235869765196
 10
235.61162990771152
 20
194.375
 10
235.37867920321088
 20
196.125
 10
236.2394626519452
 20
196.625
 10
236.25
 20
197.9158749678005
  0
LWPOLYLINE
  5
36
330
17
100
AcDbEntity
  8
BAND_03
100
AcDbPolyline
 90
13
 70
1
 10
225.0
 20
247.50805480240706
 10
227.5
 20
248.56708687897142
 10
229.0
 20
248.06898337318995
 10
230.59773650512378
 20
246.875
 10
231.2751626857383
 20
243.125
 10
229.99361314580358
 20
241.875
 10
229.75
 20
240.06835391005853
 10
225.25
 20
241.50531282883964
 10
224.0
 20
235.67345375630308
 10
222.5
 20
235.66211619506322
 10
222.6387318496532
 20
237.375
 10
221.8752292764882
 20
243.125
 10
222.25
 20
244.35802779172946
  0
LWPOLYLINE
  5
37
330
17
100
AcDbEntity
  8
BAND_03
100
AcDbPolyline
 90
11
 70
1
 10
105.25
 20
287.1875936346695
 10
107.29631855895626
 20
287.625
 10
106.0
 20
286.7284750654619
 10
105.0
 20
287.0149560922064
 10
103.71167308459803
 20
285.625
 10
104.85769880447921
 20
283.625
 10
104.5
 20
282.8167498125613
 10
103.75
 20
282.5653642220602
 10
102.84608312937699
 20
284.875
 10
103.85187522009626
 20
288.375
 10
104.59673761339846
 20
288.375
  0
LWPOLYLINE
  5
38
330
17
100
AcDbEntity
  8
BAND_03
100
AcDbPolyline
 90
11
 70
1
 10
154.25
 20
299.6169523520428
 10
158.8336391921601
 20
300.875
 10
160.5
 20
301.0090070787793
 10
162.5
 20
300.2568610451177
 10
163.3555028347351
 20
298.875
 10
163.25
 20
297.27218525193143
 10
161.81052438597266
 20
296.875
 10
161.0
 20
295.941338440907
 10
157.75
 20
295.89927993220635
 10
154.0
 20
296.82665307465754
 10
153.08862652594712
 20
298.125
  0
LWPOLYLINE
  5
39
330
17
100
AcDbEntity
  8
BAND_03
100
AcDbPolyline
 90
141
 70
1
 10
260.5
 20
112.06669882447966
 10
261.875
 20
111.12440627331473
 10
269.5
 20
110.37067971765745
 10
271.25
 20
110.96492278960278
 10
272.92271146516526
 20
114.625
 10
274.25
 20
115.8237137288311
 10
280.04855527347127
 20
116.875
 10
282.03694590533433
 20
120.375
 10
281.24935086599555
 20
121.125
 10
282.1299355889184
 20
122.125
 10
280.07614620228253
 20
127.125
 10
280.00113571208044
 20
128.875
 10
279.1628284712618
 20
129.375
 10
278.75
 20
130.8356541651194
 10
276.75
 20
131.68440372113878
 10
275.80917915148245
 20
134.875
 10
274.0
 20
137.40596629213485
 10
273.0
 20
137.67268476425514
 10
271.75
 20
136.5598740298964
 10
265.0
 20
137.12523265651438
 10
264.1597413861074
 20
136.125
 10
263.7933816841959
 20
134.125
 10
261.0441778412603
 20
132.125
 10
258.9100636848341
 20
127.125
 10
257.75
 20
126.61855829230947
 10
256.0
 20
127.78295280051285
 10
254.5451383902929
 20
129.875
 10
254.14925438095398
 20
133.875
 10
252.33294238970848
 20
139.625
 10
252.666935775619
 20
141.375
 10
254.32757420690743
 20
145.625
 10
256.20958939083016
 20
148.125
 10
257.75
 20
148.39596868447285
 10
259.0
 20
150.94481786843392
 10
262.052599392262
 20
151.875
 10
262.522455678504
 20
153.125
 10
264.5
 20
154.59219595116673
 10
265.485641877993
 20
156.375
 10
269.25
 20
156.5922888440473
 10
269.5
 20
158.2873006833713
 10
271.33313593222994
 20
160.625
 10
273.5
 20
161.25347535345816
 10
274.75
 20
163.46223115196636
 10
276.75
 20
161.45632271851832
 10
278.16817505209883
 20
161.625
 10
278.0
 20
162.3960259469132
 10
276.9778888064781
 20
162.875
 10
277.45444944407745
 20
165.625
 10
278.750104480107
 20
166.125
 10
279.4001664741455
 20
168.125
 10
281.75
 20
170.60415800955744
 10
284.0
 20
168.60576267743164
 10
285.5
 20
168.56544206637363
 10
285.5
 20
166.70748931938715
 10
287.5
 20
167.78769565331478
 10
289.85068086000905
 20
167.875
 10
289.8820157692707
 20
166.875
 10
288.61639468521486
 20
166.375
 10
290.0
 20
166.5157804486189
 10
291.331974414845
 20
164.375
 10
288.0
 20
165.01469894689762
 10
287.5
 20
164.16289185253316
 10
286.5
 20
164.513148496761
 10
285.0085521449704
 20
163.375
 10
286.84235871440893
 20
159.875
 10
287.07710676409283
 20
157.125
 10
288.3526563138537
 20
155.125
 10
291.5
 20
154.84432662796286
 10
291.6303011507748
 20
158.875
 10
293.5
 20
161.17461220637915
 10
297.75
 20
160.94814733910385
 10
298.5
 20
158.72766331334236
 10
299.5
 20
159.4002336305888
 10
300.00583446781314
 20
159.125
 10
299.75
 20
157.4567996561167
 10
299.0
 20
157.28066402962463
 10
298.25
 20
158.0044752527083
 10
297.69944446058923
 20
157.375
 10
298.5920174822591
 20
153.375
 10
297.75
 20
152.74883466826736
 10
296.5
 20
152.8854500988523
 10
296.282227241991
 20
152.375
 10
297.75246657640884
 20
149.875
 10
297.4883328680439
 20
148.375
 10
300.9623358126285
 20
145.625
 10
299.55302799756544
 20
145.125
 10
299.5
 20
144.49353063652586
 10
301.23028685644005
 20
144.125
 10
301.07679357886
 20
145.375
 10
301.5
 20
145.6056848768817
 10
302.94354218333797
 20
144.125
 10
301.5
 20
141.475915589269
 10
298.4128479815228
 20
142.125
 10
301.9675748823687
 20
139.375
 10
301.77772947852617
 20
137.625
 10
301.2028058670405
 20
137.375
 10
302.2104272979782
 20
135.625
 10
300.1574539215339
 20
136.125
 10
299.9047460467515
 20
137.125
 10
300.5595740504465
 20
137.625
 10
299.5241823004978
 20
138.625
 10
298.75
 20
138.92049205496278
 10
298.0
 20
138.04110611116278
 10
296.75
 20
138.56270095291757
 10
295.6173740174833
 20
142.375
 10
291.5
 20
146.6449998769049
 10
290.60933722574464
 20
146.375
 10
290.09635518272864
 20
144.875
 10
290.97078190515566
 20
143.125
 10
290.5236901100796
 20
141.875
 10
291.5
 20
138.35947127393837
 10
292.75
 20
138.3453306658614
 10
294.0
 20
137.18085042471608
 10
296.0
 20
137.7678848699802
 10
297.25
 20
135.78685122924986
 10
299.08112890883166
 20
135.125
 10
300.63102303188725
 20
132.875
 10
304.25
 20
131.7803492410095
 10
310.72296892130584
 20
127.625
 10
312.74003613152075
 20
127.625
 10
314.0
 20
128.30972586417005
 10
319.0
 20
130.29740668714447
 10
319.22266553668095
 20
130.25
 10
311.375
 20
127.0
 10
304.125
 20
131.5
 10
302.375
 20
132.0
 10
292.75
 20
130.72512530505577
 10
288.875
 20
128.0
 10
289.26455095099436
 20
124.5
 10
287.447065514263
 20
123.625
 10
284.5972129462307
 20
120.0
 10
282.125
 20
119.25
 10
280.625
 20
116.5
 10
278.8193518687445
 20
115.75
 10
274.625
 20
115.5
 10
273.125
 20
114.25
 10
271.3793138379564
 20
110.5
 10
268.625
 20
110.0
 10
261.875
 20
110.75
 10
260.125
 20
112.0
 10
259.375
 20
113.85159549310617
  0
LWPOLYLINE
  5
3A
330
17
100
AcDbEntity
  8
BAND_03
100
AcDbPolyline
 90
1960
 70
1
 10
191.5
 20
99.32829453652981
 10
187.8965336232417
 20
99.375
 10
186.79810494590632
 20
100.375
 10
187.3407949211891
 20
102.125
 10
188.75
 20
102.35618276419717
 10
188.75
 20
102.83299096409418
 10
188.0
 20
103.432182779257
 10
186.0
 20
103.47994840252993
 10
185.25
 20
105.39960373548709
 10
184.25
 20
105.7813049117229
 10
183.5
 20
106.95129648894671
 10
180.0
 20
107.75994795395714
 10
179.69946172457304
 20
105.625
 10
179.0
 20
105.15002374220285
 10
177.51518012330936
 20
106.375
 10
176.9319558957446
 20
108.125
 10
175.4037247907806
 20
109.125
 10
182.16638083390706
 20
114.125
 10
183.75
 20
116.43619603138481
 10
188.0
 20
115.88172367924243
 10
189.25
 20
116.5500393923003
 10
190.75
 20
118.75286030315777
 10
192.45185465730157
 20
118.875
 10
191.75
 20
120.51850589028857
 10
181.0
 20
119.21326255910856
 10
178.87421567372024
 20
118.625
 10
177.5
 20
117.1190174251173
 10
172.48749867155902
 20
118.625
 10
172.65290001473156
 20
120.625
 10
172.0
 20
122.23278496468876
 10
171.3280779887361
 20
120.625
 10
170.0
 20
119.65986473052611
 10
168.5
 20
120.01995541448466
 10
167.0
 20
119.32447713438427
 10
163.0
 20
120.88518020422529
 10
160.75
 20
120.81745132162294
 10
159.33998514802718
 20
122.375
 10
159.75
 20
124.6324312626192
 10
156.0
 20
121.70904060770886
 10
154.0
 20
124.37866729596601
 10
151.75
 20
121.37454012794298
 10
151.16747583146673
 20
122.125
 10
151.49803320561944
 20
122.875
 10
149.75
 20
124.93896699467447
 10
149.75
 20
121.13386402046855
 10
146.5
 20
119.33944594728337
 10
144.85265444282524
 20
116.625
 10
144.0
 20
116.39589142963378
 10
143.4141417138594
 20
114.625
 10
141.32006790564685
 20
112.125
 10
140.5
 20
108.93910521384474
 10
138.75
 20
108.74587891861646
 10
135.25
 20
109.98508376029402
 10
134.73159729668637
 20
111.125
 10
135.5141063360303
 20
113.125
 10
133.0
 20
113.02014664425893
 10
132.8012333617371
 20
114.625
 10
131.25
 20
115.2377199054223
 10
129.52498524039703
 20
117.375
 10
129.0
 20
120.63350699504517
 10
126.75
 20
120.68397997009527
 10
125.5
 20
122.49041863814031
 10
125.0
 20
121.58036795881286
 10
124.36540915285703
 20
128.125
 10
126.28501854452485
 20
128.625
 10
127.59199606133072
 20
131.875
 10
127.0
 20
132.33064192538274
 10
125.75
 20
131.6467566789171
 10
124.75
 20
132.87679083662184
 10
123.75
 20
132.4261999854105
 10
123.1998804409234
 20
132.875
 10
123.51993464820518
 20
133.625
 10
124.89471573053603
 20
133.625
 10
125.41543516013014
 20
135.125
 10
125.28040530175193
 20
136.375
 10
125.88965316055331
 20
137.125
 10
125.25622091458023
 20
138.125
 10
125.5
 20
142.0192481792942
 10
123.28490328006725
 20
134.625
 10
120.75
 20
133.31439733744799
 10
119.5
 20
133.6732315807679
 10
118.91866891891894
 20
133.125
 10
119.12615583775123
 20
129.625
 10
120.25
 20
130.22808294209705
 10
121.5
 20
129.795863290252
 10
121.7170066292708
 20
129.125
 10
121.20192142447969
 20
127.875
 10
119.75
 20
127.97870708158182
 10
119.27008889390406
 20
127.125
 10
119.84241237750743
 20
124.625
 10
119.59331549552496
 20
122.375
 10
118.25
 20
120.8115679934218
 10
116.5
 20
122.33866053770913
 10
116.25
 20
121.81855387362873
 10
117.26275392542053
 20
116.375
 10
120.0
 20
114.72513148026849
 10
120.25
 20
114.00815023430472
 10
119.625
 20
114.75
 10
117.93098765772663
 20
115.0
 10
116.875
 20
116.13365512678988
 10
115.375
 20
123.0
 10
112.625
 20
126.75
 10
111.375
 20
127.75
 10
105.09499868392606
 20
128.0
 10
100.125
 20
131.5
 10
98.875
 20
134.25
 10
94.125
 20
138.25
 10
91.28845289975033
 20
144.125
 10
92.25
 20
144.82524059371127
 10
94.25
 20
143.6944460722553
 10
94.53891231064766
 20
144.125
 10
93.72975339399191
 20
144.875
 10
95.5
 20
146.05986706216845
 10
96.42781977352826
 20
144.875
 10
97.5
 20
144.989486992443
 10
96.21380236438888
 20
148.625
 10
96.75
 20
149.93134637056295
 10
97.75
 20
148.464769144559
 10
99.0
 20
148.58056793945138
 10
99.50089691000036
 20
146.875
 10
99.98511526050488
 20
147.125
 10
100.25
 20
149.08744606238176
 10
102.25
 20
147.7986915286598
 10
102.12279454618157
 20
150.625
 10
101.32996622800216
 20
151.625
 10
101.75
 20
152.1155426076794
 10
102.5
 20
151.43672919912257
 10
103.52396697754331
 20
151.875
 10
103.04495729424886
 20
149.625
 10
103.5
 20
148.43140613410617
 10
104.45269288366282
 20
148.375
 10
104.92890930221056
 20
149.625
 10
104.57288195818599
 20
151.375
 10
105.57739073723333
 20
152.875
 10
106.60010830132512
 20
157.625
 10
105.96061646744394
 20
159.375
 10
105.5
 20
165.29729424646916
 10
103.25
 20
165.4505256195008
 10
102.25
 20
166.78635426998414
 10
101.5
 20
166.62529500044138
 10
100.53167441132845
 20
164.875
 10
100.38074544180499
 20
162.875
 10
98.75
 20
162.5177962948985
 10
97.25
 20
160.81027601348703
 10
97.25
 20
159.1070551066735
 10
102.0
 20
160.18106151021345
 10
103.08080467907561
 20
158.125
 10
102.0
 20
157.10125931458674
 10
101.25
 20
157.77943228581432
 10
100.25
 20
157.45424661133245
 10
98.75
 20
158.15312824856744
 10
96.74476568389568
 20
157.125
 10
97.0
 20
156.43025337442947
 10
98.0
 20
156.42857334495943
 10
97.87323560605023
 20
155.125
 10
99.04549562570814
 20
153.125
 10
98.25
 20
152.22525177597478
 10
97.0
 20
155.14985298447704
 10
96.0
 20
155.36662579638602
 10
95.25
 20
154.3699633813307
 10
94.84546097314376
 20
155.625
 10
94.0
 20
155.8324328238843
 10
92.75
 20
153.21723395796278
 10
91.25
 20
153.861872458519
 10
90.3019344946826
 20
152.625
 10
89.25
 20
152.5903288860565
 10
89.15699270299642
 20
149.375
 10
88.0
 20
149.1158965745663
 10
87.125
 20
150.43123043467307
 10
86.625
 20
154.75
 10
85.11535931316438
 20
156.875
 10
84.125
 20
157.25
 10
83.5
 20
156.85248926201223
 10
82.0
 20
158.20905525680882
 10
80.0
 20
158.738486328028
 10
78.25
 20
157.87305121545478
 10
73.66592286821245
 20
163.0
 10
71.90363207957643
 20
166.625
 10
73.45484165119484
 20
164.875
 10
75.25
 20
164.412895183444
 10
76.5
 20
165.20820078403096
 10
77.25
 20
164.5415704685427
 10
81.75
 20
164.96697325686065
 10
83.0
 20
165.7351862014396
 10
84.5
 20
165.2481185525487
 10
86.75
 20
166.56306141245136
 10
87.75
 20
166.37562155510983
 10
91.39876411077026
 20
168.875
 10
92.29058708870603
 20
172.625
 10
90.9016575800946
 20
176.375
 10
91.44731556243461
 20
182.875
 10
91.00190242422676
 20
192.625
 10
89.68202523971175
 20
193.625
 10
89.68361696081469
 20
196.125
 10
92.24571444860747
 20
199.875
 10
91.71648673527343
 20
201.375
 10
92.76053118426324
 20
202.625
 10
92.42591814904095
 20
208.625
 10
92.85268405471044
 20
210.375
 10
92.25
 20
211.86458735447167
 10
90.5
 20
211.80555832432225
 10
89.58137626219902
 20
209.625
 10
89.54014843761269
 20
207.875
 10
88.45474669846067
 20
206.625
 10
87.06471569828335
 20
198.125
 10
87.31375811269088
 20
192.625
 10
86.61638037393894
 20
189.625
 10
85.75
 20
188.6991979257536
 10
85.2111114218292
 20
190.125
 10
86.59407284507603
 20
199.875
 10
86.25
 20
206.92788386430578
 10
85.26037308779183
 20
207.375
 10
83.5
 20
209.69923289955346
 10
82.0
 20
209.80643583524198
 10
81.0
 20
208.49393425138712
 10
80.95701671420068
 20
210.625
 10
78.25
 20
211.9894718332261
 10
73.75057687426445
 20
211.125
 10
79.5
 20
213.6539582248568
 10
82.25
 20
212.158110528204
 10
83.75
 20
212.85097018432992
 10
85.5
 20
211.71027967938022
 10
88.5
 20
213.31433585453038
 10
89.36355421494396
 20
215.125
 10
87.56095478812216
 20
216.875
 10
86.25
 20
222.43802922059925
 10
84.61916992824524
 20
222.625
 10
83.25
 20
221.39521921862047
 10
81.90097399678513
 20
223.625
 10
83.0
 20
225.39927185965345
 10
85.75
 20
226.53547201471764
 10
86.25485143898969
 20
227.875
 10
89.0
 20
230.67918722011322
 10
90.02997067760658
 20
230.625
 10
90.59819706982648
 20
228.125
 10
89.9578802583955
 20
225.625
 10
88.75
 20
225.0754344936778
 10
87.92392533338267
 20
223.375
 10
89.29458814659307
 20
220.375
 10
89.25
 20
217.80587990062043
 10
90.25
 20
217.2954489707626
 10
91.25
 20
218.1173494653911
 10
92.25
 20
217.25643700311394
 10
93.5
 20
218.67157030745545
 10
94.75
 20
219.10314302793935
 10
96.75
 20
221.51331557584984
 10
94.61465835056151
 20
223.375
 10
94.5
 20
224.2087886756369
 10
95.87404094259196
 20
225.125
 10
94.95105557920505
 20
227.375
 10
94.55756688345282
 20
231.875
 10
95.5
 20
232.64881444262446
 10
96.75
 20
232.25574984872082
 10
97.06270980177564
 20
235.125
 10
99.49291650043178
 20
237.375
 10
100.31900667378726
 20
242.375
 10
100.10089542648772
 20
243.625
 10
99.16072706439137
 20
244.625
 10
100.58809516020142
 20
245.875
 10
100.98433296829812
 20
247.875
 10
100.57253513361304
 20
252.875
 10
102.84023816375236
 20
255.375
 10
104.25
 20
255.53582957277135
 10
106.25
 20
257.6464946378637
 10
108.0
 20
258.2541335877862
 10
109.02365299088916
 20
259.875
 10
107.75
 20
260.7087319519453
 10
101.25
 20
258.0572593615608
 10
99.1778316795854
 20
254.625
 10
99.90430808734946
 20
250.625
 10
99.5
 20
250.09137204232772
 10
98.55368249569956
 20
251.375
 10
98.30623854315543
 20
253.375
 10
97.4198556498831
 20
253.625
 10
95.58395279922395
 20
250.125
 10
92.00769959430909
 20
240.375
 10
88.0
 20
235.41260413440324
 10
85.3005997943562
 20
233.375
 10
81.0
 20
231.49120436987826
 10
80.5
 20
232.56690226598897
 10
78.32775711513585
 20
232.875
 10
83.15741566683462
 20
238.625
 10
82.29240173455706
 20
239.875
 10
80.58918498217233
 20
240.625
 10
81.0
 20
241.2710218720826
 10
83.69146357244533
 20
241.875
 10
83.54956573143555
 20
243.875
 10
82.54842986084998
 20
245.125
 10
82.80890773183201
 20
246.125
 10
81.84295403790439
 20
247.375
 10
81.87768530150754
 20
249.125
 10
85.25
 20
250.96622228525504
 10
84.30177465160028
 20
253.125
 10
87.5
 20
255.37041191274045
 10
87.70652647525247
 20
256.125
 10
86.64651625368134
 20
261.375
 10
85.69235504617367
 20
262.625
 10
87.18222743776784
 20
264.375
 10
83.0
 20
265.3406496490504
 10
82.0
 20
266.46507208296947
 10
80.25
 20
267.1126634427568
 10
78.5
 20
269.42408941985565
 10
78.41454535383254
 20
270.375
 10
79.25
 20
271.10458996888156
 10
81.0
 20
269.8601536544851
 10
81.25
 20
271.1250252414768
 10
82.26231599427335
 20
271.375
 10
81.92161436953081
 20
272.875
 10
83.11148979205895
 20
273.625
 10
83.25
 20
276.4695916616714
 10
85.25
 20
275.3133656826526
 10
88.19230191209454
 20
277.625
 10
87.25
 20
279.1149151172191
 10
85.5678254765775
 20
279.375
 10
84.98204446686327
 20
280.875
 10
89.25
 20
281.6929079660541
 10
88.81078138482326
 20
283.625
 10
89.75
 20
284.4106568962079
 10
90.68317122197337
 20
284.375
 10
90.25
 20
285.0033570037524
 10
88.5
 20
285.22745932613793
 10
82.5
 20
288.2039365439987
 10
81.25
 20
289.85844523332776
 10
80.0
 20
290.2452937575202
 10
79.27399828320341
 20
291.625
 10
77.0
 20
293.1304509409728
 10
74.75
 20
293.3365757362552
 10
74.9966738885959
 20
294.625
 10
76.0
 20
295.5807840300437
 10
73.07141260246752
 20
297.875
 10
74.75
 20
298.1983612527313
 10
74.5351992922906
 20
299.375
 10
75.51791731195851
 20
301.375
 10
73.75
 20
306.60385972945755
 10
73.10892421320489
 20
306.375
 10
72.25
 20
304.2245605130645
 10
71.25
 20
304.7268176524416
 10
70.50534616145504
 20
306.625
 10
70.37701014278153
 20
309.875
 10
72.34488590190274
 20
309.625
 10
73.75
 20
307.64947006248514
 10
75.94172194755765
 20
308.5
 10
78.125
 20
307.5
 10
79.125
 20
306.25
 10
79.625
 20
303.75
 10
81.125
 20
302.25
 10
84.375
 20
301.5
 10
86.625
 20
301.75
 10
89.125
 20
305.25
 10
89.875
 20
305.08443050034776
 10
90.625
 20
302.5
 10
92.375
 20
302.0
 10
106.1734936785883
 20
304.25
 10
104.75
 20
303.213981821844
 10
93.0
 20
301.63159641979826
 10
90.55501403503615
 20
302.375
 10
89.25
 20
304.66499312959735
 10
86.75
 20
301.5521421453037
 10
84.75
 20
301.17543987252867
 10
80.75
 20
302.23079848932633
 10
79.44087205518677
 20
303.625
 10
78.5
 20
306.52362603501933
 10
77.75
 20
307.1912002207649
 10
75.75
 20
308.0134993912276
 10
75.0713842843495
 20
306.875
 10
75.64706660520082
 20
302.875
 10
76.41293521931541
 20
301.625
 10
75.78191342669453
 20
299.125
 10
76.25
 20
298.0721270090271
 10
80.25
 20
296.7305866258379
 10
83.25
 20
294.9350418826941
 10
88.25
 20
294.77289512449966
 10
89.11131899897043
 20
292.125
 10
90.26408795401488
 20
291.875
 10
90.0
 20
289.7090021630237
 10
91.75
 20
291.3221010300332
 10
94.75
 20
291.7252176251956
 10
96.75
 20
291.1059457696497
 10
99.25
 20
287.5366902211226
 10
100.60893708880211
 20
286.875
 10
99.95877662123566
 20
284.375
 10
100.88304504807084
 20
283.375
 10
101.0
 20
280.78453088485617
 10
106.75
 20
280.9337883383889
 10
110.75
 20
276.7058188873576
 10
113.75
 20
276.99043457723195
 10
113.90882371952844
 20
276.125
 10
112.96858434932412
 20
275.125
 10
114.25
 20
274.83144904936125
 10
114.5
 20
274.06698290772204
 10
116.25
 20
273.64285135281193
 10
118.0
 20
272.2000087588684
 10
119.5
 20
272.873454700332
 10
120.75
 20
271.86588106822177
 10
122.36322840684717
 20
271.625
 10
120.90148694946856
 20
268.625
 10
121.0
 20
267.2370016963529
 10
119.90761050182785
 20
266.625
 10
120.20335791523388
 20
265.625
 10
119.54849092220242
 20
263.625
 10
117.75
 20
263.6971445854526
 10
117.5
 20
261.9967003510769
 10
116.25
 20
262.5003288478104
 10
113.08972016651248
 20
260.125
 10
107.98012755958375
 20
254.125
 10
109.25
 20
253.2938863255034
 10
111.25
 20
255.94845302619694
 10
113.24831923660811
 20
256.875
 10
112.45757590936415
 20
253.875
 10
113.63360934205784
 20
250.625
 10
113.73059131948662
 20
240.875
 10
114.5
 20
239.82412338373877
 10
114.29695020971663
 20
242.375
 10
115.6081573762353
 20
246.375
 10
117.5
 20
247.48018153672953
 10
119.3463162038168
 20
247.625
 10
119.0
 20
248.4767134092901
 10
117.35722494412505
 20
249.375
 10
117.29059369552368
 20
252.375
 10
115.37068748426088
 20
254.875
 10
116.6841978013675
 20
256.625
 10
116.75
 20
258.6874131245885
 10
117.441035432022
 20
259.125
 10
118.01062337208994
 20
257.875
 10
118.75
 20
257.58377587234156
 10
119.31130191693292
 20
259.375
 10
121.0
 20
259.56412097517864
 10
122.5
 20
256.56500679307703
 10
122.5
 20
260.30000257811696
 10
126.5
 20
258.11740131436727
 10
128.348219821819
 20
259.625
 10
128.5
 20
260.76725243714725
 10
130.75624716740148
 20
260.375
 10
131.0171694035502
 20
261.125
 10
130.22731001866026
 20
262.875
 10
131.0
 20
266.60372812579254
 10
132.0652740790058
 20
268.625
 10
131.9800906078159
 20
270.125
 10
132.75
 20
270.54837997965524
 10
134.75
 20
269.66201528654904
 10
136.0
 20
270.42856500629387
 10
135.99097054791287
 20
272.625
 10
136.57857718661836
 20
273.875
 10
137.7072826452856
 20
274.375
 10
134.7270885614159
 20
276.875
 10
133.48025796742098
 20
280.125
 10
135.0
 20
280.170789705153
 10
135.25
 20
281.7697909957744
 10
137.0
 20
280.7977415126651
 10
140.48071933112294
 20
280.125
 10
137.74429476460756
 20
283.125
 10
137.25
 20
286.611972327324
 10
138.0
 20
286.65022034197074
 10
138.84496158184123
 20
285.375
 10
139.62577618698987
 20
285.375
 10
139.4211339425603
 20
288.375
 10
141.25
 20
289.0366710406039
 10
143.06084881666118
 20
285.375
 10
142.6040687559361
 20
282.625
 10
143.0
 20
280.8166325458918
 10
144.30944708276797
 20
279.125
 10
146.5
 20
277.8980386174861
 10
147.0
 20
278.1681736856592
 10
147.05144328662112
 20
279.375
 10
144.5131932966906
 20
284.125
 10
144.854641930316
 20
288.375
 10
146.25
 20
289.0694245957127
 10
146.05401151226346
 20
293.125
 10
146.5
 20
294.4225086840027
 10
154.25
 20
287.93839218388416
 10
154.60105626094574
 20
289.125
 10
156.62071933380108
 20
289.875
 10
158.25
 20
292.0504078856632
 10
159.0
 20
292.2289879226331
 10
160.0
 20
291.2896857082021
 10
162.35400647511125
 20
293.625
 10
164.75
 20
294.3352321730431
 10
166.25
 20
294.0774486980514
 10
169.75
 20
291.940506023037
 10
170.8661407647695
 20
293.875
 10
172.75
 20
294.45994679741284
 10
171.95682726231917
 20
295.875
 10
165.34973777099083
 20
298.125
 10
164.99703139942616
 20
298.625
 10
165.5
 20
299.70446898576756
 10
176.75
 20
299.19630770303564
 10
177.75
 20
299.79797557024915
 10
178.97717347304825
 20
298.875
 10
179.97134204356246
 20
296.875
 10
178.47147068232718
 20
295.125
 10
178.73220297541806
 20
292.375
 10
179.5
 20
291.4732463667078
 10
181.0
 20
292.042627022925
 10
182.0
 20
293.57614015976765
 10
183.25
 20
293.43722903669243
 10
184.0
 20
294.40027016137367
 10
186.56263709748177
 20
293.875
 10
183.55110170720016
 20
296.625
 10
181.0920252648209
 20
297.875
 10
180.77003679175863
 20
299.125
 10
182.0
 20
302.240468774733
 10
182.75
 20
302.11856401511886
 10
183.5
 20
300.6883674408724
 10
185.66626271141786
 20
299.625
 10
189.5
 20
298.8722522675213
 10
190.5
 20
297.377270159012
 10
191.5
 20
298.6052812447565
 10
194.24624428478117
 20
297.625
 10
194.55316896821256
 20
299.625
 10
196.5
 20
300.08391972264747
 10
197.61952679592233
 20
299.125
 10
198.31294626341108
 20
296.625
 10
199.0
 20
296.1078018293115
 10
199.91832340177044
 20
296.625
 10
200.13120713472122
 20
298.875
 10
198.71776033793822
 20
302.625
 10
200.5
 20
305.4079828573849
 10
204.75
 20
305.9798282341502
 10
209.75
 20
307.944256880012
 10
213.5
 20
307.1511225293448
 10
216.75
 20
308.10459087899625
 10
217.75
 20
307.3639989122017
 10
220.25
 20
307.03601826124935
 10
225.0
 20
304.0846744374587
 10
228.0
 20
305.2324183708366
 10
231.25
 20
304.46489536470705
 10
231.04325720445766
 20
307.125
 10
232.89685954193678
 20
308.375
 10
231.25
 20
312.51848716366607
 10
228.5
 20
310.4517666928482
 10
227.25
 20
309.9492837442192
 10
223.75
 20
310.2352060035712
 10
220.25
 20
311.66491853657544
 10
216.0
 20
311.70161973835906
 10
202.49609869799636
 20
310.125
 10
196.5
 20
308.0187196459309
 10
194.75
 20
307.712516807886
 10
182.0
 20
308.68756189461055
 10
162.5
 20
307.72712200660635
 10
156.75
 20
309.4662012488159
 10
152.25
 20
311.94120488413705
 10
147.30485163239354
 20
316.875
 10
144.5
 20
316.8101823145578
 10
143.75
 20
317.1590655591291
 10
140.5
 20
321.66952944932234
 10
138.0
 20
322.4916133515129
 10
136.31346884424738
 20
323.875
 10
129.5
 20
333.0705597451833
 10
127.0
 20
335.55100349770305
 10
121.25
 20
336.51607851143257
 10
120.75
 20
335.73801308073973
 10
118.5
 20
335.55559098150076
 10
115.75
 20
337.82935563679916
 10
109.25
 20
333.4447039000271
 10
108.91928805389034
 20
330.375
 10
107.89831611368584
 20
329.125
 10
108.49028057417839
 20
327.625
 10
107.64841593785637
 20
324.625
 10
106.0
 20
322.70136879023437
 10
102.14834918424557
 20
321.125
 10
102.2501225080744
 20
320.375
 10
104.47886001324653
 20
318.875
 10
105.40805640863715
 20
316.375
 10
104.54487068169092
 20
312.875
 10
105.0
 20
306.77496830568884
 10
106.19064178572246
 20
304.625
 10
106.125
 20
304.42626804913334
 10
104.625
 20
306.4119350106206
 10
104.125
 20
314.70002478773563
 10
105.125
 20
316.25
 10
104.125
 20
318.75
 10
101.625
 20
320.24859337306657
 10
101.59331734989043
 20
321.375
 10
102.43783224856713
 20
322.25
 10
105.125
 20
322.75
 10
106.875
 20
324.25
 10
107.875
 20
327.25
 10
107.875
 20
328.25
 10
107.09587507896534
 20
329.125
 10
108.625
 20
331.75
 10
108.41100421280193
 20
333.75
 10
115.12530992849824
 20
338.75
 10
127.875
 20
335.75
 10
131.875
 20
331.0
 10
136.375
 20
324.25
 10
137.625
 20
323.0
 10
140.875
 20
322.0
 10
143.625
 20
317.5
 10
144.375
 20
317.0
 10
145.28588643930584
 20
317.5
 10
147.625
 20
317.25
 10
150.625
 20
314.5442957806064
 10
152.125
 20
312.25
 10
156.625
 20
309.75
 10
162.375
 20
308.0
 10
180.875
 20
309.0
 10
195.125
 20
308.0
 10
202.04804886084236
 20
310.5
 10
215.125
 20
312.0
 10
220.625
 20
312.0
 10
223.625
 20
310.5
 10
227.625
 20
310.25
 10
229.375
 20
311.25
 10
233.125
 20
315.25
 10
237.1982391923226
 20
316.375
 10
236.5
 20
318.91476351462444
 10
233.625
 20
319.02791022978056
 10
231.875
 20
320.6905590741476
 10
231.625
 20
325.0
 10
232.625
 20
329.5
 10
231.88148534202784
 20
331.625
 10
232.875
 20
333.25
 10
235.625
 20
334.25
 10
237.875
 20
338.75
 10
239.21230386999866
 20
339.5
 10
241.242233470283
 20
339.375
 10
238.5
 20
337.068916237494
 10
238.24904951471382
 20
334.625
 10
239.20608178533382
 20
333.375
 10
236.75
 20
331.47492462240757
 10
236.6049661220537
 20
329.625
 10
235.504968564208
 20
328.375
 10
236.1508425243369
 20
327.375
 10
235.1939789263443
 20
323.375
 10
236.0
 20
319.8921440321718
 10
238.75
 20
317.6449148331561
 10
242.5
 20
315.8434796336036
 10
243.5
 20
316.0925614939598
 10
244.0
 20
314.14895951087294
 10
245.0816379359863
 20
314.375
 10
244.46962989275715
 20
310.375
 10
245.25
 20
309.22139241220174
 10
246.80680135600153
 20
309.875
 10
249.0
 20
315.63832834831464
 10
253.75
 20
317.28507922043457
 10
256.5
 20
314.89125961203064
 10
260.5
 20
314.49086868121617
 10
261.2128136739334
 20
312.625
 10
262.5
 20
311.65322884741903
 10
262.75
 20
312.80453180981897
 10
263.75
 20
312.7095240860725
 10
264.25
 20
313.3320028583096
 10
266.25
 20
311.47320130118635
 10
266.75
 20
313.9713239686736
 10
269.75
 20
313.79548823593757
 10
270.53313373541323
 20
312.625
 10
269.83774153596505
 20
311.375
 10
272.2143268765319
 20
309.125
 10
269.25
 20
308.54318833967295
 10
268.7996895637745
 20
307.375
 10
269.8215080178366
 20
305.375
 10
272.2670622552545
 20
304.125
 10
272.35538289789736
 20
301.375
 10
270.75
 20
302.0584364556608
 10
270.2011986353282
 20
301.125
 10
272.9886283402423
 20
297.625
 10
273.0163150045348
 20
295.375
 10
272.5
 20
293.8604675894504
 10
271.0
 20
293.45773231622746
 10
270.57469441409455
 20
294.375
 10
270.9558999217281
 20
296.625
 10
268.25
 20
298.59849198868994
 10
264.0
 20
296.87251393358326
 10
264.8223332277964
 20
294.375
 10
267.7782078086473
 20
290.125
 10
266.24643588736643
 20
289.375
 10
265.979758576202
 20
287.375
 10
268.75
 20
281.90489415844866
 10
269.5516227999942
 20
281.875
 10
271.75
 20
283.408359969215
 10
273.25
 20
280.6255969293952
 10
277.5
 20
278.81469738893645
 10
276.5
 20
277.5881922682677
 10
275.25
 20
277.98780769441726
 10
273.6335180119819
 20
277.125
 10
272.87326016533444
 20
275.625
 10
274.0
 20
274.41253715257005
 10
280.25
 20
271.92466045249813
 10
281.0
 20
272.75603681409757
 10
282.75
 20
271.82966048253684
 10
288.1658893055427
 20
274.625
 10
287.9554977581531
 20
277.125
 10
285.5
 20
279.63950854235287
 10
288.25
 20
279.8086906993476
 10
288.5
 20
282.06732361836174
 10
290.71339517901185
 20
282.125
 10
289.92017749171055
 20
285.625
 10
288.4991208791209
 20
286.875
 10
289.42314775630473
 20
288.125
 10
289.3396780837714
 20
289.125
 10
292.0
 20
288.61774884380395
 10
292.68953197140365
 20
289.875
 10
291.75
 20
291.0353852803693
 10
288.0
 20
290.1681156848829
 10
289.60983254886116
 20
291.875
 10
288.5
 20
292.9729375811523
 10
286.5
 20
292.57481920065135
 10
286.0
 20
293.487265285392
 10
281.75
 20
293.18220058403705
 10
281.25
 20
293.83990577143663
 10
281.0
 20
294.71897553303484
 10
282.5
 20
293.91594575559975
 10
284.5916183344597
 20
294.875
 10
280.14214284310947
 20
298.375
 10
279.4179697102542
 20
300.375
 10
277.5
 20
300.85587868232625
 10
275.9778557588421
 20
302.375
 10
276.5
 20
302.89192595547127
 10
277.75
 20
302.2834618040954
 10
278.3447570710555
 20
302.625
 10
277.0
 20
313.1079474374495
 10
278.75
 20
312.1709074438538
 10
278.75
 20
314.41171867357923
 10
280.25
 20
314.1239403443389
 10
280.0730096845817
 20
311.625
 10
278.75
 20
311.54340545552225
 10
278.6876993619509
 20
309.125
 10
280.1459611569354
 20
303.625
 10
280.75
 20
303.3777459233778
 10
281.5
 20
305.1430600330608
 10
281.8896934293852
 20
304.625
 10
282.25
 20
299.4198331908681
 10
285.5
 20
297.61827552939565
 10
286.0
 20
299.91450734202925
 10
287.46631191890305
 20
297.625
 10
288.5
 20
297.6532707426914
 10
288.79896096348847
 20
299.375
 10
290.0
 20
299.19610642875284
 10
291.0656459062742
 20
299.875
 10
291.16056471787965
 20
300.875
 10
290.2415653727694
 20
302.125
 10
291.7505485148563
 20
303.125
 10
290.75
 20
303.95628709015557
 10
288.75
 20
304.1151646830733
 10
287.8981208505048
 20
306.125
 10
286.4496022639908
 20
307.625
 10
286.06034239222555
 20
309.375
 10
287.0346782700422
 20
309.875
 10
286.9221131669128
 20
312.125
 10
288.1807343223605
 20
311.125
 10
289.232784828712
 20
306.875
 10
291.25
 20
306.69931713810786
 10
289.9663538389895
 20
310.375
 10
290.25
 20
310.7091209763496
 10
290.88957872838387
 20
309.625
 10
292.0
 20
309.2777561303247
 10
292.0645428828988
 20
310.875
 10
289.584621065788
 20
317.375
 10
291.75
 20
316.2587592512382
 10
291.88182746508755
 20
314.625
 10
293.75
 20
312.61975705516653
 10
294.37548387398687
 20
314.625
 10
293.3444233233845
 20
317.875
 10
293.75
 20
319.33512502759993
 10
294.57829543098086
 20
318.625
 10
295.75
 20
314.65107316871087
 10
296.5
 20
313.98470354642063
 10
297.25
 20
314.2885227829496
 10
297.1026920210532
 20
318.625
 10
295.4704157611529
 20
321.125
 10
296.75
 20
320.84420932257626
 10
296.80402824676116
 20
321.625
 10
295.6004099207716
 20
324.125
 10
298.0
 20
323.54891537106016
 10
299.25
 20
319.88196464875034
 10
300.0
 20
319.215251740001
 10
300.5
 20
322.37116393614156
 10
301.75
 20
322.20298266243105
 10
302.4629229774121
 20
323.125
 10
301.3019547811188
 20
325.375
 10
301.43269437905167
 20
327.125
 10
303.25
 20
329.50466662234413
 10
305.0
 20
329.9564200485412
 10
306.0
 20
330.930460217034
 10
306.57551119256766
 20
330.625
 10
306.25
 20
329.56953564992983
 10
303.6918575962498
 20
327.625
 10
303.9627167321807
 20
321.375
 10
303.3120575854505
 20
319.875
 10
303.5
 20
318.3176816695501
 10
302.67980410349975
 20
316.875
 10
304.4154654713259
 20
307.625
 10
303.809139584386
 20
305.125
 10
304.25
 20
303.07641838353993
 10
307.31281174397424
 20
305.875
 10
307.5
 20
306.98201093409284
 10
308.4039817218105
 20
307.375
 10
307.25
 20
310.1303165290905
 10
308.73851023075605
 20
309.375
 10
309.06879543292314
 20
305.875
 10
309.75
 20
304.6329725089805
 10
311.0
 20
304.41438038723356
 10
312.0
 20
305.4236303453647
 10
314.7429793066728
 20
304.875
 10
313.70607425037514
 20
306.875
 10
314.00336191209556
 20
308.125
 10
311.89036670894177
 20
308.625
 10
312.54262340080203
 20
310.125
 10
310.9975909540529
 20
312.875
 10
311.5
 20
313.43078994000155
 10
314.86954161640534
 20
313.125
 10
315.2534278655618
 20
311.875
 10
316.0
 20
311.5309977394246
 10
317.0
 20
312.96495381172554
 10
319.25
 20
312.4358678673798
 10
321.5
 20
311.2567060569287
 10
323.25
 20
308.26657455549315
 10
325.25
 20
307.512870959148
 10
326.5789736528569
 20
309.125
 10
325.4591972553048
 20
310.375
 10
325.75
 20
311.02560546901515
 10
328.0
 20
312.6607192613118
 10
329.25
 20
312.20531012949834
 10
331.41038095530706
 20
313.375
 10
330.5
 20
315.8442212077716
 10
335.0
 20
316.7620032632195
 10
336.5
 20
319.18324017831486
 10
337.75
 20
319.1486004915673
 10
338.5
 20
319.75464501918816
 10
339.1037954730615
 20
317.625
 10
340.1580428335797
 20
316.375
 10
338.5531759926141
 20
311.625
 10
341.0
 20
311.9469141553685
 10
341.4090587040668
 20
313.375
 10
340.5048456735405
 20
316.375
 10
340.1115938471609
 20
323.125
 10
339.22795239864735
 20
324.375
 10
340.52864162896134
 20
326.125
 10
341.6428322969582
 20
325.625
 10
340.37328537069436
 20
324.625
 10
340.3502113206451
 20
323.375
 10
342.2624834322186
 20
322.125
 10
344.6339672141833
 20
318.125
 10
344.80357940851115
 20
316.875
 10
346.0
 20
315.6750186418771
 10
345.8629103364528
 20
318.375
 10
346.75
 20
318.7294857845857
 10
347.0
 20
319.6559221389013
 10
348.17330489261377
 20
316.875
 10
349.0
 20
316.16295365323975
 10
349.6765080192866
 20
316.375
 10
349.88727706078043
 20
318.375
 10
348.5545612342869
 20
325.375
 10
349.75
 20
324.66513948741215
 10
351.00586515336437
 20
320.125
 10
351.24649256625446
 20
316.375
 10
352.5
 20
314.1547040660332
 10
353.25
 20
315.7414890241709
 10
354.0
 20
314.79911057187667
 10
354.7262695221172
 20
314.875
 10
354.95472338251653
 20
318.625
 10
353.52820221629975
 20
323.625
 10
353.0
 20
329.0726328217238
 10
353.8674665085678
 20
325.375
 10
355.49390592394235
 20
323.875
 10
356.55098521435053
 20
319.875
 10
358.5
 20
315.8653847574362
 10
359.30733410631655
 20
318.625
 10
358.41962328980213
 20
320.625
 10
360.2704729675369
 20
319.875
 10
360.3441433260819
 20
322.125
 10
361.5
 20
320.91355832615454
 10
362.62306248836614
 20
320.875
 10
363.5
 20
319.47874819426295
 10
364.0
 20
322.25509636367565
 10
365.25
 20
321.39668336597856
 10
365.72211396206416
 20
324.875
 10
368.0
 20
321.60746138761186
 10
369.6091306125231
 20
322.375
 10
368.02333716728816
 20
324.875
 10
369.5
 20
326.1260160546396
 10
370.75
 20
323.7008335123484
 10
371.5313613400691
 20
323.375
 10
373.0
 20
329.3839696319635
 10
374.0
 20
327.21668141759346
 10
374.8594112568728
 20
327.625
 10
374.3407409650341
 20
329.875
 10
374.75
 20
331.69353301414094
 10
376.75
 20
328.59517464951296
 10
377.3574073456626
 20
328.875
 10
377.5181315925382
 20
329.875
 10
377.0
 20
332.72712202603503
 10
378.25
 20
332.7006737388689
 10
379.36851438483734
 20
331.625
 10
379.5584116589438
 20
330.125
 10
380.0
 20
330.1549695818695
 10
380.35116346765057
 20
332.125
 10
378.95661378297865
 20
334.375
 10
380.5
 20
335.58667839331713
 10
381.62423565346495
 20
334.625
 10
381.75
 20
331.8317393688554
 10
382.5
 20
330.40807799226843
 10
383.4331368771417
 20
331.875
 10
383.5953670223581
 20
334.125
 10
380.5
 20
336.8979180923304
 10
378.70865444623445
 20
337.375
 10
379.140080001546
 20
338.125
 10
381.5
 20
337.05150640540506
 10
382.5
 20
337.24831776702524
 10
385.3551150323877
 20
334.375
 10
384.62802495588596
 20
337.875
 10
386.0275489104502
 20
336.625
 10
385.466239553752
 20
339.125
 10
383.75
 20
341.1537955228541
 10
382.5
 20
341.27436040484264
 10
382.0
 20
340.5106205825295
 10
382.0
 20
342.4357796553882
 10
380.5738061793901
 20
343.375
 10
382.5
 20
345.99892461521256
 10
383.25
 20
345.9566425450413
 10
383.3718254589799
 20
347.125
 10
379.25
 20
346.26064455510664
 10
377.64202640648324
 20
347.125
 10
378.25
 20
347.8569545611455
 10
380.81294401894485
 20
348.375
 10
381.2921622156281
 20
349.375
 10
382.88178149945315
 20
350.125
 10
381.25
 20
355.038787220978
 10
378.5
 20
354.1458846178723
 10
377.7802051108922
 20
354.625
 10
379.75
 20
356.64131146054416
 10
379.0
 20
359.5657555030655
 10
377.5
 20
358.8526603683836
 10
376.25
 20
356.7145464704307
 10
373.5
 20
355.7156154239546
 10
373.38247765715585
 20
356.625
 10
374.876710122254
 20
357.875
 10
375.4187601100698
 20
360.875
 10
373.0
 20
363.5131381279799
 10
372.25
 20
363.6795492704338
 10
370.0
 20
361.99464183928
 10
370.1637774384113
 20
364.125
 10
366.75
 20
365.72084002947014
 10
365.1457910413896
 20
363.125
 10
362.75
 20
360.8478261428234
 10
362.88057839107455
 20
361.875
 10
364.9488656005799
 20
364.375
 10
364.75
 20
365.84838669584576
 10
358.25
 20
365.62831937186314
 10
355.0
 20
366.71221383114835
 10
348.5
 20
360.90128205128207
 10
349.6143811261028
 20
363.125
 10
351.40915626398265
 20
364.625
 10
351.4178079526363
 20
365.875
 10
349.66674084790867
 20
367.125
 10
351.75
 20
370.2910760715799
 10
352.75
 20
370.271483415091
 10
354.0
 20
371.32376438699595
 10
354.75
 20
370.0276050539672
 10
362.25
 20
367.45573353484104
 10
368.25
 20
368.45781276935014
 10
372.5
 20
368.28652956950873
 10
370.5
 20
371.4642408137144
 10
367.82750401411903
 20
373.125
 10
369.4555760700415
 20
373.625
 10
369.5
 20
376.3275777272026
 10
372.25
 20
371.01907164286695
 10
373.75
 20
370.94194949736186
 10
374.25
 20
369.76405059962343
 10
375.0
 20
369.6838616657083
 10
375.5
 20
367.7427504733202
 10
376.5
 20
367.54382290621794
 10
379.47113194471154
 20
372.375
 10
379.25
 20
376.21805086981925
 10
381.25
 20
372.8891938710105
 10
384.10514182141947
 20
372.625
 10
382.5811469540848
 20
371.375
 10
383.0
 20
370.06945165468943
 10
384.0088402737165
 20
369.625
 10
383.20438194151853
 20
368.375
 10
383.42498093394937
 20
365.625
 10
383.75
 20
365.38821617710545
 10
384.55148192591315
 20
366.375
 10
384.48736361955247
 20
365.375
 10
385.17556810463594
 20
364.875
 10
384.57289107917785
 20
363.625
 10
385.0
 20
362.8181551091849
 10
387.14949163944925
 20
363.625
 10
386.1242313698697
 20
362.125
 10
386.5302832894903
 20
361.125
 10
388.5
 20
359.8273246746918
 10
389.3414252438492
 20
357.625
 10
391.75
 20
355.39919273647405
 10
392.13208343316336
 20
356.625
 10
391.43676689240664
 20
362.625
 10
390.54757591078896
 20
363.625
 10
391.6296651565582
 20
364.375
 10
390.7301237283014
 20
365.375
 10
390.9494437669546
 20
366.375
 10
389.2071825122086
 20
366.375
 10
389.12535357584085
 20
367.125
 10
390.2243534560064
 20
368.125
 10
388.9068606921865
 20
369.125
 10
390.4673889898535
 20
369.375
 10
391.25
 20
368.1197637793993
 10
391.5
 20
369.0868114946603
 10
391.0871821954785
 20
370.375
 10
389.4265473925676
 20
371.875
 10
390.0856764737307
 20
372.875
 10
389.607387523834
 20
374.375
 10
388.0302747324175
 20
375.625
 10
389.75
 20
375.5876394953906
 10
390.5
 20
376.6383646423222
 10
390.525650363388
 20
374.625
 10
392.25
 20
371.1544481381634
 10
393.25
 20
378.40947835572064
 10
393.5
 20
372.2380659730611
 10
394.0
 20
371.88842349616476
 10
394.75
 20
372.4465251786767
 10
395.75
 20
374.9919139418126
 10
396.0
 20
373.6742611345781
 10
396.58832066576065
 20
373.375
 10
393.4920122870144
 20
368.875
 10
394.33490583352057
 20
367.875
 10
393.64074716987903
 20
366.625
 10
394.2687546100111
 20
365.125
 10
394.0536179084426
 20
361.875
 10
394.67808227472545
 20
360.875
 10
396.70175609254323
 20
365.625
 10
396.5478085766147
 20
368.625
 10
399.8323729798116
 20
373.875
 10
401.0
 20
377.31489025162756
 10
401.5
 20
376.9779943124791
 10
401.31716976881563
 20
375.875
 10
398.776479190352
 20
369.375
 10
398.6600997506235
 20
367.125
 10
401.25
 20
371.0558114266709
 10
402.5
 20
371.1170330165308
 10
403.75
 20
373.1714511866211
 10
405.0
 20
373.5860727775697
 10
405.13653928010854
 20
374.625
 10
407.61277346658915
 20
376.125
 10
407.6579134060816
 20
377.375
 10
408.3463669984476
 20
377.875
 10
408.25
 20
380.8319202355903
 10
409.5
 20
379.62146885002664
 10
410.9907047007643
 20
381.875
 10
411.64199676890837
 20
385.125
 10
413.82670709054264
 20
389.375
 10
415.02446746488454
 20
393.625
 10
416.0
 20
394.13072652154744
 10
418.75
 20
393.38363164445025
 10
421.0
 20
396.9330319654001
 10
422.0096867048058
 20
397.625
 10
421.9277974498378
 20
396.125
 10
418.38806672811114
 20
391.625
 10
415.7446898921947
 20
378.875
 10
416.9143538654847
 20
378.875
 10
415.6326129553756
 20
375.625
 10
417.16213422254475
 20
374.375
 10
417.31053487734914
 20
371.875
 10
413.4519820647049
 20
366.875
 10
414.5
 20
365.34080418063024
 10
418.15187882599423
 20
362.625
 10
418.3812393988236
 20
359.625
 10
422.5
 20
358.35975591511004
 10
423.1516971693866
 20
357.625
 10
422.836284490627
 20
356.625
 10
424.5
 20
356.30674034790843
 10
425.220623497954
 20
358.375
 10
428.21201743069315
 20
360.875
 10
427.5771289292832
 20
364.125
 10
426.0902354850691
 20
365.125
 10
424.9120958131405
 20
367.625
 10
426.5
 20
367.984326146077
 10
428.0
 20
367.4720869611337
 10
430.5
 20
367.93323276059635
 10
431.3270475128668
 20
368.625
 10
431.8947820477903
 20
369.875
 10
429.9866519578877
 20
372.875
 10
430.5
 20
373.588235631719
 10
431.25
 20
373.3669148848515
 10
433.5
 20
370.3781987650665
 10
436.25
 20
370.11698153792514
 10
436.75
 20
372.397119513916
 10
438.12865369882223
 20
373.375
 10
437.25
 20
378.0505039487736
 10
440.0
 20
379.08195628750303
 10
439.58209557708705
 20
376.875
 10
440.5
 20
376.2408676387662
 10
442.11261180889096
 20
377.375
 10
441.30733582085315
 20
379.125
 10
442.04943509999674
 20
380.375
 10
443.75
 20
380.88504518125
 10
445.25
 20
380.2370986199482
 10
446.8027116629812
 20
380.875
 10
447.2342924647769
 20
382.375
 10
447.875
 20
381.99984271991144
 10
451.375
 20
377.5
 10
453.9784756327196
 20
376.0
 10
451.0
 20
377.70957112076655
 10
447.75
 20
381.38313338302663
 10
445.5
 20
379.78462319937483
 10
443.1160533512603
 20
379.875
 10
442.41696435300634
 20
378.875
 10
442.5569778499764
 20
376.875
 10
441.75
 20
375.71027817650844
 10
440.5
 20
375.1734518422338
 10
439.25
 20
375.95030564485836
 10
438.75
 20
375.70795789491973
 10
439.23623527894773
 20
374.125
 10
438.66005127652295
 20
372.375
 10
437.5
 20
371.60222625291715
 10
437.0329854132183
 20
369.875
 10
435.5
 20
367.92799849125106
 10
434.25
 20
367.87047230231263
 10
432.75
 20
369.98129471996054
 10
431.5
 20
366.37369896419955
 10
429.5
 20
364.2534408029139
 10
428.25
 20
364.1612936498056
 10
428.6405343500164
 20
360.375
 10
425.8857806109118
 20
357.625
 10
425.04116549267013
 20
355.625
 10
426.25
 20
353.6862104121006
 10
428.0
 20
353.84132974971595
 10
429.89895468407894
 20
352.375
 10
430.4763778089562
 20
350.625
 10
429.0
 20
349.495708974634
 10
427.75
 20
349.29814014904343
 10
426.75
 20
349.8262261254436
 10
425.5
 20
353.50852049756895
 10
424.25
 20
354.0438609754368
 10
424.24000501370875
 20
355.375
 10
422.25
 20
355.7840914357514
 10
420.25
 20
357.64146831694416
 10
418.25
 20
357.5149436816268
 10
415.11377128331105
 20
363.875
 10
412.5
 20
366.5027529471005
 10
411.84127615166733
 20
365.125
 10
414.70875320924927
 20
362.625
 10
415.37699017836246
 20
359.375
 10
415.01707503302816
 20
356.125
 10
414.5
 20
355.52477540343
 10
413.25
 20
355.7167563561257
 10
412.90971285713863
 20
354.375
 10
412.25
 20
354.0289105637351
 10
408.75
 20
356.42161343035286
 10
408.5
 20
354.1838244837348
 10
406.75
 20
353.2530659861864
 10
405.75
 20
353.53978687230557
 10
405.1894555583452
 20
352.125
 10
403.5
 20
351.2026984353354
 10
403.75
 20
350.05431730886136
 10
405.9771396591505
 20
347.875
 10
405.321046417631
 20
345.625
 10
406.44372821893984
 20
344.125
 10
405.25
 20
342.9812412505059
 10
404.4598136817205
 20
343.375
 10
404.0
 20
345.30612731157674
 10
402.0
 20
345.0973917685171
 10
401.5
 20
345.903527168199
 10
400.0
 20
345.7317993168383
 10
398.5
 20
346.78951206053915
 10
398.44072792912357
 20
348.375
 10
397.3378503050576
 20
350.625
 10
397.25646639735834
 20
353.375
 10
400.2971111185241
 20
360.375
 10
407.0
 20
367.98827331148505
 10
408.19142725457067
 20
370.375
 10
405.75
 20
370.6829704110806
 10
400.0
 20
366.9570508548395
 10
398.75
 20
365.22847143127444
 10
397.75
 20
364.8478972798855
 10
395.65870051740694
 20
360.875
 10
394.5
 20
359.76002300325143
 10
393.36783016044785
 20
360.375
 10
393.0
 20
362.69003305547574
 10
392.76758580958096
 20
353.625
 10
392.0
 20
352.3521289829004
 10
391.0
 20
352.5087179664185
 10
390.25
 20
351.82571998952744
 10
389.0
 20
352.4888493903152
 10
389.142590412111
 20
353.875
 10
388.499782420218
 20
355.125
 10
384.1199514684173
 20
361.375
 10
380.6346469335754
 20
368.125
 10
379.4483440750431
 20
367.875
 10
379.25
 20
364.9281133244553
 10
374.86821052182444
 20
365.375
 10
374.9134400132659
 20
364.375
 10
375.75
 20
363.76338948888747
 10
376.75
 20
364.69200109766547
 10
377.5
 20
364.57365411970676
 10
378.40477724212457
 20
362.875
 10
378.0
 20
362.5117930624043
 10
376.75
 20
363.0311807138619
 10
376.75
 20
362.1353653031461
 10
379.6588514829662
 20
360.125
 10
383.61419410263983
 20
353.125
 10
384.56816052006326
 20
348.875
 10
384.28423396343925
 20
345.375
 10
383.54397193045565
 20
344.125
 10
386.57070794822437
 20
338.375
 10
387.65174885857596
 20
331.125
 10
387.0
 20
330.0567351970302
 10
386.03982098884984
 20
330.625
 10
385.25
 20
328.22437353710586
 10
381.25
 20
326.84993944475497
 10
378.25
 20
323.6074918420568
 10
376.75
 20
324.10936271315916
 10
376.0
 20
323.6719402722365
 10
376.0
 20
322.1522422917004
 10
373.6663454099192
 20
319.875
 10
372.25
 20
319.72661060633413
 10
372.0871830251407
 20
318.375
 10
368.5
 20
317.4521196495391
 10
367.0
 20
317.95517027979895
 10
366.0
 20
315.3034889996326
 10
363.02235791618295
 20
315.125
 10
362.0
 20
312.9544272907234
 10
358.75
 20
313.0167981868486
 10
357.0
 20
314.7849850080379
 10
355.5
 20
312.35198593690615
 10
353.75
 20
311.5184142755046
 10
351.9791633451269
 20
312.375
 10
351.0
 20
313.5931317710787
 10
351.10152814712166
 20
309.375
 10
350.25
 20
308.5714446911842
 10
346.25
 20
310.534346807161
 10
344.0
 20
313.4212482366984
 10
343.0
 20
313.28440446425884
 10
342.5
 20
314.1308801392417
 10
342.75
 20
308.37179538181374
 10
338.0
 20
308.2743575657694
 10
336.25
 20
310.2110606988152
 10
335.25
 20
307.9726274177348
 10
330.5
 20
308.8195781367026
 10
328.75
 20
305.7046395250212
 10
325.5
 20
304.7584444078645
 10
323.0
 20
305.2774182996706
 10
319.5
 20
307.5513059701493
 10
318.0
 20
306.57413819104954
 10
316.0
 20
307.73576550625154
 10
316.95030705183467
 20
303.625
 10
318.0268702370592
 20
301.625
 10
315.25
 20
300.780393614971
 10
313.0
 20
302.1100397407152
 10
309.4375146491658
 20
302.125
 10
308.37109716092795
 20
300.625
 10
308.0
 20
297.9815388355672
 10
307.0
 20
297.43601424215626
 10
304.5
 20
298.0641954798841
 10
302.70335191294134
 20
299.625
 10
302.5293018709348
 20
302.875
 10
303.32057796615675
 20
307.875
 10
302.25
 20
310.35201350500313
 10
301.3678443835161
 20
307.125
 10
301.63169069169743
 20
306.125
 10
300.5
 20
305.6655073317356
 10
300.75375307269115
 20
304.625
 10
299.8982851411045
 20
304.125
 10
299.75
 20
303.23752833254935
 10
297.25
 20
304.5166082442362
 10
297.1175219076509
 20
302.375
 10
294.96798093999746
 20
302.375
 10
296.0
 20
301.51175510705343
 10
297.5
 20
301.835767683527
 10
298.38796409120886
 20
301.125
 10
298.3361963190185
 20
298.375
 10
297.75
 20
297.5962036276645
 10
296.2071724113438
 20
297.625
 10
297.5
 20
294.52803157733774
 10
293.5
 20
294.25380563162895
 10
285.16787529796954
 20
296.125
 10
291.0
 20
292.9754162379792
 10
294.0
 20
292.318401894584
 10
295.54609293923204
 20
290.875
 10
297.01445024554664
 20
284.875
 10
296.1499555648491
 20
283.875
 10
297.746242059479
 20
279.625
 10
299.0
 20
280.0300061516414
 10
301.0
 20
279.15330700778645
 10
301.67001724695484
 20
279.875
 10
302.25783906788405
 20
279.625
 10
300.8434971245789
 20
275.375
 10
301.7168254324678
 20
273.875
 10
301.26694246390696
 20
272.875
 10
301.816352487803
 20
271.875
 10
301.25
 20
271.00782220229064
 10
298.63648485181716
 20
271.375
 10
299.2264595366834
 20
270.125
 10
301.58135816936635
 20
268.125
 10
301.8819592644377
 20
266.875
 10
301.25
 20
266.6729789603374
 10
299.5
 20
268.2557617642491
 10
298.25
 20
268.53596548972666
 10
298.5
 20
266.60804655600685
 10
296.17162672070435
 20
266.375
 10
295.8431655108229
 20
265.625
 10
296.75
 20
265.1104965738141
 10
298.75
 20
265.40021264805637
 10
299.75
 20
263.52757224761757
 10
301.0
 20
264.0462891511575
 10
303.0
 20
263.2087450788248
 10
304.7650574389373
 20
261.375
 10
302.71051756375283
 20
255.125
 10
305.21210183208365
 20
251.375
 10
304.5
 20
247.33476655181047
 10
302.25
 20
248.0670186514423
 10
298.75
 20
251.81251081898768
 10
295.4992469362044
 20
253.125
 10
297.3154016955996
 20
249.375
 10
301.5683881214533
 20
244.625
 10
298.5
 20
243.8312080886001
 10
298.18452803066606
 20
242.875
 10
300.75
 20
241.65261789787738
 10
302.25
 20
242.1170903214037
 10
304.75
 20
238.06833242752506
 10
306.21046066474776
 20
237.125
 10
306.25
 20
235.32879531262674
 10
304.358788930672
 20
234.375
 10
306.43207101015713
 20
232.125
 10
306.53101496092535
 20
231.125
 10
305.63699658282593
 20
230.125
 10
306.4844044561746
 20
227.875
 10
305.5
 20
227.39283653846152
 10
305.54900360762747
 20
225.125
 10
301.75
 20
221.55096394890774
 10
297.75
 20
223.07140615848044
 10
297.0
 20
222.43372703412078
 10
295.25
 20
222.56440626129506
 10
294.15177982619406
 20
221.375
 10
293.93343424312326
 20
219.375
 10
295.34110884618843
 20
217.625
 10
294.5
 20
216.49296891987387
 10
293.25
 20
216.53721045341953
 10
291.25
 20
218.3048972226314
 10
291.23248601911064
 20
219.375
 10
292.61564035522696
 20
220.125
 10
288.3376309581187
 20
225.375
 10
287.5
 20
227.24487092156002
 10
285.2212219144353
 20
228.375
 10
283.43679628663034
 20
230.375
 10
283.5
 20
231.84977304710137
 10
285.5
 20
231.43577038500257
 10
286.2632153521143
 20
229.375
 10
288.25
 20
227.82853266044563
 10
286.0897299218194
 20
231.375
 10
286.9468405658237
 20
234.625
 10
285.96987808927474
 20
238.375
 10
286.2487238907666
 20
241.125
 10
284.63876394619024
 20
243.375
 10
284.85482034531026
 20
245.375
 10
285.5
 20
245.55232779971885
 10
287.861571587716
 20
244.125
 10
284.37814218381766
 20
247.625
 10
284.75
 20
248.37177863987785
 10
286.1508399307624
 20
247.875
 10
285.22595591515835
 20
251.625
 10
283.779002248714
 20
252.125
 10
282.6794407447335
 20
253.875
 10
280.06115195415975
 20
255.875
 10
280.15237342382295
 20
256.875
 10
281.29854999195715
 20
258.125
 10
280.4958823765718
 20
259.625
 10
282.0
 20
259.116901619676
 10
282.459903321765
 20
260.375
 10
279.5
 20
266.8481010324484
 10
278.0
 20
268.9427964929749
 10
276.75
 20
268.7326639817865
 10
277.25
 20
269.732600018352
 10
275.25
 20
269.4837796381777
 10
274.33549090034046
 20
270.375
 10
274.43704281258863
 20
271.375
 10
273.0
 20
271.77949034556343
 10
270.75
 20
269.60847353693083
 10
269.0
 20
271.0120773501995
 10
265.5
 20
269.85672124904795
 10
264.4502285249671
 20
271.375
 10
264.1116698047033
 20
274.375
 10
261.18916562215554
 20
277.375
 10
261.22283648883877
 20
278.125
 10
262.0
 20
278.61736706783074
 10
265.0
 20
277.99445449963343
 10
266.23657820943754
 20
278.375
 10
264.5
 20
279.0669388643472
 10
263.04044779188735
 20
280.875
 10
264.09123460668945
 20
283.125
 10
263.5198175531398
 20
287.875
 10
264.31140808078464
 20
291.125
 10
262.5
 20
291.73411730545877
 10
261.7414866474058
 20
292.625
 10
261.17954047746093
 20
297.625
 10
261.75
 20
298.7096305979653
 10
264.5
 20
300.20539654904746
 10
265.0
 20
301.28718639167687
 10
268.54546433149096
 20
303.125
 10
268.75
 20
303.903886751109
 10
265.5
 20
305.41989259115394
 10
264.4486642475943
 20
306.625
 10
264.75
 20
307.4380274052186
 10
266.5
 20
307.2714355555771
 10
266.75
 20
307.7798587691594
 10
262.0
 20
310.66120572078046
 10
259.5
 20
313.1046582708195
 10
253.75
 20
315.93285052689396
 10
253.0
 20
315.4753679701459
 10
251.5
 20
315.90056163463805
 10
249.80105117729562
 20
315.125
 10
248.14801107141213
 20
312.875
 10
247.06177735202772
 20
309.625
 10
245.0
 20
308.9245817776107
 10
244.21567083977723
 20
309.875
 10
244.16037978195877
 20
312.625
 10
243.5
 20
313.69327150187326
 10
238.0
 20
317.3073718494587
 10
237.75
 20
315.9603969425408
 10
233.2995621659403
 20
314.875
 10
232.25
 20
313.38727330760065
 10
234.75
 20
313.07492928379526
 10
235.75
 20
314.46450821069664
 10
238.25
 20
314.3823817710973
 10
244.0352917382503
 20
308.875
 10
245.75
 20
308.37185984318637
 10
247.5
 20
309.00358869973496
 10
249.25
 20
312.66173667639436
 10
251.25
 20
313.27624281997987
 10
254.48410818736338
 20
310.375
 10
257.6067840371629
 20
305.375
 10
257.0949256716315
 20
299.875
 10
255.74029677455243
 20
298.125
 10
254.0
 20
298.1263076938835
 10
252.9739089872403
 20
297.125
 10
252.72001472882263
 20
295.875
 10
255.15830300538906
 20
291.625
 10
254.1232117131613
 20
290.375
 10
254.0
 20
288.7412741777809
 10
252.25812317967961
 20
287.375
 10
253.5722627094835
 20
282.875
 10
253.2779816254934
 20
280.375
 10
254.80401701105504
 20
277.375
 10
253.25
 20
277.24578103926035
 10
250.0
 20
274.02500276681303
 10
247.71631701631705
 20
274.125
 10
249.0
 20
273.00611786273146
 10
250.25
 20
273.5138973271779
 10
252.25
 20
273.224735954282
 10
253.37652751366772
 20
272.125
 10
253.53981563351908
 20
270.375
 10
251.0
 20
268.7865201219539
 10
246.40091258482937
 20
268.625
 10
244.61935263717675
 20
265.875
 10
246.74300049608644
 20
262.125
 10
246.25
 20
260.78292204920433
 10
244.15681998853492
 20
262.625
 10
242.75
 20
266.41639930196135
 10
240.75
 20
266.67262258960466
 10
239.0
 20
267.7316607134794
 10
237.06026868905744
 20
265.875
 10
236.9046667217312
 20
264.125
 10
237.84664926952007
 20
261.625
 10
239.0
 20
260.8451477543198
 10
242.0
 20
260.9212663007384
 10
243.25163509323588
 20
259.625
 10
244.29943985659966
 20
254.625
 10
244.0
 20
252.6329545603238
 10
242.25
 20
252.6313430819121
 10
239.16442938025367
 20
255.125
 10
237.75571903123975
 20
256.875
 10
236.75
 20
259.64545395498243
 10
234.57455029959394
 20
261.625
 10
232.75
 20
261.72350125728656
 10
231.25
 20
264.70572786139076
 10
230.97352242526307
 20
263.125
 10
231.44549330791483
 20
261.625
 10
237.79694456252315
 20
251.625
 10
238.07173129352788
 20
250.875
 10
237.4785299931944
 20
250.875
 10
226.36154965242838
 20
264.875
 10
222.0
 20
269.4495391670198
 10
227.08998636784986
 20
262.375
 10
229.61173485392786
 20
257.875
 10
230.07667632321676
 20
255.625
 10
231.95746477077356
 20
254.625
 10
233.92845401128545
 20
251.875
 10
235.48231153285062
 20
248.875
 10
236.27897779863213
 20
245.875
 10
236.0
 20
245.087731394914
 10
235.0
 20
244.9295026264461
 10
231.0
 20
247.42630000565833
 10
230.83921114133554
 20
251.625
 10
230.0
 20
253.8028646253022
 10
228.0
 20
254.23835287915028
 10
226.0
 20
255.7996344951796
 10
225.75
 20
252.5203057187708
 10
223.75
 20
251.92347934403597
 10
223.24123019637238
 20
250.875
 10
221.25
 20
249.91804781090994
 10
220.0
 20
249.8564336475898
 10
219.25
 20
248.7291398353042
 10
217.75
 20
249.8054777435546
 10
216.75
 20
248.27363130298284
 10
214.0
 20
247.5695006839647
 10
212.87090458537358
 20
248.625
 10
212.83761086183983
 20
250.625
 10
212.26473814275755
 20
250.625
 10
211.77729132076166
 20
248.625
 10
212.8190905294514
 20
246.875
 10
212.2695609826839
 20
244.875
 10
210.0
 20
244.02636432541686
 10
207.00828105989586
 20
247.875
 10
202.25
 20
251.22206950580784
 10
199.25
 20
254.55036908817817
 10
196.75
 20
256.2636542729043
 10
197.35439262061007
 20
254.875
 10
196.83105812487054
 20
253.625
 10
198.22356438737688
 20
251.625
 10
197.62088755137475
 20
248.125
 10
195.5
 20
247.01882613560747
 10
192.81283279546932
 20
246.625
 10
191.5
 20
244.95626899346163
 10
188.75
 20
246.23105912710685
 10
185.30641529376618
 20
244.875
 10
185.25
 20
242.71677391971085
 10
183.79222458512942
 20
239.125
 10
185.5
 20
236.22592014282816
 10
187.0
 20
239.61941087910574
 10
189.0
 20
239.4688216680243
 10
190.75
 20
238.4116951633285
 10
193.0
 20
238.4276822193203
 10
194.0
 20
238.65230563470658
 10
197.0
 20
241.65452222377297
 10
198.5
 20
241.95282820291445
 10
199.59859921391484
 20
241.125
 10
201.1358780288368
 20
238.875
 10
201.56495592876803
 20
235.875
 10
207.78559727091414
 20
224.625
 10
208.75
 20
219.86540067902567
 10
212.0
 20
216.09420186030582
 10
212.80747813697195
 20
212.375
 10
214.0
 20
211.73511484689556
 10
215.02706877329388
 20
209.625
 10
217.51492623268382
 20
200.125
 10
216.46185650929098
 20
198.375
 10
214.75
 20
198.6320015667842
 10
212.3622090236533
 20
202.875
 10
209.8890031575202
 20
209.625
 10
208.53039424549974
 20
211.625
 10
207.5
 20
215.43499790400338
 10
206.0
 20
217.93501791890657
 10
205.55412822144456
 20
216.875
 10
203.75
 20
217.30595856524428
 10
202.3926089373827
 20
216.625
 10
202.4518160717314
 20
214.375
 10
204.18549189650267
 20
211.875
 10
204.76648779876018
 20
209.625
 10
206.29552967478125
 20
208.375
 10
207.0
 20
206.75310055160975
 10
209.36051434521693
 20
206.625
 10
211.3008815747127
 20
201.875
 10
212.87356859245278
 20
199.875
 10
213.0
 20
198.50096030526595
 10
211.5
 20
199.12842122681167
 10
211.61196003683634
 20
197.125
 10
208.5
 20
196.6132849291439
 10
207.5
 20
197.82175267206753
 10
206.0
 20
197.59641666447192
 10
204.5
 20
199.16072223655783
 10
203.25
 20
199.13611243718788
 10
199.0
 20
201.80037698490932
 10
198.6136995057239
 20
202.625
 10
199.0
 20
204.5012582253346
 10
195.13695743571478
 20
205.875
 10
196.13143927567907
 20
211.875
 10
194.25
 20
213.45301354475842
 10
193.44187426360978
 20
215.625
 10
194.70074923066167
 20
221.125
 10
196.17519866653544
 20
221.375
 10
197.4444763959922
 20
223.125
 10
197.98498309995165
 20
225.875
 10
195.25
 20
226.1751801968916
 10
194.25
 20
224.80818949790108
 10
190.0
 20
227.36242307274733
 10
189.0005343253297
 20
226.625
 10
189.37729328093073
 20
223.125
 10
191.0
 20
220.8171439516296
 10
191.1606375726359
 20
218.625
 10
194.0435634919717
 20
210.125
 10
194.0
 20
209.07963066688006
 10
192.25
 20
209.0453797213503
 10
191.3950124333147
 20
209.625
 10
187.75
 20
215.68135188909332
 10
186.6924918635569
 20
218.625
 10
187.6762058030551
 20
222.875
 10
187.28692032049725
 20
225.125
 10
184.71029336474882
 20
228.125
 10
182.0
 20
228.1911170069706
 10
179.75
 20
229.0758109197723
 10
177.75
 20
232.41785499200756
 10
174.0
 20
223.7237331507352
 10
170.75
 20
222.73341359704688
 10
168.25
 20
221.42440208836564
 10
167.0
 20
219.9781633343744
 10
164.25
 20
218.759533207717
 10
157.0
 20
212.17487141807493
 10
153.25
 20
212.02867189903583
 10
150.5616086202329
 20
211.125
 10
147.0
 20
206.17782076341484
 10
145.75
 20
205.58139616619394
 10
143.0
 20
205.76239636884455
 10
140.0
 20
203.31306726718884
 10
138.75
 20
203.52628683073937
 10
137.75
 20
204.72552263160384
 10
137.11377374304843
 20
201.875
 10
135.5
 20
201.28107784175728
 10
134.46676491343732
 20
202.125
 10
134.40327441464086
 20
203.625
 10
135.64962618340587
 20
206.875
 10
137.56141140969947
 20
208.375
 10
135.62046039595873
 20
209.875
 10
134.9251654014571
 20
211.875
 10
130.5
 20
212.2090089962657
 10
127.5
 20
211.25202544454768
 10
126.0
 20
211.57583412285243
 10
127.32971547413524
 20
203.125
 10
127.09290386098444
 20
201.625
 10
125.5
 20
199.009456206723
 10
122.5
 20
198.5906155089387
 10
118.25
 20
201.22691376618462
 10
115.25
 20
199.10488396121443
 10
113.5
 20
205.02329926423374
 10
112.5
 20
201.24875453550652
 10
111.33921639079962
 20
201.375
 10
111.10192116467945
 20
196.375
 10
110.5
 20
194.69641096406855
 10
109.75
 20
194.38835566823616
 10
108.15545523087476
 20
197.125
 10
107.17688882285194
 20
211.375
 10
105.61035420336644
 20
219.875
 10
103.14728389142942
 20
224.375
 10
100.32990717734752
 20
223.625
 10
100.25
 20
223.11551913609784
 10
102.82548843868048
 20
223.125
 10
103.59211410815583
 20
220.875
 10
106.29402218576952
 20
201.875
 10
105.87311990774725
 20
191.875
 10
106.82524513623525
 20
184.375
 10
106.80813289913198
 20
178.625
 10
107.84655293584987
 20
172.375
 10
109.87453701514652
 20
170.125
 10
108.64147616516043
 20
168.875
 10
111.41535568463901
 20
168.125
 10
112.0
 20
164.3096787716594
 10
113.25
 20
167.82511269986617
 10
115.0
 20
168.0312784856281
 10
116.75
 20
167.10108564912002
 10
117.38307516980963
 20
167.625
 10
117.68453204241587
 20
168.875
 10
116.9104656424179
 20
171.875
 10
117.5
 20
173.32553011274024
 10
118.13777005546697
 20
172.875
 10
118.5
 20
169.5443531093638
 10
119.74849465295277
 20
170.625
 10
118.93404586349183
 20
171.375
 10
119.5
 20
172.3719961283432
 10
120.75
 20
171.08830691258288
 10
121.25
 20
171.39172521261423
 10
120.81864109802397
 20
187.125
 10
122.25
 20
192.20803523296752
 10
124.75
 20
192.71922251264243
 10
126.60818883892266
 20
189.625
 10
129.3622236913361
 20
179.125
 10
129.35226867037056
 20
176.125
 10
130.52903364592302
 20
174.625
 10
129.5
 20
174.38852204272723
 10
129.27144926724804
 20
173.375
 10
129.75
 20
172.46838840928973
 10
130.5
 20
172.48864052147215
 10
131.22735929868043
 20
173.375
 10
131.24908530165303
 20
174.875
 10
132.5
 20
176.0420307047275
 10
134.0
 20
175.54537534108437
 10
135.04149781163886
 20
176.375
 10
136.5
 20
176.26397619264523
 10
138.0261627385699
 20
178.125
 10
138.21655773811392
 20
180.875
 10
140.0
 20
182.33776559712783
 10
141.0
 20
184.71412304889458
 10
142.74311029390222
 20
185.875
 10
145.53806351849647
 20
181.125
 10
145.16284528015473
 20
179.625
 10
146.0
 20
178.93583526300472
 10
146.1598425494542
 20
186.625
 10
145.19397924124405
 20
190.625
 10
146.72746019724383
 20
195.625
 10
147.75
 20
195.87966592250626
 10
149.5
 20
194.0184842118985
 10
149.4631836066784
 20
198.875
 10
150.75
 20
198.28003853369597
 10
151.75
 20
199.2004042878566
 10
154.0
 20
198.23294102844886
 10
157.12771166401066
 20
194.625
 10
156.36846112079337
 20
198.375
 10
156.5
 20
201.58228375854014
 10
157.5
 20
201.9317180416219
 10
158.25
 20
203.12101380957688
 10
158.75
 20
202.96885546952552
 10
162.5
 20
198.52926349675536
 10
162.87702092802235
 20
199.625
 10
161.31742515140212
 20
202.625
 10
161.29063230327225
 20
204.125
 10
163.5
 20
205.4497185261003
 10
163.95700496550114
 20
206.875
 10
164.75
 20
207.37762100851052
 10
166.75
 20
205.27707705709412
 10
167.5233560955642
 20
207.875
 10
169.5
 20
210.31998685999406
 10
172.5
 20
210.26539267222233
 10
173.25
 20
209.24219993997548
 10
174.5
 20
209.68395933608372
 10
175.25
 20
209.2510037927563
 10
176.25
 20
211.32272808053477
 10
179.6677587643694
 20
209.125
 10
182.5
 20
205.1395516390021
 10
184.26295610853447
 20
205.125
 10
185.75
 20
201.05936456598693
 10
186.29364447475527
 20
201.875
 10
185.04500074057876
 20
205.125
 10
187.0
 20
207.4471277886825
 10
188.75
 20
206.5701260047597
 10
189.75
 20
207.00638119070743
 10
192.0
 20
206.2024952684165
 10
193.75
 20
206.5051519322812
 10
194.72254356738551
 20
203.375
 10
195.75
 20
203.68449618763037
 10
196.42209231957096
 20
202.625
 10
196.75
 20
200.61619634737423
 10
198.0
 20
200.61053518665557
 10
201.25
 20
198.97430760675013
 10
204.75
 20
196.31408018658396
 10
207.5
 20
195.1302483143903
 10
208.02667553488527
 20
193.875
 10
206.75
 20
192.42846500848407
 10
205.9440644470954
 20
190.125
 10
206.0
 20
188.3312654354129
 10
205.0
 20
189.43353038460185
 10
204.25
 20
187.5956970354967
 10
203.0
 20
187.13315372313252
 10
201.99468236087216
 20
190.375
 10
200.20028874731182
 20
191.375
 10
203.13670723961644
 20
182.375
 10
198.75
 20
184.0152299727211
 10
197.25
 20
185.72379260744486
 10
196.0
 20
183.512082964466
 10
194.3857419134424
 20
184.875
 10
194.89844779864768
 20
183.125
 10
193.5230887150662
 20
181.625
 10
193.0
 20
178.93722136384855
 10
189.0
 20
180.05545743520292
 10
186.7414242572108
 20
178.875
 10
186.75
 20
178.3436806641352
 10
187.75
 20
179.22243765846895
 10
189.5
 20
178.777902826371
 10
190.5
 20
177.8280311255881
 10
192.25
 20
178.23735781975427
 10
193.5
 20
177.8650593804395
 10
194.79652680122248
 20
180.875
 10
197.5
 20
182.75039757529203
 10
199.0
 20
182.7517367213115
 10
202.75
 20
180.84505360161256
 10
203.58148618770076
 20
177.125
 10
202.04051697755094
 20
175.875
 10
201.75
 20
174.1036083154797
 10
200.20273814460728
 20
172.875
 10
201.29181295865425
 20
172.125
 10
202.02870464800392
 20
169.875
 10
200.4119029518884
 20
167.875
 10
200.7312208782416
 20
166.875
 10
197.25
 20
166.0975761034411
 10
196.1158719926672
 20
164.875
 10
196.44483797566778
 20
162.875
 10
192.75
 20
162.30997045301498
 10
192.02312703527616
 20
161.375
 10
191.8374793115611
 20
159.625
 10
190.75
 20
158.81453783880968
 10
189.25
 20
159.19319206788185
 10
185.75
 20
158.27460246835545
 10
184.5
 20
160.93772244943074
 10
183.6029278345171
 20
156.375
 10
184.3885814819925
 20
155.125
 10
183.75
 20
154.537161093912
 10
180.75
 20
155.37163283420813
 10
180.0651933479458
 20
157.625
 10
180.29306294745848
 20
161.125
 10
179.25
 20
161.89616369469985
 10
179.54745984983515
 20
154.875
 10
178.54934713362204
 20
155.125
 10
177.82635028449167
 20
158.875
 10
176.75
 20
159.64950680003165
 10
177.40383784697437
 20
158.625
 10
177.39969896450313
 20
155.625
 10
177.9407111596514
 20
154.625
 10
175.9885920474096
 20
153.875
 10
174.75
 20
156.54412758580162
 10
174.6615552132984
 20
153.625
 10
173.0
 20
152.23568241254355
 10
168.75
 20
154.13810150806373
 10
165.25
 20
154.9117746527217
 10
163.0
 20
159.97736886632822
 10
164.2484072417966
 20
153.375
 10
165.0
 20
152.79395782352094
 10
167.5
 20
153.70690530128314
 10
171.25
 20
151.25943044968292
 10
175.0
 20
150.6656716030376
 10
177.75
 20
153.05201614499617
 10
181.92981425495051
 20
153.125
 10
184.1697612955099
 20
147.875
 10
182.1050457200458
 20
143.625
 10
182.25
 20
141.27913957298654
 10
183.09140940867854
 20
144.125
 10
184.08745596467926
 20
144.875
 10
184.17655012457715
 20
146.375
 10
186.48312949555705
 20
148.875
 10
186.0
 20
152.03884937948936
 10
187.25
 20
153.63547278029432
 10
189.0
 20
153.79821075777699
 10
188.95988738516252
 20
156.875
 10
191.75
 20
157.05122182310635
 10
193.25
 20
158.30253925024033
 10
194.5
 20
160.93517782004102
 10
198.5
 20
160.8916826302513
 10
198.77392612380126
 20
163.625
 10
202.00309043429908
 20
165.625
 10
204.4783636560793
 20
168.625
 10
203.96985870812415
 20
174.625
 10
205.5
 20
175.07015066653491
 10
206.0
 20
176.18666207103945
 10
208.07719244612497
 20
177.375
 10
206.7925592684981
 20
179.625
 10
206.17500100450545
 20
185.125
 10
207.5
 20
186.2525547729227
 10
208.6246300300737
 20
189.125
 10
209.75
 20
189.92123614894638
 10
211.5
 20
192.75016536276655
 10
215.0
 20
195.63864191346818
 10
216.72545032164314
 20
195.375
 10
218.73907290981734
 20
191.625
 10
219.56388324188475
 20
187.375
 10
219.0
 20
185.75762444194433
 10
217.44006589881633
 20
186.125
 10
218.83803602472472
 20
184.125
 10
219.0
 20
180.96051891201097
 10
217.5
 20
180.23393889518962
 10
216.5
 20
180.4368602300013
 10
217.3470507399405
 20
179.125
 10
217.0445415133735
 20
177.625
 10
215.32713128923672
 20
177.625
 10
216.35976809674142
 20
176.625
 10
216.5
 20
175.30103898135064
 10
218.3706906157306
 20
179.125
 10
219.0
 20
179.53216243875073
 10
219.53739700664
 20
179.125
 10
219.25
 20
171.9334615803172
 10
218.25
 20
169.6059525424879
 10
216.97265354453853
 20
169.875
 10
217.1830500671398
 20
167.875
 10
220.25
 20
168.96101308067324
 10
222.65465592130715
 20
165.875
 10
222.51058906768088
 20
164.875
 10
220.96557648222708
 20
163.375
 10
221.02513574981387
 20
160.875
 10
222.03610597712617
 20
158.625
 10
221.87185169785167
 20
156.125
 10
223.49181092875835
 20
155.125
 10
222.0
 20
154.86289369815742
 10
220.5
 20
156.44765882629375
 10
218.5
 20
156.20127773810384
 10
217.25
 20
155.0411666983984
 10
214.75
 20
156.2394388369329
 10
210.19103499951657
 20
156.875
 10
210.75
 20
155.72710132149933
 10
213.25
 20
156.06393792377833
 10
216.26668894410543
 20
153.875
 10
215.70520675417944
 20
153.125
 10
216.04554074512725
 20
150.375
 10
214.5
 20
148.77861197869552
 10
212.4257880876161
 20
148.625
 10
214.25
 20
146.98550505050505
 10
214.5
 20
143.2912883233803
 10
214.25
 20
142.84608026450945
 10
213.25
 20
143.04032395351192
 10
213.25
 20
142.27690739512593
 10
215.8222143599929
 20
141.875
 10
215.4450566332983
 20
145.875
 10
216.1751224083507
 20
148.625
 10
217.56809216019627
 20
148.625
 10
218.25
 20
146.84158347761132
 10
218.75766877199115
 20
147.375
 10
218.8501641361179
 20
149.625
 10
220.5
 20
152.0887252447304
 10
227.75
 20
154.5795444485081
 10
228.10740568648092
 20
153.875
 10
227.5819175081132
 20
150.125
 10
226.19559665914997
 20
143.875
 10
226.84843739289977
 20
137.125
 10
224.54445773364696
 20
137.375
 10
226.38287913224195
 20
135.625
 10
226.0936700998716
 20
134.625
 10
230.38990453972306
 20
127.375
 10
232.25
 20
126.04593359523098
 10
234.0
 20
126.84515637148078
 10
234.59822799557284
 20
126.375
 10
232.25
 20
123.81789950774214
 10
230.75
 20
125.34499873944279
 10
231.3537577717374
 20
123.625
 10
231.25
 20
120.97283036888926
 10
227.97089205524327
 20
126.375
 10
228.04584421886736
 20
124.625
 10
228.9716346847223
 20
122.875
 10
228.291062042558
 20
121.875
 10
229.52853165313067
 20
120.875
 10
229.75
 20
119.80756009978464
 10
227.0
 20
120.72877176538576
 10
224.75
 20
123.63289462720975
 10
224.94769419978198
 20
121.875
 10
228.20013963301736
 20
118.625
 10
227.25
 20
117.28328617849743
 10
223.5
 20
121.12516646352475
 10
222.5
 20
120.88443350179924
 10
221.25
 20
122.49337110675557
 10
220.25
 20
122.54502488752752
 10
221.0
 20
120.97895300765376
 10
222.25
 20
120.52773797587696
 10
225.4564227461341
 20
116.875
 10
224.25
 20
115.9712296541506
 10
222.75
 20
116.51975117434817
 10
222.5270143180684
 20
114.875
 10
220.25
 20
113.9561998845791
 10
217.25
 20
115.06895177210193
 10
218.88197144715534
 20
112.375
 10
217.25
 20
111.11286374109314
 10
216.0
 20
111.51431221483107
 10
214.25
 20
109.11188046647224
 10
215.8633961688939
 20
105.625
 10
214.41444581280788
 20
105.875
 10
214.20031515904284
 20
104.375
 10
215.0
 20
103.24379811804957
 10
216.25
 20
102.76131713554985
 10
217.0
 20
101.31266223562142
 10
220.06181811656617
 20
100.375
 10
220.5041499226105
 20
99.375
 10
215.5
 20
98.72859463176364
 10
213.75
 20
100.79862590189371
 10
210.25
 20
100.83583674592018
 10
210.37731783958688
 20
108.125
 10
208.5
 20
113.51475531121432
 10
207.25
 20
110.66915425296803
 10
206.2095611224391
 20
111.625
 10
206.34019278641406
 20
110.375
 10
208.2100731172073
 20
107.375
 10
207.38758365745122
 20
105.875
 10
207.64911197094364
 20
102.625
 10
207.00567033534986
 20
101.375
 10
207.93968100684498
 20
98.125
 10
207.0
 20
96.50902938007226
 10
205.0
 20
95.83011494531303
 10
203.6671494732435
 20
96.125
 10
202.75
 20
97.3490787180955
 10
200.0
 20
98.2040567930892
 10
196.75
 20
98.13770827069453
  0
LWPOLYLINE
  5
3B
330
17
100
AcDbEntity
  8
BAND_03
100
AcDbPolyline
 90
6
 70
1
 10
427.25
 20
349.8432182261955
 10
428.5
 20
349.6887143762667
 10
430.02250624668693
 20
350.625
 10
429.5860828240805
 20
352.125
 10
428.25
 20
353.0797097725816
 10
426.4747687634144
 20
352.625
  0
LWPOLYLINE
  5
3C
330
17
100
AcDbEntity
  8
BAND_03
100
AcDbPolyline
 90
31
 70
1
 10
402.82920970051794
 20
356.875
 10
403.25
 20
359.3702972865941
 10
405.6877886124612
 20
358.375
 10
406.75
 20
356.2840736318152
 10
407.87215921477576
 20
356.875
 10
407.42008905883205
 20
359.875
 10
406.29925963538074
 20
361.375
 10
406.8046864718406
 20
362.625
 10
408.75
 20
364.4494498480243
 10
410.7166990887047
 20
361.125
 10
409.3493650385819
 20
359.375
 10
409.9357964674509
 20
356.875
 10
411.0
 20
355.80419757553824
 10
413.25
 20
357.4627803889349
 10
414.25
 20
357.31865962621265
 10
414.8764331091789
 20
359.375
 10
413.96110430149395
 20
360.875
 10
414.08732224389075
 20
362.625
 10
412.5
 20
361.7939942840008
 10
411.64758792488954
 20
363.375
 10
409.48893391160993
 20
364.875
 10
409.764555064867
 20
366.125
 10
411.6445415750574
 20
366.875
 10
411.5
 20
370.80817256609515
 10
410.0
 20
370.04113469063935
 10
400.8686400608906
 20
360.125
 10
398.4333549812257
 20
354.625
 10
400.5
 20
350.2592048791507
 10
401.82724489555767
 20
353.375
 10
400.6033490477088
 20
355.625
 10
403.25
 20
355.0520572203113
  0
LWPOLYLINE
  5
3D
330
17
100
AcDbEntity
  8
BAND_03
100
AcDbPolyline
 90
32
 70
1
 10
300.0
 20
260.54336100698515
 10
299.25
 20
258.64509102136026
 10
298.75
 20
258.5934788757026
 10
297.25
 20
261.214801833227
 10
296.25
 20
260.6595284858216
 10
292.5
 20
262.5751319294101
 10
291.0
 20
262.4544543213081
 10
289.92681182991015
 20
263.625
 10
290.31708257812846
 20
264.375
 10
288.982462619751
 20
265.875
 10
290.19441451093485
 20
266.375
 10
289.1234649207019
 20
267.125
 10
288.9498757618639
 20
268.125
 10
289.8641036122716
 20
270.375
 10
292.0823281753775
 20
272.375
 10
291.8002976931988
 20
272.875
 10
289.75
 20
273.1161681119559
 10
284.75
 20
271.19735863523545
 10
282.3667514172689
 20
270.875
 10
282.28450848852333
 20
268.625
 10
284.75
 20
265.58252772075355
 10
288.0
 20
263.5915543639154
 10
292.75
 20
259.5226775403626
 10
294.5
 20
259.1452849137638
 10
295.7945699248945
 20
257.625
 10
295.4425487713604
 20
256.375
 10
296.5
 20
254.9072335187858
 10
298.75
 20
254.36606214800574
 10
300.4203427522022
 20
254.875
 10
299.6076061728152
 20
256.375
 10
300.87966727364505
 20
257.375
 10
301.25
 20
259.93673288837124
  0
LWPOLYLINE
  5
3E
330
17
100
AcDbEntity
  8
BAND_03
100
AcDbPolyline
 90
404
 70
1
 10
125.42876986738655
 20
209.375
 10
124.31639855308458
 20
212.875
 10
122.99978959660191
 20
215.625
 10
122.68590926038578
 20
218.625
 10
124.16878902066959
 20
217.375
 10
124.31327489139291
 20
215.375
 10
125.19803839259373
 20
213.875
 10
127.0
 20
213.0942683789006
 10
128.4565510065786
 20
214.375
 10
129.0
 20
215.90426787795485
 10
132.25
 20
216.0705842851835
 10
133.5
 20
215.59564179700862
 10
135.0
 20
216.75080685070034
 10
137.25
 20
215.8348169686469
 10
140.5
 20
217.79904854617092
 10
141.5
 20
217.76952804935073
 10
141.8121626952208
 20
217.125
 10
139.2407014976485
 20
214.875
 10
136.21026137201
 20
210.375
 10
136.75
 20
209.92758635386798
 10
138.50748331127932
 20
210.125
 10
140.0
 20
209.0225995393767
 10
140.45972437789317
 20
209.375
 10
140.5
 20
212.23246004817184
 10
145.5
 20
211.97931888393077
 10
146.56206053570855
 20
211.375
 10
146.6713381506421
 20
210.625
 10
144.79786351163347
 20
207.125
 10
146.0
 20
206.25112920949613
 10
148.53907337395475
 20
208.875
 10
148.5003174429276
 20
211.625
 10
150.5
 20
214.0976027691902
 10
152.0
 20
213.35713206807185
 10
153.5
 20
214.17544898311803
 10
155.5
 20
213.1342639833919
 10
156.75
 20
213.21409291393618
 10
159.25
 20
216.2175996300933
 10
160.75
 20
216.70086796089475
 10
160.9627128608178
 20
218.375
 10
166.25
 20
220.72219467091938
 10
171.25
 20
223.94547273180223
 10
173.99222795336286
 20
224.375
 10
175.2723715811281
 20
227.625
 10
175.07244291292864
 20
229.125
 10
177.75033073140168
 20
235.375
 10
176.5658359166386
 20
236.625
 10
177.12452503371262
 20
239.125
 10
176.25
 20
239.8344739111502
 10
174.91404282338
 20
239.875
 10
178.56403649376554
 20
241.125
 10
181.3178280960057
 20
246.125
 10
182.75
 20
246.32710909262437
 10
184.0
 20
245.50954618426272
 10
187.5
 20
248.05078336085973
 10
189.25
 20
248.5858944299238
 10
191.0
 20
247.57360146655228
 10
196.75
 20
248.17099721563565
 10
196.72478622351798
 20
249.875
 10
195.70029715710564
 20
251.375
 10
196.0677696430676
 20
252.625
 10
194.5388608914189
 20
254.875
 10
193.25
 20
254.91455365899222
 10
192.66929839877844
 20
255.875
 10
192.75
 20
256.8987201200039
 10
193.7218617743129
 20
257.375
 10
193.18565477996773
 20
259.125
 10
191.55963270084163
 20
260.375
 10
188.76206943585038
 20
263.625
 10
188.5
 20
264.9552604897832
 10
187.11689700264088
 20
266.125
 10
187.5
 20
267.8093861187797
 10
199.25
 20
258.2041026568179
 10
200.1595617583969
 20
258.625
 10
200.0
 20
260.6294072462201
 10
204.5
 20
262.2849425309548
 10
205.75
 20
263.8781778749048
 10
207.75
 20
264.48817717629606
 10
211.5
 20
271.41948642240834
 10
213.25
 20
270.8853050693292
 10
214.52691383907666
 20
269.125
 10
213.76798074754876
 20
267.125
 10
214.41186512130534
 20
261.875
 10
216.0
 20
261.5101990509906
 10
218.25
 20
258.8666530388511
 10
219.25
 20
259.92677683266453
 10
219.63199969772796
 20
258.875
 10
218.44500707823667
 20
257.625
 10
217.5386812425831
 20
255.125
 10
215.70975445710553
 20
253.625
 10
215.68421581424911
 20
251.875
 10
213.7581098825077
 20
249.375
 10
214.25
 20
248.36291814390594
 10
216.3866383562819
 20
249.125
 10
216.8091989665497
 20
251.625
 10
218.75
 20
250.6099900401611
 10
221.25
 20
250.87266479327553
 10
222.4281743519297
 20
251.625
 10
222.25
 20
252.72850800466955
 10
223.04221089978552
 20
253.625
 10
222.0
 20
259.42739753503696
 10
224.25
 20
259.74352834287146
 10
226.0
 20
258.50027657403587
 10
226.68451651924093
 20
258.625
 10
224.90852814999897
 20
263.125
 10
222.372873870229
 20
265.875
 10
219.82059994862183
 20
270.125
 10
218.75
 20
270.39948470864783
 10
218.15247632547351
 20
269.375
 10
220.1188824315984
 20
264.375
 10
219.5
 20
262.36116210519003
 10
217.44886090618732
 20
268.125
 10
214.875481047258
 20
270.375
 10
213.2448289811687
 20
274.375
 10
216.10170862151253
 20
272.375
 10
214.55660459525836
 20
275.125
 10
215.5
 20
275.280812070918
 10
215.63304019371864
 20
276.625
 10
217.73427359833696
 20
277.375
 10
217.6165483277958
 20
279.125
 10
221.06399683203676
 20
276.625
 10
221.25
 20
275.0135288826246
 10
222.01008075464085
 20
274.125
 10
221.6280364981317
 20
273.125
 10
222.0
 20
271.34059635110754
 10
226.25
 20
269.80055778390573
 10
225.47270879459916
 20
273.375
 10
225.83187025801675
 20
275.125
 10
223.75
 20
274.7908647626492
 10
223.60018270069804
 20
276.625
 10
221.11877803566912
 20
277.625
 10
221.03771167949995
 20
278.375
 10
222.75
 20
281.2645988238953
 10
225.75
 20
279.0661723057957
 10
225.29335464934599
 20
281.375
 10
226.5
 20
281.53831725616294
 10
226.75
 20
283.6593561967268
 10
228.25
 20
282.0369479604957
 10
229.5
 20
281.67534607021446
 10
229.75
 20
284.57337446693793
 10
231.25
 20
286.84532343170224
 10
233.25
 20
287.8625348920148
 10
234.3704039033706
 20
285.625
 10
235.36278721775662
 20
280.875
 10
236.5
 20
279.3575431349142
 10
237.5
 20
279.2302441186047
 10
238.69407307126968
 20
276.125
 10
237.5775180300139
 20
272.875
 10
238.5
 20
269.7771477338624
 10
239.68940850406526
 20
268.375
 10
241.25
 20
267.72107981239446
 10
244.47486198639405
 20
268.375
 10
246.75
 20
269.9469512487326
 10
251.0
 20
270.3433871958201
 10
252.25
 20
271.7591903880449
 10
251.66262348132162
 20
272.375
 10
244.49912567724184
 20
271.875
 10
242.01489420743474
 20
273.125
 10
240.91073348233593
 20
275.875
 10
243.5
 20
275.76948399786863
 10
245.0
 20
274.53414492708396
 10
250.25
 20
276.05723234778463
 10
252.32445914901595
 20
277.375
 10
252.05436065773875
 20
279.625
 10
250.00617411583337
 20
281.875
 10
252.0
 20
281.07234079756233
 10
253.0
 20
281.51389500508117
 10
252.37861573088495
 20
285.625
 10
250.25
 20
288.24077672925205
 10
246.37108637376318
 20
289.625
 10
245.83032023916022
 20
290.625
 10
246.44886507319544
 20
291.375
 10
245.0
 20
292.099618940186
 10
244.03965914561485
 20
293.875
 10
244.70198986767699
 20
294.375
 10
244.5
 20
295.40429148834994
 10
249.79780424497974
 20
289.875
 10
251.75
 20
290.0149213212897
 10
252.25
 20
288.7535851979868
 10
253.54864482115676
 20
289.125
 10
253.8281962328871
 20
291.625
 10
251.23447445397267
 20
294.125
 10
251.5952956723422
 20
295.125
 10
248.78236785195162
 20
296.875
 10
251.75
 20
296.37004937040103
 10
252.13710220040008
 20
297.625
 10
253.89738323429927
 20
299.125
 10
253.93695334345497
 20
300.375
 10
256.5
 20
300.307899082233
 10
257.0596489455161
 20
301.375
 10
257.11412516445523
 20
305.125
 10
252.33632294194575
 20
312.125
 10
250.0
 20
312.8201774999198
 10
249.18208080804231
 20
311.875
 10
249.28045113371198
 20
310.625
 10
247.6774827415956
 20
308.375
 10
245.75
 20
307.9866519238345
 10
244.25
 20
308.17897474406317
 10
241.0
 20
310.400769967517
 10
238.0
 20
314.0876613386808
 10
236.75
 20
313.38396125107704
 10
235.64936428319197
 20
313.875
 10
235.75
 20
313.13382652106577
 10
236.6994013197528
 20
312.875
 10
236.0
 20
311.6946540330273
 10
233.75
 20
312.6852219195256
 10
232.5
 20
312.5154360608532
 10
232.42411483449257
 20
311.375
 10
234.6087352055068
 20
307.125
 10
234.0
 20
306.61863785956353
 10
232.5
 20
307.0576296925582
 10
232.06958357786223
 20
306.375
 10
233.82576669420547
 20
303.375
 10
234.91588729996468
 20
302.625
 10
236.61966610169492
 20
299.125
 10
234.25
 20
298.2765291864449
 10
233.68766434453917
 20
299.875
 10
232.42739712857326
 20
300.125
 10
231.48410579664062
 20
302.125
 10
229.25
 20
304.43085938254876
 10
227.5
 20
304.2775025571312
 10
225.75
 20
303.3182843251665
 10
223.6368370224475
 20
303.375
 10
229.75
 20
297.2580569908072
 10
230.81833370033
 20
294.625
 10
230.0
 20
293.2782738916528
 10
229.0800504699049
 20
293.625
 10
229.2710702669079
 20
294.875
 10
226.25
 20
297.3632379864935
 10
224.0
 20
297.6473788982263
 10
223.55288790429978
 20
297.125
 10
226.05663629096725
 20
294.375
 10
226.0
 20
293.6236768848569
 10
223.47561959064205
 20
295.875
 10
222.8300860251809
 20
298.625
 10
221.11051065752807
 20
299.625
 10
221.32711882991822
 20
300.875
 10
220.0599514785451
 20
302.625
 10
220.5
 20
303.202115854771
 10
222.25
 20
302.7997594873533
 10
222.4703006803966
 20
304.375
 10
220.25
 20
306.0223307745988
 10
218.75
 20
306.2490061258313
 10
218.0
 20
305.25112094999974
 10
217.5
 20
306.0541631426029
 10
215.5
 20
306.62789104677546
 10
214.75
 20
306.576136966019
 10
214.75
 20
305.6469729243066
 10
210.0
 20
307.25849675500814
 10
208.94443235666014
 20
306.625
 10
208.75
 20
305.10266159695817
 10
206.5
 20
305.4849634236584
 10
200.5
 20
304.76423087360234
 10
199.79614396194754
 20
301.875
 10
201.5
 20
301.54660358647686
 10
202.96480896475958
 20
300.125
 10
203.9653560166947
 20
298.125
 10
203.79458452127304
 20
295.625
 10
205.85426654471155
 20
289.125
 10
209.01404323367774
 20
286.375
 10
205.0
 20
285.7714674423336
 10
203.75
 20
283.8756348007198
 10
201.25
 20
282.1393252456387
 10
199.75
 20
279.325218761314
 10
199.25
 20
279.092616382702
 10
198.25
 20
280.5985534098197
 10
196.42600797452917
 20
277.875
 10
194.5
 20
276.35308825083405
 10
195.5752754269388
 20
278.625
 10
194.72614388662856
 20
281.125
 10
196.25
 20
283.01766938766457
 10
198.0
 20
283.66996086190966
 10
199.14847298206203
 20
284.875
 10
198.4484904262462
 20
286.875
 10
199.25
 20
287.49862898424624
 10
200.75
 20
286.3180379242577
 10
201.3973418377767
 20
286.875
 10
199.9901046112713
 20
288.875
 10
200.25
 20
290.20470423925985
 10
199.25
 20
290.31483131806647
 10
198.75
 20
289.56965461489267
 10
196.75
 20
288.8390261021849
 10
194.75
 20
289.28558353001824
 10
194.0
 20
288.240554249106
 10
193.0
 20
289.4127232469326
 10
191.5
 20
289.77284033062847
 10
191.5104943195372
 20
285.875
 10
189.75
 20
283.86774083580656
 10
187.68548714221734
 20
283.875
 10
187.25
 20
282.1062398099984
 10
186.25
 20
282.35935597487094
 10
184.25
 20
284.3510990220616
 10
182.5
 20
281.8529454498763
 10
180.75
 20
283.439486213721
 10
180.50546479483626
 20
281.125
 10
179.25
 20
279.57612434259204
 10
176.0
 20
279.7189143616297
 10
173.75
 20
282.27680174691534
 10
172.62844850303046
 20
282.125
 10
172.25
 20
281.3191172570106
 10
168.5
 20
282.5181992654234
 10
168.34013143264946
 20
281.875
 10
170.27217897297652
 20
278.625
 10
171.7001136264312
 20
277.375
 10
170.0
 20
276.1982909865054
 10
168.75
 20
273.7741544365722
 10
168.45115262378602
 20
276.625
 10
167.28286700749956
 20
278.625
 10
163.75
 20
280.27263900103014
 10
162.25
 20
282.4151546644399
 10
160.5
 20
283.3549546665744
 10
160.12954121792328
 20
284.875
 10
158.0
 20
287.71845470940866
 10
157.0
 20
287.95799294145786
 10
156.66477618498018
 20
287.375
 10
158.25
 20
282.9846087867836
 10
160.16724309043343
 20
280.125
 10
159.75
 20
278.71870063699737
 10
156.75
 20
281.4276338753643
 10
154.35541889878908
 20
285.625
 10
150.8849967710398
 20
289.875
 10
147.62339899966247
 20
292.375
 10
148.2675063391165
 20
291.125
 10
147.41108169988578
 20
290.125
 10
148.05791706435718
 20
287.875
 10
152.82658548201317
 20
276.375
 10
150.8861600494763
 20
278.125
 10
150.20338889107853
 20
281.875
 10
146.25
 20
286.4359036559558
 10
146.16221057600808
 20
284.125
 10
147.87698094582754
 20
280.125
 10
150.33001502126677
 20
276.875
 10
150.75
 20
274.19167531335324
 10
153.0
 20
273.2762177478048
 10
154.0
 20
274.8382343743485
 10
157.0
 20
273.3920009161576
 10
158.0
 20
273.482678589626
 10
160.31970387840667
 20
275.625
 10
160.25488764522225
 20
277.875
 10
160.75
 20
278.3925642398287
 10
162.00536762828693
 20
277.625
 10
163.52049539497705
 20
275.125
 10
162.5
 20
273.5203855393081
 10
161.0
 20
272.62021300560673
 10
160.25291565955024
 20
270.125
 10
159.0
 20
270.59149164866085
 10
156.75
 20
269.8669552433845
 10
152.12580969118758
 20
267.375
 10
151.0
 20
266.2133126860655
 10
149.9965918940926
 20
266.625
 10
149.25
 20
268.21902950786966
 10
146.5
 20
269.7983833508361
 10
147.45897176762077
 20
267.375
 10
145.28659563492369
 20
266.375
 10
146.66194979680142
 20
263.875
 10
145.90740603660453
 20
261.625
 10
143.09057920700417
 20
261.625
 10
141.25
 20
258.61817592624885
 10
138.69822418111193
 20
256.125
 10
137.75
 20
253.99260588369685
 10
136.25
 20
254.0488735365127
 10
133.8955711085269
 20
253.125
 10
133.81763291146373
 20
251.875
 10
132.09486745544407
 20
248.875
 10
132.23235673894652
 20
247.375
 10
133.50080936481967
 20
245.875
 10
132.63183732773678
 20
243.125
 10
131.41640811934008
 20
242.125
 10
131.75
 20
241.28036837726825
 10
133.20139813373834
 20
240.625
 10
132.6687585811494
 20
238.625
 10
133.75
 20
236.27653291644953
 10
131.5
 20
234.88168065986684
 10
126.3841121729124
 20
235.625
 10
129.25
 20
233.57417708265166
 10
129.41973115008395
 20
231.875
 10
130.84433208186994
 20
230.875
 10
130.8329003132485
 20
230.125
 10
128.25
 20
230.83139013568237
 10
126.25
 20
230.47746930889866
 10
125.60918295284937
 20
229.875
 10
125.0
 20
227.28519109794166
 10
124.0
 20
228.36842063022124
 10
122.75
 20
226.8903181863687
 10
120.75
 20
226.9955611274957
 10
119.42243662312941
 20
224.625
 10
121.22437387525785
 20
220.125
 10
121.13056030279328
 20
219.125
 10
117.25
 20
217.69147997026374
 10
116.0
 20
218.5612337046617
 10
113.5
 20
219.07790169279866
 10
110.65629773544084
 20
216.125
 10
111.25
 20
214.28371675767863
 10
114.0
 20
213.20537114578414
 10
115.05169811113609
 20
211.625
 10
113.7179571089503
 20
207.625
 10
115.0
 20
203.19626843216923
 10
117.75
 20
202.4980109940667
 10
119.0
 20
202.9986375010603
 10
121.5
 20
199.68568102444704
 10
123.5
 20
199.13434989518032
 10
125.5
 20
199.90225902422884
 10
126.67097866594675
 20
202.125
 10
126.68075636850921
 20
204.375
 10
125.25170047383826
 20
207.875
  0
LWPOLYLINE
  5
3F
330
17
100
AcDbEntity
  8
BAND_03
100
AcDbPolyline
 90
13
 70
1
 10
237.0087303371498
 20
333.375
 10
237.5
 20
337.3121140822627
 10
235.75
 20
334.04071561748685
 10
233.25
 20
332.9143874432717
 10
232.37663377720827
 20
331.625
 10
232.78823631805216
 20
329.625
 10
231.98624899065436
 20
324.375
 10
232.23309604252037
 20
320.875
 10
234.0
 20
319.4028372671679
 10
235.25
 20
319.7561604543064
 10
234.37407449164488
 20
328.375
 10
235.4042082742852
 20
329.875
 10
235.25
 20
332.27623456790127
  0
LWPOLYLINE
  5
40
330
17
100
AcDbEntity
  8
BAND_03
100
AcDbPolyline
 90
17
 70
1
 10
236.10375847318676
 20
273.375
 10
233.75
 20
273.6987198654915
 10
232.25
 20
273.07757024064506
 10
230.16024809940427
 20
274.625
 10
228.5
 20
276.9817995864108
 10
227.0
 20
277.4056052602758
 10
226.892328575399
 20
273.625
 10
228.5109370222974
 20
271.625
 10
227.62502370623233
 20
271.375
 10
227.52358043761797
 20
269.625
 10
228.75
 20
270.0957884673845
 10
229.5
 20
268.5467386901528
 10
231.55396439709781
 20
268.125
 10
233.25
 20
265.5839690013453
 10
234.50500941097178
 20
267.875
 10
233.1481853821967
 20
270.375
 10
236.5
 20
271.5871954747663
  0
LWPOLYLINE
  5
41
330
17
100
AcDbEntity
  8
BAND_03
100
AcDbPolyline
 90
445
 70
1
 10
204.0
 20
112.25773796423
 10
204.569526793045
 20
112.625
 10
203.44086138174265
 20
113.875
 10
203.59132312199847
 20
114.875
 10
202.5
 20
116.38716352417879
 10
199.45531307326164
 20
117.875
 10
200.3720433050981
 20
118.875
 10
199.9506733715249
 20
120.875
 10
197.35697371462848
 20
122.875
 10
198.5
 20
125.70123126299872
 10
199.25
 20
125.21075640602876
 10
199.40590922758147
 20
123.375
 10
201.25
 20
120.33883807693748
 10
201.75
 20
122.81912432792899
 10
201.91454719821039
 20
121.625
 10
206.75
 20
113.6112726873536
 10
207.3287180242918
 20
114.875
 10
207.07896680580313
 20
117.125
 10
205.80012723964813
 20
120.375
 10
206.47944550410193
 20
121.375
 10
206.5
 20
122.82974857246259
 10
207.75
 20
121.93699876093416
 10
208.5949671096555
 20
123.125
 10
206.22655245958873
 20
126.875
 10
206.0
 20
128.83458565834886
 10
206.75
 20
128.45459104581462
 10
208.0
 20
125.850500195304
 10
209.0
 20
125.96526071245823
 10
209.5
 20
124.60338077375496
 10
210.30145383723536
 20
125.625
 10
210.77737093829026
 20
123.375
 10
209.5
 20
119.2324537793288
 10
210.75
 20
120.40950841068052
 10
211.5
 20
120.32850597875705
 10
211.99140581065882
 20
119.375
 10
210.75
 20
118.05185329366296
 10
209.27116097926208
 20
114.125
 10
209.75
 20
112.6316266836414
 10
211.75
 20
112.40983174275519
 10
215.13694904129207
 20
113.375
 10
213.6667035311465
 20
114.875
 10
214.65905598488473
 20
115.875
 10
214.5
 20
117.37885083626368
 10
213.46089926458663
 20
118.375
 10
213.63710687987938
 20
119.875
 10
212.24958604433715
 20
121.375
 10
212.97142936445877
 20
123.625
 10
215.25
 20
124.26781338163995
 10
216.60683620585246
 20
125.875
 10
218.25
 20
126.22690589900058
 10
219.0
 20
127.28347720448795
 10
221.75
 20
128.1478493779442
 10
222.25
 20
129.7496394994542
 10
224.0
 20
129.88497193559056
 10
224.07718314553915
 20
130.875
 10
224.75
 20
131.37222166353564
 10
226.12651056510478
 20
131.125
 10
227.0
 20
129.59203171321576
 10
227.6026421554034
 20
130.125
 10
227.0
 20
132.14881395728486
 10
224.2553013779372
 20
133.875
 10
225.16924971381587
 20
135.625
 10
224.25
 20
136.2923359948413
 10
222.67249826203928
 20
136.125
 10
223.0
 20
138.03990001957703
 10
221.5
 20
138.57713680716148
 10
220.04693761321843
 20
137.375
 10
220.58811445531342
 20
139.375
 10
220.0
 20
140.82451729080594
 10
219.27863443312782
 20
140.375
 10
218.72977535134507
 20
138.125
 10
216.0
 20
136.92553878350702
 10
215.34769474753622
 20
137.375
 10
217.25
 20
138.60919985250734
 10
217.33860159675288
 20
140.625
 10
215.07230546030075
 20
140.375
 10
213.75
 20
141.3876737948375
 10
211.25
 20
140.27318994146896
 10
210.75
 20
139.18561061367268
 10
211.26971122106713
 20
141.875
 10
212.01174693402928
 20
142.375
 10
211.610094979077
 20
142.875
 10
204.5
 20
142.7516703837801
 10
202.10810625770233
 20
143.375
 10
202.25
 20
144.55804449664123
 10
199.67653983510425
 20
145.125
 10
200.25
 20
146.16617449606662
 10
203.75
 20
148.4190544665588
 10
204.5
 20
148.04100763050178
 10
207.5
 20
148.9829892932163
 10
207.96883321637299
 20
150.625
 10
206.4935246441455
 20
152.375
 10
207.75
 20
152.76390004831262
 10
209.0
 20
151.9446482477598
 10
210.4347765559901
 20
153.875
 10
210.0
 20
154.59430667340308
 10
208.0
 20
154.5618858826523
 10
207.25
 20
155.11967371945258
 10
206.0
 20
154.76233669569854
 10
206.7396025382909
 20
156.125
 10
206.28563680347847
 20
157.125
 10
202.76041291831598
 20
158.625
 10
203.73889411872148
 20
159.375
 10
203.75
 20
160.95440260409111
 10
206.5
 20
159.43800323521918
 10
208.75
 20
159.538989692913
 10
210.0
 20
158.51806699222465
 10
210.5
 20
160.16255345232707
 10
212.0
 20
159.83375126869691
 10
211.81038402568154
 20
161.375
 10
212.8426521636406
 20
162.125
 10
211.83331052354865
 20
162.875
 10
211.2090169091531
 20
164.375
 10
212.5
 20
165.92493481388243
 10
212.55833692491672
 20
167.625
 10
214.25
 20
168.51069965937506
 10
214.41499058839935
 20
169.625
 10
212.75
 20
170.07757409589414
 10
212.42617983574723
 20
167.375
 10
211.75
 20
166.796317416668
 10
210.5
 20
167.6593649057703
 10
209.75
 20
167.3292672824204
 10
209.5
 20
166.15174705163145
 10
208.31646013902
 20
166.625
 10
207.49573530632782
 20
165.375
 10
208.34027804743732
 20
163.125
 10
207.25
 20
161.17964373444454
 10
207.31576891077904
 20
163.375
 10
206.02206523305853
 20
166.375
 10
206.19558697874913
 20
168.125
 10
207.08554831079383
 20
169.125
 10
207.69669606978343
 20
173.875
 10
209.0
 20
173.22951258428714
 10
210.04935782211322
 20
174.375
 10
210.25
 20
175.55576680966146
 10
212.25
 20
175.0557912452512
 10
213.16086205455406
 20
176.125
 10
211.72837693034987
 20
177.375
 10
212.1895029056608
 20
178.125
 10
209.90845740004582
 20
180.125
 10
210.5
 20
180.58272048469644
 10
213.67946128481614
 20
180.625
 10
213.13354241600143
 20
181.875
 10
210.71815003714175
 20
183.125
 10
210.25859419897154
 20
185.375
 10
211.0
 20
185.6513438672864
 10
213.25
 20
184.49322089647723
 10
214.4624809209885
 20
186.125
 10
215.78384560276893
 20
186.375
 10
213.08473705223273
 20
188.375
 10
213.56001727313293
 20
188.875
 10
212.9247970950805
 20
191.375
 10
212.25
 20
191.99009666080843
 10
210.79471070102394
 20
190.875
 10
208.44065643370547
 20
187.125
 10
207.41528865553067
 20
184.875
 10
207.56835195253487
 20
183.375
 10
206.72414676932468
 20
182.875
 10
207.52273668926767
 20
180.875
 10
207.4040365394681
 20
179.375
 10
208.96031957266038
 20
177.125
 10
206.60606786302245
 20
175.375
 10
206.25
 20
174.11500172913549
 10
204.8391357185524
 20
173.375
 10
204.65467462103837
 20
171.375
 10
205.28696000404796
 20
169.375
 10
203.85853049761826
 20
166.125
 10
204.3327909128042
 20
164.375
 10
202.5
 20
165.23367612605236
 10
201.4962094124098
 20
164.375
 10
201.5
 20
163.16032337561097
 10
199.67379518106046
 20
163.625
 10
198.75
 20
159.96488854036755
 10
197.5
 20
160.46327433969577
 10
196.75
 20
159.90482568581714
 10
195.0
 20
160.1653534586771
 10
195.15709500642762
 20
159.375
 10
192.27736639397267
 20
156.375
 10
195.0
 20
156.3816018171515
 10
196.27520027928847
 20
155.625
 10
195.5
 20
155.30024337540374
 10
194.5
 20
155.82961844013977
 10
192.5
 20
155.10005568739354
 10
190.97290252778598
 20
152.375
 10
192.75
 20
151.19987819919828
 10
194.5
 20
151.26987395808175
 10
195.5
 20
152.84861544281128
 10
196.0
 20
152.0325655361612
 10
198.78766585846222
 20
151.375
 10
198.75
 20
150.080898923174
 10
201.02899017335173
 20
149.375
 10
198.5
 20
148.5490497989797
 10
197.25
 20
149.24615520514013
 10
196.75
 20
148.55901635848886
 10
193.75
 20
148.267858603795
 10
192.75
 20
146.34604387909906
 10
194.25
 20
146.3208385878281
 10
196.0304315057205
 20
144.875
 10
194.0
 20
143.74750682166712
 10
191.0
 20
146.3755328926472
 10
189.20624927187293
 20
149.125
 10
187.75
 20
149.10942976999104
 10
187.0
 20
147.69378985331775
 10
188.9223486048478
 20
147.625
 10
189.25060383548796
 20
145.125
 10
192.16213775325892
 20
142.875
 10
191.75
 20
142.33293007011844
 10
191.0
 20
142.85007729203824
 10
190.25
 20
142.545508466637
 10
189.25
 20
143.04350483980818
 10
188.7501063834337
 20
144.125
 10
187.0
 20
144.152927219444
 10
186.7282796281525
 20
145.375
 10
185.83509630925045
 20
146.125
 10
184.9791914328884
 20
145.875
 10
185.4066510637945
 20
144.125
 10
183.75
 20
143.67711790303554
 10
183.54848500346824
 20
141.625
 10
184.25
 20
139.9461044268931
 10
185.0
 20
140.94071619576522
 10
185.97624327927713
 20
140.875
 10
185.9154045260509
 20
140.125
 10
184.09301691103542
 20
138.625
 10
185.9905338178568
 20
137.375
 10
183.8804660678989
 20
136.625
 10
186.0
 20
135.56894644009117
 10
188.5
 20
136.49534099494275
 10
188.5184411414261
 20
135.125
 10
186.0
 20
133.3693563830739
 10
180.75
 20
135.7499289076088
 10
180.56855700992327
 20
133.625
 10
181.0
 20
131.92849746291245
 10
181.85800152591673
 20
131.625
 10
181.5
 20
130.84440706842096
 10
180.75
 20
130.98661804960128
 10
179.4736558936542
 20
133.875
 10
179.98166403428525
 20
135.625
 10
179.48216246324301
 20
136.625
 10
180.58929816921406
 20
136.875
 10
180.43126464854856
 20
137.375
 10
179.5
 20
137.83676064986253
 10
177.75
 20
136.951379120139
 10
176.75
 20
137.57322189623892
 10
176.0
 20
136.78264921963523
 10
175.21534257384226
 20
137.375
 10
176.4046062166806
 20
138.375
 10
178.21732002184774
 20
138.625
 10
178.17919885336678
 20
139.875
 10
180.75
 20
139.28065602322204
 10
180.567531847814
 20
141.125
 10
177.25
 20
142.45125777673724
 10
176.1865749915198
 20
141.625
 10
174.75
 20
138.8631292537175
 10
171.75
 20
137.63746884210914
 10
171.75
 20
138.44826809269614
 10
174.30313382660364
 20
139.875
 10
175.25450895953352
 20
142.125
 10
172.75
 20
142.5349193241138
 10
170.75
 20
141.42242229021116
 10
170.2041238820802
 20
142.125
 10
171.61964355132915
 20
143.125
 10
170.5
 20
144.14350076255317
 10
171.75
 20
144.31665303906885
 10
172.5
 20
143.73318821196614
 10
173.5
 20
144.5287794630909
 10
175.75
 20
143.69432729678329
 10
176.5
 20
144.45071147002125
 10
180.0
 20
144.11114291730829
 10
179.39162173636794
 20
145.625
 10
179.92759294261924
 20
146.875
 10
179.0
 20
147.60234115147958
 10
177.48598199507035
 20
147.375
 10
177.75
 20
151.00079227026464
 10
177.0
 20
150.93405927934907
 10
175.87882884582726
 20
148.875
 10
174.0
 20
147.9482418384677
 10
173.75
 20
150.21349640197565
 10
172.0
 20
150.2065263248437
 10
171.25
 20
148.682062426392
 10
168.75
 20
150.53319326121334
 10
168.25
 20
151.75806615856695
 10
166.5
 20
152.14415204751083
 10
165.75
 20
151.7498176482847
 10
166.25509305865586
 20
149.625
 10
167.5654212821799
 20
148.625
 10
166.89944831025846
 20
147.875
 10
165.75
 20
147.8528630150395
 10
165.41020377065126
 20
147.125
 10
165.9888920146086
 20
144.875
 10
167.73964563258738
 20
144.375
 10
167.05279188236537
 20
143.875
 10
166.80833157949183
 20
142.125
 10
167.5095182522774
 20
140.125
 10
166.0
 20
140.5151754999033
 10
165.25
 20
139.09852482167946
 10
161.25
 20
138.14901027033233
 10
160.95527096976292
 20
139.625
 10
163.5
 20
139.74396910189665
 10
166.03817339050607
 20
142.625
 10
165.54553920927225
 20
143.875
 10
164.1478184873711
 20
144.375
 10
164.25
 20
145.61822336587417
 10
163.0
 20
145.3031398977604
 10
162.20927580414923
 20
145.875
 10
164.13523453391133
 20
146.875
 10
164.6631739973747
 20
148.625
 10
164.52793684772146
 20
149.875
 10
163.56663950445807
 20
150.375
 10
163.56770106927004
 20
151.875
 10
162.25
 20
152.09512965885244
 10
161.5
 20
150.51521005060852
 10
160.5
 20
151.16475992875203
 10
159.8257195519422
 20
150.625
 10
160.05020879576554
 20
147.375
 10
159.5
 20
146.00392159691148
 10
157.676866845194
 20
147.875
 10
158.2381875215557
 20
149.625
 10
157.90056168985473
 20
150.625
 10
156.0
 20
149.76204888464287
 10
155.28737538296497
 20
148.375
 10
154.9793696841475
 20
144.375
 10
153.75
 20
144.50319273535953
 10
152.75
 20
143.03789868877345
 10
152.44738662898237
 20
144.875
 10
153.87148717591145
 20
146.875
 10
152.75
 20
147.59916295444748
 10
153.6845146994237
 20
148.875
 10
152.949572967981
 20
150.125
 10
153.5
 20
151.00305893500249
 10
154.4661679938154
 20
151.125
 10
154.0
 20
151.83185039778175
 10
151.75
 20
152.1820016485242
 10
151.400377271572
 20
149.875
 10
149.91168587611082
 20
148.125
 10
149.5541211181362
 20
145.375
 10
148.56008636516987
 20
144.625
 10
148.75
 20
142.53691724099986
 10
147.79705899869964
 20
143.125
 10
147.42170533677853
 20
144.875
 10
148.44495215088955
 20
145.875
 10
149.1674014314271
 20
150.375
 10
147.6097245824975
 20
149.875
 10
147.85301000698774
 20
151.875
 10
147.25
 20
152.30676669791444
 10
143.75
 20
150.68971598510325
 10
142.32771084337355
 20
152.375
 10
141.68811816856055
 20
154.375
 10
140.75
 20
154.67301169431107
 10
140.49387536312082
 20
154.125
 10
141.01301699790335
 20
152.625
 10
141.0
 20
147.50620777027027
 10
141.80025007814936
 20
146.625
 10
141.161225062676
 20
145.375
 10
141.4074204161166
 20
144.625
 10
142.5
 20
143.926453129452
 10
143.25
 20
145.796735629336
 10
145.91684696098497
 20
143.625
 10
143.5
 20
141.25346401664342
 10
141.3957485234252
 20
140.375
 10
139.63867973816033
 20
136.375
 10
141.25
 20
134.00274470131677
 10
142.0
 20
134.02216059584327
 10
142.75
 20
135.15517547966544
 10
144.29212765742665
 20
134.875
 10
143.90652933261453
 20
137.625
 10
144.75
 20
138.3966212745525
 10
146.0
 20
138.4871360595933
 10
146.75
 20
137.04463958775497
 10
147.8397973925299
 20
136.875
 10
148.0
 20
135.47759284324508
 10
149.0
 20
137.6258122129793
 10
150.04932312784706
 20
137.125
 10
149.32710406126012
 20
135.625
 10
149.75
 20
133.64885429348098
 10
151.05735178631534
 20
133.625
 10
149.684528965962
 20
130.875
 10
149.75
 20
129.90066009505367
 10
150.5
 20
129.62332973653446
 10
152.0
 20
131.95304365238286
 10
153.0
 20
128.79335984794417
 10
153.25
 20
131.3086285585437
 10
154.34189407405304
 20
132.625
 10
153.98094451309322
 20
134.375
 10
155.0
 20
136.25125112749828
 10
155.68543633273174
 20
134.125
 10
155.78349580989664
 20
127.375
 10
157.75
 20
125.54818835011142
 10
158.2333949485058
 20
126.375
 10
157.33893283402432
 20
128.625
 10
157.08113707268507
 20
131.625
 10
158.0629984097659
 20
135.875
 10
158.5
 20
136.1035498244738
 10
159.44147135664977
 20
134.625
 10
159.10032961022517
 20
132.625
 10
160.33882545898692
 20
132.875
 10
159.76619395896444
 20
134.875
 10
160.5
 20
135.4871594028466
 10
161.96762987989396
 20
134.875
 10
162.75
 20
132.25267799094203
 10
163.90216255086918
 20
132.625
 10
163.0
 20
135.67308209416765
 10
165.25
 20
133.82937302782102
 10
166.0
 20
135.9647676786927
 10
166.75
 20
133.89383240586054
 10
168.1847205376263
 20
134.125
 10
168.42850845431326
 20
132.875
 10
166.51489290993965
 20
131.625
 10
167.90219412615966
 20
130.875
 10
167.85584697788536
 20
129.875
 10
166.75
 20
129.2613617350738
 10
165.25
 20
130.43571511416144
 10
160.69553015986725
 20
128.375
 10
162.75
 20
127.00048351162084
 10
163.75
 20
127.72588720387373
 10
165.25
 20
127.14122898663337
 10
166.52278763009457
 20
127.375
 10
165.92427599832195
 20
126.125
 10
164.5
 20
125.1087097887877
 10
161.5
 20
125.08696915441641
 10
161.5
 20
122.76980605806177
 10
163.0
 20
123.32185599347227
 10
165.0
 20
121.6684787549391
 10
166.5
 20
122.44807137112872
 10
167.75
 20
121.96395371058776
 10
169.25
 20
123.89581745921151
 10
170.5
 20
123.33813319363935
 10
171.53296646315792
 20
123.875
 10
173.0
 20
126.64747331542907
 10
174.0
 20
127.38049557279348
 10
174.58329429368536
 20
125.125
 10
173.3176118867778
 20
122.875
 10
174.75563487053464
 20
122.125
 10
174.75
 20
120.51905766248785
 10
180.0
 20
121.24849050654832
 10
184.0
 20
120.37704528704646
 10
192.0
 20
121.85236311966041
 10
193.25
 20
122.92988849959755
 10
194.75
 20
122.6623267212548
 10
196.51642360145925
 20
117.375
 10
195.1401178287425
 20
114.625
 10
196.5
 20
111.29328015765705
 10
199.20347935888776
 20
110.875
 10
198.1898906931459
 20
115.375
 10
198.5
 20
116.37501642749913
 10
201.75
 20
113.04343341843341
  0
LWPOLYLINE
  5
42
330
17
100
AcDbEntity
  8
BAND_03
100
AcDbPolyline
 90
27
 70
1
 10
226.38666635590164
 20
148.375
 10
224.89913178699638
 20
149.125
 10
224.41568718645186
 20
150.125
 10
225.0
 20
150.60301358595308
 10
227.0
 20
150.29918668747047
 10
226.273243525723
 20
151.625
 10
227.05465275535605
 20
152.375
 10
227.0
 20
154.02853774276318
 10
223.25
 20
152.10471005852776
 10
221.75
 20
149.8984683551589
 10
221.0
 20
150.73062089479146
 10
219.5
 20
149.15576317918345
 10
220.15009911979294
 20
146.125
 10
221.11817709722905
 20
145.625
 10
220.5
 20
143.39039705988614
 10
219.38118989011343
 20
142.375
 10
220.25
 20
141.4724075029481
 10
220.5
 20
142.48692348246072
 10
223.06755462277437
 20
143.875
 10
223.5
 20
144.9755057601004
 10
223.97150309203985
 20
144.375
 10
223.30752643564077
 20
143.125
 10
221.31136801736056
 20
141.125
 10
222.25
 20
139.99260604093553
 10
225.65488780403555
 20
142.875
 10
226.12083993179607
 20
146.375
 10
225.58031713669212
 20
147.875
  0
LWPOLYLINE
  5
43
330
17
100
AcDbEntity
  8
BAND_03
100
AcDbPolyline
 90
10
 70
1
 10
220.67351826666808
 20
119.375
 10
215.7260239916551
 20
120.875
 10
216.1393530701129
 20
118.375
 10
217.75
 20
116.59701897061966
 10
219.25
 20
116.45609417501191
 10
220.25
 20
115.49589373153378
 10
220.65845498669637
 20
116.375
 10
219.07159111469892
 20
118.875
 10
219.5
 20
119.2561987276944
 10
220.75
 20
118.73428369752027
  0
LWPOLYLINE
  5
44
330
17
100
AcDbEntity
  8
BAND_03
100
AcDbPolyline
 90
7
 70
1
 10
213.52641097482132
 20
192.625
 10
214.67503047636595
 20
190.125
 10
217.0
 20
189.34770387553957
 10
217.9135800115076
 20
190.625
 10
216.29737992181794
 20
192.875
 10
216.0
 20
194.8354949326905
 10
215.25
 20
195.00705991924372
  0
LWPOLYLINE
  5
45
330
17
100
AcDbEntity
  8
BAND_03
100
AcDbPolyline
 90
10
 70
1
 10
208.25
 20
257.84298716118394
 10
202.75
 20
258.7721403866394
 10
200.73129043297783
 20
258.375
 10
200.3159582169821
 20
255.625
 10
201.0
 20
254.62803086919516
 10
206.25
 20
253.76485025190524
 10
209.75
 20
249.46592584441274
 10
210.61842783273175
 20
251.625
 10
209.19930143767795
 20
253.625
 10
209.36035827624343
 20
255.625
  0
LWPOLYLINE
  5
46
330
17
100
AcDbEntity
  8
BAND_03
100
AcDbPolyline
 90
18
 70
1
 10
202.0
 20
100.59192209526407
 10
200.5
 20
100.2004009901773
 10
199.5
 20
100.98545187028434
 10
198.75
 20
100.58871635220805
 10
195.25
 20
102.5007080258004
 10
194.5
 20
101.84605082619021
 10
192.25
 20
103.67969601701293
 10
189.61152550843872
 20
100.125
 10
196.75
 20
98.7709857048822
 10
200.0
 20
99.07443475673756
 10
203.0
 20
98.4900852043223
 10
204.13603638108063
 20
97.625
 10
204.05436946800725
 20
96.625
 10
204.75
 20
96.15407633852773
 10
206.19897771228594
 20
96.625
 10
207.04242006328727
 20
98.375
 10
206.75
 20
98.93407274205505
 10
203.5
 20
99.57779644662345
  0
LWPOLYLINE
  5
47
330
17
100
AcDbEntity
  8
BAND_03
100
AcDbPolyline
 90
12
 70
1
 10
201.92443771298753
 20
102.375
 10
201.5
 20
104.41235393763398
 10
200.0
 20
102.26738019093563
 10
197.5
 20
103.5077342916897
 10
196.97579298994552
 20
102.625
 10
200.75
 20
101.29112169398717
 10
203.5
 20
100.99783726463303
 10
205.25
 20
99.69798216873548
 10
205.9098930909147
 20
99.875
 10
204.0
 20
106.5677723802568
 10
202.85493765751423
 20
105.125
 10
203.5
 20
101.61710071197734
  0
LWPOLYLINE
  5
48
330
17
100
AcDbEntity
  8
BAND_03
100
AcDbPolyline
 90
34
 70
1
 10
196.40131443178865
 20
170.375
 10
197.5
 20
170.07440381267844
 10
198.3240784901547
 20
170.625
 10
198.5
 20
172.1153521461266
 10
195.5
 20
171.79516782762795
 10
195.75
 20
173.19446876243535
 10
196.75
 20
173.718065912617
 10
196.56079275242706
 20
175.125
 10
198.75
 20
175.85433573035516
 10
200.5
 20
179.22050875478146
 10
202.44407880033972
 20
179.375
 10
201.5
 20
180.67655109724333
 10
198.0
 20
181.77101245900423
 10
197.76497437838105
 20
179.375
 10
196.25
 20
180.8993361218773
 10
195.8227363193905
 20
179.125
 10
194.75
 20
179.058153252939
 10
194.0
 20
177.09241305124192
 10
193.25
 20
176.52264046392048
 10
192.5
 20
177.14887978894245
 10
192.06440944909852
 20
176.875
 10
191.75
 20
173.90445833196463
 10
190.75
 20
173.65389832710997
 10
190.71268892182619
 20
172.625
 10
189.86874826450529
 20
172.125
 10
189.21232474840875
 20
170.125
 10
190.15894408449577
 20
168.875
 10
190.0
 20
167.37567972866913
 10
192.25
 20
165.1507194200481
 10
192.95345597548365
 20
165.875
 10
192.25
 20
166.48638495548784
 10
192.47640457856994
 20
168.625
 10
193.5
 20
170.2359095594676
 10
195.25
 20
169.35866843512707
  0
LWPOLYLINE
  5
49
330
17
100
AcDbEntity
  8
BAND_03
100
AcDbPolyline
 90
18
 70
1
 10
200.26883291393509
 20
234.375
 10
199.15885554938973
 20
236.125
 10
199.36919814132642
 20
237.875
 10
198.5
 20
239.979102495695
 10
197.5
 20
239.92337200376681
 10
194.25
 20
236.39971679509574
 10
192.75
 20
236.69473512563098
 10
190.25
 20
235.87084087291743
 10
188.5
 20
237.48247029692382
 10
187.5235211182196
 20
237.375
 10
187.7556136247801
 20
234.875
 10
190.0
 20
231.09055973384605
 10
192.0
 20
230.65303093684787
 10
193.0
 20
231.08026445698167
 10
194.25
 20
230.2864678363014
 10
195.8668619636295
 20
234.375
 10
197.75
 20
234.7873435788981
 10
199.25
 20
233.42401178929384
  0
LWPOLYLINE
  5
4A
330
17
100
AcDbEntity
  8
BAND_03
100
AcDbPolyline
 90
90
 70
1
 10
175.75
 20
181.85177756269104
 10
176.297465167208
 20
182.125
 10
174.62309404888097
 20
185.875
 10
174.75
 20
187.5082095767691
 10
178.0
 20
182.98000816750815
 10
176.95922890057975
 20
185.625
 10
177.82920395600715
 20
186.625
 10
177.75
 20
188.94807866176075
 10
180.0857602080293
 20
185.125
 10
180.24019836317154
 20
182.875
 10
181.5
 20
182.03988642881274
 10
181.6667684272473
 20
183.875
 10
182.7712332692072
 20
184.375
 10
182.86207940428682
 20
185.125
 10
182.081108897571
 20
186.875
 10
180.8326504039578
 20
187.625
 10
180.0
 20
189.16043148570662
 10
181.61537372593432
 20
189.125
 10
182.5
 20
190.50172248474752
 10
184.5
 20
190.54188799595613
 10
185.0
 20
191.62605284836462
 10
187.25
 20
191.50637790888757
 10
190.75
 20
194.96499462787546
 10
194.5
 20
194.73204857199448
 10
195.79583127800387
 20
194.125
 10
195.75
 20
195.44655756207675
 10
190.5
 20
195.9428646429405
 10
189.01229209663708
 20
196.875
 10
193.0
 20
198.77036061031794
 10
194.75
 20
197.85712925218155
 10
194.60692347199085
 20
199.625
 10
193.75
 20
200.09189387733295
 10
192.0
 20
199.63494809481665
 10
189.5
 20
201.2355657812247
 10
188.75
 20
200.11892421602786
 10
186.76733430269243
 20
199.625
 10
187.0
 20
196.8673935788842
 10
185.75
 20
197.18077669778086
 10
183.5
 20
195.17959092355596
 10
178.0
 20
194.36637003058104
 10
175.75
 20
192.85254291795434
 10
173.2123071763917
 20
192.625
 10
175.0292291354863
 20
193.625
 10
176.5
 20
195.67960685436066
 10
178.0
 20
195.83961947578587
 10
178.25
 20
197.46154871573788
 10
179.75
 20
196.63114697899624
 10
181.25
 20
197.71666914152047
 10
182.5
 20
197.451529611233
 10
183.0
 20
198.55935805653525
 10
184.5
 20
199.0783685107856
 10
184.25
 20
201.8351160009036
 10
183.5
 20
202.41246310603123
 10
181.25
 20
201.25087845303867
 10
182.28717285034085
 20
203.375
 10
181.25
 20
204.76725707202402
 10
179.5
 20
204.6867893410015
 10
176.6689060836425
 20
202.875
 10
176.5
 20
201.0687830656487
 10
172.75
 20
198.14105205653345
 10
175.25
 20
202.61430356513262
 10
175.14402729537397
 20
205.625
 10
174.5
 20
205.73848953629005
 10
173.94648795533857
 20
204.625
 10
172.75
 20
204.77715806442058
 10
171.4602599560133
 20
207.875
 10
170.08351519543072
 20
208.875
 10
169.95256698499642
 20
207.625
 10
168.72986220110917
 20
207.625
 10
168.5
 20
206.21763533263544
 10
167.7979251815749
 20
205.625
 10
167.75
 20
200.67928619359168
 10
166.40280995146395
 20
203.875
 10
165.0
 20
205.38487114445462
 10
163.343952713412
 20
203.125
 10
164.55717958813207
 20
200.625
 10
163.28898493641114
 20
197.875
 10
164.29862991781312
 20
194.625
 10
165.70249330975815
 20
192.375
 10
167.80381145277107
 20
183.125
 10
168.66829205010598
 20
182.625
 10
167.64218392922044
 20
186.875
 10
168.0
 20
189.13378367413176
 10
168.40388004475284
 20
188.625
 10
168.08910706576845
 20
187.375
 10
170.75
 20
181.22064604085233
 10
171.25
 20
182.80605860981882
 10
174.21171870061661
 20
181.625
 10
172.25
 20
188.18389885595423
 10
173.8848702683748
 20
186.375
  0
LWPOLYLINE
  5
4B
330
17
100
AcDbEntity
  8
BAND_03
100
AcDbPolyline
 90
16
 70
1
 10
194.0
 20
112.6744894460108
 10
194.43890495234658
 20
114.375
 10
193.25
 20
116.12019008911051
 10
191.5
 20
116.80684623763274
 10
189.5034706607674
 20
113.375
 10
184.5
 20
114.7502583445054
 10
183.6918436373789
 20
113.125
 10
180.5
 20
111.78040922882792
 10
179.53694368327515
 20
110.375
 10
180.75
 20
109.80338474591676
 10
183.75
 20
111.34678993061185
 10
190.5
 20
109.04321735432138
 10
191.5
 20
110.350915582594
 10
193.0
 20
109.2096766655866
 10
193.80450413260633
 20
109.375
 10
192.67623670350096
 20
112.625
  0
LWPOLYLINE
  5
4C
330
17
100
AcDbEntity
  8
BAND_03
100
AcDbPolyline
 90
101
 70
1
 10
162.25
 20
170.40641820242098
 10
162.75
 20
171.60628568559378
 10
163.36950094205724
 20
168.625
 10
164.5
 20
167.276716113073
 10
165.0
 20
170.89905546726817
 10
167.0
 20
169.00593807436732
 10
166.75
 20
171.77773232584718
 10
168.75
 20
173.6452268268417
 10
170.0
 20
173.34891006572343
 10
171.25
 20
171.8591703167355
 10
173.25
 20
172.0786513605879
 10
174.0
 20
172.79537479305475
 10
176.25
 20
172.19213994953094
 10
177.5
 20
172.58415866839601
 10
178.52877092263557
 20
172.125
 10
180.0
 20
169.98554415905303
 10
181.5
 20
171.74335366067564
 10
182.5
 20
171.60425587706047
 10
183.0
 20
172.6357140009568
 10
185.25
 20
171.41379108646947
 10
186.0
 20
174.18050131008664
 10
188.25
 20
174.83281833971745
 10
188.87896144114725
 20
175.625
 10
188.6287997126789
 20
177.625
 10
188.0
 20
177.98102162613944
 10
185.75
 20
175.8884436666276
 10
184.5
 20
176.4787916914765
 10
183.5
 20
176.1181890822777
 10
182.5
 20
176.4466017874779
 10
182.2603146521766
 20
177.875
 10
181.0
 20
178.33068058964506
 10
180.0
 20
177.72351138230988
 10
179.25
 20
179.0185581075704
 10
178.0
 20
178.8110403223007
 10
177.5
 20
177.73140932541946
 10
176.5
 20
178.91682698589096
 10
175.75
 20
178.3148825579995
 10
173.5
 20
179.16732844254943
 10
172.75
 20
178.2348176863287
 10
171.25
 20
178.33221786599938
 10
170.25
 20
179.0572905125421
 10
168.25
 20
178.6889559875434
 10
166.0
 20
180.8080963256757
 10
162.2800811381439
 20
181.375
 10
162.34211836428113
 20
183.375
 10
161.5
 20
184.50342944654662
 10
163.5
 20
182.79209280746534
 10
164.5
 20
183.01380793000138
 10
166.0
 20
182.0990761545467
 10
166.26759043960843
 20
182.875
 10
164.78476491699112
 20
187.625
 10
162.85874902716523
 20
188.125
 10
163.40289368421048
 20
189.375
 10
163.23120536268328
 20
194.125
 10
162.5
 20
195.5481554653765
 10
160.76788515689282
 20
195.625
 10
161.20230338756775
 20
196.875
 10
160.8864445444732
 20
199.125
 10
159.5
 20
200.71879859433182
 10
157.75
 20
199.27525797092392
 10
157.14108254919108
 20
197.625
 10
158.36648394438345
 20
194.125
 10
157.45557849166042
 20
192.125
 10
158.83293398648735
 20
182.125
 10
157.13319074631215
 20
187.625
 10
155.82015042631423
 20
189.375
 10
156.15699674906654
 20
190.875
 10
154.92267620039522
 20
194.375
 10
153.75
 20
196.55804230549603
 10
152.25
 20
197.17622349611935
 10
151.29136203235865
 20
196.125
 10
151.34087921720675
 20
194.375
 10
150.55278899787135
 20
192.625
 10
150.61569917759462
 20
185.375
 10
151.54927747561388
 20
182.125
 10
151.0
 20
181.98804945530503
 10
148.75
 20
183.88561446390486
 10
147.84856924466112
 20
183.625
 10
147.81605806979852
 20
182.375
 10
148.5
 20
180.3269642407454
 10
149.75
 20
179.2254203680203
 10
150.4016501377544
 20
176.875
 10
149.94959424598517
 20
174.375
 10
151.5
 20
169.31970501322888
 10
152.0
 20
169.3480606994346
 10
152.25
 20
170.93214433469512
 10
153.0
 20
170.9980452564891
 10
154.0
 20
172.33974415722378
 10
154.75
 20
170.05959847224963
 10
155.75
 20
169.40250811547008
 10
156.5
 20
166.83731776169347
 10
157.53175222967903
 20
169.375
 10
156.96445571455894
 20
171.125
 10
157.4961562631775
 20
173.375
 10
157.0
 20
176.23255191944617
 10
159.10475991570823
 20
168.875
 10
159.0
 20
166.50126145751875
 10
159.79224829117757
 20
168.125
 10
159.5
 20
177.86484393940117
 10
160.5
 20
176.72970394893537
 10
161.75
 20
170.8401440239334
  0
LWPOLYLINE
  5
4D
330
17
100
AcDbEntity
  8
BAND_03
100
AcDbPolyline
 90
7
 70
1
 10
183.39499871109322
 20
230.125
 10
184.75
 20
230.03340289678067
 10
186.5
 20
226.86181533455027
 10
187.22411287333443
 20
228.625
 10
186.5
 20
232.64257706167527
 10
184.75
 20
232.7670430247281
 10
182.58331292750222
 20
231.375
  0
LWPOLYLINE
  5
4E
330
17
100
AcDbEntity
  8
BAND_03
100
AcDbPolyline
 90
7
 70
1
 10
137.5
 20
205.91789305769026
 10
138.50761388631736
 20
205.625
 10
139.5
 20
203.75152378520337
 10
140.3070831510767
 20
204.125
 10
139.75
 20
207.92222540597754
 10
135.93865138632992
 20
206.125
 10
136.5
 20
205.13217610632887
  0
LWPOLYLINE
  5
4F
330
17
100
AcDbEntity
  8
BAND_03
100
AcDbPolyline
 90
29
 70
1
 10
125.5
 20
167.30749257360355
 10
126.75
 20
166.28669061825275
 10
126.99995030241267
 20
167.375
 10
126.45801513157227
 20
170.375
 10
125.42916912894458
 20
172.375
 10
126.0
 20
174.3491453315154
 10
126.81483981599548
 20
175.125
 10
127.50519457650994
 20
179.375
 10
126.49782928824024
 20
182.625
 10
126.78939785212896
 20
184.125
 10
126.21294243554928
 20
185.125
 10
124.64994224447751
 20
185.625
 10
124.13972635537473
 20
186.875
 10
124.62175555933844
 20
189.125
 10
123.25
 20
190.27775358400112
 10
122.08531174161017
 20
187.625
 10
123.0
 20
176.71562943122737
 10
123.47315091108973
 20
177.375
 10
123.17939293964231
 20
178.875
 10
124.0
 20
179.92032796457022
 10
124.43514250123886
 20
179.375
 10
122.77466828095086
 20
174.125
 10
124.23647154406609
 20
169.875
 10
123.4691176219593
 20
163.875
 10
124.122501062455
 20
160.875
 10
126.0
 20
158.39377465714824
 10
125.42642728773883
 20
161.125
 10
126.1218581965656
 20
163.625
 10
124.86209924865875
 20
166.375
  0
LWPOLYLINE
  5
50
330
17
100
AcDbEntity
  8
BAND_03
100
AcDbPolyline
 90
30
 70
1
 10
105.75
 20
137.93063881696872
 10
104.0
 20
139.8483790853515
 10
102.97252183643653
 20
143.625
 10
101.5
 20
143.9200209970267
 10
101.25
 20
142.76644268026547
 10
100.25
 20
143.9640933164697
 10
98.25
 20
142.9156253314311
 10
96.75
 20
143.52976763679175
 10
93.0953152797902
 20
142.125
 10
94.5
 20
138.84059159712695
 10
98.98125650767784
 20
134.625
 10
100.25
 20
132.25533549289253
 10
101.75
 20
130.85508476000857
 10
102.75
 20
130.43571126536892
 10
103.2742823812893
 20
131.875
 10
101.25
 20
132.07516874452645
 10
101.25
 20
133.24645050137696
 10
102.46216199407087
 20
133.625
 10
102.20673293066712
 20
134.375
 10
104.0
 20
134.74716415375366
 10
104.39175544200012
 20
132.125
 10
108.67466970153339
 20
131.125
 10
110.0971960597465
 20
129.625
 10
109.5738480803442
 20
128.375
 10
112.0
 20
127.7660876409167
 10
115.25
 20
124.65557601262489
 10
115.51403725955298
 20
125.125
 10
113.42726955611754
 20
127.375
 10
110.5
 20
134.71386256886169
 10
107.75
 20
137.72118794005488
  0
LWPOLYLINE
  5
51
330
17
100
AcDbEntity
  8
BAND_03
100
AcDbPolyline
 90
8
 70
1
 10
108.14723666880442
 20
208.625
 10
107.84228477578715
 20
206.875
 10
108.96261376769165
 20
198.625
 10
110.0
 20
197.17010073133326
 10
110.52077145244915
 20
198.875
 10
110.23699348795972
 20
201.375
 10
110.99654776159755
 20
208.125
 10
109.75
 20
210.43268375994046
  0
LWPOLYLINE
  5
52
330
17
100
AcDbEntity
  8
BAND_03
100
AcDbPolyline
 90
7
 70
1
 10
108.74535969750502
 20
217.375
 10
108.08000371816324
 20
215.625
 10
109.5
 20
214.7004726898644
 10
110.37261618172994
 20
216.125
 10
109.27543102074635
 20
221.625
 10
109.0
 20
221.83020480019283
 10
107.96330606195644
 20
219.875
  0
LWPOLYLINE
  5
53
330
17
100
AcDbEntity
  8
BAND_03
100
AcDbPolyline
 90
42
 70
1
 10
105.75
 20
173.25322466307057
 10
106.09403702967754
 20
176.625
 10
103.34240067343461
 20
179.125
 10
103.4294155654675
 20
180.875
 10
101.38778280125331
 20
182.375
 10
100.72327134216297
 20
184.875
 10
102.75
 20
185.45378617889872
 10
103.63013615539414
 20
184.625
 10
103.65115459142142
 20
180.625
 10
105.5
 20
179.59819843236275
 10
104.38976027427603
 20
183.125
 10
105.25
 20
182.2320963006972
 10
105.70676576114813
 20
182.875
 10
103.78210738428339
 20
184.875
 10
105.25
 20
185.49066092466654
 10
105.6545922505741
 20
188.125
 10
105.25
 20
188.7457565906338
 10
103.75
 20
188.33802579303847
 10
102.75
 20
189.11396576515568
 10
101.75
 20
188.0857536680527
 10
101.0
 20
188.30495725312085
 10
101.75
 20
190.58042779856197
 10
103.95259882599086
 20
190.625
 10
102.45392723193841
 20
192.625
 10
102.4250875718089
 20
194.125
 10
101.0
 20
194.70936983560932
 10
99.0
 20
193.94189360250812
 10
97.29449913290563
 20
190.375
 10
98.71021250753239
 20
184.375
 10
97.16853520372673
 20
180.125
 10
97.512868866231
 20
177.125
 10
96.37905922684371
 20
173.875
 10
96.42610911813094
 20
172.375
 10
98.0
 20
168.59300338154816
 10
100.75
 20
169.0180428492303
 10
102.0
 20
170.3300136322327
 10
102.5
 20
168.3578654641312
 10
103.0
 20
168.293393897694
 10
103.2419454280733
 20
169.875
 10
105.6900432604868
 20
170.875
 10
105.75
 20
171.634497933605
 10
104.27374169278995
 20
173.375
  0
LWPOLYLINE
  5
54
330
17
100
AcDbEntity
  8
BAND_03
100
AcDbPolyline
 90
25
 70
1
 10
102.5
 20
214.3295983760317
 10
103.81760534406838
 20
214.125
 10
102.5917549405251
 20
218.375
 10
102.8950352383802
 20
220.875
 10
102.25
 20
221.91608628106474
 10
101.25
 20
220.90382201179554
 10
100.75
 20
221.56832967528962
 10
100.25
 20
221.2652691933112
 10
98.41277484767221
 20
215.875
 10
97.9497925097422
 20
212.125
 10
99.53744188072777
 20
211.125
 10
97.97572374147113
 20
210.125
 10
98.64002656797983
 20
208.625
 10
97.95603094589181
 20
206.375
 10
99.08986142346869
 20
205.875
 10
97.63919655087311
 20
204.875
 10
97.54322037585418
 20
201.625
 10
99.0
 20
198.50466144993825
 10
101.5
 20
197.59090505556185
 10
103.5
 20
198.74034942201857
 10
105.25
 20
197.27254119306568
 10
105.65572185454565
 20
199.125
 10
104.36664021769178
 20
210.125
 10
102.49234966064775
 20
211.125
 10
102.00340728664585
 20
212.875
  0
LWPOLYLINE
  5
55
330
17
100
AcDbEntity
  8
BAND_03
100
AcDbPolyline
 90
10
 70
1
 10
95.04251474903256
 20
213.875
 10
94.02819857233646
 20
209.125
 10
94.60196463286364
 20
206.375
 10
93.68282545626636
 20
201.125
 10
94.0
 20
199.9007860848909
 10
95.03015969389456
 20
199.625
 10
95.5
 20
198.198443784784
 10
96.9842871227463
 20
202.375
 10
97.07295902154368
 20
212.375
 10
96.25
 20
215.7738561141648
  0
LWPOLYLINE
  5
56
330
17
100
AcDbEntity
  8
BAND_03
100
AcDbPolyline
 90
244
 70
1
 10
461.84516579642474
 20
243.375
 10
464.75544886535266
 20
247.25
 10
464.66559086047266
 20
251.375
 10
465.04866825387023
 20
252.875
 10
466.0133137210086
 20
255.0
 10
466.79334116875333
 20
259.125
 10
467.90760453977134
 20
262.375
 10
471.0
 20
266.81582447656024
 10
475.56834995758885
 20
269.125
 10
475.45486793714485
 20
271.125
 10
476.78096371169727
 20
272.625
 10
476.802798879256
 20
275.625
 10
475.75
 20
278.7367124094319
 10
475.1779762576133
 20
278.625
 10
474.5
 20
276.5780532676208
 10
473.4755169833262
 20
276.625
 10
474.7176375593888
 20
278.625
 10
475.25
 20
283.35767022149304
 10
474.6477621974645
 20
281.375
 10
473.75
 20
280.65625113972067
 10
473.1636008709362
 20
280.875
 10
473.8386718866964
 20
281.625
 10
473.16154537683855
 20
282.625
 10
473.25
 20
284.2122527283294
 10
472.0
 20
282.56311037708815
 10
469.6048682304912
 20
282.125
 10
469.68371493371484
 20
283.375
 10
471.0653357706369
 20
284.125
 10
470.75
 20
284.6565166455513
 10
468.25
 20
284.9301031773948
 10
466.25
 20
281.999045853367
 10
465.840138390481
 20
282.625
 10
466.59500238626543
 20
284.625
 10
466.25
 20
284.97252800867363
 10
465.0
 20
282.258021134837
 10
463.25
 20
282.50657260009643
 10
464.9829555084746
 20
285.375
 10
465.4346506728286
 20
287.625
 10
463.8902780183614
 20
287.625
 10
461.0
 20
284.693437671609
 10
461.0648877049099
 20
287.625
 10
459.3477458379781
 20
288.375
 10
460.4113635239415
 20
289.375
 10
459.5
 20
290.52982514386895
 10
458.8804906583473
 20
290.125
 10
458.5
 20
288.1680098315717
 10
456.75
 20
287.8986428205088
 10
455.7773060564555
 20
288.625
 10
455.41259980836793
 20
289.625
 10
456.0
 20
290.1532362739584
 10
457.25
 20
289.35546416752754
 10
458.75
 20
290.5838969216418
 10
457.5
 20
291.7703757721345
 10
456.25
 20
291.15814332791524
 10
455.5
 20
291.90342653763844
 10
453.75
 20
291.1359188291707
 10
451.25
 20
292.644222351113
 10
451.0
 20
291.0818364353388
 10
452.0593486907104
 20
290.625
 10
452.3322175508604
 20
289.625
 10
450.75
 20
289.0966995649315
 10
449.75
 20
287.9725638671184
 10
448.5
 20
288.35455464434193
 10
447.0
 20
290.12215600134573
 10
446.7979927116316
 20
292.125
 10
445.5
 20
293.55916097084673
 10
445.0
 20
293.36040594426674
 10
444.8539890189432
 20
290.875
 10
443.75
 20
289.66693748144814
 10
439.8483122752006
 20
290.125
 10
438.70306884811805
 20
292.625
 10
438.4578891403332
 20
295.125
 10
439.9747356530652
 20
301.125
 10
442.0
 20
303.9593705373919
 10
446.75
 20
308.83720647177375
 10
448.25
 20
309.6385867427223
 10
449.0
 20
311.4871078104139
 10
451.5
 20
309.72071303845985
 10
454.0
 20
310.2214530180461
 10
455.75
 20
309.6764560275087
 10
457.25
 20
311.54824752625393
 10
458.75
 20
312.4813267905304
 10
460.0
 20
312.49656686509104
 10
462.0
 20
314.2965989173731
 10
462.8421181844133
 20
315.625
 10
462.5
 20
317.345319998407
 10
460.75
 20
314.9055356892441
 10
457.9211595301251
 20
316.625
 10
456.0
 20
319.63033010166873
 10
458.0
 20
320.12380661871737
 10
459.25
 20
319.7324405934095
 10
461.25
 20
317.64667466513856
 10
462.25
 20
317.89010970291633
 10
464.0
 20
320.0795274864281
 10
466.5
 20
319.6407601449523
 10
466.86677265042647
 20
322.125
 10
468.25
 20
323.5799968781706
 10
468.427918118467
 20
324.875
 10
467.25
 20
324.2695015714155
 10
466.5
 20
324.587943566528
 10
465.5566858457063
 20
325.625
 10
465.65488112631164
 20
327.125
 10
467.0
 20
327.417304704838
 10
469.75
 20
331.1011401229626
 10
471.75
 20
331.7329177664077
 10
474.8917787402173
 20
331.375
 10
476.17415379815947
 20
334.875
 10
477.43956381433355
 20
335.625
 10
477.5488795530808
 20
338.625
 10
479.0
 20
339.5300958109715
 10
480.5
 20
339.1258297083937
 10
482.614160659665
 20
342.375
 10
482.5534569293358
 20
343.375
 10
483.2570471349354
 20
344.125
 10
483.27990532740415
 20
347.625
 10
484.15091687720377
 20
349.125
 10
486.75
 20
349.9303318650056
 10
487.5
 20
350.77235324864574
 10
488.5
 20
350.4503143689618
 10
489.0
 20
351.3894803827985
 10
489.52302416387283
 20
351.375
 10
489.3884937322682
 20
350.375
 10
490.0
 20
349.4923355015343
 10
492.2062939297125
 20
349.125
 10
490.5
 20
348.1863205655269
 10
488.75
 20
349.1713601006151
 10
488.75
 20
348.0412617508231
 10
492.5
 20
346.2563234165634
 10
494.25
 20
347.5539461730638
 10
494.75
 20
343.81902590715697
 10
496.25
 20
343.536300436205
 10
496.6310740152244
 20
342.625
 10
496.7520687560892
 20
338.125
 10
498.16120133250047
 20
334.375
 10
497.94314633994645
 20
328.875
 10
499.6116839721641
 20
325.375
 10
498.7178430910085
 20
321.375
 10
499.4254673353741
 20
320.125
 10
498.4938944127119
 20
316.875
 10
497.03391256359873
 20
315.375
 10
498.0
 20
314.69409951212333
 10
499.75
 20
316.24901126882656
 10
500.26577793167127
 20
314.375
 10
498.12081596278165
 20
312.875
 10
500.05529623759793
 20
311.375
 10
503.75
 20
310.73653748344907
 10
505.37802965465886
 20
311.125
 10
506.24768312102543
 20
312.125
 10
507.23474684630105
 20
315.875
 10
508.0
 20
316.53094814227296
 10
509.5
 20
316.98329811347736
 10
517.25
 20
314.1157973798159
 10
520.7041950516546
 20
314.625
 10
523.2552108483358
 20
315.875
 10
528.0
 20
321.1020844337256
 10
531.5
 20
322.58130169912374
 10
531.9006651089152
 20
323.875
 10
531.4635441348646
 20
326.125
 10
532.1110521106486
 20
327.625
 10
536.9925816198099
 20
330.625
 10
539.8747309830276
 20
335.875
 10
537.521255055974
 20
337.875
 10
536.8873421610315
 20
339.125
 10
537.8372074173315
 20
341.125
 10
538.5266552487446
 20
345.125
 10
536.2309971041036
 20
349.625
 10
530.0
 20
353.9335502944701
 10
526.25
 20
352.4470525880539
 10
519.75
 20
351.7472306675509
 10
519.0
 20
352.04708992612143
 10
517.6382796928831
 20
354.125
 10
515.0
 20
360.69911774724454
 10
509.63622712676437
 20
367.125
 10
506.0
 20
366.50186139373005
 10
503.0
 20
367.18856215825855
 10
501.25
 20
366.4954672465529
 10
500.75
 20
366.68072344080826
 10
500.010781152461
 20
367.375
 10
496.0353135085654
 20
373.125
 10
495.3781075590926
 20
375.125
 10
495.1952967611626
 20
378.875
 10
492.51948602170916
 20
379.625
 10
494.84272642595045
 20
379.75
 10
495.625
 20
378.8749771821695
 10
495.875
 20
374.0
 10
499.875
 20
367.75
 10
500.875
 20
366.75
 10
501.875
 20
366.75
 10
502.5341696965459
 20
367.5
 10
505.625
 20
366.75
 10
508.7198743158117
 20
367.75
 10
509.875
 20
367.5
 10
515.375
 20
361.0
 10
517.625
 20
355.0
 10
519.375
 20
352.0
 10
526.375
 20
352.75
 10
528.7783866840322
 20
354.25
 10
530.125
 20
354.3271936383571
 10
536.625
 20
350.0
 10
538.9299279500417
 20
345.25
 10
538.375
 20
341.0561844762929
 10
537.125
 20
339.25
 10
540.625
 20
335.75
 10
539.375
 20
334.5
 10
537.625
 20
330.5
 10
532.375
 20
327.5
 10
531.875
 20
326.5
 10
532.375
 20
323.2488255359205
 10
531.875
 20
322.2766229485678
 10
527.375
 20
320.25
 10
525.875
 20
317.6686411583737
 10
523.125
 20
315.25
 10
520.125
 20
314.0
 10
516.625
 20
313.75
 10
509.375
 20
316.75
 10
507.375
 20
315.75
 10
506.625
 20
311.77059897603976
 10
505.375
 20
310.5
 10
499.0
 20
310.4963206359487
 10
495.64147573904927
 20
308.375
 10
491.60449196859173
 20
303.125
 10
491.02594754353726
 20
299.625
 10
489.3299085986256
 20
296.625
 10
488.5810941787998
 20
293.625
 10
487.1818998759594
 20
292.5
 10
483.75
 20
291.4097543663183
 10
479.5
 20
287.91075095302995
 10
477.1397456261304
 20
284.875
 10
476.230959304411
 20
281.375
 10
477.625
 20
272.81097640097585
 10
476.875
 20
269.99616816086126
 10
476.02399024656694
 20
268.5
 10
471.375
 20
266.5
 10
468.375
 20
262.25
 10
467.375
 20
260.5
 10
466.375
 20
255.0
 10
464.875
 20
251.75
 10
464.875
 20
246.5
 10
461.875
 20
243.25
 10
460.625
 20
238.5
 10
453.3763881497001
 20
232.5
 10
456.0
 20
235.2670663470638
 10
459.2720190229763
 20
237.625
 10
460.5
 20
239.02498833643716
  0
LWPOLYLINE
  5
57
330
17
100
AcDbEntity
  8
BAND_03
100
AcDbPolyline
 90
72
 70
1
 10
267.5
 20
328.1438829720429
 10
266.2285600676123
 20
333.875
 10
266.923620311448
 20
335.125
 10
265.25
 20
336.74182719246767
 10
263.0
 20
337.14116547946685
 10
263.4394926162088
 20
336.125
 10
262.7219868687821
 20
334.875
 10
263.59962533878
 20
333.125
 10
263.26648814023486
 20
331.875
 10
262.5
 20
331.66175293953944
 10
261.75
 20
334.4356832436563
 10
260.0274165078921
 20
335.875
 10
259.8917128391288
 20
337.125
 10
257.5
 20
339.1030449999506
 10
255.75
 20
339.6322540492489
 10
254.0
 20
338.8694114478137
 10
253.49614178470512
 20
340.125
 10
249.75
 20
340.1227494773612
 10
248.33632967535314
 20
341.375
 10
250.1718898826371
 20
342.25
 10
258.25
 20
342.8341341203349
 10
268.0
 20
341.74217208348347
 10
272.75
 20
344.51995407255805
 10
283.25
 20
344.6963828898201
 10
286.9501445348195
 20
347.625
 10
288.5
 20
355.56941599564817
 10
289.9556609373443
 20
356.375
 10
290.93143066840315
 20
353.375
 10
291.25
 20
348.4750794657406
 10
293.5
 20
349.37013000396763
 10
297.52987880755285
 20
348.875
 10
292.57695054137594
 20
348.125
 10
292.64938368456404
 20
346.875
 10
291.61150379263563
 20
345.875
 10
292.35761870556723
 20
343.125
 10
291.25
 20
339.1285105931063
 10
288.8262872005379
 20
339.875
 10
289.85905050719214
 20
342.375
 10
289.25
 20
343.63283258606634
 10
288.25
 20
343.04449010399196
 10
286.75
 20
343.57288785273414
 10
284.0
 20
343.3821383526206
 10
282.67678882012706
 20
342.125
 10
283.2509850173368
 20
340.125
 10
282.75
 20
338.5260060569203
 10
281.5
 20
339.3697585281201
 10
279.75
 20
338.96096500956554
 10
280.66504625670774
 20
340.625
 10
279.6548043133493
 20
341.625
 10
278.25
 20
341.88095771953397
 10
276.2457179979251
 20
340.125
 10
276.2773316446453
 20
337.375
 10
276.9640182385342
 20
336.625
 10
275.8171851720372
 20
335.625
 10
278.5
 20
333.1564811573468
 10
278.5
 20
332.52681951023624
 10
276.96380691807974
 20
333.375
 10
274.75
 20
335.8518888524685
 10
275.52790936920894
 20
337.125
 10
273.75
 20
340.44749948917047
 10
271.0
 20
340.59682415366126
 10
268.75
 20
339.7391935633834
 10
267.5
 20
340.20404731654406
 10
267.28250349624443
 20
339.375
 10
269.6543625654081
 20
334.875
 10
268.82604573878274
 20
333.625
 10
269.63778916570357
 20
329.125
 10
272.29262621361306
 20
327.375
 10
270.75
 20
325.69219803947703
 10
267.8447710519711
 20
326.125
 10
269.37220722066627
 20
327.125
 10
268.5
 20
328.1213549525264
  0
LWPOLYLINE
  5
58
330
17
100
AcDbEntity
  8
BAND_03
100
AcDbPolyline
 90
17
 70
1
 10
377.72266574700177
 20
380.125
 10
376.8444709593457
 20
382.875
 10
378.09044223765517
 20
386.875
 10
381.25
 20
386.64941138120315
 10
382.0
 20
387.55637553844366
 10
383.5
 20
387.62828747250694
 10
383.96769807009724
 20
386.125
 10
382.25
 20
386.0703121145918
 10
380.84756086476136
 20
384.625
 10
381.0
 20
384.0983326948429
 10
381.5
 20
384.27250575676226
 10
381.8755164038618
 20
382.625
 10
380.5993653481328
 20
382.375
 10
379.08726660950776
 20
376.625
 10
376.25
 20
378.84379131397594
 10
374.6969434035425
 20
378.625
 10
375.7619883946991
 20
379.625
  0
LWPOLYLINE
  5
59
330
17
100
AcDbEntity
  8
BAND_03
100
AcDbPolyline
 90
13
 70
1
 10
438.0
 20
388.22058572022866
 10
435.6509541873821
 20
389.625
 10
436.10669805972907
 20
390.625
 10
438.5
 20
390.7060182517961
 10
440.5
 20
392.5426852643324
 10
442.5
 20
392.3282488836235
 10
443.875
 20
389.8173102335021
 10
444.08346253077417
 20
387.125
 10
445.7661140700302
 20
384.625
 10
444.0
 20
383.2671050673413
 10
443.6986088736743
 20
387.125
 10
441.75
 20
389.29249158067523
 10
439.25
 20
389.60218502691396
  0
LWPOLYLINE
  5
5A
330
17
100
AcDbEntity
  8
BAND_03
100
AcDbPolyline
 90
15
 70
1
 10
378.7527515587737
 20
395.375
 10
379.25
 20
397.03376809989965
 10
383.75
 20
399.01231228453884
 10
385.75
 20
398.21026131900607
 10
385.8955352983285
 20
397.375
 10
382.747416977027
 20
396.125
 10
382.7283523752254
 20
394.375
 10
379.7212214504309
 20
394.125
 10
379.27052076257417
 20
392.625
 10
377.6465929149565
 20
391.375
 10
376.4117520262115
 20
387.375
 10
375.5852059635104
 20
387.625
 10
376.3761047493124
 20
390.125
 10
375.3716040616457
 20
393.375
 10
377.59910102381536
 20
394.125
  0
ENDSEC
  0
SECTION
  2
OBJECTS
  0
DICTIONARY
  5
A
330
0
100
AcDbDictionary
281
1
  3
ACAD_COLOR
350
B
  3
ACAD_GROUP
350
C
  3
ACAD_LAYOUT
350
D
  3
ACAD_MATERIAL
350
E
  3
ACAD_MLEADERSTYLE
350
F
  3
ACAD_MLINESTYLE
350
10
  3
ACAD_PLOTSETTINGS
350
11
  3
ACAD_PLOTSTYLENAME
350
12
  3
ACAD_SCALELIST
350
14
  3
ACAD_TABLESTYLE
350
15
  3
ACAD_VISUALSTYLE
350
16
  3
EZDXF_META
350
2D
  0
DICTIONARY
  5
B
330
A
100
AcDbDictionary
281
1
  0
DICTIONARY
  5
C
330
A
100
AcDbDictionary
281
1
  0
DICTIONARY
  5
D
330
A
100
AcDbDictionary
281
1
  3
Model
350
1A
  3
Layout1
350
1E
  0
DICTIONARY
  5
E
330
A
100
AcDbDictionary
281
1
  3
ByBlock
350
1F
  3
ByLayer
350
20
  3
Global
350
21
  0
DICTIONARY
  5
F
330
A
100
AcDbDictionary
281
1
  3
Standard
350
2C
  0
DICTIONARY
  5
10
330
A
100
AcDbDictionary
281
1
  3
Standard
350
22
  0
DICTIONARY
  5
11
330
A
100
AcDbDictionary
281
1
  0
ACDBDICTIONARYWDFLT
  5
12
330
A
100
AcDbDictionary
281
1
  3
Normal
350
13
100
AcDbDictionaryWithDefault
340
13
  0
ACDBPLACEHOLDER
  5
13
330
12
  0
DICTIONARY
  5
14
330
A
100
AcDbDictionary
281
1
  0
DICTIONARY
  5
15
330
A
100
AcDbDictionary
281
1
  0
DICTIONARY
  5
16
330
A
100
AcDbDictionary
281
1
  0
LAYOUT
  5
1A
330
D
100
AcDbPlotSettings
  1

  4
A3
  6

 40
7.5
 41
20.0
 42
7.5
 43
20.0
 44
420.0
 45
297.0
 46
0.0
 47
0.0
 48
0.0
 49
0.0
140
0.0
141
0.0
142
1.0
143
1.0
 70
1024
 72
1
 73
0
 74
5
  7

 75
16
 76
0
 77
2
 78
300
147
1.0
148
0.0
149
0.0
100
AcDbLayout
  1
Model
 70
1
 71
0
 10
0.0
 20
0.0
 11
420.0
 21
297.0
 12
0.0
 22
0.0
 32
0.0
 14
1e+20
 24
1e+20
 34
1e+20
 15
-1e+20
 25
-1e+20
 35
-1e+20
146
0.0
 13
0.0
 23
0.0
 33
0.0
 16
1.0
 26
0.0
 36
0.0
 17
0.0
 27
1.0
 37
0.0
 76
1
330
17
  0
LAYOUT
  5
1E
330
D
100
AcDbPlotSettings
  1

  4
A3
  6

 40
7.5
 41
20.0
 42
7.5
 43
20.0
 44
420.0
 45
297.0
 46
0.0
 47
0.0
 48
0.0
 49
0.0
140
0.0
141
0.0
142
1.0
143
1.0
 70
0
 72
1
 73
0
 74
5
  7

 75
16
 76
0
 77
2
 78
300
147
1.0
148
0.0
149
0.0
100
AcDbLayout
  1
Layout1
 70
1
 71
1
 10
0.0
 20
0.0
 11
420.0
 21
297.0
 12
0.0
 22
0.0
 32
0.0
 14
1e+20
 24
1e+20
 34
1e+20
 15
-1e+20
 25
-1e+20
 35
-1e+20
146
0.0
 13
0.0
 23
0.0
 33
0.0
 16
1.0
 26
0.0
 36
0.0
 17
0.0
 27
1.0
 37
0.0
 76
1
330
1B
  0
MATERIAL
  5
1F
102
{ACAD_REACTORS
330
E
102
}
330
E
100
AcDbMaterial
  1
ByBlock
  2

 70
0
 40
1.0
 71
1
 41
1.0
 91
-1023410177
 42
1.0
 72
1
  3

 73
1
 74
1
 75
1
 44
0.5
 73
0
 45
1.0
 46
1.0
 77
1
  4

 78
1
 79
1
170
1
 48
1.0
171
1
  6

172
1
173
1
174
1
140
1.0
141
1.0
175
1
  7

176
1
177
1
178
1
143
1.0
179
1
  8

270
1
271
1
272
1
145
1.0
146
1.0
273
1
  9

274
1
275
1
276
1
 42
1.0
 72
1
  3

 73
1
 74
1
 75
1
 94
63
  0
MATERIAL
  5
20
102
{ACAD_REACTORS
330
E
102
}
330
E
100
AcDbMaterial
  1
ByLayer
  2

 70
0
 40
1.0
 71
1
 41
1.0
 91
-1023410177
 42
1.0
 72
1
  3

 73
1
 74
1
 75
1
 44
0.5
 73
0
 45
1.0
 46
1.0
 77
1
  4

 78
1
 79
1
170
1
 48
1.0
171
1
  6

172
1
173
1
174
1
140
1.0
141
1.0
175
1
  7

176
1
177
1
178
1
143
1.0
179
1
  8

270
1
271
1
272
1
145
1.0
146
1.0
273
1
  9

274
1
275
1
276
1
 42
1.0
 72
1
  3

 73
1
 74
1
 75
1
 94
63
  0
MATERIAL
  5
21
102
{ACAD_REACTORS
330
E
102
}
330
E
100
AcDbMaterial
  1
Global
  2

 70
0
 40
1.0
 71
1
 41
1.0
 91
-1023410177
 42
1.0
 72
1
  3

 73
1
 74
1
 75
1
 44
0.5
 73
0
 45
1.0
 46
1.0
 77
1
  4

 78
1
 79
1
170
1
 48
1.0
171
1
  6

172
1
173
1
174
1
140
1.0
141
1.0
175
1
  7

176
1
177
1
178
1
143
1.0
179
1
  8

270
1
271
1
272
1
145
1.0
146
1.0
273
1
  9

274
1
275
1
276
1
 42
1.0
 72
1
  3

 73
1
 74
1
 75
1
 94
63
  0
MLINESTYLE
  5
22
102
{ACAD_REACTORS
330
10
102
}
330
10
100
AcDbMlineStyle
  2
Standard
 70
0
  3

 62
256
 51
90.0
 52
90.0
 71
2
 49
0.5
 62
256
  6
BYLAYER
 49
-0.5
 62
256
  6
BYLAYER
  0
MLEADERSTYLE
  5
2C
102
{ACAD_REACTORS
330
F
102
}
330
F
100
AcDbMLeaderStyle
179
2
170
2
171
1
172
0
 90
2
 40
0.0
 41
0.0
173
1
 91
-1056964608
 92
-2
290
1
 42
2.0
291
1
 43
8.0
  3
Standard
 44
4.0
300

342
29
174
1
175
1
176
0
178
1
 93
-1056964608
 45
4.0
292
0
297
0
 46
4.0
 94
-1056964608
 47
1.0
 49
1.0
140
1.0
294
1
141
0.0
177
0
142
1.0
295
0
296
0
143
3.75
271
0
272
9
273
9
  0
DICTIONARY
  5
2D
330
A
100
AcDbDictionary
280
1
281
1
  3
CREATED_BY_EZDXF
350
2E
  3
WRITTEN_BY_EZDXF
350
5D
  0
DICTIONARYVAR
  5
2E
330
2D
100
DictionaryVariables
280
0
  1
1.4.3 @ 2026-09-03T21:25:23.140193+00:00
  0
DICTIONARYVAR
  5
5D
330
2D
100
DictionaryVariables
280
0
  1
1.4.3 @ 2026-09-03T21:25:23.152356+00:00
  0
ENDSEC
  0
EOF
