  0
SECTION
  2
HEADER
  9
$ACADVER
  1
AC1024
  9
$ACADMAINTVER
 70
6
  9
$DWGCODEPAGE
  3
ANSI_1252
  9
$LASTSAVEDBY
  1
ezdxf
  9
$INSBASE
 10
0.0
 20
0.0
 30
0.0
  9
$EXTMIN
 10
1e+20
 20
1e+20
 30
1e+20
  9
$EXTMAX
 10
-1e+20
 20
-1e+20
 30
-1e+20
  9
$LIMMIN
 10
0.0
 20
0.0
  9
$LIMMAX
 10
420.0
 20
297.0
  9
$ORTHOMODE
 70
0
  9
$REGENMODE
 70
1
  9
$FILLMODE
 70
1
  9
$QTEXTMODE
 70
0
  9
$MIRRTEXT
 70
1
  9
$LTSCALE
 40
1.0
  9
$ATTMODE
 70
1
  9
$TEXTSIZE
 40
2.5
  9
$TRACEWID
 40
1.0
  9
$TEXTSTYLE
  7
Standard
  9
$CLAYER
  8
0
  9
$CELTYPE
  6
ByLayer
  9
$CECOLOR
 62
256
  9
$CELTSCALE
 40
1.0
  9
$DISPSILH
 70
0
  9
$DIMSCALE
 40
1.0
  9
$DIMASZ
 40
2.5
  9
$DIMEXO
 40
0.625
  9
$DIMDLI
 40
3.75
  9
$DIMRND
 40
0.0
  9
$DIMDLE
 40
0.0
  9
$DIMEXE
 40
1.25
  9
$DIMTP
 40
0.0
  9
$DIMTM
 40
0.0
  9
$DIMTXT
 40
2.5
  9
$DIMCEN
 40
2.5
  9
$DIMTSZ
 40
0.0
  9
$DIMTOL
 70
0
  9
$DIMLIM
 70
0
  9
$DIMTIH
 70
0
  9
$DIMTOH
 70
0
  9
$DIMSE1
 70
0
  9
$DIMSE2
 70
0
  9
$DIMTAD
 70
1
  9
$DIMZIN
 70
8
  9
$DIMBLK
  1

  9
$DIMASO
 70
1
  9
$DIMSHO
 70
1
  9
$DIMPOST
  1

  9
$DIMAPOST
  1

  9
$DIMALT
 70
0
  9
$DIMALTD
 70
3
  9
$DIMALTF
 40
0.03937007874
  9
$DIMLFAC
 40
1.0
  9
$DIMTOFL
 70
1
  9
$DIMTVP
 40
0.0
  9
$DIMTIX
 70
0
  9
$DIMSOXD
 70
0
  9
$DIMSAH
 70
0
  9
$DIMBLK1
  1

  9
$DIMBLK2
  1

  9
$DIMSTYLE
  2
ISO-25
  9
$DIMCLRD
 70
0
  9
$DIMCLRE
 70
0
  9
$DIMCLRT
 70
0
  9
$DIMTFAC
 40
1.0
  9
$DIMGAP
 40
0.625
  9
$DIMJUST
 70
0
  9
$DIMSD1
 70
0
  9
$DIMSD2
 70
0
  9
$DIMTOLJ
 70
0
  9
$DIMTZIN
 70
8
  9
$DIMALTZ
 70
0
  9
$DIMALTTZ
 70
0
  9
$DIMUPT
 70
0
  9
$DIMDEC
 70
2
  9
$DIMTDEC
 70
2
  9
$DIMALTU
 70
2
  9
$DIMALTTD
 70
3
  9
$DIMTXSTY
  7
Standard
  9
$DIMAUNIT
 70
0
  9
$DIMADEC
 70
0
  9
$DIMALTRND
 40
0.0
  9
$DIMAZIN
 70
0
  9
$DIMDSEP
 70
44
  9
$DIMATFIT
 70
3
  9
$DIMFRAC
 70
0
  9
$DIMLDRBLK
  1

  9
$DIMLUNIT
 70
2
  9
$DIMLWD
 70
-2
  9
$DIMLWE
 70
-2
  9
$DIMTMOVE
 70
0
  9
$DIMFXL
 40
1.0
  9
$DIMFXLON
 70
0
  9
$DIMJOGANG
 40
0.785398163397
  9
$DIMTFILL
 70
0
  9
$DIMTFILLCLR
 70
0
  9
$DIMARCSYM
 70
0
  9
$DIMLTYPE
  6

  9
$DIMLTEX1
  6

  9
$DIMLTEX2
  6

  9
$DIMTXTDIRECTION
 70
0
  9
$LUNITS
 70
2
  9
$LUPREC
 70
4
  9
$SKETCHINC
 40
1.0
  9
$FILLETRAD
 40
10.0
  9
$AUNITS
 70
0
  9
$AUPREC
 70
2
  9
$MENU
  1
.
  9
$ELEVATION
 40
0.0
  9
$PELEVATION
 40
0.0
  9
$THICKNESS
 40
0.0
  9
$LIMCHECK
 70
0
  9
$CHAMFERA
 40
0.0
  9
$CHAMFERB
 40
0.0
  9
$CHAMFERC
 40
0.0
  9
$CHAMFERD
 40
0.0
  9
$SKPOLY
 70
0
  9
$TDCREATE
 40
2461288.3092939816
  9
$TDUCREATE
 40
2458532.153996898
  9
$TDUPDATE
 40
2461288.3092939816
  9
$TDUUPDATE
 40
2458532.1544311
  9
$TDINDWG
 40
0.0
  9
$TDUSRTIMER
 40
0.0
  9
$USRTIMER
 70
1
  9
$ANGBASE
 50
0.0
  9
$ANGDIR
 70
0
  9
$PDMODE
 70
0
  9
$PDSIZE
 40
0.0
  9
$PLINEWID
 40
0.0
  9
$SPLFRAME
 70
0
  9
$SPLINETYPE
 70
6
  9
$SPLINESEGS
 70
8
  9
$HANDSEED
  5
60
  9
$SURFTAB1
 70
6
  9
$SURFTAB2
 70
6
  9
$SURFTYPE
 70
6
  9
$SURFU
 70
6
  9
$SURFV
 70
6
  9
$UCSBASE
  2

  9
$UCSNAME
  2

  9
$UCSORG
 10
0.0
 20
0.0
 30
0.0
  9
$UCSXDIR
 10
1.0
 20
0.0
 30
0.0
  9
$UCSYDIR
 10
0.0
 20
1.0
 30
0.0
  9
$UCSORTHOREF
  2

  9
$UCSORTHOVIEW
 70
0
  9
$UCSORGTOP
 10
0.0
 20
0.0
 30
0.0
  9
$UCSORGBOTTOM
 10
0.0
 20
0.0
 30
0.0
  9
$UCSORGLEFT
 10
0.0
 20
0.0
 30
0.0
  9
$UCSORGRIGHT
 10
0.0
 20
0.0
 30
0.0
  9
$UCSORGFRONT
 10
0.0
 20
0.0
 30
0.0
  9
$UCSORGBACK
 10
0.0
 20
0.0
 30
0.0
  9
$PUCSBASE
  2

  9
$PUCSNAME
  2

  9
$PUCSORG
 10
0.0
 20
0.0
 30
0.0
  9
$PUCSXDIR
 10
1.0
 20
0.0
 30
0.0
  9
$PUCSYDIR
 10
0.0
 20
1.0
 30
0.0
  9
$PUCSORTHOREF
  2

  9
$PUCSORTHOVIEW
 70
0
  9
$PUCSORGTOP
 10
0.0
 20
0.0
 30
0.0
  9
$PUCSORGBOTTOM
 10
0.0
 20
0.0
 30
0.0
  9
$PUCSORGLEFT
 10
0.0
 20
0.0
 30
0.0
  9
$PUCSORGRIGHT
 10
0.0
 20
0.0
 30
0.0
  9
$PUCSORGFRONT
 10
0.0
 20
0.0
 30
0.0
  9
$PUCSORGBACK
 10
0.0
 20
0.0
 30
0.0
  9
$USERI1
 70
0
  9
$USERI2
 70
0
  9
$USERI3
 70
0
  9
$USERI4
 70
0
  9
$USERI5
 70
0
  9
$USERR1
 40
0.0
  9
$USERR2
 40
0.0
  9
$USERR3
 40
0.0
  9
$USERR4
 40
0.0
  9
$USERR5
 40
0.0
  9
$WORLDVIEW
 70
1
  9
$SHADEDGE
 70
3
  9
$SHADEDIF
 70
70
  9
$TILEMODE
 70
1
  9
$MAXACTVP
 70
64
  9
$PINSBASE
 10
0.0
 20
0.0
 30
0.0
  9
$PLIMCHECK
 70
0
  9
$PEXTMIN
 10
1e+20
 20
1e+20
 30
1e+20
  9
$PEXTMAX
 10
-1e+20
 20
-1e+20
 30
-1e+20
  9
$PLIMMIN
 10
0.0
 20
0.0
  9
$PLIMMAX
 10
420.0
 20
297.0
  9
$UNITMODE
 70
0
  9
$VISRETAIN
 70
1
  9
$PLINEGEN
 70
0
  9
$PSLTSCALE
 70
1
  9
$TREEDEPTH
 70
3020
  9
$CMLSTYLE
  2
Standard
  9
$CMLJUST
 70
0
  9
$CMLSCALE
 40
20.0
  9
$PROXYGRAPHICS
 70
1
  9
$MEASUREMENT
 70
1
  9
$CELWEIGHT
370
-1
  9
$ENDCAPS
280
0
  9
$JOINSTYLE
280
0
  9
$LWDISPLAY
290
0
  9
$INSUNITS
 70
4
  9
$HYPERLINKBASE
  1

  9
$STYLESHEET
  1

  9
$XEDIT
290
1
  9
$CEPSNTYPE
380
0
  9
$PSTYLEMODE
290
1
  9
$FINGERPRINTGUID
  2
{CDCFF931-2D56-4A95-A296-5970E0F16FD6}
  9
$VERSIONGUID
  2
{750E10B5-36F5-4CFB-BA70-A4A6BB8E1F3A}
  9
$EXTNAMES
290
1
  9
$PSVPSCALE
 40
0.0
  9
$OLESTARTUP
290
0
  9
$SORTENTS
280
127
  9
$INDEXCTL
280
0
  9
$HIDETEXT
280
1
  9
$XCLIPFRAME
280
1
  9
$HALOGAP
280
0
  9
$OBSCOLOR
 70
257
  9
$OBSLTYPE
280
0
  9
$INTERSECTIONDISPLAY
280
0
  9
$INTERSECTIONCOLOR
 70
257
  9
$DIMASSOC
280
2
  9
$PROJECTNAME
  1

  9
$CAMERADISPLAY
290
0
  9
$LENSLENGTH
 40
50.0
  9
$CAMERAHEIGHT
 40
0.0
  9
$STEPSPERSEC
 40
24.0
  9
$STEPSIZE
 40
100.0
  9
$3DDWFPREC
 40
2.0
  9
$PSOLWIDTH
 40
0.005
  9
$PSOLHEIGHT
 40
0.08
  9
$LOFTANG1
 40
1.570796326795
  9
$LOFTANG2
 40
1.570796326795
  9
$LOFTMAG1
 40
0.0
  9
$LOFTMAG2
 40
0.0
  9
$LOFTPARAM
 70
7
  9
$LOFTNORMALS
280
1
  9
$LATITUDE
 40
37.795
  9
$LONGITUDE
 40
-122.394
  9
$NORTHDIRECTION
 40
0.0
  9
$TIMEZONE
 70
-8000
  9
$LIGHTGLYPHDISPLAY
280
1
  9
$TILEMODELIGHTSYNCH
280
1
  9
$CMATERIAL
347
20
  9
$SOLIDHIST
280
0
  9
$SHOWHIST
280
1
  9
$DWFFRAME
280
2
  9
$DGNFRAME
280
2
  9
$REALWORLDSCALE
290
1
  9
$INTERFERECOLOR
 62
256
  9
$CSHADOW
280
0
  9
$SHADOWPLANELOCATION
 40
0.0
  0
ENDSEC
  0
SECTION
  2
CLASSES
  0
CLASS
  1
ACDBDICTIONARYWDFLT
  2
AcDbDictionaryWithDefault
  3
ObjectDBX Classes
 90
0
 91
0
280
0
281
0
  0
CLASS
  1
SUN
  2
AcDbSun
  3
SCENEOE
 90
1153
 91
0
280
0
281
0
  0
CLASS
  1
VISUALSTYLE
  2
AcDbVisualStyle
  3
ObjectDBX Classes
 90
4095
 91
0
280
0
281
0
  0
CLASS
  1
MATERIAL
  2
AcDbMaterial
  3
ObjectDBX Classes
 90
1153
 91
0
280
0
281
0
  0
CLASS
  1
SCALE
  2
AcDbScale
  3
ObjectDBX Classes
 90
1153
 91
0
280
0
281
0
  0
CLASS
  1
TABLESTYLE
  2
AcDbTableStyle
  3
ObjectDBX Classes
 90
4095
 91
0
280
0
281
0
  0
CLASS
  1
MLEADERSTYLE
  2
AcDbMLeaderStyle
  3
ACDB_MLEADERSTYLE_CLASS
 90
4095
 91
0
280
0
281
0
  0
CLASS
  1
DICTIONARYVAR
  2
AcDbDictionaryVar
  3
ObjectDBX Classes
 90
0
 91
0
280
0
281
0
  0
CLASS
  1
CELLSTYLEMAP
  2
AcDbCellStyleMap
  3
ObjectDBX Classes
 90
1152
 91
0
280
0
281
0
  0
CLASS
  1
MENTALRAYRENDERSETTINGS
  2
AcDbMentalRayRenderSettings
  3
SCENEOE
 90
1024
 91
0
280
0
281
0
  0
CLASS
  1
ACDBDETAILVIEWSTYLE
  2
AcDbDetailViewStyle
  3
ObjectDBX Classes
 90
1025
 91
0
280
0
281
0
  0
CLASS
  1
ACDBSECTIONVIEWSTYLE
  2
AcDbSectionViewStyle
  3
ObjectDBX Classes
 90
1025
 91
0
280
0
281
0
  0
CLASS
  1
RASTERVARIABLES
  2
AcDbRasterVariables
  3
ISM
 90
0
 91
0
280
0
281
0
  0
CLASS
  1
ACDBPLACEHOLDER
  2
AcDbPlaceHolder
  3
ObjectDBX Classes
 90
0
 91
0
280
0
281
0
  0
CLASS
  1
LAYOUT
  2
AcDbLayout
  3
ObjectDBX Classes
 90
0
 91
0
280
0
281
0
  0
ENDSEC
  0
SECTION
  2
TABLES
  0
TABLE
  2
VPORT
  5
8
330
0
100
AcDbSymbolTable
 70
1
  0
VPORT
  5
23
330
8
100
AcDbSymbolTableRecord
100
AcDbViewportTableRecord
  2
*Active
 70
0
 10
0.0
 20
0.0
 11
1.0
 21
1.0
 12
0.0
 22
0.0
 13
0.0
 23
0.0
 14
0.5
 24
0.5
 15
0.5
 25
0.5
 16
0.0
 26
0.0
 36
1.0
 17
0.0
 27
0.0
 37
0.0
 40
1000.0
 41
1.34
 42
50.0
 43
0.0
 44
0.0
 50
0.0
 51
0.0
 71
0
 72
1000
 73
1
 74
3
 75
0
 76
0
 77
0
 78
0
281
0
 65
0
146
0.0
  0
ENDTAB
  0
TABLE
  2
LTYPE
  5
2
330
0
100
AcDbSymbolTable
 70
3
  0
LTYPE
  5
24
330
2
100
AcDbSymbolTableRecord
100
AcDbLinetypeTableRecord
  2
ByBlock
 70
0
  3

 72
65
 73
0
 40
0.0
  0
LTYPE
  5
25
330
2
100
AcDbSymbolTableRecord
100
AcDbLinetypeTableRecord
  2
ByLayer
 70
0
  3

 72
65
 73
0
 40
0.0
  0
LTYPE
  5
26
330
2
100
AcDbSymbolTableRecord
100
AcDbLinetypeTableRecord
  2
Continuous
 70
0
  3

 72
65
 73
0
 40
0.0
  0
ENDTAB
  0
TABLE
  2
LAYER
  5
1
330
0
100
AcDbSymbolTable
 70
3
  0
LAYER
  5
27
330
1
100
AcDbSymbolTableRecord
100
AcDbLayerTableRecord
  2
0
 70
0
 62
7
  6
Continuous
370
-3
390
13
347
21
  0
LAYER
  5
28
330
1
100
AcDbSymbolTableRecord
100
AcDbLayerTableRecord
  2
Defpoints
 70
0
 62
7
  6
Continuous
290
0
370
-3
390
13
347
21
  0
LAYER
  5
2F
330
1
100
AcDbSymbolTableRecord
100
AcDbLayerTableRecord
  2
BAND_05
 70
0
 62
5
  6
Continuous
370
-3
390
13
347
21
  0
ENDTAB
  0
TABLE
  2
STYLE
  5
5
330
0
100
AcDbSymbolTable
 70
1
  0
STYLE
  5
29
330
5
100
AcDbSymbolTableRecord
100
AcDbTextStyleTableRecord
  2
Standard
 70
0
 40
0.0
 41
1.0
 50
0.0
 71
0
 42
2.5
  3
txt
  4

  0
ENDTAB
  0
TABLE
  2
VIEW
  5
7
330
0
100
AcDbSymbolTable
 70
0
  0
ENDTAB
  0
TABLE
  2
UCS
  5
6
330
0
100
AcDbSymbolTable
 70
0
  0
ENDTAB
  0
TABLE
  2
APPID
  5
3
330
0
100
AcDbSymbolTable
 70
3
  0
APPID
  5
2A
330
3
100
AcDbSymbolTableRecord
100
AcDbRegAppTableRecord
  2
ACAD
 70
0
  0
APPID
  5
5D
330
3
100
AcDbSymbolTableRecord
100
AcDbRegAppTableRecord
  2
HATCHBACKGROUNDCOLOR
 70
0
  0
APPID
  5
5E
330
3
100
AcDbSymbolTableRecord
100
AcDbRegAppTableRecord
  2
EZDXF
 70
0
  0
ENDTAB
  0
TABLE
  2
DIMSTYLE
  5
4
330
0
100
AcDbSymbolTable
 70
1
100
AcDbDimStyleTable
  0
DIMSTYLE
105
2B
330
4
100
AcDbSymbolTableRecord
100
AcDbDimStyleTableRecord
  2
Standard
 70
0
 40
1.0
 41
2.5
 42
0.625
 43
3.75
 44
1.25
 45
0.0
 46
0.0
 47
0.0
 48
0.0
 49
2.5
140
2.5
141
2.5
142
0.0
143
0.03937007874
144
1.0
145
0.0
146
1.0
147
0.625
148
0.0
 69
0
 70
0
 71
0
 72
0
 73
0
 74
0
 75
0
 76
0
 77
1
 78
8
 79
3
170
0
171
3
172
1
173
0
174
0
175
0
176
0
177
0
178
0
179
2
271
2
272
2
273
2
274
3
275
0
276
0
277
2
278
44
279
0
280
0
281
0
282
0
283
0
284
8
285
0
286
0
288
0
289
3
290
0
371
-2
372
-2
  0
ENDTAB
  0
TABLE
  2
BLOCK_RECORD
  5
9
330
0
100
AcDbSymbolTable
 70
2
  0
BLOCK_RECORD
  5
17
330
9
100
AcDbSymbolTableRecord
100
AcDbBlockTableRecord
  2
*Model_Space
340
1A
 70
0
280
1
281
0
  0
BLOCK_RECORD
  5
1B
330
9
100
AcDbSymbolTableRecord
100
AcDbBlockTableRecord
  2
*Paper_Space
340
1E
 70
0
280
1
281
0
  0
ENDTAB
  0
ENDSEC
  0
SECTION
  2
BLOCKS
  0
BLOCK
  5
18
330
17
100
AcDbEntity
  8
0
100
AcDbBlockBegin
  2
*Model_Space
 70
0
 10
0.0
 20
0.0
 30
0.0
  3
*Model_Space
  1

  0
ENDBLK
  5
19
330
17
100
AcDbEntity
  8
0
100
AcDbBlockEnd
  0
BLOCK
  5
1C
330
1B
100
AcDbEntity
  8
0
100
AcDbBlockBegin
  2
*Paper_Space
 70
0
 10
0.0
 20
0.0
 30
0.0
  3
*Paper_Space
  1

  0
ENDBLK
  5
1D
330
1B
100
AcDbEntity
  8
0
100
AcDbBlockEnd
  0
ENDSEC
  0
SECTION
  2
ENTITIES
  0
LWPOLYLINE
  5
30
330
17
100
AcDbEntity
  8
BAND_05
100
AcDbPolyline
 90
47
 70
1
 10
179.73904973828186
 20
127.125
 10
180.75
 20
127.68490389451688
 10
186.0
 20
127.95187981730292
 10
186.59274304290372
 20
128.875
 10
186.10483347889163
 20
130.125
 10
187.75
 20
132.7236882348454
 10
190.0
 20
129.9253772754957
 10
193.92991083799558
 20
130.875
 10
193.9483091487787
 20
131.625
 10
192.75
 20
132.1801295205769
 10
192.63507327616506
 20
132.875
 10
195.330223954614
 20
133.875
 10
195.31125521454925
 20
136.375
 10
198.3350234284585
 20
139.375
 10
198.76013475544983
 20
141.875
 10
202.75
 20
141.9025963112835
 10
203.75
 20
140.59846468464661
 10
205.0
 20
141.24637605280094
 10
205.75
 20
139.61473562644358
 10
207.12803228593967
 20
140.125
 10
208.0527204865911
 20
138.625
 10
207.69793056673686
 20
137.875
 10
209.0
 20
136.90764123490138
 10
212.25
 20
136.99308989176876
 10
211.70513736436166
 20
135.625
 10
212.75
 20
134.45432887214807
 10
211.75
 20
134.17029456552777
 10
209.53397189552152
 20
135.375
 10
209.25
 20
134.07696900063084
 10
203.25
 20
129.44183139675042
 10
201.5
 20
129.49568302806094
 10
201.0
 20
130.67023729011953
 10
198.5
 20
129.74564003503613
 10
196.25470748138673
 20
126.875
 10
196.0
 20
125.06263957525172
 10
194.25
 20
126.17834758118394
 10
193.0
 20
126.019516807737
 10
191.61169446082087
 20
124.875
 10
191.75
 20
122.79657100272505
 10
190.02795708870772
 20
122.625
 10
187.75
 20
123.78632485485315
 10
186.564923338591
 20
121.875
 10
185.25
 20
121.3733655603209
 10
180.75
 20
123.35537672367413
 10
177.25
 20
123.65851377130696
 10
177.03275196433265
 20
125.625
 10
180.28573975235224
 20
125.875
  0
LWPOLYLINE
  5
31
330
17
100
AcDbEntity
  8
BAND_05
100
AcDbPolyline
 90
6
 70
1
 10
175.44050381486852
 20
132.625
 10
172.5
 20
130.88370537420684
 10
170.59659328688892
 20
132.625
 10
171.75
 20
133.89480528299492
 10
174.75
 20
134.739332094136
 10
175.25
 20
134.42709027548543
  0
LWPOLYLINE
  5
32
330
17
100
AcDbEntity
  8
BAND_05
100
AcDbPolyline
 90
9
 70
1
 10
45.0
 20
203.39033770118272
 10
45.25
 20
201.18995232451175
 10
46.84370111166325
 20
199.875
 10
45.75
 20
199.55863429719818
 10
46.048897029823216
 20
198.25
 10
44.375
 20
202.75
 10
46.61406435310136
 20
207.0
 10
46.75
 20
205.97120128940804
 10
48.826465734208
 20
205.375
  0
LWPOLYLINE
  5
33
330
17
100
AcDbEntity
  8
BAND_05
100
AcDbPolyline
 90
12
 70
1
 10
121.13910063479963
 20
207.375
 10
122.75
 20
208.4638445942416
 10
125.75
 20
205.3444811345845
 10
126.2443647578715
 20
203.625
 10
125.5
 20
201.62790726288404
 10
124.08822760382441
 20
201.875
 10
123.5
 20
200.44836610041148
 10
123.0
 20
201.14260731182162
 10
121.70620023161784
 20
201.375
 10
121.62429870718194
 20
203.125
 10
120.75
 20
203.50715118812641
 10
120.01499008407875
 20
205.125
  0
LWPOLYLINE
  5
34
330
17
100
AcDbEntity
  8
BAND_05
100
AcDbPolyline
 90
7
 70
1
 10
118.67705990354763
 20
206.875
 10
118.0
 20
205.66281194671137
 10
116.67431190490828
 20
206.125
 10
115.11970005110955
 20
208.875
 10
115.5
 20
210.42025192097742
 10
116.75
 20
210.713619864885
 10
118.14385685352195
 20
209.875
  0
LWPOLYLINE
  5
35
330
17
100
AcDbEntity
  8
BAND_05
100
AcDbPolyline
 90
15
 70
1
 10
119.25
 20
215.7676930769727
 10
118.5
 20
214.47015966909674
 10
117.91137455990933
 20
214.625
 10
118.0
 20
215.45859326012513
 10
119.25
 20
216.6126200244301
 10
120.25
 20
216.78064756256612
 10
121.25
 20
216.09968654223235
 10
122.25
 20
213.72780586242044
 10
123.5
 20
212.7219718877093
 10
124.23350435405236
 20
209.875
 10
123.75
 20
209.29089577291248
 10
121.9352841249358
 20
210.625
 10
122.01848658632673
 20
213.375
 10
120.5
 20
213.75889047120884
 10
119.97122474115481
 20
215.875
  0
LWPOLYLINE
  5
36
330
17
100
AcDbEntity
  8
BAND_05
100
AcDbPolyline
 90
39
 70
1
 10
29.375
 20
212.5
 10
29.375
 20
213.0
 10
30.875
 20
213.5
 10
33.875
 20
217.5
 10
37.125
 20
220.25
 10
37.56878534720279
 20
220.125
 10
36.85016338617855
 20
219.125
 10
36.75
 20
217.58313180862876
 10
38.75
 20
219.11448720252193
 10
40.0
 20
218.43406217154507
 10
40.75
 20
219.61638678556065
 10
42.25
 20
220.13367301207904
 10
44.75
 20
219.69191937908982
 10
45.5
 20
220.83023938407518
 10
46.0
 20
219.19719624066914
 10
47.0
 20
220.38897564173004
 10
50.0
 20
220.56892580764034
 10
50.006386236667055
 20
219.125
 10
49.25
 20
218.1223166116228
 10
46.449929549114316
 20
216.875
 10
46.5
 20
216.39046378563705
 10
49.395962846851674
 20
217.125
 10
52.5
 20
219.8823749619118
 10
52.02042163492558
 20
217.625
 10
52.3824962450086
 20
217.125
 10
50.53299734972371
 20
215.875
 10
51.0
 20
214.9317505479683
 10
52.5
 20
214.15576245752413
 10
52.530989538538506
 20
213.375
 10
51.5
 20
212.55512335080888
 10
48.5
 20
213.3469474639955
 10
48.17189023069426
 20
212.125
 10
50.01938550798286
 20
209.375
 10
47.75
 20
208.7761019590383
 10
46.875
 20
207.93180685576613
 10
46.875
 20
209.5
 10
45.375
 20
209.5
 10
43.125
 20
212.25
 10
31.875
 20
211.75
  0
LWPOLYLINE
  5
37
330
17
100
AcDbEntity
  8
BAND_05
100
AcDbPolyline
 90
15
 70
1
 10
47.125
 20
227.5
 10
51.875
 20
227.75
 10
53.875
 20
226.5
 10
52.621980910939286
 20
226.625
 10
52.25
 20
225.89831766158522
 10
51.18267304696195
 20
227.125
 10
50.0
 20
226.80575460477272
 10
49.0
 20
227.29714123546322
 10
48.0
 20
226.65691017552626
 10
48.35721291568066
 20
225.875
 10
46.75
 20
225.8274725192664
 10
43.5
 20
226.89830815460243
 10
42.75
 20
225.9690226286631
 10
42.625
 20
226.5
 10
43.875
 20
228.25
  0
LWPOLYLINE
  5
38
330
17
100
AcDbEntity
  8
BAND_05
100
AcDbPolyline
 90
120
 70
1
 10
147.0
 20
218.6314602597369
 10
147.5
 20
219.00057969626366
 10
147.1496941595122
 20
222.375
 10
147.66741030717606
 20
223.375
 10
150.5
 20
221.76536983455082
 10
151.5
 20
222.08447565570526
 10
153.25
 20
221.51866711278745
 10
155.6847345926389
 20
222.875
 10
156.84996306783205
 20
225.625
 10
152.25
 20
226.30703307621846
 10
149.25
 20
224.86520580494917
 10
148.25
 20
225.64847669753516
 10
145.75
 20
225.35209610710012
 10
144.5
 20
226.26496423001598
 10
141.75
 20
224.0241311054503
 10
141.5
 20
222.2933419363722
 10
140.30013299872166
 20
222.125
 10
140.76726214113424
 20
219.625
 10
138.75
 20
217.84706117676507
 10
136.25
 20
218.37008176959503
 10
135.02971785963422
 20
219.375
 10
134.5444791278989
 20
220.875
 10
135.25
 20
223.12606367410652
 10
138.0
 20
223.95337044873358
 10
138.12539186295507
 20
227.375
 10
140.5
 20
228.251796168915
 10
141.25
 20
229.1990874033193
 10
141.63417764518223
 20
230.625
 10
141.06559387873546
 20
233.875
 10
142.5
 20
234.61838192484288
 10
143.82407750110235
 20
237.625
 10
142.9739617748116
 20
238.625
 10
143.325955434063
 20
241.375
 10
142.20708542896375
 20
243.375
 10
141.0
 20
243.6495138729447
 10
138.25
 20
242.2617611416959
 10
137.75776741199581
 20
243.125
 10
140.49810720236204
 20
247.625
 10
140.5
 20
248.82193056649578
 10
142.53618064640403
 20
248.625
 10
142.71474474212727
 20
249.875
 10
143.6884640192165
 20
250.875
 10
143.5
 20
251.5285696162725
 10
142.15336776836065
 20
251.625
 10
142.7228745225633
 20
253.125
 10
143.6131471114445
 20
253.125
 10
143.55147117262962
 20
254.625
 10
147.10817512650124
 20
253.625
 10
146.20313699704315
 20
255.125
 10
147.26817988200173
 20
255.875
 10
146.87178186876187
 20
257.375
 10
147.25988186056503
 20
258.375
 10
150.5
 20
260.01070340963827
 10
152.75
 20
258.4893336320414
 10
153.70586501058028
 20
260.875
 10
155.95178308687684
 20
261.875
 10
159.0
 20
264.31339506093485
 10
162.25
 20
264.64868312995264
 10
163.25
 20
266.239112295734
 10
169.56113683869737
 20
261.625
 10
174.75
 20
260.04608913649025
 10
175.30728240842197
 20
258.625
 10
174.44844323750306
 20
257.875
 10
176.26415118153045
 20
256.125
 10
175.25
 20
255.65855256234875
 10
175.5
 20
254.43824538002457
 10
183.0
 20
257.7336762771469
 10
184.0
 20
256.84379517323555
 10
187.75
 20
257.64424112742097
 10
189.26091191141157
 20
257.125
 10
189.89322257099744
 20
255.625
 10
187.44345492797032
 20
251.375
 10
185.25
 20
249.26597949080622
 10
182.5
 20
247.82530052056066
 10
179.0
 20
247.43043059258872
 10
178.0
 20
246.16990794742603
 10
175.0
 20
247.11635796388256
 10
172.0
 20
243.60613586751975
 10
169.75
 20
243.02502277053145
 10
169.0
 20
242.18391036194316
 10
165.8221549997707
 20
241.875
 10
162.41723121800214
 20
239.375
 10
162.7842579522177
 20
237.375
 10
163.75
 20
236.57581271769226
 10
164.40234783867444
 20
234.375
 10
168.25
 20
233.46141887115937
 10
169.0
 20
234.60300087857377
 10
170.25
 20
234.7756040039271
 10
172.5
 20
233.59014811367246
 10
174.0
 20
234.88754301016672
 10
174.1302215417458
 20
233.875
 10
172.82398648127284
 20
232.625
 10
172.29003023425082
 20
230.625
 10
170.99487077850011
 20
228.875
 10
172.3989549099093
 20
227.625
 10
171.25
 20
227.07910959417617
 10
170.0
 20
228.33857967489095
 10
169.25
 20
228.36391940404533
 10
168.24686029770936
 20
225.125
 10
166.0
 20
224.26612562586283
 10
164.25
 20
222.43462752272455
 10
160.75
 20
222.44039296971357
 10
157.75
 20
221.04861426545494
 10
156.64668181965584
 20
219.875
 10
156.6652741796201
 20
217.625
 10
157.58004765649025
 20
216.625
 10
156.75
 20
215.28762803459665
 10
154.75
 20
215.31487743217693
 10
154.0
 20
216.7605668426267
 10
152.0
 20
216.38294931349174
 10
150.5
 20
217.69562718924922
 10
148.7154337918442
 20
216.375
 10
149.0
 20
213.46705098074932
 10
145.0
 20
215.8912271390552
 10
144.062338376401
 20
213.375
 10
143.25
 20
212.90705635539592
 10
141.5486466858644
 20
214.625
 10
141.75
 20
216.03885610932073
 10
145.25
 20
219.0975586788451
 10
146.0
 20
219.3363512722305
  0
LWPOLYLINE
  5
39
330
17
100
AcDbEntity
  8
BAND_05
100
AcDbPolyline
 90
7
 70
1
 10
173.28304846337497
 20
252.125
 10
176.85158843980346
 20
248.625
 10
178.0
 20
248.46839942500145
 10
180.2514511491809
 20
250.125
 10
179.25
 20
251.14569491722034
 10
175.25
 20
250.90525727786377
 10
173.75
 20
252.45551478682552
  0
LWPOLYLINE
  5
3A
330
17
100
AcDbEntity
  8
BAND_05
100
AcDbPolyline
 90
8
 70
1
 10
160.16519544306013
 20
243.375
 10
160.49571335251852
 20
242.875
 10
161.4553770422039
 20
242.875
 10
161.75
 20
244.43927886424265
 10
164.0
 20
243.7072903105615
 10
165.45016681360093
 20
244.375
 10
164.0
 20
246.00427853644547
 10
161.0
 20
247.22812921205056
  0
LWPOLYLINE
  5
3B
330
17
100
AcDbEntity
  8
BAND_05
100
AcDbPolyline
 90
5
 70
1
 10
160.25
 20
252.27652754604506
 10
160.88975216343695
 20
255.625
 10
159.75
 20
256.1153976142549
 10
157.72725043921218
 20
252.875
 10
158.75
 20
252.02829965766745
  0
LWPOLYLINE
  5
3C
330
17
100
AcDbEntity
  8
BAND_05
100
AcDbPolyline
 90
6
 70
1
 10
155.4355723637673
 20
255.125
 10
156.25
 20
255.14660643961665
 10
158.45827104938078
 20
258.125
 10
158.0
 20
259.8796257158723
 10
156.0
 20
259.265160075492
 10
155.35951979166794
 20
257.875
  0
LWPOLYLINE
  5
3D
330
17
100
AcDbEntity
  8
BAND_05
100
AcDbPolyline
 90
6
 70
1
 10
157.0
 20
243.8755523253644
 10
157.82042866509408
 20
244.875
 10
157.05534942208394
 20
248.125
 10
154.5
 20
247.7216009946945
 10
154.59127452567046
 20
245.625
 10
155.25
 20
244.48431558231414
  0
LWPOLYLINE
  5
3E
330
17
100
AcDbEntity
  8
BAND_05
100
AcDbPolyline
 90
52
 70
1
 10
58.625
 20
255.75
 10
59.625
 20
257.5
 10
59.375
 20
259.75
 10
58.125
 20
262.649941392811
 10
60.38504191673233
 20
263.875
 10
60.611077519354765
 20
265.625
 10
61.88866348928045
 20
266.625
 10
63.022063075409505
 20
269.125
 10
63.0
 20
270.65157089552235
 10
62.0
 20
270.1473488555797
 10
61.51944683890126
 20
271.0
 10
68.6941628961051
 20
274.0
 10
68.09265189407405
 20
273.125
 10
68.75
 20
271.9343467321371
 10
70.0
 20
272.40053873320034
 10
71.25
 20
270.8275429991537
 10
72.75
 20
271.32603180193576
 10
73.45680135091143
 20
269.375
 10
72.5
 20
268.6466911764706
 10
71.0
 20
269.5806056109344
 10
71.85715031650656
 20
266.875
 10
69.5
 20
266.23567236319695
 10
68.31117983467685
 20
266.875
 10
66.25
 20
269.91107014972727
 10
65.5
 20
270.16531745085183
 10
65.93855837186646
 20
266.125
 10
65.29515322706173
 20
265.125
 10
66.55342082155403
 20
264.125
 10
66.75
 20
261.8507052956034
 10
64.466506953677
 20
259.625
 10
64.25
 20
257.6415350949951
 10
62.0
 20
256.7178425055846
 10
61.0
 20
257.70655529326314
 10
60.25
 20
255.8024063188832
 10
58.91880114015768
 20
255.125
 10
60.25
 20
252.8890547937395
 10
64.95971698423486
 20
252.125
 10
64.65088295223005
 20
249.875
 10
63.575455346826
 20
249.375
 10
63.0
 20
248.25194834069245
 10
60.0
 20
247.81929590745443
 10
58.16689791002835
 20
250.375
 10
58.97531358896324
 20
252.875
 10
58.0
 20
253.5367772374327
 10
56.25914435164252
 20
250.625
 10
56.87474118092895
 20
249.625
 10
55.72311947757157
 20
248.125
 10
56.38866437114898
 20
247.25
 10
54.625
 20
248.0
 10
54.625
 20
250.25
 10
55.875
 20
252.25
 10
55.625
 20
254.25
  0
LWPOLYLINE
  5
3F
330
17
100
AcDbEntity
  8
BAND_05
100
AcDbPolyline
 90
11
 70
1
 10
172.0020685945968
 20
270.875
 10
173.25
 20
270.9272893365356
 10
174.25
 20
269.92159524594797
 10
177.25
 20
268.9589354707517
 10
177.25
 20
267.65631009452613
 10
175.1810335874824
 20
266.375
 10
176.29426281135204
 20
263.375
 10
173.88550649709475
 20
265.125
 10
173.95266903914592
 20
266.875
 10
172.0
 20
266.4485359467443
 10
170.5929381668187
 20
267.625
  0
LWPOLYLINE
  5
40
330
17
100
AcDbEntity
  8
BAND_05
100
AcDbPolyline
 90
5
 70
1
 10
57.5
 20
269.00642967631654
 10
57.125
 20
271.5
 10
57.875
 20
272.75
 10
59.125
 20
272.73003000396545
 10
59.826231383443286
 20
269.375
  0
LWPOLYLINE
  5
41
330
17
100
AcDbEntity
  8
BAND_05
100
AcDbPolyline
 90
27
 70
1
 10
195.25
 20
268.6466710095543
 10
201.41416078782723
 20
272.875
 10
205.0
 20
277.51519881630514
 10
204.8461912943872
 20
280.875
 10
207.5
 20
282.60774437135336
 10
210.5
 20
282.38485692727687
 10
212.35648409919605
 20
280.625
 10
212.5889021943974
 20
278.875
 10
210.75425746841577
 20
275.375
 10
210.30264986125775
 20
272.875
 10
208.07052844080724
 20
270.125
 10
208.5066920569985
 20
267.875
 10
206.78442367733038
 20
267.625
 10
207.0
 20
266.86798112615674
 10
205.81270154732582
 20
267.125
 10
207.295625042393
 20
269.875
 10
206.0
 20
270.57560531705
 10
202.90288627517026
 20
267.875
 10
202.64520386743848
 20
265.875
 10
201.25
 20
263.95196767663435
 10
199.75
 20
263.71494694278886
 10
198.5
 20
262.6886344785785
 10
197.25
 20
262.88189627099234
 10
193.89120155496676
 20
265.125
 10
192.90695178607
 20
267.375
 10
193.04802291828884
 20
268.625
 10
193.75
 20
269.0833990747281
  0
LWPOLYLINE
  5
42
330
17
100
AcDbEntity
  8
BAND_05
100
AcDbPolyline
 90
5
 70
1
 10
215.75
 20
285.1502690600561
 10
212.26110020003642
 20
287.625
 10
213.91185335855698
 20
289.625
 10
216.71982374509656
 20
287.625
 10
217.0
 20
284.8724658344056
  0
LWPOLYLINE
  5
43
330
17
100
AcDbEntity
  8
BAND_05
100
AcDbPolyline
 90
61
 70
1
 10
242.53712882913987
 20
279.625
 10
239.5
 20
278.06204424939347
 10
240.12863970577123
 20
279.875
 10
239.36835070984043
 20
283.125
 10
235.28957223527192
 20
291.875
 10
235.75
 20
292.7178003097215
 10
236.75
 20
292.889316850002
 10
238.5
 20
291.904569302081
 10
239.82252472747408
 20
293.875
 10
239.7147656583595
 20
294.625
 10
236.33052819317766
 20
296.875
 10
236.75
 20
297.5315913120445
 10
238.0
 20
297.297961865544
 10
238.9880211108547
 20
299.375
 10
237.68757898842986
 20
301.125
 10
237.77281232962758
 20
302.375
 10
234.88034785078514
 20
304.875
 10
235.25
 20
305.6537374961297
 10
236.85123510686844
 20
306.125
 10
236.32201298205788
 20
310.375
 10
237.75
 20
312.9094765593572
 10
238.59117369382923
 20
312.375
 10
238.5
 20
311.49888914808764
 10
239.28859447388595
 20
310.625
 10
238.75
 20
308.7997691954814
 10
241.5
 20
309.01962907485273
 10
243.5
 20
307.8937966460393
 10
243.75
 20
306.8139898395244
 10
244.75
 20
307.480910620228
 10
248.25
 20
307.3231959484166
 10
250.218263984181
 20
309.375
 10
249.8271620503387
 20
311.875
 10
251.66287957491667
 20
311.875
 10
253.25
 20
308.28362688451364
 10
254.5
 20
307.5201350904949
 10
256.1676212980626
 20
305.125
 10
256.22894530145464
 20
301.625
 10
253.0
 20
302.0223449240565
 10
251.41700434311886
 20
300.875
 10
252.64054418855162
 20
299.375
 10
252.41029513260514
 20
298.625
 10
249.5
 20
297.8181956295525
 10
245.37036977263634
 20
299.875
 10
246.6453836626073
 20
296.875
 10
246.25
 20
295.4401433609586
 10
242.5
 20
298.51065766966747
 10
240.87882073184593
 20
297.875
 10
241.761271974165
 20
293.625
 10
240.992905427404
 20
291.875
 10
245.63577604194452
 20
288.625
 10
247.04500147970336
 20
284.125
 10
248.27041593727657
 20
283.375
 10
249.0
 20
281.08261125960155
 10
250.98356125510122
 20
279.375
 10
250.60198942060677
 20
277.875
 10
248.91966209152667
 20
276.625
 10
246.5
 20
276.2242423070794
 10
245.90649056304642
 20
276.625
 10
246.1193176814646
 20
280.875
 10
244.5
 20
281.9254197164355
 10
242.5
 20
281.78491846405797
  0
LWPOLYLINE
  5
44
330
17
100
AcDbEntity
  8
BAND_05
100
AcDbPolyline
 90
10
 70
1
 10
251.0
 20
307.6605731019703
 10
251.85316681326134
 20
306.375
 10
250.9256311569363
 20
305.375
 10
251.0
 20
303.9883968099874
 10
253.0
 20
304.12082781568097
 10
252.75
 20
305.6027239753438
 10
254.65114398263256
 20
305.375
 10
253.75
 20
306.71787339686307
 10
252.46764168106137
 20
306.625
 10
251.75
 20
308.7261811108092
  0
LWPOLYLINE
  5
45
330
17
100
AcDbEntity
  8
BAND_05
100
AcDbPolyline
 90
15
 70
1
 10
245.0
 20
306.3031590681941
 10
244.42621112419548
 20
305.625
 10
244.75
 20
304.36394182403035
 10
241.5
 20
306.19048884528274
 10
240.78795937614086
 20
304.625
 10
239.75
 20
304.07321742399733
 10
236.96167101287224
 20
304.375
 10
238.89804597947864
 20
302.625
 10
239.32422873196867
 20
301.125
 10
240.80854970277557
 20
299.625
 10
242.0
 20
299.7807238338104
 10
242.25
 20
302.0549543006159
 10
246.75
 20
300.94022546102474
 10
245.91994696973242
 20
303.375
 10
247.5128721793528
 20
304.125
  0
LWPOLYLINE
  5
46
330
17
100
AcDbEntity
  8
BAND_05
100
AcDbPolyline
 90
35
 70
1
 10
204.96590796908293
 20
301.875
 10
206.0
 20
303.0698780678968
 10
208.0
 20
303.75387936560077
 10
208.4056221061782
 20
303.375
 10
207.74911818957574
 20
301.875
 10
208.75
 20
300.4383839296248
 10
210.25
 20
301.62903790111466
 10
211.5954661792335
 20
301.625
 10
211.5880529905318
 20
304.125
 10
210.75
 20
305.65556792191785
 10
215.73519434801744
 20
304.125
 10
216.64380318341497
 20
301.875
 10
216.32423959496407
 20
300.625
 10
218.11621531621927
 20
298.875
 10
217.41108604538417
 20
295.625
 10
218.66550828006143
 20
292.875
 10
218.0
 20
292.3804474024977
 10
217.25
 20
292.70512952695174
 10
215.6552586611272
 20
297.375
 10
214.5
 20
297.35120437613074
 10
213.0
 20
296.7493339752035
 10
212.18142188333593
 20
295.625
 10
211.5
 20
290.76057918987914
 10
210.5
 20
290.39158488548924
 10
209.83324055854277
 20
290.875
 10
210.67412609359633
 20
293.625
 10
210.25
 20
294.29272722244247
 10
209.1845981089794
 20
293.125
 10
209.31482091166265
 20
290.375
 10
208.74777466859774
 20
289.125
 10
207.0
 20
288.85396567631176
 10
205.79414861643025
 20
293.375
 10
204.71676162271086
 20
295.625
 10
206.30973725175556
 20
297.625
 10
205.00130290937844
 20
300.125
  0
LWPOLYLINE
  5
47
330
17
100
AcDbEntity
  8
BAND_05
100
AcDbPolyline
 90
18
 70
1
 10
63.43784063848231
 20
298.375
 10
60.95694370668062
 20
298.375
 10
61.62799585817079
 20
299.625
 10
59.04734505732037
 20
300.875
 10
59.29099512127164
 20
302.125
 10
58.0
 20
302.26133761960557
 10
58.125
 20
303.5
 10
60.125
 20
303.0
 10
65.0518317881641
 20
306.25
 10
63.22869538981415
 20
303.875
 10
68.0
 20
302.09127900497765
 10
69.0861177300805
 20
301.125
 10
68.56834118069493
 20
296.625
 10
69.06566957971029
 20
296.0
 10
66.08695297542099
 20
297.25
 10
65.5061421200136
 20
298.125
 10
65.71075463206344
 20
299.375
 10
65.0
 20
299.98764000355436
  0
LWPOLYLINE
  5
48
330
17
100
AcDbEntity
  8
BAND_05
100
AcDbPolyline
 90
7
 70
1
 10
251.6452644945709
 20
285.625
 10
251.94554631549727
 20
283.625
 10
251.25
 20
282.9017674552298
 10
248.924898645308
 20
284.125
 10
248.81414119024947
 20
286.625
 10
247.64150873166045
 20
287.875
 10
249.75
 20
287.6795777765784
  0
LWPOLYLINE
  5
49
330
17
100
AcDbEntity
  8
BAND_05
100
AcDbPolyline
 90
5
 70
1
 10
305.25
 20
313.55516736812945
 10
303.2963983293965
 20
316.375
 10
304.0
 20
317.23455255554666
 10
306.0
 20
316.69650816905096
 10
307.5107727352849
 20
315.125
  0
LWPOLYLINE
  5
4A
330
17
100
AcDbEntity
  8
BAND_05
100
AcDbPolyline
 90
23
 70
1
 10
259.0591533051556
 20
317.625
 10
261.7252756936401
 20
318.125
 10
260.2218612860718
 20
318.875
 10
259.0
 20
320.4201582505975
 10
257.75
 20
320.0326186443252
 10
256.56619526697216
 20
320.625
 10
258.75
 20
321.42102145883644
 10
261.25
 20
319.9393028052518
 10
263.75
 20
319.7078215096734
 10
265.5
 20
318.7977430327792
 10
266.5
 20
319.9045535502868
 10
269.75
 20
319.98491585711537
 10
270.6266921518211
 20
319.125
 10
268.6376737717092
 20
317.375
 10
267.30576861131544
 20
317.125
 10
268.0
 20
316.34570068773985
 10
270.0
 20
316.6115956585635
 10
272.25
 20
316.06552671641276
 10
272.71587513173176
 20
315.125
 10
269.3059999542437
 20
315.125
 10
265.75
 20
316.7291291006683
 10
263.25
 20
314.7943454731983
 10
260.0
 20
315.76842845705573
  0
LWPOLYLINE
  5
4B
330
17
100
AcDbEntity
  8
BAND_05
100
AcDbPolyline
 90
16
 70
1
 10
271.1201634211518
 20
320.375
 10
268.7242874372355
 20
321.875
 10
267.0
 20
324.2066530690158
 10
271.5
 20
324.50529279109
 10
272.25
 20
325.4220208617942
 10
273.8644502455387
 20
324.625
 10
274.25
 20
322.464887274964
 10
273.0
 20
322.89297111825374
 10
272.4043791151878
 20
322.375
 10
272.696227823784
 20
320.875
 10
275.25
 20
318.1330256446254
 10
275.25
 20
317.24115643020343
 10
273.0
 20
318.92419365127364
 10
272.0
 20
318.2359224454349
 10
271.5
 20
318.4986194350903
 10
270.85541164152477
 20
319.375
  0
LWPOLYLINE
  5
4C
330
17
100
AcDbEntity
  8
BAND_05
100
AcDbPolyline
 90
45
 70
1
 10
313.7886288528588
 20
314.875
 10
313.0
 20
314.56791588876456
 10
308.5
 20
317.69532782212895
 10
304.4657405354851
 20
318.125
 10
305.4422160605659
 20
325.125
 10
307.0936523806255
 20
326.875
 10
307.75
 20
328.56761541678213
 10
308.81354589488615
 20
328.875
 10
307.84462321430215
 20
329.875
 10
308.25
 20
330.99385181816194
 10
310.25
 20
331.0456730240297
 10
312.0
 20
330.2210808409395
 10
315.5
 20
332.26692517020876
 10
316.75
 20
333.73497116523356
 10
317.75
 20
333.0333360354608
 10
319.0
 20
333.574861395774
 10
320.75
 20
333.059461564295
 10
322.0
 20
333.7817126101505
 10
323.25
 20
333.17917122203676
 10
323.6662201332287
 20
334.875
 10
324.75
 20
334.9191645142876
 10
325.5460624607329
 20
334.375
 10
325.25243568332365
 20
332.875
 10
326.6262386086894
 20
332.375
 10
325.85093204294543
 20
331.625
 10
325.9118132851748
 20
330.375
 10
324.8600934790135
 20
329.625
 10
327.0925528408224
 20
327.625
 10
327.5
 20
326.3228594320932
 10
329.75
 20
325.6755470999817
 10
331.0
 20
326.6705326004665
 10
332.03230285159174
 20
325.625
 10
338.0
 20
325.1596602435747
 10
339.0918893690724
 20
322.875
 10
338.75
 20
321.19510493819496
 10
336.25
 20
320.87274965427275
 10
334.5
 20
318.23323286645166
 10
325.5
 20
315.1060644231016
 10
324.82835019278446
 20
312.375
 10
323.25
 20
310.987245289383
 10
322.54640594670525
 20
312.125
 10
322.9938582950477
 20
314.375
 10
321.94036395041763
 20
315.875
 10
315.75
 20
316.7550980115941
 10
313.5072874585553
 20
315.875
  0
LWPOLYLINE
  5
4D
330
17
100
AcDbEntity
  8
BAND_05
100
AcDbPolyline
 90
34
 70
1
 10
334.11467578506796
 20
319.875
 10
334.357107415471
 20
321.875
 10
336.205308306335
 20
324.125
 10
334.5
 20
324.08017681273935
 10
332.25
 20
322.818282671092
 10
329.75
 20
322.31435468849355
 10
326.5
 20
323.88574945631865
 10
325.0
 20
323.8259809433849
 10
323.0796422055112
 20
325.375
 10
321.5
 20
328.75887049791305
 10
318.25
 20
329.66052811863267
 10
311.0
 20
327.1294174256926
 10
310.5930925417983
 20
326.125
 10
311.75
 20
324.20331207990455
 10
309.0
 20
325.7322299045519
 10
307.75
 20
325.51671456174694
 10
306.09548021419766
 20
320.875
 10
307.0
 20
320.4921313732664
 10
309.0
 20
321.6437167884733
 10
312.0
 20
318.6644502929569
 10
314.25
 20
318.9628164860386
 10
315.86088660040383
 20
321.125
 10
317.5
 20
319.79992195899126
 10
320.0
 20
320.1545003085964
 10
320.75
 20
321.14342333102564
 10
321.80399041594984
 20
320.625
 10
321.5681736741783
 20
319.125
 10
322.5
 20
317.6550457279046
 10
324.0
 20
317.7418706856149
 10
326.0
 20
316.58308599988345
 10
329.5
 20
318.0016480231608
 10
330.5
 20
319.26957609227395
 10
332.35854635408987
 20
318.625
 10
332.5
 20
320.80204211987507
  0
LWPOLYLINE
  5
4E
330
17
100
AcDbEntity
  8
BAND_05
100
AcDbPolyline
 90
35
 70
1
 10
245.63251006731136
 20
319.875
 10
245.25
 20
319.18399050975347
 10
242.5
 20
319.8605111784617
 10
240.75
 20
320.98085675467627
 10
239.25
 20
320.97738689671843
 10
238.5
 20
319.5754944920441
 10
237.43037461637556
 20
319.875
 10
236.08451090595813
 20
323.875
 10
236.81166101425316
 20
326.125
 10
239.05453849239638
 20
327.625
 10
238.9913256537693
 20
330.625
 10
241.7189055515976
 20
335.125
 10
243.0
 20
335.319135771879
 10
244.0
 20
336.9517818421588
 10
246.30861812015007
 20
336.875
 10
245.6738199519138
 20
338.375
 10
248.0
 20
339.47521135274667
 10
250.5
 20
339.19531769148807
 10
251.75
 20
337.9247657240122
 10
254.25
 20
337.03504528866654
 10
255.43936465702438
 20
334.625
 10
254.7255405613894
 20
332.625
 10
255.5758362470481
 20
331.625
 10
253.4812742987878
 20
328.875
 10
252.1834600066091
 20
325.125
 10
253.31007887452913
 20
323.125
 10
252.87759033387456
 20
322.125
 10
250.0
 20
321.62878944343674
 10
248.66907337999845
 20
319.375
 10
250.28693423130096
 20
316.875
 10
248.5
 20
316.91881860523176
 10
247.75756093479484
 20
317.625
 10
247.54972320179897
 20
319.375
 10
245.5
 20
321.31245651637227
 10
244.99868972075126
 20
321.125
  0
LWPOLYLINE
  5
4F
330
17
100
AcDbEntity
  8
BAND_05
100
AcDbPolyline
 90
20
 70
1
 10
252.87185518272037
 20
332.375
 10
252.75
 20
334.5600854850114
 10
251.25
 20
334.8248364017918
 10
249.25
 20
334.2605667099232
 10
249.75
 20
332.7577019047952
 10
247.0
 20
333.26804159536914
 10
244.0
 20
332.76166555882014
 10
243.5
 20
330.35915872689475
 10
242.5
 20
332.96785081802716
 10
241.50237716438843
 20
332.125
 10
240.62281013132468
 20
330.625
 10
240.47751801602624
 20
328.875
 10
242.03457054444846
 20
328.125
 10
241.84332620317605
 20
326.625
 10
243.03642139545084
 20
325.125
 10
242.72616240595457
 20
322.875
 10
246.474601008893
 20
324.125
 10
246.49285357044033
 20
325.125
 10
248.5
 20
326.4277531019304
 10
251.1731267243873
 20
326.875
  0
LWPOLYLINE
  5
50
330
17
100
AcDbEntity
  8
BAND_05
100
AcDbPolyline
 90
72
 70
1
 10
277.0
 20
326.53011308833567
 10
276.5
 20
325.0039901123514
 10
274.63496272715145
 20
326.375
 10
275.0
 20
326.99862752813715
 10
276.41684690208757
 20
326.875
 10
274.6930731622896
 20
329.875
 10
275.51890990331174
 20
329.875
 10
276.75
 20
327.75439821888506
 10
281.0
 20
326.7118304224284
 10
282.75
 20
327.5329051592787
 10
283.75
 20
326.1467813537686
 10
285.0
 20
326.24518468828035
 10
286.6284922471751
 20
327.625
 10
284.8123948797255
 20
329.875
 10
285.7606680587138
 20
329.875
 10
287.25
 20
328.6821095371701
 10
288.30045180108516
 20
331.875
 10
287.0
 20
333.43467664748886
 10
284.25
 20
334.63523489412546
 10
281.8142183960127
 20
334.875
 10
281.50023800952033
 20
336.375
 10
283.5
 20
336.34804586766086
 10
289.25
 20
334.57847218608526
 10
289.75
 20
335.838198268268
 10
291.5
 20
335.64250939089027
 10
293.5
 20
334.22134733558926
 10
294.0374874168884
 20
336.625
 10
295.0
 20
337.39582823557043
 10
294.9124011263934
 20
339.375
 10
295.71855605225477
 20
340.125
 10
294.75
 20
341.82864034487477
 10
297.75
 20
340.1709539603008
 10
298.25
 20
340.85133666767024
 10
299.5
 20
340.3611043387582
 10
300.5
 20
341.3927856480698
 10
304.4219774803806
 20
341.375
 10
304.0
 20
339.98358164344506
 10
301.75
 20
340.53641854923717
 10
300.9227251424857
 20
340.125
 10
302.3114400753123
 20
338.125
 10
301.68630164295365
 20
336.125
 10
303.6994836350581
 20
333.625
 10
301.75
 20
331.8658135888932
 10
298.75
 20
326.37445360386835
 10
298.25
 20
326.02497290052656
 10
297.0
 20
326.4779751984057
 10
295.75
 20
325.65375058922496
 10
294.5
 20
326.2770743087831
 10
293.75
 20
324.0671402627597
 10
291.452293701755
 20
323.625
 10
295.25
 20
328.4388832402774
 10
296.70480313477384
 20
331.375
 10
296.25
 20
332.13890987103855
 10
291.7445321240382
 20
329.125
 10
291.2119721942748
 20
327.875
 10
291.9006069598058
 20
325.375
 10
289.75756077971016
 20
323.625
 10
290.5352870080327
 20
321.375
 10
290.25
 20
320.6194464192978
 10
288.75
 20
321.51122430380195
 10
286.75
 20
321.2984269352438
 10
285.84400554533374
 20
323.125
 10
283.8174136757234
 20
323.375
 10
284.8084656937
 20
322.375
 10
284.48813594690296
 20
321.125
 10
287.5111024684345
 20
319.875
 10
286.25
 20
317.7117692341692
 10
284.9589147389254
 20
318.125
 10
284.5
 20
319.24012380276963
 10
280.80527185394754
 20
322.625
 10
280.97483610104825
 20
323.875
 10
279.5
 20
325.9436630125531
  0
LWPOLYLINE
  5
51
330
17
100
AcDbEntity
  8
BAND_05
100
AcDbPolyline
 90
10
 70
1
 10
308.75
 20
339.0598705580143
 10
309.81384631061485
 20
338.375
 10
307.9698205557221
 20
335.125
 10
308.49744714347844
 20
333.875
 10
307.25
 20
332.6051442652829
 10
306.7194861372281
 20
333.625
 10
307.0809809679431
 20
334.875
 10
305.25
 20
335.28731919076546
 10
304.9166768697016
 20
337.875
 10
306.0
 20
338.8734831141995
  0
LWPOLYLINE
  5
52
330
17
100
AcDbEntity
  8
BAND_05
100
AcDbPolyline
 90
251
 70
1
 10
357.75
 20
335.02552240857847
 10
355.75
 20
334.12612340698365
 10
354.5
 20
332.18272144396343
 10
352.5
 20
331.57525766537947
 10
351.82227545159174
 20
332.125
 10
351.7014783895081
 20
333.875
 10
351.0
 20
334.3519299531007
 10
350.7299008966493
 20
331.875
 10
351.4358941632116
 20
330.625
 10
351.0
 20
330.02995104461235
 10
350.0
 20
330.9359081870743
 10
347.5
 20
330.13912007736644
 10
346.07006405004836
 20
330.875
 10
345.75
 20
333.13504652083543
 10
343.91428088209034
 20
332.625
 10
345.682905982906
 20
330.625
 10
345.5
 20
329.6271045452147
 10
345.0
 20
330.65968107464806
 10
343.25
 20
331.5394298007306
 10
342.58420269399534
 20
331.625
 10
342.25
 20
330.1801975089207
 10
341.5
 20
331.3711956994669
 10
339.0
 20
331.7497697378634
 10
340.49304517176097
 20
334.375
 10
340.1739886216349
 20
340.875
 10
341.062267760901
 20
341.875
 10
341.5
 20
344.24839239887575
 10
337.75
 20
344.2923557074593
 10
337.0
 20
343.089683738073
 10
335.0
 20
343.6573659151379
 10
334.25
 20
342.90107752769836
 10
332.75
 20
343.7206417759271
 10
332.5
 20
342.8956150261969
 10
332.0
 20
343.0161511470661
 10
331.25
 20
344.2892545045045
 10
329.5
 20
345.45193737795256
 10
329.0440090556336
 20
346.625
 10
329.7026990062494
 20
350.375
 10
330.63081149731204
 20
351.875
 10
329.25
 20
352.0510523821897
 10
326.5
 20
354.10072720908204
 10
325.0
 20
353.6308256593198
 10
322.4714306868799
 20
351.625
 10
323.27364959475494
 20
349.875
 10
322.56082686903153
 20
348.625
 10
324.0
 20
347.6070934853983
 10
327.3985409418973
 20
347.125
 10
326.3096947935368
 20
344.875
 10
328.5
 20
345.1792266029694
 10
328.94392757298937
 20
343.875
 10
331.1289831923771
 20
341.375
 10
330.4642195183113
 20
340.375
 10
331.0984097588034
 20
339.375
 10
330.5
 20
338.9875693034958
 10
329.37401620075923
 20
339.375
 10
328.25
 20
341.0681971083607
 10
326.66061053421083
 20
341.125
 10
327.79029948312245
 20
339.375
 10
327.5
 20
337.7289409025558
 10
328.2741729831956
 20
337.875
 10
328.03089951981747
 20
336.875
 10
329.39239951707935
 20
335.875
 10
329.1064606425477
 20
335.125
 10
327.75
 20
335.30261078609374
 10
327.1139614702427
 20
336.875
 10
325.5
 20
337.87016389723817
 10
325.25
 20
336.4935351341141
 10
324.75
 20
336.59110297183383
 10
323.82646106551283
 20
337.875
 10
324.80846037932184
 20
339.625
 10
322.75
 20
341.4297544399892
 10
321.0
 20
341.7079592497317
 10
320.0
 20
340.85463314425914
 10
318.0
 20
340.9041371970637
 10
317.0
 20
340.32995528292014
 10
315.0
 20
341.5368835241176
 10
310.5
 20
341.0260715612608
 10
310.36910324039184
 20
344.375
 10
311.25
 20
347.2072257238527
 10
309.75
 20
345.3984734373591
 10
308.37721788028125
 20
344.875
 10
308.54104221251816
 20
343.125
 10
307.50978148605674
 20
342.875
 10
308.5
 20
341.7387560504613
 10
307.5
 20
341.73172209893534
 10
306.25
 20
340.77962117964114
 10
304.8097366881217
 20
341.125
 10
304.25
 20
342.6780626739499
 10
305.25
 20
342.54998912802984
 10
306.497503968115
 20
343.375
 10
304.60900387594455
 20
346.125
 10
305.70552801452214
 20
346.375
 10
307.0
 20
348.8114449172397
 10
308.44610131698147
 20
349.125
 10
307.74129987955956
 20
349.875
 10
308.3346715309789
 20
350.875
 10
307.17180916998024
 20
352.375
 10
307.74267334605594
 20
355.375
 10
306.83604553554335
 20
356.875
 10
306.0
 20
356.98219638413394
 10
305.5899729823377
 20
356.375
 10
305.8949134569278
 20
354.875
 10
305.0
 20
354.3322342891164
 10
304.75137337394244
 20
355.625
 10
303.5
 20
356.6824278860939
 10
301.75
 20
356.093848116335
 10
300.7770510048333
 20
358.0
 10
298.52640649714203
 20
360.25
 10
299.125
 20
360.25
 10
301.625
 20
357.25
 10
304.375
 20
357.75
 10
307.375
 20
357.5
 10
308.625
 20
356.25
 10
308.125
 20
353.25
 10
308.625
 20
352.0
 10
309.75
 20
351.6432217963095
 10
311.375
 20
352.75
 10
313.125
 20
352.75
 10
313.75
 20
351.01098604323363
 10
315.22515851495825
 20
350.875
 10
318.25
 20
347.135582991289
 10
318.97591185855714
 20
347.625
 10
318.959110271557
 20
349.5
 10
320.125
 20
349.75
 10
323.375
 20
353.25
 10
324.875
 20
354.25
 10
327.875
 20
355.0
 10
333.125
 20
358.0
 10
334.125
 20
362.0
 10
334.875
 20
363.0
 10
338.125
 20
362.75
 10
340.87005058421755
 20
365.0
 10
339.25
 20
363.02941568896244
 10
336.8582085417856
 20
362.375
 10
337.91612980911486
 20
360.375
 10
334.0
 20
358.877580816349
 10
332.75
 20
356.95849277759106
 10
331.64129468099554
 20
356.625
 10
332.2288283308242
 20
355.625
 10
330.9250663685214
 20
354.625
 10
331.5
 20
354.1942308160705
 10
332.6893164407779
 20
354.625
 10
333.75
 20
353.99783946702746
 10
334.0
 20
355.6255920727317
 10
336.0
 20
356.2373983622444
 10
337.5
 20
358.5329608165932
 10
339.0
 20
359.1621876344011
 10
340.0
 20
358.8804934783142
 10
339.49683920224464
 20
355.625
 10
342.07670886252424
 20
354.125
 10
341.1309303036479
 20
352.625
 10
342.91471773048795
 20
350.625
 10
341.95555628560277
 20
349.125
 10
342.25
 20
347.69653021266714
 10
344.443635772886
 20
348.625
 10
344.43508478137284
 20
349.625
 10
346.42631932898695
 20
351.875
 10
347.1657301222633
 20
353.625
 10
346.6054417737576
 20
354.875
 10
348.7788915360296
 20
356.375
 10
348.7563138959726
 20
357.875
 10
350.71063585682447
 20
358.125
 10
350.05160355260165
 20
359.125
 10
351.7304693421251
 20
361.875
 10
352.0
 20
360.5301359996719
 10
352.5492924669718
 20
360.375
 10
355.25
 20
363.62055454751646
 10
354.21771624650154
 20
361.125
 10
355.494057520492
 20
360.375
 10
354.69081127951483
 20
359.125
 10
355.75
 20
358.44356162045784
 10
357.75
 20
359.0148367549707
 10
358.4510110294118
 20
359.875
 10
358.0
 20
360.98801053831244
 10
356.30668290549073
 20
361.125
 10
357.13860812314556
 20
364.125
 10
358.5
 20
364.6883951464923
 10
359.5
 20
364.0524109577674
 10
360.5
 20
364.828722431846
 10
364.1115728052338
 20
365.125
 10
364.0
 20
364.4688176397614
 10
361.0583474197077
 20
362.875
 10
361.28705471354004
 20
360.875
 10
360.75
 20
359.8216768446964
 10
359.15096923860176
 20
359.375
 10
360.31957392149883
 20
357.375
 10
358.88087771081865
 20
355.375
 10
360.75
 20
355.07196624473875
 10
359.8690253467413
 20
353.125
 10
360.75
 20
353.07616467107806
 10
363.1900745710374
 20
354.625
 10
362.69822594680403
 20
356.375
 10
363.14033445353436
 20
357.375
 10
362.16386180910024
 20
358.125
 10
362.5
 20
359.03626834133377
 10
363.6556360633287
 20
359.625
 10
366.06441302263283
 20
362.625
 10
366.75
 20
364.52162187526494
 10
367.5
 20
364.8176199386526
 10
368.3321055262326
 20
362.125
 10
366.63987991035407
 20
360.125
 10
366.9958617097935
 20
358.875
 10
366.1054344270488
 20
357.125
 10
364.2390632762048
 20
355.625
 10
364.3524507544007
 20
354.625
 10
366.2837626241195
 20
355.375
 10
366.62812509969484
 20
357.375
 10
368.0
 20
358.57988935576407
 10
368.5
 20
359.97665502933205
 10
371.5
 20
361.4580537796824
 10
371.6377864049736
 20
358.375
 10
370.5
 20
358.7988035069357
 10
368.79313441668313
 20
357.625
 10
371.260817094171
 20
356.375
 10
369.253005343126
 20
353.125
 10
370.0
 20
352.2987654823253
 10
372.0
 20
351.98661635010114
 10
373.1410256869623
 20
352.125
 10
374.5
 20
353.2722025608814
 10
376.5
 20
352.08842469926464
 10
376.7746606978546
 20
351.125
 10
375.06035653992836
 20
350.875
 10
376.04535020710426
 20
349.375
 10
373.75
 20
350.07725356449725
 10
373.43446578044865
 20
349.125
 10
379.13202093899486
 20
344.625
 10
379.1533715148538
 20
341.875
 10
377.7339511870654
 20
340.375
 10
377.8868593821235
 20
338.625
 10
375.25
 20
337.48256039852924
 10
374.1783367317538
 20
334.875
 10
372.5
 20
335.02276983673744
 10
372.4916740837762
 20
332.875
 10
371.0
 20
332.7844207723597
 10
370.1299868401334
 20
331.875
 10
370.24705433681305
 20
329.875
 10
371.6141211881188
 20
329.375
 10
370.54962955261533
 20
327.625
 10
369.5
 20
328.1753948677691
 10
369.1769546193846
 20
329.625
 10
366.2992382944869
 20
331.625
 10
364.0
 20
330.9431878303578
 10
362.25
 20
331.4678459310496
 10
361.8129835659848
 20
331.125
 10
362.0
 20
329.0876143050948
 10
358.5
 20
326.4886806702486
 10
357.0
 20
326.42306149910735
 10
355.84225434368034
 20
327.125
 10
355.66534897523144
 20
328.125
 10
357.10478275102867
 20
332.375
 10
358.15790324890685
 20
333.625
  0
LWPOLYLINE
  5
53
330
17
100
AcDbEntity
  8
BAND_05
100
AcDbPolyline
 90
49
 70
1
 10
367.5
 20
340.92444546033937
 10
367.6582422899258
 20
339.375
 10
365.9102129986179
 20
337.625
 10
364.6090574002934
 20
335.125
 10
365.75
 20
333.4571698912923
 10
367.75
 20
333.5990208538801
 10
368.25
 20
334.7141631264926
 10
369.30226415446236
 20
334.125
 10
371.0
 20
337.5226725025076
 10
373.75
 20
339.0862856037696
 10
376.26119894168386
 20
339.375
 10
375.55026355857916
 20
341.625
 10
375.7467958356536
 20
342.875
 10
374.53362166430384
 20
345.375
 10
374.70668322034345
 20
346.375
 10
372.5
 20
347.21026695770706
 10
371.5
 20
345.87715548138664
 10
371.0
 20
347.84161456040863
 10
367.3594415121593
 20
349.125
 10
369.0
 20
349.49036206370573
 10
369.3400713221359
 20
350.125
 10
368.8364212867074
 20
351.125
 10
367.25
 20
352.1099568146971
 10
364.0
 20
351.41114098226177
 10
362.25
 20
351.8187274309024
 10
357.5
 20
348.161646074596
 10
356.3105684097754
 20
348.125
 10
355.377091946156
 20
346.625
 10
355.75
 20
345.5266434593434
 10
354.549101108187
 20
345.375
 10
353.4777843295161
 20
344.125
 10
354.05879291763927
 20
342.125
 10
351.52887866023906
 20
339.125
 10
352.0
 20
336.56921490158663
 10
353.25
 20
337.3248925616447
 10
355.5
 20
337.00915425115886
 10
357.37547363111935
 20
339.125
 10
358.75
 20
339.67084917437444
 10
359.75
 20
339.7485822563364
 10
360.25
 20
339.08207863757093
 10
361.0
 20
339.6559676080748
 10
361.0
 20
336.3682614712649
 10
361.75
 20
336.0946805701451
 10
363.75
 20
332.7335440436779
 10
363.6876667683688
 20
334.375
 10
362.39877343278334
 20
336.875
 10
362.5
 20
337.8861393127345
 10
364.75
 20
337.80787986499917
 10
365.2185415501141
 20
339.375
  0
LWPOLYLINE
  5
54
330
17
100
AcDbEntity
  8
BAND_05
100
AcDbPolyline
 90
7
 70
1
 10
295.25
 20
353.9846160239883
 10
296.2573818200366
 20
353.625
 10
294.0
 20
353.3774819143609
 10
291.846022718315
 20
355.125
 10
291.25
 20
357.319499748522
 10
293.25
 20
357.8046283421248
 10
294.097385907063
 20
357.375
  0
LWPOLYLINE
  5
55
330
17
100
AcDbEntity
  8
BAND_05
100
AcDbPolyline
 90
85
 70
1
 10
419.75
 20
361.94898728312506
 10
419.46104784952826
 20
363.625
 10
418.0
 20
363.9403571999277
 10
414.665789955772
 20
366.625
 10
415.5
 20
366.7527594709056
 10
417.0
 20
369.3665818642003
 10
419.2035102051292
 20
369.875
 10
418.3714985202176
 20
370.875
 10
418.31847072161514
 20
374.875
 10
417.35626044226825
 20
376.125
 10
418.44810258701307
 20
376.875
 10
418.53290138774014
 20
378.125
 10
420.5167263030454
 20
380.875
 10
419.5712246454585
 20
384.375
 10
420.24870590392317
 20
388.875
 10
421.83024390875244
 20
392.625
 10
423.25
 20
392.9658375910526
 10
425.501881971007
 20
391.625
 10
423.5915603404546
 20
394.375
 10
425.18666009221147
 20
397.625
 10
424.5536541854346
 20
398.75
 10
427.0
 20
398.6029189720092
 10
428.25
 20
399.3187836843792
 10
430.75
 20
398.3361765961833
 10
432.25
 20
398.9331616537955
 10
433.25
 20
397.9719634569407
 10
435.125
 20
398.0
 10
436.125
 20
397.0
 10
437.375
 20
393.5
 10
438.94456848068444
 20
392.875
 10
437.0
 20
392.65792043947096
 10
436.1338268516868
 20
395.125
 10
434.5
 20
396.00100958928016
 10
433.25
 20
395.4849171627124
 10
431.75
 20
395.7352216052871
 10
430.75
 20
392.38416291706113
 10
429.5009099628894
 20
391.375
 10
430.75
 20
389.81835902462075
 10
432.25
 20
389.9434820444022
 10
433.34895241418434
 20
388.875
 10
432.60701109131656
 20
385.625
 10
433.75
 20
387.0900170684468
 10
434.75
 20
386.64366186409285
 10
435.08595200896974
 20
388.375
 10
436.4952127732616
 20
388.375
 10
436.5233338731496
 20
385.625
 10
438.87512802150496
 20
380.875
 10
437.75
 20
379.76964578350606
 10
435.15248996787983
 20
380.375
 10
437.1729452385807
 20
375.875
 10
436.97043386851243
 20
373.875
 10
435.889755835876
 20
373.375
 10
435.75
 20
371.3244292041257
 10
433.5
 20
371.31873053466353
 10
432.41435934444144
 20
372.875
 10
432.76606581914893
 20
374.375
 10
434.33559084093883
 20
375.125
 10
433.75
 20
376.5999527782685
 10
432.75
 20
375.45475275885013
 10
431.5
 20
376.45232373934874
 10
430.75
 20
376.0522496169778
 10
429.75
 20
376.58069048264116
 10
429.25
 20
374.9632386764694
 10
428.0
 20
374.33751292890634
 10
427.5321840553344
 20
373.375
 10
429.18647901595875
 20
372.125
 10
429.75
 20
370.4739464674563
 10
430.92061345088473
 20
370.375
 10
430.49696067448565
 20
369.125
 10
428.0
 20
368.196177807446
 10
427.0
 20
369.1084136518445
 10
423.75
 20
369.3424027895182
 10
422.6104591836735
 20
368.875
 10
423.0
 20
367.27845435565905
 10
425.0
 20
364.9418375662094
 10
425.3900853876071
 20
363.625
 10
426.93848186860214
 20
363.625
 10
426.6484864296685
 20
362.375
 10
427.1213840264697
 20
361.125
 10
424.0
 20
358.74416715961445
 10
423.0832099920486
 20
359.375
 10
423.92252805429604
 20
359.875
 10
423.88585669500895
 20
360.625
 10
422.5
 20
360.8342106799325
 10
421.0
 20
361.9806462533009
  0
LWPOLYLINE
  5
56
330
17
100
AcDbEntity
  8
BAND_05
100
AcDbPolyline
 90
18
 70
1
 10
426.75
 20
388.4410921736472
 10
424.5
 20
389.40269121160696
 10
423.75
 20
388.27277037576266
 10
422.0
 20
389.43361063423066
 10
421.0144557232171
 20
387.375
 10
421.59376866588553
 20
385.375
 10
420.87420840481474
 20
383.625
 10
422.0
 20
381.9521553437107
 10
423.0
 20
382.49804208484807
 10
424.5
 20
381.7861450800742
 10
427.5
 20
381.3917776395586
 10
428.75
 20
381.8242563192471
 10
431.25
 20
381.2243083026839
 10
431.27429086424434
 20
382.875
 10
429.75
 20
383.135462676882
 10
428.3903660945089
 20
384.625
 10
428.4567166662059
 20
385.875
 10
427.4820949216755
 20
386.625
  0
LWPOLYLINE
  5
57
330
17
100
AcDbEntity
  8
BAND_05
100
AcDbPolyline
 90
16
 70
1
 10
425.75
 20
378.7899589588109
 10
424.75
 20
380.1033956002565
 10
424.25719471230616
 20
379.375
 10
425.0157988248763
 20
378.375
 10
424.25784554086187
 20
377.375
 10
421.25
 20
378.4191120919416
 10
419.7969607793534
 20
376.875
 10
420.25
 20
375.51398110222874
 10
422.5
 20
375.62179635850663
 10
425.0
 20
374.9240582967677
 10
424.7175251054027
 20
373.625
 10
425.25
 20
372.50985711994554
 10
426.77606578099613
 20
374.625
 10
426.3764882457338
 20
376.125
 10
427.91568449560157
 20
376.625
 10
428.25
 20
378.72312203355915
  0
LWPOLYLINE
  5
58
330
17
100
AcDbEntity
  8
BAND_05
100
AcDbPolyline
 90
8
 70
1
 10
390.75
 20
383.13218513617426
 10
389.0
 20
383.2602957444889
 10
388.25
 20
382.49027436527433
 10
387.19510774533916
 20
382.875
 10
387.3433822662712
 20
384.125
 10
389.0
 20
385.634660023904
 10
390.75
 20
385.0998203238982
 10
391.418686844727
 20
383.625
  0
LWPOLYLINE
  5
59
330
17
100
AcDbEntity
  8
BAND_05
100
AcDbPolyline
 90
80
 70
1
 10
357.0
 20
371.0324135416735
 10
355.8508624858427
 20
372.125
 10
356.1961598542583
 20
373.375
 10
359.21655255784526
 20
376.375
 10
357.75
 20
378.5323681434064
 10
356.5
 20
378.71666160989895
 10
355.78901158162347
 20
377.125
 10
354.5
 20
377.2464949202008
 10
353.375
 20
376.14036686419814
 10
356.125
 20
384.0
 10
360.375
 20
389.0
 10
360.95207667894385
 20
394.75
 10
362.25
 20
394.6859539761382
 10
362.7912727500829
 20
393.625
 10
362.75
 20
393.0236895792135
 10
361.2828623205889
 20
393.125
 10
361.75
 20
391.8382420097944
 10
365.25
 20
393.4499946566801
 10
367.0
 20
392.2555789146124
 10
368.34647446563423
 20
393.875
 10
368.40036497793324
 20
394.625
 10
367.61921189244816
 20
395.375
 10
368.375
 20
395.94118915511297
 10
383.2379962075336
 20
399.75
 10
377.75
 20
396.9819624057424
 10
377.75
 20
395.74576635449563
 10
376.75
 20
394.46008650848427
 10
374.8278879338667
 20
394.875
 10
374.25
 20
396.13923911335246
 10
373.5
 20
395.9771275010033
 10
373.92545516097965
 20
392.875
 10
369.75
 20
390.233911738985
 10
367.75
 20
389.59242312430626
 10
365.1883776410044
 20
390.625
 10
365.75
 20
389.4456986958782
 10
369.25
 20
388.41230283716783
 10
371.5
 20
388.8260623885606
 10
374.75
 20
390.7606902455565
 10
375.49975705505676
 20
390.375
 10
373.6005599939397
 20
386.875
 10
372.5
 20
387.1551628748595
 10
370.5
 20
385.88164597092384
 10
368.19239278070467
 20
385.375
 10
369.0
 20
383.2342409145885
 10
369.6497168075184
 20
383.125
 10
368.14093562836575
 20
382.875
 10
369.0
 20
381.1569259854032
 10
365.8348262740939
 20
383.375
 10
364.4501841730038
 20
383.125
 10
365.15363134468885
 20
382.125
 10
364.5
 20
381.4482916506104
 10
361.9726506159855
 20
382.625
 10
362.91160126575295
 20
379.875
 10
366.63947455637157
 20
376.875
 10
367.25
 20
375.73071522894327
 10
366.2431533299794
 20
375.625
 10
365.09589709356055
 20
377.625
 10
363.75
 20
377.39898449791247
 10
362.5
 20
379.4489307945167
 10
360.0
 20
380.99296814182173
 10
358.25
 20
381.35275629829
 10
357.96683869737797
 20
380.875
 10
359.1328103353281
 20
379.375
 10
359.17972567952637
 20
378.375
 10
361.6818678575186
 20
376.375
 10
361.75
 20
375.41847449269295
 10
363.5
 20
374.8767101334787
 10
365.5
 20
371.8818693398614
 10
366.4118773260808
 20
371.625
 10
366.5
 20
369.41161090665776
 10
365.5
 20
369.24408100578216
 10
365.69260230745493
 20
370.625
 10
365.25
 20
371.05572431841523
 10
363.0
 20
370.25108305692817
 10
362.25
 20
368.78990278563924
 10
361.59115840958714
 20
369.125
 10
362.0
 20
372.9780060753471
 10
360.0
 20
369.42878995055383
 10
358.5749047135844
 20
369.875
 10
358.0
 20
371.33170802247616
  0
LWPOLYLINE
  5
5A
330
17
100
AcDbEntity
  8
BAND_05
100
AcDbPolyline
 90
10
 70
1
 10
440.0
 20
388.4694329393456
 10
441.7423483030123
 20
387.625
 10
442.8234378557677
 20
384.375
 10
441.6420094324099
 20
383.125
 10
443.0862839850178
 20
381.625
 10
441.4508328620462
 20
381.625
 10
440.25
 20
383.42515199099387
 10
438.5716580945443
 20
383.875
 10
439.32506124102815
 20
384.875
 10
439.11935105554926
 20
386.625
  0
LWPOLYLINE
  5
5B
330
17
100
AcDbEntity
  8
BAND_05
100
AcDbPolyline
 90
6
 70
1
 10
378.0
 20
387.7440042290582
 10
377.20866740785146
 20
388.625
 10
378.25
 20
391.2390417953361
 10
382.0
 20
393.1011568545686
 10
381.5
 20
390.1988257650895
 10
379.27638756802446
 20
387.625
  0
LWPOLYLINE
  5
5C
330
17
100
AcDbEntity
  8
BAND_05
100
AcDbPolyline
 90
26
 70
1
 10
401.3960655565083
 20
392.125
 10
401.93547452405517
 20
393.625
 10
399.75
 20
394.10637617197733
 10
396.75
 20
393.383935920267
 10
395.0
 20
393.6768406089561
 10
393.77957650946104
 20
395.0
 10
396.125
 20
394.25
 10
401.375
 20
394.25
 10
403.875
 20
393.25
 10
405.125
 20
391.75
 10
406.125
 20
391.5
 10
407.125
 20
391.5
 10
413.36214661005187
 20
394.5
 10
411.75
 20
393.26134936341606
 10
410.1573681138532
 20
392.875
 10
409.26853578194977
 20
391.375
 10
408.25
 20
391.09465836184114
 10
407.9321449086365
 20
389.125
 10
406.0
 20
389.85124680340004
 10
404.25
 20
387.5325469541362
 10
404.01894861121116
 20
388.125
 10
404.7287583189977
 20
389.875
 10
405.835401327899
 20
390.125
 10
403.75
 20
392.7518562350538
 10
403.25
 20
392.8644088352494
 10
402.25
 20
391.4471312834843
  0
ENDSEC
  0
SECTION
  2
OBJECTS
  0
DICTIONARY
  5
A
330
0
100
AcDbDictionary
281
1
  3
ACAD_COLOR
350
B
  3
ACAD_GROUP
350
C
  3
ACAD_LAYOUT
350
D
  3
ACAD_MATERIAL
350
E
  3
ACAD_MLEADERSTYLE
350
F
  3
ACAD_MLINESTYLE
350
10
  3
ACAD_PLOTSETTINGS
350
11
  3
ACAD_PLOTSTYLENAME
350
12
  3
ACAD_SCALELIST
350
14
  3
ACAD_TABLESTYLE
350
15
  3
ACAD_VISUALSTYLE
350
16
  3
EZDXF_META
350
2D
  0
DICTIONARY
  5
B
330
A
100
AcDbDictionary
281
1
  0
DICTIONARY
  5
C
330
A
100
AcDbDictionary
281
1
  0
DICTIONARY
  5
D
330
A
100
AcDbDictionary
281
1
  3
Model
350
1A
  3
Layout1
350
1E
  0
DICTIONARY
  5
E
330
A
100
AcDbDictionary
281
1
  3
ByBlock
350
1F
  3
ByLayer
350
20
  3
Global
350
21
  0
DICTIONARY
  5
F
330
A
100
AcDbDictionary
281
1
  3
Standard
350
2C
  0
DICTIONARY
  5
10
330
A
100
AcDbDictionary
281
1
  3
Standard
350
22
  0
DICTIONARY
  5
11
330
A
100
AcDbDictionary
281
1
  0
ACDBDICTIONARYWDFLT
  5
12
330
A
100
AcDbDictionary
281
1
  3
Normal
350
13
100
AcDbDictionaryWithDefault
340
13
  0
ACDBPLACEHOLDER
  5
13
330
12
  0
DICTIONARY
  5
14
330
A
100
AcDbDictionary
281
1
  0
DICTIONARY
  5
15
330
A
100
AcDbDictionary
281
1
  0
DICTIONARY
  5
16
330
A
100
AcDbDictionary
281
1
  0
LAYOUT
  5
1A
330
D
100
AcDbPlotSettings
  1

  4
A3
  6

 40
7.5
 41
20.0
 42
7.5
 43
20.0
 44
420.0
 45
297.0
 46
0.0
 47
0.0
 48
0.0
 49
0.0
140
0.0
141
0.0
142
1.0
143
1.0
 70
1024
 72
1
 73
0
 74
5
  7

 75
16
 76
0
 77
2
 78
300
147
1.0
148
0.0
149
0.0
100
AcDbLayout
  1
Model
 70
1
 71
0
 10
0.0
 20
0.0
 11
420.0
 21
297.0
 12
0.0
 22
0.0
 32
0.0
 14
1e+20
 24
1e+20
 34
1e+20
 15
-1e+20
 25
-1e+20
 35
-1e+20
146
0.0
 13
0.0
 23
0.0
 33
0.0
 16
1.0
 26
0.0
 36
0.0
 17
0.0
 27
1.0
 37
0.0
 76
1
330
17
  0
LAYOUT
  5
1E
330
D
100
AcDbPlotSettings
  1

  4
A3
  6

 40
7.5
 41
20.0
 42
7.5
 43
20.0
 44
420.0
 45
297.0
 46
0.0
 47
0.0
 48
0.0
 49
0.0
140
0.0
141
0.0
142
1.0
143
1.0
 70
0
 72
1
 73
0
 74
5
  7

 75
16
 76
0
 77
2
 78
300
147
1.0
148
0.0
149
0.0
100
AcDbLayout
  1
Layout1
 70
1
 71
1
 10
0.0
 20
0.0
 11
420.0
 21
297.0
 12
0.0
 22
0.0
 32
0.0
 14
1e+20
 24
1e+20
 34
1e+20
 15
-1e+20
 25
-1e+20
 35
-1e+20
146
0.0
 13
0.0
 23
0.0
 33
0.0
 16
1.0
 26
0.0
 36
0.0
 17
0.0
 27
1.0
 37
0.0
 76
1
330
1B
  0
MATERIAL
  5
1F
102
{ACAD_REACTORS
330
E
102
}
330
E
100
AcDbMaterial
  1
ByBlock
  2

 70
0
 40
1.0
 71
1
 41
1.0
 91
-1023410177
 42
1.0
 72
1
  3

 73
1
 74
1
 75
1
 44
0.5
 73
0
 45
1.0
 46
1.0
 77
1
  4

 78
1
 79
1
170
1
 48
1.0
171
1
  6

172
1
173
1
174
1
140
1.0
141
1.0
175
1
  7

176
1
177
1
178
1
143
1.0
179
1
  8

270
1
271
1
272
1
145
1.0
146
1.0
273
1
  9

274
1
275
1
276
1
 42
1.0
 72
1
  3

 73
1
 74
1
 75
1
 94
63
  0
MATERIAL
  5
20
102
{ACAD_REACTORS
330
E
102
}
330
E
100
AcDbMaterial
  1
ByLayer
  2

 70
0
 40
1.0
 71
1
 41
1.0
 91
-1023410177
 42
1.0
 72
1
  3

 73
1
 74
1
 75
1
 44
0.5
 73
0
 45
1.0
 46
1.0
 77
1
  4

 78
1
 79
1
170
1
 48
1.0
171
1
  6

172
1
173
1
174
1
140
1.0
141
1.0
175
1
  7

176
1
177
1
178
1
143
1.0
179
1
  8

270
1
271
1
272
1
145
1.0
146
1.0
273
1
  9

274
1
275
1
276
1
 42
1.0
 72
1
  3

 73
1
 74
1
 75
1
 94
63
  0
MATERIAL
  5
21
102
{ACAD_REACTORS
330
E
102
}
330
E
100
AcDbMaterial
  1
Global
  2

 70
0
 40
1.0
 71
1
 41
1.0
 91
-1023410177
 42
1.0
 72
1
  3

 73
1
 74
1
 75
1
 44
0.5
 73
0
 45
1.0
 46
1.0
 77
1
  4

 78
1
 79
1
170
1
 48
1.0
171
1
  6

172
1
173
1
174
1
140
1.0
141
1.0
175
1
  7

176
1
177
1
178
1
143
1.0
179
1
  8

270
1
271
1
272
1
145
1.0
146
1.0
273
1
  9

274
1
275
1
276
1
 42
1.0
 72
1
  3

 73
1
 74
1
 75
1
 94
63
  0
MLINESTYLE
  5
22
102
{ACAD_REACTORS
330
10
102
}
330
10
100
AcDbMlineStyle
  2
Standard
 70
0
  3

 62
256
 51
90.0
 52
90.0
 71
2
 49
0.5
 62
256
  6
BYLAYER
 49
-0.5
 62
256
  6
BYLAYER
  0
MLEADERSTYLE
  5
2C
102
{ACAD_REACTORS
330
F
102
}
330
F
100
AcDbMLeaderStyle
179
2
170
2
171
1
172
0
 90
2
 40
0.0
 41
0.0
173
1
 91
-1056964608
 92
-2
290
1
 42
2.0
291
1
 43
8.0
  3
Standard
 44
4.0
300

342
29
174
1
175
1
176
0
178
1
 93
-1056964608
 45
4.0
292
0
297
0
 46
4.0
 94
-1056964608
 47
1.0
 49
1.0
140
1.0
294
1
141
0.0
177
0
142
1.0
295
0
296
0
143
3.75
271
0
272
9
273
9
  0
DICTIONARY
  5
2D
330
A
100
AcDbDictionary
280
1
281
1
  3
CREATED_BY_EZDXF
350
2E
  3
WRITTEN_BY_EZDXF
350
5F
  0
DICTIONARYVAR
  5
2E
330
2D
100
DictionaryVariables
280
0
  1
1.4.3 @ 2026-09-03T21:25:23.185625+00:00
  0
DICTIONARYVAR
  5
5F
330
2D
100
DictionaryVariables
280
0
  1
1.4.3 @ 2026-09-03T21:25:23.189775+00:00
  0
ENDSEC
  0
EOF
