  0
SECTION
  2
HEADER
  9
$ACADVER
  1
AC1024
  9
$ACADMAINTVER
 70
6
  9
$DWGCODEPAGE
  3
ANSI_1252
  9
$LASTSAVEDBY
  1
ezdxf
  9
$INSBASE
 10
0.0
 20
0.0
 30
0.0
  9
$EXTMIN
 10
1e+20
 20
1e+20
 30
1e+20
  9
$EXTMAX
 10
-1e+20
 20
-1e+20
 30
-1e+20
  9
$LIMMIN
 10
0.0
 20
0.0
  9
$LIMMAX
 10
420.0
 20
297.0
  9
$ORTHOMODE
 70
0
  9
$REGENMODE
 70
1
  9
$FILLMODE
 70
1
  9
$QTEXTMODE
 70
0
  9
$MIRRTEXT
 70
1
  9
$LTSCALE
 40
1.0
  9
$ATTMODE
 70
1
  9
$TEXTSIZE
 40
2.5
  9
$TRACEWID
 40
1.0
  9
$TEXTSTYLE
  7
Standard
  9
$CLAYER
  8
0
  9
$CELTYPE
  6
ByLayer
  9
$CECOLOR
 62
256
  9
$CELTSCALE
 40
1.0
  9
$DISPSILH
 70
0
  9
$DIMSCALE
 40
1.0
  9
$DIMASZ
 40
2.5
  9
$DIMEXO
 40
0.625
  9
$DIMDLI
 40
3.75
  9
$DIMRND
 40
0.0
  9
$DIMDLE
 40
0.0
  9
$DIMEXE
 40
1.25
  9
$DIMTP
 40
0.0
  9
$DIMTM
 40
0.0
  9
$DIMTXT
 40
2.5
  9
$DIMCEN
 40
2.5
  9
$DIMTSZ
 40
0.0
  9
$DIMTOL
 70
0
  9
$DIMLIM
 70
0
  9
$DIMTIH
 70
0
  9
$DIMTOH
 70
0
  9
$DIMSE1
 70
0
  9
$DIMSE2
 70
0
  9
$DIMTAD
 70
1
  9
$DIMZIN
 70
8
  9
$DIMBLK
  1

  9
$DIMASO
 70
1
  9
$DIMSHO
 70
1
  9
$DIMPOST
  1

  9
$DIMAPOST
  1

  9
$DIMALT
 70
0
  9
$DIMALTD
 70
3
  9
$DIMALTF
 40
0.03937007874
  9
$DIMLFAC
 40
1.0
  9
$DIMTOFL
 70
1
  9
$DIMTVP
 40
0.0
  9
$DIMTIX
 70
0
  9
$DIMSOXD
 70
0
  9
$DIMSAH
 70
0
  9
$DIMBLK1
  1

  9
$DIMBLK2
  1

  9
$DIMSTYLE
  2
ISO-25
  9
$DIMCLRD
 70
0
  9
$DIMCLRE
 70
0
  9
$DIMCLRT
 70
0
  9
$DIMTFAC
 40
1.0
  9
$DIMGAP
 40
0.625
  9
$DIMJUST
 70
0
  9
$DIMSD1
 70
0
  9
$DIMSD2
 70
0
  9
$DIMTOLJ
 70
0
  9
$DIMTZIN
 70
8
  9
$DIMALTZ
 70
0
  9
$DIMALTTZ
 70
0
  9
$DIMUPT
 70
0
  9
$DIMDEC
 70
2
  9
$DIMTDEC
 70
2
  9
$DIMALTU
 70
2
  9
$DIMALTTD
 70
3
  9
$DIMTXSTY
  7
Standard
  9
$DIMAUNIT
 70
0
  9
$DIMADEC
 70
0
  9
$DIMALTRND
 40
0.0
  9
$DIMAZIN
 70
0
  9
$DIMDSEP
 70
44
  9
$DIMATFIT
 70
3
  9
$DIMFRAC
 70
0
  9
$DIMLDRBLK
  1

  9
$DIMLUNIT
 70
2
  9
$DIMLWD
 70
-2
  9
$DIMLWE
 70
-2
  9
$DIMTMOVE
 70
0
  9
$DIMFXL
 40
1.0
  9
$DIMFXLON
 70
0
  9
$DIMJOGANG
 40
0.785398163397
  9
$DIMTFILL
 70
0
  9
$DIMTFILLCLR
 70
0
  9
$DIMARCSYM
 70
0
  9
$DIMLTYPE
  6

  9
$DIMLTEX1
  6

  9
$DIMLTEX2
  6

  9
$DIMTXTDIRECTION
 70
0
  9
$LUNITS
 70
2
  9
$LUPREC
 70
4
  9
$SKETCHINC
 40
1.0
  9
$FILLETRAD
 40
10.0
  9
$AUNITS
 70
0
  9
$AUPREC
 70
2
  9
$MENU
  1
.
  9
$ELEVATION
 40
0.0
  9
$PELEVATION
 40
0.0
  9
$THICKNESS
 40
0.0
  9
$LIMCHECK
 70
0
  9
$CHAMFERA
 40
0.0
  9
$CHAMFERB
 40
0.0
  9
$CHAMFERC
 40
0.0
  9
$CHAMFERD
 40
0.0
  9
$SKPOLY
 70
0
  9
$TDCREATE
 40
2461288.3092939816
  9
$TDUCREATE
 40
2458532.153996898
  9
$TDUPDATE
 40
2461288.3092939816
  9
$TDUUPDATE
 40
2458532.1544311
  9
$TDINDWG
 40
0.0
  9
$TDUSRTIMER
 40
0.0
  9
$USRTIMER
 70
1
  9
$ANGBASE
 50
0.0
  9
$ANGDIR
 70
0
  9
$PDMODE
 70
0
  9
$PDSIZE
 40
0.0
  9
$PLINEWID
 40
0.0
  9
$SPLFRAME
 70
0
  9
$SPLINETYPE
 70
6
  9
$SPLINESEGS
 70
8
  9
$HANDSEED
  5
41
  9
$SURFTAB1
 70
6
  9
$SURFTAB2
 70
6
  9
$SURFTYPE
 70
6
  9
$SURFU
 70
6
  9
$SURFV
 70
6
  9
$UCSBASE
  2

  9
$UCSNAME
  2

  9
$UCSORG
 10
0.0
 20
0.0
 30
0.0
  9
$UCSXDIR
 10
1.0
 20
0.0
 30
0.0
  9
$UCSYDIR
 10
0.0
 20
1.0
 30
0.0
  9
$UCSORTHOREF
  2

  9
$UCSORTHOVIEW
 70
0
  9
$UCSORGTOP
 10
0.0
 20
0.0
 30
0.0
  9
$UCSORGBOTTOM
 10
0.0
 20
0.0
 30
0.0
  9
$UCSORGLEFT
 10
0.0
 20
0.0
 30
0.0
  9
$UCSORGRIGHT
 10
0.0
 20
0.0
 30
0.0
  9
$UCSORGFRONT
 10
0.0
 20
0.0
 30
0.0
  9
$UCSORGBACK
 10
0.0
 20
0.0
 30
0.0
  9
$PUCSBASE
  2

  9
$PUCSNAME
  2

  9
$PUCSORG
 10
0.0
 20
0.0
 30
0.0
  9
$PUCSXDIR
 10
1.0
 20
0.0
 30
0.0
  9
$PUCSYDIR
 10
0.0
 20
1.0
 30
0.0
  9
$PUCSORTHOREF
  2

  9
$PUCSORTHOVIEW
 70
0
  9
$PUCSORGTOP
 10
0.0
 20
0.0
 30
0.0
  9
$PUCSORGBOTTOM
 10
0.0
 20
0.0
 30
0.0
  9
$PUCSORGLEFT
 10
0.0
 20
0.0
 30
0.0
  9
$PUCSORGRIGHT
 10
0.0
 20
0.0
 30
0.0
  9
$PUCSORGFRONT
 10
0.0
 20
0.0
 30
0.0
  9
$PUCSORGBACK
 10
0.0
 20
0.0
 30
0.0
  9
$USERI1
 70
0
  9
$USERI2
 70
0
  9
$USERI3
 70
0
  9
$USERI4
 70
0
  9
$USERI5
 70
0
  9
$USERR1
 40
0.0
  9
$USERR2
 40
0.0
  9
$USERR3
 40
0.0
  9
$USERR4
 40
0.0
  9
$USERR5
 40
0.0
  9
$WORLDVIEW
 70
1
  9
$SHADEDGE
 70
3
  9
$SHADEDIF
 70
70
  9
$TILEMODE
 70
1
  9
$MAXACTVP
 70
64
  9
$PINSBASE
 10
0.0
 20
0.0
 30
0.0
  9
$PLIMCHECK
 70
0
  9
$PEXTMIN
 10
1e+20
 20
1e+20
 30
1e+20
  9
$PEXTMAX
 10
-1e+20
 20
-1e+20
 30
-1e+20
  9
$PLIMMIN
 10
0.0
 20
0.0
  9
$PLIMMAX
 10
420.0
 20
297.0
  9
$UNITMODE
 70
0
  9
$VISRETAIN
 70
1
  9
$PLINEGEN
 70
0
  9
$PSLTSCALE
 70
1
  9
$TREEDEPTH
 70
3020
  9
$CMLSTYLE
  2
Standard
  9
$CMLJUST
 70
0
  9
$CMLSCALE
 40
20.0
  9
$PROXYGRAPHICS
 70
1
  9
$MEASUREMENT
 70
1
  9
$CELWEIGHT
370
-1
  9
$ENDCAPS
280
0
  9
$JOINSTYLE
280
0
  9
$LWDISPLAY
290
0
  9
$INSUNITS
 70
4
  9
$HYPERLINKBASE
  1

  9
$STYLESHEET
  1

  9
$XEDIT
290
1
  9
$CEPSNTYPE
380
0
  9
$PSTYLEMODE
290
1
  9
$FINGERPRINTGUID
  2
{EDADDF66-34BB-4C6E-99BF-377E8C074F96}
  9
$VERSIONGUID
  2
{59AC7BAB-5B3A-4A6E-80D9-01D984963636}
  9
$EXTNAMES
290
1
  9
$PSVPSCALE
 40
0.0
  9
$OLESTARTUP
290
0
  9
$SORTENTS
280
127
  9
$INDEXCTL
280
0
  9
$HIDETEXT
280
1
  9
$XCLIPFRAME
280
1
  9
$HALOGAP
280
0
  9
$OBSCOLOR
 70
257
  9
$OBSLTYPE
280
0
  9
$INTERSECTIONDISPLAY
280
0
  9
$INTERSECTIONCOLOR
 70
257
  9
$DIMASSOC
280
2
  9
$PROJECTNAME
  1

  9
$CAMERADISPLAY
290
0
  9
$LENSLENGTH
 40
50.0
  9
$CAMERAHEIGHT
 40
0.0
  9
$STEPSPERSEC
 40
24.0
  9
$STEPSIZE
 40
100.0
  9
$3DDWFPREC
 40
2.0
  9
$PSOLWIDTH
 40
0.005
  9
$PSOLHEIGHT
 40
0.08
  9
$LOFTANG1
 40
1.570796326795
  9
$LOFTANG2
 40
1.570796326795
  9
$LOFTMAG1
 40
0.0
  9
$LOFTMAG2
 40
0.0
  9
$LOFTPARAM
 70
7
  9
$LOFTNORMALS
280
1
  9
$LATITUDE
 40
37.795
  9
$LONGITUDE
 40
-122.394
  9
$NORTHDIRECTION
 40
0.0
  9
$TIMEZONE
 70
-8000
  9
$LIGHTGLYPHDISPLAY
280
1
  9
$TILEMODELIGHTSYNCH
280
1
  9
$CMATERIAL
347
20
  9
$SOLIDHIST
280
0
  9
$SHOWHIST
280
1
  9
$DWFFRAME
280
2
  9
$DGNFRAME
280
2
  9
$REALWORLDSCALE
290
1
  9
$INTERFERECOLOR
 62
256
  9
$CSHADOW
280
0
  9
$SHADOWPLANELOCATION
 40
0.0
  0
ENDSEC
  0
SECTION
  2
CLASSES
  0
CLASS
  1
ACDBDICTIONARYWDFLT
  2
AcDbDictionaryWithDefault
  3
ObjectDBX Classes
 90
0
 91
0
280
0
281
0
  0
CLASS
  1
SUN
  2
AcDbSun
  3
SCENEOE
 90
1153
 91
0
280
0
281
0
  0
CLASS
  1
VISUALSTYLE
  2
AcDbVisualStyle
  3
ObjectDBX Classes
 90
4095
 91
0
280
0
281
0
  0
CLASS
  1
MATERIAL
  2
AcDbMaterial
  3
ObjectDBX Classes
 90
1153
 91
0
280
0
281
0
  0
CLASS
  1
SCALE
  2
AcDbScale
  3
ObjectDBX Classes
 90
1153
 91
0
280
0
281
0
  0
CLASS
  1
TABLESTYLE
  2
AcDbTableStyle
  3
ObjectDBX Classes
 90
4095
 91
0
280
0
281
0
  0
CLASS
  1
MLEADERSTYLE
  2
AcDbMLeaderStyle
  3
ACDB_MLEADERSTYLE_CLASS
 90
4095
 91
0
280
0
281
0
  0
CLASS
  1
DICTIONARYVAR
  2
AcDbDictionaryVar
  3
ObjectDBX Classes
 90
0
 91
0
280
0
281
0
  0
CLASS
  1
CELLSTYLEMAP
  2
AcDbCellStyleMap
  3
ObjectDBX Classes
 90
1152
 91
0
280
0
281
0
  0
CLASS
  1
MENTALRAYRENDERSETTINGS
  2
AcDbMentalRayRenderSettings
  3
SCENEOE
 90
1024
 91
0
280
0
281
0
  0
CLASS
  1
ACDBDETAILVIEWSTYLE
  2
AcDbDetailViewStyle
  3
ObjectDBX Classes
 90
1025
 91
0
280
0
281
0
  0
CLASS
  1
ACDBSECTIONVIEWSTYLE
  2
AcDbSectionViewStyle
  3
ObjectDBX Classes
 90
1025
 91
0
280
0
281
0
  0
CLASS
  1
RASTERVARIABLES
  2
AcDbRasterVariables
  3
ISM
 90
0
 91
0
280
0
281
0
  0
CLASS
  1
ACDBPLACEHOLDER
  2
AcDbPlaceHolder
  3
ObjectDBX Classes
 90
0
 91
0
280
0
281
0
  0
CLASS
  1
LAYOUT
  2
AcDbLayout
  3
ObjectDBX Classes
 90
0
 91
0
280
0
281
0
  0
ENDSEC
  0
SECTION
  2
TABLES
  0
TABLE
  2
VPORT
  5
8
330
0
100
AcDbSymbolTable
 70
1
  0
VPORT
  5
23
330
8
100
AcDbSymbolTableRecord
100
AcDbViewportTableRecord
  2
*Active
 70
0
 10
0.0
 20
0.0
 11
1.0
 21
1.0
 12
0.0
 22
0.0
 13
0.0
 23
0.0
 14
0.5
 24
0.5
 15
0.5
 25
0.5
 16
0.0
 26
0.0
 36
1.0
 17
0.0
 27
0.0
 37
0.0
 40
1000.0
 41
1.34
 42
50.0
 43
0.0
 44
0.0
 50
0.0
 51
0.0
 71
0
 72
1000
 73
1
 74
3
 75
0
 76
0
 77
0
 78
0
281
0
 65
0
146
0.0
  0
ENDTAB
  0
TABLE
  2
LTYPE
  5
2
330
0
100
AcDbSymbolTable
 70
3
  0
LTYPE
  5
24
330
2
100
AcDbSymbolTableRecord
100
AcDbLinetypeTableRecord
  2
ByBlock
 70
0
  3

 72
65
 73
0
 40
0.0
  0
LTYPE
  5
25
330
2
100
AcDbSymbolTableRecord
100
AcDbLinetypeTableRecord
  2
ByLayer
 70
0
  3

 72
65
 73
0
 40
0.0
  0
LTYPE
  5
26
330
2
100
AcDbSymbolTableRecord
100
AcDbLinetypeTableRecord
  2
Continuous
 70
0
  3

 72
65
 73
0
 40
0.0
  0
ENDTAB
  0
TABLE
  2
LAYER
  5
1
330
0
100
AcDbSymbolTable
 70
3
  0
LAYER
  5
27
330
1
100
AcDbSymbolTableRecord
100
AcDbLayerTableRecord
  2
0
 70
0
 62
7
  6
Continuous
370
-3
390
13
347
21
  0
LAYER
  5
28
330
1
100
AcDbSymbolTableRecord
100
AcDbLayerTableRecord
  2
Defpoints
 70
0
 62
7
  6
Continuous
290
0
370
-3
390
13
347
21
  0
LAYER
  5
2F
330
1
100
AcDbSymbolTableRecord
100
AcDbLayerTableRecord
  2
BAND_01
 70
0
 62
1
  6
Continuous
370
-3
390
13
347
21
  0
ENDTAB
  0
TABLE
  2
STYLE
  5
5
330
0
100
AcDbSymbolTable
 70
1
  0
STYLE
  5
29
330
5
100
AcDbSymbolTableRecord
100
AcDbTextStyleTableRecord
  2
Standard
 70
0
 40
0.0
 41
1.0
 50
0.0
 71
0
 42
2.5
  3
txt
  4

  0
ENDTAB
  0
TABLE
  2
VIEW
  5
7
330
0
100
AcDbSymbolTable
 70
0
  0
ENDTAB
  0
TABLE
  2
UCS
  5
6
330
0
100
AcDbSymbolTable
 70
0
  0
ENDTAB
  0
TABLE
  2
APPID
  5
3
330
0
100
AcDbSymbolTable
 70
3
  0
APPID
  5
2A
330
3
100
AcDbSymbolTableRecord
100
AcDbRegAppTableRecord
  2
ACAD
 70
0
  0
APPID
  5
3E
330
3
100
AcDbSymbolTableRecord
100
AcDbRegAppTableRecord
  2
HATCHBACKGROUNDCOLOR
 70
0
  0
APPID
  5
3F
330
3
100
AcDbSymbolTableRecord
100
AcDbRegAppTableRecord
  2
EZDXF
 70
0
  0
ENDTAB
  0
TABLE
  2
DIMSTYLE
  5
4
330
0
100
AcDbSymbolTable
 70
1
100
AcDbDimStyleTable
  0
DIMSTYLE
105
2B
330
4
100
AcDbSymbolTableRecord
100
AcDbDimStyleTableRecord
  2
Standard
 70
0
 40
1.0
 41
2.5
 42
0.625
 43
3.75
 44
1.25
 45
0.0
 46
0.0
 47
0.0
 48
0.0
 49
2.5
140
2.5
141
2.5
142
0.0
143
0.03937007874
144
1.0
145
0.0
146
1.0
147
0.625
148
0.0
 69
0
 70
0
 71
0
 72
0
 73
0
 74
0
 75
0
 76
0
 77
1
 78
8
 79
3
170
0
171
3
172
1
173
0
174
0
175
0
176
0
177
0
178
0
179
2
271
2
272
2
273
2
274
3
275
0
276
0
277
2
278
44
279
0
280
0
281
0
282
0
283
0
284
8
285
0
286
0
288
0
289
3
290
0
371
-2
372
-2
  0
ENDTAB
  0
TABLE
  2
BLOCK_RECORD
  5
9
330
0
100
AcDbSymbolTable
 70
2
  0
BLOCK_RECORD
  5
17
330
9
100
AcDbSymbolTableRecord
100
AcDbBlockTableRecord
  2
*Model_Space
340
1A
 70
0
280
1
281
0
  0
BLOCK_RECORD
  5
1B
330
9
100
AcDbSymbolTableRecord
100
AcDbBlockTableRecord
  2
*Paper_Space
340
1E
 70
0
280
1
281
0
  0
ENDTAB
  0
ENDSEC
  0
SECTION
  2
BLOCKS
  0
BLOCK
  5
18
330
17
100
AcDbEntity
  8
0
100
AcDbBlockBegin
  2
*Model_Space
 70
0
 10
0.0
 20
0.0
 30
0.0
  3
*Model_Space
  1

  0
ENDBLK
  5
19
330
17
100
AcDbEntity
  8
0
100
AcDbBlockEnd
  0
BLOCK
  5
1C
330
1B
100
AcDbEntity
  8
0
100
AcDbBlockBegin
  2
*Paper_Space
 70
0
 10
0.0
 20
0.0
 30
0.0
  3
*Paper_Space
  1

  0
ENDBLK
  5
1D
330
1B
100
AcDbEntity
  8
0
100
AcDbBlockEnd
  0
ENDSEC
  0
SECTION
  2
ENTITIES
  0
LWPOLYLINE
  5
30
330
17
100
AcDbEntity
  8
BAND_01
100
AcDbPolyline
 90
69
 70
1
 10
201.25
 20
86.16724290252978
 10
196.9338758746388
 20
85.375
 10
195.25
 20
86.81449866636068
 10
193.06189177753754
 20
87.375
 10
189.5
 20
89.52126538405027
 10
183.25
 20
90.02481831968127
 10
179.75
 20
88.04672097871365
 10
172.5
 20
90.68314681614837
 10
165.5
 20
90.80617872585968
 10
162.5
 20
89.571788944697
 10
161.9402868503267
 20
90.125
 10
162.5
 20
90.51222494855156
 10
162.22274413492252
 20
91.125
 10
161.0
 20
91.33887869121769
 10
157.0437896129469
 20
94.375
 10
159.0
 20
93.96667016815044
 10
160.75
 20
92.34651649493043
 10
162.75
 20
93.63775976617826
 10
163.25
 20
92.04964264078008
 10
164.5
 20
94.18641419321753
 10
166.75
 20
95.8587375290051
 10
167.75
 20
94.9913440439538
 10
169.5
 20
96.02182617983408
 10
171.0
 20
94.00193465026544
 10
174.25
 20
94.2597492396069
 10
174.8553605052857
 20
94.875
 10
174.7289364056365
 20
95.875
 10
173.75
 20
96.67631602926244
 10
171.24208922054362
 20
96.625
 10
171.76617842444662
 20
97.625
 10
169.6525850513517
 20
99.625
 10
169.42571585298958
 20
100.625
 10
169.6159617033438
 20
101.125
 10
171.5
 20
98.97068828957703
 10
173.25
 20
98.83532662840514
 10
174.5
 20
97.24120455034426
 10
175.75
 20
97.34019591080072
 10
177.63409102207203
 20
101.125
 10
176.75
 20
101.57899575835134
 10
174.75
 20
100.57835298534529
 10
173.75
 20
100.75243364991701
 10
172.53253057667033
 20
102.875
 10
173.25
 20
103.70308397664485
 10
175.0
 20
103.4883378782107
 10
178.45706794622612
 20
101.625
 10
178.60810883092344
 20
100.375
 10
179.68126363313547
 20
100.375
 10
180.25
 20
99.10751486996533
 10
181.75
 20
99.56894572265941
 10
185.5
 20
98.7291108371744
 10
193.5
 20
98.1282315601459
 10
196.25
 20
96.07179873923282
 10
198.5
 20
95.90342330057914
 10
201.75
 20
94.4783775101172
 10
206.5
 20
95.3760084453189
 10
207.3202220436003
 20
94.375
 10
206.75
 20
93.50722941264713
 10
202.75708816844121
 20
92.875
 10
206.25
 20
90.19680191300827
 10
207.25
 20
88.60220761218324
 10
208.25
 20
88.90220599247073
 10
209.75
 20
91.16572672884044
 10
209.25
 20
98.01210151006713
 10
212.5
 20
93.38287464580569
 10
217.17497512019403
 20
92.875
 10
213.73325690795505
 20
89.625
 10
209.5
 20
89.52552519314958
 10
204.845193781232
 20
84.0
 10
203.18758525113097
 20
84.0
  0
LWPOLYLINE
  5
31
330
17
100
AcDbEntity
  8
BAND_01
100
AcDbPolyline
 90
8
 70
1
 10
259.0
 20
116.95770545106201
 10
262.25
 20
114.76833737812703
 10
264.25
 20
116.15745700924506
 10
265.0810415039607
 20
115.875
 10
264.0708168819719
 20
114.625
 10
263.5
 20
111.64444287693017
 10
261.75
 20
111.73587395624037
 10
258.7459474615776
 20
115.375
  0
LWPOLYLINE
  5
32
330
17
100
AcDbEntity
  8
BAND_01
100
AcDbPolyline
 90
251
 70
1
 10
224.0
 20
102.52237629960436
 10
222.0
 20
100.8869952242389
 10
220.27263830009184
 20
102.625
 10
219.25
 20
105.75309082677437
 10
219.75
 20
109.37256808871916
 10
221.28201079715532
 20
112.375
 10
230.6135965024114
 20
119.125
 10
235.1623017314499
 20
126.375
 10
234.5
 20
127.4070561798084
 10
232.5
 20
126.72517405947565
 10
230.75
 20
127.8239619531823
 10
229.5
 20
129.4025267627561
 10
227.2405933956192
 20
134.625
 10
227.4640371047837
 20
137.125
 10
226.65515555650066
 20
143.625
 10
228.62160335809645
 20
154.125
 10
227.75
 20
155.14047483496392
 10
225.25
 20
154.60038843277744
 10
224.93428674955015
 20
155.625
 10
222.53374640640942
 20
156.625
 10
222.64923825624993
 20
158.625
 10
221.73955869272723
 20
160.375
 10
221.75
 20
162.37001514026167
 10
223.47461589871102
 20
165.125
 10
221.82575735620853
 20
168.625
 10
224.5
 20
168.09769399707176
 10
225.19198928818514
 20
166.125
 10
226.5
 20
164.66257384731387
 10
225.69513607301772
 20
160.625
 10
226.0
 20
159.55797573169463
 10
227.0
 20
159.59540647138618
 10
227.75
 20
161.17700179355836
 10
229.75
 20
160.6634884403532
 10
232.0
 20
162.53064227784074
 10
234.14411516814795
 20
162.125
 10
235.30558479266847
 20
163.875
 10
233.0552059763465
 20
165.875
 10
234.3623527998078
 20
167.625
 10
233.2895737865374
 20
170.125
 10
233.9931544383457
 20
171.125
 10
234.21684465567046
 20
173.125
 10
235.0
 20
173.060244786111
 10
235.75
 20
171.2689371492705
 10
236.75
 20
171.30231799660254
 10
236.03808785752219
 20
174.375
 10
237.0
 20
174.17294041592308
 10
237.34003039958048
 20
174.625
 10
236.53397842533852
 20
175.625
 10
236.25
 20
177.40215758819002
 10
237.0
 20
177.58614046414652
 10
239.02315372870456
 20
176.625
 10
238.89688846284804
 20
179.375
 10
239.89338067626556
 20
181.625
 10
242.25
 20
183.88589853702274
 10
243.56229708698822
 20
184.375
 10
243.52054001153587
 20
185.875
 10
242.13074327748734
 20
186.625
 10
242.25
 20
188.1215139731509
 10
245.75
 20
193.4102737329365
 10
248.5
 20
194.67312787762546
 10
249.1308614950612
 20
195.875
 10
249.04741763001914
 20
197.875
 10
247.14454424994557
 20
201.875
 10
247.0865667295805
 20
203.875
 10
246.0
 20
205.7450139678739
 10
245.51120146718878
 20
205.625
 10
245.25
 20
203.9659634765011
 10
244.82612328980096
 20
205.125
 10
244.85549369368226
 20
209.125
 10
247.1008825621188
 20
212.375
 10
248.5
 20
216.49103255408934
 10
249.25
 20
215.90227364307793
 10
249.59514498263061
 20
216.375
 10
248.75
 20
220.3356746981324
 10
247.75
 20
219.58970746949362
 10
246.68895890102326
 20
221.625
 10
248.38720188609324
 20
225.375
 10
248.34587384218153
 20
226.875
 10
245.5755985246005
 20
230.625
 10
244.94039506157034
 20
232.625
 10
243.25
 20
234.45459977149784
 10
243.0
 20
232.29410473674722
 10
241.0
 20
232.52949213858028
 10
237.82538287068286
 20
235.375
 10
237.7783104456151
 20
236.875
 10
238.97533344458847
 20
239.125
 10
239.07612367913129
 20
241.625
 10
238.2978872471205
 20
246.375
 10
237.25
 20
249.00839435799284
 10
239.5
 20
247.4873307968914
 10
240.5
 20
248.99592570791808
 10
242.75
 20
249.62481699877998
 10
243.2213119477526
 20
248.375
 10
242.08623226624238
 20
245.875
 10
241.63196886452545
 20
239.375
 10
244.0
 20
237.8982843137255
 10
243.11513075213904
 20
241.125
 10
243.15030249272195
 20
244.625
 10
244.83923627554555
 20
246.125
 10
244.64935786159825
 20
248.625
 10
245.86164365776605
 20
249.625
 10
246.0
 20
250.44770765463863
 10
246.7400449221884
 20
249.875
 10
247.25567771627965
 20
248.125
 10
247.77252986320727
 20
248.125
 10
248.1977970024557
 20
250.375
 10
247.22884156953359
 20
252.875
 10
247.5
 20
253.3524361517481
 10
248.5
 20
252.932977525534
 10
248.877938517179
 20
253.375
 10
248.0
 20
254.15894882616723
 10
247.25
 20
253.69331278594626
 10
246.57816160679423
 20
254.125
 10
246.96667326853344
 20
256.625
 10
247.75
 20
256.95100663786087
 10
250.65519184125588
 20
254.625
 10
250.61830946193672
 20
252.375
 10
249.35762388739641
 20
249.125
 10
250.0
 20
248.6574114751126
 10
252.85101339253737
 20
249.875
 10
252.57345914544027
 20
251.625
 10
251.4718891478776
 20
252.625
 10
251.53503506162343
 20
254.125
 10
252.5
 20
255.36392366140979
 10
253.25
 20
254.78662564094373
 10
254.75
 20
255.0817551369863
 10
256.0
 20
253.96225300223392
 10
257.0
 20
253.9610090552244
 10
256.21041033337997
 20
256.125
 10
256.5
 20
257.40047248554225
 10
257.75
 20
257.25212527430585
 10
258.42817914166
 20
255.625
 10
259.5
 20
254.92876344086022
 10
260.4250570429191
 20
256.875
 10
260.263156870567
 20
257.875
 10
258.75
 20
258.841626738728
 10
257.75
 20
257.8272645905552
 10
257.44811174432107
 20
258.375
 10
258.75
 20
260.1489801031961
 10
261.75
 20
258.1716175149857
 10
263.3522084663549
 20
255.625
 10
265.87247760453795
 20
254.125
 10
271.01960281309437
 20
248.625
 10
272.3519511710166
 20
246.125
 10
272.5320307669407
 20
243.375
 10
273.97481757907985
 20
242.875
 10
274.66394588951044
 20
240.875
 10
274.3838336180295
 20
239.875
 10
276.1683015878688
 20
237.375
 10
275.8764032152686
 20
235.625
 10
274.22962471694143
 20
235.375
 10
273.4664380953687
 20
238.125
 10
272.269114538679
 20
239.375
 10
273.23769460874297
 20
241.875
 10
270.0
 20
244.9083418526852
 10
268.2397245077953
 20
244.375
 10
267.75
 20
242.22925332628847
 10
268.25
 20
242.05152652568785
 10
269.0
 20
243.0204467992682
 10
269.9169397332039
 20
242.375
 10
268.19070627693566
 20
240.125
 10
270.371980633714
 20
238.375
 10
275.13922799558964
 20
231.625
 10
275.9179875894694
 20
225.125
 10
274.0
 20
226.05906184724716
 10
273.48600280191926
 20
225.375
 10
274.84145537926304
 20
224.375
 10
274.5422783603432
 20
222.875
 10
275.75
 20
220.84901597339586
 10
276.06445199988116
 20
216.625
 10
278.7353074621102
 20
214.625
 10
278.2484544780709
 20
212.375
 10
278.6555287009063
 20
211.125
 10
277.3130937043717
 20
210.875
 10
278.1974770777008
 20
208.875
 10
277.8855729924004
 20
206.875
 10
278.597718214428
 20
205.375
 10
278.0
 20
203.04865783331047
 10
277.0
 20
203.10087996961255
 10
275.0
 20
205.4732170551767
 10
273.25
 20
205.81416899976148
 10
272.7527250956963
 20
205.375
 10
273.22174597997525
 20
202.875
 10
272.6099866751865
 20
201.625
 10
273.7513099799716
 20
201.125
 10
272.7857185681597
 20
198.875
 10
274.0206528679113
 20
196.875
 10
273.321433446024
 20
195.625
 10
275.0
 20
195.06673872012652
 10
276.6011166301023
 20
196.375
 10
275.6496530946829
 20
201.875
 10
276.75
 20
202.29056870506503
 10
278.4896330998655
 20
200.625
 10
279.6267991874637
 20
196.125
 10
278.75
 20
194.49680327868856
 10
276.5
 20
193.48975431043405
 10
275.0
 20
193.76823328067405
 10
274.25
 20
191.5321108459903
 10
273.5
 20
192.24240456860468
 10
273.02552393729104
 20
191.375
 10
273.27936860571873
 20
189.125
 10
272.25
 20
189.46692358501377
 10
271.75989050848597
 20
188.875
 10
271.8122780412885
 20
187.875
 10
273.3140369156017
 20
187.375
 10
273.0
 20
186.10832837707233
 10
271.56104596720496
 20
185.375
 10
272.652984612453
 20
183.625
 10
271.43464765456156
 20
176.875
 10
269.7044728032421
 20
174.875
 10
268.5
 20
174.5706366270274
 10
268.0
 20
175.45302409164935
 10
267.2160574640923
 20
174.875
 10
268.2392244129658
 20
172.125
 10
266.42963345931685
 20
170.125
 10
266.62282080690863
 20
168.875
 10
265.431464299971
 20
163.875
 10
262.93329435508224
 20
156.375
 10
258.58304574737167
 20
152.375
 10
254.5305559405426
 20
150.125
 10
253.0
 20
146.80887427355748
 10
251.0
 20
146.5728851038303
 10
249.41528390789918
 20
142.375
 10
249.52705388466038
 20
140.625
 10
245.30603803201066
 20
125.875
 10
245.79524549049512
 20
123.125
 10
244.33788469126065
 20
120.125
 10
244.5
 20
117.48743882120168
 10
245.5
 20
115.5455268090234
 10
245.21838527888318
 20
117.375
 10
246.25617709037988
 20
119.125
 10
250.0
 20
120.52509162992396
 10
250.12686977642997
 20
123.375
 10
250.5
 20
124.53147772903031
 10
251.0
 20
124.26332570307393
 10
254.06814718878562
 20
117.625
 10
255.82755461862777
 20
116.125
 10
254.02316595438006
 20
108.875
 10
251.25
 20
108.66735104260786
 10
249.32327463353147
 20
107.375
 10
248.8507532553533
 20
106.375
 10
249.34900440559198
 20
104.375
 10
246.75
 20
105.08927729553852
 10
242.0
 20
105.29193755499378
 10
240.09259116858908
 20
103.625
 10
237.5
 20
102.45155402334849
 10
235.25
 20
102.83257858722425
 10
234.58957426282112
 20
102.375
 10
234.0
 20
100.2859550122855
 10
232.5
 20
100.01296815323707
 10
225.5
 20
102.84243940120965
  0
LWPOLYLINE
  5
33
330
17
100
AcDbEntity
  8
BAND_01
100
AcDbPolyline
 90
8
 70
1
 10
274.4483726687572
 20
213.875
 10
272.25
 20
215.28851967087414
 10
270.5793240404296
 20
214.625
 10
271.3113479201578
 20
212.125
 10
270.7830679462676
 20
210.875
 10
272.5747092856608
 20
207.875
 10
273.45070366063914
 20
207.625
 10
273.7262898418859
 20
212.625
  0
LWPOLYLINE
  5
34
330
17
100
AcDbEntity
  8
BAND_01
100
AcDbPolyline
 90
6
 70
1
 10
260.62043610231615
 20
254.375
 10
259.5
 20
254.78596507499074
 10
259.3394903728606
 20
253.125
 10
260.5783435057931
 20
250.875
 10
264.5
 20
247.5639452817456
 10
263.44822638415394
 20
251.125
  0
LWPOLYLINE
  5
35
330
17
100
AcDbEntity
  8
BAND_01
100
AcDbPolyline
 90
6
 70
1
 10
248.0
 20
206.44426540785122
 10
247.03639952065774
 20
205.625
 10
247.3833126367454
 20
204.125
 10
249.75
 20
201.69448113698581
 10
250.2851795792838
 20
202.875
 10
248.75
 20
206.18996431122702
  0
LWPOLYLINE
  5
36
330
17
100
AcDbEntity
  8
BAND_01
100
AcDbPolyline
 90
27
 70
1
 10
243.72607241633884
 20
135.875
 10
243.25
 20
136.17298961120116
 10
243.09928695777666
 20
135.125
 10
242.4831124751626
 20
135.125
 10
241.33194500139751
 20
138.625
 10
243.18208567404363
 20
141.125
 10
243.35972548396396
 20
145.625
 10
244.18720865117655
 20
146.875
 10
242.5
 20
150.07319500260252
 10
240.75
 20
150.2663285296303
 10
239.52745755502303
 20
149.375
 10
239.63954680076776
 20
147.125
 10
240.5321309416704
 20
145.875
 10
239.46778518309083
 20
143.875
 10
239.6420044113138
 20
142.375
 10
238.864280832337
 20
140.875
 10
239.47559607771086
 20
139.125
 10
238.25
 20
136.9636740331492
 10
239.71362583735865
 20
137.375
 10
238.0
 20
136.3072188738343
 10
237.58601346520499
 20
135.375
 10
238.34366719345982
 20
133.625
 10
239.592949120885
 20
134.125
 10
239.5109617260116
 20
132.625
 10
243.0
 20
131.88226720457112
 10
244.38864535496313
 20
132.625
 10
244.64292945456995
 20
133.625
  0
LWPOLYLINE
  5
37
330
17
100
AcDbEntity
  8
BAND_01
100
AcDbPolyline
 90
7
 70
1
 10
235.25
 20
152.85115223438197
 10
234.75
 20
153.38862688047527
 10
234.05134594221659
 20
152.875
 10
235.5
 20
150.5572310359981
 10
238.5
 20
150.36129208323948
 10
238.75
 20
151.18260947772006
 10
236.92831598509838
 20
152.875
  0
LWPOLYLINE
  5
38
330
17
100
AcDbEntity
  8
BAND_01
100
AcDbPolyline
 90
40
 70
1
 10
221.76389587958693
 20
189.125
 10
221.34011811484035
 20
192.125
 10
219.8534877436175
 20
193.125
 10
219.5
 20
195.47669223357832
 10
218.25
 20
195.55802210727342
 10
216.53304045327985
 20
196.875
 10
220.0
 20
197.35252647757858
 10
220.3608755554848
 20
199.375
 10
212.53997877564606
 20
219.875
 10
212.75
 20
220.51150209870002
 10
213.75
 20
219.6188127338442
 10
215.0
 20
219.7570857325656
 10
214.37350277768857
 20
217.375
 10
214.91885791284756
 20
215.875
 10
215.86738369467028
 20
216.125
 10
216.0
 20
217.5541665567195
 10
218.05331887925288
 20
215.125
 10
217.2709468553582
 20
213.875
 10
219.31777669843962
 20
212.125
 10
219.16829755130678
 20
207.875
 10
219.77980974212034
 20
205.625
 10
221.25
 20
204.10014895479185
 10
222.5
 20
205.75876232544172
 10
224.25
 20
205.33508798240354
 10
225.25076559449187
 20
204.125
 10
225.0
 20
202.1551843982793
 10
223.5
 20
201.61064886325238
 10
222.18802106667707
 20
199.375
 10
223.8886043598858
 20
192.375
 10
224.0644366337422
 20
188.875
 10
224.80824290023884
 20
187.625
 10
223.2880977681221
 20
184.625
 10
224.30391773666233
 20
181.625
 10
224.0
 20
176.49916362835046
 10
222.23715723059118
 20
175.875
 10
220.35780551826394
 20
171.875
 10
220.9833086334829
 20
169.625
 10
219.8037748224358
 20
169.875
 10
220.00831228291756
 20
179.875
 10
221.57441810074474
 20
184.875
  0
LWPOLYLINE
  5
39
330
17
100
AcDbEntity
  8
BAND_01
100
AcDbPolyline
 90
455
 70
1
 10
335.75
 20
130.51693424968852
 10
331.0
 20
129.1238794759257
 10
327.0
 20
131.06444638841606
 10
322.5
 20
131.45282732658583
 10
318.2438916560283
 20
130.625
 10
316.8323220735663
 20
134.875
 10
317.71169447606127
 20
136.875
 10
316.9322101867983
 20
139.375
 10
317.5879081153758
 20
140.875
 10
317.23575457276894
 20
142.625
 10
318.9277659755269
 20
143.375
 10
318.25
 20
144.3316457943322
 10
317.14457094629506
 20
144.375
 10
316.75
 20
146.5822385969592
 10
318.55348443126456
 20
147.625
 10
317.40537641678753
 20
150.375
 10
316.2363295075337
 20
151.375
 10
317.18794641464706
 20
151.875
 10
316.3265711496319
 20
153.375
 10
317.0
 20
154.1021143947462
 10
317.75
 20
153.19387529945783
 10
318.2277621498108
 20
153.875
 10
317.18535199288675
 20
154.375
 10
317.25773850773857
 20
155.125
 10
314.7064907212885
 20
157.375
 10
316.0937187260847
 20
158.625
 10
314.7223244031094
 20
160.625
 10
316.0
 20
160.73934431845942
 10
316.3563870321935
 20
161.875
 10
315.25
 20
164.20311852306747
 10
313.75
 20
164.69844249537272
 10
312.2506488837446
 20
168.125
 10
314.5
 20
168.37113342007763
 10
318.68365130298724
 20
166.625
 10
316.0
 20
170.0164658525061
 10
314.65667057336253
 20
170.875
 10
314.49526421721464
 20
175.125
 10
312.75
 20
175.65134771274165
 10
311.75
 20
174.81945420061817
 10
310.2199236948561
 20
176.375
 10
310.75
 20
177.58258710517748
 10
313.0
 20
176.97197145645578
 10
314.5
 20
177.6623146845929
 10
316.5936205696387
 20
177.625
 10
316.0
 20
178.68261508013168
 10
314.75
 20
178.7501207234144
 10
313.37170637701473
 20
179.875
 10
311.9985582713857
 20
181.625
 10
312.6487632908528
 20
184.375
 10
312.3334846317489
 20
185.125
 10
313.0
 20
186.29764287396145
 10
314.0
 20
186.57727421750593
 10
315.0
 20
185.58369828172755
 10
316.25477759929095
 20
186.125
 10
316.25
 20
186.95409329515627
 10
315.05334495633656
 20
187.875
 10
314.93380633568813
 20
189.375
 10
316.7889702493881
 20
190.125
 10
316.15613023185216
 20
192.125
 10
313.24518526128355
 20
196.125
 10
313.34152376568073
 20
199.875
 10
314.41503381539206
 20
200.875
 10
316.2052741809478
 20
201.125
 10
316.1173827415438
 20
201.875
 10
317.62764439581184
 20
203.875
 10
317.75
 20
206.27868056284785
 10
321.0
 20
204.5278120123923
 10
323.5
 20
205.7551220449044
 10
325.1795839838276
 20
207.375
 10
326.2060278829278
 20
211.375
 10
325.7336729727002
 20
213.375
 10
323.75
 20
214.02056650246305
 10
321.48286649957
 20
216.125
 10
322.7040718741034
 20
218.875
 10
322.3680734207195
 20
222.625
 10
321.3985583296509
 20
224.875
 10
322.75
 20
224.19866563987676
 10
323.4758895185453
 20
224.625
 10
321.11575160474445
 20
230.375
 10
321.5582700856791
 20
231.375
 10
320.83862721099183
 20
233.375
 10
318.0
 20
234.71074336714952
 10
318.16524413330865
 20
236.125
 10
317.1044475192726
 20
236.875
 10
316.99610994813264
 20
237.625
 10
318.75
 20
238.45941895319345
 10
318.7943970746903
 20
239.125
 10
316.75
 20
240.65762213768676
 10
315.0
 20
239.64371667419795
 10
314.0870447048915
 20
239.875
 10
313.3319051699515
 20
240.875
 10
314.35853502819185
 20
242.375
 10
312.25
 20
244.5998961764912
 10
309.53966173263416
 20
245.875
 10
309.7214134207482
 20
247.125
 10
308.3066750141084
 20
250.875
 10
309.2324577057606
 20
251.875
 10
308.7410770566477
 20
253.625
 10
309.5
 20
256.2696961952173
 10
311.25
 20
256.2837494634425
 10
311.75
 20
257.2083405362422
 10
316.23404077540107
 20
256.625
 10
314.89071314565626
 20
258.125
 10
315.5723869702738
 20
259.375
 10
314.3042412488046
 20
260.375
 10
315.25
 20
262.1907312127566
 10
317.5352681922908
 20
260.875
 10
317.7562666418252
 20
261.625
 10
316.817397630936
 20
263.625
 10
319.04749811289867
 20
264.875
 10
318.28059683061184
 20
267.875
 10
318.75
 20
268.30502862070045
 10
320.4257347017408
 20
267.875
 10
321.3580662112454
 20
269.625
 10
319.80224308857055
 20
272.375
 10
320.01971834721263
 20
273.625
 10
317.8570440799296
 20
277.375
 10
317.75881802476243
 20
278.875
 10
316.2771949046559
 20
280.375
 10
315.41112326456795
 20
283.625
 10
315.5
 20
285.7580434288313
 10
321.7035353233236
 20
291.875
 10
322.75
 20
293.77974677799966
 10
324.02209885769196
 20
294.625
 10
325.75
 20
294.81391317590567
 10
326.3683596245516
 20
296.375
 10
327.75
 20
296.8961315869632
 10
328.48915679389705
 20
298.375
 10
330.75
 20
299.0767645795086
 10
333.98907581732607
 20
298.625
 10
334.64550056009625
 20
297.125
 10
334.2517786958143
 20
295.125
 10
338.25
 20
295.0667648853797
 10
339.3011738480569
 20
294.375
 10
339.11141304347825
 20
293.375
 10
340.04183078045213
 20
292.875
 10
337.0772495103498
 20
291.125
 10
333.3817653744159
 20
289.875
 10
334.0
 20
288.7103128578559
 10
344.5686706115805
 20
288.875
 10
345.18333242669866
 20
290.625
 10
347.25
 20
291.62294098286964
 10
350.7149630171154
 20
296.125
 10
352.5
 20
296.93634136858475
 10
354.5
 20
299.00207641196016
 10
358.75
 20
298.8938941487312
 10
359.5
 20
300.46073038822533
 10
361.75
 20
301.1513259242958
 10
362.0535439334839
 20
302.625
 10
363.5
 20
303.01629731284606
 10
364.6137758841855
 20
304.375
 10
365.9141909668932
 20
304.875
 10
366.129652021489
 20
306.375
 10
366.89876061623545
 20
307.125
 10
367.75
 20
307.38834893634805
 10
368.75
 20
306.7350818675059
 10
371.5
 20
308.6405249219905
 10
373.5
 20
311.269743520136
 10
375.5
 20
310.87268005088396
 10
375.39846877502
 20
312.625
 10
376.75
 20
312.78790364661734
 10
378.5394969027443
 20
314.125
 10
383.25
 20
319.3681562090892
 10
385.28836490437317
 20
320.625
 10
386.14659307264213
 20
323.625
 10
388.27307453850915
 20
325.875
 10
389.25
 20
326.5402366007835
 10
390.0
 20
326.05721473263236
 10
390.25
 20
326.85571034274415
 10
391.10078537336807
 20
327.125
 10
390.6861417955413
 20
328.625
 10
392.75
 20
332.29203096539163
 10
393.5
 20
330.7280982453166
 10
394.75
 20
330.3591372927231
 10
397.0860049321825
 20
331.375
 10
396.75
 20
332.3375228988056
 10
395.4999921715986
 20
332.875
 10
395.75
 20
333.911576692934
 10
397.75
 20
334.28907728766336
 10
398.0
 20
332.9122735754963
 10
399.0
 20
332.99387732883974
 10
402.25
 20
335.35001203659124
 10
402.8411925565264
 20
338.375
 10
402.5
 20
340.36928057553956
 10
403.75
 20
339.9892575312846
 10
405.5
 20
340.54221365415765
 10
408.4269755899555
 20
344.125
 10
409.4983396627957
 20
348.125
 10
410.25
 20
348.46217918899333
 10
412.71330189223494
 20
352.625
 10
414.5
 20
352.9925423947572
 10
416.5
 20
356.2709937868099
 10
418.5
 20
355.0952749280367
 10
423.0
 20
354.49027109875334
 10
424.92991558431623
 20
352.625
 10
427.0
 20
348.98888313642783
 10
428.5
 20
348.7984335816647
 10
430.25
 20
349.5020120659299
 10
431.1368825799951
 20
350.625
 10
431.2619607115861
 20
351.875
 10
428.5
 20
354.4922130293712
 10
426.9931141471317
 20
354.625
 10
427.44575405085936
 20
356.125
 10
427.0053759067836
 20
357.125
 10
429.1903823203
 20
360.125
 10
429.8890718763828
 20
362.625
 10
433.0
 20
365.95479470126145
 10
436.25
 20
366.82422532659893
 10
438.6059471927432
 20
369.875
 10
440.0
 20
370.33520236343503
 10
441.7341847625573
 20
372.125
 10
443.40335369793394
 20
376.375
 10
444.4900561296083
 20
377.375
 10
444.02609584950727
 20
378.875
 10
445.5
 20
378.93023554282786
 10
448.0
 20
380.1702654442988
 10
450.5
 20
377.43201847095577
 10
452.75
 20
375.94326611973645
 10
454.25
 20
375.24043214605166
 10
457.25
 20
375.01312117482234
 10
461.1992789928748
 20
377.125
 10
464.75
 20
377.9117284879454
 10
467.9657067255401
 20
379.625
 10
470.5
 20
379.8765906131015
 10
472.0
 20
379.23769061698226
 10
473.5395120093207
 20
380.375
 10
475.61326862379747
 20
380.375
 10
476.0
 20
375.4446922128983
 10
475.5
 20
375.2125333161379
 10
474.75
 20
376.67742926498545
 10
474.25
 20
376.4760805964515
 10
473.98893306764006
 20
373.875
 10
472.25
 20
372.05872197676325
 10
470.94046745187023
 20
369.125
 10
472.25
 20
369.269826092284
 10
473.0
 20
370.9670396401722
 10
474.25
 20
371.5363694844182
 10
474.3952697857204
 20
367.625
 10
473.09344290419983
 20
365.375
 10
473.75
 20
364.6124110114035
 10
474.89154697523696
 20
365.375
 10
476.5
 20
369.01851885556204
 10
478.0
 20
368.8395079970087
 10
479.5
 20
365.7179761257476
 10
478.81663757264744
 20
363.625
 10
479.1726949607416
 20
360.625
 10
478.0
 20
360.4539043838696
 10
477.75
 20
361.7365327181956
 10
477.2820678879088
 20
361.625
 10
473.7867484516872
 20
355.875
 10
472.5
 20
355.15198251392934
 10
472.22954229194414
 20
353.375
 10
471.1382580348054
 20
351.625
 10
471.21082419296147
 20
350.375
 10
470.36735009804266
 20
349.375
 10
469.41579680623136
 20
349.625
 10
469.63394512114394
 20
351.625
 10
468.75
 20
351.9588685480274
 10
467.75
 20
350.8096542417232
 10
463.75
 20
348.6698358569569
 10
462.0
 20
349.17836867029007
 10
462.3318486797726
 20
346.625
 10
461.25
 20
345.6820522667297
 10
459.75
 20
346.5614166146345
 10
458.0
 20
346.1775557897012
 10
457.25
 20
347.40873386585304
 10
455.25
 20
347.9416563116532
 10
454.3139562028833
 20
346.875
 10
455.25
 20
346.7215461964442
 10
455.75
 20
345.29904398044266
 10
457.0
 20
345.66240469316756
 10
457.7884023680161
 20
344.375
 10
457.0
 20
343.75411478239425
 10
456.25
 20
344.31198761778415
 10
455.0
 20
343.27023048747225
 10
454.0
 20
343.21171862334114
 10
453.75
 20
342.01654939864636
 10
452.25
 20
344.54372568734755
 10
450.9963577185369
 20
343.625
 10
450.31767110905565
 20
345.375
 10
449.25
 20
345.74827506222294
 10
448.5
 20
345.0733017817372
 10
447.0
 20
348.03753097525373
 10
445.76061769155285
 20
348.875
 10
445.58978794918687
 20
353.375
 10
444.0
 20
356.2944034237014
 10
437.25
 20
358.2802873784652
 10
435.15138142747503
 20
357.875
 10
433.3717391447087
 20
355.875
 10
433.75
 20
351.6980996895363
 10
436.0
 20
351.12355176756324
 10
438.3852810864032
 20
345.875
 10
437.98260646433744
 20
340.875
 10
439.537601090014
 20
338.625
 10
436.5
 20
335.8724934232074
 10
436.25
 20
338.3825080074842
 10
433.75
 20
338.13683455217426
 10
434.10331621872893
 20
335.375
 10
435.75268789886593
 20
334.625
 10
433.5
 20
333.1282987273945
 10
432.9503876051237
 20
331.875
 10
435.43982953457186
 20
328.125
 10
433.52260848126235
 20
326.125
 10
433.26188828609395
 20
325.125
 10
434.31220802808184
 20
323.375
 10
432.51872428813425
 20
320.375
 10
433.7296680271779
 20
318.875
 10
434.1700222068272
 20
315.375
 10
433.5405408501474
 20
310.625
 10
434.59627955565674
 20
308.125
 10
433.74535016021923
 20
307.375
 10
433.4939714983859
 20
304.625
 10
433.6284961197496
 20
301.125
 10
434.42667198328013
 20
299.875
 10
433.25
 20
300.0859413109756
 10
432.515813003883
 20
299.125
 10
432.4348194689311
 20
295.125
 10
431.6354182955434
 20
291.625
 10
429.6834770331826
 20
289.875
 10
430.72199380606577
 20
285.125
 10
427.6836817228218
 20
284.375
 10
427.17079369644796
 20
283.625
 10
427.2084861995325
 20
281.625
 10
428.25
 20
280.20494977793203
 10
430.5
 20
279.77795163983893
 10
431.95507610717
 20
278.625
 10
432.4642634721764
 20
276.625
 10
433.25
 20
275.92138318800517
 10
433.82674577698253
 20
276.125
 10
433.75
 20
276.75147787948134
 10
435.5
 20
276.29669539161597
 10
436.25
 20
277.79669610038445
 10
437.75
 20
277.71804728333535
 10
438.75
 20
276.79157767794675
 10
440.75
 20
277.53595834499487
 10
443.25
 20
275.67784233808396
 10
444.25
 20
273.08010719466984
 10
445.25
 20
273.7235816855733
 10
446.7409349107372
 20
273.625
 10
447.4216585489279
 20
272.875
 10
447.2988123221576
 20
270.375
 10
449.7138176319032
 20
268.875
 10
448.6714054174302
 20
267.125
 10
452.44945113143956
 20
267.375
 10
451.25
 20
265.69227260696124
 10
454.0618059876515
 20
266.625
 10
454.1819878440534
 20
268.375
 10
454.9135975730771
 20
269.125
 10
458.75
 20
268.6525704809287
 10
459.88791183127955
 20
265.875
 10
458.71287626351955
 20
264.625
 10
458.9666963358552
 20
263.625
 10
461.5
 20
263.62966961619475
 10
461.6723865035299
 20
262.125
 10
462.5
 20
261.99059609129694
 10
463.5154705181655
 20
260.375
 10
462.570499787224
 20
259.375
 10
462.75
 20
258.80482039342394
 10
464.4853814976587
 20
258.125
 10
464.5
 20
257.4235347985348
 10
461.87283049282433
 20
257.625
 10
463.32618377871535
 20
255.375
 10
462.25
 20
254.5175849639547
 10
461.75
 20
255.44892919423808
 10
461.74199932625913
 20
254.625
 10
460.7255019552431
 20
254.125
 10
461.75
 20
252.71692821541745
 10
463.25
 20
252.30384383781615
 10
464.02696164861914
 20
249.125
 10
462.0
 20
248.7888626988804
 10
462.2777018573766
 20
246.875
 10
460.71845287695237
 20
242.875
 10
458.53065707729337
 20
241.875
 10
459.2969407130056
 20
238.875
 10
454.5
 20
234.6848989652508
 10
450.8003203949991
 20
229.625
 10
451.12472022634
 20
228.375
 10
453.0
 20
227.32698314254117
 10
453.2912944807473
 20
226.125
 10
451.7670498509079
 20
220.375
 10
447.7007084401446
 20
216.375
 10
448.0
 20
211.10075539457577
 10
447.00292924932415
 20
209.625
 10
444.5
 20
208.7514419974969
 10
442.55696937686207
 20
206.875
 10
439.6379816661596
 20
199.625
 10
439.5986133665169
 20
197.625
 10
441.8232022748259
 20
195.625
 10
441.75
 20
193.63030899937718
 10
440.37427638320975
 20
191.625
 10
436.7723185379221
 20
190.125
 10
434.06387558114926
 20
185.125
 10
432.75
 20
184.3571490873481
 10
428.75
 20
184.0376796218818
 10
427.10323327708596
 20
182.625
 10
426.0
 20
175.40413976105202
 10
422.77370320079393
 20
169.625
 10
422.75755363425867
 20
167.875
 10
423.76152824305626
 20
165.875
 10
423.2737984765881
 20
164.625
 10
424.5
 20
164.29834592250666
 10
424.75
 20
162.23729709453008
 10
421.75
 20
163.4322805790402
 10
421.6740673422554
 20
162.125
 10
421.0
 20
161.6851290498655
 10
419.5
 20
163.42229967926562
 10
417.5
 20
160.50747371368135
 10
416.5
 20
159.99010991671508
 10
415.5
 20
159.98352680574249
 10
414.0
 20
161.58990417522244
 10
412.25
 20
161.3698236371965
 10
416.06750400742425
 20
156.875
 10
413.75
 20
156.7151355950516
 10
413.5
 20
156.06772575250835
 10
412.25
 20
155.91343934110859
 10
411.25
 20
154.9589938898522
 10
409.9235346060046
 20
155.125
 10
412.389120919767
 20
152.875
 10
412.5141601395493
 20
151.875
 10
414.5
 20
151.06705666582343
 10
414.45525073746313
 20
150.375
 10
411.75
 20
149.7678506705328
 10
410.5
 20
151.57587223008017
 10
409.8778022685321
 20
150.875
 10
410.693310851191
 20
149.875
 10
410.0
 20
148.67394039429337
 10
407.0
 20
147.93319365700282
 10
405.5
 20
148.71777141052252
 10
404.7364552964043
 20
148.375
 10
404.5
 20
147.2227261837348
 10
401.1898176571709
 20
149.625
 10
398.5
 20
150.44435124846763
 10
396.75
 20
151.75694935009892
 10
394.0
 20
151.45732767037686
 10
393.0
 20
150.6700535522428
 10
391.5
 20
151.231129147574
 10
390.0510234079301
 20
148.875
 10
391.39383319967914
 20
147.375
 10
390.6564060239245
 20
146.125
 10
391.2002411678273
 20
145.125
 10
387.75
 20
143.25013969825176
 10
384.6594806164955
 20
140.375
 10
384.3793144433189
 20
139.125
 10
385.0641654361662
 20
135.375
 10
382.65847833639305
 20
134.875
 10
382.0
 20
132.02372742200328
 10
380.1991112049153
 20
129.875
 10
374.5
 20
128.4400509217324
 10
368.75
 20
132.25791477521153
 10
364.75
 20
133.02543552913704
 10
362.25
 20
130.16899113251705
 10
350.5
 20
129.53666680684546
 10
347.15163141300695
 20
125.875
 10
342.0
 20
129.2926331692029
 10
338.75
 20
128.6195590274952
  0
LWPOLYLINE
  5
3A
330
17
100
AcDbEntity
  8
BAND_01
100
AcDbPolyline
 90
7
 70
1
 10
449.64300807529315
 20
376.375
 10
447.0
 20
378.13172517625435
 10
445.6069274071923
 20
375.875
 10
445.6722803566535
 20
374.375
 10
447.34153427916067
 20
374.875
 10
448.5
 20
376.02314566115706
 10
449.5
 20
375.2643081956996
  0
LWPOLYLINE
  5
3B
330
17
100
AcDbEntity
  8
BAND_01
100
AcDbPolyline
 90
6
 70
1
 10
444.5
 20
358.3425602326113
 10
448.0
 20
356.2749894545359
 10
448.96197943133
 20
356.625
 10
448.9415455459263
 20
357.125
 10
443.75
 20
360.13134996043965
 10
441.3828352013284
 20
358.375
  0
LWPOLYLINE
  5
3C
330
17
100
AcDbEntity
  8
BAND_01
100
AcDbPolyline
 90
18
 70
1
 10
419.25
 20
340.97308446618376
 10
420.5
 20
342.2363407876024
 10
420.25
 20
344.0647799420948
 10
418.345008805244
 20
343.625
 10
417.70761460347427
 20
342.125
 10
415.5
 20
340.6638620839074
 10
413.5
 20
340.98462229441066
 10
410.2634579225945
 20
338.875
 10
410.5
 20
337.1225222196234
 10
411.5
 20
338.7365406049215
 10
413.75
 20
337.81479789739404
 10
414.5
 20
339.48846080014823
 10
415.3911015422312
 20
338.625
 10
414.9390009461278
 20
337.875
 10
415.25
 20
336.70293832695086
 10
416.00608988752964
 20
337.625
 10
415.8927988223275
 20
338.625
 10
417.0
 20
340.1399199662682
  0
LWPOLYLINE
  5
3D
330
17
100
AcDbEntity
  8
BAND_01
100
AcDbPolyline
 90
8
 70
1
 10
401.12049411998646
 20
311.125
 10
401.0
 20
312.46036103764357
 10
398.7870762207108
 20
310.625
 10
398.2097617724829
 20
307.625
 10
398.75
 20
306.3243413934821
 10
400.0
 20
307.1213661228876
 10
399.2430931855501
 20
307.875
 10
399.3201340168205
 20
308.875
  0
ENDSEC
  0
SECTION
  2
OBJECTS
  0
DICTIONARY
  5
A
330
0
100
AcDbDictionary
281
1
  3
ACAD_COLOR
350
B
  3
ACAD_GROUP
350
C
  3
ACAD_LAYOUT
350
D
  3
ACAD_MATERIAL
350
E
  3
ACAD_MLEADERSTYLE
350
F
  3
ACAD_MLINESTYLE
350
10
  3
ACAD_PLOTSETTINGS
350
11
  3
ACAD_PLOTSTYLENAME
350
12
  3
ACAD_SCALELIST
350
14
  3
ACAD_TABLESTYLE
350
15
  3
ACAD_VISUALSTYLE
350
16
  3
EZDXF_META
350
2D
  0
DICTIONARY
  5
B
330
A
100
AcDbDictionary
281
1
  0
DICTIONARY
  5
C
330
A
100
AcDbDictionary
281
1
  0
DICTIONARY
  5
D
330
A
100
AcDbDictionary
281
1
  3
Model
350
1A
  3
Layout1
350
1E
  0
DICTIONARY
  5
E
330
A
100
AcDbDictionary
281
1
  3
ByBlock
350
1F
  3
ByLayer
350
20
  3
Global
350
21
  0
DICTIONARY
  5
F
330
A
100
AcDbDictionary
281
1
  3
Standard
350
2C
  0
DICTIONARY
  5
10
330
A
100
AcDbDictionary
281
1
  3
Standard
350
22
  0
DICTIONARY
  5
11
330
A
100
AcDbDictionary
281
1
  0
ACDBDICTIONARYWDFLT
  5
12
330
A
100
AcDbDictionary
281
1
  3
Normal
350
13
100
AcDbDictionaryWithDefault
340
13
  0
ACDBPLACEHOLDER
  5
13
330
12
  0
DICTIONARY
  5
14
330
A
100
AcDbDictionary
281
1
  0
DICTIONARY
  5
15
330
A
100
AcDbDictionary
281
1
  0
DICTIONARY
  5
16
330
A
100
AcDbDictionary
281
1
  0
LAYOUT
  5
1A
330
D
100
AcDbPlotSettings
  1

  4
A3
  6

 40
7.5
 41
20.0
 42
7.5
 43
20.0
 44
420.0
 45
297.0
 46
0.0
 47
0.0
 48
0.0
 49
0.0
140
0.0
141
0.0
142
1.0
143
1.0
 70
1024
 72
1
 73
0
 74
5
  7

 75
16
 76
0
 77
2
 78
300
147
1.0
148
0.0
149
0.0
100
AcDbLayout
  1
Model
 70
1
 71
0
 10
0.0
 20
0.0
 11
420.0
 21
297.0
 12
0.0
 22
0.0
 32
0.0
 14
1e+20
 24
1e+20
 34
1e+20
 15
-1e+20
 25
-1e+20
 35
-1e+20
146
0.0
 13
0.0
 23
0.0
 33
0.0
 16
1.0
 26
0.0
 36
0.0
 17
0.0
 27
1.0
 37
0.0
 76
1
330
17
  0
LAYOUT
  5
1E
330
D
100
AcDbPlotSettings
  1

  4
A3
  6

 40
7.5
 41
20.0
 42
7.5
 43
20.0
 44
420.0
 45
297.0
 46
0.0
 47
0.0
 48
0.0
 49
0.0
140
0.0
141
0.0
142
1.0
143
1.0
 70
0
 72
1
 73
0
 74
5
  7

 75
16
 76
0
 77
2
 78
300
147
1.0
148
0.0
149
0.0
100
AcDbLayout
  1
Layout1
 70
1
 71
1
 10
0.0
 20
0.0
 11
420.0
 21
297.0
 12
0.0
 22
0.0
 32
0.0
 14
1e+20
 24
1e+20
 34
1e+20
 15
-1e+20
 25
-1e+20
 35
-1e+20
146
0.0
 13
0.0
 23
0.0
 33
0.0
 16
1.0
 26
0.0
 36
0.0
 17
0.0
 27
1.0
 37
0.0
 76
1
330
1B
  0
MATERIAL
  5
1F
102
{ACAD_REACTORS
330
E
102
}
330
E
100
AcDbMaterial
  1
ByBlock
  2

 70
0
 40
1.0
 71
1
 41
1.0
 91
-1023410177
 42
1.0
 72
1
  3

 73
1
 74
1
 75
1
 44
0.5
 73
0
 45
1.0
 46
1.0
 77
1
  4

 78
1
 79
1
170
1
 48
1.0
171
1
  6

172
1
173
1
174
1
140
1.0
141
1.0
175
1
  7

176
1
177
1
178
1
143
1.0
179
1
  8

270
1
271
1
272
1
145
1.0
146
1.0
273
1
  9

274
1
275
1
276
1
 42
1.0
 72
1
  3

 73
1
 74
1
 75
1
 94
63
  0
MATERIAL
  5
20
102
{ACAD_REACTORS
330
E
102
}
330
E
100
AcDbMaterial
  1
ByLayer
  2

 70
0
 40
1.0
 71
1
 41
1.0
 91
-1023410177
 42
1.0
 72
1
  3

 73
1
 74
1
 75
1
 44
0.5
 73
0
 45
1.0
 46
1.0
 77
1
  4

 78
1
 79
1
170
1
 48
1.0
171
1
  6

172
1
173
1
174
1
140
1.0
141
1.0
175
1
  7

176
1
177
1
178
1
143
1.0
179
1
  8

270
1
271
1
272
1
145
1.0
146
1.0
273
1
  9

274
1
275
1
276
1
 42
1.0
 72
1
  3

 73
1
 74
1
 75
1
 94
63
  0
MATERIAL
  5
21
102
{ACAD_REACTORS
330
E
102
}
330
E
100
AcDbMaterial
  1
Global
  2

 70
0
 40
1.0
 71
1
 41
1.0
 91
-1023410177
 42
1.0
 72
1
  3

 73
1
 74
1
 75
1
 44
0.5
 73
0
 45
1.0
 46
1.0
 77
1
  4

 78
1
 79
1
170
1
 48
1.0
171
1
  6

172
1
173
1
174
1
140
1.0
141
1.0
175
1
  7

176
1
177
1
178
1
143
1.0
179
1
  8

270
1
271
1
272
1
145
1.0
146
1.0
273
1
  9

274
1
275
1
276
1
 42
1.0
 72
1
  3

 73
1
 74
1
 75
1
 94
63
  0
MLINESTYLE
  5
22
102
{ACAD_REACTORS
330
10
102
}
330
10
100
AcDbMlineStyle
  2
Standard
 70
0
  3

 62
256
 51
90.0
 52
90.0
 71
2
 49
0.5
 62
256
  6
BYLAYER
 49
-0.5
 62
256
  6
BYLAYER
  0
MLEADERSTYLE
  5
2C
102
{ACAD_REACTORS
330
F
102
}
330
F
100
AcDbMLeaderStyle
179
2
170
2
171
1
172
0
 90
2
 40
0.0
 41
0.0
173
1
 91
-1056964608
 92
-2
290
1
 42
2.0
291
1
 43
8.0
  3
Standard
 44
4.0
300

342
29
174
1
175
1
176
0
178
1
 93
-1056964608
 45
4.0
292
0
297
0
 46
4.0
 94
-1056964608
 47
1.0
 49
1.0
140
1.0
294
1
141
0.0
177
0
142
1.0
295
0
296
0
143
3.75
271
0
272
9
273
9
  0
DICTIONARY
  5
2D
330
A
100
AcDbDictionary
280
1
281
1
  3
CREATED_BY_EZDXF
350
2E
  3
WRITTEN_BY_EZDXF
350
40
  0
DICTIONARYVAR
  5
2E
330
2D
100
DictionaryVariables
280
0
  1
1.4.3 @ 2026-09-03T21:25:23.116024+00:00
  0
DICTIONARYVAR
  5
40
330
2D
100
DictionaryVariables
280
0
  1
1.4.3 @ 2026-09-03T21:25:23.118956+00:00
  0
ENDSEC
  0
EOF
