  0
SECTION
  2
HEADER
  9
$ACADVER
  1
AC1024
  9
$ACADMAINTVER
 70
6
  9
$DWGCODEPAGE
  3
ANSI_1252
  9
$LASTSAVEDBY
  1
ezdxf
  9
$INSBASE
 10
0.0
 20
0.0
 30
0.0
  9
$EXTMIN
 10
1e+20
 20
1e+20
 30
1e+20
  9
$EXTMAX
 10
-1e+20
 20
-1e+20
 30
-1e+20
  9
$LIMMIN
 10
0.0
 20
0.0
  9
$LIMMAX
 10
420.0
 20
297.0
  9
$ORTHOMODE
 70
0
  9
$REGENMODE
 70
1
  9
$FILLMODE
 70
1
  9
$QTEXTMODE
 70
0
  9
$MIRRTEXT
 70
1
  9
$LTSCALE
 40
1.0
  9
$ATTMODE
 70
1
  9
$TEXTSIZE
 40
2.5
  9
$TRACEWID
 40
1.0
  9
$TEXTSTYLE
  7
Standard
  9
$CLAYER
  8
0
  9
$CELTYPE
  6
ByLayer
  9
$CECOLOR
 62
256
  9
$CELTSCALE
 40
1.0
  9
$DISPSILH
 70
0
  9
$DIMSCALE
 40
1.0
  9
$DIMASZ
 40
2.5
  9
$DIMEXO
 40
0.625
  9
$DIMDLI
 40
3.75
  9
$DIMRND
 40
0.0
  9
$DIMDLE
 40
0.0
  9
$DIMEXE
 40
1.25
  9
$DIMTP
 40
0.0
  9
$DIMTM
 40
0.0
  9
$DIMTXT
 40
2.5
  9
$DIMCEN
 40
2.5
  9
$DIMTSZ
 40
0.0
  9
$DIMTOL
 70
0
  9
$DIMLIM
 70
0
  9
$DIMTIH
 70
0
  9
$DIMTOH
 70
0
  9
$DIMSE1
 70
0
  9
$DIMSE2
 70
0
  9
$DIMTAD
 70
1
  9
$DIMZIN
 70
8
  9
$DIMBLK
  1

  9
$DIMASO
 70
1
  9
$DIMSHO
 70
1
  9
$DIMPOST
  1

  9
$DIMAPOST
  1

  9
$DIMALT
 70
0
  9
$DIMALTD
 70
3
  9
$DIMALTF
 40
0.03937007874
  9
$DIMLFAC
 40
1.0
  9
$DIMTOFL
 70
1
  9
$DIMTVP
 40
0.0
  9
$DIMTIX
 70
0
  9
$DIMSOXD
 70
0
  9
$DIMSAH
 70
0
  9
$DIMBLK1
  1

  9
$DIMBLK2
  1

  9
$DIMSTYLE
  2
ISO-25
  9
$DIMCLRD
 70
0
  9
$DIMCLRE
 70
0
  9
$DIMCLRT
 70
0
  9
$DIMTFAC
 40
1.0
  9
$DIMGAP
 40
0.625
  9
$DIMJUST
 70
0
  9
$DIMSD1
 70
0
  9
$DIMSD2
 70
0
  9
$DIMTOLJ
 70
0
  9
$DIMTZIN
 70
8
  9
$DIMALTZ
 70
0
  9
$DIMALTTZ
 70
0
  9
$DIMUPT
 70
0
  9
$DIMDEC
 70
2
  9
$DIMTDEC
 70
2
  9
$DIMALTU
 70
2
  9
$DIMALTTD
 70
3
  9
$DIMTXSTY
  7
Standard
  9
$DIMAUNIT
 70
0
  9
$DIMADEC
 70
0
  9
$DIMALTRND
 40
0.0
  9
$DIMAZIN
 70
0
  9
$DIMDSEP
 70
44
  9
$DIMATFIT
 70
3
  9
$DIMFRAC
 70
0
  9
$DIMLDRBLK
  1

  9
$DIMLUNIT
 70
2
  9
$DIMLWD
 70
-2
  9
$DIMLWE
 70
-2
  9
$DIMTMOVE
 70
0
  9
$DIMFXL
 40
1.0
  9
$DIMFXLON
 70
0
  9
$DIMJOGANG
 40
0.785398163397
  9
$DIMTFILL
 70
0
  9
$DIMTFILLCLR
 70
0
  9
$DIMARCSYM
 70
0
  9
$DIMLTYPE
  6

  9
$DIMLTEX1
  6

  9
$DIMLTEX2
  6

  9
$DIMTXTDIRECTION
 70
0
  9
$LUNITS
 70
2
  9
$LUPREC
 70
4
  9
$SKETCHINC
 40
1.0
  9
$FILLETRAD
 40
10.0
  9
$AUNITS
 70
0
  9
$AUPREC
 70
2
  9
$MENU
  1
.
  9
$ELEVATION
 40
0.0
  9
$PELEVATION
 40
0.0
  9
$THICKNESS
 40
0.0
  9
$LIMCHECK
 70
0
  9
$CHAMFERA
 40
0.0
  9
$CHAMFERB
 40
0.0
  9
$CHAMFERC
 40
0.0
  9
$CHAMFERD
 40
0.0
  9
$SKPOLY
 70
0
  9
$TDCREATE
 40
2461288.3092939816
  9
$TDUCREATE
 40
2458532.153996898
  9
$TDUPDATE
 40
2461288.3092939816
  9
$TDUUPDATE
 40
2458532.1544311
  9
$TDINDWG
 40
0.0
  9
$TDUSRTIMER
 40
0.0
  9
$USRTIMER
 70
1
  9
$ANGBASE
 50
0.0
  9
$ANGDIR
 70
0
  9
$PDMODE
 70
0
  9
$PDSIZE
 40
0.0
  9
$PLINEWID
 40
0.0
  9
$SPLFRAME
 70
0
  9
$SPLINETYPE
 70
6
  9
$SPLINESEGS
 70
8
  9
$HANDSEED
  5
42
  9
$SURFTAB1
 70
6
  9
$SURFTAB2
 70
6
  9
$SURFTYPE
 70
6
  9
$SURFU
 70
6
  9
$SURFV
 70
6
  9
$UCSBASE
  2

  9
$UCSNAME
  2

  9
$UCSORG
 10
0.0
 20
0.0
 30
0.0
  9
$UCSXDIR
 10
1.0
 20
0.0
 30
0.0
  9
$UCSYDIR
 10
0.0
 20
1.0
 30
0.0
  9
$UCSORTHOREF
  2

  9
$UCSORTHOVIEW
 70
0
  9
$UCSORGTOP
 10
0.0
 20
0.0
 30
0.0
  9
$UCSORGBOTTOM
 10
0.0
 20
0.0
 30
0.0
  9
$UCSORGLEFT
 10
0.0
 20
0.0
 30
0.0
  9
$UCSORGRIGHT
 10
0.0
 20
0.0
 30
0.0
  9
$UCSORGFRONT
 10
0.0
 20
0.0
 30
0.0
  9
$UCSORGBACK
 10
0.0
 20
0.0
 30
0.0
  9
$PUCSBASE
  2

  9
$PUCSNAME
  2

  9
$PUCSORG
 10
0.0
 20
0.0
 30
0.0
  9
$PUCSXDIR
 10
1.0
 20
0.0
 30
0.0
  9
$PUCSYDIR
 10
0.0
 20
1.0
 30
0.0
  9
$PUCSORTHOREF
  2

  9
$PUCSORTHOVIEW
 70
0
  9
$PUCSORGTOP
 10
0.0
 20
0.0
 30
0.0
  9
$PUCSORGBOTTOM
 10
0.0
 20
0.0
 30
0.0
  9
$PUCSORGLEFT
 10
0.0
 20
0.0
 30
0.0
  9
$PUCSORGRIGHT
 10
0.0
 20
0.0
 30
0.0
  9
$PUCSORGFRONT
 10
0.0
 20
0.0
 30
0.0
  9
$PUCSORGBACK
 10
0.0
 20
0.0
 30
0.0
  9
$USERI1
 70
0
  9
$USERI2
 70
0
  9
$USERI3
 70
0
  9
$USERI4
 70
0
  9
$USERI5
 70
0
  9
$USERR1
 40
0.0
  9
$USERR2
 40
0.0
  9
$USERR3
 40
0.0
  9
$USERR4
 40
0.0
  9
$USERR5
 40
0.0
  9
$WORLDVIEW
 70
1
  9
$SHADEDGE
 70
3
  9
$SHADEDIF
 70
70
  9
$TILEMODE
 70
1
  9
$MAXACTVP
 70
64
  9
$PINSBASE
 10
0.0
 20
0.0
 30
0.0
  9
$PLIMCHECK
 70
0
  9
$PEXTMIN
 10
1e+20
 20
1e+20
 30
1e+20
  9
$PEXTMAX
 10
-1e+20
 20
-1e+20
 30
-1e+20
  9
$PLIMMIN
 10
0.0
 20
0.0
  9
$PLIMMAX
 10
420.0
 20
297.0
  9
$UNITMODE
 70
0
  9
$VISRETAIN
 70
1
  9
$PLINEGEN
 70
0
  9
$PSLTSCALE
 70
1
  9
$TREEDEPTH
 70
3020
  9
$CMLSTYLE
  2
Standard
  9
$CMLJUST
 70
0
  9
$CMLSCALE
 40
20.0
  9
$PROXYGRAPHICS
 70
1
  9
$MEASUREMENT
 70
1
  9
$CELWEIGHT
370
-1
  9
$ENDCAPS
280
0
  9
$JOINSTYLE
280
0
  9
$LWDISPLAY
290
0
  9
$INSUNITS
 70
4
  9
$HYPERLINKBASE
  1

  9
$STYLESHEET
  1

  9
$XEDIT
290
1
  9
$CEPSNTYPE
380
0
  9
$PSTYLEMODE
290
1
  9
$FINGERPRINTGUID
  2
{4EA600D2-3804-4290-AE37-4A17A11CCCF2}
  9
$VERSIONGUID
  2
{FE3FDE85-7228-409A-8828-D4C4256574B4}
  9
$EXTNAMES
290
1
  9
$PSVPSCALE
 40
0.0
  9
$OLESTARTUP
290
0
  9
$SORTENTS
280
127
  9
$INDEXCTL
280
0
  9
$HIDETEXT
280
1
  9
$XCLIPFRAME
280
1
  9
$HALOGAP
280
0
  9
$OBSCOLOR
 70
257
  9
$OBSLTYPE
280
0
  9
$INTERSECTIONDISPLAY
280
0
  9
$INTERSECTIONCOLOR
 70
257
  9
$DIMASSOC
280
2
  9
$PROJECTNAME
  1

  9
$CAMERADISPLAY
290
0
  9
$LENSLENGTH
 40
50.0
  9
$CAMERAHEIGHT
 40
0.0
  9
$STEPSPERSEC
 40
24.0
  9
$STEPSIZE
 40
100.0
  9
$3DDWFPREC
 40
2.0
  9
$PSOLWIDTH
 40
0.005
  9
$PSOLHEIGHT
 40
0.08
  9
$LOFTANG1
 40
1.570796326795
  9
$LOFTANG2
 40
1.570796326795
  9
$LOFTMAG1
 40
0.0
  9
$LOFTMAG2
 40
0.0
  9
$LOFTPARAM
 70
7
  9
$LOFTNORMALS
280
1
  9
$LATITUDE
 40
37.795
  9
$LONGITUDE
 40
-122.394
  9
$NORTHDIRECTION
 40
0.0
  9
$TIMEZONE
 70
-8000
  9
$LIGHTGLYPHDISPLAY
280
1
  9
$TILEMODELIGHTSYNCH
280
1
  9
$CMATERIAL
347
20
  9
$SOLIDHIST
280
0
  9
$SHOWHIST
280
1
  9
$DWFFRAME
280
2
  9
$DGNFRAME
280
2
  9
$REALWORLDSCALE
290
1
  9
$INTERFERECOLOR
 62
256
  9
$CSHADOW
280
0
  9
$SHADOWPLANELOCATION
 40
0.0
  0
ENDSEC
  0
SECTION
  2
CLASSES
  0
CLASS
  1
ACDBDICTIONARYWDFLT
  2
AcDbDictionaryWithDefault
  3
ObjectDBX Classes
 90
0
 91
0
280
0
281
0
  0
CLASS
  1
SUN
  2
AcDbSun
  3
SCENEOE
 90
1153
 91
0
280
0
281
0
  0
CLASS
  1
VISUALSTYLE
  2
AcDbVisualStyle
  3
ObjectDBX Classes
 90
4095
 91
0
280
0
281
0
  0
CLASS
  1
MATERIAL
  2
AcDbMaterial
  3
ObjectDBX Classes
 90
1153
 91
0
280
0
281
0
  0
CLASS
  1
SCALE
  2
AcDbScale
  3
ObjectDBX Classes
 90
1153
 91
0
280
0
281
0
  0
CLASS
  1
TABLESTYLE
  2
AcDbTableStyle
  3
ObjectDBX Classes
 90
4095
 91
0
280
0
281
0
  0
CLASS
  1
MLEADERSTYLE
  2
AcDbMLeaderStyle
  3
ACDB_MLEADERSTYLE_CLASS
 90
4095
 91
0
280
0
281
0
  0
CLASS
  1
DICTIONARYVAR
  2
AcDbDictionaryVar
  3
ObjectDBX Classes
 90
0
 91
0
280
0
281
0
  0
CLASS
  1
CELLSTYLEMAP
  2
AcDbCellStyleMap
  3
ObjectDBX Classes
 90
1152
 91
0
280
0
281
0
  0
CLASS
  1
MENTALRAYRENDERSETTINGS
  2
AcDbMentalRayRenderSettings
  3
SCENEOE
 90
1024
 91
0
280
0
281
0
  0
CLASS
  1
ACDBDETAILVIEWSTYLE
  2
AcDbDetailViewStyle
  3
ObjectDBX Classes
 90
1025
 91
0
280
0
281
0
  0
CLASS
  1
ACDBSECTIONVIEWSTYLE
  2
AcDbSectionViewStyle
  3
ObjectDBX Classes
 90
1025
 91
0
280
0
281
0
  0
CLASS
  1
RASTERVARIABLES
  2
AcDbRasterVariables
  3
ISM
 90
0
 91
0
280
0
281
0
  0
CLASS
  1
ACDBPLACEHOLDER
  2
AcDbPlaceHolder
  3
ObjectDBX Classes
 90
0
 91
0
280
0
281
0
  0
CLASS
  1
LAYOUT
  2
AcDbLayout
  3
ObjectDBX Classes
 90
0
 91
0
280
0
281
0
  0
ENDSEC
  0
SECTION
  2
TABLES
  0
TABLE
  2
VPORT
  5
8
330
0
100
AcDbSymbolTable
 70
1
  0
VPORT
  5
23
330
8
100
AcDbSymbolTableRecord
100
AcDbViewportTableRecord
  2
*Active
 70
0
 10
0.0
 20
0.0
 11
1.0
 21
1.0
 12
0.0
 22
0.0
 13
0.0
 23
0.0
 14
0.5
 24
0.5
 15
0.5
 25
0.5
 16
0.0
 26
0.0
 36
1.0
 17
0.0
 27
0.0
 37
0.0
 40
1000.0
 41
1.34
 42
50.0
 43
0.0
 44
0.0
 50
0.0
 51
0.0
 71
0
 72
1000
 73
1
 74
3
 75
0
 76
0
 77
0
 78
0
281
0
 65
0
146
0.0
  0
ENDTAB
  0
TABLE
  2
LTYPE
  5
2
330
0
100
AcDbSymbolTable
 70
3
  0
LTYPE
  5
24
330
2
100
AcDbSymbolTableRecord
100
AcDbLinetypeTableRecord
  2
ByBlock
 70
0
  3

 72
65
 73
0
 40
0.0
  0
LTYPE
  5
25
330
2
100
AcDbSymbolTableRecord
100
AcDbLinetypeTableRecord
  2
ByLayer
 70
0
  3

 72
65
 73
0
 40
0.0
  0
LTYPE
  5
26
330
2
100
AcDbSymbolTableRecord
100
AcDbLinetypeTableRecord
  2
Continuous
 70
0
  3

 72
65
 73
0
 40
0.0
  0
ENDTAB
  0
TABLE
  2
LAYER
  5
1
330
0
100
AcDbSymbolTable
 70
3
  0
LAYER
  5
27
330
1
100
AcDbSymbolTableRecord
100
AcDbLayerTableRecord
  2
0
 70
0
 62
7
  6
Continuous
370
-3
390
13
347
21
  0
LAYER
  5
28
330
1
100
AcDbSymbolTableRecord
100
AcDbLayerTableRecord
  2
Defpoints
 70
0
 62
7
  6
Continuous
290
0
370
-3
390
13
347
21
  0
LAYER
  5
2F
330
1
100
AcDbSymbolTableRecord
100
AcDbLayerTableRecord
  2
BAND_06
 70
0
 62
6
  6
Continuous
370
-3
390
13
347
21
  0
ENDTAB
  0
TABLE
  2
STYLE
  5
5
330
0
100
AcDbSymbolTable
 70
1
  0
STYLE
  5
29
330
5
100
AcDbSymbolTableRecord
100
AcDbTextStyleTableRecord
  2
Standard
 70
0
 40
0.0
 41
1.0
 50
0.0
 71
0
 42
2.5
  3
txt
  4

  0
ENDTAB
  0
TABLE
  2
VIEW
  5
7
330
0
100
AcDbSymbolTable
 70
0
  0
ENDTAB
  0
TABLE
  2
UCS
  5
6
330
0
100
AcDbSymbolTable
 70
0
  0
ENDTAB
  0
TABLE
  2
APPID
  5
3
330
0
100
AcDbSymbolTable
 70
3
  0
APPID
  5
2A
330
3
100
AcDbSymbolTableRecord
100
AcDbRegAppTableRecord
  2
ACAD
 70
0
  0
APPID
  5
3F
330
3
100
AcDbSymbolTableRecord
100
AcDbRegAppTableRecord
  2
HATCHBACKGROUNDCOLOR
 70
0
  0
APPID
  5
40
330
3
100
AcDbSymbolTableRecord
100
AcDbRegAppTableRecord
  2
EZDXF
 70
0
  0
ENDTAB
  0
TABLE
  2
DIMSTYLE
  5
4
330
0
100
AcDbSymbolTable
 70
1
100
AcDbDimStyleTable
  0
DIMSTYLE
105
2B
330
4
100
AcDbSymbolTableRecord
100
AcDbDimStyleTableRecord
  2
Standard
 70
0
 40
1.0
 41
2.5
 42
0.625
 43
3.75
 44
1.25
 45
0.0
 46
0.0
 47
0.0
 48
0.0
 49
2.5
140
2.5
141
2.5
142
0.0
143
0.03937007874
144
1.0
145
0.0
146
1.0
147
0.625
148
0.0
 69
0
 70
0
 71
0
 72
0
 73
0
 74
0
 75
0
 76
0
 77
1
 78
8
 79
3
170
0
171
3
172
1
173
0
174
0
175
0
176
0
177
0
178
0
179
2
271
2
272
2
273
2
274
3
275
0
276
0
277
2
278
44
279
0
280
0
281
0
282
0
283
0
284
8
285
0
286
0
288
0
289
3
290
0
371
-2
372
-2
  0
ENDTAB
  0
TABLE
  2
BLOCK_RECORD
  5
9
330
0
100
AcDbSymbolTable
 70
2
  0
BLOCK_RECORD
  5
17
330
9
100
AcDbSymbolTableRecord
100
AcDbBlockTableRecord
  2
*Model_Space
340
1A
 70
0
280
1
281
0
  0
BLOCK_RECORD
  5
1B
330
9
100
AcDbSymbolTableRecord
100
AcDbBlockTableRecord
  2
*Paper_Space
340
1E
 70
0
280
1
281
0
  0
ENDTAB
  0
ENDSEC
  0
SECTION
  2
BLOCKS
  0
BLOCK
  5
18
330
17
100
AcDbEntity
  8
0
100
AcDbBlockBegin
  2
*Model_Space
 70
0
 10
0.0
 20
0.0
 30
0.0
  3
*Model_Space
  1

  0
ENDBLK
  5
19
330
17
100
AcDbEntity
  8
0
100
AcDbBlockEnd
  0
BLOCK
  5
1C
330
1B
100
AcDbEntity
  8
0
100
AcDbBlockBegin
  2
*Paper_Space
 70
0
 10
0.0
 20
0.0
 30
0.0
  3
*Paper_Space
  1

  0
ENDBLK
  5
1D
330
1B
100
AcDbEntity
  8
0
100
AcDbBlockEnd
  0
ENDSEC
  0
SECTION
  2
ENTITIES
  0
LWPOLYLINE
  5
30
330
17
100
AcDbEntity
  8
BAND_06
100
AcDbPolyline
 90
7
 70
1
 10
165.45016681360093
 20
244.375
 10
164.0
 20
243.7072903105615
 10
161.75
 20
244.43927886424265
 10
161.25
 20
242.65989694344603
 10
160.2626890093058
 20
243.125
 10
161.0
 20
247.22812921205056
 10
164.0
 20
246.00427853644547
  0
LWPOLYLINE
  5
31
330
17
100
AcDbEntity
  8
BAND_06
100
AcDbPolyline
 90
7
 70
1
 10
157.66284192039294
 20
246.625
 10
157.68542897029874
 20
244.375
 10
157.0
 20
243.8755523253644
 10
155.85117984249652
 20
244.125
 10
154.6601253101452
 20
245.375
 10
154.4304484452454
 20
247.625
 10
157.0
 20
248.16812274361519
  0
LWPOLYLINE
  5
32
330
17
100
AcDbEntity
  8
BAND_06
100
AcDbPolyline
 90
7
 70
1
 10
179.0
 20
251.21080897849276
 10
180.25
 20
250.1295797674144
 10
178.0
 20
248.46839942500145
 10
177.0
 20
248.57370168694558
 10
173.65273588769745
 20
251.375
 10
173.43376518927863
 20
252.375
 10
175.25
 20
250.90525727786377
  0
LWPOLYLINE
  5
33
330
17
100
AcDbEntity
  8
BAND_06
100
AcDbPolyline
 90
6
 70
1
 10
160.9351889063135
 20
255.375
 10
160.37181754421118
 20
252.375
 10
158.25
 20
252.1353909060765
 10
157.89199376808003
 20
253.375
 10
159.5
 20
255.92421327463697
 10
160.5
 20
256.02718100388483
  0
LWPOLYLINE
  5
34
330
17
100
AcDbEntity
  8
BAND_06
100
AcDbPolyline
 90
6
 70
1
 10
157.97604144886463
 20
256.875
 10
156.25
 20
255.14660643961665
 10
155.23158107385714
 20
255.375
 10
155.8167139663368
 20
259.125
 10
158.0
 20
259.8796257158723
 10
158.50935656864056
 20
258.625
  0
LWPOLYLINE
  5
35
330
17
100
AcDbEntity
  8
BAND_06
100
AcDbPolyline
 90
18
 70
1
 10
57.75
 20
268.94668668993484
 10
59.826231383443286
 20
269.375
 10
59.198249667175055
 20
270.875
 10
59.35291877122253
 20
272.375
 10
58.875
 20
272.79580398655264
 10
59.125
 20
273.0
 10
60.875
 20
270.75
 10
61.51944683890126
 20
271.0
 10
61.5
 20
270.352415494802
 10
63.0
 20
270.65157089552235
 10
63.022063075409505
 20
269.125
 10
61.88866348928045
 20
266.625
 10
60.611077519354765
 20
265.625
 10
60.38504191673233
 20
263.875
 10
57.875
 20
262.875
 10
56.125
 20
265.75
 10
57.125
 20
266.75
 10
57.125
 20
269.9316483489525
  0
LWPOLYLINE
  5
36
330
17
100
AcDbEntity
  8
BAND_06
100
AcDbPolyline
 90
12
 70
1
 10
57.875
 20
302.7714150531373
 10
58.0
 20
302.26133761960557
 10
59.25
 20
302.19139624431193
 10
59.04734505732037
 20
300.875
 10
61.5
 20
299.853458444108
 10
61.0
 20
298.3471944019093
 10
63.43784063848231
 20
298.375
 10
65.25
 20
299.8984363908167
 10
66.08695297542099
 20
297.25
 10
63.875
 20
298.25
 10
60.875
 20
298.0
 10
56.125
 20
300.75
  0
LWPOLYLINE
  5
37
330
17
100
AcDbEntity
  8
BAND_06
100
AcDbPolyline
 90
16
 70
1
 10
237.25
 20
304.60233352382704
 10
239.75
 20
304.07321742399733
 10
240.78795937614086
 20
304.625
 10
241.5
 20
306.19048884528274
 10
244.75
 20
304.36394182403035
 10
244.42621112419548
 20
305.625
 10
245.0
 20
306.3031590681941
 10
247.5128721793528
 20
304.125
 10
245.91994696973242
 20
303.375
 10
246.75
 20
300.94022546102474
 10
242.25
 20
302.0549543006159
 10
241.8841422088528
 20
299.625
 10
240.5
 20
299.85759564472244
 10
239.32422873196867
 20
301.125
 10
238.89804597947864
 20
302.625
 10
237.08497687275218
 20
304.125
  0
LWPOLYLINE
  5
38
330
17
100
AcDbEntity
  8
BAND_06
100
AcDbPolyline
 90
10
 70
1
 10
250.99525190345048
 20
307.625
 10
251.75
 20
308.7261811108092
 10
252.46764168106137
 20
306.625
 10
253.75
 20
306.71787339686307
 10
254.65114398263256
 20
305.375
 10
252.75
 20
305.6027239753438
 10
253.00305398282467
 20
304.125
 10
251.0
 20
303.9883968099874
 10
250.8382462476129
 20
304.625
 10
251.82114582398847
 20
306.125
  0
LWPOLYLINE
  5
39
330
17
100
AcDbEntity
  8
BAND_06
100
AcDbPolyline
 90
35
 70
1
 10
321.80399041594984
 20
320.625
 10
320.75
 20
321.14342333102564
 10
320.0
 20
320.1545003085964
 10
317.5
 20
319.79992195899126
 10
315.86088660040383
 20
321.125
 10
314.25
 20
318.9628164860386
 10
312.0
 20
318.6644502929569
 10
309.0
 20
321.6437167884733
 10
306.5
 20
320.4745642463246
 10
306.09548021419766
 20
320.875
 10
306.92589590573357
 20
323.875
 10
307.6091357439233
 20
325.375
 10
308.5
 20
325.79120106930907
 10
311.75
 20
324.20331207990455
 10
310.5930925417983
 20
326.125
 10
311.0
 20
327.1294174256926
 10
318.25
 20
329.66052811863267
 10
321.5
 20
328.75887049791305
 10
323.0796422055112
 20
325.375
 10
325.0
 20
323.8259809433849
 10
326.5
 20
323.88574945631865
 10
329.75
 20
322.31435468849355
 10
332.25
 20
322.818282671092
 10
334.5
 20
324.08017681273935
 10
336.205308306335
 20
324.125
 10
334.357107415471
 20
321.875
 10
334.11467578506796
 20
319.875
 10
332.5
 20
320.80204211987507
 10
332.35854635408987
 20
318.625
 10
330.5
 20
319.26957609227395
 10
329.5
 20
318.0016480231608
 10
326.25
 20
316.5699835668656
 10
324.0
 20
317.7418706856149
 10
322.25
 20
317.82306367982716
 10
321.5681736741783
 20
319.125
  0
LWPOLYLINE
  5
3A
330
17
100
AcDbEntity
  8
BAND_06
100
AcDbPolyline
 90
22
 70
1
 10
240.42267977515272
 20
329.125
 10
240.62281013132468
 20
330.625
 10
241.75
 20
332.41707373599075
 10
242.6018065156607
 20
332.875
 10
243.5
 20
330.35915872689475
 10
244.0
 20
332.76166555882014
 10
247.0
 20
333.26804159536914
 10
249.75
 20
332.7577019047952
 10
249.25
 20
334.2605667099232
 10
251.25
 20
334.8248364017918
 10
252.9791717482824
 20
334.375
 10
252.5603341151575
 20
330.875
 10
251.0
 20
326.67609992914663
 10
248.5
 20
326.4277531019304
 10
246.49285357044033
 20
325.125
 10
246.474601008893
 20
324.125
 10
243.75
 20
323.6612336582257
 10
243.0
 20
322.79597623748464
 10
242.59883732339776
 20
323.625
 10
243.03642139545084
 20
325.125
 10
241.84332620317605
 20
326.625
 10
242.03457054444846
 20
328.125
  0
LWPOLYLINE
  5
3B
330
17
100
AcDbEntity
  8
BAND_06
100
AcDbPolyline
 90
48
 70
1
 10
360.25
 20
339.08207863757093
 10
359.75
 20
339.7485822563364
 10
358.75
 20
339.67084917437444
 10
357.37547363111935
 20
339.125
 10
355.5
 20
337.00915425115886
 10
353.25
 20
337.3248925616447
 10
352.0
 20
336.56921490158663
 10
351.52887866023906
 20
339.125
 10
354.05879291763927
 20
342.125
 10
353.4777843295161
 20
344.125
 10
354.549101108187
 20
345.375
 10
355.75
 20
345.5266434593434
 10
355.377091946156
 20
346.625
 10
356.3105684097754
 20
348.125
 10
357.5
 20
348.161646074596
 10
362.25
 20
351.8187274309024
 10
364.0
 20
351.41114098226177
 10
367.25
 20
352.1099568146971
 10
368.8364212867074
 20
351.125
 10
369.3400713221359
 20
350.125
 10
369.0
 20
349.49036206370573
 10
367.3594415121593
 20
349.125
 10
371.0
 20
347.84161456040863
 10
371.5
 20
345.87715548138664
 10
372.5
 20
347.21026695770706
 10
374.70668322034345
 20
346.375
 10
374.53362166430384
 20
345.375
 10
375.7467958356536
 20
342.875
 10
375.55026355857916
 20
341.625
 10
376.26119894168386
 20
339.375
 10
373.75
 20
339.0862856037696
 10
371.0
 20
337.5226725025076
 10
369.30226415446236
 20
334.125
 10
368.25
 20
334.7141631264926
 10
367.75
 20
333.5990208538801
 10
365.75
 20
333.4571698912923
 10
364.6090574002934
 20
335.125
 10
365.9102129986179
 20
337.625
 10
367.6582422899258
 20
339.375
 10
367.5
 20
340.92444546033937
 10
365.2185415501141
 20
339.375
 10
364.75
 20
337.80787986499917
 10
362.5
 20
337.8861393127345
 10
363.87638321812125
 20
332.875
 10
363.0
 20
333.4366379383273
 10
362.2651395085814
 20
335.375
 10
361.0
 20
336.3682614712649
 10
361.0
 20
339.6559676080748
  0
LWPOLYLINE
  5
3C
330
17
100
AcDbEntity
  8
BAND_06
100
AcDbPolyline
 90
15
 70
1
 10
421.25
 20
378.4191120919416
 10
424.25784554086187
 20
377.375
 10
425.0157988248763
 20
378.375
 10
424.25719471230616
 20
379.375
 10
424.75
 20
380.1033956002565
 10
425.75
 20
378.7899589588109
 10
428.5277013020966
 20
378.375
 10
427.91568449560157
 20
376.625
 10
426.4937076618704
 20
376.375
 10
426.77606578099613
 20
374.625
 10
425.75
 20
372.6730448535055
 10
424.82928646136423
 20
373.125
 10
424.75
 20
375.1071524136623
 10
420.5
 20
375.45127059630926
 10
419.6556573588769
 20
376.375
  0
LWPOLYLINE
  5
3D
330
17
100
AcDbEntity
  8
BAND_06
100
AcDbPolyline
 90
16
 70
1
 10
420.87420840481474
 20
383.625
 10
421.59376866588553
 20
385.375
 10
421.0144557232171
 20
387.375
 10
422.0
 20
389.43361063423066
 10
423.75
 20
388.27277037576266
 10
424.5
 20
389.40269121160696
 10
427.0
 20
388.2288703540867
 10
427.3229450303527
 20
386.875
 10
428.5
 20
385.7671724746413
 10
428.3903660945089
 20
384.625
 10
429.75
 20
383.135462676882
 10
431.43943319598026
 20
382.625
 10
431.5
 20
381.29666210465007
 10
424.5
 20
381.7861450800742
 10
423.0
 20
382.49804208484807
 10
422.0
 20
381.9521553437107
  0
LWPOLYLINE
  5
3E
330
17
100
AcDbEntity
  8
BAND_06
100
AcDbPolyline
 90
13
 70
1
 10
362.25
 20
394.6859539761382
 10
361.125
 20
395.0
 10
369.24449013634575
 20
396.25
 10
367.61921189244816
 20
395.375
 10
368.4416146160574
 20
394.375
 10
367.2403337918585
 20
392.375
 10
366.25
 20
392.405873868244
 10
365.25
 20
393.4499946566801
 10
362.5
 20
391.81004918931984
 10
361.5
 20
392.1061990955727
 10
361.4845851539044
 20
393.375
 10
362.75
 20
393.0236895792135
 10
362.7912727500829
 20
393.625
  0
ENDSEC
  0
SECTION
  2
OBJECTS
  0
DICTIONARY
  5
A
330
0
100
AcDbDictionary
281
1
  3
ACAD_COLOR
350
B
  3
ACAD_GROUP
350
C
  3
ACAD_LAYOUT
350
D
  3
ACAD_MATERIAL
350
E
  3
ACAD_MLEADERSTYLE
350
F
  3
ACAD_MLINESTYLE
350
10
  3
ACAD_PLOTSETTINGS
350
11
  3
ACAD_PLOTSTYLENAME
350
12
  3
ACAD_SCALELIST
350
14
  3
ACAD_TABLESTYLE
350
15
  3
ACAD_VISUALSTYLE
350
16
  3
EZDXF_META
350
2D
  0
DICTIONARY
  5
B
330
A
100
AcDbDictionary
281
1
  0
DICTIONARY
  5
C
330
A
100
AcDbDictionary
281
1
  0
DICTIONARY
  5
D
330
A
100
AcDbDictionary
281
1
  3
Model
350
1A
  3
Layout1
350
1E
  0
DICTIONARY
  5
E
330
A
100
AcDbDictionary
281
1
  3
ByBlock
350
1F
  3
ByLayer
350
20
  3
Global
350
21
  0
DICTIONARY
  5
F
330
A
100
AcDbDictionary
281
1
  3
Standard
350
2C
  0
DICTIONARY
  5
10
330
A
100
AcDbDictionary
281
1
  3
Standard
350
22
  0
DICTIONARY
  5
11
330
A
100
AcDbDictionary
281
1
  0
ACDBDICTIONARYWDFLT
  5
12
330
A
100
AcDbDictionary
281
1
  3
Normal
350
13
100
AcDbDictionaryWithDefault
340
13
  0
ACDBPLACEHOLDER
  5
13
330
12
  0
DICTIONARY
  5
14
330
A
100
AcDbDictionary
281
1
  0
DICTIONARY
  5
15
330
A
100
AcDbDictionary
281
1
  0
DICTIONARY
  5
16
330
A
100
AcDbDictionary
281
1
  0
LAYOUT
  5
1A
330
D
100
AcDbPlotSettings
  1

  4
A3
  6

 40
7.5
 41
20.0
 42
7.5
 43
20.0
 44
420.0
 45
297.0
 46
0.0
 47
0.0
 48
0.0
 49
0.0
140
0.0
141
0.0
142
1.0
143
1.0
 70
1024
 72
1
 73
0
 74
5
  7

 75
16
 76
0
 77
2
 78
300
147
1.0
148
0.0
149
0.0
100
AcDbLayout
  1
Model
 70
1
 71
0
 10
0.0
 20
0.0
 11
420.0
 21
297.0
 12
0.0
 22
0.0
 32
0.0
 14
1e+20
 24
1e+20
 34
1e+20
 15
-1e+20
 25
-1e+20
 35
-1e+20
146
0.0
 13
0.0
 23
0.0
 33
0.0
 16
1.0
 26
0.0
 36
0.0
 17
0.0
 27
1.0
 37
0.0
 76
1
330
17
  0
LAYOUT
  5
1E
330
D
100
AcDbPlotSettings
  1

  4
A3
  6

 40
7.5
 41
20.0
 42
7.5
 43
20.0
 44
420.0
 45
297.0
 46
0.0
 47
0.0
 48
0.0
 49
0.0
140
0.0
141
0.0
142
1.0
143
1.0
 70
0
 72
1
 73
0
 74
5
  7

 75
16
 76
0
 77
2
 78
300
147
1.0
148
0.0
149
0.0
100
AcDbLayout
  1
Layout1
 70
1
 71
1
 10
0.0
 20
0.0
 11
420.0
 21
297.0
 12
0.0
 22
0.0
 32
0.0
 14
1e+20
 24
1e+20
 34
1e+20
 15
-1e+20
 25
-1e+20
 35
-1e+20
146
0.0
 13
0.0
 23
0.0
 33
0.0
 16
1.0
 26
0.0
 36
0.0
 17
0.0
 27
1.0
 37
0.0
 76
1
330
1B
  0
MATERIAL
  5
1F
102
{ACAD_REACTORS
330
E
102
}
330
E
100
AcDbMaterial
  1
ByBlock
  2

 70
0
 40
1.0
 71
1
 41
1.0
 91
-1023410177
 42
1.0
 72
1
  3

 73
1
 74
1
 75
1
 44
0.5
 73
0
 45
1.0
 46
1.0
 77
1
  4

 78
1
 79
1
170
1
 48
1.0
171
1
  6

172
1
173
1
174
1
140
1.0
141
1.0
175
1
  7

176
1
177
1
178
1
143
1.0
179
1
  8

270
1
271
1
272
1
145
1.0
146
1.0
273
1
  9

274
1
275
1
276
1
 42
1.0
 72
1
  3

 73
1
 74
1
 75
1
 94
63
  0
MATERIAL
  5
20
102
{ACAD_REACTORS
330
E
102
}
330
E
100
AcDbMaterial
  1
ByLayer
  2

 70
0
 40
1.0
 71
1
 41
1.0
 91
-1023410177
 42
1.0
 72
1
  3

 73
1
 74
1
 75
1
 44
0.5
 73
0
 45
1.0
 46
1.0
 77
1
  4

 78
1
 79
1
170
1
 48
1.0
171
1
  6

172
1
173
1
174
1
140
1.0
141
1.0
175
1
  7

176
1
177
1
178
1
143
1.0
179
1
  8

270
1
271
1
272
1
145
1.0
146
1.0
273
1
  9

274
1
275
1
276
1
 42
1.0
 72
1
  3

 73
1
 74
1
 75
1
 94
63
  0
MATERIAL
  5
21
102
{ACAD_REACTORS
330
E
102
}
330
E
100
AcDbMaterial
  1
Global
  2

 70
0
 40
1.0
 71
1
 41
1.0
 91
-1023410177
 42
1.0
 72
1
  3

 73
1
 74
1
 75
1
 44
0.5
 73
0
 45
1.0
 46
1.0
 77
1
  4

 78
1
 79
1
170
1
 48
1.0
171
1
  6

172
1
173
1
174
1
140
1.0
141
1.0
175
1
  7

176
1
177
1
178
1
143
1.0
179
1
  8

270
1
271
1
272
1
145
1.0
146
1.0
273
1
  9

274
1
275
1
276
1
 42
1.0
 72
1
  3

 73
1
 74
1
 75
1
 94
63
  0
MLINESTYLE
  5
22
102
{ACAD_REACTORS
330
10
102
}
330
10
100
AcDbMlineStyle
  2
Standard
 70
0
  3

 62
256
 51
90.0
 52
90.0
 71
2
 49
0.5
 62
256
  6
BYLAYER
 49
-0.5
 62
256
  6
BYLAYER
  0
MLEADERSTYLE
  5
2C
102
{ACAD_REACTORS
330
F
102
}
330
F
100
AcDbMLeaderStyle
179
2
170
2
171
1
172
0
 90
2
 40
0.0
 41
0.0
173
1
 91
-1056964608
 92
-2
290
1
 42
2.0
291
1
 43
8.0
  3
Standard
 44
4.0
300

342
29
174
1
175
1
176
0
178
1
 93
-1056964608
 45
4.0
292
0
297
0
 46
4.0
 94
-1056964608
 47
1.0
 49
1.0
140
1.0
294
1
141
0.0
177
0
142
1.0
295
0
296
0
143
3.75
271
0
272
9
273
9
  0
DICTIONARY
  5
2D
330
A
100
AcDbDictionary
280
1
281
1
  3
CREATED_BY_EZDXF
350
2E
  3
WRITTEN_BY_EZDXF
350
41
  0
DICTIONARYVAR
  5
2E
330
2D
100
DictionaryVariables
280
0
  1
1.4.3 @ 2026-09-03T21:25:23.195444+00:00
  0
DICTIONARYVAR
  5
41
330
2D
100
DictionaryVariables
280
0
  1
1.4.3 @ 2026-09-03T21:25:23.196773+00:00
  0
ENDSEC
  0
EOF
