  0
SECTION
  2
HEADER
  9
$ACADVER
  1
AC1024
  9
$ACADMAINTVER
 70
6
  9
$DWGCODEPAGE
  3
ANSI_1252
  9
$LASTSAVEDBY
  1
ezdxf
  9
$INSBASE
 10
0.0
 20
0.0
 30
0.0
  9
$EXTMIN
 10
1e+20
 20
1e+20
 30
1e+20
  9
$EXTMAX
 10
-1e+20
 20
-1e+20
 30
-1e+20
  9
$LIMMIN
 10
0.0
 20
0.0
  9
$LIMMAX
 10
420.0
 20
297.0
  9
$ORTHOMODE
 70
0
  9
$REGENMODE
 70
1
  9
$FILLMODE
 70
1
  9
$QTEXTMODE
 70
0
  9
$MIRRTEXT
 70
1
  9
$LTSCALE
 40
1.0
  9
$ATTMODE
 70
1
  9
$TEXTSIZE
 40
2.5
  9
$TRACEWID
 40
1.0
  9
$TEXTSTYLE
  7
Standard
  9
$CLAYER
  8
0
  9
$CELTYPE
  6
ByLayer
  9
$CECOLOR
 62
256
  9
$CELTSCALE
 40
1.0
  9
$DISPSILH
 70
0
  9
$DIMSCALE
 40
1.0
  9
$DIMASZ
 40
2.5
  9
$DIMEXO
 40
0.625
  9
$DIMDLI
 40
3.75
  9
$DIMRND
 40
0.0
  9
$DIMDLE
 40
0.0
  9
$DIMEXE
 40
1.25
  9
$DIMTP
 40
0.0
  9
$DIMTM
 40
0.0
  9
$DIMTXT
 40
2.5
  9
$DIMCEN
 40
2.5
  9
$DIMTSZ
 40
0.0
  9
$DIMTOL
 70
0
  9
$DIMLIM
 70
0
  9
$DIMTIH
 70
0
  9
$DIMTOH
 70
0
  9
$DIMSE1
 70
0
  9
$DIMSE2
 70
0
  9
$DIMTAD
 70
1
  9
$DIMZIN
 70
8
  9
$DIMBLK
  1

  9
$DIMASO
 70
1
  9
$DIMSHO
 70
1
  9
$DIMPOST
  1

  9
$DIMAPOST
  1

  9
$DIMALT
 70
0
  9
$DIMALTD
 70
3
  9
$DIMALTF
 40
0.03937007874
  9
$DIMLFAC
 40
1.0
  9
$DIMTOFL
 70
1
  9
$DIMTVP
 40
0.0
  9
$DIMTIX
 70
0
  9
$DIMSOXD
 70
0
  9
$DIMSAH
 70
0
  9
$DIMBLK1
  1

  9
$DIMBLK2
  1

  9
$DIMSTYLE
  2
ISO-25
  9
$DIMCLRD
 70
0
  9
$DIMCLRE
 70
0
  9
$DIMCLRT
 70
0
  9
$DIMTFAC
 40
1.0
  9
$DIMGAP
 40
0.625
  9
$DIMJUST
 70
0
  9
$DIMSD1
 70
0
  9
$DIMSD2
 70
0
  9
$DIMTOLJ
 70
0
  9
$DIMTZIN
 70
8
  9
$DIMALTZ
 70
0
  9
$DIMALTTZ
 70
0
  9
$DIMUPT
 70
0
  9
$DIMDEC
 70
2
  9
$DIMTDEC
 70
2
  9
$DIMALTU
 70
2
  9
$DIMALTTD
 70
3
  9
$DIMTXSTY
  7
Standard
  9
$DIMAUNIT
 70
0
  9
$DIMADEC
 70
0
  9
$DIMALTRND
 40
0.0
  9
$DIMAZIN
 70
0
  9
$DIMDSEP
 70
44
  9
$DIMATFIT
 70
3
  9
$DIMFRAC
 70
0
  9
$DIMLDRBLK
  1

  9
$DIMLUNIT
 70
2
  9
$DIMLWD
 70
-2
  9
$DIMLWE
 70
-2
  9
$DIMTMOVE
 70
0
  9
$DIMFXL
 40
1.0
  9
$DIMFXLON
 70
0
  9
$DIMJOGANG
 40
0.785398163397
  9
$DIMTFILL
 70
0
  9
$DIMTFILLCLR
 70
0
  9
$DIMARCSYM
 70
0
  9
$DIMLTYPE
  6

  9
$DIMLTEX1
  6

  9
$DIMLTEX2
  6

  9
$DIMTXTDIRECTION
 70
0
  9
$LUNITS
 70
2
  9
$LUPREC
 70
4
  9
$SKETCHINC
 40
1.0
  9
$FILLETRAD
 40
10.0
  9
$AUNITS
 70
0
  9
$AUPREC
 70
2
  9
$MENU
  1
.
  9
$ELEVATION
 40
0.0
  9
$PELEVATION
 40
0.0
  9
$THICKNESS
 40
0.0
  9
$LIMCHECK
 70
0
  9
$CHAMFERA
 40
0.0
  9
$CHAMFERB
 40
0.0
  9
$CHAMFERC
 40
0.0
  9
$CHAMFERD
 40
0.0
  9
$SKPOLY
 70
0
  9
$TDCREATE
 40
2461288.3092939816
  9
$TDUCREATE
 40
2458532.153996898
  9
$TDUPDATE
 40
2461288.3092939816
  9
$TDUUPDATE
 40
2458532.1544311
  9
$TDINDWG
 40
0.0
  9
$TDUSRTIMER
 40
0.0
  9
$USRTIMER
 70
1
  9
$ANGBASE
 50
0.0
  9
$ANGDIR
 70
0
  9
$PDMODE
 70
0
  9
$PDSIZE
 40
0.0
  9
$PLINEWID
 40
0.0
  9
$SPLFRAME
 70
0
  9
$SPLINETYPE
 70
6
  9
$SPLINESEGS
 70
8
  9
$HANDSEED
  5
69
  9
$SURFTAB1
 70
6
  9
$SURFTAB2
 70
6
  9
$SURFTYPE
 70
6
  9
$SURFU
 70
6
  9
$SURFV
 70
6
  9
$UCSBASE
  2

  9
$UCSNAME
  2

  9
$UCSORG
 10
0.0
 20
0.0
 30
0.0
  9
$UCSXDIR
 10
1.0
 20
0.0
 30
0.0
  9
$UCSYDIR
 10
0.0
 20
1.0
 30
0.0
  9
$UCSORTHOREF
  2

  9
$UCSORTHOVIEW
 70
0
  9
$UCSORGTOP
 10
0.0
 20
0.0
 30
0.0
  9
$UCSORGBOTTOM
 10
0.0
 20
0.0
 30
0.0
  9
$UCSORGLEFT
 10
0.0
 20
0.0
 30
0.0
  9
$UCSORGRIGHT
 10
0.0
 20
0.0
 30
0.0
  9
$UCSORGFRONT
 10
0.0
 20
0.0
 30
0.0
  9
$UCSORGBACK
 10
0.0
 20
0.0
 30
0.0
  9
$PUCSBASE
  2

  9
$PUCSNAME
  2

  9
$PUCSORG
 10
0.0
 20
0.0
 30
0.0
  9
$PUCSXDIR
 10
1.0
 20
0.0
 30
0.0
  9
$PUCSYDIR
 10
0.0
 20
1.0
 30
0.0
  9
$PUCSORTHOREF
  2

  9
$PUCSORTHOVIEW
 70
0
  9
$PUCSORGTOP
 10
0.0
 20
0.0
 30
0.0
  9
$PUCSORGBOTTOM
 10
0.0
 20
0.0
 30
0.0
  9
$PUCSORGLEFT
 10
0.0
 20
0.0
 30
0.0
  9
$PUCSORGRIGHT
 10
0.0
 20
0.0
 30
0.0
  9
$PUCSORGFRONT
 10
0.0
 20
0.0
 30
0.0
  9
$PUCSORGBACK
 10
0.0
 20
0.0
 30
0.0
  9
$USERI1
 70
0
  9
$USERI2
 70
0
  9
$USERI3
 70
0
  9
$USERI4
 70
0
  9
$USERI5
 70
0
  9
$USERR1
 40
0.0
  9
$USERR2
 40
0.0
  9
$USERR3
 40
0.0
  9
$USERR4
 40
0.0
  9
$USERR5
 40
0.0
  9
$WORLDVIEW
 70
1
  9
$SHADEDGE
 70
3
  9
$SHADEDIF
 70
70
  9
$TILEMODE
 70
1
  9
$MAXACTVP
 70
64
  9
$PINSBASE
 10
0.0
 20
0.0
 30
0.0
  9
$PLIMCHECK
 70
0
  9
$PEXTMIN
 10
1e+20
 20
1e+20
 30
1e+20
  9
$PEXTMAX
 10
-1e+20
 20
-1e+20
 30
-1e+20
  9
$PLIMMIN
 10
0.0
 20
0.0
  9
$PLIMMAX
 10
420.0
 20
297.0
  9
$UNITMODE
 70
0
  9
$VISRETAIN
 70
1
  9
$PLINEGEN
 70
0
  9
$PSLTSCALE
 70
1
  9
$TREEDEPTH
 70
3020
  9
$CMLSTYLE
  2
Standard
  9
$CMLJUST
 70
0
  9
$CMLSCALE
 40
20.0
  9
$PROXYGRAPHICS
 70
1
  9
$MEASUREMENT
 70
1
  9
$CELWEIGHT
370
-1
  9
$ENDCAPS
280
0
  9
$JOINSTYLE
280
0
  9
$LWDISPLAY
290
0
  9
$INSUNITS
 70
4
  9
$HYPERLINKBASE
  1

  9
$STYLESHEET
  1

  9
$XEDIT
290
1
  9
$CEPSNTYPE
380
0
  9
$PSTYLEMODE
290
1
  9
$FINGERPRINTGUID
  2
{96DEF2AF-E714-4D6A-8125-4373FBF1CFEA}
  9
$VERSIONGUID
  2
{8ABC851B-09E1-44D0-9A32-AA4A2DB03839}
  9
$EXTNAMES
290
1
  9
$PSVPSCALE
 40
0.0
  9
$OLESTARTUP
290
0
  9
$SORTENTS
280
127
  9
$INDEXCTL
280
0
  9
$HIDETEXT
280
1
  9
$XCLIPFRAME
280
1
  9
$HALOGAP
280
0
  9
$OBSCOLOR
 70
257
  9
$OBSLTYPE
280
0
  9
$INTERSECTIONDISPLAY
280
0
  9
$INTERSECTIONCOLOR
 70
257
  9
$DIMASSOC
280
2
  9
$PROJECTNAME
  1

  9
$CAMERADISPLAY
290
0
  9
$LENSLENGTH
 40
50.0
  9
$CAMERAHEIGHT
 40
0.0
  9
$STEPSPERSEC
 40
24.0
  9
$STEPSIZE
 40
100.0
  9
$3DDWFPREC
 40
2.0
  9
$PSOLWIDTH
 40
0.005
  9
$PSOLHEIGHT
 40
0.08
  9
$LOFTANG1
 40
1.570796326795
  9
$LOFTANG2
 40
1.570796326795
  9
$LOFTMAG1
 40
0.0
  9
$LOFTMAG2
 40
0.0
  9
$LOFTPARAM
 70
7
  9
$LOFTNORMALS
280
1
  9
$LATITUDE
 40
37.795
  9
$LONGITUDE
 40
-122.394
  9
$NORTHDIRECTION
 40
0.0
  9
$TIMEZONE
 70
-8000
  9
$LIGHTGLYPHDISPLAY
280
1
  9
$TILEMODELIGHTSYNCH
280
1
  9
$CMATERIAL
347
20
  9
$SOLIDHIST
280
0
  9
$SHOWHIST
280
1
  9
$DWFFRAME
280
2
  9
$DGNFRAME
280
2
  9
$REALWORLDSCALE
290
1
  9
$INTERFERECOLOR
 62
256
  9
$CSHADOW
280
0
  9
$SHADOWPLANELOCATION
 40
0.0
  0
ENDSEC
  0
SECTION
  2
CLASSES
  0
CLASS
  1
ACDBDICTIONARYWDFLT
  2
AcDbDictionaryWithDefault
  3
ObjectDBX Classes
 90
0
 91
0
280
0
281
0
  0
CLASS
  1
SUN
  2
AcDbSun
  3
SCENEOE
 90
1153
 91
0
280
0
281
0
  0
CLASS
  1
VISUALSTYLE
  2
AcDbVisualStyle
  3
ObjectDBX Classes
 90
4095
 91
0
280
0
281
0
  0
CLASS
  1
MATERIAL
  2
AcDbMaterial
  3
ObjectDBX Classes
 90
1153
 91
0
280
0
281
0
  0
CLASS
  1
SCALE
  2
AcDbScale
  3
ObjectDBX Classes
 90
1153
 91
0
280
0
281
0
  0
CLASS
  1
TABLESTYLE
  2
AcDbTableStyle
  3
ObjectDBX Classes
 90
4095
 91
0
280
0
281
0
  0
CLASS
  1
MLEADERSTYLE
  2
AcDbMLeaderStyle
  3
ACDB_MLEADERSTYLE_CLASS
 90
4095
 91
0
280
0
281
0
  0
CLASS
  1
DICTIONARYVAR
  2
AcDbDictionaryVar
  3
ObjectDBX Classes
 90
0
 91
0
280
0
281
0
  0
CLASS
  1
CELLSTYLEMAP
  2
AcDbCellStyleMap
  3
ObjectDBX Classes
 90
1152
 91
0
280
0
281
0
  0
CLASS
  1
MENTALRAYRENDERSETTINGS
  2
AcDbMentalRayRenderSettings
  3
SCENEOE
 90
1024
 91
0
280
0
281
0
  0
CLASS
  1
ACDBDETAILVIEWSTYLE
  2
AcDbDetailViewStyle
  3
ObjectDBX Classes
 90
1025
 91
0
280
0
281
0
  0
CLASS
  1
ACDBSECTIONVIEWSTYLE
  2
AcDbSectionViewStyle
  3
ObjectDBX Classes
 90
1025
 91
0
280
0
281
0
  0
CLASS
  1
RASTERVARIABLES
  2
AcDbRasterVariables
  3
ISM
 90
0
 91
0
280
0
281
0
  0
CLASS
  1
ACDBPLACEHOLDER
  2
AcDbPlaceHolder
  3
ObjectDBX Classes
 90
0
 91
0
280
0
281
0
  0
CLASS
  1
LAYOUT
  2
AcDbLayout
  3
ObjectDBX Classes
 90
0
 91
0
280
0
281
0
  0
ENDSEC
  0
SECTION
  2
TABLES
  0
TABLE
  2
VPORT
  5
8
330
0
100
AcDbSymbolTable
 70
1
  0
VPORT
  5
23
330
8
100
AcDbSymbolTableRecord
100
AcDbViewportTableRecord
  2
*Active
 70
0
 10
0.0
 20
0.0
 11
1.0
 21
1.0
 12
0.0
 22
0.0
 13
0.0
 23
0.0
 14
0.5
 24
0.5
 15
0.5
 25
0.5
 16
0.0
 26
0.0
 36
1.0
 17
0.0
 27
0.0
 37
0.0
 40
1000.0
 41
1.34
 42
50.0
 43
0.0
 44
0.0
 50
0.0
 51
0.0
 71
0
 72
1000
 73
1
 74
3
 75
0
 76
0
 77
0
 78
0
281
0
 65
0
146
0.0
  0
ENDTAB
  0
TABLE
  2
LTYPE
  5
2
330
0
100
AcDbSymbolTable
 70
3
  0
LTYPE
  5
24
330
2
100
AcDbSymbolTableRecord
100
AcDbLinetypeTableRecord
  2
ByBlock
 70
0
  3

 72
65
 73
0
 40
0.0
  0
LTYPE
  5
25
330
2
100
AcDbSymbolTableRecord
100
AcDbLinetypeTableRecord
  2
ByLayer
 70
0
  3

 72
65
 73
0
 40
0.0
  0
LTYPE
  5
26
330
2
100
AcDbSymbolTableRecord
100
AcDbLinetypeTableRecord
  2
Continuous
 70
0
  3

 72
65
 73
0
 40
0.0
  0
ENDTAB
  0
TABLE
  2
LAYER
  5
1
330
0
100
AcDbSymbolTable
 70
3
  0
LAYER
  5
27
330
1
100
AcDbSymbolTableRecord
100
AcDbLayerTableRecord
  2
0
 70
0
 62
7
  6
Continuous
370
-3
390
13
347
21
  0
LAYER
  5
28
330
1
100
AcDbSymbolTableRecord
100
AcDbLayerTableRecord
  2
Defpoints
 70
0
 62
7
  6
Continuous
290
0
370
-3
390
13
347
21
  0
LAYER
  5
2F
330
1
100
AcDbSymbolTableRecord
100
AcDbLayerTableRecord
  2
BAND_04
 70
0
 62
4
  6
Continuous
370
-3
390
13
347
21
  0
ENDTAB
  0
TABLE
  2
STYLE
  5
5
330
0
100
AcDbSymbolTable
 70
1
  0
STYLE
  5
29
330
5
100
AcDbSymbolTableRecord
100
AcDbTextStyleTableRecord
  2
Standard
 70
0
 40
0.0
 41
1.0
 50
0.0
 71
0
 42
2.5
  3
txt
  4

  0
ENDTAB
  0
TABLE
  2
VIEW
  5
7
330
0
100
AcDbSymbolTable
 70
0
  0
ENDTAB
  0
TABLE
  2
UCS
  5
6
330
0
100
AcDbSymbolTable
 70
0
  0
ENDTAB
  0
TABLE
  2
APPID
  5
3
330
0
100
AcDbSymbolTable
 70
3
  0
APPID
  5
2A
330
3
100
AcDbSymbolTableRecord
100
AcDbRegAppTableRecord
  2
ACAD
 70
0
  0
APPID
  5
66
330
3
100
AcDbSymbolTableRecord
100
AcDbRegAppTableRecord
  2
HATCHBACKGROUNDCOLOR
 70
0
  0
APPID
  5
67
330
3
100
AcDbSymbolTableRecord
100
AcDbRegAppTableRecord
  2
EZDXF
 70
0
  0
ENDTAB
  0
TABLE
  2
DIMSTYLE
  5
4
330
0
100
AcDbSymbolTable
 70
1
100
AcDbDimStyleTable
  0
DIMSTYLE
105
2B
330
4
100
AcDbSymbolTableRecord
100
AcDbDimStyleTableRecord
  2
Standard
 70
0
 40
1.0
 41
2.5
 42
0.625
 43
3.75
 44
1.25
 45
0.0
 46
0.0
 47
0.0
 48
0.0
 49
2.5
140
2.5
141
2.5
142
0.0
143
0.03937007874
144
1.0
145
0.0
146
1.0
147
0.625
148
0.0
 69
0
 70
0
 71
0
 72
0
 73
0
 74
0
 75
0
 76
0
 77
1
 78
8
 79
3
170
0
171
3
172
1
173
0
174
0
175
0
176
0
177
0
178
0
179
2
271
2
272
2
273
2
274
3
275
0
276
0
277
2
278
44
279
0
280
0
281
0
282
0
283
0
284
8
285
0
286
0
288
0
289
3
290
0
371
-2
372
-2
  0
ENDTAB
  0
TABLE
  2
BLOCK_RECORD
  5
9
330
0
100
AcDbSymbolTable
 70
2
  0
BLOCK_RECORD
  5
17
330
9
100
AcDbSymbolTableRecord
100
AcDbBlockTableRecord
  2
*Model_Space
340
1A
 70
0
280
1
281
0
  0
BLOCK_RECORD
  5
1B
330
9
100
AcDbSymbolTableRecord
100
AcDbBlockTableRecord
  2
*Paper_Space
340
1E
 70
0
280
1
281
0
  0
ENDTAB
  0
ENDSEC
  0
SECTION
  2
BLOCKS
  0
BLOCK
  5
18
330
17
100
AcDbEntity
  8
0
100
AcDbBlockBegin
  2
*Model_Space
 70
0
 10
0.0
 20
0.0
 30
0.0
  3
*Model_Space
  1

  0
ENDBLK
  5
19
330
17
100
AcDbEntity
  8
0
100
AcDbBlockEnd
  0
BLOCK
  5
1C
330
1B
100
AcDbEntity
  8
0
100
AcDbBlockBegin
  2
*Paper_Space
 70
0
 10
0.0
 20
0.0
 30
0.0
  3
*Paper_Space
  1

  0
ENDBLK
  5
1D
330
1B
100
AcDbEntity
  8
0
100
AcDbBlockEnd
  0
ENDSEC
  0
SECTION
  2
ENTITIES
  0
LWPOLYLINE
  5
30
330
17
100
AcDbEntity
  8
BAND_04
100
AcDbPolyline
 90
6
 70
1
 10
139.5
 20
134.70806094981737
 10
140.20956039773534
 20
132.125
 10
139.0
 20
130.61152643512824
 10
137.5
 20
132.06778606068906
 10
137.4413147157014
 20
132.875
 10
138.61249770459696
 20
134.625
  0
LWPOLYLINE
  5
31
330
17
100
AcDbEntity
  8
BAND_04
100
AcDbPolyline
 90
446
 70
1
 10
193.25
 20
122.92988849959755
 10
192.0
 20
121.85236311966041
 10
184.0
 20
120.37704528704646
 10
180.0
 20
121.24849050654832
 10
174.75
 20
120.51905766248785
 10
174.75563487053464
 20
122.125
 10
173.3176118867778
 20
122.875
 10
174.58329429368536
 20
125.125
 10
174.0
 20
127.38049557279348
 10
173.0
 20
126.64747331542907
 10
171.53296646315792
 20
123.875
 10
170.5
 20
123.33813319363935
 10
169.25
 20
123.89581745921151
 10
167.75
 20
121.96395371058776
 10
166.5
 20
122.44807137112872
 10
165.0
 20
121.6684787549391
 10
163.0
 20
123.32185599347227
 10
161.5
 20
122.76980605806177
 10
161.5
 20
125.08696915441641
 10
164.5
 20
125.1087097887877
 10
165.92427599832195
 20
126.125
 10
166.52278763009457
 20
127.375
 10
165.25
 20
127.14122898663337
 10
163.75
 20
127.72588720387373
 10
162.75
 20
127.00048351162084
 10
160.69553015986725
 20
128.375
 10
165.25
 20
130.43571511416144
 10
166.75
 20
129.2613617350738
 10
167.85584697788536
 20
129.875
 10
167.90219412615966
 20
130.875
 10
166.51489290993965
 20
131.625
 10
168.42850845431326
 20
132.875
 10
168.1847205376263
 20
134.125
 10
166.75
 20
133.89383240586054
 10
166.0
 20
135.9647676786927
 10
165.25
 20
133.82937302782102
 10
163.0
 20
135.67308209416765
 10
163.90216255086918
 20
132.625
 10
162.75
 20
132.25267799094203
 10
161.96762987989396
 20
134.875
 10
160.5
 20
135.4871594028466
 10
159.76619395896444
 20
134.875
 10
160.33882545898692
 20
132.875
 10
159.10032961022517
 20
132.625
 10
159.44147135664977
 20
134.625
 10
158.5
 20
136.1035498244738
 10
158.0629984097659
 20
135.875
 10
157.08113707268507
 20
131.625
 10
157.33893283402432
 20
128.625
 10
158.2333949485058
 20
126.375
 10
157.75
 20
125.54818835011142
 10
155.78349580989664
 20
127.375
 10
155.68543633273174
 20
134.125
 10
155.0
 20
136.25125112749828
 10
153.98094451309322
 20
134.375
 10
154.34189407405304
 20
132.625
 10
153.25
 20
131.3086285585437
 10
153.0
 20
128.79335984794417
 10
152.0
 20
131.95304365238286
 10
150.5
 20
129.62332973653446
 10
149.75
 20
129.90066009505367
 10
149.684528965962
 20
130.875
 10
151.05735178631534
 20
133.625
 10
149.75
 20
133.64885429348098
 10
149.32710406126012
 20
135.625
 10
150.04932312784706
 20
137.125
 10
149.0
 20
137.6258122129793
 10
148.0
 20
135.47759284324508
 10
147.8397973925299
 20
136.875
 10
146.75
 20
137.04463958775497
 10
146.0
 20
138.4871360595933
 10
144.75
 20
138.3966212745525
 10
143.90652933261453
 20
137.625
 10
144.29212765742665
 20
134.875
 10
142.75
 20
135.15517547966544
 10
142.0
 20
134.02216059584327
 10
141.25
 20
134.00274470131677
 10
139.63867973816033
 20
136.375
 10
141.3957485234252
 20
140.375
 10
143.5
 20
141.25346401664342
 10
145.91684696098497
 20
143.625
 10
143.25
 20
145.796735629336
 10
142.5
 20
143.926453129452
 10
141.4074204161166
 20
144.625
 10
141.161225062676
 20
145.375
 10
141.80025007814936
 20
146.625
 10
141.0
 20
147.50620777027027
 10
141.01301699790335
 20
152.625
 10
140.5
 20
154.16227479373632
 10
140.75
 20
154.67301169431107
 10
141.68811816856055
 20
154.375
 10
142.32771084337355
 20
152.375
 10
143.75
 20
150.68971598510325
 10
147.25
 20
152.30676669791444
 10
147.85301000698774
 20
151.875
 10
147.6097245824975
 20
149.875
 10
149.1674014314271
 20
150.375
 10
148.44495215088955
 20
145.875
 10
147.42170533677853
 20
144.875
 10
147.79705899869964
 20
143.125
 10
148.75
 20
142.53691724099986
 10
148.56008636516987
 20
144.625
 10
149.5541211181362
 20
145.375
 10
149.91168587611082
 20
148.125
 10
151.400377271572
 20
149.875
 10
151.75
 20
152.1820016485242
 10
154.0
 20
151.83185039778175
 10
154.4661679938154
 20
151.125
 10
153.5
 20
151.00305893500249
 10
152.949572967981
 20
150.125
 10
153.6845146994237
 20
148.875
 10
152.75
 20
147.59916295444748
 10
153.87148717591145
 20
146.875
 10
152.44738662898237
 20
144.875
 10
152.75
 20
143.03789868877345
 10
153.75
 20
144.50319273535953
 10
154.9793696841475
 20
144.375
 10
155.28737538296497
 20
148.375
 10
156.0
 20
149.76204888464287
 10
157.90056168985473
 20
150.625
 10
158.2381875215557
 20
149.625
 10
157.676866845194
 20
147.875
 10
159.5
 20
146.00392159691148
 10
160.05020879576554
 20
147.375
 10
159.8257195519422
 20
150.625
 10
160.5
 20
151.16475992875203
 10
161.5
 20
150.51521005060852
 10
162.25
 20
152.09512965885244
 10
163.56770106927004
 20
151.875
 10
163.56663950445807
 20
150.375
 10
164.52793684772146
 20
149.875
 10
164.6631739973747
 20
148.625
 10
164.13523453391133
 20
146.875
 10
162.20927580414923
 20
145.875
 10
163.0
 20
145.3031398977604
 10
164.25
 20
145.61822336587417
 10
164.1478184873711
 20
144.375
 10
165.54553920927225
 20
143.875
 10
166.03817339050607
 20
142.625
 10
163.5
 20
139.74396910189665
 10
160.95527096976292
 20
139.625
 10
161.25
 20
138.14901027033233
 10
165.25
 20
139.09852482167946
 10
166.0
 20
140.5151754999033
 10
167.5095182522774
 20
140.125
 10
166.80833157949183
 20
142.125
 10
167.05279188236537
 20
143.875
 10
167.73964563258738
 20
144.375
 10
165.9888920146086
 20
144.875
 10
165.41020377065126
 20
147.125
 10
165.75
 20
147.8528630150395
 10
166.89944831025846
 20
147.875
 10
167.5654212821799
 20
148.625
 10
166.25509305865586
 20
149.625
 10
165.75
 20
151.7498176482847
 10
166.5
 20
152.14415204751083
 10
168.25
 20
151.75806615856695
 10
168.75
 20
150.53319326121334
 10
171.25
 20
148.682062426392
 10
172.0
 20
150.2065263248437
 10
173.75
 20
150.21349640197565
 10
174.0
 20
147.9482418384677
 10
175.87882884582726
 20
148.875
 10
177.0
 20
150.93405927934907
 10
177.75
 20
151.00079227026464
 10
177.48598199507035
 20
147.375
 10
179.0
 20
147.60234115147958
 10
179.92759294261924
 20
146.875
 10
179.39162173636794
 20
145.625
 10
180.0
 20
144.11114291730829
 10
176.5
 20
144.45071147002125
 10
175.75
 20
143.69432729678329
 10
173.5
 20
144.5287794630909
 10
172.5
 20
143.73318821196614
 10
171.75
 20
144.31665303906885
 10
170.5
 20
144.14350076255317
 10
171.61964355132915
 20
143.125
 10
170.2041238820802
 20
142.125
 10
170.75
 20
141.42242229021116
 10
172.75
 20
142.5349193241138
 10
175.25450895953352
 20
142.125
 10
174.30313382660364
 20
139.875
 10
171.75
 20
138.44826809269614
 10
171.75
 20
137.63746884210914
 10
174.75
 20
138.8631292537175
 10
176.1865749915198
 20
141.625
 10
177.25
 20
142.45125777673724
 10
180.567531847814
 20
141.125
 10
180.75
 20
139.28065602322204
 10
178.17919885336678
 20
139.875
 10
178.21732002184774
 20
138.625
 10
176.4046062166806
 20
138.375
 10
175.21534257384226
 20
137.375
 10
176.0
 20
136.78264921963523
 10
176.75
 20
137.57322189623892
 10
177.75
 20
136.951379120139
 10
179.5
 20
137.83676064986253
 10
180.43126464854856
 20
137.375
 10
180.58929816921406
 20
136.875
 10
179.48216246324301
 20
136.625
 10
179.98166403428525
 20
135.625
 10
179.4736558936542
 20
133.875
 10
180.75
 20
130.98661804960128
 10
181.5
 20
130.84440706842096
 10
181.85800152591673
 20
131.625
 10
181.0
 20
131.92849746291245
 10
180.56855700992327
 20
133.625
 10
180.75
 20
135.7499289076088
 10
186.0
 20
133.3693563830739
 10
188.5184411414261
 20
135.125
 10
188.5
 20
136.49534099494275
 10
186.0
 20
135.56894644009117
 10
183.8804660678989
 20
136.625
 10
185.9905338178568
 20
137.375
 10
184.09301691103542
 20
138.625
 10
185.9154045260509
 20
140.125
 10
185.97624327927713
 20
140.875
 10
185.0
 20
140.94071619576522
 10
184.25
 20
139.9461044268931
 10
183.54848500346824
 20
141.625
 10
183.75
 20
143.67711790303554
 10
185.4066510637945
 20
144.125
 10
184.9791914328884
 20
145.875
 10
185.83509630925045
 20
146.125
 10
186.7282796281525
 20
145.375
 10
187.0
 20
144.152927219444
 10
188.7501063834337
 20
144.125
 10
189.25
 20
143.04350483980818
 10
190.25
 20
142.545508466637
 10
191.0
 20
142.85007729203824
 10
191.75
 20
142.33293007011844
 10
192.16213775325892
 20
142.875
 10
189.25060383548796
 20
145.125
 10
188.9223486048478
 20
147.625
 10
187.0
 20
147.69378985331775
 10
187.75
 20
149.10942976999104
 10
189.20624927187293
 20
149.125
 10
191.0
 20
146.3755328926472
 10
194.0
 20
143.74750682166712
 10
196.0304315057205
 20
144.875
 10
194.25
 20
146.3208385878281
 10
192.75
 20
146.34604387909906
 10
193.75
 20
148.267858603795
 10
196.75
 20
148.55901635848886
 10
197.25
 20
149.24615520514013
 10
198.5
 20
148.5490497989797
 10
201.02899017335173
 20
149.375
 10
198.75
 20
150.080898923174
 10
198.78766585846222
 20
151.375
 10
196.0
 20
152.0325655361612
 10
195.5
 20
152.84861544281128
 10
194.5
 20
151.26987395808175
 10
192.75
 20
151.19987819919828
 10
190.97290252778598
 20
152.375
 10
192.5
 20
155.10005568739354
 10
194.5
 20
155.82961844013977
 10
195.5
 20
155.30024337540374
 10
196.27520027928847
 20
155.625
 10
195.0
 20
156.3816018171515
 10
192.27736639397267
 20
156.375
 10
195.15709500642762
 20
159.375
 10
195.0
 20
160.1653534586771
 10
196.75
 20
159.90482568581714
 10
197.5
 20
160.46327433969577
 10
198.75
 20
159.96488854036755
 10
199.67379518106046
 20
163.625
 10
201.5
 20
163.16032337561097
 10
201.4962094124098
 20
164.375
 10
202.5
 20
165.23367612605236
 10
204.3327909128042
 20
164.375
 10
203.85853049761826
 20
166.125
 10
205.28696000404796
 20
169.375
 10
204.65467462103837
 20
171.375
 10
204.8391357185524
 20
173.375
 10
206.25
 20
174.11500172913549
 10
206.60606786302245
 20
175.375
 10
208.96031957266038
 20
177.125
 10
207.4040365394681
 20
179.375
 10
207.52273668926767
 20
180.875
 10
206.72414676932468
 20
182.875
 10
207.56835195253487
 20
183.375
 10
207.41528865553067
 20
184.875
 10
208.44065643370547
 20
187.125
 10
210.79471070102394
 20
190.875
 10
212.25
 20
191.99009666080843
 10
212.9247970950805
 20
191.375
 10
213.56001727313293
 20
188.875
 10
213.08473705223273
 20
188.375
 10
215.78384560276893
 20
186.375
 10
214.4624809209885
 20
186.125
 10
213.25
 20
184.49322089647723
 10
211.0
 20
185.6513438672864
 10
210.25859419897154
 20
185.375
 10
210.71815003714175
 20
183.125
 10
213.13354241600143
 20
181.875
 10
213.67946128481614
 20
180.625
 10
210.5
 20
180.58272048469644
 10
209.90845740004582
 20
180.125
 10
212.1895029056608
 20
178.125
 10
211.72837693034987
 20
177.375
 10
213.16086205455406
 20
176.125
 10
212.25
 20
175.0557912452512
 10
210.25
 20
175.55576680966146
 10
210.04935782211322
 20
174.375
 10
209.0
 20
173.22951258428714
 10
207.69669606978343
 20
173.875
 10
207.08554831079383
 20
169.125
 10
206.19558697874913
 20
168.125
 10
206.02206523305853
 20
166.375
 10
207.31576891077904
 20
163.375
 10
207.25
 20
161.17964373444454
 10
208.34027804743732
 20
163.125
 10
207.49573530632782
 20
165.375
 10
208.31646013902
 20
166.625
 10
209.5
 20
166.15174705163145
 10
209.75
 20
167.3292672824204
 10
210.5
 20
167.6593649057703
 10
211.75
 20
166.796317416668
 10
212.42617983574723
 20
167.375
 10
212.75
 20
170.07757409589414
 10
214.41499058839935
 20
169.625
 10
214.25
 20
168.51069965937506
 10
212.55833692491672
 20
167.625
 10
212.5
 20
165.92493481388243
 10
211.2090169091531
 20
164.375
 10
211.83331052354865
 20
162.875
 10
212.8426521636406
 20
162.125
 10
211.81038402568154
 20
161.375
 10
212.0
 20
159.83375126869691
 10
210.5
 20
160.16255345232707
 10
210.0
 20
158.51806699222465
 10
208.75
 20
159.538989692913
 10
206.5
 20
159.43800323521918
 10
203.75
 20
160.95440260409111
 10
203.73889411872148
 20
159.375
 10
202.76041291831598
 20
158.625
 10
206.28563680347847
 20
157.125
 10
206.7396025382909
 20
156.125
 10
206.0
 20
154.76233669569854
 10
207.25
 20
155.11967371945258
 10
208.0
 20
154.5618858826523
 10
210.0
 20
154.59430667340308
 10
210.4347765559901
 20
153.875
 10
209.0
 20
151.9446482477598
 10
207.75
 20
152.76390004831262
 10
206.4935246441455
 20
152.375
 10
207.96883321637299
 20
150.625
 10
207.5
 20
148.9829892932163
 10
204.5
 20
148.04100763050178
 10
203.75
 20
148.4190544665588
 10
200.25
 20
146.16617449606662
 10
199.67653983510425
 20
145.125
 10
202.25
 20
144.55804449664123
 10
202.10810625770233
 20
143.375
 10
204.5
 20
142.7516703837801
 10
211.610094979077
 20
142.875
 10
212.01174693402928
 20
142.375
 10
211.26971122106713
 20
141.875
 10
210.75
 20
139.18561061367268
 10
211.25
 20
140.27318994146896
 10
213.75
 20
141.3876737948375
 10
215.07230546030075
 20
140.375
 10
217.33860159675288
 20
140.625
 10
217.25
 20
138.60919985250734
 10
215.34769474753622
 20
137.375
 10
216.0
 20
136.92553878350702
 10
218.72977535134507
 20
138.125
 10
219.27863443312782
 20
140.375
 10
220.0
 20
140.82451729080594
 10
220.58811445531342
 20
139.375
 10
220.04693761321843
 20
137.375
 10
221.5
 20
138.57713680716148
 10
223.0
 20
138.03990001957703
 10
222.67249826203928
 20
136.125
 10
224.25
 20
136.2923359948413
 10
225.16924971381587
 20
135.625
 10
224.2553013779372
 20
133.875
 10
227.0
 20
132.14881395728486
 10
227.6026421554034
 20
130.125
 10
227.0
 20
129.59203171321576
 10
226.12651056510478
 20
131.125
 10
224.75
 20
131.37222166353564
 10
224.07718314553915
 20
130.875
 10
224.0
 20
129.88497193559056
 10
222.25
 20
129.7496394994542
 10
221.75
 20
128.1478493779442
 10
219.0
 20
127.28347720448795
 10
218.25
 20
126.22690589900058
 10
216.60683620585246
 20
125.875
 10
215.25
 20
124.26781338163995
 10
212.97142936445877
 20
123.625
 10
212.24958604433715
 20
121.375
 10
213.63710687987938
 20
119.875
 10
213.46089926458663
 20
118.375
 10
214.5
 20
117.37885083626368
 10
214.65905598488473
 20
115.875
 10
213.6667035311465
 20
114.875
 10
215.13694904129207
 20
113.375
 10
211.75
 20
112.40983174275519
 10
209.75
 20
112.6316266836414
 10
209.27116097926208
 20
114.125
 10
210.75
 20
118.05185329366296
 10
211.99140581065882
 20
119.375
 10
211.5
 20
120.32850597875705
 10
210.75
 20
120.40950841068052
 10
209.5
 20
119.2324537793288
 10
210.77737093829026
 20
123.375
 10
210.30145383723536
 20
125.625
 10
209.5
 20
124.60338077375496
 10
209.0
 20
125.96526071245823
 10
208.0
 20
125.850500195304
 10
206.75
 20
128.45459104581462
 10
206.0
 20
128.83458565834886
 10
206.22655245958873
 20
126.875
 10
208.5949671096555
 20
123.125
 10
207.75
 20
121.93699876093416
 10
206.5
 20
122.82974857246259
 10
206.47944550410193
 20
121.375
 10
205.80012723964813
 20
120.375
 10
207.07896680580313
 20
117.125
 10
207.3287180242918
 20
114.875
 10
206.75
 20
113.6112726873536
 10
201.91454719821039
 20
121.625
 10
201.75
 20
122.81912432792899
 10
201.25
 20
120.33883807693748
 10
199.40590922758147
 20
123.375
 10
199.25
 20
125.21075640602876
 10
198.5
 20
125.70123126299872
 10
197.35697371462848
 20
122.875
 10
199.9506733715249
 20
120.875
 10
200.3720433050981
 20
118.875
 10
199.45531307326164
 20
117.875
 10
202.5
 20
116.38716352417879
 10
203.59132312199847
 20
114.875
 10
203.44086138174265
 20
113.875
 10
204.569526793045
 20
112.625
 10
204.0
 20
112.25773796423
 10
201.75
 20
113.04343341843341
 10
198.5
 20
116.37501642749913
 10
198.1898906931459
 20
115.375
 10
199.31299120015476
 20
111.125
 10
198.5
 20
110.7356629652601
 10
196.5
 20
111.29328015765705
 10
195.1643255880709
 20
114.375
 10
196.51642360145925
 20
117.375
 10
194.75
 20
122.6623267212548
  0
LWPOLYLINE
  5
32
330
17
100
AcDbEntity
  8
BAND_04
100
AcDbPolyline
 90
47
 70
1
 10
193.0
 20
126.019516807737
 10
194.25
 20
126.17834758118394
 10
196.0
 20
125.06263957525172
 10
196.25470748138673
 20
126.875
 10
198.5
 20
129.74564003503613
 10
201.0
 20
130.67023729011953
 10
201.5
 20
129.49568302806094
 10
203.25
 20
129.44183139675042
 10
209.25
 20
134.07696900063084
 10
209.5
 20
135.36283624913054
 10
211.75
 20
134.17029456552777
 10
212.75
 20
134.45432887214807
 10
211.70513736436166
 20
135.625
 10
212.25
 20
136.99308989176876
 10
209.0
 20
136.90764123490138
 10
207.69793056673686
 20
137.875
 10
208.0527204865911
 20
138.625
 10
207.12803228593967
 20
140.125
 10
205.75
 20
139.61473562644358
 10
205.0
 20
141.24637605280094
 10
203.75
 20
140.59846468464661
 10
202.75
 20
141.9025963112835
 10
198.76013475544983
 20
141.875
 10
198.3350234284585
 20
139.375
 10
195.31125521454925
 20
136.375
 10
195.330223954614
 20
133.875
 10
192.63507327616506
 20
132.875
 10
192.75
 20
132.1801295205769
 10
193.9483091487787
 20
131.625
 10
193.92991083799558
 20
130.875
 10
190.0
 20
129.9253772754957
 10
187.75
 20
132.7236882348454
 10
186.10483347889163
 20
130.125
 10
186.59274304290372
 20
128.875
 10
186.0
 20
127.95187981730292
 10
180.75
 20
127.68490389451688
 10
179.73904973828186
 20
127.125
 10
180.28573975235224
 20
125.875
 10
177.03275196433265
 20
125.625
 10
177.25
 20
123.65851377130696
 10
180.75
 20
123.35537672367413
 10
185.0
 20
121.38051975442237
 10
186.87598180730572
 20
122.125
 10
187.75
 20
123.78632485485315
 10
190.02795708870772
 20
122.625
 10
191.75
 20
122.79657100272505
 10
191.61169446082087
 20
124.875
  0
LWPOLYLINE
  5
33
330
17
100
AcDbEntity
  8
BAND_04
100
AcDbPolyline
 90
6
 70
1
 10
170.59659328688892
 20
132.625
 10
172.25
 20
130.95872560275544
 10
175.44050381486852
 20
132.625
 10
175.65715139165334
 20
133.625
 10
175.0
 20
134.70372101004736
 10
172.0
 20
134.0592200039674
  0
LWPOLYLINE
  5
34
330
17
100
AcDbEntity
  8
BAND_04
100
AcDbPolyline
 90
62
 70
1
 10
89.25
 20
152.5903288860565
 10
90.3019344946826
 20
152.625
 10
91.25
 20
153.861872458519
 10
92.75
 20
153.21723395796278
 10
94.0
 20
155.8324328238843
 10
94.84546097314376
 20
155.625
 10
95.25
 20
154.3699633813307
 10
96.0
 20
155.36662579638602
 10
97.0
 20
155.14985298447704
 10
98.25
 20
152.22525177597478
 10
99.04549562570814
 20
153.125
 10
97.87323560605023
 20
155.125
 10
98.0
 20
156.42857334495943
 10
97.0
 20
156.43025337442947
 10
96.74476568389568
 20
157.125
 10
98.75
 20
158.15312824856744
 10
100.25
 20
157.45424661133245
 10
101.25
 20
157.77943228581432
 10
102.0
 20
157.10125931458674
 10
103.08080467907561
 20
158.125
 10
102.0
 20
160.18106151021345
 10
97.25
 20
159.1070551066735
 10
97.25
 20
160.81027601348703
 10
98.75
 20
162.5177962948985
 10
100.38074544180499
 20
162.875
 10
100.53167441132845
 20
164.875
 10
101.5
 20
166.62529500044138
 10
102.25
 20
166.78635426998414
 10
103.25
 20
165.4505256195008
 10
105.5
 20
165.29729424646916
 10
105.96061646744394
 20
159.375
 10
106.60010830132512
 20
157.625
 10
105.57739073723333
 20
152.875
 10
104.57288195818599
 20
151.375
 10
104.92890930221056
 20
149.625
 10
104.45269288366282
 20
148.375
 10
103.5
 20
148.43140613410617
 10
103.04495729424886
 20
149.625
 10
103.52396697754331
 20
151.875
 10
102.5
 20
151.43672919912257
 10
101.5
 20
152.03157239697217
 10
102.25
 20
147.7986915286598
 10
100.25
 20
149.08744606238176
 10
99.98511526050488
 20
147.125
 10
99.50089691000036
 20
146.875
 10
99.0
 20
148.58056793945138
 10
97.75
 20
148.464769144559
 10
96.75
 20
149.93134637056295
 10
96.21380236438888
 20
148.625
 10
97.5
 20
144.989486992443
 10
96.42781977352826
 20
144.875
 10
95.5
 20
146.05986706216845
 10
93.72975339399191
 20
144.875
 10
94.53891231064766
 20
144.125
 10
94.25
 20
143.6944460722553
 10
92.25
 20
144.82524059371127
 10
91.3330375448488
 20
144.375
 10
91.60257130916784
 20
143.25
 10
88.125
 20
147.0
 10
87.125
 20
150.43123043467307
 10
87.75
 20
149.24128831774667
 10
89.15699270299642
 20
149.375
  0
LWPOLYLINE
  5
35
330
17
100
AcDbEntity
  8
BAND_04
100
AcDbPolyline
 90
34
 70
1
 10
122.76878575098473
 20
173.875
 10
124.4004227467156
 20
179.625
 10
123.92492642714619
 20
179.875
 10
123.17939293964231
 20
178.875
 10
123.47315091108973
 20
177.375
 10
123.0
 20
176.71562943122737
 10
122.42557781115407
 20
179.125
 10
122.8174829269196
 20
182.875
 10
122.2189973886751
 20
183.875
 10
122.52479100317397
 20
186.125
 10
122.09415316426009
 20
187.875
 10
123.25
 20
190.27775358400112
 10
124.62175555933844
 20
189.125
 10
124.13972635537473
 20
186.875
 10
124.64994224447751
 20
185.625
 10
126.21294243554928
 20
185.125
 10
126.78939785212896
 20
184.125
 10
126.49782928824024
 20
182.625
 10
127.50519457650994
 20
179.375
 10
126.81483981599548
 20
175.125
 10
126.0
 20
174.3491453315154
 10
125.42916912894458
 20
172.375
 10
126.45801513157227
 20
170.375
 10
126.99995030241267
 20
167.375
 10
126.75
 20
166.28669061825275
 10
125.5
 20
167.30749257360355
 10
124.86209924865875
 20
166.375
 10
126.1218581965656
 20
163.625
 10
125.42642728773883
 20
161.125
 10
126.0
 20
158.39377465714824
 10
124.122501062455
 20
160.875
 10
123.56902891902288
 20
162.875
 10
123.53551058234554
 20
166.875
 10
124.23647154406609
 20
169.875
  0
LWPOLYLINE
  5
36
330
17
100
AcDbEntity
  8
BAND_04
100
AcDbPolyline
 90
44
 70
1
 10
97.48343386793287
 20
176.875
 10
97.32262445361347
 20
180.875
 10
98.71021250753239
 20
184.375
 10
97.29449913290563
 20
190.375
 10
99.0
 20
193.94189360250812
 10
101.25
 20
194.7260401955028
 10
102.4250875718089
 20
194.125
 10
102.45392723193841
 20
192.625
 10
103.95259882599086
 20
190.625
 10
101.75
 20
190.58042779856197
 10
101.0
 20
188.30495725312085
 10
101.75
 20
188.0857536680527
 10
102.5
 20
189.12144473925107
 10
103.75
 20
188.33802579303847
 10
105.25
 20
188.7457565906338
 10
105.61847585015401
 20
188.375
 10
105.25
 20
185.49066092466654
 10
103.78210738428339
 20
184.875
 10
105.70676576114813
 20
182.875
 10
105.25
 20
182.2320963006972
 10
104.38976027427603
 20
183.125
 10
105.53027030633449
 20
179.625
 10
103.65115459142142
 20
180.625
 10
103.63013615539414
 20
184.625
 10
103.0
 20
185.2856219003839
 10
100.75
 20
185.07578938682704
 10
101.03634704296756
 20
183.125
 10
102.08237898153503
 20
181.625
 10
103.4294155654675
 20
180.875
 10
103.25
 20
179.28622661183607
 10
104.5
 20
177.7080127662171
 10
105.87921829206846
 20
177.125
 10
106.21987008971989
 20
175.375
 10
105.66045850435097
 20
173.125
 10
104.27374169278995
 20
173.375
 10
105.75432585109706
 20
171.625
 10
105.5
 20
170.52123338257013
 10
103.42484910831082
 20
170.125
 10
103.0
 20
168.293393897694
 10
102.5
 20
168.3578654641312
 10
101.75
 20
170.28823691859725
 10
100.75
 20
169.0180428492303
 10
97.75
 20
168.71729197411736
 10
96.33642348442099
 20
173.375
  0
LWPOLYLINE
  5
37
330
17
100
AcDbEntity
  8
BAND_04
100
AcDbPolyline
 90
100
 70
1
 10
157.53175222967903
 20
169.375
 10
156.5
 20
166.83731776169347
 10
155.75
 20
169.40250811547008
 10
154.75
 20
170.05959847224963
 10
154.0
 20
172.33974415722378
 10
153.0
 20
170.9980452564891
 10
152.20999275887036
 20
170.875
 10
151.8367649634398
 20
169.125
 10
151.25
 20
169.63601848365153
 10
149.94959424598517
 20
174.375
 10
150.4016501377544
 20
176.875
 10
147.81745164852776
 20
182.625
 10
147.84856924466112
 20
183.625
 10
148.75
 20
183.88561446390486
 10
151.0
 20
181.98804945530503
 10
151.54927747561388
 20
182.125
 10
150.61569917759462
 20
185.375
 10
150.55278899787135
 20
192.625
 10
151.34087921720675
 20
194.375
 10
151.29136203235865
 20
196.125
 10
152.25
 20
197.17622349611935
 10
153.75
 20
196.55804230549603
 10
154.92267620039522
 20
194.375
 10
156.15699674906654
 20
190.875
 10
155.82015042631423
 20
189.375
 10
157.13319074631215
 20
187.625
 10
158.83293398648735
 20
182.125
 10
157.45557849166042
 20
192.125
 10
158.36648394438345
 20
194.125
 10
157.14108254919108
 20
197.625
 10
157.75
 20
199.27525797092392
 10
159.5
 20
200.71879859433182
 10
160.8864445444732
 20
199.125
 10
161.20230338756775
 20
196.875
 10
160.76788515689282
 20
195.625
 10
162.5
 20
195.5481554653765
 10
163.23120536268328
 20
194.125
 10
163.40289368421048
 20
189.375
 10
162.85874902716523
 20
188.125
 10
164.78476491699112
 20
187.625
 10
166.26759043960843
 20
182.875
 10
166.0
 20
182.0990761545467
 10
164.5
 20
183.01380793000138
 10
163.5
 20
182.79209280746534
 10
161.5
 20
184.50342944654662
 10
162.34211836428113
 20
183.375
 10
162.2800811381439
 20
181.375
 10
166.0
 20
180.8080963256757
 10
168.25
 20
178.6889559875434
 10
170.25
 20
179.0572905125421
 10
171.25
 20
178.33221786599938
 10
172.75
 20
178.2348176863287
 10
173.5
 20
179.16732844254943
 10
175.75
 20
178.3148825579995
 10
176.5
 20
178.91682698589096
 10
177.5
 20
177.73140932541946
 10
178.0
 20
178.8110403223007
 10
179.25
 20
179.0185581075704
 10
180.0
 20
177.72351138230988
 10
181.0
 20
178.33068058964506
 10
182.2603146521766
 20
177.875
 10
182.5
 20
176.4466017874779
 10
183.5
 20
176.1181890822777
 10
184.5
 20
176.4787916914765
 10
185.75
 20
175.8884436666276
 10
188.0
 20
177.98102162613944
 10
188.6287997126789
 20
177.625
 10
188.87896144114725
 20
175.625
 10
188.25
 20
174.83281833971745
 10
186.0
 20
174.18050131008664
 10
185.25
 20
171.41379108646947
 10
183.0
 20
172.6357140009568
 10
182.5
 20
171.60425587706047
 10
181.5
 20
171.74335366067564
 10
180.0
 20
169.98554415905303
 10
178.52877092263557
 20
172.125
 10
177.5
 20
172.58415866839601
 10
176.25
 20
172.19213994953094
 10
174.0
 20
172.79537479305475
 10
173.25
 20
172.0786513605879
 10
171.25
 20
171.8591703167355
 10
170.0
 20
173.34891006572343
 10
168.75
 20
173.6452268268417
 10
166.75
 20
171.77773232584718
 10
167.0
 20
169.00593807436732
 10
165.0
 20
170.89905546726817
 10
164.5
 20
167.276716113073
 10
163.36950094205724
 20
168.625
 10
162.75
 20
171.60628568559378
 10
162.25
 20
170.40641820242098
 10
161.75
 20
170.8401440239334
 10
160.5
 20
176.72970394893537
 10
159.5
 20
177.86484393940117
 10
159.80806892475894
 20
167.875
 10
159.25
 20
166.5267282808988
 10
158.75
 20
166.70222671719242
 10
159.10475991570823
 20
168.875
 10
157.0
 20
176.23255191944617
 10
157.4961562631775
 20
173.375
 10
156.96445571455894
 20
171.125
  0
LWPOLYLINE
  5
38
330
17
100
AcDbEntity
  8
BAND_04
100
AcDbPolyline
 90
90
 70
1
 10
168.66829205010598
 20
182.625
 10
167.80381145277107
 20
183.125
 10
165.70249330975815
 20
192.375
 10
164.29862991781312
 20
194.625
 10
163.28898493641114
 20
197.875
 10
164.55717958813207
 20
200.625
 10
163.343952713412
 20
203.125
 10
165.0
 20
205.38487114445462
 10
166.40280995146395
 20
203.875
 10
167.75
 20
200.67928619359168
 10
167.7979251815749
 20
205.625
 10
168.5
 20
206.21763533263544
 10
168.72986220110917
 20
207.625
 10
169.95256698499642
 20
207.625
 10
170.08351519543072
 20
208.875
 10
171.4602599560133
 20
207.875
 10
172.75
 20
204.77715806442058
 10
173.94648795533857
 20
204.625
 10
174.5
 20
205.73848953629005
 10
175.14402729537397
 20
205.625
 10
175.25
 20
202.61430356513262
 10
172.75
 20
198.14105205653345
 10
176.5
 20
201.0687830656487
 10
176.6689060836425
 20
202.875
 10
179.5
 20
204.6867893410015
 10
181.25
 20
204.76725707202402
 10
182.28717285034085
 20
203.375
 10
181.25
 20
201.25087845303867
 10
183.5
 20
202.41246310603123
 10
184.25
 20
201.8351160009036
 10
184.5
 20
199.0783685107856
 10
183.0
 20
198.55935805653525
 10
182.5
 20
197.451529611233
 10
181.25
 20
197.71666914152047
 10
179.75
 20
196.63114697899624
 10
178.25
 20
197.46154871573788
 10
178.0
 20
195.83961947578587
 10
176.5
 20
195.67960685436066
 10
175.0292291354863
 20
193.625
 10
173.2123071763917
 20
192.625
 10
175.75
 20
192.85254291795434
 10
178.0
 20
194.36637003058104
 10
183.5
 20
195.17959092355596
 10
185.75
 20
197.18077669778086
 10
187.0
 20
196.8673935788842
 10
186.76733430269243
 20
199.625
 10
188.75
 20
200.11892421602786
 10
189.5
 20
201.2355657812247
 10
192.0
 20
199.63494809481665
 10
193.75
 20
200.09189387733295
 10
194.60692347199085
 20
199.625
 10
194.75
 20
197.85712925218155
 10
193.0
 20
198.77036061031794
 10
189.01229209663708
 20
196.875
 10
190.5
 20
195.9428646429405
 10
195.75
 20
195.44655756207675
 10
195.79583127800387
 20
194.125
 10
194.5
 20
194.73204857199448
 10
190.75
 20
194.96499462787546
 10
187.25
 20
191.50637790888757
 10
185.0
 20
191.62605284836462
 10
184.5
 20
190.54188799595613
 10
182.5
 20
190.50172248474752
 10
181.61537372593432
 20
189.125
 10
180.0
 20
189.16043148570662
 10
180.8326504039578
 20
187.625
 10
182.081108897571
 20
186.875
 10
182.86207940428682
 20
185.125
 10
182.7712332692072
 20
184.375
 10
181.6667684272473
 20
183.875
 10
181.5
 20
182.03988642881274
 10
180.24019836317154
 20
182.875
 10
180.0857602080293
 20
185.125
 10
177.75
 20
188.94807866176075
 10
177.82920395600715
 20
186.625
 10
176.95922890057975
 20
185.625
 10
178.0
 20
182.98000816750815
 10
174.75
 20
187.5082095767691
 10
174.62309404888097
 20
185.875
 10
176.297465167208
 20
182.125
 10
175.75
 20
181.85177756269104
 10
173.8848702683748
 20
186.375
 10
172.25
 20
188.18389885595423
 10
174.21171870061661
 20
181.625
 10
171.0
 20
182.8466128639124
 10
170.75
 20
181.22064604085233
 10
168.08910706576845
 20
187.375
 10
168.40388004475284
 20
188.625
 10
168.0
 20
189.13378367413176
 10
167.64218392922044
 20
186.875
  0
LWPOLYLINE
  5
39
330
17
100
AcDbEntity
  8
BAND_04
100
AcDbPolyline
 90
6
 70
1
 10
110.99654776159755
 20
208.125
 10
110.0
 20
197.17010073133326
 10
109.055342401831
 20
198.375
 10
107.83385575984052
 20
207.125
 10
108.14723666880442
 20
208.625
 10
109.75
 20
210.43268375994046
  0
LWPOLYLINE
  5
3A
330
17
100
AcDbEntity
  8
BAND_04
100
AcDbPolyline
 90
7
 70
1
 10
139.75
 20
207.92222540597754
 10
140.3070831510767
 20
204.125
 10
139.25
 20
203.81388098100194
 10
138.50761388631736
 20
205.625
 10
137.5
 20
205.91789305769026
 10
136.5
 20
205.13217610632887
 10
135.93865138632992
 20
206.125
  0
LWPOLYLINE
  5
3B
330
17
100
AcDbEntity
  8
BAND_04
100
AcDbPolyline
 90
10
 70
1
 10
95.04251474903256
 20
213.875
 10
96.25
 20
215.7738561141648
 10
97.07295902154368
 20
212.375
 10
96.9842871227463
 20
202.375
 10
95.75
 20
198.24363146343484
 10
95.03015969389456
 20
199.625
 10
94.0
 20
199.9007860848909
 10
93.68282545626636
 20
201.125
 10
94.60196463286364
 20
206.375
 10
93.99325149279402
 20
208.875
  0
LWPOLYLINE
  5
3C
330
17
100
AcDbEntity
  8
BAND_04
100
AcDbPolyline
 90
26
 70
1
 10
97.63919655087311
 20
204.875
 10
99.08986142346869
 20
205.875
 10
97.95603094589181
 20
206.375
 10
98.64002656797983
 20
208.625
 10
97.97572374147113
 20
210.125
 10
99.53744188072777
 20
211.125
 10
97.9497925097422
 20
212.125
 10
98.41277484767221
 20
215.875
 10
100.25
 20
221.2652691933112
 10
100.75
 20
221.56832967528962
 10
101.25
 20
220.90382201179554
 10
102.25
 20
221.91608628106474
 10
102.8950352383802
 20
220.875
 10
102.5917549405251
 20
218.375
 10
103.81760534406838
 20
214.125
 10
102.5
 20
214.3295983760317
 10
102.00340728664585
 20
212.875
 10
102.49234966064775
 20
211.125
 10
104.36664021769178
 20
210.125
 10
104.77939021638106
 20
204.125
 10
105.42134455055441
 20
202.625
 10
105.25
 20
197.27254119306568
 10
103.5
 20
198.74034942201857
 10
101.5
 20
197.59090505556185
 10
99.0
 20
198.50466144993825
 10
97.47502732765408
 20
202.375
  0
LWPOLYLINE
  5
3D
330
17
100
AcDbEntity
  8
BAND_04
100
AcDbPolyline
 90
7
 70
1
 10
109.0
 20
221.83020480019283
 10
110.40007839501288
 20
215.875
 10
109.5
 20
214.7004726898644
 10
107.99878745410656
 20
216.125
 10
108.74535969750502
 20
217.375
 10
108.61343425259791
 20
218.625
 10
107.96330606195644
 20
219.875
  0
LWPOLYLINE
  5
3E
330
17
100
AcDbEntity
  8
BAND_04
100
AcDbPolyline
 90
360
 70
1
 10
70.75
 20
169.6285617256225
 10
66.5
 20
172.82096445098125
 10
65.94930188866391
 20
174.625
 10
66.45316911483161
 20
175.625
 10
66.20575420140399
 20
177.875
 10
67.46253564727317
 20
181.125
 10
69.75
 20
182.06893010549555
 10
70.78772097175062
 20
180.875
 10
72.75489088874147
 20
180.125
 10
72.14467832873885
 20
181.375
 10
72.93680387107491
 20
183.875
 10
75.4155826468105
 20
186.125
 10
74.91982419787196
 20
186.875
 10
74.75
 20
190.8686010308049
 10
74.09226073496085
 20
190.125
 10
74.20102644398051
 20
188.125
 10
73.0
 20
185.951261903726
 10
71.0
 20
184.53985617218865
 10
66.25
 20
182.91727435959473
 10
65.60255971004435
 20
183.375
 10
65.8280360028071
 20
185.375
 10
65.18470455332462
 20
185.875
 10
65.53023317448987
 20
190.625
 10
63.5
 20
194.52030965698498
 10
61.5
 20
194.61543362346114
 10
59.0
 20
193.12051994583308
 10
57.25
 20
194.09903075082457
 10
55.0
 20
194.26825435395722
 10
55.30592506631301
 20
192.375
 10
53.8200782196761
 20
191.125
 10
54.16007069292857
 20
189.375
 10
51.44678058781661
 20
188.875
 10
50.0
 20
187.8366486085261
 10
50.46684718093434
 20
185.875
 10
53.957057731880695
 20
183.375
 10
55.5
 20
181.50497023901792
 10
57.5
 20
183.75876505309756
 10
60.0
 20
184.4575758495672
 10
62.5
 20
183.82099509761684
 10
63.870955129157984
 20
182.125
 10
64.30270805904235
 20
180.625
 10
62.75
 20
173.6193078084734
 10
62.0
 20
173.2803748580406
 10
59.74806776318507
 20
174.625
 10
60.75
 20
171.38279062139958
 10
64.75
 20
168.17026587059584
 10
65.875
 20
168.8648842761899
 10
65.375
 20
167.75
 10
64.625
 20
167.75
 10
59.875
 20
171.75
 10
59.125
 20
176.25
 10
57.46872711756849
 20
178.125
 10
59.5
 20
178.43028653002227
 10
59.3799589075261
 20
179.875
 10
56.5
 20
179.34427925265348
 10
55.375
 20
180.25
 10
53.875
 20
183.25
 10
49.875
 20
185.75
 10
49.375
 20
188.0
 10
52.625
 20
190.25
 10
52.375
 20
192.25
 10
48.875
 20
193.5
 10
48.875
 20
195.5
 10
47.125
 20
196.0
 10
45.73756421055738
 20
199.0
 10
46.0
 20
199.73753609423122
 10
46.798613710304316
 20
199.625
 10
46.75
 20
200.22160036731663
 10
45.07623118782416
 20
201.625
 10
45.25
 20
203.7085330250768
 10
48.826465734208
 20
205.375
 10
46.75
 20
205.97120128940804
 10
46.875
 20
207.93180685576613
 10
47.75
 20
208.7761019590383
 10
50.01938550798286
 20
209.375
 10
48.17189023069426
 20
212.125
 10
48.28435413973383
 20
213.125
 10
49.75
 20
213.33800938057803
 10
51.5
 20
212.55512335080888
 10
52.530989538538506
 20
213.375
 10
52.5
 20
214.15576245752413
 10
51.0
 20
214.9317505479683
 10
50.53299734972371
 20
215.875
 10
52.3824962450086
 20
217.125
 10
52.02042163492558
 20
217.625
 10
52.51489254164288
 20
219.875
 10
49.395962846851674
 20
217.125
 10
46.75
 20
216.40581704051147
 10
46.156459111844946
 20
216.625
 10
49.25
 20
218.1223166116228
 10
50.006386236667055
 20
219.125
 10
50.0
 20
220.56892580764034
 10
47.0
 20
220.38897564173004
 10
46.0
 20
219.19719624066914
 10
45.25
 20
220.7971754642759
 10
44.75
 20
219.69191937908982
 10
42.5
 20
220.18715883197663
 10
40.75
 20
219.61638678556065
 10
40.0
 20
218.43406217154507
 10
38.75
 20
219.11448720252193
 10
36.75
 20
217.58313180862876
 10
36.62697566713224
 20
218.125
 10
37.21425991775404
 20
219.875
 10
39.875
 20
221.5
 10
41.17902120390284
 20
224.5
 10
42.375
 20
225.0
 10
43.5
 20
226.89830815460243
 10
47.5
 20
225.7701065159753
 10
48.35721291568066
 20
225.875
 10
48.0
 20
226.65691017552626
 10
49.0
 20
227.29714123546322
 10
50.0
 20
226.80575460477272
 10
51.18267304696195
 20
227.125
 10
52.25
 20
225.89831766158522
 10
52.75
 20
226.66341132299084
 10
54.625
 20
226.0
 10
59.625
 20
226.75
 10
59.375
 20
228.0
 10
58.375
 20
229.0
 10
55.534871697307096
 20
229.5
 10
55.375
 20
230.25
 10
60.625
 20
232.75
 10
60.125
 20
233.75
 10
57.875
 20
234.7566277093104
 10
57.625
 20
236.75
 10
58.27738122652151
 20
238.0
 10
59.875
 20
238.75
 10
61.67508228551829
 20
240.875
 10
61.893779327004914
 20
242.375
 10
60.5
 20
243.9454633470456
 10
57.56646111545741
 20
242.5
 10
56.625
 20
242.90710938025097
 10
56.875
 20
246.75
 10
55.72311947757157
 20
248.125
 10
56.87474118092895
 20
249.625
 10
56.25914435164252
 20
250.625
 10
57.474600177071174
 20
253.125
 10
58.25
 20
253.54549954373834
 10
58.97665549846168
 20
252.625
 10
58.16689791002835
 20
250.375
 10
60.0
 20
247.81929590745443
 10
63.0
 20
248.25194834069245
 10
63.575455346826
 20
249.375
 10
64.65088295223005
 20
249.875
 10
64.95971698423486
 20
252.125
 10
60.25
 20
252.8890547937395
 10
58.91880114015768
 20
255.125
 10
60.25
 20
255.8024063188832
 10
61.0
 20
257.70655529326314
 10
62.0
 20
256.7178425055846
 10
64.25
 20
257.6415350949951
 10
64.466506953677
 20
259.625
 10
66.75
 20
261.8507052956034
 10
66.55342082155403
 20
264.125
 10
65.29515322706173
 20
265.125
 10
65.93855837186646
 20
266.125
 10
65.5
 20
270.16531745085183
 10
66.25
 20
269.91107014972727
 10
68.31117983467685
 20
266.875
 10
69.5
 20
266.23567236319695
 10
71.85715031650656
 20
266.875
 10
71.0
 20
269.5806056109344
 10
72.5
 20
268.6466911764706
 10
73.45680135091143
 20
269.375
 10
73.04065741914283
 20
271.125
 10
71.0
 20
270.9187606820217
 10
70.0
 20
272.40053873320034
 10
68.75
 20
271.9343467321371
 10
68.11408003741951
 20
273.375
 10
72.91960942946758
 20
276.625
 10
73.25
 20
281.49068796484414
 10
76.208667482464
 20
283.375
 10
77.15635511336336
 20
285.125
 10
76.625
 20
287.25
 10
74.88778938879742
 20
289.625
 10
74.125
 20
293.75
 10
73.125
 20
295.25
 10
71.625
 20
296.25
 10
68.63196216056939
 20
296.375
 10
68.60639819938189
 20
298.625
 10
69.3076703694978
 20
300.125
 10
68.91742927789252
 20
301.375
 10
63.22869538981415
 20
303.875
 10
65.33720419333102
 20
306.625
 10
65.45325967735104
 20
308.5
 10
66.0
 20
309.0612014836985
 10
67.0
 20
309.2116639007975
 10
68.82120708660793
 20
307.125
 10
67.9601128216876
 20
309.875
 10
68.75
 20
310.5745124258815
 10
71.875
 20
310.25
 10
75.375
 20
308.75
 10
73.75
 20
307.64947006248514
 10
72.34488590190274
 20
309.625
 10
70.221237326701
 20
309.625
 10
71.25
 20
304.7268176524416
 10
72.25
 20
304.2245605130645
 10
73.10892421320489
 20
306.375
 10
73.75
 20
306.60385972945755
 10
75.51791731195851
 20
301.375
 10
74.5351992922906
 20
299.375
 10
74.75
 20
298.1983612527313
 10
73.07141260246752
 20
297.875
 10
76.0
 20
295.5807840300437
 10
74.9966738885959
 20
294.625
 10
74.75
 20
293.3365757362552
 10
77.0
 20
293.1304509409728
 10
79.27399828320341
 20
291.625
 10
80.0
 20
290.2452937575202
 10
81.25
 20
289.85844523332776
 10
82.5
 20
288.2039365439987
 10
88.5
 20
285.22745932613793
 10
90.25
 20
285.0033570037524
 10
90.68317122197337
 20
284.375
 10
89.75
 20
284.4106568962079
 10
88.81078138482326
 20
283.625
 10
89.25
 20
281.6929079660541
 10
84.98204446686327
 20
280.875
 10
85.5678254765775
 20
279.375
 10
87.25
 20
279.1149151172191
 10
88.19230191209454
 20
277.625
 10
85.25
 20
275.3133656826526
 10
83.25
 20
276.4695916616714
 10
83.11148979205895
 20
273.625
 10
81.92161436953081
 20
272.875
 10
82.26231599427335
 20
271.375
 10
81.25
 20
271.1250252414768
 10
81.0
 20
269.8601536544851
 10
79.25
 20
271.10458996888156
 10
78.41454535383254
 20
270.375
 10
78.5
 20
269.42408941985565
 10
80.25
 20
267.1126634427568
 10
82.0
 20
266.46507208296947
 10
83.0
 20
265.3406496490504
 10
87.18222743776784
 20
264.375
 10
85.69235504617367
 20
262.625
 10
86.64651625368134
 20
261.375
 10
87.70652647525247
 20
256.125
 10
87.5
 20
255.37041191274045
 10
84.30177465160028
 20
253.125
 10
85.25
 20
250.96622228525504
 10
81.87768530150754
 20
249.125
 10
81.84295403790439
 20
247.375
 10
82.80890773183201
 20
246.125
 10
82.54842986084998
 20
245.125
 10
83.54956573143555
 20
243.875
 10
83.69146357244533
 20
241.875
 10
81.0
 20
241.2710218720826
 10
80.58918498217233
 20
240.625
 10
82.29240173455706
 20
239.875
 10
83.15741566683462
 20
238.625
 10
78.32775711513585
 20
232.875
 10
80.5
 20
232.56690226598897
 10
81.0
 20
231.49120436987826
 10
85.3005997943562
 20
233.375
 10
88.0
 20
235.41260413440324
 10
92.00769959430909
 20
240.375
 10
95.58395279922395
 20
250.125
 10
97.4198556498831
 20
253.625
 10
98.30623854315543
 20
253.375
 10
98.55368249569956
 20
251.375
 10
99.5
 20
250.09137204232772
 10
99.90430808734946
 20
250.625
 10
99.1778316795854
 20
254.625
 10
101.25
 20
258.0572593615608
 10
107.75
 20
260.7087319519453
 10
109.02365299088916
 20
259.875
 10
108.0
 20
258.2541335877862
 10
106.25
 20
257.6464946378637
 10
104.25
 20
255.53582957277135
 10
102.84023816375236
 20
255.375
 10
100.57253513361304
 20
252.875
 10
100.98433296829812
 20
247.875
 10
100.58809516020142
 20
245.875
 10
99.16072706439137
 20
244.625
 10
100.10089542648772
 20
243.625
 10
100.31900667378726
 20
242.375
 10
99.49291650043178
 20
237.375
 10
97.06270980177564
 20
235.125
 10
96.75
 20
232.25574984872082
 10
95.5
 20
232.64881444262446
 10
94.55756688345282
 20
231.875
 10
94.95105557920505
 20
227.375
 10
95.87404094259196
 20
225.125
 10
94.5
 20
224.2087886756369
 10
94.61465835056151
 20
223.375
 10
96.75
 20
221.51331557584984
 10
94.75
 20
219.10314302793935
 10
93.5
 20
218.67157030745545
 10
92.25
 20
217.25643700311394
 10
91.25
 20
218.1173494653911
 10
90.25
 20
217.2954489707626
 10
89.25
 20
217.80587990062043
 10
89.29458814659307
 20
220.375
 10
87.92392533338267
 20
223.375
 10
88.75
 20
225.0754344936778
 10
89.9578802583955
 20
225.625
 10
90.59819706982648
 20
228.125
 10
90.02997067760658
 20
230.625
 10
89.0
 20
230.67918722011322
 10
86.25485143898969
 20
227.875
 10
85.75
 20
226.53547201471764
 10
83.0
 20
225.39927185965345
 10
81.90097399678513
 20
223.625
 10
83.25
 20
221.39521921862047
 10
84.61916992824524
 20
222.625
 10
86.25
 20
222.43802922059925
 10
87.56095478812216
 20
216.875
 10
89.36355421494396
 20
215.125
 10
88.5
 20
213.31433585453038
 10
85.5
 20
211.71027967938022
 10
83.75
 20
212.85097018432992
 10
82.25
 20
212.158110528204
 10
79.5
 20
213.6539582248568
 10
73.75057687426445
 20
211.125
 10
78.25
 20
211.9894718332261
 10
80.95701671420068
 20
210.625
 10
81.0
 20
208.49393425138712
 10
82.0
 20
209.80643583524198
 10
83.5
 20
209.69923289955346
 10
85.26037308779183
 20
207.375
 10
86.25
 20
206.92788386430578
 10
86.59407284507603
 20
199.875
 10
85.2111114218292
 20
190.125
 10
85.75
 20
188.6991979257536
 10
86.61638037393894
 20
189.625
 10
87.31375811269088
 20
192.625
 10
87.06471569828335
 20
198.125
 10
88.45474669846067
 20
206.625
 10
89.54014843761269
 20
207.875
 10
89.58137626219902
 20
209.625
 10
90.5
 20
211.80555832432225
 10
92.25
 20
211.86458735447167
 10
92.85268405471044
 20
210.375
 10
92.42591814904095
 20
208.625
 10
92.76053118426324
 20
202.625
 10
91.71648673527343
 20
201.375
 10
92.24571444860747
 20
199.875
 10
89.68361696081469
 20
196.125
 10
89.68202523971175
 20
193.625
 10
91.00190242422676
 20
192.625
 10
91.44731556243461
 20
182.875
 10
90.9016575800946
 20
176.375
 10
92.29058708870603
 20
172.625
 10
91.39876411077026
 20
168.875
 10
87.75
 20
166.37562155510983
 10
86.75
 20
166.56306141245136
 10
84.5
 20
165.2481185525487
 10
83.0
 20
165.7351862014396
 10
81.75
 20
164.96697325686065
 10
77.25
 20
164.5415704685427
 10
76.5
 20
165.20820078403096
 10
75.25
 20
164.412895183444
 10
73.45484165119484
 20
164.875
 10
71.90363207957643
 20
166.625
 10
74.3362523237149
 20
162.0
 10
72.375
 20
165.25
 10
70.375
 20
167.5
 10
66.12206398454157
 20
169.0
 10
71.0
 20
167.45970809530445
  0
LWPOLYLINE
  5
3F
330
17
100
AcDbEntity
  8
BAND_04
100
AcDbPolyline
 90
404
 70
1
 10
113.7179571089503
 20
207.625
 10
115.05169811113609
 20
211.625
 10
114.0
 20
213.20537114578414
 10
111.16144512383104
 20
214.375
 10
110.58306769754743
 20
215.625
 10
110.91696850567602
 20
216.625
 10
113.5
 20
219.07790169279866
 10
116.0
 20
218.5612337046617
 10
117.25
 20
217.69147997026374
 10
121.13056030279328
 20
219.125
 10
121.22437387525785
 20
220.125
 10
119.42243662312941
 20
224.625
 10
120.75
 20
226.9955611274957
 10
122.75
 20
226.8903181863687
 10
124.0
 20
228.36842063022124
 10
125.0
 20
227.28519109794166
 10
125.60918295284937
 20
229.875
 10
126.25
 20
230.47746930889866
 10
128.25
 20
230.83139013568237
 10
130.8329003132485
 20
230.125
 10
130.84433208186994
 20
230.875
 10
129.41973115008395
 20
231.875
 10
129.25
 20
233.57417708265166
 10
128.75
 20
233.58647379881108
 10
126.3841121729124
 20
235.625
 10
131.5
 20
234.88168065986684
 10
133.75
 20
236.27653291644953
 10
132.6687585811494
 20
238.625
 10
133.20139813373834
 20
240.625
 10
131.75
 20
241.28036837726825
 10
131.41640811934008
 20
242.125
 10
132.63183732773678
 20
243.125
 10
133.50080936481967
 20
245.875
 10
132.23235673894652
 20
247.375
 10
132.09486745544407
 20
248.875
 10
133.81763291146373
 20
251.875
 10
133.8955711085269
 20
253.125
 10
136.25
 20
254.0488735365127
 10
137.75
 20
253.99260588369685
 10
138.69822418111193
 20
256.125
 10
141.25
 20
258.61817592624885
 10
143.09057920700417
 20
261.625
 10
145.90740603660453
 20
261.625
 10
146.66194979680142
 20
263.875
 10
145.28659563492369
 20
266.375
 10
147.45897176762077
 20
267.375
 10
146.5
 20
269.7983833508361
 10
149.25
 20
268.21902950786966
 10
149.9965918940926
 20
266.625
 10
151.0
 20
266.2133126860655
 10
152.12580969118758
 20
267.375
 10
156.75
 20
269.8669552433845
 10
159.0
 20
270.59149164866085
 10
160.25291565955024
 20
270.125
 10
161.0
 20
272.62021300560673
 10
162.5
 20
273.5203855393081
 10
163.52049539497705
 20
275.125
 10
162.00536762828693
 20
277.625
 10
160.75
 20
278.3925642398287
 10
160.25488764522225
 20
277.875
 10
160.31970387840667
 20
275.625
 10
158.0
 20
273.482678589626
 10
157.0
 20
273.3920009161576
 10
154.0
 20
274.8382343743485
 10
153.0
 20
273.2762177478048
 10
150.75
 20
274.19167531335324
 10
150.33001502126677
 20
276.875
 10
147.87698094582754
 20
280.125
 10
146.16221057600808
 20
284.125
 10
146.25
 20
286.4359036559558
 10
150.20338889107853
 20
281.875
 10
150.8861600494763
 20
278.125
 10
152.82658548201317
 20
276.375
 10
148.05791706435718
 20
287.875
 10
147.41108169988578
 20
290.125
 10
148.2675063391165
 20
291.125
 10
147.62339899966247
 20
292.375
 10
150.8849967710398
 20
289.875
 10
154.35541889878908
 20
285.625
 10
156.75
 20
281.4276338753643
 10
159.75
 20
278.71870063699737
 10
160.16724309043343
 20
280.125
 10
158.25
 20
282.9846087867836
 10
156.66477618498018
 20
287.375
 10
157.0
 20
287.95799294145786
 10
158.0
 20
287.71845470940866
 10
160.12954121792328
 20
284.875
 10
160.5
 20
283.3549546665744
 10
162.25
 20
282.4151546644399
 10
163.75
 20
280.27263900103014
 10
167.28286700749956
 20
278.625
 10
168.45115262378602
 20
276.625
 10
168.75
 20
273.7741544365722
 10
170.0
 20
276.1982909865054
 10
171.7001136264312
 20
277.375
 10
170.27217897297652
 20
278.625
 10
168.34013143264946
 20
281.875
 10
168.5
 20
282.5181992654234
 10
172.25
 20
281.3191172570106
 10
172.62844850303046
 20
282.125
 10
173.75
 20
282.27680174691534
 10
176.0
 20
279.7189143616297
 10
179.25
 20
279.57612434259204
 10
180.50546479483626
 20
281.125
 10
180.75
 20
283.439486213721
 10
182.5
 20
281.8529454498763
 10
184.25
 20
284.3510990220616
 10
186.25
 20
282.35935597487094
 10
187.25
 20
282.1062398099984
 10
187.68548714221734
 20
283.875
 10
189.75
 20
283.86774083580656
 10
191.5104943195372
 20
285.875
 10
191.5
 20
289.77284033062847
 10
193.0
 20
289.4127232469326
 10
194.0
 20
288.240554249106
 10
194.75
 20
289.28558353001824
 10
196.75
 20
288.8390261021849
 10
198.75
 20
289.56965461489267
 10
199.25
 20
290.31483131806647
 10
200.25
 20
290.20470423925985
 10
199.9901046112713
 20
288.875
 10
201.3973418377767
 20
286.875
 10
200.75
 20
286.3180379242577
 10
199.25
 20
287.49862898424624
 10
198.4484904262462
 20
286.875
 10
199.14847298206203
 20
284.875
 10
198.0
 20
283.66996086190966
 10
196.25
 20
283.01766938766457
 10
194.72614388662856
 20
281.125
 10
195.5752754269388
 20
278.625
 10
194.5
 20
276.35308825083405
 10
196.42600797452917
 20
277.875
 10
198.25
 20
280.5985534098197
 10
199.25
 20
279.092616382702
 10
199.75
 20
279.325218761314
 10
201.25
 20
282.1393252456387
 10
203.75
 20
283.8756348007198
 10
205.0
 20
285.7714674423336
 10
209.01404323367774
 20
286.375
 10
205.85426654471155
 20
289.125
 10
203.79458452127304
 20
295.625
 10
203.9653560166947
 20
298.125
 10
202.96480896475958
 20
300.125
 10
201.5
 20
301.54660358647686
 10
199.79614396194754
 20
301.875
 10
200.5
 20
304.76423087360234
 10
206.5
 20
305.4849634236584
 10
208.75
 20
305.10266159695817
 10
208.94443235666014
 20
306.625
 10
210.0
 20
307.25849675500814
 10
214.75
 20
305.6469729243066
 10
214.75
 20
306.576136966019
 10
215.5
 20
306.62789104677546
 10
217.5
 20
306.0541631426029
 10
218.0
 20
305.25112094999974
 10
218.75
 20
306.2490061258313
 10
220.25
 20
306.0223307745988
 10
222.4703006803966
 20
304.375
 10
222.25
 20
302.7997594873533
 10
220.5
 20
303.202115854771
 10
220.0599514785451
 20
302.625
 10
221.32711882991822
 20
300.875
 10
221.11051065752807
 20
299.625
 10
222.8300860251809
 20
298.625
 10
223.47561959064205
 20
295.875
 10
226.0
 20
293.6236768848569
 10
226.05663629096725
 20
294.375
 10
223.55288790429978
 20
297.125
 10
224.0
 20
297.6473788982263
 10
226.25
 20
297.3632379864935
 10
229.2710702669079
 20
294.875
 10
229.0800504699049
 20
293.625
 10
230.0
 20
293.2782738916528
 10
230.81833370033
 20
294.625
 10
229.75
 20
297.2580569908072
 10
223.6368370224475
 20
303.375
 10
225.75
 20
303.3182843251665
 10
227.5
 20
304.2775025571312
 10
229.25
 20
304.43085938254876
 10
231.48410579664062
 20
302.125
 10
232.42739712857326
 20
300.125
 10
233.68766434453917
 20
299.875
 10
234.25
 20
298.2765291864449
 10
236.61966610169492
 20
299.125
 10
234.91588729996468
 20
302.625
 10
233.82576669420547
 20
303.375
 10
232.06958357786223
 20
306.375
 10
232.5
 20
307.0576296925582
 10
234.0
 20
306.61863785956353
 10
234.6087352055068
 20
307.125
 10
232.42411483449257
 20
311.375
 10
232.5
 20
312.5154360608532
 10
233.75
 20
312.6852219195256
 10
236.0
 20
311.6946540330273
 10
236.6994013197528
 20
312.875
 10
235.75
 20
313.13382652106577
 10
235.64936428319197
 20
313.875
 10
236.75
 20
313.38396125107704
 10
238.0
 20
314.0876613386808
 10
241.0
 20
310.400769967517
 10
244.25
 20
308.17897474406317
 10
245.75
 20
307.9866519238345
 10
247.6774827415956
 20
308.375
 10
249.28045113371198
 20
310.625
 10
249.18208080804231
 20
311.875
 10
250.0
 20
312.8201774999198
 10
252.33632294194575
 20
312.125
 10
257.11412516445523
 20
305.125
 10
257.0596489455161
 20
301.375
 10
256.5
 20
300.307899082233
 10
253.93695334345497
 20
300.375
 10
253.89738323429927
 20
299.125
 10
252.13710220040008
 20
297.625
 10
251.75
 20
296.37004937040103
 10
248.78236785195162
 20
296.875
 10
251.5952956723422
 20
295.125
 10
251.23447445397267
 20
294.125
 10
253.8281962328871
 20
291.625
 10
253.54864482115676
 20
289.125
 10
252.25
 20
288.7535851979868
 10
251.75
 20
290.0149213212897
 10
249.79780424497974
 20
289.875
 10
244.5
 20
295.40429148834994
 10
244.70198986767699
 20
294.375
 10
244.03965914561485
 20
293.875
 10
245.0
 20
292.099618940186
 10
246.44886507319544
 20
291.375
 10
245.83032023916022
 20
290.625
 10
246.37108637376318
 20
289.625
 10
250.25
 20
288.24077672925205
 10
252.37861573088495
 20
285.625
 10
253.0
 20
281.51389500508117
 10
252.0
 20
281.07234079756233
 10
250.00617411583337
 20
281.875
 10
252.05436065773875
 20
279.625
 10
252.32445914901595
 20
277.375
 10
250.25
 20
276.05723234778463
 10
245.0
 20
274.53414492708396
 10
243.5
 20
275.76948399786863
 10
240.91073348233593
 20
275.875
 10
242.01489420743474
 20
273.125
 10
244.49912567724184
 20
271.875
 10
251.66262348132162
 20
272.375
 10
252.25
 20
271.7591903880449
 10
251.0
 20
270.3433871958201
 10
246.75
 20
269.9469512487326
 10
244.47486198639405
 20
268.375
 10
241.25
 20
267.72107981239446
 10
239.68940850406526
 20
268.375
 10
238.5
 20
269.7771477338624
 10
237.5775180300139
 20
272.875
 10
238.69407307126968
 20
276.125
 10
237.5
 20
279.2302441186047
 10
236.5
 20
279.3575431349142
 10
235.36278721775662
 20
280.875
 10
234.3704039033706
 20
285.625
 10
233.25
 20
287.8625348920148
 10
231.25
 20
286.84532343170224
 10
229.75
 20
284.57337446693793
 10
229.5
 20
281.67534607021446
 10
228.25
 20
282.0369479604957
 10
226.75
 20
283.6593561967268
 10
226.5
 20
281.53831725616294
 10
225.29335464934599
 20
281.375
 10
225.75
 20
279.0661723057957
 10
222.75
 20
281.2645988238953
 10
221.03771167949995
 20
278.375
 10
221.11877803566912
 20
277.625
 10
223.60018270069804
 20
276.625
 10
223.75
 20
274.7908647626492
 10
225.83187025801675
 20
275.125
 10
225.47270879459916
 20
273.375
 10
226.25
 20
269.80055778390573
 10
222.0
 20
271.34059635110754
 10
221.6280364981317
 20
273.125
 10
222.01008075464085
 20
274.125
 10
221.25
 20
275.0135288826246
 10
221.06399683203676
 20
276.625
 10
217.6165483277958
 20
279.125
 10
217.73427359833696
 20
277.375
 10
215.63304019371864
 20
276.625
 10
215.5
 20
275.280812070918
 10
214.55660459525836
 20
275.125
 10
216.10170862151253
 20
272.375
 10
213.2448289811687
 20
274.375
 10
214.875481047258
 20
270.375
 10
217.44886090618732
 20
268.125
 10
219.5
 20
262.36116210519003
 10
220.1188824315984
 20
264.375
 10
218.15247632547351
 20
269.375
 10
218.75
 20
270.39948470864783
 10
219.82059994862183
 20
270.125
 10
222.372873870229
 20
265.875
 10
224.90852814999897
 20
263.125
 10
226.68451651924093
 20
258.625
 10
226.0
 20
258.50027657403587
 10
224.25
 20
259.74352834287146
 10
222.0
 20
259.42739753503696
 10
223.04221089978552
 20
253.625
 10
222.25
 20
252.72850800466955
 10
222.4281743519297
 20
251.625
 10
221.25
 20
250.87266479327553
 10
218.75
 20
250.6099900401611
 10
216.8091989665497
 20
251.625
 10
216.3866383562819
 20
249.125
 10
214.25
 20
248.36291814390594
 10
213.7581098825077
 20
249.375
 10
215.68421581424911
 20
251.875
 10
215.70975445710553
 20
253.625
 10
217.5386812425831
 20
255.125
 10
218.44500707823667
 20
257.625
 10
219.63199969772796
 20
258.875
 10
219.25
 20
259.92677683266453
 10
218.25
 20
258.8666530388511
 10
216.0
 20
261.5101990509906
 10
214.41186512130534
 20
261.875
 10
213.76798074754876
 20
267.125
 10
214.52691383907666
 20
269.125
 10
213.25
 20
270.8853050693292
 10
211.5
 20
271.41948642240834
 10
207.75
 20
264.48817717629606
 10
205.75
 20
263.8781778749048
 10
204.5
 20
262.2849425309548
 10
200.0
 20
260.6294072462201
 10
200.1595617583969
 20
258.625
 10
199.25
 20
258.2041026568179
 10
187.5
 20
267.8093861187797
 10
187.11689700264088
 20
266.125
 10
188.5
 20
264.9552604897832
 10
188.76206943585038
 20
263.625
 10
191.55963270084163
 20
260.375
 10
193.18565477996773
 20
259.125
 10
193.7218617743129
 20
257.375
 10
192.75
 20
256.8987201200039
 10
192.66929839877844
 20
255.875
 10
193.25
 20
254.91455365899222
 10
194.5388608914189
 20
254.875
 10
196.0677696430676
 20
252.625
 10
195.70029715710564
 20
251.375
 10
196.72478622351798
 20
249.875
 10
196.75
 20
248.17099721563565
 10
191.0
 20
247.57360146655228
 10
189.25
 20
248.5858944299238
 10
187.5
 20
248.05078336085973
 10
184.0
 20
245.50954618426272
 10
182.75
 20
246.32710909262437
 10
181.3178280960057
 20
246.125
 10
178.56403649376554
 20
241.125
 10
174.91404282338
 20
239.875
 10
176.25
 20
239.8344739111502
 10
177.12452503371262
 20
239.125
 10
176.5658359166386
 20
236.625
 10
177.75033073140168
 20
235.375
 10
175.07244291292864
 20
229.125
 10
175.2723715811281
 20
227.625
 10
173.99222795336286
 20
224.375
 10
171.25
 20
223.94547273180223
 10
166.25
 20
220.72219467091938
 10
160.9627128608178
 20
218.375
 10
160.75
 20
216.70086796089475
 10
159.25
 20
216.2175996300933
 10
156.75
 20
213.21409291393618
 10
155.5
 20
213.1342639833919
 10
153.5
 20
214.17544898311803
 10
152.0
 20
213.35713206807185
 10
150.5
 20
214.0976027691902
 10
148.5003174429276
 20
211.625
 10
148.53907337395475
 20
208.875
 10
146.0
 20
206.25112920949613
 10
144.79786351163347
 20
207.125
 10
146.6713381506421
 20
210.625
 10
146.56206053570855
 20
211.375
 10
145.5
 20
211.97931888393077
 10
140.5
 20
212.23246004817184
 10
140.45972437789317
 20
209.375
 10
140.0
 20
209.0225995393767
 10
138.50748331127932
 20
210.125
 10
136.75
 20
209.92758635386798
 10
136.21026137201
 20
210.375
 10
139.2407014976485
 20
214.875
 10
141.8121626952208
 20
217.125
 10
141.5
 20
217.76952804935073
 10
140.5
 20
217.79904854617092
 10
137.25
 20
215.8348169686469
 10
135.0
 20
216.75080685070034
 10
133.5
 20
215.59564179700862
 10
132.25
 20
216.0705842851835
 10
129.0
 20
215.90426787795485
 10
128.4565510065786
 20
214.375
 10
127.0
 20
213.0942683789006
 10
125.19803839259373
 20
213.875
 10
124.31327489139291
 20
215.375
 10
124.16878902066959
 20
217.375
 10
122.68590926038578
 20
218.625
 10
122.99978959660191
 20
215.625
 10
125.36270765994583
 20
209.625
 10
125.25170047383826
 20
207.875
 10
126.75882315706299
 20
203.375
 10
125.5
 20
199.90225902422884
 10
123.5
 20
199.13434989518032
 10
121.17170009800326
 20
199.875
 10
119.0
 20
202.9986375010603
 10
117.75
 20
202.4980109940667
 10
115.0
 20
203.19626843216923
  0
LWPOLYLINE
  5
40
330
17
100
AcDbEntity
  8
BAND_04
100
AcDbPolyline
 90
62
 70
1
 10
247.04500147970336
 20
284.125
 10
245.8035362668794
 20
288.375
 10
240.992905427404
 20
291.875
 10
241.761271974165
 20
293.625
 10
240.81589300952527
 20
297.625
 10
241.25
 20
298.2909507946852
 10
242.5
 20
298.51065766966747
 10
246.25
 20
295.4401433609586
 10
246.6453836626073
 20
296.875
 10
245.37036977263634
 20
299.875
 10
249.5
 20
297.8181956295525
 10
252.41029513260514
 20
298.625
 10
252.64054418855162
 20
299.375
 10
251.41700434311886
 20
300.875
 10
253.0
 20
302.0223449240565
 10
256.22894530145464
 20
301.625
 10
256.1676212980626
 20
305.125
 10
254.5
 20
307.5201350904949
 10
253.25
 20
308.28362688451364
 10
251.66287957491667
 20
311.875
 10
249.8271620503387
 20
311.875
 10
250.218263984181
 20
309.375
 10
248.25
 20
307.3231959484166
 10
244.75
 20
307.480910620228
 10
243.75
 20
306.8139898395244
 10
243.5
 20
307.8937966460393
 10
241.5
 20
309.01962907485273
 10
238.75
 20
308.7997691954814
 10
239.28859447388595
 20
310.625
 10
238.5
 20
311.49888914808764
 10
238.59117369382923
 20
312.375
 10
237.75
 20
312.9094765593572
 10
236.32201298205788
 20
310.375
 10
236.85123510686844
 20
306.125
 10
235.25
 20
305.6537374961297
 10
234.88034785078514
 20
304.875
 10
237.77281232962758
 20
302.375
 10
237.68757898842986
 20
301.125
 10
238.9880211108547
 20
299.375
 10
238.0
 20
297.297961865544
 10
236.75
 20
297.5315913120445
 10
236.33052819317766
 20
296.875
 10
239.7147656583595
 20
294.625
 10
239.82252472747408
 20
293.875
 10
238.5
 20
291.904569302081
 10
236.75
 20
292.889316850002
 10
235.75
 20
292.7178003097215
 10
235.28957223527192
 20
291.875
 10
239.36835070984043
 20
283.125
 10
240.12863970577123
 20
279.875
 10
239.45847012402606
 20
278.125
 10
242.5
 20
279.57991317033105
 10
242.8847238032243
 20
280.375
 10
242.5
 20
281.78491846405797
 10
244.5
 20
281.9254197164355
 10
246.1193176814646
 20
280.875
 10
246.0288237036384
 20
276.375
 10
248.5
 20
276.40000466252593
 10
250.75
 20
278.1020978396059
 10
250.98356125510122
 20
279.375
 10
249.0
 20
281.08261125960155
 10
248.27041593727657
 20
283.375
  0
LWPOLYLINE
  5
41
330
17
100
AcDbEntity
  8
BAND_04
100
AcDbPolyline
 90
7
 70
1
 10
251.25
 20
282.9017674552298
 10
252.0
 20
283.75352173819647
 10
252.0
 20
284.8116382356609
 10
249.841592012341
 20
287.625
 10
247.64150873166045
 20
287.875
 10
248.81414119024947
 20
286.625
 10
249.0
 20
284.0623911741499
  0
LWPOLYLINE
  5
42
330
17
100
AcDbEntity
  8
BAND_04
100
AcDbPolyline
 90
35
 70
1
 10
211.0
 20
290.4197102613284
 10
211.8808416018763
 20
291.375
 10
212.18142188333593
 20
295.625
 10
214.25
 20
297.2777200372431
 10
215.6552586611272
 20
297.375
 10
217.25
 20
292.70512952695174
 10
218.0
 20
292.3804474024977
 10
218.7604588722228
 20
293.125
 10
217.41108604538417
 20
295.625
 10
218.11621531621927
 20
298.875
 10
216.32423959496407
 20
300.625
 10
216.64380318341497
 20
301.875
 10
215.97161280841846
 20
303.875
 10
211.25
 20
305.6533279831915
 10
210.64084340741684
 20
305.375
 10
211.5880529905318
 20
304.125
 10
211.5954661792335
 20
301.625
 10
210.25
 20
301.62903790111466
 10
208.75
 20
300.4383839296248
 10
207.74911818957574
 20
301.875
 10
208.4056221061782
 20
303.375
 10
208.0
 20
303.75387936560077
 10
206.0
 20
303.0698780678968
 10
204.8272156049353
 20
301.625
 10
205.00130290937844
 20
300.125
 10
206.2837647154478
 20
297.875
 10
204.71205713943218
 20
295.875
 10
205.79414861643025
 20
293.375
 10
206.42107672681428
 20
289.625
 10
207.25
 20
288.8301543315198
 10
208.5
 20
288.91863773390156
 10
209.5
 20
293.70706210926124
 10
210.25
 20
294.29272722244247
 10
210.61579963203286
 20
293.875
 10
209.80050644934911
 20
291.125
  0
LWPOLYLINE
  5
43
330
17
100
AcDbEntity
  8
BAND_04
100
AcDbPolyline
 90
6
 70
1
 10
214.18817669500342
 20
286.625
 10
216.75
 20
284.61513858035426
 10
216.60316790523427
 20
287.875
 10
214.25
 20
289.62120654179523
 10
212.25
 20
287.9255736031503
 10
212.60040204492748
 20
287.125
  0
LWPOLYLINE
  5
44
330
17
100
AcDbEntity
  8
BAND_04
100
AcDbPolyline
 90
25
 70
1
 10
207.295625042393
 20
269.875
 10
205.81270154732582
 20
267.125
 10
207.0
 20
266.86798112615674
 10
206.78442367733038
 20
267.625
 10
208.6507018276914
 20
268.125
 10
208.07052844080724
 20
270.125
 10
210.30264986125775
 20
272.875
 10
210.75425746841577
 20
275.375
 10
212.5889021943974
 20
278.875
 10
212.35648409919605
 20
280.625
 10
210.5
 20
282.38485692727687
 10
207.5
 20
282.60774437135336
 10
204.8461912943872
 20
280.875
 10
205.0
 20
277.51519881630514
 10
201.41416078782723
 20
272.875
 10
195.25
 20
268.6466710095543
 10
193.75
 20
269.0833990747281
 10
193.0
 20
268.54012867991156
 10
193.17337979387074
 20
266.625
 10
194.75
 20
264.2595182688556
 10
198.0
 20
262.65724180562694
 10
201.25
 20
263.95196767663435
 10
202.64520386743848
 20
265.875
 10
202.90288627517026
 20
267.875
 10
205.75
 20
270.4497569412182
  0
LWPOLYLINE
  5
45
330
17
100
AcDbEntity
  8
BAND_04
100
AcDbPolyline
 90
122
 70
1
 10
148.7154337918442
 20
216.375
 10
150.5
 20
217.69562718924922
 10
152.0
 20
216.38294931349174
 10
154.0
 20
216.7605668426267
 10
154.75
 20
215.31487743217693
 10
156.75
 20
215.28762803459665
 10
157.58004765649025
 20
216.625
 10
156.6652741796201
 20
217.625
 10
156.64668181965584
 20
219.875
 10
157.75
 20
221.04861426545494
 10
160.75
 20
222.44039296971357
 10
164.25
 20
222.43462752272455
 10
166.0
 20
224.26612562586283
 10
168.24686029770936
 20
225.125
 10
169.25
 20
228.36391940404533
 10
170.0
 20
228.33857967489095
 10
171.25
 20
227.07910959417617
 10
172.3989549099093
 20
227.625
 10
170.99487077850011
 20
228.875
 10
172.29003023425082
 20
230.625
 10
172.82398648127284
 20
232.625
 10
174.1302215417458
 20
233.875
 10
174.0
 20
234.88754301016672
 10
172.5
 20
233.59014811367246
 10
170.25
 20
234.7756040039271
 10
169.0
 20
234.60300087857377
 10
168.25
 20
233.46141887115937
 10
164.40234783867444
 20
234.375
 10
163.75
 20
236.57581271769226
 10
162.7842579522177
 20
237.375
 10
162.41723121800214
 20
239.375
 10
165.8221549997707
 20
241.875
 10
169.0
 20
242.18391036194316
 10
169.75
 20
243.02502277053145
 10
172.0
 20
243.60613586751975
 10
175.0
 20
247.11635796388256
 10
178.0
 20
246.16990794742603
 10
179.0
 20
247.43043059258872
 10
182.5
 20
247.82530052056066
 10
185.25
 20
249.26597949080622
 10
187.44345492797032
 20
251.375
 10
189.89322257099744
 20
255.625
 10
189.26091191141157
 20
257.125
 10
187.75
 20
257.64424112742097
 10
184.0
 20
256.84379517323555
 10
183.0
 20
257.7336762771469
 10
175.5
 20
254.43824538002457
 10
175.25
 20
255.65855256234875
 10
176.26415118153045
 20
256.125
 10
174.44844323750306
 20
257.875
 10
175.30728240842197
 20
258.625
 10
174.75
 20
260.04608913649025
 10
169.56113683869737
 20
261.625
 10
163.25
 20
266.239112295734
 10
162.25
 20
264.64868312995264
 10
159.0
 20
264.31339506093485
 10
155.95178308687684
 20
261.875
 10
153.70586501058028
 20
260.875
 10
152.75
 20
258.4893336320414
 10
150.5
 20
260.01070340963827
 10
147.25988186056503
 20
258.375
 10
146.87178186876187
 20
257.375
 10
147.26817988200173
 20
255.875
 10
146.20313699704315
 20
255.125
 10
147.10817512650124
 20
253.625
 10
143.55147117262962
 20
254.625
 10
143.6131471114445
 20
253.125
 10
142.7228745225633
 20
253.125
 10
142.15336776836065
 20
251.625
 10
143.5
 20
251.5285696162725
 10
143.6884640192165
 20
250.875
 10
142.71474474212727
 20
249.875
 10
142.53618064640403
 20
248.625
 10
140.5
 20
248.82193056649578
 10
140.49810720236204
 20
247.625
 10
137.75776741199581
 20
243.125
 10
138.25
 20
242.2617611416959
 10
141.0
 20
243.6495138729447
 10
142.20708542896375
 20
243.375
 10
143.325955434063
 20
241.375
 10
142.9739617748116
 20
238.625
 10
143.82407750110235
 20
237.625
 10
142.5
 20
234.61838192484288
 10
141.06559387873546
 20
233.875
 10
141.63417764518223
 20
230.625
 10
141.25
 20
229.1990874033193
 10
140.5
 20
228.251796168915
 10
138.12539186295507
 20
227.375
 10
138.0
 20
223.95337044873358
 10
135.25
 20
223.12606367410652
 10
134.5444791278989
 20
220.875
 10
135.02971785963422
 20
219.375
 10
136.25
 20
218.37008176959503
 10
138.75
 20
217.84706117676507
 10
140.76726214113424
 20
219.625
 10
140.30013299872166
 20
222.125
 10
141.5
 20
222.2933419363722
 10
141.75
 20
224.0241311054503
 10
144.5
 20
226.26496423001598
 10
145.75
 20
225.35209610710012
 10
148.25
 20
225.64847669753516
 10
149.25
 20
224.86520580494917
 10
152.25
 20
226.30703307621846
 10
156.84996306783205
 20
225.625
 10
155.6847345926389
 20
222.875
 10
153.25
 20
221.51866711278745
 10
151.5
 20
222.08447565570526
 10
150.5
 20
221.76536983455082
 10
147.66741030717606
 20
223.375
 10
147.1496941595122
 20
222.375
 10
147.6975619156448
 20
220.125
 10
147.41299503384334
 20
218.875
 10
146.0
 20
219.3363512722305
 10
145.0
 20
218.96063596193113
 10
141.50844043395784
 20
215.625
 10
141.62915987975583
 20
214.375
 10
143.0
 20
212.92059486159073
 10
144.062338376401
 20
213.375
 10
145.25
 20
215.8788489425982
 10
147.9669239445295
 20
214.375
 10
148.25
 20
213.49663422950889
 10
149.0
 20
213.46705098074932
  0
LWPOLYLINE
  5
46
330
17
100
AcDbEntity
  8
BAND_04
100
AcDbPolyline
 90
12
 70
1
 10
173.25
 20
270.9272893365356
 10
172.0
 20
270.8738972015386
 10
170.74505764150376
 20
267.375
 10
172.25
 20
266.39992095780997
 10
173.95266903914592
 20
266.875
 10
174.25
 20
264.26360484572933
 10
176.0
 20
263.2213922336734
 10
175.94127775378178
 20
265.125
 10
175.1810335874824
 20
266.375
 10
177.25
 20
267.65631009452613
 10
177.13768394993804
 20
269.125
 10
174.25
 20
269.92159524594797
  0
LWPOLYLINE
  5
47
330
17
100
AcDbEntity
  8
BAND_04
100
AcDbPolyline
 90
12
 70
1
 10
121.13910063479963
 20
207.375
 10
120.04146955361473
 20
204.875
 10
120.75
 20
203.50715118812641
 10
121.62429870718194
 20
203.125
 10
121.75
 20
201.32684129040416
 10
122.75
 20
201.44873503518443
 10
123.5
 20
200.44836610041148
 10
124.5
 20
201.85512279494333
 10
125.25
 20
201.46235920429842
 10
126.00481142589078
 20
202.125
 10
126.13451939977932
 20
204.375
 10
122.75
 20
208.4638445942416
  0
LWPOLYLINE
  5
48
330
17
100
AcDbEntity
  8
BAND_04
100
AcDbPolyline
 90
13
 70
1
 10
118.0
 20
215.45859326012513
 10
118.25
 20
214.41999937265618
 10
119.25
 20
215.7676930769727
 10
120.0
 20
215.84273328960893
 10
120.5
 20
213.75889047120884
 10
122.01848658632673
 20
213.375
 10
122.03067737042403
 20
210.375
 10
123.5
 20
209.26077368781057
 10
124.23350435405236
 20
209.875
 10
123.5
 20
212.7219718877093
 10
122.25
 20
213.72780586242044
 10
121.25
 20
216.09968654223235
 10
119.5
 20
216.68979538783296
  0
LWPOLYLINE
  5
49
330
17
100
AcDbEntity
  8
BAND_04
100
AcDbPolyline
 90
7
 70
1
 10
117.0
 20
205.70693745292203
 10
118.25
 20
205.81841311687305
 10
118.67644400725462
 20
207.125
 10
117.97196211821993
 20
210.125
 10
117.0
 20
210.69110001814633
 10
115.5
 20
210.42025192097742
 10
115.15737844592938
 20
208.625
  0
LWPOLYLINE
  5
4A
330
17
100
AcDbEntity
  8
BAND_04
100
AcDbPolyline
 90
8
 70
1
 10
112.25
 20
214.61181854259286
 10
114.75
 20
214.0859888719342
 10
115.25955351781467
 20
214.625
 10
114.97942475414352
 20
215.625
 10
115.9682395408933
 20
216.625
 10
115.5
 20
217.3499000612453
 10
112.53614682073653
 20
216.375
 10
111.68904274995526
 20
215.375
  0
LWPOLYLINE
  5
4B
330
17
100
AcDbEntity
  8
BAND_04
100
AcDbPolyline
 90
19
 70
1
 10
196.75
 20
98.7709857048822
 10
191.5
 20
100.00999993467174
 10
190.0
 20
99.83597493201442
 10
189.6592337477631
 20
100.375
 10
190.76036160422186
 20
101.125
 10
192.25
 20
103.67969601701293
 10
194.5
 20
101.84605082619021
 10
195.25
 20
102.5007080258004
 10
198.75
 20
100.58871635220805
 10
199.5
 20
100.98545187028434
 10
200.5
 20
100.2004009901773
 10
202.0
 20
100.59192209526407
 10
203.5
 20
99.57779644662345
 10
206.8639769189351
 20
98.875
 10
206.19897771228594
 20
96.625
 10
204.203319077999
 20
96.375
 10
204.13603638108063
 20
97.625
 10
203.0
 20
98.4900852043223
 10
200.0
 20
99.07443475673756
  0
LWPOLYLINE
  5
4C
330
17
100
AcDbEntity
  8
BAND_04
100
AcDbPolyline
 90
16
 70
1
 10
183.6918436373789
 20
113.125
 10
184.5
 20
114.7502583445054
 10
189.5034706607674
 20
113.375
 10
191.25
 20
116.75298428092438
 10
193.25
 20
116.12019008911051
 10
194.43890495234658
 20
114.375
 10
194.0
 20
112.6744894460108
 10
192.67623670350096
 20
112.625
 10
193.80450413260633
 20
109.375
 10
193.0
 20
109.2096766655866
 10
191.75
 20
110.36237164641452
 10
190.5
 20
109.04321735432138
 10
183.75
 20
111.34678993061185
 10
180.75
 20
109.80338474591676
 10
179.53694368327515
 20
110.375
 10
180.5
 20
111.78040922882792
  0
LWPOLYLINE
  5
4D
330
17
100
AcDbEntity
  8
BAND_04
100
AcDbPolyline
 90
11
 70
1
 10
220.75
 20
118.73428369752027
 10
219.5
 20
119.2561987276944
 10
219.07159111469892
 20
118.875
 10
220.60346619667393
 20
116.625
 10
220.5
 20
115.79753344481607
 10
220.0
 20
115.4695546962921
 10
219.25
 20
116.45609417501191
 10
217.75
 20
116.59701897061966
 10
216.75
 20
117.52200353711913
 10
215.75
 20
120.89826542593394
 10
220.67351826666808
 20
119.375
  0
LWPOLYLINE
  5
4E
330
17
100
AcDbEntity
  8
BAND_04
100
AcDbPolyline
 90
30
 70
1
 10
220.0
 20
141.44458940645166
 10
219.40829871001688
 20
142.625
 10
220.49153344900208
 20
143.375
 10
221.11817709722905
 20
145.625
 10
220.15009911979294
 20
146.125
 10
219.56771398051083
 20
149.375
 10
221.0
 20
150.73062089479146
 10
221.75
 20
149.8984683551589
 10
223.25
 20
152.10471005852776
 10
224.5
 20
152.42629091212308
 10
226.10690639045217
 20
153.875
 10
227.25
 20
153.93532752834938
 10
227.05465275535605
 20
152.375
 10
226.273243525723
 20
151.625
 10
227.0
 20
150.29918668747047
 10
225.0
 20
150.60301358595308
 10
224.41568718645186
 20
150.125
 10
225.0
 20
149.04102177705084
 10
226.36716096498608
 20
148.625
 10
225.58031713669212
 20
147.875
 10
226.11390057042777
 20
146.125
 10
225.35274591207633
 20
142.125
 10
224.10213470533594
 20
141.375
 10
223.75
 20
140.46568083727777
 10
222.5
 20
140.01925275817484
 10
221.35387252587324
 20
140.875
 10
223.97150309203985
 20
144.375
 10
223.5
 20
144.9755057601004
 10
223.06755462277437
 20
143.875
 10
220.63245338321747
 20
142.625
  0
LWPOLYLINE
  5
4F
330
17
100
AcDbEntity
  8
BAND_04
100
AcDbPolyline
 90
32
 70
1
 10
190.71268892182619
 20
172.625
 10
190.75
 20
173.65389832710997
 10
191.75
 20
173.90445833196463
 10
192.2364972551798
 20
177.125
 10
193.25
 20
176.52264046392048
 10
194.0
 20
177.09241305124192
 10
194.75
 20
179.058153252939
 10
195.8227363193905
 20
179.125
 10
196.25
 20
180.8993361218773
 10
197.76497437838105
 20
179.375
 10
198.25
 20
181.85624042387005
 10
201.93386882746546
 20
180.375
 10
202.44407880033972
 20
179.375
 10
200.5
 20
179.22050875478146
 10
198.75
 20
175.85433573035516
 10
196.56079275242706
 20
175.125
 10
196.75
 20
173.718065912617
 10
195.75
 20
173.19446876243535
 10
195.5
 20
171.79516782762795
 10
198.5
 20
172.1153521461266
 10
198.3240784901547
 20
170.625
 10
197.5
 20
170.07440381267844
 10
196.40131443178865
 20
170.375
 10
195.25
 20
169.35866843512707
 10
193.5
 20
170.2359095594676
 10
192.0288863681699
 20
166.875
 10
192.91080591235684
 20
165.625
 10
192.25
 20
165.1507194200481
 10
189.86130721043457
 20
167.625
 10
190.15894408449577
 20
168.875
 10
189.21232474840875
 20
170.125
 10
189.86874826450529
 20
172.125
  0
LWPOLYLINE
  5
50
330
17
100
AcDbEntity
  8
BAND_04
100
AcDbPolyline
 90
7
 70
1
 10
216.43326973049622
 20
192.625
 10
217.90159056452453
 20
190.875
 10
217.25
 20
189.42261688358906
 10
214.75
 20
190.01247269374912
 10
213.52641097482132
 20
192.625
 10
215.5
 20
195.09431227546958
 10
216.0898249085726
 20
194.625
  0
LWPOLYLINE
  5
51
330
17
100
AcDbEntity
  8
BAND_04
100
AcDbPolyline
 90
9
 70
1
 10
236.25
 20
197.9158749678005
 10
236.2394626519452
 20
196.625
 10
235.25075883849468
 20
195.875
 10
235.54183967873362
 20
194.125
 10
235.0
 20
193.58235869765196
 10
233.1679294567809
 20
196.375
 10
232.75
 20
199.4528907952219
 10
237.0
 20
198.9009978126911
 10
237.47407223904762
 20
197.875
  0
LWPOLYLINE
  5
52
330
17
100
AcDbEntity
  8
BAND_04
100
AcDbPolyline
 90
7
 70
1
 10
184.75
 20
232.7670430247281
 10
186.5
 20
232.64257706167527
 10
187.08988621280088
 20
231.375
 10
186.75
 20
226.84619822704627
 10
184.75
 20
230.03340289678067
 10
183.5
 20
230.06241258465747
 10
182.50253840574925
 20
231.125
  0
LWPOLYLINE
  5
53
330
17
100
AcDbEntity
  8
BAND_04
100
AcDbPolyline
 90
19
 70
1
 10
188.5
 20
237.48247029692382
 10
190.25
 20
235.87084087291743
 10
192.75
 20
236.69473512563098
 10
194.25
 20
236.39971679509574
 10
197.5
 20
239.92337200376681
 10
198.5
 20
239.979102495695
 10
199.36919814132642
 20
237.875
 10
199.15885554938973
 20
236.125
 10
200.25
 20
234.33521755855702
 10
199.25
 20
233.42401178929384
 10
197.75
 20
234.7873435788981
 10
196.0
 20
234.44336033232037
 10
194.68198721021042
 20
230.625
 10
194.0
 20
230.26479322167793
 10
193.0
 20
231.08026445698167
 10
192.0
 20
230.65303093684787
 10
189.75
 20
231.35522790062913
 10
187.7556136247801
 20
234.875
 10
187.5235211182196
 20
237.375
  0
LWPOLYLINE
  5
54
330
17
100
AcDbEntity
  8
BAND_04
100
AcDbPolyline
 90
13
 70
1
 10
200.73129043297783
 20
258.375
 10
203.0
 20
258.75228491129303
 10
206.0
 20
257.8602741145685
 10
207.5
 20
258.24491424789267
 10
208.48284300564882
 20
257.625
 10
209.36035827624343
 20
255.625
 10
209.19930143767795
 20
253.625
 10
210.68909965804883
 20
251.375
 10
209.75
 20
249.46592584441274
 10
208.25122269318555
 20
251.875
 10
206.0
 20
253.91125875190258
 10
201.0
 20
254.62803086919516
 10
200.3159582169821
 20
255.625
  0
LWPOLYLINE
  5
55
330
17
100
AcDbEntity
  8
BAND_04
100
AcDbPolyline
 90
31
 70
1
 10
288.0
 20
263.5915543639154
 10
284.75
 20
265.58252772075355
 10
282.28450848852333
 20
268.625
 10
282.3667514172689
 20
270.875
 10
284.75
 20
271.19735863523545
 10
289.75
 20
273.1161681119559
 10
291.8002976931988
 20
272.875
 10
292.0823281753775
 20
272.375
 10
289.8641036122716
 20
270.375
 10
288.9498757618639
 20
268.125
 10
289.1234649207019
 20
267.125
 10
290.19441451093485
 20
266.375
 10
288.982462619751
 20
265.875
 10
290.31708257812846
 20
264.375
 10
290.09189085144936
 20
263.375
 10
291.0
 20
262.4544543213081
 10
292.5
 20
262.5751319294101
 10
296.25
 20
260.6595284858216
 10
297.25
 20
261.214801833227
 10
298.75
 20
258.5934788757026
 10
299.25
 20
258.64509102136026
 10
300.0
 20
260.54336100698515
 10
301.4177829006901
 20
259.625
 10
300.87966727364505
 20
257.375
 10
299.6076061728152
 20
256.375
 10
300.4203427522022
 20
254.875
 10
297.5
 20
254.5319847845849
 10
295.6849554309781
 20
255.875
 10
295.7945699248945
 20
257.625
 10
294.5
 20
259.1452849137638
 10
292.75
 20
259.5226775403626
  0
LWPOLYLINE
  5
56
330
17
100
AcDbEntity
  8
BAND_04
100
AcDbPolyline
 90
18
 70
1
 10
227.62502370623233
 20
271.375
 10
228.5109370222974
 20
271.625
 10
226.892328575399
 20
273.625
 10
227.0
 20
277.4056052602758
 10
228.5
 20
276.9817995864108
 10
230.16024809940427
 20
274.625
 10
232.25
 20
273.07757024064506
 10
233.75
 20
273.6987198654915
 10
236.23863824302668
 20
273.125
 10
236.27368763774797
 20
271.375
 10
233.1481853821967
 20
270.375
 10
234.5
 20
267.27909131105076
 10
233.5
 20
266.7556092237993
 10
233.25
 20
265.5839690013453
 10
231.55396439709781
 20
268.125
 10
229.4028560557419
 20
268.625
 10
228.75
 20
270.0957884673845
 10
227.5
 20
269.6643058844963
  0
LWPOLYLINE
  5
57
330
17
100
AcDbEntity
  8
BAND_04
100
AcDbPolyline
 90
972
 70
1
 10
273.6335180119819
 20
277.125
 10
275.25
 20
277.98780769441726
 10
276.5
 20
277.5881922682677
 10
277.5
 20
278.81469738893645
 10
273.25
 20
280.6255969293952
 10
271.75
 20
283.408359969215
 10
269.5516227999942
 20
281.875
 10
268.75
 20
281.90489415844866
 10
265.979758576202
 20
287.375
 10
266.24643588736643
 20
289.375
 10
267.7782078086473
 20
290.125
 10
264.8223332277964
 20
294.375
 10
264.0
 20
296.87251393358326
 10
268.25
 20
298.59849198868994
 10
270.9558999217281
 20
296.625
 10
270.57469441409455
 20
294.375
 10
271.0
 20
293.45773231622746
 10
272.5
 20
293.8604675894504
 10
273.0163150045348
 20
295.375
 10
272.9886283402423
 20
297.625
 10
270.2011986353282
 20
301.125
 10
270.75
 20
302.0584364556608
 10
272.35538289789736
 20
301.375
 10
272.2670622552545
 20
304.125
 10
269.8215080178366
 20
305.375
 10
268.7996895637745
 20
307.375
 10
269.25
 20
308.54318833967295
 10
272.2143268765319
 20
309.125
 10
269.83774153596505
 20
311.375
 10
270.53313373541323
 20
312.625
 10
269.75
 20
313.79548823593757
 10
266.75
 20
313.9713239686736
 10
266.25
 20
311.47320130118635
 10
264.25
 20
313.3320028583096
 10
263.75
 20
312.7095240860725
 10
262.75
 20
312.80453180981897
 10
262.5
 20
311.65322884741903
 10
261.2128136739334
 20
312.625
 10
260.5
 20
314.49086868121617
 10
256.5
 20
314.89125961203064
 10
253.75
 20
317.28507922043457
 10
249.0
 20
315.63832834831464
 10
246.80680135600153
 20
309.875
 10
245.25
 20
309.22139241220174
 10
244.46962989275715
 20
310.375
 10
245.0816379359863
 20
314.375
 10
244.0
 20
314.14895951087294
 10
243.5
 20
316.0925614939598
 10
242.5
 20
315.8434796336036
 10
238.75
 20
317.6449148331561
 10
236.0
 20
319.8921440321718
 10
235.1939789263443
 20
323.375
 10
236.1508425243369
 20
327.375
 10
235.504968564208
 20
328.375
 10
236.6049661220537
 20
329.625
 10
236.75
 20
331.47492462240757
 10
239.20608178533382
 20
333.375
 10
238.24904951471382
 20
334.625
 10
238.5
 20
337.068916237494
 10
241.22178416876392
 20
339.125
 10
239.375
 20
339.75
 10
248.81204188511498
 20
341.75
 10
248.1673820338601
 20
341.125
 10
249.75
 20
340.1227494773612
 10
253.25
 20
340.22793007969085
 10
254.25
 20
338.834539497223
 10
255.75
 20
339.6322540492489
 10
257.25
 20
339.2128498807857
 10
259.8917128391288
 20
337.125
 10
260.0274165078921
 20
335.875
 10
261.78852866066086
 20
334.375
 10
262.5
 20
331.66175293953944
 10
263.26648814023486
 20
331.875
 10
263.59962533878
 20
333.125
 10
262.7219868687821
 20
334.875
 10
263.4394926162088
 20
336.125
 10
263.0
 20
337.14116547946685
 10
264.5
 20
337.2380231365763
 10
266.923620311448
 20
335.125
 10
266.2285600676123
 20
333.875
 10
267.5
 20
328.1438829720429
 10
268.5
 20
328.1213549525264
 10
269.37220722066627
 20
327.125
 10
267.8447710519711
 20
326.125
 10
270.75
 20
325.69219803947703
 10
272.29262621361306
 20
327.375
 10
269.63778916570357
 20
329.125
 10
268.82604573878274
 20
333.625
 10
269.6543625654081
 20
334.875
 10
267.25
 20
339.97966023801075
 10
273.75
 20
340.44749948917047
 10
275.52790936920894
 20
337.125
 10
274.75
 20
335.8518888524685
 10
276.96380691807974
 20
333.375
 10
278.5
 20
332.52681951023624
 10
278.5
 20
333.1564811573468
 10
275.8171851720372
 20
335.625
 10
276.9640182385342
 20
336.625
 10
276.2773316446453
 20
337.375
 10
276.2457179979251
 20
340.125
 10
278.25
 20
341.88095771953397
 10
279.6548043133493
 20
341.625
 10
280.66504625670774
 20
340.625
 10
279.75
 20
338.96096500956554
 10
281.5
 20
339.3697585281201
 10
282.75
 20
338.5260060569203
 10
283.2509850173368
 20
340.125
 10
282.67678882012706
 20
342.125
 10
284.0
 20
343.3821383526206
 10
286.75
 20
343.57288785273414
 10
288.25
 20
343.04449010399196
 10
289.25
 20
343.63283258606634
 10
289.85905050719214
 20
342.375
 10
288.8262872005379
 20
339.875
 10
291.25
 20
339.1285105931063
 10
292.35761870556723
 20
343.125
 10
291.61150379263563
 20
345.875
 10
292.64938368456404
 20
346.875
 10
292.57695054137594
 20
348.125
 10
297.52987880755285
 20
348.875
 10
293.5
 20
349.37013000396763
 10
291.25
 20
348.4750794657406
 10
290.93143066840315
 20
353.375
 10
289.75
 20
356.50120644821646
 10
288.5
 20
355.56941599564817
 10
286.9501445348195
 20
347.625
 10
286.5
 20
347.0207210772075
 10
283.75
 20
345.02080237673715
 10
283.25
 20
344.6963828898201
 10
282.5
 20
344.52662393463123
 10
273.0
 20
344.55273080136715
 10
271.5
 20
343.81752406693835
 10
271.375
 20
344.0
 10
272.375
 20
344.75
 10
283.125
 20
344.75
 10
286.875
 20
347.75
 10
286.625
 20
350.25
 10
287.625
 20
351.75
 10
288.125
 20
356.25
 10
288.875
 20
357.75
 10
291.375
 20
359.0
 10
297.5
 20
360.3557171957341
 10
299.5
 20
359.4545506469617
 10
301.75
 20
356.093848116335
 10
303.0
 20
356.74952165202365
 10
303.75
 20
356.50585207390804
 10
304.75137337394244
 20
355.625
 10
305.0
 20
354.3322342891164
 10
305.8949134569278
 20
354.875
 10
305.5899729823377
 20
356.375
 10
306.0
 20
356.98219638413394
 10
306.83604553554335
 20
356.875
 10
307.74267334605594
 20
355.375
 10
307.17180916998024
 20
352.375
 10
308.3346715309789
 20
350.875
 10
307.74129987955956
 20
349.875
 10
308.44610131698147
 20
349.125
 10
307.0
 20
348.8114449172397
 10
305.70552801452214
 20
346.375
 10
304.60900387594455
 20
346.125
 10
306.497503968115
 20
343.375
 10
305.25
 20
342.54998912802984
 10
304.25
 20
342.6780626739499
 10
304.8097366881217
 20
341.125
 10
306.25
 20
340.77962117964114
 10
307.5
 20
341.73172209893534
 10
308.5
 20
341.7387560504613
 10
307.50978148605674
 20
342.875
 10
308.54104221251816
 20
343.125
 10
308.37721788028125
 20
344.875
 10
309.75
 20
345.3984734373591
 10
311.25
 20
347.2072257238527
 10
310.36910324039184
 20
344.375
 10
310.5
 20
341.0260715612608
 10
315.0
 20
341.5368835241176
 10
317.0
 20
340.32995528292014
 10
318.0
 20
340.9041371970637
 10
320.0
 20
340.85463314425914
 10
321.0
 20
341.7079592497317
 10
322.75
 20
341.4297544399892
 10
324.80846037932184
 20
339.625
 10
323.82646106551283
 20
337.875
 10
324.75
 20
336.59110297183383
 10
325.25
 20
336.4935351341141
 10
325.5
 20
337.87016389723817
 10
327.1139614702427
 20
336.875
 10
327.75
 20
335.30261078609374
 10
329.1064606425477
 20
335.125
 10
329.39239951707935
 20
335.875
 10
328.03089951981747
 20
336.875
 10
328.2741729831956
 20
337.875
 10
327.5
 20
337.7289409025558
 10
327.79029948312245
 20
339.375
 10
326.66061053421083
 20
341.125
 10
328.25
 20
341.0681971083607
 10
329.37401620075923
 20
339.375
 10
330.5
 20
338.9875693034958
 10
331.0984097588034
 20
339.375
 10
330.4642195183113
 20
340.375
 10
331.1289831923771
 20
341.375
 10
328.94392757298937
 20
343.875
 10
328.5
 20
345.1792266029694
 10
326.3096947935368
 20
344.875
 10
327.3985409418973
 20
347.125
 10
324.0
 20
347.6070934853983
 10
322.56082686903153
 20
348.625
 10
323.27364959475494
 20
349.875
 10
322.4714306868799
 20
351.625
 10
326.3976972922934
 20
354.125
 10
329.25
 20
352.0510523821897
 10
330.63081149731204
 20
351.875
 10
329.7026990062494
 20
350.375
 10
329.0440090556336
 20
346.625
 10
329.5
 20
345.45193737795256
 10
331.25
 20
344.2892545045045
 10
332.0
 20
343.0161511470661
 10
332.5
 20
342.8956150261969
 10
332.75
 20
343.7206417759271
 10
334.25
 20
342.90107752769836
 10
335.0
 20
343.6573659151379
 10
337.0
 20
343.089683738073
 10
337.75
 20
344.2923557074593
 10
341.5
 20
344.24839239887575
 10
341.062267760901
 20
341.875
 10
340.1739886216349
 20
340.875
 10
340.49304517176097
 20
334.375
 10
339.0
 20
331.7497697378634
 10
341.5
 20
331.3711956994669
 10
342.25
 20
330.1801975089207
 10
342.58420269399534
 20
331.625
 10
343.25
 20
331.5394298007306
 10
345.0
 20
330.65968107464806
 10
345.5
 20
329.6271045452147
 10
345.682905982906
 20
330.625
 10
343.91428088209034
 20
332.625
 10
345.75
 20
333.13504652083543
 10
346.07006405004836
 20
330.875
 10
347.5
 20
330.13912007736644
 10
350.0
 20
330.9359081870743
 10
351.0
 20
330.02995104461235
 10
351.4358941632116
 20
330.625
 10
350.7299008966493
 20
331.875
 10
351.0
 20
334.3519299531007
 10
351.7014783895081
 20
333.875
 10
351.82227545159174
 20
332.125
 10
352.5
 20
331.57525766537947
 10
354.5
 20
332.18272144396343
 10
355.75
 20
334.12612340698365
 10
357.75
 20
335.02552240857847
 10
358.15790324890685
 20
333.625
 10
357.10478275102867
 20
332.375
 10
355.66534897523144
 20
328.125
 10
356.25
 20
326.734047200037
 10
358.5
 20
326.4886806702486
 10
362.0
 20
329.0876143050948
 10
361.8129835659848
 20
331.125
 10
362.25
 20
331.4678459310496
 10
364.0
 20
330.9431878303578
 10
366.5
 20
331.53163114282324
 10
369.1769546193846
 20
329.625
 10
369.5
 20
328.1753948677691
 10
370.5
 20
327.5969870587815
 10
371.6141211881188
 20
329.375
 10
370.24705433681305
 20
329.875
 10
370.1299868401334
 20
331.875
 10
371.0
 20
332.7844207723597
 10
372.4916740837762
 20
332.875
 10
372.5
 20
335.02276983673744
 10
374.1783367317538
 20
334.875
 10
375.25
 20
337.48256039852924
 10
377.8868593821235
 20
338.625
 10
377.7339511870654
 20
340.375
 10
379.1533715148538
 20
341.875
 10
379.2566070030891
 20
344.375
 10
373.5
 20
348.9005885970444
 10
373.75
 20
350.07725356449725
 10
376.22457449672464
 20
349.625
 10
375.06035653992836
 20
350.875
 10
376.7746606978546
 20
351.125
 10
376.0
 20
352.5781611512725
 10
374.25
 20
353.25887052482875
 10
373.1410256869623
 20
352.125
 10
371.75
 20
351.99537726939246
 10
370.0
 20
352.2987654823253
 10
369.253005343126
 20
353.125
 10
371.260817094171
 20
356.375
 10
368.79313441668313
 20
357.625
 10
370.5
 20
358.7988035069357
 10
371.6377864049736
 20
358.375
 10
371.5
 20
361.4580537796824
 10
368.5
 20
359.97665502933205
 10
368.0
 20
358.57988935576407
 10
366.62812509969484
 20
357.375
 10
366.4749504739299
 20
355.625
 10
364.4805837969179
 20
354.375
 10
364.2390632762048
 20
355.625
 10
366.1054344270488
 20
357.125
 10
366.9958617097935
 20
358.875
 10
366.63987991035407
 20
360.125
 10
368.3321055262326
 20
362.125
 10
367.5
 20
364.8176199386526
 10
366.75
 20
364.52162187526494
 10
366.06441302263283
 20
362.625
 10
363.6556360633287
 20
359.625
 10
362.5
 20
359.03626834133377
 10
362.16386180910024
 20
358.125
 10
363.14033445353436
 20
357.375
 10
362.69822594680403
 20
356.375
 10
363.1900745710374
 20
354.625
 10
360.75
 20
353.07616467107806
 10
359.8690253467413
 20
353.125
 10
360.75
 20
355.07196624473875
 10
358.88087771081865
 20
355.375
 10
360.31957392149883
 20
357.375
 10
359.15096923860176
 20
359.375
 10
360.75
 20
359.8216768446964
 10
361.28705471354004
 20
360.875
 10
361.0583474197077
 20
362.875
 10
364.0
 20
364.4688176397614
 10
364.1115728052338
 20
365.125
 10
360.5
 20
364.828722431846
 10
359.5
 20
364.0524109577674
 10
358.5
 20
364.6883951464923
 10
357.13860812314556
 20
364.125
 10
356.30668290549073
 20
361.125
 10
358.0
 20
360.98801053831244
 10
358.4510110294118
 20
359.875
 10
357.75
 20
359.0148367549707
 10
355.75
 20
358.44356162045784
 10
354.69081127951483
 20
359.125
 10
355.494057520492
 20
360.375
 10
354.21771624650154
 20
361.125
 10
355.25
 20
363.62055454751646
 10
352.5492924669718
 20
360.375
 10
352.0
 20
360.5301359996719
 10
351.7304693421251
 20
361.875
 10
350.05160355260165
 20
359.125
 10
350.71063585682447
 20
358.125
 10
348.5
 20
357.63110201378834
 10
348.7788915360296
 20
356.375
 10
346.6054417737576
 20
354.875
 10
347.1657301222633
 20
353.625
 10
346.42631932898695
 20
351.875
 10
344.43508478137284
 20
349.625
 10
344.443635772886
 20
348.625
 10
342.5
 20
347.7189031585759
 10
341.8870664286368
 20
347.875
 10
341.95555628560277
 20
349.125
 10
342.91471773048795
 20
350.625
 10
341.1309303036479
 20
352.625
 10
342.07670886252424
 20
354.125
 10
339.49683920224464
 20
355.625
 10
340.0
 20
358.8804934783142
 10
339.0
 20
359.1621876344011
 10
337.5
 20
358.5329608165932
 10
336.0
 20
356.2373983622444
 10
334.0
 20
355.6255920727317
 10
333.75
 20
353.99783946702746
 10
332.6893164407779
 20
354.625
 10
331.5
 20
354.1942308160705
 10
330.9250663685214
 20
354.625
 10
332.2288283308242
 20
355.625
 10
331.64129468099554
 20
356.625
 10
332.75
 20
356.95849277759106
 10
334.0
 20
358.877580816349
 10
337.91612980911486
 20
360.375
 10
336.8582085417856
 20
362.375
 10
339.25
 20
363.02941568896244
 10
341.36374597305104
 20
365.5
 10
342.3080495524148
 20
365.75
 10
344.875
 20
364.0
 10
345.875
 20
364.0
 10
348.0862976997576
 20
365.375
 10
351.125
 20
369.75
 10
353.4943612912125
 20
374.625
 10
353.375
 20
376.14036686419814
 10
354.5
 20
377.2464949202008
 10
355.78901158162347
 20
377.125
 10
356.5
 20
378.71666160989895
 10
357.75
 20
378.5323681434064
 10
359.21655255784526
 20
376.375
 10
356.0216766238029
 20
373.125
 10
355.8508624858427
 20
372.125
 10
356.4167687078421
 20
371.375
 10
358.0
 20
371.33170802247616
 10
358.75
 20
369.72167709934723
 10
360.25
 20
369.48468738885356
 10
362.0
 20
372.9780060753471
 10
361.75
 20
368.8716518338017
 10
362.5
 20
368.96354133520015
 10
363.0
 20
370.25108305692817
 10
364.25
 20
371.08409228342856
 10
365.61311801567825
 20
370.875
 10
365.5
 20
369.24408100578216
 10
366.70680643550565
 20
369.625
 10
366.4118773260808
 20
371.625
 10
365.5
 20
371.8818693398614
 10
363.5
 20
374.8767101334787
 10
361.75
 20
375.41847449269295
 10
361.6818678575186
 20
376.375
 10
359.17972567952637
 20
378.375
 10
359.1328103353281
 20
379.375
 10
357.96683869737797
 20
380.875
 10
358.5
 20
381.42637788298435
 10
360.0
 20
380.99296814182173
 10
362.5955536723164
 20
379.375
 10
363.75
 20
377.39898449791247
 10
365.09589709356055
 20
377.625
 10
366.2431533299794
 20
375.625
 10
367.25
 20
375.73071522894327
 10
366.63947455637157
 20
376.875
 10
362.91160126575295
 20
379.875
 10
361.9726506159855
 20
382.625
 10
364.5
 20
381.4482916506104
 10
365.15363134468885
 20
382.125
 10
364.4501841730038
 20
383.125
 10
365.8348262740939
 20
383.375
 10
369.0
 20
381.1569259854032
 10
368.14093562836575
 20
382.875
 10
369.6497168075184
 20
383.125
 10
369.0
 20
383.2342409145885
 10
368.19239278070467
 20
385.375
 10
370.5
 20
385.88164597092384
 10
372.5
 20
387.1551628748595
 10
373.6005599939397
 20
386.875
 10
375.49975705505676
 20
390.375
 10
374.75
 20
390.7606902455565
 10
371.5
 20
388.8260623885606
 10
369.25
 20
388.41230283716783
 10
365.5
 20
389.5858016309584
 10
365.25
 20
390.69335164362343
 10
367.5
 20
389.6158091107986
 10
369.75
 20
390.233911738985
 10
373.92545516097965
 20
392.875
 10
373.5
 20
395.9771275010033
 10
374.25
 20
396.13923911335246
 10
374.8278879338667
 20
394.875
 10
376.75
 20
394.46008650848427
 10
377.75
 20
395.74576635449563
 10
377.9328322756605
 20
397.125
 10
383.2379962075336
 20
399.75
 10
384.375
 20
399.75
 10
387.875
 20
397.0
 10
389.6878264471504
 20
397.0
 10
392.375
 20
396.0
 10
394.75
 20
393.76579938813666
 10
396.75
 20
393.383935920267
 10
399.75
 20
394.10637617197733
 10
401.75
 20
393.7005332096317
 10
402.0698125399398
 20
393.125
 10
401.3960655565083
 20
392.125
 10
402.25
 20
391.4471312834843
 10
403.25
 20
392.8644088352494
 10
403.75
 20
392.7518562350538
 10
405.835401327899
 20
390.125
 10
404.7287583189977
 20
389.875
 10
404.25
 20
387.5325469541362
 10
406.0
 20
389.85124680340004
 10
408.0
 20
389.1824909569221
 10
408.08955769538716
 20
390.875
 10
409.26853578194977
 20
391.375
 10
410.5
 20
393.0969611700757
 10
414.625
 20
395.0
 10
418.625
 20
393.5
 10
421.125
 20
397.75
 10
424.5536541854346
 20
398.75
 10
425.18666009221147
 20
397.625
 10
423.5915603404546
 20
394.375
 10
425.501881971007
 20
391.625
 10
423.25
 20
392.9658375910526
 10
421.83024390875244
 20
392.625
 10
420.24870590392317
 20
388.875
 10
419.5712246454585
 20
384.375
 10
420.5167263030454
 20
380.875
 10
418.53290138774014
 20
378.125
 10
418.44810258701307
 20
376.875
 10
417.35626044226825
 20
376.125
 10
418.31847072161514
 20
374.875
 10
418.3714985202176
 20
370.875
 10
419.2035102051292
 20
369.875
 10
417.0
 20
369.3665818642003
 10
415.5
 20
366.7527594709056
 10
414.6330770750338
 20
366.375
 10
418.0
 20
363.9403571999277
 10
419.46104784952826
 20
363.625
 10
419.75
 20
361.94898728312506
 10
421.0
 20
361.9806462533009
 10
422.5
 20
360.8342106799325
 10
423.75
 20
360.7368592292956
 10
424.074642715452
 20
360.125
 10
423.0832099920486
 20
359.375
 10
424.0
 20
358.74416715961445
 10
427.0549442792314
 20
360.875
 10
426.6484864296685
 20
362.375
 10
427.00369434046604
 20
363.375
 10
426.5
 20
363.9335017197747
 10
425.3900853876071
 20
363.625
 10
425.0
 20
364.9418375662094
 10
423.0
 20
367.27845435565905
 10
422.6104591836735
 20
368.875
 10
423.75
 20
369.3424027895182
 10
427.0
 20
369.1084136518445
 10
428.0
 20
368.196177807446
 10
430.49696067448565
 20
369.125
 10
430.92061345088473
 20
370.375
 10
429.75
 20
370.4739464674563
 10
429.18647901595875
 20
372.125
 10
427.5321840553344
 20
373.375
 10
428.0
 20
374.33751292890634
 10
429.25
 20
374.9632386764694
 10
429.75
 20
376.58069048264116
 10
430.75
 20
376.0522496169778
 10
431.5
 20
376.45232373934874
 10
432.75
 20
375.45475275885013
 10
433.75
 20
376.5999527782685
 10
434.33559084093883
 20
375.125
 10
432.76606581914893
 20
374.375
 10
432.41435934444144
 20
372.875
 10
433.5
 20
371.31873053466353
 10
435.75
 20
371.3244292041257
 10
435.889755835876
 20
373.375
 10
436.97043386851243
 20
373.875
 10
437.1729452385807
 20
375.875
 10
435.15248996787983
 20
380.375
 10
437.75
 20
379.76964578350606
 10
438.87512802150496
 20
380.875
 10
436.5233338731496
 20
385.625
 10
436.4952127732616
 20
388.375
 10
435.08595200896974
 20
388.375
 10
434.75
 20
386.64366186409285
 10
433.75
 20
387.0900170684468
 10
432.60701109131656
 20
385.625
 10
433.34895241418434
 20
388.875
 10
432.25
 20
389.9434820444022
 10
430.75
 20
389.81835902462075
 10
429.62122000211434
 20
391.125
 10
430.872847991782
 20
392.625
 10
431.5
 20
395.68651904113636
 10
433.25
 20
395.4849171627124
 10
434.5
 20
396.00100958928016
 10
436.0
 20
395.30240371649825
 10
436.5
 20
393.17027939388674
 10
437.25
 20
392.5640471520129
 10
440.125
 20
393.25
 10
442.875
 20
392.75
 10
443.375
 20
391.3145173226694
 10
442.39408266919924
 20
392.375
 10
440.5
 20
392.5426852643324
 10
438.3124677438908
 20
390.625
 10
436.25
 20
390.81525521609535
 10
435.6509541873821
 20
389.625
 10
438.25
 20
388.1810341090648
 10
439.25
 20
389.60218502691396
 10
441.75
 20
389.29249158067523
 10
443.6986088736743
 20
387.125
 10
443.8784067085954
 20
383.375
 10
445.875
 20
385.0
 10
447.875
 20
381.99984271991144
 10
447.2342924647769
 20
382.375
 10
446.8027116629812
 20
380.875
 10
445.25
 20
380.2370986199482
 10
443.75
 20
380.88504518125
 10
442.04943509999674
 20
380.375
 10
441.30733582085315
 20
379.125
 10
442.11261180889096
 20
377.375
 10
440.5
 20
376.2408676387662
 10
439.58209557708705
 20
376.875
 10
440.0
 20
379.08195628750303
 10
437.25
 20
378.0505039487736
 10
438.12865369882223
 20
373.375
 10
436.75
 20
372.397119513916
 10
436.25
 20
370.11698153792514
 10
433.5
 20
370.3781987650665
 10
431.25
 20
373.3669148848515
 10
430.5
 20
373.588235631719
 10
429.9866519578877
 20
372.875
 10
431.8947820477903
 20
369.875
 10
431.3270475128668
 20
368.625
 10
430.5
 20
367.93323276059635
 10
428.0
 20
367.4720869611337
 10
426.5
 20
367.984326146077
 10
424.9120958131405
 20
367.625
 10
426.0902354850691
 20
365.125
 10
427.5771289292832
 20
364.125
 10
428.21201743069315
 20
360.875
 10
425.220623497954
 20
358.375
 10
424.5
 20
356.30674034790843
 10
422.836284490627
 20
356.625
 10
423.1516971693866
 20
357.625
 10
422.5
 20
358.35975591511004
 10
418.3812393988236
 20
359.625
 10
418.15187882599423
 20
362.625
 10
414.5
 20
365.34080418063024
 10
413.4519820647049
 20
366.875
 10
417.31053487734914
 20
371.875
 10
417.16213422254475
 20
374.375
 10
415.6326129553756
 20
375.625
 10
416.9143538654847
 20
378.875
 10
415.7446898921947
 20
378.875
 10
418.38806672811114
 20
391.625
 10
421.9277974498378
 20
396.125
 10
422.0096867048058
 20
397.625
 10
421.0
 20
396.9330319654001
 10
418.75
 20
393.38363164445025
 10
416.0
 20
394.13072652154744
 10
415.02446746488454
 20
393.625
 10
413.82670709054264
 20
389.375
 10
411.64199676890837
 20
385.125
 10
410.9907047007643
 20
381.875
 10
409.5
 20
379.62146885002664
 10
408.25
 20
380.8319202355903
 10
408.3463669984476
 20
377.875
 10
407.6579134060816
 20
377.375
 10
407.61277346658915
 20
376.125
 10
405.13653928010854
 20
374.625
 10
405.0
 20
373.5860727775697
 10
403.75
 20
373.1714511866211
 10
402.5
 20
371.1170330165308
 10
401.25
 20
371.0558114266709
 10
398.6600997506235
 20
367.125
 10
398.776479190352
 20
369.375
 10
401.31716976881563
 20
375.875
 10
401.5
 20
376.9779943124791
 10
401.0
 20
377.31489025162756
 10
399.8323729798116
 20
373.875
 10
396.5478085766147
 20
368.625
 10
396.70175609254323
 20
365.625
 10
394.67808227472545
 20
360.875
 10
394.0536179084426
 20
361.875
 10
394.2687546100111
 20
365.125
 10
393.64074716987903
 20
366.625
 10
394.33490583352057
 20
367.875
 10
393.4920122870144
 20
368.875
 10
396.58832066576065
 20
373.375
 10
396.0
 20
373.6742611345781
 10
395.75
 20
374.9919139418126
 10
394.75
 20
372.4465251786767
 10
394.0
 20
371.88842349616476
 10
393.5
 20
372.2380659730611
 10
393.25
 20
378.40947835572064
 10
392.25
 20
371.1544481381634
 10
390.525650363388
 20
374.625
 10
390.5
 20
376.6383646423222
 10
389.75
 20
375.5876394953906
 10
388.0302747324175
 20
375.625
 10
389.607387523834
 20
374.375
 10
390.0856764737307
 20
372.875
 10
389.4265473925676
 20
371.875
 10
391.0871821954785
 20
370.375
 10
391.5
 20
369.0868114946603
 10
391.25
 20
368.1197637793993
 10
390.4673889898535
 20
369.375
 10
388.9068606921865
 20
369.125
 10
390.2243534560064
 20
368.125
 10
389.12535357584085
 20
367.125
 10
389.2071825122086
 20
366.375
 10
390.9494437669546
 20
366.375
 10
390.7301237283014
 20
365.375
 10
391.6296651565582
 20
364.375
 10
390.54757591078896
 20
363.625
 10
391.43676689240664
 20
362.625
 10
392.13208343316336
 20
356.625
 10
391.75
 20
355.39919273647405
 10
389.3414252438492
 20
357.625
 10
388.5
 20
359.8273246746918
 10
386.5302832894903
 20
361.125
 10
386.1242313698697
 20
362.125
 10
387.14949163944925
 20
363.625
 10
385.0
 20
362.8181551091849
 10
384.57289107917785
 20
363.625
 10
385.17556810463594
 20
364.875
 10
384.48736361955247
 20
365.375
 10
384.55148192591315
 20
366.375
 10
383.75
 20
365.38821617710545
 10
383.42498093394937
 20
365.625
 10
383.20438194151853
 20
368.375
 10
384.0088402737165
 20
369.625
 10
383.0
 20
370.06945165468943
 10
382.5811469540848
 20
371.375
 10
384.10514182141947
 20
372.625
 10
381.25
 20
372.8891938710105
 10
379.25
 20
376.21805086981925
 10
379.47113194471154
 20
372.375
 10
376.5
 20
367.54382290621794
 10
375.5
 20
367.7427504733202
 10
375.0
 20
369.6838616657083
 10
374.25
 20
369.76405059962343
 10
373.75
 20
370.94194949736186
 10
372.25
 20
371.01907164286695
 10
369.5
 20
376.3275777272026
 10
369.4555760700415
 20
373.625
 10
367.82750401411903
 20
373.125
 10
370.5
 20
371.4642408137144
 10
372.5
 20
368.28652956950873
 10
368.25
 20
368.45781276935014
 10
362.25
 20
367.45573353484104
 10
354.75
 20
370.0276050539672
 10
354.0
 20
371.32376438699595
 10
352.75
 20
370.271483415091
 10
351.75
 20
370.2910760715799
 10
349.66674084790867
 20
367.125
 10
351.4178079526363
 20
365.875
 10
351.40915626398265
 20
364.625
 10
349.6143811261028
 20
363.125
 10
348.5
 20
360.90128205128207
 10
355.0
 20
366.71221383114835
 10
358.25
 20
365.62831937186314
 10
364.75
 20
365.84838669584576
 10
364.9488656005799
 20
364.375
 10
362.88057839107455
 20
361.875
 10
362.75
 20
360.8478261428234
 10
365.1457910413896
 20
363.125
 10
366.75
 20
365.72084002947014
 10
370.1637774384113
 20
364.125
 10
370.0
 20
361.99464183928
 10
372.25
 20
363.6795492704338
 10
373.0
 20
363.5131381279799
 10
375.4187601100698
 20
360.875
 10
374.876710122254
 20
357.875
 10
373.38247765715585
 20
356.625
 10
373.5
 20
355.7156154239546
 10
376.25
 20
356.7145464704307
 10
377.5
 20
358.8526603683836
 10
379.0
 20
359.5657555030655
 10
379.75
 20
356.64131146054416
 10
377.7802051108922
 20
354.625
 10
378.5
 20
354.1458846178723
 10
381.25
 20
355.038787220978
 10
382.88178149945315
 20
350.125
 10
381.2921622156281
 20
349.375
 10
380.81294401894485
 20
348.375
 10
378.25
 20
347.8569545611455
 10
377.64202640648324
 20
347.125
 10
379.25
 20
346.26064455510664
 10
383.3718254589799
 20
347.125
 10
383.25
 20
345.9566425450413
 10
382.5
 20
345.99892461521256
 10
380.5738061793901
 20
343.375
 10
382.0
 20
342.4357796553882
 10
382.0
 20
340.5106205825295
 10
382.5
 20
341.27436040484264
 10
383.75
 20
341.1537955228541
 10
385.466239553752
 20
339.125
 10
386.0275489104502
 20
336.625
 10
384.62802495588596
 20
337.875
 10
385.3551150323877
 20
334.375
 10
382.5
 20
337.24831776702524
 10
381.5
 20
337.05150640540506
 10
379.140080001546
 20
338.125
 10
378.70865444623445
 20
337.375
 10
380.5
 20
336.8979180923304
 10
383.5953670223581
 20
334.125
 10
383.4331368771417
 20
331.875
 10
382.5
 20
330.40807799226843
 10
381.75
 20
331.8317393688554
 10
381.62423565346495
 20
334.625
 10
380.5
 20
335.58667839331713
 10
378.95661378297865
 20
334.375
 10
380.35116346765057
 20
332.125
 10
380.0
 20
330.1549695818695
 10
379.5584116589438
 20
330.125
 10
379.36851438483734
 20
331.625
 10
378.25
 20
332.7006737388689
 10
377.0
 20
332.72712202603503
 10
377.5181315925382
 20
329.875
 10
377.3574073456626
 20
328.875
 10
376.75
 20
328.59517464951296
 10
374.75
 20
331.69353301414094
 10
374.3407409650341
 20
329.875
 10
374.8594112568728
 20
327.625
 10
374.0
 20
327.21668141759346
 10
373.0
 20
329.3839696319635
 10
371.5313613400691
 20
323.375
 10
370.75
 20
323.7008335123484
 10
369.5
 20
326.1260160546396
 10
368.02333716728816
 20
324.875
 10
369.6091306125231
 20
322.375
 10
368.0
 20
321.60746138761186
 10
365.72211396206416
 20
324.875
 10
365.25
 20
321.39668336597856
 10
364.0
 20
322.25509636367565
 10
363.5
 20
319.47874819426295
 10
362.62306248836614
 20
320.875
 10
361.5
 20
320.91355832615454
 10
360.3441433260819
 20
322.125
 10
360.2704729675369
 20
319.875
 10
358.41962328980213
 20
320.625
 10
359.30733410631655
 20
318.625
 10
358.5
 20
315.8653847574362
 10
356.55098521435053
 20
319.875
 10
355.49390592394235
 20
323.875
 10
353.8674665085678
 20
325.375
 10
353.0
 20
329.0726328217238
 10
353.52820221629975
 20
323.625
 10
354.95472338251653
 20
318.625
 10
354.7262695221172
 20
314.875
 10
354.0
 20
314.79911057187667
 10
353.25
 20
315.7414890241709
 10
352.5
 20
314.1547040660332
 10
351.24649256625446
 20
316.375
 10
351.00586515336437
 20
320.125
 10
349.75
 20
324.66513948741215
 10
348.5545612342869
 20
325.375
 10
349.88727706078043
 20
318.375
 10
349.6765080192866
 20
316.375
 10
349.0
 20
316.16295365323975
 10
348.17330489261377
 20
316.875
 10
347.0
 20
319.6559221389013
 10
346.75
 20
318.7294857845857
 10
345.8629103364528
 20
318.375
 10
346.0
 20
315.6750186418771
 10
344.80357940851115
 20
316.875
 10
344.6339672141833
 20
318.125
 10
342.2624834322186
 20
322.125
 10
340.3502113206451
 20
323.375
 10
340.37328537069436
 20
324.625
 10
341.6428322969582
 20
325.625
 10
340.52864162896134
 20
326.125
 10
339.22795239864735
 20
324.375
 10
340.1115938471609
 20
323.125
 10
340.5048456735405
 20
316.375
 10
341.4090587040668
 20
313.375
 10
341.0
 20
311.9469141553685
 10
338.5531759926141
 20
311.625
 10
340.1580428335797
 20
316.375
 10
339.1037954730615
 20
317.625
 10
338.5
 20
319.75464501918816
 10
337.75
 20
319.1486004915673
 10
336.5
 20
319.18324017831486
 10
335.0
 20
316.7620032632195
 10
330.5
 20
315.8442212077716
 10
331.41038095530706
 20
313.375
 10
329.25
 20
312.20531012949834
 10
328.0
 20
312.6607192613118
 10
325.75
 20
311.02560546901515
 10
325.4591972553048
 20
310.375
 10
326.5789736528569
 20
309.125
 10
325.25
 20
307.512870959148
 10
323.25
 20
308.26657455549315
 10
321.5
 20
311.2567060569287
 10
319.25
 20
312.4358678673798
 10
317.0
 20
312.96495381172554
 10
316.0
 20
311.5309977394246
 10
315.2534278655618
 20
311.875
 10
314.86954161640534
 20
313.125
 10
311.5
 20
313.43078994000155
 10
310.9975909540529
 20
312.875
 10
312.54262340080203
 20
310.125
 10
311.89036670894177
 20
308.625
 10
314.00336191209556
 20
308.125
 10
313.70607425037514
 20
306.875
 10
314.7429793066728
 20
304.875
 10
312.0
 20
305.4236303453647
 10
311.0
 20
304.41438038723356
 10
309.75
 20
304.6329725089805
 10
309.06879543292314
 20
305.875
 10
308.73851023075605
 20
309.375
 10
307.25
 20
310.1303165290905
 10
308.4039817218105
 20
307.375
 10
307.5
 20
306.98201093409284
 10
307.31281174397424
 20
305.875
 10
304.25
 20
303.07641838353993
 10
303.809139584386
 20
305.125
 10
304.4154654713259
 20
307.625
 10
302.67980410349975
 20
316.875
 10
303.5
 20
318.3176816695501
 10
303.3120575854505
 20
319.875
 10
303.9627167321807
 20
321.375
 10
303.6918575962498
 20
327.625
 10
306.25
 20
329.56953564992983
 10
306.57551119256766
 20
330.625
 10
306.0
 20
330.930460217034
 10
305.0
 20
329.9564200485412
 10
303.25
 20
329.50466662234413
 10
301.43269437905167
 20
327.125
 10
301.3019547811188
 20
325.375
 10
302.4629229774121
 20
323.125
 10
301.75
 20
322.20298266243105
 10
300.5
 20
322.37116393614156
 10
300.0
 20
319.215251740001
 10
299.25
 20
319.88196464875034
 10
298.0
 20
323.54891537106016
 10
295.6004099207716
 20
324.125
 10
296.80402824676116
 20
321.625
 10
296.75
 20
320.84420932257626
 10
295.4704157611529
 20
321.125
 10
297.1026920210532
 20
318.625
 10
297.25
 20
314.2885227829496
 10
296.5
 20
313.98470354642063
 10
295.75
 20
314.65107316871087
 10
294.57829543098086
 20
318.625
 10
293.75
 20
319.33512502759993
 10
293.3444233233845
 20
317.875
 10
294.37548387398687
 20
314.625
 10
293.75
 20
312.61975705516653
 10
291.88182746508755
 20
314.625
 10
291.75
 20
316.2587592512382
 10
289.584621065788
 20
317.375
 10
292.0645428828988
 20
310.875
 10
292.0
 20
309.2777561303247
 10
290.88957872838387
 20
309.625
 10
290.25
 20
310.7091209763496
 10
289.9663538389895
 20
310.375
 10
291.25
 20
306.69931713810786
 10
289.232784828712
 20
306.875
 10
288.1807343223605
 20
311.125
 10
286.9221131669128
 20
312.125
 10
287.0346782700422
 20
309.875
 10
286.06034239222555
 20
309.375
 10
286.4496022639908
 20
307.625
 10
287.8981208505048
 20
306.125
 10
288.75
 20
304.1151646830733
 10
290.75
 20
303.95628709015557
 10
291.7505485148563
 20
303.125
 10
290.2415653727694
 20
302.125
 10
291.16056471787965
 20
300.875
 10
291.0656459062742
 20
299.875
 10
290.0
 20
299.19610642875284
 10
288.79896096348847
 20
299.375
 10
288.5
 20
297.6532707426914
 10
287.46631191890305
 20
297.625
 10
286.0
 20
299.91450734202925
 10
285.5
 20
297.61827552939565
 10
282.25
 20
299.4198331908681
 10
281.8896934293852
 20
304.625
 10
281.5
 20
305.1430600330608
 10
280.75
 20
303.3777459233778
 10
280.1459611569354
 20
303.625
 10
278.6876993619509
 20
309.125
 10
278.75
 20
311.54340545552225
 10
280.0730096845817
 20
311.625
 10
280.25
 20
314.1239403443389
 10
278.75
 20
314.41171867357923
 10
278.75
 20
312.1709074438538
 10
277.0
 20
313.1079474374495
 10
278.3447570710555
 20
302.625
 10
277.75
 20
302.2834618040954
 10
276.5
 20
302.89192595547127
 10
275.9778557588421
 20
302.375
 10
277.5
 20
300.85587868232625
 10
279.4179697102542
 20
300.375
 10
280.14214284310947
 20
298.375
 10
284.5916183344597
 20
294.875
 10
282.5
 20
293.91594575559975
 10
281.0
 20
294.71897553303484
 10
281.25
 20
293.83990577143663
 10
281.75
 20
293.18220058403705
 10
286.0
 20
293.487265285392
 10
286.5
 20
292.57481920065135
 10
288.5
 20
292.9729375811523
 10
289.60983254886116
 20
291.875
 10
288.0
 20
290.1681156848829
 10
291.75
 20
291.0353852803693
 10
292.68953197140365
 20
289.875
 10
292.0
 20
288.61774884380395
 10
289.3396780837714
 20
289.125
 10
289.42314775630473
 20
288.125
 10
288.4991208791209
 20
286.875
 10
289.92017749171055
 20
285.625
 10
290.71339517901185
 20
282.125
 10
288.5
 20
282.06732361836174
 10
288.25
 20
279.8086906993476
 10
285.5
 20
279.63950854235287
 10
287.9554977581531
 20
277.125
 10
288.1658893055427
 20
274.625
 10
284.25
 20
272.2463396201243
 10
283.5
 20
272.51757906704336
 10
282.75
 20
271.82966048253684
 10
281.0
 20
272.75603681409757
 10
280.25
 20
271.92466045249813
 10
274.0
 20
274.41253715257005
 10
272.87326016533444
 20
275.625
  0
LWPOLYLINE
  5
58
330
17
100
AcDbEntity
  8
BAND_04
100
AcDbPolyline
 90
12
 70
1
 10
439.75
 20
388.3842052852593
 10
439.11935105554926
 20
386.625
 10
439.32506124102815
 20
384.875
 10
438.5716580945443
 20
383.875
 10
440.25
 20
383.42515199099387
 10
441.5
 20
381.58835703608446
 10
443.0
 20
381.54882091656515
 10
443.0448583947652
 20
382.125
 10
441.73315850069235
 20
383.375
 10
442.8234378557677
 20
384.375
 10
442.1118820572961
 20
386.875
 10
441.0
 20
388.34630904835007
  0
LWPOLYLINE
  5
59
330
17
100
AcDbEntity
  8
BAND_04
100
AcDbPolyline
 90
7
 70
1
 10
387.14475989081865
 20
382.625
 10
388.25
 20
382.49027436527433
 10
389.0
 20
383.2602957444889
 10
391.3851051958746
 20
383.375
 10
390.9380013713271
 20
384.875
 10
389.0
 20
385.634660023904
 10
387.3433822662712
 20
384.125
  0
LWPOLYLINE
  5
5A
330
17
100
AcDbEntity
  8
BAND_04
100
AcDbPolyline
 90
17
 70
1
 10
382.5
 20
394.23473274139843
 10
382.75
 20
396.12794531565913
 10
386.0
 20
397.4664204103347
 10
385.3336723925397
 20
398.625
 10
383.5
 20
398.9619284785897
 10
379.3820005731956
 20
397.125
 10
377.59910102381536
 20
394.125
 10
375.3716040616457
 20
393.375
 10
376.3761047493124
 20
390.125
 10
375.5939570779826
 20
388.625
 10
375.75
 20
387.34526436908
 10
376.6006803648688
 20
387.625
 10
376.4932199821138
 20
388.875
 10
377.8137270392766
 20
391.625
 10
379.27052076257417
 20
392.625
 10
379.75
 20
394.1546194150412
 10
380.5
 20
394.55862385892
  0
LWPOLYLINE
  5
5B
330
17
100
AcDbEntity
  8
BAND_04
100
AcDbPolyline
 90
18
 70
1
 10
380.84756086476136
 20
384.625
 10
382.25
 20
386.0703121145918
 10
383.96769807009724
 20
386.125
 10
383.5
 20
387.62828747250694
 10
382.0
 20
387.55637553844366
 10
381.25
 20
386.64941138120315
 10
378.09044223765517
 20
386.875
 10
376.8444709593457
 20
382.875
 10
377.72266574700177
 20
380.125
 10
375.7619883946991
 20
379.625
 10
374.6969434035425
 20
378.625
 10
376.25
 20
378.84379131397594
 10
377.3101669920126
 20
377.375
 10
379.0
 20
376.54038882476425
 10
380.5993653481328
 20
382.375
 10
381.8755164038618
 20
382.625
 10
381.5
 20
384.27250575676226
 10
381.0
 20
384.0983326948429
  0
LWPOLYLINE
  5
5C
330
17
100
AcDbEntity
  8
BAND_04
100
AcDbPolyline
 90
5
 70
1
 10
379.0
 20
387.50834640545753
 10
381.86719353613654
 20
390.875
 10
382.0
 20
393.1011568545686
 10
378.3756121516053
 20
391.375
 10
377.20480014898305
 20
388.375
  0
LWPOLYLINE
  5
5D
330
17
100
AcDbEntity
  8
BAND_04
100
AcDbPolyline
 90
46
 70
1
 10
339.0918893690724
 20
322.875
 10
338.0
 20
325.1596602435747
 10
332.03230285159174
 20
325.625
 10
331.0
 20
326.6705326004665
 10
329.75
 20
325.6755470999817
 10
327.5
 20
326.3228594320932
 10
327.0925528408224
 20
327.625
 10
324.8600934790135
 20
329.625
 10
325.9118132851748
 20
330.375
 10
325.85093204294543
 20
331.625
 10
326.6262386086894
 20
332.375
 10
325.25243568332365
 20
332.875
 10
325.5460624607329
 20
334.375
 10
324.75
 20
334.9191645142876
 10
323.6662201332287
 20
334.875
 10
323.25
 20
333.17917122203676
 10
322.0
 20
333.7817126101505
 10
320.75
 20
333.059461564295
 10
319.0
 20
333.574861395774
 10
317.75
 20
333.0333360354608
 10
316.75
 20
333.73497116523356
 10
315.5
 20
332.26692517020876
 10
312.0
 20
330.2210808409395
 10
310.25
 20
331.0456730240297
 10
308.25
 20
330.99385181816194
 10
307.84462321430215
 20
329.875
 10
308.81354589488615
 20
328.875
 10
307.75
 20
328.56761541678213
 10
307.0936523806255
 20
326.875
 10
305.4422160605659
 20
325.125
 10
304.2878993205847
 20
319.375
 10
304.5
 20
318.0827346423025
 10
308.5
 20
317.69532782212895
 10
313.0
 20
314.56791588876456
 10
313.7886288528588
 20
314.875
 10
313.5072874585553
 20
315.875
 10
315.75
 20
316.7550980115941
 10
321.75
 20
315.93223491695716
 10
322.9938582950477
 20
314.375
 10
322.75
 20
311.19793799907154
 10
323.25
 20
310.987245289383
 10
324.672721426673
 20
312.125
 10
325.5
 20
315.1060644231016
 10
334.5
 20
318.23323286645166
 10
336.25
 20
320.87274965427275
 10
338.75
 20
321.19510493819496
  0
LWPOLYLINE
  5
5E
330
17
100
AcDbEntity
  8
BAND_04
100
AcDbPolyline
 90
11
 70
1
 10
304.9166768697016
 20
337.875
 10
305.05481830835555
 20
335.625
 10
305.5
 20
335.0361611980749
 10
307.0
 20
334.99547998214894
 10
306.71304467224564
 20
333.375
 10
307.25
 20
332.6051442652829
 10
308.49744714347844
 20
333.875
 10
307.9698205557221
 20
335.125
 10
309.81384631061485
 20
338.375
 10
308.5
 20
339.13245967489644
 10
305.75
 20
338.76250290078593
  0
LWPOLYLINE
  5
5F
330
17
100
AcDbEntity
  8
BAND_04
100
AcDbPolyline
 90
6
 70
1
 10
304.77763427897196
 20
313.625
 10
305.5
 20
313.66419948370117
 10
307.5107727352849
 20
315.125
 10
306.0
 20
316.69650816905096
 10
304.75
 20
317.2823889507673
 10
303.3676290015897
 20
316.875
  0
LWPOLYLINE
  5
60
330
17
100
AcDbEntity
  8
BAND_04
100
AcDbPolyline
 90
71
 70
1
 10
285.84400554533374
 20
323.125
 10
286.75
 20
321.2984269352438
 10
288.75
 20
321.51122430380195
 10
290.25
 20
320.6194464192978
 10
290.5352870080327
 20
321.375
 10
289.75756077971016
 20
323.625
 10
291.9006069598058
 20
325.375
 10
291.2119721942748
 20
327.875
 10
291.7445321240382
 20
329.125
 10
296.25
 20
332.13890987103855
 10
296.70480313477384
 20
331.375
 10
295.25
 20
328.4388832402774
 10
291.452293701755
 20
323.625
 10
293.75
 20
324.0671402627597
 10
294.5
 20
326.2770743087831
 10
295.75
 20
325.65375058922496
 10
297.25
 20
326.525718499792
 10
298.5
 20
326.09527563318557
 10
301.75
 20
331.8658135888932
 10
303.6994836350581
 20
333.625
 10
301.68630164295365
 20
336.125
 10
302.3114400753123
 20
338.125
 10
300.9227251424857
 20
340.125
 10
301.75
 20
340.53641854923717
 10
304.0
 20
339.98358164344506
 10
304.4219774803806
 20
341.375
 10
300.5
 20
341.3927856480698
 10
299.5
 20
340.3611043387582
 10
298.25
 20
340.85133666767024
 10
297.75
 20
340.1709539603008
 10
294.75
 20
341.82864034487477
 10
295.71855605225477
 20
340.125
 10
294.9124011263934
 20
339.375
 10
295.0
 20
337.39582823557043
 10
294.0374874168884
 20
336.625
 10
293.5
 20
334.22134733558926
 10
291.5
 20
335.64250939089027
 10
289.75
 20
335.838198268268
 10
289.25
 20
334.57847218608526
 10
283.5
 20
336.34804586766086
 10
281.50023800952033
 20
336.375
 10
281.8142183960127
 20
334.875
 10
284.25
 20
334.63523489412546
 10
287.0
 20
333.43467664748886
 10
288.30045180108516
 20
331.875
 10
287.25
 20
328.6821095371701
 10
285.7606680587138
 20
329.875
 10
284.8123948797255
 20
329.875
 10
286.6284922471751
 20
327.625
 10
285.0
 20
326.24518468828035
 10
283.75
 20
326.1467813537686
 10
282.75
 20
327.5329051592787
 10
281.0
 20
326.7118304224284
 10
276.75
 20
327.75439821888506
 10
275.51890990331174
 20
329.875
 10
274.6930731622896
 20
329.875
 10
276.41684690208757
 20
326.875
 10
274.75
 20
326.9227253662741
 10
274.75
 20
326.26464307598417
 10
276.5
 20
325.0039901123514
 10
277.0
 20
326.53011308833567
 10
279.5
 20
325.9436630125531
 10
280.97483610104825
 20
323.875
 10
280.80527185394754
 20
322.625
 10
284.5
 20
319.24012380276963
 10
285.25
 20
317.7879302506819
 10
286.25
 20
317.7117692341692
 10
287.3840013091635
 20
320.125
 10
284.48813594690296
 20
321.125
 10
284.8084656937
 20
322.375
 10
283.8174136757234
 20
323.375
  0
LWPOLYLINE
  5
61
330
17
100
AcDbEntity
  8
BAND_04
100
AcDbPolyline
 90
5
 70
1
 10
295.5
 20
353.88348169031934
 10
293.88832218838087
 20
357.625
 10
291.0325028545718
 20
357.125
 10
293.25
 20
353.54573799146243
 10
296.25
 20
353.6024212560889
  0
LWPOLYLINE
  5
62
330
17
100
AcDbEntity
  8
BAND_04
100
AcDbPolyline
 90
16
 70
1
 10
273.8644502455387
 20
324.625
 10
272.25
 20
325.4220208617942
 10
271.5
 20
324.50529279109
 10
267.0
 20
324.2066530690158
 10
268.7242874372355
 20
321.875
 10
271.1201634211518
 20
320.375
 10
270.85541164152477
 20
319.375
 10
271.75
 20
318.3081951206889
 10
273.0
 20
318.92419365127364
 10
274.5
 20
318.2744896140432
 10
275.25
 20
317.24115643020343
 10
274.64201328305285
 20
318.875
 10
272.696227823784
 20
320.875
 10
272.4043791151878
 20
322.375
 10
273.0
 20
322.89297111825374
 10
274.25
 20
322.464887274964
  0
LWPOLYLINE
  5
63
330
17
100
AcDbEntity
  8
BAND_04
100
AcDbPolyline
 90
24
 70
1
 10
269.5
 20
320.0592556515069
 10
266.5
 20
319.9045535502868
 10
265.5
 20
318.7977430327792
 10
263.75
 20
319.7078215096734
 10
261.25
 20
319.9393028052518
 10
258.75
 20
321.42102145883644
 10
256.56619526697216
 20
320.625
 10
257.75
 20
320.0326186443252
 10
259.0
 20
320.4201582505975
 10
260.2218612860718
 20
318.875
 10
261.7252756936401
 20
318.125
 10
259.5
 20
317.8937424314229
 10
258.9434369769988
 20
317.125
 10
259.75
 20
315.8844352683602
 10
262.0
 20
315.04868708085655
 10
263.5
 20
314.87864287049905
 10
265.5
 20
316.7395896600651
 10
269.3059999542437
 20
315.125
 10
272.5
 20
314.76146701214043
 10
272.52708015656833
 20
315.875
 10
268.0
 20
316.34570068773985
 10
267.30576861131544
 20
317.125
 10
268.6376737717092
 20
317.375
 10
270.6266921518211
 20
319.125
  0
LWPOLYLINE
  5
64
330
17
100
AcDbEntity
  8
BAND_04
100
AcDbPolyline
 90
36
 70
1
 10
253.31007887452913
 20
323.125
 10
252.1834600066091
 20
325.125
 10
253.4812742987878
 20
328.875
 10
255.52829404177737
 20
331.375
 10
254.69574326628936
 20
332.875
 10
255.43936465702438
 20
334.625
 10
253.75
 20
337.4461063699325
 10
251.75
 20
337.9247657240122
 10
250.5
 20
339.19531769148807
 10
248.0
 20
339.47521135274667
 10
245.6738199519138
 20
338.375
 10
246.30861812015007
 20
336.875
 10
244.0
 20
336.9517818421588
 10
243.0
 20
335.319135771879
 10
241.7189055515976
 20
335.125
 10
238.9913256537693
 20
330.625
 10
239.17787201750676
 20
327.875
 10
236.81166101425316
 20
326.125
 10
236.10314840393457
 20
323.625
 10
237.5
 20
319.8364294371474
 10
238.5
 20
319.5754944920441
 10
239.25
 20
320.97738689671843
 10
240.75
 20
320.98085675467627
 10
242.5
 20
319.8605111784617
 10
245.25
 20
319.18399050975347
 10
245.63251006731136
 20
319.875
 10
244.99868972075126
 20
321.125
 10
245.5
 20
321.31245651637227
 10
247.54972320179897
 20
319.375
 10
248.0315741093232
 20
317.125
 10
250.0
 20
316.6669008441209
 10
250.29609918009524
 20
317.125
 10
248.66907337999845
 20
319.375
 10
250.0
 20
321.62878944343674
 10
251.5
 20
322.1948385319637
 10
252.5
 20
321.7696742703537
  0
LWPOLYLINE
  5
65
330
17
100
AcDbEntity
  8
BAND_04
100
AcDbPolyline
 90
32
 70
1
 10
411.6445415750574
 20
366.875
 10
409.764555064867
 20
366.125
 10
409.48893391160993
 20
364.875
 10
411.64758792488954
 20
363.375
 10
412.5
 20
361.7939942840008
 10
414.08732224389075
 20
362.625
 10
413.96110430149395
 20
360.875
 10
414.8764331091789
 20
359.375
 10
414.25
 20
357.31865962621265
 10
413.25
 20
357.4627803889349
 10
411.0
 20
355.80419757553824
 10
409.9357964674509
 20
356.875
 10
409.3493650385819
 20
359.375
 10
410.7166990887047
 20
361.125
 10
408.75
 20
364.4494498480243
 10
406.8046864718406
 20
362.625
 10
406.29925963538074
 20
361.375
 10
407.83108723964125
 20
358.625
 10
407.75
 20
356.6925145526067
 10
406.75
 20
356.2840736318152
 10
405.6877886124612
 20
358.375
 10
403.25
 20
359.3702972865941
 10
402.82920970051794
 20
356.875
 10
403.25
 20
355.0520572203113
 10
400.6033490477088
 20
355.625
 10
401.84910319708496
 20
352.875
 10
400.75
 20
350.2880984280796
 10
399.7667828627881
 20
351.375
 10
398.43261663654795
 20
354.875
 10
401.0
 20
360.34385730504357
 10
410.08395918162165
 20
370.125
 10
411.5
 20
370.80817256609515
  0
ENDSEC
  0
SECTION
  2
OBJECTS
  0
DICTIONARY
  5
A
330
0
100
AcDbDictionary
281
1
  3
ACAD_COLOR
350
B
  3
ACAD_GROUP
350
C
  3
ACAD_LAYOUT
350
D
  3
ACAD_MATERIAL
350
E
  3
ACAD_MLEADERSTYLE
350
F
  3
ACAD_MLINESTYLE
350
10
  3
ACAD_PLOTSETTINGS
350
11
  3
ACAD_PLOTSTYLENAME
350
12
  3
ACAD_SCALELIST
350
14
  3
ACAD_TABLESTYLE
350
15
  3
ACAD_VISUALSTYLE
350
16
  3
EZDXF_META
350
2D
  0
DICTIONARY
  5
B
330
A
100
AcDbDictionary
281
1
  0
DICTIONARY
  5
C
330
A
100
AcDbDictionary
281
1
  0
DICTIONARY
  5
D
330
A
100
AcDbDictionary
281
1
  3
Model
350
1A
  3
Layout1
350
1E
  0
DICTIONARY
  5
E
330
A
100
AcDbDictionary
281
1
  3
ByBlock
350
1F
  3
ByLayer
350
20
  3
Global
350
21
  0
DICTIONARY
  5
F
330
A
100
AcDbDictionary
281
1
  3
Standard
350
2C
  0
DICTIONARY
  5
10
330
A
100
AcDbDictionary
281
1
  3
Standard
350
22
  0
DICTIONARY
  5
11
330
A
100
AcDbDictionary
281
1
  0
ACDBDICTIONARYWDFLT
  5
12
330
A
100
AcDbDictionary
281
1
  3
Normal
350
13
100
AcDbDictionaryWithDefault
340
13
  0
ACDBPLACEHOLDER
  5
13
330
12
  0
DICTIONARY
  5
14
330
A
100
AcDbDictionary
281
1
  0
DICTIONARY
  5
15
330
A
100
AcDbDictionary
281
1
  0
DICTIONARY
  5
16
330
A
100
AcDbDictionary
281
1
  0
LAYOUT
  5
1A
330
D
100
AcDbPlotSettings
  1

  4
A3
  6

 40
7.5
 41
20.0
 42
7.5
 43
20.0
 44
420.0
 45
297.0
 46
0.0
 47
0.0
 48
0.0
 49
0.0
140
0.0
141
0.0
142
1.0
143
1.0
 70
1024
 72
1
 73
0
 74
5
  7

 75
16
 76
0
 77
2
 78
300
147
1.0
148
0.0
149
0.0
100
AcDbLayout
  1
Model
 70
1
 71
0
 10
0.0
 20
0.0
 11
420.0
 21
297.0
 12
0.0
 22
0.0
 32
0.0
 14
1e+20
 24
1e+20
 34
1e+20
 15
-1e+20
 25
-1e+20
 35
-1e+20
146
0.0
 13
0.0
 23
0.0
 33
0.0
 16
1.0
 26
0.0
 36
0.0
 17
0.0
 27
1.0
 37
0.0
 76
1
330
17
  0
LAYOUT
  5
1E
330
D
100
AcDbPlotSettings
  1

  4
A3
  6

 40
7.5
 41
20.0
 42
7.5
 43
20.0
 44
420.0
 45
297.0
 46
0.0
 47
0.0
 48
0.0
 49
0.0
140
0.0
141
0.0
142
1.0
143
1.0
 70
0
 72
1
 73
0
 74
5
  7

 75
16
 76
0
 77
2
 78
300
147
1.0
148
0.0
149
0.0
100
AcDbLayout
  1
Layout1
 70
1
 71
1
 10
0.0
 20
0.0
 11
420.0
 21
297.0
 12
0.0
 22
0.0
 32
0.0
 14
1e+20
 24
1e+20
 34
1e+20
 15
-1e+20
 25
-1e+20
 35
-1e+20
146
0.0
 13
0.0
 23
0.0
 33
0.0
 16
1.0
 26
0.0
 36
0.0
 17
0.0
 27
1.0
 37
0.0
 76
1
330
1B
  0
MATERIAL
  5
1F
102
{ACAD_REACTORS
330
E
102
}
330
E
100
AcDbMaterial
  1
ByBlock
  2

 70
0
 40
1.0
 71
1
 41
1.0
 91
-1023410177
 42
1.0
 72
1
  3

 73
1
 74
1
 75
1
 44
0.5
 73
0
 45
1.0
 46
1.0
 77
1
  4

 78
1
 79
1
170
1
 48
1.0
171
1
  6

172
1
173
1
174
1
140
1.0
141
1.0
175
1
  7

176
1
177
1
178
1
143
1.0
179
1
  8

270
1
271
1
272
1
145
1.0
146
1.0
273
1
  9

274
1
275
1
276
1
 42
1.0
 72
1
  3

 73
1
 74
1
 75
1
 94
63
  0
MATERIAL
  5
20
102
{ACAD_REACTORS
330
E
102
}
330
E
100
AcDbMaterial
  1
ByLayer
  2

 70
0
 40
1.0
 71
1
 41
1.0
 91
-1023410177
 42
1.0
 72
1
  3

 73
1
 74
1
 75
1
 44
0.5
 73
0
 45
1.0
 46
1.0
 77
1
  4

 78
1
 79
1
170
1
 48
1.0
171
1
  6

172
1
173
1
174
1
140
1.0
141
1.0
175
1
  7

176
1
177
1
178
1
143
1.0
179
1
  8

270
1
271
1
272
1
145
1.0
146
1.0
273
1
  9

274
1
275
1
276
1
 42
1.0
 72
1
  3

 73
1
 74
1
 75
1
 94
63
  0
MATERIAL
  5
21
102
{ACAD_REACTORS
330
E
102
}
330
E
100
AcDbMaterial
  1
Global
  2

 70
0
 40
1.0
 71
1
 41
1.0
 91
-1023410177
 42
1.0
 72
1
  3

 73
1
 74
1
 75
1
 44
0.5
 73
0
 45
1.0
 46
1.0
 77
1
  4

 78
1
 79
1
170
1
 48
1.0
171
1
  6

172
1
173
1
174
1
140
1.0
141
1.0
175
1
  7

176
1
177
1
178
1
143
1.0
179
1
  8

270
1
271
1
272
1
145
1.0
146
1.0
273
1
  9

274
1
275
1
276
1
 42
1.0
 72
1
  3

 73
1
 74
1
 75
1
 94
63
  0
MLINESTYLE
  5
22
102
{ACAD_REACTORS
330
10
102
}
330
10
100
AcDbMlineStyle
  2
Standard
 70
0
  3

 62
256
 51
90.0
 52
90.0
 71
2
 49
0.5
 62
256
  6
BYLAYER
 49
-0.5
 62
256
  6
BYLAYER
  0
MLEADERSTYLE
  5
2C
102
{ACAD_REACTORS
330
F
102
}
330
F
100
AcDbMLeaderStyle
179
2
170
2
171
1
172
0
 90
2
 40
0.0
 41
0.0
173
1
 91
-1056964608
 92
-2
290
1
 42
2.0
291
1
 43
8.0
  3
Standard
 44
4.0
300

342
29
174
1
175
1
176
0
178
1
 93
-1056964608
 45
4.0
292
0
297
0
 46
4.0
 94
-1056964608
 47
1.0
 49
1.0
140
1.0
294
1
141
0.0
177
0
142
1.0
295
0
296
0
143
3.75
271
0
272
9
273
9
  0
DICTIONARY
  5
2D
330
A
100
AcDbDictionary
280
1
281
1
  3
CREATED_BY_EZDXF
350
2E
  3
WRITTEN_BY_EZDXF
350
68
  0
DICTIONARYVAR
  5
2E
330
2D
100
DictionaryVariables
280
0
  1
1.4.3 @ 2026-09-03T21:25:23.165130+00:00
  0
DICTIONARYVAR
  5
68
330
2D
100
DictionaryVariables
280
0
  1
1.4.3 @ 2026-09-03T21:25:23.174423+00:00
  0
ENDSEC
  0
EOF
