  0
SECTION
  2
HEADER
  9
$ACADVER
  1
AC1024
  9
$ACADMAINTVER
 70
6
  9
$DWGCODEPAGE
  3
ANSI_1252
  9
$LASTSAVEDBY
  1
ezdxf
  9
$INSBASE
 10
0.0
 20
0.0
 30
0.0
  9
$EXTMIN
 10
1e+20
 20
1e+20
 30
1e+20
  9
$EXTMAX
 10
-1e+20
 20
-1e+20
 30
-1e+20
  9
$LIMMIN
 10
0.0
 20
0.0
  9
$LIMMAX
 10
420.0
 20
297.0
  9
$ORTHOMODE
 70
0
  9
$REGENMODE
 70
1
  9
$FILLMODE
 70
1
  9
$QTEXTMODE
 70
0
  9
$MIRRTEXT
 70
1
  9
$LTSCALE
 40
1.0
  9
$ATTMODE
 70
1
  9
$TEXTSIZE
 40
2.5
  9
$TRACEWID
 40
1.0
  9
$TEXTSTYLE
  7
Standard
  9
$CLAYER
  8
0
  9
$CELTYPE
  6
ByLayer
  9
$CECOLOR
 62
256
  9
$CELTSCALE
 40
1.0
  9
$DISPSILH
 70
0
  9
$DIMSCALE
 40
1.0
  9
$DIMASZ
 40
2.5
  9
$DIMEXO
 40
0.625
  9
$DIMDLI
 40
3.75
  9
$DIMRND
 40
0.0
  9
$DIMDLE
 40
0.0
  9
$DIMEXE
 40
1.25
  9
$DIMTP
 40
0.0
  9
$DIMTM
 40
0.0
  9
$DIMTXT
 40
2.5
  9
$DIMCEN
 40
2.5
  9
$DIMTSZ
 40
0.0
  9
$DIMTOL
 70
0
  9
$DIMLIM
 70
0
  9
$DIMTIH
 70
0
  9
$DIMTOH
 70
0
  9
$DIMSE1
 70
0
  9
$DIMSE2
 70
0
  9
$DIMTAD
 70
1
  9
$DIMZIN
 70
8
  9
$DIMBLK
  1

  9
$DIMASO
 70
1
  9
$DIMSHO
 70
1
  9
$DIMPOST
  1

  9
$DIMAPOST
  1

  9
$DIMALT
 70
0
  9
$DIMALTD
 70
3
  9
$DIMALTF
 40
0.03937007874
  9
$DIMLFAC
 40
1.0
  9
$DIMTOFL
 70
1
  9
$DIMTVP
 40
0.0
  9
$DIMTIX
 70
0
  9
$DIMSOXD
 70
0
  9
$DIMSAH
 70
0
  9
$DIMBLK1
  1

  9
$DIMBLK2
  1

  9
$DIMSTYLE
  2
ISO-25
  9
$DIMCLRD
 70
0
  9
$DIMCLRE
 70
0
  9
$DIMCLRT
 70
0
  9
$DIMTFAC
 40
1.0
  9
$DIMGAP
 40
0.625
  9
$DIMJUST
 70
0
  9
$DIMSD1
 70
0
  9
$DIMSD2
 70
0
  9
$DIMTOLJ
 70
0
  9
$DIMTZIN
 70
8
  9
$DIMALTZ
 70
0
  9
$DIMALTTZ
 70
0
  9
$DIMUPT
 70
0
  9
$DIMDEC
 70
2
  9
$DIMTDEC
 70
2
  9
$DIMALTU
 70
2
  9
$DIMALTTD
 70
3
  9
$DIMTXSTY
  7
Standard
  9
$DIMAUNIT
 70
0
  9
$DIMADEC
 70
0
  9
$DIMALTRND
 40
0.0
  9
$DIMAZIN
 70
0
  9
$DIMDSEP
 70
44
  9
$DIMATFIT
 70
3
  9
$DIMFRAC
 70
0
  9
$DIMLDRBLK
  1

  9
$DIMLUNIT
 70
2
  9
$DIMLWD
 70
-2
  9
$DIMLWE
 70
-2
  9
$DIMTMOVE
 70
0
  9
$DIMFXL
 40
1.0
  9
$DIMFXLON
 70
0
  9
$DIMJOGANG
 40
0.785398163397
  9
$DIMTFILL
 70
0
  9
$DIMTFILLCLR
 70
0
  9
$DIMARCSYM
 70
0
  9
$DIMLTYPE
  6

  9
$DIMLTEX1
  6

  9
$DIMLTEX2
  6

  9
$DIMTXTDIRECTION
 70
0
  9
$LUNITS
 70
2
  9
$LUPREC
 70
4
  9
$SKETCHINC
 40
1.0
  9
$FILLETRAD
 40
10.0
  9
$AUNITS
 70
0
  9
$AUPREC
 70
2
  9
$MENU
  1
.
  9
$ELEVATION
 40
0.0
  9
$PELEVATION
 40
0.0
  9
$THICKNESS
 40
0.0
  9
$LIMCHECK
 70
0
  9
$CHAMFERA
 40
0.0
  9
$CHAMFERB
 40
0.0
  9
$CHAMFERC
 40
0.0
  9
$CHAMFERD
 40
0.0
  9
$SKPOLY
 70
0
  9
$TDCREATE
 40
2461288.3092939816
  9
$TDUCREATE
 40
2458532.153996898
  9
$TDUPDATE
 40
2461288.3092939816
  9
$TDUUPDATE
 40
2458532.1544311
  9
$TDINDWG
 40
0.0
  9
$TDUSRTIMER
 40
0.0
  9
$USRTIMER
 70
1
  9
$ANGBASE
 50
0.0
  9
$ANGDIR
 70
0
  9
$PDMODE
 70
0
  9
$PDSIZE
 40
0.0
  9
$PLINEWID
 40
0.0
  9
$SPLFRAME
 70
0
  9
$SPLINETYPE
 70
6
  9
$SPLINESEGS
 70
8
  9
$HANDSEED
  5
2A4
  9
$SURFTAB1
 70
6
  9
$SURFTAB2
 70
6
  9
$SURFTYPE
 70
6
  9
$SURFU
 70
6
  9
$SURFV
 70
6
  9
$UCSBASE
  2

  9
$UCSNAME
  2

  9
$UCSORG
 10
0.0
 20
0.0
 30
0.0
  9
$UCSXDIR
 10
1.0
 20
0.0
 30
0.0
  9
$UCSYDIR
 10
0.0
 20
1.0
 30
0.0
  9
$UCSORTHOREF
  2

  9
$UCSORTHOVIEW
 70
0
  9
$UCSORGTOP
 10
0.0
 20
0.0
 30
0.0
  9
$UCSORGBOTTOM
 10
0.0
 20
0.0
 30
0.0
  9
$UCSORGLEFT
 10
0.0
 20
0.0
 30
0.0
  9
$UCSORGRIGHT
 10
0.0
 20
0.0
 30
0.0
  9
$UCSORGFRONT
 10
0.0
 20
0.0
 30
0.0
  9
$UCSORGBACK
 10
0.0
 20
0.0
 30
0.0
  9
$PUCSBASE
  2

  9
$PUCSNAME
  2

  9
$PUCSORG
 10
0.0
 20
0.0
 30
0.0
  9
$PUCSXDIR
 10
1.0
 20
0.0
 30
0.0
  9
$PUCSYDIR
 10
0.0
 20
1.0
 30
0.0
  9
$PUCSORTHOREF
  2

  9
$PUCSORTHOVIEW
 70
0
  9
$PUCSORGTOP
 10
0.0
 20
0.0
 30
0.0
  9
$PUCSORGBOTTOM
 10
0.0
 20
0.0
 30
0.0
  9
$PUCSORGLEFT
 10
0.0
 20
0.0
 30
0.0
  9
$PUCSORGRIGHT
 10
0.0
 20
0.0
 30
0.0
  9
$PUCSORGFRONT
 10
0.0
 20
0.0
 30
0.0
  9
$PUCSORGBACK
 10
0.0
 20
0.0
 30
0.0
  9
$USERI1
 70
0
  9
$USERI2
 70
0
  9
$USERI3
 70
0
  9
$USERI4
 70
0
  9
$USERI5
 70
0
  9
$USERR1
 40
0.0
  9
$USERR2
 40
0.0
  9
$USERR3
 40
0.0
  9
$USERR4
 40
0.0
  9
$USERR5
 40
0.0
  9
$WORLDVIEW
 70
1
  9
$SHADEDGE
 70
3
  9
$SHADEDIF
 70
70
  9
$TILEMODE
 70
1
  9
$MAXACTVP
 70
64
  9
$PINSBASE
 10
0.0
 20
0.0
 30
0.0
  9
$PLIMCHECK
 70
0
  9
$PEXTMIN
 10
1e+20
 20
1e+20
 30
1e+20
  9
$PEXTMAX
 10
-1e+20
 20
-1e+20
 30
-1e+20
  9
$PLIMMIN
 10
0.0
 20
0.0
  9
$PLIMMAX
 10
420.0
 20
297.0
  9
$UNITMODE
 70
0
  9
$VISRETAIN
 70
1
  9
$PLINEGEN
 70
0
  9
$PSLTSCALE
 70
1
  9
$TREEDEPTH
 70
3020
  9
$CMLSTYLE
  2
Standard
  9
$CMLJUST
 70
0
  9
$CMLSCALE
 40
20.0
  9
$PROXYGRAPHICS
 70
1
  9
$MEASUREMENT
 70
1
  9
$CELWEIGHT
370
-1
  9
$ENDCAPS
280
0
  9
$JOINSTYLE
280
0
  9
$LWDISPLAY
290
0
  9
$INSUNITS
 70
4
  9
$HYPERLINKBASE
  1

  9
$STYLESHEET
  1

  9
$XEDIT
290
1
  9
$CEPSNTYPE
380
0
  9
$PSTYLEMODE
290
1
  9
$FINGERPRINTGUID
  2
{30D25A0C-6795-4246-A4AA-7F0AB3A01A41}
  9
$VERSIONGUID
  2
{8FDF98A9-7B32-4ABD-AB17-48DE10884225}
  9
$EXTNAMES
290
1
  9
$PSVPSCALE
 40
0.0
  9
$OLESTARTUP
290
0
  9
$SORTENTS
280
127
  9
$INDEXCTL
280
0
  9
$HIDETEXT
280
1
  9
$XCLIPFRAME
280
1
  9
$HALOGAP
280
0
  9
$OBSCOLOR
 70
257
  9
$OBSLTYPE
280
0
  9
$INTERSECTIONDISPLAY
280
0
  9
$INTERSECTIONCOLOR
 70
257
  9
$DIMASSOC
280
2
  9
$PROJECTNAME
  1

  9
$CAMERADISPLAY
290
0
  9
$LENSLENGTH
 40
50.0
  9
$CAMERAHEIGHT
 40
0.0
  9
$STEPSPERSEC
 40
24.0
  9
$STEPSIZE
 40
100.0
  9
$3DDWFPREC
 40
2.0
  9
$PSOLWIDTH
 40
0.005
  9
$PSOLHEIGHT
 40
0.08
  9
$LOFTANG1
 40
1.570796326795
  9
$LOFTANG2
 40
1.570796326795
  9
$LOFTMAG1
 40
0.0
  9
$LOFTMAG2
 40
0.0
  9
$LOFTPARAM
 70
7
  9
$LOFTNORMALS
280
1
  9
$LATITUDE
 40
37.795
  9
$LONGITUDE
 40
-122.394
  9
$NORTHDIRECTION
 40
0.0
  9
$TIMEZONE
 70
-8000
  9
$LIGHTGLYPHDISPLAY
280
1
  9
$TILEMODELIGHTSYNCH
280
1
  9
$CMATERIAL
347
20
  9
$SOLIDHIST
280
0
  9
$SHOWHIST
280
1
  9
$DWFFRAME
280
2
  9
$DGNFRAME
280
2
  9
$REALWORLDSCALE
290
1
  9
$INTERFERECOLOR
 62
256
  9
$CSHADOW
280
0
  9
$SHADOWPLANELOCATION
 40
0.0
  0
ENDSEC
  0
SECTION
  2
CLASSES
  0
CLASS
  1
ACDBDICTIONARYWDFLT
  2
AcDbDictionaryWithDefault
  3
ObjectDBX Classes
 90
0
 91
0
280
0
281
0
  0
CLASS
  1
SUN
  2
AcDbSun
  3
SCENEOE
 90
1153
 91
0
280
0
281
0
  0
CLASS
  1
VISUALSTYLE
  2
AcDbVisualStyle
  3
ObjectDBX Classes
 90
4095
 91
0
280
0
281
0
  0
CLASS
  1
MATERIAL
  2
AcDbMaterial
  3
ObjectDBX Classes
 90
1153
 91
0
280
0
281
0
  0
CLASS
  1
SCALE
  2
AcDbScale
  3
ObjectDBX Classes
 90
1153
 91
0
280
0
281
0
  0
CLASS
  1
TABLESTYLE
  2
AcDbTableStyle
  3
ObjectDBX Classes
 90
4095
 91
0
280
0
281
0
  0
CLASS
  1
MLEADERSTYLE
  2
AcDbMLeaderStyle
  3
ACDB_MLEADERSTYLE_CLASS
 90
4095
 91
0
280
0
281
0
  0
CLASS
  1
DICTIONARYVAR
  2
AcDbDictionaryVar
  3
ObjectDBX Classes
 90
0
 91
0
280
0
281
0
  0
CLASS
  1
CELLSTYLEMAP
  2
AcDbCellStyleMap
  3
ObjectDBX Classes
 90
1152
 91
0
280
0
281
0
  0
CLASS
  1
MENTALRAYRENDERSETTINGS
  2
AcDbMentalRayRenderSettings
  3
SCENEOE
 90
1024
 91
0
280
0
281
0
  0
CLASS
  1
ACDBDETAILVIEWSTYLE
  2
AcDbDetailViewStyle
  3
ObjectDBX Classes
 90
1025
 91
0
280
0
281
0
  0
CLASS
  1
ACDBSECTIONVIEWSTYLE
  2
AcDbSectionViewStyle
  3
ObjectDBX Classes
 90
1025
 91
0
280
0
281
0
  0
CLASS
  1
RASTERVARIABLES
  2
AcDbRasterVariables
  3
ISM
 90
0
 91
0
280
0
281
0
  0
CLASS
  1
ACDBPLACEHOLDER
  2
AcDbPlaceHolder
  3
ObjectDBX Classes
 90
0
 91
0
280
0
281
0
  0
CLASS
  1
LAYOUT
  2
AcDbLayout
  3
ObjectDBX Classes
 90
0
 91
0
280
0
281
0
  0
ENDSEC
  0
SECTION
  2
TABLES
  0
TABLE
  2
VPORT
  5
8
330
0
100
AcDbSymbolTable
 70
1
  0
VPORT
  5
23
330
8
100
AcDbSymbolTableRecord
100
AcDbViewportTableRecord
  2
*Active
 70
0
 10
0.0
 20
0.0
 11
1.0
 21
1.0
 12
0.0
 22
0.0
 13
0.0
 23
0.0
 14
0.5
 24
0.5
 15
0.5
 25
0.5
 16
0.0
 26
0.0
 36
1.0
 17
0.0
 27
0.0
 37
0.0
 40
1000.0
 41
1.34
 42
50.0
 43
0.0
 44
0.0
 50
0.0
 51
0.0
 71
0
 72
1000
 73
1
 74
3
 75
0
 76
0
 77
0
 78
0
281
0
 65
0
146
0.0
  0
ENDTAB
  0
TABLE
  2
LTYPE
  5
2
330
0
100
AcDbSymbolTable
 70
3
  0
LTYPE
  5
24
330
2
100
AcDbSymbolTableRecord
100
AcDbLinetypeTableRecord
  2
ByBlock
 70
0
  3

 72
65
 73
0
 40
0.0
  0
LTYPE
  5
25
330
2
100
AcDbSymbolTableRecord
100
AcDbLinetypeTableRecord
  2
ByLayer
 70
0
  3

 72
65
 73
0
 40
0.0
  0
LTYPE
  5
26
330
2
100
AcDbSymbolTableRecord
100
AcDbLinetypeTableRecord
  2
Continuous
 70
0
  3

 72
65
 73
0
 40
0.0
  0
ENDTAB
  0
TABLE
  2
LAYER
  5
1
330
0
100
AcDbSymbolTable
 70
3
  0
LAYER
  5
27
330
1
100
AcDbSymbolTableRecord
100
AcDbLayerTableRecord
  2
0
 70
0
 62
7
  6
Continuous
370
-3
390
13
347
21
  0
LAYER
  5
28
330
1
100
AcDbSymbolTableRecord
100
AcDbLayerTableRecord
  2
Defpoints
 70
0
 62
7
  6
Continuous
290
0
370
-3
390
13
347
21
  0
LAYER
  5
2F
330
1
100
AcDbSymbolTableRecord
100
AcDbLayerTableRecord
  2
PASS_05
 70
0
 62
5
  6
Continuous
370
-3
390
13
347
21
  0
ENDTAB
  0
TABLE
  2
STYLE
  5
5
330
0
100
AcDbSymbolTable
 70
1
  0
STYLE
  5
29
330
5
100
AcDbSymbolTableRecord
100
AcDbTextStyleTableRecord
  2
Standard
 70
0
 40
0.0
 41
1.0
 50
0.0
 71
0
 42
2.5
  3
txt
  4

  0
ENDTAB
  0
TABLE
  2
VIEW
  5
7
330
0
100
AcDbSymbolTable
 70
0
  0
ENDTAB
  0
TABLE
  2
UCS
  5
6
330
0
100
AcDbSymbolTable
 70
0
  0
ENDTAB
  0
TABLE
  2
APPID
  5
3
330
0
100
AcDbSymbolTable
 70
3
  0
APPID
  5
2A
330
3
100
AcDbSymbolTableRecord
100
AcDbRegAppTableRecord
  2
ACAD
 70
0
  0
APPID
  5
2A1
330
3
100
AcDbSymbolTableRecord
100
AcDbRegAppTableRecord
  2
HATCHBACKGROUNDCOLOR
 70
0
  0
APPID
  5
2A2
330
3
100
AcDbSymbolTableRecord
100
AcDbRegAppTableRecord
  2
EZDXF
 70
0
  0
ENDTAB
  0
TABLE
  2
DIMSTYLE
  5
4
330
0
100
AcDbSymbolTable
 70
1
100
AcDbDimStyleTable
  0
DIMSTYLE
105
2B
330
4
100
AcDbSymbolTableRecord
100
AcDbDimStyleTableRecord
  2
Standard
 70
0
 40
1.0
 41
2.5
 42
0.625
 43
3.75
 44
1.25
 45
0.0
 46
0.0
 47
0.0
 48
0.0
 49
2.5
140
2.5
141
2.5
142
0.0
143
0.03937007874
144
1.0
145
0.0
146
1.0
147
0.625
148
0.0
 69
0
 70
0
 71
0
 72
0
 73
0
 74
0
 75
0
 76
0
 77
1
 78
8
 79
3
170
0
171
3
172
1
173
0
174
0
175
0
176
0
177
0
178
0
179
2
271
2
272
2
273
2
274
3
275
0
276
0
277
2
278
44
279
0
280
0
281
0
282
0
283
0
284
8
285
0
286
0
288
0
289
3
290
0
371
-2
372
-2
  0
ENDTAB
  0
TABLE
  2
BLOCK_RECORD
  5
9
330
0
100
AcDbSymbolTable
 70
2
  0
BLOCK_RECORD
  5
17
330
9
100
AcDbSymbolTableRecord
100
AcDbBlockTableRecord
  2
*Model_Space
340
1A
 70
0
280
1
281
0
  0
BLOCK_RECORD
  5
1B
330
9
100
AcDbSymbolTableRecord
100
AcDbBlockTableRecord
  2
*Paper_Space
340
1E
 70
0
280
1
281
0
  0
ENDTAB
  0
ENDSEC
  0
SECTION
  2
BLOCKS
  0
BLOCK
  5
18
330
17
100
AcDbEntity
  8
0
100
AcDbBlockBegin
  2
*Model_Space
 70
0
 10
0.0
 20
0.0
 30
0.0
  3
*Model_Space
  1

  0
ENDBLK
  5
19
330
17
100
AcDbEntity
  8
0
100
AcDbBlockEnd
  0
BLOCK
  5
1C
330
1B
100
AcDbEntity
  8
0
100
AcDbBlockBegin
  2
*Paper_Space
 70
0
 10
0.0
 20
0.0
 30
0.0
  3
*Paper_Space
  1

  0
ENDBLK
  5
1D
330
1B
100
AcDbEntity
  8
0
100
AcDbBlockEnd
  0
ENDSEC
  0
SECTION
  2
ENTITIES
  0
LWPOLYLINE
  5
30
330
17
100
AcDbEntity
  8
PASS_05
100
AcDbPolyline
 90
555
 70
1
 10
45.90287834684969
 20
198.64254748749406
 10
45.73756421055738
 20
199.0
 10
45.7533802912283
 20
199.04444870262873
 10
44.375
 20
202.75
 10
46.61406435310136
 20
207.0
 10
46.75
 20
205.97120128940804
 10
46.875
 20
207.93180685576613
 10
46.875
 20
209.5
 10
45.375
 20
209.5
 10
43.125
 20
212.25
 10
31.875
 20
211.75
 10
29.375
 20
212.5
 10
29.375
 20
213.0
 10
30.875
 20
213.5
 10
33.875
 20
217.5
 10
37.125
 20
220.25
 10
37.56878534720279
 20
220.125
 10
37.52590752505987
 20
220.06533327052543
 10
39.875
 20
221.5
 10
41.17902120390284
 20
224.5
 10
42.375
 20
225.0
 10
43.5
 20
226.89830815460243
 10
42.75
 20
225.9690226286631
 10
42.625
 20
226.5
 10
43.875
 20
228.25
 10
47.125
 20
227.5
 10
51.875
 20
227.75
 10
53.875
 20
226.5
 10
52.951457617745454
 20
226.59213171514278
 10
54.625
 20
226.0
 10
59.625
 20
226.75
 10
59.375
 20
228.0
 10
58.375
 20
229.0
 10
55.534871697307096
 20
229.5
 10
55.375
 20
230.25
 10
60.625
 20
232.75
 10
60.125
 20
233.75
 10
57.875
 20
234.7566277093104
 10
57.625
 20
236.75
 10
58.27738122652151
 20
238.0
 10
59.875
 20
238.75
 10
61.67508228551829
 20
240.875
 10
61.893779327004914
 20
242.375
 10
60.5
 20
243.9454633470456
 10
57.56646111545741
 20
242.5
 10
56.625
 20
242.90710938025097
 10
56.875
 20
246.75
 10
55.72311947757157
 20
248.125
 10
56.38866437114898
 20
247.25
 10
54.625
 20
248.0
 10
54.625
 20
250.25
 10
55.875
 20
252.25
 10
55.625
 20
254.25
 10
58.625
 20
255.75
 10
59.625
 20
257.5
 10
59.375
 20
259.75
 10
58.125
 20
262.649941392811
 10
60.38504191673233
 20
263.875
 10
60.611077519354765
 20
265.625
 10
61.88866348928045
 20
266.625
 10
63.022063075409505
 20
269.125
 10
63.0
 20
270.65157089552235
 10
62.0
 20
270.1473488555797
 10
61.51944683890126
 20
271.0
 10
68.6941628961051
 20
274.0
 10
68.39521924512059
 20
273.56513564385654
 10
72.91960942946758
 20
276.625
 10
73.25
 20
281.49068796484414
 10
76.208667482464
 20
283.375
 10
77.15635511336336
 20
285.125
 10
76.625
 20
287.25
 10
74.88778938879742
 20
289.625
 10
74.125
 20
293.75
 10
73.125
 20
295.25
 10
71.625
 20
296.25
 10
68.77192379423978
 20
296.3691546999579
 10
69.06566957971029
 20
296.0
 10
66.08695297542099
 20
297.25
 10
65.5061421200136
 20
298.125
 10
65.71075463206344
 20
299.375
 10
65.0
 20
299.98764000355436
 10
63.43784063848231
 20
298.375
 10
60.95694370668062
 20
298.375
 10
61.62799585817079
 20
299.625
 10
59.04734505732037
 20
300.875
 10
59.29099512127164
 20
302.125
 10
58.0
 20
302.26133761960557
 10
58.125
 20
303.5
 10
60.125
 20
303.0
 10
65.04747845189908
 20
306.24712830811575
 10
65.33720419333102
 20
306.625
 10
65.45325967735104
 20
308.5
 10
66.0
 20
309.0612014836985
 10
67.0
 20
309.2116639007975
 10
68.82120708660793
 20
307.125
 10
67.9601128216876
 20
309.875
 10
68.75
 20
310.5745124258815
 10
71.875
 20
310.25
 10
75.375
 20
308.75
 10
73.75
 20
307.64947006248514
 10
75.94172194755765
 20
308.5
 10
78.125
 20
307.5
 10
79.125
 20
306.25
 10
79.625
 20
303.75
 10
81.125
 20
302.25
 10
84.375
 20
301.5
 10
86.625
 20
301.75
 10
89.125
 20
305.25
 10
89.875
 20
305.08443050034776
 10
90.625
 20
302.5
 10
92.375
 20
302.0
 10
106.01232758038691
 20
304.2237200502171
 10
106.11072792632231
 20
304.4451611059158
 10
104.625
 20
306.4119350106206
 10
104.125
 20
314.70002478773563
 10
105.125
 20
316.25
 10
104.125
 20
318.75
 10
101.625
 20
320.24859337306657
 10
101.59331734989043
 20
321.375
 10
102.43783224856713
 20
322.25
 10
105.125
 20
322.75
 10
106.875
 20
324.25
 10
107.875
 20
327.25
 10
107.875
 20
328.25
 10
107.09587507896534
 20
329.125
 10
108.625
 20
331.75
 10
108.41100421280193
 20
333.75
 10
115.12530992849824
 20
338.75
 10
127.875
 20
335.75
 10
131.875
 20
331.0
 10
136.375
 20
324.25
 10
137.625
 20
323.0
 10
140.875
 20
322.0
 10
143.625
 20
317.5
 10
144.18902489187
 20
317.12398340542
 10
144.5485335813108
 20
317.09525533251053
 10
145.28588643930584
 20
317.5
 10
147.625
 20
317.25
 10
150.625
 20
314.5442957806064
 10
152.125
 20
312.25
 10
156.625
 20
309.75
 10
162.375
 20
308.0
 10
180.875
 20
309.0
 10
195.125
 20
308.0
 10
202.04804886084236
 20
310.5
 10
215.125
 20
312.0
 10
220.625
 20
312.0
 10
223.625
 20
310.5
 10
227.625
 20
310.25
 10
229.375
 20
311.25
 10
233.125
 20
315.25
 10
237.1982391923226
 20
316.375
 10
236.5
 20
318.91476351462444
 10
233.625
 20
319.02791022978056
 10
231.875
 20
320.6905590741476
 10
231.625
 20
325.0
 10
232.625
 20
329.5
 10
231.88148534202784
 20
331.625
 10
232.875
 20
333.25
 10
235.625
 20
334.25
 10
237.875
 20
338.75
 10
239.21230386999866
 20
339.5
 10
240.3142118783827
 20
339.4321461685032
 10
239.375
 20
339.75
 10
248.81204188511498
 20
341.75
 10
248.5112544880653
 20
341.45838555745314
 10
250.1718898826371
 20
342.25
 10
258.25
 20
342.8341341203349
 10
268.0
 20
341.74217208348347
 10
271.8017720467182
 20
343.9654339609447
 10
271.5
 20
343.81752406693835
 10
271.375
 20
344.0
 10
272.375
 20
344.75
 10
283.125
 20
344.75
 10
286.875
 20
347.75
 10
286.625
 20
350.25
 10
287.625
 20
351.75
 10
288.125
 20
356.25
 10
288.875
 20
357.75
 10
291.375
 20
359.0
 10
297.5
 20
360.3557171957341
 10
299.1760963171375
 20
359.6004962289717
 10
298.52640649714203
 20
360.25
 10
299.125
 20
360.25
 10
301.625
 20
357.25
 10
304.375
 20
357.75
 10
307.375
 20
357.5
 10
308.625
 20
356.25
 10
308.125
 20
353.25
 10
308.625
 20
352.0
 10
309.75
 20
351.6432217963095
 10
311.375
 20
352.75
 10
313.125
 20
352.75
 10
313.75
 20
351.01098604323363
 10
315.22515851495825
 20
350.875
 10
318.25
 20
347.135582991289
 10
318.97591185855714
 20
347.625
 10
318.959110271557
 20
349.5
 10
320.125
 20
349.75
 10
323.375
 20
353.25
 10
324.875
 20
354.25
 10
327.875
 20
355.0
 10
333.125
 20
358.0
 10
334.125
 20
362.0
 10
334.875
 20
363.0
 10
338.125
 20
362.75
 10
340.87005058421755
 20
365.0
 10
339.25
 20
363.02941568896244
 10
341.36374597305104
 20
365.5
 10
342.3080495524148
 20
365.75
 10
344.875
 20
364.0
 10
345.875
 20
364.0
 10
348.0862976997576
 20
365.375
 10
351.125
 20
369.75
 10
353.4943612912125
 20
374.625
 10
353.375
 20
376.14036686419814
 10
356.125
 20
384.0
 10
360.375
 20
389.0
 10
360.95207667894385
 20
394.75
 10
362.25
 20
394.6859539761382
 10
362.7912727500829
 20
393.625
 10
362.75
 20
393.0236895792135
 10
361.2828623205889
 20
393.125
 10
361.75
 20
391.8382420097944
 10
365.25
 20
393.4499946566801
 10
367.0
 20
392.2555789146124
 10
368.34647446563423
 20
393.875
 10
368.40036497793324
 20
394.625
 10
367.61921189244816
 20
395.375
 10
368.375
 20
395.94118915511297
 10
383.2379962075336
 20
399.75
 10
384.375
 20
399.75
 10
387.875
 20
397.0
 10
389.6878264471504
 20
397.0
 10
392.375
 20
396.0
 10
394.75
 20
393.76579938813666
 10
394.9538472979557
 20
393.72687847008007
 10
393.77957650946104
 20
395.0
 10
396.125
 20
394.25
 10
401.375
 20
394.25
 10
403.875
 20
393.25
 10
405.125
 20
391.75
 10
406.125
 20
391.5
 10
407.125
 20
391.5
 10
413.36214661005187
 20
394.5
 10
413.09304776461687
 20
394.2932449479943
 10
414.625
 20
395.0
 10
418.625
 20
393.5
 10
421.125
 20
397.75
 10
424.5536541854346
 20
398.75
 10
427.0
 20
398.6029189720092
 10
428.25
 20
399.3187836843792
 10
430.75
 20
398.3361765961833
 10
432.25
 20
398.9331616537955
 10
433.25
 20
397.9719634569407
 10
435.125
 20
398.0
 10
436.125
 20
397.0
 10
437.375
 20
393.5
 10
438.79796127750154
 20
392.9333787857089
 10
440.125
 20
393.25
 10
442.875
 20
392.75
 10
443.375
 20
391.3145173226694
 10
442.5909467461901
 20
392.1621676471787
 10
443.875
 20
389.8173102335021
 10
444.08346253077417
 20
387.125
 10
445.64158168656064
 20
384.8100240239352
 10
445.875
 20
385.0
 10
447.875
 20
381.99984271991144
 10
450.2758967333608
 20
378.91308338080495
 10
452.2170447748534
 20
377.0148534726401
 10
453.35505363382515
 20
376.3591863839973
 10
457.0
 20
375.5489635887313
 10
461.125
 20
377.6344786959051
 10
464.75
 20
378.4552485547651
 10
467.75
 20
380.16390718102974
 10
473.74126279965674
 20
381.25
 10
479.75
 20
381.2362469726981
 10
482.893048929584
 20
384.125
 10
485.0
 20
384.23796017219126
 10
487.7337285244642
 20
385.875
 10
489.25
 20
385.93370335127094
 10
492.84000443666105
 20
384.625
 10
492.13194153635345
 20
380.125
 10
493.25968341465347
 20
379.6648256994623
 10
494.84272642595045
 20
379.75
 10
495.625
 20
378.8749771821695
 10
495.85742863319825
 20
374.3426400488725
 10
495.91709332321443
 20
373.93422918247745
 10
499.875
 20
367.75
 10
500.8349567584302
 20
366.7900432415698
 10
500.8913757371156
 20
366.75
 10
501.875
 20
366.75
 10
502.5341696965459
 20
367.5
 10
505.625
 20
366.75
 10
508.7198743158117
 20
367.75
 10
509.875
 20
367.5
 10
515.375
 20
361.0
 10
517.5828594651256
 20
355.11237475966516
 10
517.6722999441378
 20
354.9189143814781
 10
519.3366957043464
 20
352.06566450683476
 10
520.6790284014908
 20
352.13971732873114
 10
526.375
 20
352.75
 10
528.7783866840322
 20
354.25
 10
530.125
 20
354.3271936383571
 10
536.625
 20
350.0
 10
538.9299279500417
 20
345.25
 10
538.375
 20
341.0561844762929
 10
537.125
 20
339.25
 10
540.625
 20
335.75
 10
539.375
 20
334.5
 10
537.625
 20
330.5
 10
532.375
 20
327.5
 10
531.875
 20
326.5
 10
532.375
 20
323.2488255359205
 10
531.875
 20
322.2766229485678
 10
527.3989683526838
 20
320.26079440301964
 10
527.3373906048988
 20
320.18527777028487
 10
525.875
 20
317.6686411583737
 10
523.125
 20
315.25
 10
520.125
 20
314.0
 10
516.625
 20
313.75
 10
509.375
 20
316.75
 10
507.375
 20
315.75
 10
506.625
 20
311.77059897603976
 10
505.375
 20
310.5
 10
499.0
 20
310.4963206359487
 10
495.64147573904927
 20
308.375
 10
491.60449196859173
 20
303.125
 10
491.02594754353726
 20
299.625
 10
489.3299085986256
 20
296.625
 10
488.5810941787998
 20
293.625
 10
487.1818998759594
 20
292.5
 10
483.75
 20
291.4097543663183
 10
479.5
 20
287.91075095302995
 10
477.1397456261304
 20
284.875
 10
476.230959304411
 20
281.375
 10
477.625
 20
272.81097640097585
 10
476.875
 20
269.99616816086126
 10
476.02399024656694
 20
268.5
 10
471.375
 20
266.5
 10
468.375
 20
262.25
 10
467.375
 20
260.5
 10
466.375
 20
255.0
 10
464.875
 20
251.75
 10
464.875
 20
246.5
 10
461.875
 20
243.25
 10
460.625
 20
238.5
 10
453.6658545811615
 20
232.7396043028151
 10
451.125
 20
229.5
 10
453.75
 20
226.70947356958987
 10
452.875
 20
222.01388948920592
 10
452.0
 20
220.05361736347947
 10
448.125
 20
216.5
 10
448.125
 20
210.34865035256252
 10
446.6276797857904
 20
209.0
 10
444.25
 20
208.20515572146746
 10
441.875
 20
205.0
 10
439.7388111880673
 20
198.625
 10
440.0
 20
197.58370635971323
 10
442.0947715320591
 20
195.875
 10
442.19476989451425
 20
194.125
 10
441.625
 20
192.59940608992048
 10
440.5198368909521
 20
191.25
 10
437.125
 20
190.0
 10
435.125
 20
185.86075128737178
 10
433.81326029705025
 20
184.5
 10
433.0036337756913
 20
184.0
 10
429.5
 20
184.00865369144992
 10
427.1454541772911
 20
182.125
 10
426.375
 20
175.1237872353644
 10
423.1750653234213
 20
169.375
 10
423.3781940025196
 20
167.625
 10
425.5
 20
163.74679897202932
 10
425.8723726233256
 20
161.375
 10
424.5
 20
160.12185370456365
 10
420.0
 20
159.30791421571854
 10
418.59338363815823
 20
157.875
 10
417.6553403642185
 20
155.125
 10
417.25745560060767
 20
149.5
 10
415.5
 20
145.87695230784925
 10
412.75
 20
145.50896041208367
 10
409.2357193033451
 20
141.125
 10
408.0
 20
140.53868411444307
 10
404.75
 20
142.48772212698464
 10
401.75
 20
142.33316491345312
 10
398.0
 20
143.51558538552155
 10
395.5
 20
142.7281455623003
 10
392.0
 20
144.48160457684776
 10
389.75
 20
143.97533835908246
 10
384.8913376318016
 20
140.125
 10
385.3935699947957
 20
135.375
 10
385.0
 20
134.8579456638969
 10
382.875
 20
134.75
 10
382.375
 20
131.84385471250164
 10
381.375
 20
130.35368615000922
 10
379.80343224641075
 20
129.25
 10
375.8224302118956
 20
128.25
 10
373.42585858931045
 20
128.5
 10
368.75
 20
131.79773180928257
 10
364.4875031142874
 20
132.72551242580744
 10
364.06390320018664
 20
132.2415165853907
 10
362.875
 20
130.29827075568926
 10
362.0083646015023
 20
129.75
 10
350.24237702289224
 20
129.25493871167083
 10
348.69684820574867
 20
127.56479874597488
 10
347.0
 20
125.56253908721294
 10
346.1336234050042
 20
125.75
 10
341.6606208984719
 20
129.22234784690303
 10
341.4229579991639
 20
129.17312792322073
 10
338.99671142889423
 20
128.25
 10
337.8866144790737
 20
129.1656144590305
 10
336.47757157665524
 20
130.05677548904924
 10
335.125
 20
130.25
 10
332.6681884145604
 20
129.0
 10
330.625
 20
128.96919723427902
 10
327.375
 20
130.75
 10
323.5
 20
131.14193017325726
 10
319.5
 20
130.47147523609996
 10
319.04168264648996
 20
130.28853222811972
 10
319.22266553668095
 20
130.25
 10
311.375
 20
127.0
 10
304.125
 20
131.5
 10
302.375
 20
132.0
 10
292.75
 20
130.72512530505577
 10
288.875
 20
128.0
 10
289.26455095099436
 20
124.5
 10
287.447065514263
 20
123.625
 10
284.5972129462307
 20
120.0
 10
282.125
 20
119.25
 10
280.625
 20
116.5
 10
278.8193518687445
 20
115.75
 10
274.625
 20
115.5
 10
273.125
 20
114.25
 10
271.3793138379564
 20
110.5
 10
268.625
 20
110.0
 10
261.875
 20
110.75
 10
260.125
 20
112.0
 10
259.375
 20
113.85159549310617
 10
260.5
 20
112.06669882447966
 10
259.375
 20
114.0
 10
257.25
 20
114.56482492253609
 10
255.91312875342206
 20
113.875
 10
254.85776212602087
 20
112.125
 10
254.25
 20
108.57097982292052
 10
251.125
 20
108.25
 10
249.375
 20
107.0
 10
249.63851867487725
 20
104.125
 10
242.5
 20
104.90705741393577
 10
237.875
 20
102.30983026233612
 10
236.75
 20
102.19389032807521
 10
235.625
 20
102.75
 10
234.625
 20
100.56389873674081
 10
233.5
 20
99.69453954878513
 10
232.16494602734141
 20
99.75
 10
226.0
 20
102.4807533741963
 10
224.125
 20
102.25
 10
221.59267626608337
 20
99.875
 10
221.25
 20
98.18267533722741
 10
218.51558126132855
 20
93.375
 10
216.83157087037165
 20
91.625
 10
213.35177299677488
 20
89.0
 10
210.0
 20
89.24599797167768
 10
204.845193781232
 20
84.0
 10
203.18758525113097
 20
84.0
 10
201.0
 20
85.88612669471709
 10
198.60477309700846
 20
85.0
 10
196.74199236485106
 20
85.0
 10
195.25
 20
86.43546279457392
 10
192.4738862207106
 20
87.25
 10
190.5
 20
88.81331139082532
 10
189.0
 20
89.18781536284781
 10
183.25
 20
89.20596108376316
 10
179.5
 20
87.69759142085485
 10
170.75
 20
90.21219020652259
 10
165.5
 20
90.25420069945865
 10
164.0
 20
89.88581803641445
 10
163.0
 20
88.45051524434186
 10
162.25
 20
88.2716031892384
 10
160.42190418205573
 20
91.125
 10
158.25
 20
92.7683279928147
 10
154.65716111128697
 20
93.89308062648871
 10
157.93747171937338
 20
92.75
 10
151.4771536139849
 20
94.88859473621679
 10
148.725534957576
 20
95.75
 10
146.875
 20
95.75
 10
146.125
 20
96.75
 10
146.125
 20
98.84382704147103
 10
145.78593923502117
 20
100.18671267742585
 10
145.125
 20
102.5
 10
141.125
 20
106.75
 10
136.0
 20
108.47706455101189
 10
130.125
 20
109.0
 10
129.02187498843423
 20
109.0
 10
128.74518670130803
 20
108.83773337663506
 10
127.875
 20
107.75
 10
127.125
 20
107.81799704312789
 10
126.7229879586312
 20
109.17036792768896
 10
126.4146008767696
 20
109.59221538746867
 10
126.05459865753998
 20
109.75
 10
126.25
 20
109.81737547304557
 10
122.72668473989796
 20
109.375
 10
122.125
 20
111.75
 10
120.5
 20
111.36250248997513
 10
118.57280111572665
 20
112.625
 10
120.05899103638943
 20
113.625
 10
120.16440729000131
 20
114.10974532527712
 10
119.625
 20
114.75
 10
117.93098765772663
 20
115.0
 10
116.875
 20
116.13365512678988
 10
115.375
 20
123.0
 10
112.625
 20
126.75
 10
111.375
 20
127.75
 10
105.09499868392606
 20
128.0
 10
100.125
 20
131.5
 10
98.875
 20
134.25
 10
94.125
 20
138.25
 10
91.49584907866371
 20
143.6954451546005
 10
91.60257130916784
 20
143.25
 10
88.125
 20
147.0
 10
87.125
 20
150.43123043467307
 10
86.625
 20
154.75
 10
85.11535931316438
 20
156.875
 10
84.125
 20
157.25
 10
83.5
 20
156.85248926201223
 10
82.0
 20
158.20905525680882
 10
80.0
 20
158.738486328028
 10
78.25
 20
157.87305121545478
 10
74.01652680388253
 20
162.60787561592807
 10
74.3362523237149
 20
162.0
 10
73.87162226662073
 20
162.76994054630146
 10
73.66592286821245
 20
163.0
 10
73.38882300587993
 20
163.56998936125225
 10
72.375
 20
165.25
 10
70.375
 20
167.5
 10
66.13681934020516
 20
168.99479582259997
 10
65.85925137458517
 20
168.8297684864967
 10
65.375
 20
167.75
 10
64.625
 20
167.75
 10
59.875
 20
171.75
 10
59.125
 20
176.25
 10
57.46872711756849
 20
178.125
 10
59.5
 20
178.43028653002227
 10
59.3799589075261
 20
179.875
 10
56.5
 20
179.34427925265348
 10
55.375
 20
180.25
 10
53.875
 20
183.25
 10
49.875
 20
185.75
 10
49.375
 20
188.0
 10
52.625
 20
190.25
 10
52.375
 20
192.25
 10
48.875
 20
193.5
 10
48.875
 20
195.5
 10
47.125
 20
196.0
 10
46.014231607082785
 20
198.40177253903067
 10
46.048897029823216
 20
198.25
  0
LWPOLYLINE
  5
31
330
17
100
AcDbEntity
  8
PASS_05
100
AcDbPolyline
 90
3
 70
1
 10
87.75
 20
149.24128831774667
 10
87.90668038567104
 20
149.25617823003944
 10
87.125
 20
150.43123043467307
  0
LWPOLYLINE
  5
32
330
17
100
AcDbEntity
  8
PASS_05
100
AcDbPolyline
 90
3
 70
1
 10
209.53397189552152
 20
135.375
 10
209.52805747290952
 20
135.34796526869448
 10
211.75
 20
134.17029456552777
  0
LWPOLYLINE
  5
33
330
17
100
AcDbEntity
  8
PASS_05
100
AcDbPolyline
 90
3
 70
1
 10
186.66900152884403
 20
122.04286022234395
 10
186.87598180730572
 20
122.125
 10
187.75
 20
123.78632485485315
  0
LWPOLYLINE
  5
34
330
17
100
AcDbEntity
  8
PASS_05
100
AcDbPolyline
 90
3
 70
1
 10
180.75
 20
123.35537672367413
 10
185.0
 20
121.38051975442237
 10
185.12296443419845
 20
121.42931798466792
  0
LWPOLYLINE
  5
35
330
17
100
AcDbEntity
  8
PASS_05
100
AcDbPolyline
 90
3
 70
1
 10
175.11849225573542
 20
134.50921470995704
 10
175.0
 20
134.70372101004736
 10
174.85641922980025
 20
134.67287502643154
  0
LWPOLYLINE
  5
36
330
17
100
AcDbEntity
  8
PASS_05
100
AcDbPolyline
 90
3
 70
1
 10
175.44050381486852
 20
132.625
 10
175.65715139165334
 20
133.625
 10
175.2671073631783
 20
134.2652614278895
  0
LWPOLYLINE
  5
37
330
17
100
AcDbEntity
  8
PASS_05
100
AcDbPolyline
 90
3
 70
1
 10
170.59659328688892
 20
132.625
 10
172.25
 20
130.95872560275544
 10
172.35694339843522
 20
131.01457792486724
  0
LWPOLYLINE
  5
38
330
17
100
AcDbEntity
  8
PASS_05
100
AcDbPolyline
 90
3
 70
1
 10
173.41038032590833
 20
134.36221718363515
 10
172.0
 20
134.0592200039674
 10
171.87299905287767
 20
133.9294306156283
  0
LWPOLYLINE
  5
39
330
17
100
AcDbEntity
  8
PASS_05
100
AcDbPolyline
 90
3
 70
1
 10
45.0
 20
203.39033770118272
 10
45.12886663653945
 20
202.256112650854
 10
45.23356561765731
 20
203.51148052797464
  0
LWPOLYLINE
  5
3A
330
17
100
AcDbEntity
  8
PASS_05
100
AcDbPolyline
 90
4
 70
1
 10
45.25
 20
201.18995232451175
 10
46.77352442944557
 20
199.93290231978463
 10
46.75
 20
200.22160036731663
 10
45.21366374774492
 20
201.50976735693217
  0
LWPOLYLINE
  5
3B
330
17
100
AcDbEntity
  8
PASS_05
100
AcDbPolyline
 90
3
 70
1
 10
46.24777401591051
 20
199.7026211915157
 10
46.798613710304316
 20
199.625
 10
46.77974992542117
 20
199.85650137933962
  0
LWPOLYLINE
  5
3C
330
17
100
AcDbEntity
  8
PASS_05
100
AcDbPolyline
 90
3
 70
1
 10
45.75
 20
199.55863429719818
 10
45.82284983383385
 20
199.23968234522812
 10
45.95772204755722
 20
199.618720303203
  0
LWPOLYLINE
  5
3D
330
17
100
AcDbEntity
  8
PASS_05
100
AcDbPolyline
 90
3
 70
1
 10
124.64969370172344
 20
201.77673048056224
 10
125.25
 20
201.46235920429842
 10
125.44878562802107
 20
201.63687095943047
  0
LWPOLYLINE
  5
3E
330
17
100
AcDbEntity
  8
PASS_05
100
AcDbPolyline
 90
3
 70
1
 10
124.08822760382441
 20
201.875
 10
123.5
 20
200.44836610041148
 10
124.46700396316254
 20
201.8087053992292
  0
LWPOLYLINE
  5
3F
330
17
100
AcDbEntity
  8
PASS_05
100
AcDbPolyline
 90
3
 70
1
 10
123.0
 20
201.14260731182162
 10
122.97632258633833
 20
201.14686025570398
 10
123.5
 20
200.44836610041148
  0
LWPOLYLINE
  5
40
330
17
100
AcDbEntity
  8
PASS_05
100
AcDbPolyline
 90
3
 70
1
 10
121.74714759217566
 20
201.36764502326682
 10
121.75
 20
201.32684129040416
 10
121.88363020637249
 20
201.34312997667467
  0
LWPOLYLINE
  5
41
330
17
100
AcDbEntity
  8
PASS_05
100
AcDbPolyline
 90
3
 70
1
 10
120.08427503613977
 20
204.97249514946049
 10
120.04146955361473
 20
204.875
 10
120.75
 20
203.50715118812641
  0
LWPOLYLINE
  5
42
330
17
100
AcDbEntity
  8
PASS_05
100
AcDbPolyline
 90
3
 70
1
 10
126.11685106350073
 20
204.06851339447357
 10
126.13451939977932
 20
204.375
 10
125.97243565933164
 20
204.57081368804896
  0
LWPOLYLINE
  5
43
330
17
100
AcDbEntity
  8
PASS_05
100
AcDbPolyline
 90
3
 70
1
 10
125.52987393441182
 20
201.70805750752154
 10
126.00481142589078
 20
202.125
 10
126.06327484415053
 20
203.13914498385003
  0
LWPOLYLINE
  5
44
330
17
100
AcDbEntity
  8
PASS_05
100
AcDbPolyline
 90
4
 70
1
 10
118.01204607874331
 20
209.95430450953836
 10
117.97196211821993
 20
210.125
 10
117.0
 20
210.69110001814633
 10
116.83649897582812
 20
210.66157739062493
  0
LWPOLYLINE
  5
45
330
17
100
AcDbEntity
  8
PASS_05
100
AcDbPolyline
 90
3
 70
1
 10
118.64807500687033
 20
207.03807988115918
 10
118.67644400725462
 20
207.125
 10
118.49621876720309
 20
207.8924799431614
  0
LWPOLYLINE
  5
46
330
17
100
AcDbEntity
  8
PASS_05
100
AcDbPolyline
 90
3
 70
1
 10
118.07836046689576
 20
205.8031062121426
 10
118.25
 20
205.81841311687305
 10
118.47927517664999
 20
206.52089206684366
  0
LWPOLYLINE
  5
47
330
17
100
AcDbEntity
  8
PASS_05
100
AcDbPolyline
 90
3
 70
1
 10
116.75343088745473
 20
206.0974159486257
 10
117.0
 20
205.70693745292203
 10
117.69552364017477
 20
205.76896462058772
  0
LWPOLYLINE
  5
48
330
17
100
AcDbEntity
  8
PASS_05
100
AcDbPolyline
 90
3
 70
1
 10
115.18353879140042
 20
208.76207371851635
 10
115.15737844592938
 20
208.625
 10
116.14694305540391
 20
207.05787873278032
  0
LWPOLYLINE
  5
49
330
17
100
AcDbEntity
  8
PASS_05
100
AcDbPolyline
 90
3
 70
1
 10
119.56960849195495
 20
216.66632305250064
 10
119.5
 20
216.68979538783296
 10
119.44612456176898
 20
216.64557435171216
  0
LWPOLYLINE
  5
4A
330
17
100
AcDbEntity
  8
PASS_05
100
AcDbPolyline
 90
4
 70
1
 10
122.02994425821394
 20
210.5554097761648
 10
122.03067737042403
 20
210.375
 10
123.5
 20
209.26077368781057
 10
123.6360290474214
 20
209.37468251423633
  0
LWPOLYLINE
  5
4B
330
17
100
AcDbEntity
  8
PASS_05
100
AcDbPolyline
 90
3
 70
1
 10
119.97122474115481
 20
215.875
 10
119.25
 20
215.7676930769727
 10
119.9797927847001
 20
215.84071148463175
  0
LWPOLYLINE
  5
4C
330
17
100
AcDbEntity
  8
PASS_05
100
AcDbPolyline
 90
3
 70
1
 10
118.22020965222077
 20
214.5437596650925
 10
118.25
 20
214.41999937265618
 10
118.3219689449682
 20
214.51699146669614
  0
LWPOLYLINE
  5
4D
330
17
100
AcDbEntity
  8
PASS_05
100
AcDbPolyline
 90
3
 70
1
 10
36.85016338617855
 20
219.125
 10
36.823181831376786
 20
218.70965859941657
 10
37.06104833996602
 20
219.41845742994954
  0
LWPOLYLINE
  5
4E
330
17
100
AcDbEntity
  8
PASS_05
100
AcDbPolyline
 90
3
 70
1
 10
44.75
 20
219.69191937908982
 10
42.5
 20
220.18715883197663
 10
42.30578732918573
 20
220.12381530994202
  0
LWPOLYLINE
  5
4F
330
17
100
AcDbEntity
  8
PASS_05
100
AcDbPolyline
 90
3
 70
1
 10
45.344869858883335
 20
220.5947890600628
 10
45.25
 20
220.7971754642759
 10
44.75
 20
219.69191937908982
  0
LWPOLYLINE
  5
50
330
17
100
AcDbEntity
  8
PASS_05
100
AcDbPolyline
 90
3
 70
1
 10
46.449929549114316
 20
216.875
 10
46.46055401052309
 20
216.77218614033646
 10
49.25
 20
218.1223166116228
  0
LWPOLYLINE
  5
51
330
17
100
AcDbEntity
  8
PASS_05
100
AcDbPolyline
 90
3
 70
1
 10
46.5
 20
216.39046378563705
 10
46.67285209617705
 20
216.4343062418718
 10
46.48843193567787
 20
216.5024089747656
  0
LWPOLYLINE
  5
52
330
17
100
AcDbEntity
  8
PASS_05
100
AcDbPolyline
 90
3
 70
1
 10
52.02042163492558
 20
217.625
 10
52.51489254164288
 20
219.875
 10
52.49463938041539
 20
219.85714253002607
  0
LWPOLYLINE
  5
53
330
17
100
AcDbEntity
  8
PASS_05
100
AcDbPolyline
 90
3
 70
1
 10
48.5
 20
213.3469474639955
 10
48.44674109542753
 20
213.1486004793409
 10
48.965716341047425
 20
213.22402565441337
  0
LWPOLYLINE
  5
54
330
17
100
AcDbEntity
  8
PASS_05
100
AcDbPolyline
 90
3
 70
1
 10
47.244740150370774
 20
225.84210266113215
 10
47.5
 20
225.7701065159753
 10
48.35721291568066
 20
225.875
  0
LWPOLYLINE
  5
55
330
17
100
AcDbEntity
  8
PASS_05
100
AcDbPolyline
 90
3
 70
1
 10
52.621980910939286
 20
226.625
 10
52.25
 20
225.89831766158522
 10
52.71859872998452
 20
226.615361497693
  0
LWPOLYLINE
  5
56
330
17
100
AcDbEntity
  8
PASS_05
100
AcDbPolyline
 90
3
 70
1
 10
148.07980823492613
 20
214.0247277152397
 10
148.25
 20
213.49663422950889
 10
149.0
 20
213.46705098074932
  0
LWPOLYLINE
  5
57
330
17
100
AcDbEntity
  8
PASS_05
100
AcDbPolyline
 90
3
 70
1
 10
145.0
 20
215.8912271390552
 10
144.062338376401
 20
213.375
 10
145.19874008465882
 20
215.77078189532278
  0
LWPOLYLINE
  5
58
330
17
100
AcDbEntity
  8
PASS_05
100
AcDbPolyline
 90
4
 70
1
 10
141.6111069458547
 20
214.5619306740704
 10
141.62915987975583
 20
214.375
 10
143.0
 20
212.92059486159073
 10
143.1661917769564
 20
212.99168181381606
  0
LWPOLYLINE
  5
59
330
17
100
AcDbEntity
  8
PASS_05
100
AcDbPolyline
 90
3
 70
1
 10
141.7198201241493
 20
215.8269400450967
 10
141.50844043395784
 20
215.625
 10
141.58223721126433
 20
214.86086485157116
  0
LWPOLYLINE
  5
5A
330
17
100
AcDbEntity
  8
PASS_05
100
AcDbPolyline
 90
3
 70
1
 10
145.16370149658118
 20
219.0221411205156
 10
145.0
 20
218.96063596193113
 10
143.99842372403276
 20
218.00378737277177
  0
LWPOLYLINE
  5
5B
330
17
100
AcDbEntity
  8
PASS_05
100
AcDbPolyline
 90
3
 70
1
 10
147.0
 20
218.6314602597369
 10
147.35537629992137
 20
218.8938128589008
 10
146.0
 20
219.3363512722305
  0
LWPOLYLINE
  5
5C
330
17
100
AcDbEntity
  8
PASS_05
100
AcDbPolyline
 90
3
 70
1
 10
147.5
 20
219.00057969626366
 10
147.48170452171482
 20
219.17681607675368
 10
147.4297828023889
 20
218.94874263143026
  0
LWPOLYLINE
  5
5D
330
17
100
AcDbEntity
  8
PASS_05
100
AcDbPolyline
 90
7
 70
1
 10
175.25
 20
250.90525727786377
 10
173.75
 20
252.45551478682552
 10
173.28304846337497
 20
252.125
 10
176.85158843980346
 20
248.625
 10
178.0
 20
248.46839942500145
 10
180.2514511491809
 20
250.125
 10
179.25
 20
251.14569491722034
  0
LWPOLYLINE
  5
5E
330
17
100
AcDbEntity
  8
PASS_05
100
AcDbPolyline
 90
8
 70
1
 10
165.45016681360093
 20
244.375
 10
164.0
 20
246.00427853644547
 10
161.0
 20
247.22812921205056
 10
160.16519544306013
 20
243.375
 10
160.49571335251852
 20
242.875
 10
161.4553770422039
 20
242.875
 10
161.75
 20
244.43927886424265
 10
164.0
 20
243.7072903105615
  0
LWPOLYLINE
  5
5F
330
17
100
AcDbEntity
  8
PASS_05
100
AcDbPolyline
 90
5
 70
1
 10
160.25
 20
252.27652754604506
 10
160.88975216343695
 20
255.625
 10
159.75
 20
256.1153976142549
 10
157.72725043921218
 20
252.875
 10
158.75
 20
252.02829965766745
  0
LWPOLYLINE
  5
60
330
17
100
AcDbEntity
  8
PASS_05
100
AcDbPolyline
 90
6
 70
1
 10
155.35951979166794
 20
257.875
 10
155.4355723637673
 20
255.125
 10
156.25
 20
255.14660643961665
 10
158.45827104938078
 20
258.125
 10
158.0
 20
259.8796257158723
 10
156.0
 20
259.265160075492
  0
LWPOLYLINE
  5
61
330
17
100
AcDbEntity
  8
PASS_05
100
AcDbPolyline
 90
6
 70
1
 10
155.25
 20
244.48431558231414
 10
157.0
 20
243.8755523253644
 10
157.82042866509408
 20
244.875
 10
157.05534942208394
 20
248.125
 10
154.5
 20
247.7216009946945
 10
154.59127452567046
 20
245.625
  0
LWPOLYLINE
  5
62
330
17
100
AcDbEntity
  8
PASS_05
100
AcDbPolyline
 90
3
 70
1
 10
68.09265189407405
 20
273.125
 10
68.75
 20
271.9343467321371
 10
68.17290296463976
 20
273.2417388235758
  0
LWPOLYLINE
  5
63
330
17
100
AcDbEntity
  8
PASS_05
100
AcDbPolyline
 90
3
 70
1
 10
71.25
 20
270.8275429991537
 10
71.75369107198121
 20
270.99493257211634
 10
71.1643161114824
 20
270.93536731204546
  0
LWPOLYLINE
  5
64
330
17
100
AcDbEntity
  8
PASS_05
100
AcDbPolyline
 90
3
 70
1
 10
73.45680135091143
 20
269.375
 10
73.04065741914283
 20
271.125
 10
72.83052158683134
 20
271.1037625936955
  0
LWPOLYLINE
  5
65
330
17
100
AcDbEntity
  8
PASS_05
100
AcDbPolyline
 90
3
 70
1
 10
58.97531358896324
 20
252.875
 10
58.55320267894563
 20
253.1614139237705
 10
58.91835396641015
 20
252.69885416303364
  0
LWPOLYLINE
  5
66
330
17
100
AcDbEntity
  8
PASS_05
100
AcDbPolyline
 90
3
 70
1
 10
58.0
 20
253.5367772374327
 10
57.887771942915684
 20
253.34906316571875
 10
58.1039071609417
 20
253.46627335571137
  0
LWPOLYLINE
  5
67
330
17
100
AcDbEntity
  8
PASS_05
100
AcDbPolyline
 90
3
 70
1
 10
175.96815165300558
 20
264.25382482247335
 10
175.94127775378178
 20
265.125
 10
175.1810335874824
 20
266.375
  0
LWPOLYLINE
  5
68
330
17
100
AcDbEntity
  8
PASS_05
100
AcDbPolyline
 90
4
 70
1
 10
174.17594779529165
 20
264.9139897500896
 10
174.25
 20
264.26360484572933
 10
176.0
 20
263.2213922336734
 10
175.9884068451911
 20
263.5972092528055
  0
LWPOLYLINE
  5
69
330
17
100
AcDbEntity
  8
PASS_05
100
AcDbPolyline
 90
3
 70
1
 10
172.13085774403464
 20
266.47711535411037
 10
172.25
 20
266.39992095780997
 10
173.95266903914592
 20
266.875
  0
LWPOLYLINE
  5
6A
330
17
100
AcDbEntity
  8
PASS_05
100
AcDbPolyline
 90
3
 70
1
 10
170.77894388230015
 20
267.4694780230665
 10
170.74505764150376
 20
267.375
 10
171.39762579283683
 20
266.9521894356131
  0
LWPOLYLINE
  5
6B
330
17
100
AcDbEntity
  8
PASS_05
100
AcDbPolyline
 90
3
 70
1
 10
172.00162045521594
 20
270.87396641718954
 10
172.0
 20
270.8738972015386
 10
171.9923850371836
 20
270.85266596975515
  0
LWPOLYLINE
  5
6C
330
17
100
AcDbEntity
  8
PASS_05
100
AcDbPolyline
 90
3
 70
1
 10
177.14787748606565
 20
268.99170521618726
 10
177.13768394993804
 20
269.125
 10
174.25
 20
269.92159524594797
  0
LWPOLYLINE
  5
6D
330
17
100
AcDbEntity
  8
PASS_05
100
AcDbPolyline
 90
3
 70
1
 10
208.46773198101388
 20
268.07598001692776
 10
208.6507018276914
 20
268.125
 10
208.07052844080724
 20
270.125
  0
LWPOLYLINE
  5
6E
330
17
100
AcDbEntity
  8
PASS_05
100
AcDbPolyline
 90
3
 70
1
 10
206.0
 20
270.57560531705
 10
205.82408161948143
 20
270.42220891123304
 10
207.295625042393
 20
269.875
  0
LWPOLYLINE
  5
6F
330
17
100
AcDbEntity
  8
PASS_05
100
AcDbPolyline
 90
3
 70
1
 10
199.75
 20
263.71494694278886
 10
198.8969877655081
 20
263.01458127208247
 10
201.25
 20
263.95196767663435
  0
LWPOLYLINE
  5
70
330
17
100
AcDbEntity
  8
PASS_05
100
AcDbPolyline
 90
3
 70
1
 10
197.67878899311842
 20
262.8156014474904
 10
198.0
 20
262.65724180562694
 10
198.19656422958704
 20
262.7355485112765
  0
LWPOLYLINE
  5
71
330
17
100
AcDbEntity
  8
PASS_05
100
AcDbPolyline
 90
3
 70
1
 10
194.39931671030575
 20
264.7856658546625
 10
194.75
 20
264.2595182688556
 10
196.41999913422424
 20
263.4361950976618
  0
LWPOLYLINE
  5
72
330
17
100
AcDbEntity
  8
PASS_05
100
AcDbPolyline
 90
3
 70
1
 10
193.15729000265836
 20
266.80272555795955
 10
193.17337979387074
 20
266.625
 10
193.35277679201565
 20
266.3558417587925
  0
LWPOLYLINE
  5
73
330
17
100
AcDbEntity
  8
PASS_05
100
AcDbPolyline
 90
3
 70
1
 10
193.04186720993
 20
268.5704556341363
 10
193.0
 20
268.54012867991156
 10
193.01711233839626
 20
268.35110821038995
  0
LWPOLYLINE
  5
74
330
17
100
AcDbEntity
  8
PASS_05
100
AcDbPolyline
 90
3
 70
1
 10
216.19355775394652
 20
285.0516916402092
 10
216.75
 20
284.61513858035426
 10
216.7357642625975
 20
284.93119026655165
  0
LWPOLYLINE
  5
75
330
17
100
AcDbEntity
  8
PASS_05
100
AcDbPolyline
 90
3
 70
1
 10
212.43579257416624
 20
287.5010879795872
 10
212.60040204492748
 20
287.125
 10
213.2579114942813
 20
286.9179462315945
  0
LWPOLYLINE
  5
76
330
17
100
AcDbEntity
  8
PASS_05
100
AcDbPolyline
 90
3
 70
1
 10
213.11328735518114
 20
288.65748284063073
 10
212.25
 20
287.9255736031503
 10
212.33981567197296
 20
287.72036916107686
  0
LWPOLYLINE
  5
77
330
17
100
AcDbEntity
  8
PASS_05
100
AcDbPolyline
 90
4
 70
1
 10
216.6109351674712
 20
287.70255678489156
 10
216.60316790523427
 20
287.875
 10
214.25
 20
289.62120654179523
 10
214.09804941131443
 20
289.4923803301844
  0
LWPOLYLINE
  5
78
330
17
100
AcDbEntity
  8
PASS_05
100
AcDbPolyline
 90
3
 70
1
 10
240.87882073184593
 20
297.875
 10
240.90298759421034
 20
297.758609246468
 10
241.01320585830607
 20
297.92769185092703
  0
LWPOLYLINE
  5
79
330
17
100
AcDbEntity
  8
PASS_05
100
AcDbPolyline
 90
3
 70
1
 10
247.04500147970336
 20
284.125
 10
245.8035362668794
 20
288.375
 10
245.6876662838685
 20
288.45930182112716
  0
LWPOLYLINE
  5
7A
330
17
100
AcDbEntity
  8
PASS_05
100
AcDbPolyline
 90
3
 70
1
 10
250.63825513449157
 20
278.0175644293145
 10
250.75
 20
278.1020978396059
 10
250.98356125510122
 20
279.375
  0
LWPOLYLINE
  5
7B
330
17
100
AcDbEntity
  8
PASS_05
100
AcDbPolyline
 90
3
 70
1
 10
247.5001180016483
 20
276.38988733015617
 10
248.5
 20
276.40000466252593
 10
248.76315625226115
 20
276.59907864540577
  0
LWPOLYLINE
  5
7C
330
17
100
AcDbEntity
  8
PASS_05
100
AcDbPolyline
 90
3
 70
1
 10
246.032144911535
 20
276.54015392398105
 10
246.0288237036384
 20
276.375
 10
246.27307251526557
 20
276.37747143804194
  0
LWPOLYLINE
  5
7D
330
17
100
AcDbEntity
  8
PASS_05
100
AcDbPolyline
 90
3
 70
1
 10
242.53660351251992
 20
279.6555595703726
 10
242.8847238032243
 20
280.375
 10
242.5
 20
281.78491846405797
  0
LWPOLYLINE
  5
7E
330
17
100
AcDbEntity
  8
PASS_05
100
AcDbPolyline
 90
3
 70
1
 10
241.78365540788423
 20
279.237250357844
 10
242.5
 20
279.57991317033105
 10
242.51673922711373
 20
279.61450718012566
  0
LWPOLYLINE
  5
7F
330
17
100
AcDbEntity
  8
PASS_05
100
AcDbPolyline
 90
3
 70
1
 10
240.12863970577123
 20
279.875
 10
239.45847012402606
 20
278.125
 10
239.53442884665947
 20
278.1613347888948
  0
LWPOLYLINE
  5
80
330
17
100
AcDbEntity
  8
PASS_05
100
AcDbPolyline
 90
10
 70
1
 10
252.75
 20
305.6027239753438
 10
254.65114398263256
 20
305.375
 10
253.75
 20
306.71787339686307
 10
252.46764168106137
 20
306.625
 10
251.75
 20
308.7261811108092
 10
251.0
 20
307.6605731019703
 10
251.85316681326134
 20
306.375
 10
250.9256311569363
 20
305.375
 10
251.0
 20
303.9883968099874
 10
253.0
 20
304.12082781568097
  0
LWPOLYLINE
  5
81
330
17
100
AcDbEntity
  8
PASS_05
100
AcDbPolyline
 90
15
 70
1
 10
239.75
 20
304.07321742399733
 10
236.96167101287224
 20
304.375
 10
238.89804597947864
 20
302.625
 10
239.32422873196867
 20
301.125
 10
240.80854970277557
 20
299.625
 10
242.0
 20
299.7807238338104
 10
242.25
 20
302.0549543006159
 10
246.75
 20
300.94022546102474
 10
245.91994696973242
 20
303.375
 10
247.5128721793528
 20
304.125
 10
245.0
 20
306.3031590681941
 10
244.42621112419548
 20
305.625
 10
244.75
 20
304.36394182403035
 10
241.5
 20
306.19048884528274
 10
240.78795937614086
 20
304.625
  0
LWPOLYLINE
  5
82
330
17
100
AcDbEntity
  8
PASS_05
100
AcDbPolyline
 90
3
 70
1
 10
210.85103755750552
 20
305.47103920335945
 10
210.64084340741684
 20
305.375
 10
211.5880529905318
 20
304.125
  0
LWPOLYLINE
  5
83
330
17
100
AcDbEntity
  8
PASS_05
100
AcDbPolyline
 90
3
 70
1
 10
213.42303440098772
 20
304.83488563297925
 10
211.25
 20
305.6533279831915
 10
211.05198257309482
 20
305.5628524113298
  0
LWPOLYLINE
  5
84
330
17
100
AcDbEntity
  8
PASS_05
100
AcDbPolyline
 90
3
 70
1
 10
216.64380318341497
 20
301.875
 10
215.97161280841846
 20
303.875
 10
215.81185201131967
 20
303.9351716209324
  0
LWPOLYLINE
  5
85
330
17
100
AcDbEntity
  8
PASS_05
100
AcDbPolyline
 90
3
 70
1
 10
218.6159910186712
 20
292.98355393428045
 10
218.7604588722228
 20
293.125
 10
217.41108604538417
 20
295.625
  0
LWPOLYLINE
  5
86
330
17
100
AcDbEntity
  8
PASS_05
100
AcDbPolyline
 90
3
 70
1
 10
214.5
 20
297.35120437613074
 10
214.33080022866596
 20
297.2833134866577
 10
215.6552586611272
 20
297.375
  0
LWPOLYLINE
  5
87
330
17
100
AcDbEntity
  8
PASS_05
100
AcDbPolyline
 90
3
 70
1
 10
213.0
 20
296.7493339752035
 10
212.18142188333593
 20
295.625
 10
214.18254658242276
 20
297.22382716565545
  0
LWPOLYLINE
  5
88
330
17
100
AcDbEntity
  8
PASS_05
100
AcDbPolyline
 90
3
 70
1
 10
211.533265105513
 20
290.99804657310466
 10
211.8808416018763
 20
291.375
 10
212.18142188333593
 20
295.625
  0
LWPOLYLINE
  5
89
330
17
100
AcDbEntity
  8
PASS_05
100
AcDbPolyline
 90
3
 70
1
 10
210.8365993671653
 20
290.51578813483445
 10
211.0
 20
290.4197102613284
 10
211.21854131170377
 20
290.65672253697676
  0
LWPOLYLINE
  5
8A
330
17
100
AcDbEntity
  8
PASS_05
100
AcDbPolyline
 90
4
 70
1
 10
210.67412609359633
 20
293.625
 10
210.58382853899863
 20
293.7671608720501
 10
209.80050644934911
 20
291.125
 10
209.89304658838225
 20
291.07058736023225
  0
LWPOLYLINE
  5
8B
330
17
100
AcDbEntity
  8
PASS_05
100
AcDbPolyline
 90
3
 70
1
 10
209.1845981089794
 20
293.125
 10
209.22042815647032
 20
292.36835347903946
 10
209.43598498390045
 20
293.40053104578107
  0
LWPOLYLINE
  5
8C
330
17
100
AcDbEntity
  8
PASS_05
100
AcDbPolyline
 90
4
 70
1
 10
207.19382235521593
 20
288.88402247476836
 10
207.25
 20
288.8301543315198
 10
208.5
 20
288.91863773390156
 10
208.53624566541598
 20
289.0921973616806
  0
LWPOLYLINE
  5
8D
330
17
100
AcDbEntity
  8
PASS_05
100
AcDbPolyline
 90
3
 70
1
 10
205.79414861643025
 20
293.375
 10
206.42107672681428
 20
289.625
 10
206.92262246245969
 20
289.144073153791
  0
LWPOLYLINE
  5
8E
330
17
100
AcDbEntity
  8
PASS_05
100
AcDbPolyline
 90
4
 70
1
 10
206.30973725175556
 20
297.625
 10
206.22081676269022
 20
297.7948986456283
 10
204.71205713943218
 20
295.875
 10
204.7838230131793
 20
295.70919637971315
  0
LWPOLYLINE
  5
8F
330
17
100
AcDbEntity
  8
PASS_05
100
AcDbPolyline
 90
3
 70
1
 10
204.96746951818147
 20
301.79779374115043
 10
204.8272156049353
 20
301.625
 10
205.00130290937844
 20
300.125
  0
LWPOLYLINE
  5
90
330
17
100
AcDbEntity
  8
PASS_05
100
AcDbPolyline
 90
3
 70
1
 10
68.96062129942985
 20
301.23664955950807
 10
68.91742927789252
 20
301.375
 10
68.69547347469512
 20
301.4725418289747
  0
LWPOLYLINE
  5
91
330
17
100
AcDbEntity
  8
PASS_05
100
AcDbPolyline
 90
3
 70
1
 10
68.86116567367489
 20
299.16993993591154
 10
69.3076703694978
 20
300.125
 10
69.06170791951193
 20
300.9128541473365
  0
LWPOLYLINE
  5
92
330
17
100
AcDbEntity
  8
PASS_05
100
AcDbPolyline
 90
3
 70
1
 10
68.56834118069493
 20
296.625
 10
68.63000214613379
 20
296.5475097471297
 10
68.62365932231593
 20
297.1057703971721
  0
LWPOLYLINE
  5
93
330
17
100
AcDbEntity
  8
PASS_05
100
AcDbPolyline
 90
3
 70
1
 10
300.7770510048333
 20
358.0
 10
299.8601009234275
 20
358.91668749823106
 10
301.75
 20
356.093848116335
  0
LWPOLYLINE
  5
94
330
17
100
AcDbEntity
  8
PASS_05
100
AcDbPolyline
 90
3
 70
1
 10
303.5
 20
356.6824278860939
 10
303.35579378591865
 20
356.6339268230757
 10
303.68332772011456
 20
356.527513415657
  0
LWPOLYLINE
  5
95
330
17
100
AcDbEntity
  8
PASS_05
100
AcDbPolyline
 90
3
 70
1
 10
325.0
 20
353.6308256593198
 10
322.4714306868799
 20
351.625
 10
326.22358219014825
 20
354.0141344375946
  0
LWPOLYLINE
  5
96
330
17
100
AcDbEntity
  8
PASS_05
100
AcDbPolyline
 90
3
 70
1
 10
326.5
 20
354.10072720908204
 10
326.4518321886251
 20
354.0856377896062
 10
329.25
 20
352.0510523821897
  0
LWPOLYLINE
  5
97
330
17
100
AcDbEntity
  8
PASS_05
100
AcDbPolyline
 90
3
 70
1
 10
356.5390673617177
 20
326.70252388651716
 10
356.16892145547337
 20
326.92694248927535
 10
356.25
 20
326.734047200037
  0
LWPOLYLINE
  5
98
330
17
100
AcDbEntity
  8
PASS_05
100
AcDbPolyline
 90
3
 70
1
 10
366.2992382944869
 20
331.625
 10
364.0
 20
330.9431878303578
 10
366.4503858787083
 20
331.51995310367204
  0
LWPOLYLINE
  5
99
330
17
100
AcDbEntity
  8
PASS_05
100
AcDbPolyline
 90
3
 70
1
 10
370.5254861422313
 20
327.6376600943473
 10
369.5
 20
328.1753948677691
 10
370.5
 20
327.5969870587815
  0
LWPOLYLINE
  5
9A
330
17
100
AcDbEntity
  8
PASS_05
100
AcDbPolyline
 90
3
 70
1
 10
379.1332087278952
 20
344.47201024002726
 10
379.1533715148538
 20
341.875
 10
379.2566070030891
 20
344.375
  0
LWPOLYLINE
  5
9B
330
17
100
AcDbEntity
  8
PASS_05
100
AcDbPolyline
 90
3
 70
1
 10
373.43446578044865
 20
349.125
 10
373.5314113581196
 20
349.0484311757623
 10
373.75
 20
350.07725356449725
  0
LWPOLYLINE
  5
9C
330
17
100
AcDbEntity
  8
PASS_05
100
AcDbPolyline
 90
3
 70
1
 10
375.06035653992836
 20
350.875
 10
375.8343535051531
 20
349.69631684037535
 10
376.22457449672464
 20
349.625
  0
LWPOLYLINE
  5
9D
330
17
100
AcDbEntity
  8
PASS_05
100
AcDbPolyline
 90
3
 70
1
 10
375.04494634500116
 20
352.94965485139073
 10
376.1509308083503
 20
352.2950348898883
 10
376.0
 20
352.5781611512725
  0
LWPOLYLINE
  5
9E
330
17
100
AcDbEntity
  8
PASS_05
100
AcDbPolyline
 90
3
 70
1
 10
373.1410256869623
 20
352.125
 10
374.41032988335894
 20
353.1965059222781
 10
374.25
 20
353.25887052482875
  0
LWPOLYLINE
  5
9F
330
17
100
AcDbEntity
  8
PASS_05
100
AcDbPolyline
 90
3
 70
1
 10
371.8713904145663
 20
352.0066890353456
 10
372.0
 20
351.98661635010114
 10
373.1410256869623
 20
352.125
  0
LWPOLYLINE
  5
A0
330
17
100
AcDbEntity
  8
PASS_05
100
AcDbPolyline
 90
3
 70
1
 10
366.2837626241195
 20
355.375
 10
366.3088868002463
 20
355.520917037475
 10
365.73781205162373
 20
355.16298715226065
  0
LWPOLYLINE
  5
A1
330
17
100
AcDbEntity
  8
PASS_05
100
AcDbPolyline
 90
3
 70
1
 10
364.3524507544007
 20
354.625
 10
364.4267079456788
 20
354.6538368203664
 10
364.2390632762048
 20
355.625
  0
LWPOLYLINE
  5
A2
330
17
100
AcDbEntity
  8
PASS_05
100
AcDbPolyline
 90
3
 70
1
 10
348.7788915360296
 20
356.375
 10
348.75911362999466
 20
357.6889929141188
 10
348.5
 20
357.63110201378834
  0
LWPOLYLINE
  5
A3
330
17
100
AcDbEntity
  8
PASS_05
100
AcDbPolyline
 90
3
 70
1
 10
342.25
 20
347.69653021266714
 10
342.3769174512403
 20
347.750248801878
 10
342.2312822260995
 20
347.78733797386445
  0
LWPOLYLINE
  5
A4
330
17
100
AcDbEntity
  8
PASS_05
100
AcDbPolyline
 90
3
 70
1
 10
355.8508624858427
 20
372.125
 10
356.16830298588104
 20
373.27415623848685
 10
356.0216766238029
 20
373.125
  0
LWPOLYLINE
  5
A5
330
17
100
AcDbEntity
  8
PASS_05
100
AcDbPolyline
 90
3
 70
1
 10
356.4167687078421
 20
371.375
 10
356.64628231378674
 20
371.36872416530724
 10
355.8508624858427
 20
372.125
  0
LWPOLYLINE
  5
A6
330
17
100
AcDbEntity
  8
PASS_05
100
AcDbPolyline
 90
3
 70
1
 10
359.3850031111681
 20
369.621350963695
 10
358.6962810540673
 20
369.8369959848266
 10
358.75
 20
369.72167709934723
  0
LWPOLYLINE
  5
A7
330
17
100
AcDbEntity
  8
PASS_05
100
AcDbPolyline
 90
3
 70
1
 10
362.0
 20
372.9780060753471
 10
360.04936130808954
 20
369.51638692586
 10
360.25
 20
369.48468738885356
  0
LWPOLYLINE
  5
A8
330
17
100
AcDbEntity
  8
PASS_05
100
AcDbPolyline
 90
3
 70
1
 10
362.0234102928335
 20
368.90514988111596
 10
361.76019006123585
 20
369.0390278385116
 10
361.75
 20
368.8716518338017
  0
LWPOLYLINE
  5
A9
330
17
100
AcDbEntity
  8
PASS_05
100
AcDbPolyline
 90
3
 70
1
 10
363.0
 20
370.25108305692817
 10
362.3283299932925
 20
368.9425084401049
 10
362.5
 20
368.96354133520015
  0
LWPOLYLINE
  5
AA
330
17
100
AcDbEntity
  8
PASS_05
100
AcDbPolyline
 90
3
 70
1
 10
365.25
 20
371.05572431841523
 10
365.0053385599966
 20
370.9682289007612
 10
365.4025117850894
 20
370.907305447622
  0
LWPOLYLINE
  5
AB
330
17
100
AcDbEntity
  8
PASS_05
100
AcDbPolyline
 90
3
 70
1
 10
365.69260230745493
 20
370.625
 10
365.6019005109653
 20
370.71326765883055
 10
365.5
 20
369.24408100578216
  0
LWPOLYLINE
  5
AC
330
17
100
AcDbEntity
  8
PASS_05
100
AcDbPolyline
 90
3
 70
1
 10
366.4118773260808
 20
371.625
 10
366.49417632365
 20
369.5578849714705
 10
366.70680643550565
 20
369.625
  0
LWPOLYLINE
  5
AD
330
17
100
AcDbEntity
  8
PASS_05
100
AcDbPolyline
 90
3
 70
1
 10
358.25
 20
381.35275629829
 10
357.96683869737797
 20
380.875
 10
358.3991580157908
 20
381.3220904197049
  0
LWPOLYLINE
  5
AE
330
17
100
AcDbEntity
  8
PASS_05
100
AcDbPolyline
 90
3
 70
1
 10
362.5
 20
379.4489307945167
 10
360.0
 20
380.99296814182173
 10
362.51413179211016
 20
379.42575526259617
  0
LWPOLYLINE
  5
AF
330
17
100
AcDbEntity
  8
PASS_05
100
AcDbPolyline
 90
3
 70
1
 10
365.75
 20
389.4456986958782
 10
369.25
 20
388.41230283716783
 10
365.71537555897294
 20
389.5184035086472
  0
LWPOLYLINE
  5
B0
330
17
100
AcDbEntity
  8
PASS_05
100
AcDbPolyline
 90
3
 70
1
 10
365.1883776410044
 20
390.625
 10
365.33485582285874
 20
390.3174233728957
 10
365.2731410151173
 20
390.5908323172784
  0
LWPOLYLINE
  5
B1
330
17
100
AcDbEntity
  8
PASS_05
100
AcDbPolyline
 90
3
 70
1
 10
367.61417367525223
 20
389.6471740213511
 10
366.4792274143704
 20
390.1046650562908
 10
367.5
 20
389.6158091107986
  0
LWPOLYLINE
  5
B2
330
17
100
AcDbEntity
  8
PASS_05
100
AcDbPolyline
 90
3
 70
1
 10
377.75
 20
396.9819624057424
 10
377.75
 20
395.74576635449563
 10
377.92561275537486
 20
397.0705380334445
  0
LWPOLYLINE
  5
B3
330
17
100
AcDbEntity
  8
PASS_05
100
AcDbPolyline
 90
3
 70
1
 10
401.93547452405517
 20
393.625
 10
401.77195880797706
 20
393.66101623747954
 10
401.8790940862774
 20
393.46821607211825
  0
LWPOLYLINE
  5
B4
330
17
100
AcDbEntity
  8
PASS_05
100
AcDbPolyline
 90
3
 70
1
 10
408.0285776413672
 20
389.7225664494264
 10
407.9444215927578
 20
389.20107514931266
 10
408.0
 20
389.1824909569221
  0
LWPOLYLINE
  5
B5
330
17
100
AcDbEntity
  8
PASS_05
100
AcDbPolyline
 90
3
 70
1
 10
408.25
 20
391.09465836184114
 10
408.22373543424106
 20
390.93190425478775
 10
409.26853578194977
 20
391.375
  0
LWPOLYLINE
  5
B6
330
17
100
AcDbEntity
  8
PASS_05
100
AcDbPolyline
 90
3
 70
1
 10
410.379863768837
 20
392.9289742142636
 10
410.1573681138532
 20
392.875
 10
409.26853578194977
 20
391.375
  0
LWPOLYLINE
  5
B7
330
17
100
AcDbEntity
  8
PASS_05
100
AcDbPolyline
 90
3
 70
1
 10
418.0
 20
363.9403571999277
 10
414.8557649930865
 20
366.4720356968054
 10
414.6330770750338
 20
366.375
  0
LWPOLYLINE
  5
B8
330
17
100
AcDbEntity
  8
PASS_05
100
AcDbPolyline
 90
3
 70
1
 10
423.88585669500895
 20
360.625
 10
423.8026891974062
 20
360.6375550706537
 10
423.8936226437838
 20
360.4661713747643
  0
LWPOLYLINE
  5
B9
330
17
100
AcDbEntity
  8
PASS_05
100
AcDbPolyline
 90
3
 70
1
 10
423.92252805429604
 20
359.875
 10
423.9161660423289
 20
360.00511541072166
 10
423.0832099920486
 20
359.375
  0
LWPOLYLINE
  5
BA
330
17
100
AcDbEntity
  8
PASS_05
100
AcDbPolyline
 90
3
 70
1
 10
427.0101844333294
 20
361.0401826110018
 10
424.0
 20
358.74416715961445
 10
427.0549442792314
 20
360.875
  0
LWPOLYLINE
  5
BB
330
17
100
AcDbEntity
  8
PASS_05
100
AcDbPolyline
 90
3
 70
1
 10
426.9056927226231
 20
363.48366525134145
 10
426.6484864296685
 20
362.375
 10
427.00369434046604
 20
363.375
  0
LWPOLYLINE
  5
BC
330
17
100
AcDbEntity
  8
PASS_05
100
AcDbPolyline
 90
3
 70
1
 10
425.3900853876071
 20
363.625
 10
426.778227559151
 20
363.625
 10
426.5
 20
363.9335017197747
  0
LWPOLYLINE
  5
BD
330
17
100
AcDbEntity
  8
PASS_05
100
AcDbPolyline
 90
3
 70
1
 10
429.5009099628894
 20
391.375
 10
429.6621529983452
 20
391.1740557057314
 10
430.51029121811695
 20
392.1904977637229
  0
LWPOLYLINE
  5
BE
330
17
100
AcDbEntity
  8
PASS_05
100
AcDbPolyline
 90
3
 70
1
 10
430.9844629415555
 20
393.1698619944276
 10
430.7934871269237
 20
392.52989083156484
 10
430.872847991782
 20
392.625
  0
LWPOLYLINE
  5
BF
330
17
100
AcDbEntity
  8
PASS_05
100
AcDbPolyline
 90
3
 70
1
 10
431.75
 20
395.7352216052871
 10
431.7276407892578
 20
395.6602945778676
 10
433.25
 20
395.4849171627124
  0
LWPOLYLINE
  5
C0
330
17
100
AcDbEntity
  8
PASS_05
100
AcDbPolyline
 90
4
 70
1
 10
436.9469572671487
 20
392.80899951910624
 10
436.1338268516868
 20
395.125
 10
436.02833892247475
 20
395.1815595047282
 10
436.5
 20
393.17027939388674
  0
LWPOLYLINE
  5
C1
330
17
100
AcDbEntity
  8
PASS_05
100
AcDbPolyline
 90
3
 70
1
 10
438.2092247633692
 20
392.79291078968
 10
437.1176204106
 20
392.67105085235994
 10
437.25
 20
392.5640471520129
  0
LWPOLYLINE
  5
C2
330
17
100
AcDbEntity
  8
PASS_05
100
AcDbPolyline
 90
3
 70
1
 10
193.0
 20
109.2096766655866
 10
191.75
 20
110.36237164641452
 10
191.63896147398842
 20
110.24519008787381
  0
LWPOLYLINE
  5
C3
330
17
100
AcDbEntity
  8
PASS_05
100
AcDbPolyline
 90
3
 70
1
 10
191.4346725155104
 20
116.69455443332306
 10
193.25
 20
116.12019008911051
 10
191.5
 20
116.80684623763274
  0
LWPOLYLINE
  5
C4
330
17
100
AcDbEntity
  8
PASS_05
100
AcDbPolyline
 90
3
 70
1
 10
141.01301699790335
 20
152.625
 10
140.50470591095734
 20
154.14817335396754
 10
140.49387536312082
 20
154.125
  0
LWPOLYLINE
  5
C5
330
17
100
AcDbEntity
  8
PASS_05
100
AcDbPolyline
 90
3
 70
1
 10
199.16331411438668
 20
111.05332046308699
 10
198.89168784991384
 20
110.92324013214711
 10
199.20347935888776
 20
110.875
  0
LWPOLYLINE
  5
C6
330
17
100
AcDbEntity
  8
PASS_05
100
AcDbPolyline
 90
3
 70
1
 10
195.20516941119416
 20
114.4656232152969
 10
196.51642360145925
 20
117.375
 10
195.1401178287425
 20
114.625
  0
LWPOLYLINE
  5
C7
330
17
100
AcDbEntity
  8
PASS_05
100
AcDbPolyline
 90
3
 70
1
 10
101.61799797471089
 20
151.96138210435535
 10
101.5
 20
152.03157239697217
 10
101.53053507663816
 20
151.8592372746867
  0
LWPOLYLINE
  5
C8
330
17
100
AcDbEntity
  8
PASS_05
100
AcDbPolyline
 90
3
 70
1
 10
101.6417073313839
 20
151.23179872775282
 10
102.25
 20
147.7986915286598
 10
102.12279454618157
 20
150.625
  0
LWPOLYLINE
  5
C9
330
17
100
AcDbEntity
  8
PASS_05
100
AcDbPolyline
 90
3
 70
1
 10
92.25
 20
144.82524059371127
 10
91.3330375448488
 20
144.375
 10
91.3774125525248
 20
144.18978430443914
  0
LWPOLYLINE
  5
CA
330
17
100
AcDbEntity
  8
PASS_05
100
AcDbPolyline
 90
3
 70
1
 10
122.63221113651676
 20
181.1022004470941
 10
122.8174829269196
 20
182.875
 10
122.42917198457103
 20
183.5238225989346
  0
LWPOLYLINE
  5
CB
330
17
100
AcDbEntity
  8
PASS_05
100
AcDbPolyline
 90
4
 70
1
 10
122.13040110018244
 20
187.7276978306781
 10
122.08531174161017
 20
187.625
 10
122.330771993089
 20
184.69742678724154
 10
122.52479100317397
 20
186.125
  0
LWPOLYLINE
  5
CC
330
17
100
AcDbEntity
  8
PASS_05
100
AcDbPolyline
 90
3
 70
1
 10
123.56431190951766
 20
163.43791689538628
 10
123.55502089885964
 20
164.54668440344577
 10
123.4691176219593
 20
163.875
  0
LWPOLYLINE
  5
CD
330
17
100
AcDbEntity
  8
PASS_05
100
AcDbPolyline
 90
3
 70
1
 10
122.81031654956271
 20
174.02135736530136
 10
123.40744885671064
 20
176.12569232159632
 10
122.77466828095086
 20
174.125
  0
LWPOLYLINE
  5
CE
330
17
100
AcDbEntity
  8
PASS_05
100
AcDbPolyline
 90
3
 70
1
 10
124.35719974267654
 20
179.47267918729787
 10
124.4004227467156
 20
179.625
 10
124.11657030127711
 20
179.77424008544142
  0
LWPOLYLINE
  5
CF
330
17
100
AcDbEntity
  8
PASS_05
100
AcDbPolyline
 90
3
 70
1
 10
123.9528792570872
 20
179.86030334053567
 10
123.92492642714619
 20
179.875
 10
123.17939293964231
 20
178.875
  0
LWPOLYLINE
  5
D0
330
17
100
AcDbEntity
  8
PASS_05
100
AcDbPolyline
 90
3
 70
1
 10
70.38688214421795
 20
309.625
 10
70.221237326701
 20
309.625
 10
70.4252363549823
 20
308.65371238898837
  0
LWPOLYLINE
  5
D1
330
17
100
AcDbEntity
  8
PASS_05
100
AcDbPolyline
 90
3
 70
1
 10
50.43157106280686
 20
186.02322698061596
 10
50.46684718093434
 20
185.875
 10
53.957057731880695
 20
183.375
  0
LWPOLYLINE
  5
D2
330
17
100
AcDbEntity
  8
PASS_05
100
AcDbPolyline
 90
3
 70
1
 10
50.25
 20
188.01607308384357
 10
50.0
 20
187.8366486085261
 10
50.25
 20
186.78617176693947
  0
LWPOLYLINE
  5
D3
330
17
100
AcDbEntity
  8
PASS_05
100
AcDbPolyline
 90
3
 70
1
 10
53.53438276576349
 20
189.25969940497953
 10
51.44678058781661
 20
188.875
 10
50.40246269078655
 20
188.12549523704303
  0
LWPOLYLINE
  5
D4
330
17
100
AcDbEntity
  8
PASS_05
100
AcDbPolyline
 90
3
 70
1
 10
54.25
 20
189.5188554595044
 10
53.8200782196761
 20
191.125
 10
54.139870698655365
 20
189.4789728604576
  0
LWPOLYLINE
  5
D5
330
17
100
AcDbEntity
  8
PASS_05
100
AcDbPolyline
 90
3
 70
1
 10
58.75
 20
193.1148572651444
 10
58.881651163820386
 20
193.18669458295304
 10
57.25
 20
194.09903075082457
  0
LWPOLYLINE
  5
D6
330
17
100
AcDbEntity
  8
PASS_05
100
AcDbPolyline
 90
3
 70
1
 10
63.56145238328666
 20
194.40240395774362
 10
63.5
 20
194.52030965698498
 10
61.5
 20
194.61543362346114
  0
LWPOLYLINE
  5
D7
330
17
100
AcDbEntity
  8
PASS_05
100
AcDbPolyline
 90
3
 70
1
 10
74.26998488776741
 20
188.375
 10
74.09226073496085
 20
190.125
 10
74.19519324136351
 20
188.23226179546054
  0
LWPOLYLINE
  5
D8
330
17
100
AcDbEntity
  8
PASS_05
100
AcDbPolyline
 90
3
 70
1
 10
74.7637225812151
 20
190.54589958323325
 10
74.75
 20
190.8686010308049
 10
74.09226073496085
 20
190.125
  0
LWPOLYLINE
  5
D9
330
17
100
AcDbEntity
  8
PASS_05
100
AcDbPolyline
 90
3
 70
1
 10
72.74421634814432
 20
180.12906975796992
 10
72.75489088874147
 20
180.125
 10
72.14467832873885
 20
181.375
  0
LWPOLYLINE
  5
DA
330
17
100
AcDbEntity
  8
PASS_05
100
AcDbPolyline
 90
3
 70
1
 10
70.24619615141332
 20
181.49804107122657
 10
70.78772097175062
 20
180.875
 10
72.692370459412
 20
180.14883643710291
  0
LWPOLYLINE
  5
DB
330
17
100
AcDbEntity
  8
PASS_05
100
AcDbPolyline
 90
3
 70
1
 10
69.25
 20
182.04750006095924
 10
68.05063359721474
 20
181.3676806604738
 10
69.4417596738554
 20
181.94173366493516
  0
LWPOLYLINE
  5
DC
330
17
100
AcDbEntity
  8
PASS_05
100
AcDbPolyline
 90
3
 70
1
 10
67.181425347123
 20
180.875
 10
66.20575420140399
 20
177.875
 10
67.41763452345043
 20
181.00888700923016
  0
LWPOLYLINE
  5
DD
330
17
100
AcDbEntity
  8
PASS_05
100
AcDbPolyline
 90
3
 70
1
 10
66.45723146090627
 20
172.875
 10
66.49139752657875
 20
172.84914534999282
 10
65.94930188866391
 20
174.625
  0
LWPOLYLINE
  5
DE
330
17
100
AcDbEntity
  8
PASS_05
100
AcDbPolyline
 90
3
 70
1
 10
70.75025875003452
 20
169.62631696181566
 10
70.75
 20
169.6285617256225
 10
70.38288154547617
 20
169.90432406791695
  0
LWPOLYLINE
  5
DF
330
17
100
AcDbEntity
  8
PASS_05
100
AcDbPolyline
 90
3
 70
1
 10
66.5
 20
169.21072397077907
 10
66.1374179474636
 20
168.99515172304046
 10
71.0
 20
167.45970809530445
  0
LWPOLYLINE
  5
E0
330
17
100
AcDbEntity
  8
PASS_05
100
AcDbPolyline
 90
3
 70
1
 10
60.61677129425839
 20
171.81391295021834
 10
60.75
 20
171.38279062139958
 10
64.75
 20
168.17026587059584
  0
LWPOLYLINE
  5
E1
330
17
100
AcDbEntity
  8
PASS_05
100
AcDbPolyline
 90
3
 70
1
 10
60.03636044029216
 20
174.45286090294206
 10
59.74806776318507
 20
174.625
 10
60.13642197248822
 20
173.36830257740354
  0
LWPOLYLINE
  5
E2
330
17
100
AcDbEntity
  8
PASS_05
100
AcDbPolyline
 90
3
 70
1
 10
62.75294889235299
 20
173.625
 10
64.30270805904235
 20
180.625
 10
62.751071102219036
 20
173.6241405343735
  0
LWPOLYLINE
  5
E3
330
17
100
AcDbEntity
  8
PASS_05
100
AcDbPolyline
 90
3
 70
1
 10
62.72712370022759
 20
183.625
 10
62.63259464476667
 20
183.6569635675458
 10
62.85453272208834
 20
183.38240615636107
  0
LWPOLYLINE
  5
E4
330
17
100
AcDbEntity
  8
PASS_05
100
AcDbPolyline
 90
3
 70
1
 10
60.25
 20
184.46260183919628
 10
60.11206270676481
 20
184.42904106471204
 10
61.07253858500721
 20
184.18447288199133
  0
LWPOLYLINE
  5
E5
330
17
100
AcDbEntity
  8
PASS_05
100
AcDbPolyline
 90
3
 70
1
 10
57.75
 20
183.85434040211294
 10
57.71639691527586
 20
183.81925325338457
 10
58.459399534755285
 20
184.02694055430354
  0
LWPOLYLINE
  5
E6
330
17
100
AcDbEntity
  8
PASS_05
100
AcDbPolyline
 90
3
 70
1
 10
99.0
 20
193.94189360250812
 10
101.09288157897454
 20
194.67128291792778
 10
101.0
 20
194.70936983560932
  0
LWPOLYLINE
  5
E7
330
17
100
AcDbEntity
  8
PASS_05
100
AcDbPolyline
 90
3
 70
1
 10
102.65984315978656
 20
189.02126541141166
 10
103.75
 20
188.33802579303847
 10
102.75
 20
189.11396576515568
  0
LWPOLYLINE
  5
E8
330
17
100
AcDbEntity
  8
PASS_05
100
AcDbPolyline
 90
3
 70
1
 10
105.5976911087376
 20
188.21230211406538
 10
105.25
 20
185.49066092466654
 10
105.6545922505741
 20
188.125
  0
LWPOLYLINE
  5
E9
330
17
100
AcDbEntity
  8
PASS_05
100
AcDbPolyline
 90
3
 70
1
 10
105.48377340742714
 20
179.64974403174767
 10
103.65115459142142
 20
180.625
 10
105.5
 20
179.59819843236275
  0
LWPOLYLINE
  5
EA
330
17
100
AcDbEntity
  8
PASS_05
100
AcDbPolyline
 90
3
 70
1
 10
103.63013615539414
 20
184.625
 10
103.0
 20
185.2856219003839
 10
102.9350189408725
 20
185.27956183861932
  0
LWPOLYLINE
  5
EB
330
17
100
AcDbEntity
  8
PASS_05
100
AcDbPolyline
 90
3
 70
1
 10
101.75436077143844
 20
185.16945496246652
 10
100.75
 20
185.07578938682704
 10
100.77721181451356
 20
184.89040413402606
  0
LWPOLYLINE
  5
EC
330
17
100
AcDbEntity
  8
PASS_05
100
AcDbPolyline
 90
3
 70
1
 10
100.84878566561284
 20
184.4027947365209
 10
101.03634704296756
 20
183.125
 10
101.28210141532371
 20
182.77259053242767
  0
LWPOLYLINE
  5
ED
330
17
100
AcDbEntity
  8
PASS_05
100
AcDbPolyline
 90
3
 70
1
 10
101.73963443841595
 20
182.11649246377954
 10
102.08237898153503
 20
181.625
 10
103.4294155654675
 20
180.875
  0
LWPOLYLINE
  5
EE
330
17
100
AcDbEntity
  8
PASS_05
100
AcDbPolyline
 90
3
 70
1
 10
103.25
 20
179.28622661183607
 10
103.34448563862333
 20
179.16693177736607
 10
103.4294155654675
 20
180.875
  0
LWPOLYLINE
  5
EF
330
17
100
AcDbEntity
  8
PASS_05
100
AcDbPolyline
 90
3
 70
1
 10
103.4682808346484
 20
179.0106315434558
 10
104.5
 20
177.7080127662171
 10
105.25179415616562
 20
177.3902200040905
  0
LWPOLYLINE
  5
F0
330
17
100
AcDbEntity
  8
PASS_05
100
AcDbPolyline
 90
3
 70
1
 10
105.95130409637792
 20
176.7546800474523
 10
106.05363161877756
 20
176.22900202246035
 10
106.09403702967754
 20
176.625
  0
LWPOLYLINE
  5
F1
330
17
100
AcDbEntity
  8
PASS_05
100
AcDbPolyline
 90
3
 70
1
 10
105.79013451922476
 20
173.64656773491492
 10
105.6934974792982
 20
173.2578855096597
 10
105.75
 20
173.25322466307057
  0
LWPOLYLINE
  5
F2
330
17
100
AcDbEntity
  8
PASS_05
100
AcDbPolyline
 90
3
 70
1
 10
104.27374169278995
 20
173.375
 10
105.74968338515195
 20
171.63048723647915
 10
105.75
 20
171.634497933605
  0
LWPOLYLINE
  5
F3
330
17
100
AcDbEntity
  8
PASS_05
100
AcDbPolyline
 90
3
 70
1
 10
105.74660496817832
 20
171.59149159813666
 10
105.5702374119773
 20
170.82606165818896
 10
105.6900432604868
 20
170.875
  0
LWPOLYLINE
  5
F4
330
17
100
AcDbEntity
  8
PASS_05
100
AcDbPolyline
 90
3
 70
1
 10
104.23062589770711
 20
170.27885660104894
 10
103.42484910831082
 20
170.125
 10
103.37993484207843
 20
169.93136597205313
  0
LWPOLYLINE
  5
F5
330
17
100
AcDbEntity
  8
PASS_05
100
AcDbPolyline
 90
3
 70
1
 10
101.81088677054251
 20
170.13152480685073
 10
101.75
 20
170.28823691859725
 10
100.75
 20
169.0180428492303
  0
LWPOLYLINE
  5
F6
330
17
100
AcDbEntity
  8
PASS_05
100
AcDbPolyline
 90
3
 70
1
 10
97.94033614589144
 20
168.73637322826485
 10
98.0
 20
168.59300338154816
 10
100.75
 20
169.0180428492303
  0
LWPOLYLINE
  5
F7
330
17
100
AcDbEntity
  8
PASS_05
100
AcDbPolyline
 90
3
 70
1
 10
97.2158744579317
 20
170.47722558697976
 10
96.40146468396397
 20
173.16069047109536
 10
96.42610911813094
 20
172.375
  0
LWPOLYLINE
  5
F8
330
17
100
AcDbEntity
  8
PASS_05
100
AcDbPolyline
 90
4
 70
1
 10
97.47746333283692
 20
177.02351207862992
 10
96.37905922684371
 20
173.875
 10
96.38964825511223
 20
173.5374106460562
 10
97.48343386793287
 20
176.875
  0
LWPOLYLINE
  5
F9
330
17
100
AcDbEntity
  8
PASS_05
100
AcDbPolyline
 90
3
 70
1
 10
97.45209729693653
 20
177.65447105594467
 10
97.33439447598003
 20
180.58223051467158
 10
97.16853520372673
 20
180.125
  0
LWPOLYLINE
  5
FA
330
17
100
AcDbEntity
  8
PASS_05
100
AcDbPolyline
 90
4
 70
1
 10
151.88292173142003
 20
169.34142103014386
 10
152.0
 20
169.3480606994346
 10
152.24176240676678
 20
170.87994818815633
 10
152.20999275887036
 20
170.875
  0
LWPOLYLINE
  5
FB
330
17
100
AcDbEntity
  8
PASS_05
100
AcDbPolyline
 90
3
 70
1
 10
151.60627889230895
 20
169.3257322350701
 10
151.45874560897835
 20
169.45422019776942
 10
151.5
 20
169.31970501322888
  0
LWPOLYLINE
  5
FC
330
17
100
AcDbEntity
  8
PASS_05
100
AcDbPolyline
 90
4
 70
1
 10
147.81605806979852
 20
182.375
 10
148.5
 20
180.3269642407454
 10
149.079929056552
 20
179.81591040165733
 10
147.82228083271056
 20
182.61425476925754
  0
LWPOLYLINE
  5
FD
330
17
100
AcDbEntity
  8
PASS_05
100
AcDbPolyline
 90
3
 70
1
 10
159.0471629497578
 20
166.59792345117862
 10
159.0049203314472
 20
166.61275047809553
 10
159.0
 20
166.50126145751875
  0
LWPOLYLINE
  5
FE
330
17
100
AcDbEntity
  8
PASS_05
100
AcDbPolyline
 90
3
 70
1
 10
171.23464287207293
 20
182.7573638425412
 10
171.0
 20
182.8466128639124
 10
170.75
 20
181.22064604085233
  0
LWPOLYLINE
  5
FF
330
17
100
AcDbEntity
  8
PASS_05
100
AcDbPolyline
 90
3
 70
1
 10
110.31777426098033
 20
200.66334526347077
 10
110.0
 20
197.17010073133326
 10
110.52077145244915
 20
198.875
  0
LWPOLYLINE
  5
100
330
17
100
AcDbEntity
  8
PASS_05
100
AcDbPolyline
 90
4
 70
1
 10
107.84228477578715
 20
206.875
 10
108.96261376769165
 20
198.625
 10
109.03452092130809
 20
198.52415263770595
 10
107.85698167474524
 20
206.95933977215944
  0
LWPOLYLINE
  5
101
330
17
100
AcDbEntity
  8
PASS_05
100
AcDbPolyline
 90
3
 70
1
 10
140.3070831510767
 20
204.125
 10
139.43770563735336
 20
203.86912620338043
 10
139.5
 20
203.75152378520337
  0
LWPOLYLINE
  5
102
330
17
100
AcDbEntity
  8
PASS_05
100
AcDbPolyline
 90
3
 70
1
 10
95.61091352820026
 20
198.51053743462933
 10
95.03015969389456
 20
199.625
 10
95.5
 20
198.198443784784
  0
LWPOLYLINE
  5
103
330
17
100
AcDbEntity
  8
PASS_05
100
AcDbPolyline
 90
3
 70
1
 10
94.03693128236014
 20
209.0831450451373
 10
95.04251474903256
 20
213.875
 10
94.02819857233646
 20
209.125
  0
LWPOLYLINE
  5
104
330
17
100
AcDbEntity
  8
PASS_05
100
AcDbPolyline
 90
3
 70
1
 10
104.36664021769178
 20
210.125
 10
104.77939021638106
 20
204.125
 10
105.1792743825493
 20
203.1906247378955
  0
LWPOLYLINE
  5
105
330
17
100
AcDbEntity
  8
PASS_05
100
AcDbPolyline
 90
3
 70
1
 10
105.38362855814017
 20
201.44682832715316
 10
105.25
 20
197.27254119306568
 10
105.65572185454565
 20
199.125
  0
LWPOLYLINE
  5
106
330
17
100
AcDbEntity
  8
PASS_05
100
AcDbPolyline
 90
3
 70
1
 10
99.0
 20
198.50466144993825
 10
97.5590698077261
 20
202.16170250532085
 10
97.54322037585418
 20
201.625
  0
LWPOLYLINE
  5
107
330
17
100
AcDbEntity
  8
PASS_05
100
AcDbPolyline
 90
3
 70
1
 10
108.74535969750502
 20
217.375
 10
108.61343425259791
 20
218.625
 10
107.96330606195644
 20
219.875
  0
LWPOLYLINE
  5
108
330
17
100
AcDbEntity
  8
PASS_05
100
AcDbPolyline
 90
4
 70
1
 10
110.37261618172994
 20
216.125
 10
109.27543102074635
 20
221.625
 10
109.0
 20
221.83020480019283
 10
110.34998774417988
 20
216.08805955819906
  0
LWPOLYLINE
  5
109
330
17
100
AcDbEntity
  8
PASS_05
100
AcDbPolyline
 90
3
 70
1
 10
109.5
 20
214.7004726898644
 10
108.19817134819306
 20
215.93580107336942
 10
108.08000371816324
 20
215.625
  0
LWPOLYLINE
  5
10A
330
17
100
AcDbEntity
  8
PASS_05
100
AcDbPolyline
 90
3
 70
1
 10
183.44438224554358
 20
230.12166170893016
 10
183.2912106402787
 20
230.28483412687626
 10
183.39499871109322
 20
230.125
  0
LWPOLYLINE
  5
10B
330
17
100
AcDbEntity
  8
PASS_05
100
AcDbPolyline
 90
3
 70
1
 10
182.66742384089986
 20
231.24546878992768
 10
184.75
 20
232.7670430247281
 10
182.58331292750222
 20
231.375
  0
LWPOLYLINE
  5
10C
330
17
100
AcDbEntity
  8
PASS_05
100
AcDbPolyline
 90
3
 70
1
 10
186.98363382306937
 20
229.95924380609256
 10
186.80733562915916
 20
227.61016478176342
 10
187.22411287333443
 20
228.625
  0
LWPOLYLINE
  5
10D
330
17
100
AcDbEntity
  8
PASS_05
100
AcDbPolyline
 90
3
 70
1
 10
186.5950174290569
 20
227.09317881396493
 10
184.75
 20
230.03340289678067
 10
186.5
 20
226.86181533455027
  0
LWPOLYLINE
  5
10E
330
17
100
AcDbEntity
  8
PASS_05
100
AcDbPolyline
 90
3
 70
1
 10
122.99978959660191
 20
215.625
 10
125.29330725631722
 20
209.80122380912454
 10
124.31639855308458
 20
212.875
  0
LWPOLYLINE
  5
10F
330
17
100
AcDbEntity
  8
PASS_05
100
AcDbPolyline
 90
3
 70
1
 10
125.36047935870974
 20
209.5898713988717
 10
125.25170047383826
 20
207.875
 10
125.42876986738655
 20
209.375
  0
LWPOLYLINE
  5
110
330
17
100
AcDbEntity
  8
PASS_05
100
AcDbPolyline
 90
3
 70
1
 10
126.67746635380786
 20
203.61791692953938
 10
126.68075636850921
 20
204.375
 10
125.25170047383826
 20
207.875
  0
LWPOLYLINE
  5
111
330
17
100
AcDbEntity
  8
PASS_05
100
AcDbPolyline
 90
3
 70
1
 10
126.67541073978326
 20
203.1448884726181
 10
125.5
 20
199.90225902422884
 10
126.67097866594675
 20
202.125
  0
LWPOLYLINE
  5
112
330
17
100
AcDbEntity
  8
PASS_05
100
AcDbPolyline
 90
3
 70
1
 10
123.5
 20
199.13434989518032
 10
121.41571207672462
 20
199.79737791297322
 10
121.5
 20
199.68568102444704
  0
LWPOLYLINE
  5
113
330
17
100
AcDbEntity
  8
PASS_05
100
AcDbPolyline
 90
3
 70
1
 10
114.0
 20
213.20537114578414
 10
111.22962518580759
 20
214.3469063497981
 10
111.25
 20
214.28371675767863
  0
LWPOLYLINE
  5
114
330
17
100
AcDbEntity
  8
PASS_05
100
AcDbPolyline
 90
3
 70
1
 10
110.70233961780481
 20
215.982207641772
 10
110.79975958992516
 20
216.2739708533268
 10
110.65629773544084
 20
216.125
  0
LWPOLYLINE
  5
115
330
17
100
AcDbEntity
  8
PASS_05
100
AcDbPolyline
 90
3
 70
1
 10
248.99825830211557
 20
284.0864055879761
 10
249.0
 20
284.0623911741499
 10
251.25
 20
282.9017674552298
  0
LWPOLYLINE
  5
116
330
17
100
AcDbEntity
  8
PASS_05
100
AcDbPolyline
 90
4
 70
1
 10
252.0
 20
283.75352173819647
 10
252.0
 20
284.8116382356609
 10
251.7107837081025
 20
285.188615184366
 10
251.93699327682214
 20
283.68196674309985
  0
LWPOLYLINE
  5
117
330
17
100
AcDbEntity
  8
PASS_05
100
AcDbPolyline
 90
3
 70
1
 10
249.79551605461256
 20
287.63023570609045
 10
250.04540474527522
 20
287.35934172167583
 10
249.841592012341
 20
287.625
  0
LWPOLYLINE
  5
118
330
17
100
AcDbEntity
  8
PASS_05
100
AcDbPolyline
 90
8
 70
1
 10
114.97942475414352
 20
215.625
 10
115.9682395408933
 20
216.625
 10
115.5
 20
217.3499000612453
 10
112.53614682073653
 20
216.375
 10
111.68904274995526
 20
215.375
 10
112.25
 20
214.61181854259286
 10
114.75
 20
214.0859888719342
 10
115.25955351781467
 20
214.625
  0
LWPOLYLINE
  5
119
330
17
100
AcDbEntity
  8
PASS_05
100
AcDbPolyline
 90
3
 70
1
 10
238.5
 20
337.068916237494
 10
241.22178416876392
 20
339.125
 10
241.02438916018673
 20
339.191803626784
  0
LWPOLYLINE
  5
11A
330
17
100
AcDbEntity
  8
PASS_05
100
AcDbPolyline
 90
3
 70
1
 10
283.8426972778872
 20
272.39364170689026
 10
283.5
 20
272.51757906704336
 10
282.75
 20
271.82966048253684
  0
LWPOLYLINE
  5
11B
330
17
100
AcDbEntity
  8
PASS_05
100
AcDbPolyline
 90
3
 70
1
 10
189.61152550843872
 20
100.125
 10
189.8453156724846
 20
100.08065505983802
 10
189.7226414780756
 20
100.27470146422031
  0
LWPOLYLINE
  5
11C
330
17
100
AcDbEntity
  8
PASS_05
100
AcDbPolyline
 90
3
 70
1
 10
192.25
 20
103.67969601701293
 10
189.93804363363367
 20
100.56490293740767
 10
190.76036160422186
 20
101.125
  0
LWPOLYLINE
  5
11D
330
17
100
AcDbEntity
  8
PASS_05
100
AcDbPolyline
 90
3
 70
1
 10
206.75
 20
98.93407274205505
 10
203.5
 20
99.57779644662345
 10
206.77070559037674
 20
98.8944860903812
  0
LWPOLYLINE
  5
11E
330
17
100
AcDbEntity
  8
PASS_05
100
AcDbPolyline
 90
3
 70
1
 10
207.04242006328727
 20
98.375
 10
206.83398119400056
 20
98.77351058403094
 10
206.19897771228594
 20
96.625
  0
LWPOLYLINE
  5
11F
330
17
100
AcDbEntity
  8
PASS_05
100
AcDbPolyline
 90
3
 70
1
 10
204.38925339169845
 20
96.39829234951621
 10
204.75
 20
96.15407633852773
 10
206.19897771228594
 20
96.625
  0
LWPOLYLINE
  5
120
330
17
100
AcDbEntity
  8
PASS_05
100
AcDbPolyline
 90
3
 70
1
 10
204.05436946800725
 20
96.625
 10
204.1949864673517
 20
96.52980597220649
 10
204.13603638108063
 20
97.625
  0
LWPOLYLINE
  5
121
330
17
100
AcDbEntity
  8
PASS_05
100
AcDbPolyline
 90
3
 70
1
 10
190.70442702332457
 20
99.91770020841838
 10
196.75
 20
98.7709857048822
 10
191.5
 20
100.00999993467174
  0
LWPOLYLINE
  5
122
330
17
100
AcDbEntity
  8
PASS_05
100
AcDbPolyline
 90
3
 70
1
 10
220.65845498669637
 20
116.375
 10
220.58640042805877
 20
116.48851723343937
 10
220.5404483819777
 20
116.12101767806132
  0
LWPOLYLINE
  5
123
330
17
100
AcDbEntity
  8
PASS_05
100
AcDbPolyline
 90
3
 70
1
 10
220.25
 20
115.49589373153378
 10
220.34199291348116
 20
115.69388751182734
 10
220.16482865902606
 20
115.57767529090859
  0
LWPOLYLINE
  5
124
330
17
100
AcDbEntity
  8
PASS_05
100
AcDbPolyline
 90
4
 70
1
 10
216.6712681222422
 20
117.7878229754276
 10
215.75993614922353
 20
120.86471838398893
 10
215.7260239916551
 20
120.875
 10
216.1393530701129
 20
118.375
  0
LWPOLYLINE
  5
125
330
17
100
AcDbEntity
  8
PASS_05
100
AcDbPolyline
 90
3
 70
1
 10
220.45569165456945
 20
143.3501841915173
 10
220.49153344900208
 20
143.375
 10
220.4944082591104
 20
143.38532217076175
  0
LWPOLYLINE
  5
126
330
17
100
AcDbEntity
  8
PASS_05
100
AcDbPolyline
 90
3
 70
1
 10
219.5
 20
149.15576317918345
 10
220.15009911979294
 20
146.125
 10
219.59005704575543
 20
149.250314534752
  0
LWPOLYLINE
  5
127
330
17
100
AcDbEntity
  8
PASS_05
100
AcDbPolyline
 90
3
 70
1
 10
225.3228303673153
 20
153.16811497729176
 10
223.25
 20
152.10471005852776
 10
224.5
 20
152.42629091212308
  0
LWPOLYLINE
  5
128
330
17
100
AcDbEntity
  8
PASS_05
100
AcDbPolyline
 90
3
 70
1
 10
227.0
 20
154.02853774276318
 10
226.7688098291968
 20
153.9099323958527
 10
227.00351074706927
 20
153.92231889347485
  0
LWPOLYLINE
  5
129
330
17
100
AcDbEntity
  8
PASS_05
100
AcDbPolyline
 90
3
 70
1
 10
225.16569535977524
 20
148.99060132197042
 10
224.97548270256954
 20
149.08650463466404
 10
225.0
 20
149.04102177705084
  0
LWPOLYLINE
  5
12A
330
17
100
AcDbEntity
  8
PASS_05
100
AcDbPolyline
 90
3
 70
1
 10
226.38666635590164
 20
148.375
 10
226.20236658909263
 20
148.46792209270032
 10
225.58031713669212
 20
147.875
  0
LWPOLYLINE
  5
12B
330
17
100
AcDbEntity
  8
PASS_05
100
AcDbPolyline
 90
3
 70
1
 10
226.09556389474866
 20
146.18513901558708
 10
226.12083993179607
 20
146.375
 10
225.58031713669212
 20
147.875
  0
LWPOLYLINE
  5
12C
330
17
100
AcDbEntity
  8
PASS_05
100
AcDbPolyline
 90
3
 70
1
 10
225.65488780403555
 20
142.875
 10
226.02620276118938
 20
145.6641327726834
 10
225.46484950207258
 20
142.71412384633652
  0
LWPOLYLINE
  5
12D
330
17
100
AcDbEntity
  8
PASS_05
100
AcDbPolyline
 90
3
 70
1
 10
222.25
 20
139.99260604093553
 10
222.38388706069128
 20
140.10594758906996
 10
221.7860745884838
 20
140.5522996622632
  0
LWPOLYLINE
  5
12E
330
17
100
AcDbEntity
  8
PASS_05
100
AcDbPolyline
 90
3
 70
1
 10
221.31136801736056
 20
141.125
 10
221.43200106096805
 20
140.97946465454913
 10
222.2268408038815
 20
142.0422346023615
  0
LWPOLYLINE
  5
12F
330
17
100
AcDbEntity
  8
PASS_05
100
AcDbPolyline
 90
3
 70
1
 10
220.58231728478754
 20
142.53142601766976
 10
223.06755462277437
 20
143.875
 10
220.63245338321747
 20
142.625
  0
LWPOLYLINE
  5
130
330
17
100
AcDbEntity
  8
PASS_05
100
AcDbPolyline
 90
3
 70
1
 10
220.25
 20
141.4724075029481
 10
220.45020479167525
 20
142.2848513442662
 10
220.09897107660572
 20
141.62930896109447
  0
LWPOLYLINE
  5
131
330
17
100
AcDbEntity
  8
PASS_05
100
AcDbPolyline
 90
3
 70
1
 10
219.38118989011343
 20
142.375
 10
219.69924586093728
 20
142.0445768964456
 10
219.4859545034454
 20
142.47008108607292
  0
LWPOLYLINE
  5
132
330
17
100
AcDbEntity
  8
PASS_05
100
AcDbPolyline
 90
3
 70
1
 10
192.06440944909852
 20
176.875
 10
191.75
 20
173.90445833196463
 10
192.21282899806454
 20
176.96831955126578
  0
LWPOLYLINE
  5
133
330
17
100
AcDbEntity
  8
PASS_05
100
AcDbPolyline
 90
3
 70
1
 10
192.5
 20
177.14887978894245
 10
192.3524322785198
 20
177.05609582856943
 10
193.25
 20
176.52264046392048
  0
LWPOLYLINE
  5
134
330
17
100
AcDbEntity
  8
PASS_05
100
AcDbPolyline
 90
3
 70
1
 10
198.0
 20
181.77101245900423
 10
197.76497437838105
 20
179.375
 10
198.21989831290267
 20
181.70224954272183
  0
LWPOLYLINE
  5
135
330
17
100
AcDbEntity
  8
PASS_05
100
AcDbPolyline
 90
3
 70
1
 10
201.5
 20
180.67655109724333
 10
200.07808908435422
 20
181.12118725639772
 10
201.63014841942302
 20
180.49712241179506
  0
LWPOLYLINE
  5
136
330
17
100
AcDbEntity
  8
PASS_05
100
AcDbPolyline
 90
3
 70
1
 10
192.25692390353382
 20
166.55178806861267
 10
192.37480429424
 20
167.66528488307455
 10
192.0288863681699
 20
166.875
  0
LWPOLYLINE
  5
137
330
17
100
AcDbEntity
  8
PASS_05
100
AcDbPolyline
 90
3
 70
1
 10
192.95345597548365
 20
165.875
 10
192.38719516745147
 20
166.36714641850932
 10
192.82658433184235
 20
165.74437253952135
  0
LWPOLYLINE
  5
138
330
17
100
AcDbEntity
  8
PASS_05
100
AcDbPolyline
 90
3
 70
1
 10
190.0
 20
167.37567972866913
 10
192.25
 20
165.1507194200481
 10
190.01009262882917
 20
167.47088354227807
  0
LWPOLYLINE
  5
139
330
17
100
AcDbEntity
  8
PASS_05
100
AcDbPolyline
 90
3
 70
1
 10
217.837160819901
 20
190.73138731071222
 10
217.5805221549715
 20
190.15934455218363
 10
217.9135800115076
 20
190.625
  0
LWPOLYLINE
  5
13A
330
17
100
AcDbEntity
  8
PASS_05
100
AcDbPolyline
 90
3
 70
1
 10
217.0819420655545
 20
189.46226886321952
 10
215.63900646355313
 20
189.80271844263046
 10
217.0
 20
189.34770387553957
  0
LWPOLYLINE
  5
13B
330
17
100
AcDbEntity
  8
PASS_05
100
AcDbPolyline
 90
3
 70
1
 10
214.70143122806508
 20
190.11617356087038
 10
213.52641097482132
 20
192.625
 10
214.67503047636595
 20
190.125
  0
LWPOLYLINE
  5
13C
330
17
100
AcDbEntity
  8
PASS_05
100
AcDbPolyline
 90
3
 70
1
 10
215.40240045002597
 20
194.97219781103118
 10
215.25
 20
195.00705991924372
 10
213.52641097482132
 20
192.625
  0
LWPOLYLINE
  5
13D
330
17
100
AcDbEntity
  8
PASS_05
100
AcDbPolyline
 90
3
 70
1
 10
215.75477812137183
 20
194.89159025043637
 10
216.02398238522414
 20
194.6773896227613
 10
216.0
 20
194.8354949326905
  0
LWPOLYLINE
  5
13E
330
17
100
AcDbEntity
  8
PASS_05
100
AcDbPolyline
 90
3
 70
1
 10
216.4195442280372
 20
192.70492842857337
 10
216.43326973049622
 20
192.625
 10
216.73689093097346
 20
192.26313283274237
  0
LWPOLYLINE
  5
13F
330
17
100
AcDbEntity
  8
PASS_05
100
AcDbPolyline
 90
4
 70
1
 10
235.25075883849468
 20
195.875
 10
235.52000677417504
 20
194.25626107148148
 10
235.61162990771152
 20
194.375
 10
235.39717341888317
 20
195.98606555249154
  0
LWPOLYLINE
  5
140
330
17
100
AcDbEntity
  8
PASS_05
100
AcDbPolyline
 90
3
 70
1
 10
235.00416784047894
 20
199.16017093343203
 10
236.74991552108247
 20
198.9334730759745
 10
236.0
 20
199.36563586288037
  0
LWPOLYLINE
  5
141
330
17
100
AcDbEntity
  8
PASS_05
100
AcDbPolyline
 90
3
 70
1
 10
237.07030736157432
 20
198.74883703791917
 10
237.27385838099164
 20
198.30830733908516
 10
237.28519702730736
 20
198.625
  0
LWPOLYLINE
  5
142
330
17
100
AcDbEntity
  8
PASS_05
100
AcDbPolyline
 90
3
 70
1
 10
237.25860215163493
 20
197.88219510875584
 10
236.25
 20
197.9158749678005
 10
237.25
 20
197.64193377464218
  0
LWPOLYLINE
  5
143
330
17
100
AcDbEntity
  8
PASS_05
100
AcDbPolyline
 90
3
 70
1
 10
200.24137284297265
 20
234.34936851185975
 10
200.26883291393509
 20
234.375
 10
199.15885554938973
 20
236.125
  0
LWPOLYLINE
  5
144
330
17
100
AcDbEntity
  8
PASS_05
100
AcDbPolyline
 90
3
 70
1
 10
196.0
 20
234.44336033232037
 10
195.9853598770577
 20
234.4009470377483
 10
197.75
 20
234.7873435788981
  0
LWPOLYLINE
  5
145
330
17
100
AcDbEntity
  8
PASS_05
100
AcDbPolyline
 90
3
 70
1
 10
194.15511730097845
 20
230.34672188897687
 10
194.25
 20
230.2864678363014
 10
194.3051701343747
 20
230.42597564459948
  0
LWPOLYLINE
  5
146
330
17
100
AcDbEntity
  8
PASS_05
100
AcDbPolyline
 90
3
 70
1
 10
189.8641676335783
 20
231.31959760477991
 10
190.0
 20
231.09055973384605
 10
192.0
 20
230.65303093684787
  0
LWPOLYLINE
  5
147
330
17
100
AcDbEntity
  8
PASS_05
100
AcDbPolyline
 90
3
 70
1
 10
186.66737298485592
 20
100.125
 10
186.56601923424458
 20
100.23430947936619
 10
186.0858587087094
 20
99.81464641639185
  0
LWPOLYLINE
  5
148
330
17
100
AcDbEntity
  8
PASS_05
100
AcDbPolyline
 90
4
 70
1
 10
185.5
 20
99.50197421349964
 10
185.62476456000434
 20
99.56856093353896
 10
183.0
 20
100.56319433037646
 10
181.89038384284052
 20
100.52301086094812
  0
LWPOLYLINE
  5
149
330
17
100
AcDbEntity
  8
PASS_05
100
AcDbPolyline
 90
3
 70
1
 10
180.64601549755014
 20
100.875
 10
180.83027301769175
 20
100.8228798652152
 10
180.75854568206935
 20
100.96323231044674
  0
LWPOLYLINE
  5
14A
330
17
100
AcDbEntity
  8
PASS_05
100
AcDbPolyline
 90
3
 70
1
 10
185.0
 20
101.92325286962273
 10
183.5
 20
101.39174758314178
 10
185.06694256497275
 20
101.85105567040246
  0
LWPOLYLINE
  5
14B
330
17
100
AcDbEntity
  8
PASS_05
100
AcDbPolyline
 90
3
 70
1
 10
205.9098930909147
 20
99.875
 10
204.0
 20
106.5677723802568
 10
204.5
 20
102.98816163410305
  0
LWPOLYLINE
  5
14C
330
17
100
AcDbEntity
  8
PASS_05
100
AcDbPolyline
 90
3
 70
1
 10
203.71870900143554
 20
100.83538583032751
 10
205.25
 20
99.69798216873548
 10
205.9098930909147
 20
99.875
  0
LWPOLYLINE
  5
14D
330
17
100
AcDbEntity
  8
PASS_05
100
AcDbPolyline
 90
3
 70
1
 10
200.75
 20
101.29112169398717
 10
203.2992069978775
 20
101.01925161410423
 10
202.75
 20
101.2599664957113
  0
LWPOLYLINE
  5
14E
330
17
100
AcDbEntity
  8
PASS_05
100
AcDbPolyline
 90
3
 70
1
 10
103.99922802753407
 20
139.8512165640092
 10
102.97252183643653
 20
143.625
 10
103.97754737794527
 20
139.875
  0
LWPOLYLINE
  5
14F
330
17
100
AcDbEntity
  8
PASS_05
100
AcDbPolyline
 90
3
 70
1
 10
110.5
 20
134.71386256886169
 10
107.75
 20
137.72118794005488
 10
110.51860405866445
 20
134.66722093673863
  0
LWPOLYLINE
  5
150
330
17
100
AcDbEntity
  8
PASS_05
100
AcDbPolyline
 90
3
 70
1
 10
115.51403725955298
 20
125.125
 10
113.42726955611754
 20
127.375
 10
115.3979306890052
 20
124.91857758295451
  0
LWPOLYLINE
  5
151
330
17
100
AcDbEntity
  8
PASS_05
100
AcDbPolyline
 90
3
 70
1
 10
115.25
 20
124.65557601262489
 10
115.36069460142251
 20
124.85237665079478
 10
114.7773630946858
 20
125.10792757876018
  0
LWPOLYLINE
  5
152
330
17
100
AcDbEntity
  8
PASS_05
100
AcDbPolyline
 90
3
 70
1
 10
103.49321193022898
 20
137.38005995188976
 10
103.5
 20
137.36697786369191
 10
104.71690872322826
 20
137.625
  0
LWPOLYLINE
  5
153
330
17
100
AcDbEntity
  8
PASS_05
100
AcDbPolyline
 90
3
 70
1
 10
104.5
 20
138.13951262090762
 10
104.32942727365138
 20
138.16660374740596
 10
104.71690872322826
 20
137.625
  0
LWPOLYLINE
  5
154
330
17
100
AcDbEntity
  8
PASS_05
100
AcDbPolyline
 90
4
 70
1
 10
100.0
 20
141.20627132593955
 10
101.2640637439958
 20
141.36944270792395
 10
101.25
 20
141.40884406220403
 10
99.21391731587151
 20
141.59180598748264
  0
LWPOLYLINE
  5
155
330
17
100
AcDbEntity
  8
PASS_05
100
AcDbPolyline
 90
3
 70
1
 10
98.68094225374853
 20
141.63969900491836
 10
98.5
 20
141.6559584345418
 10
98.96702158735337
 20
140.125
  0
LWPOLYLINE
  5
156
330
17
100
AcDbEntity
  8
PASS_05
100
AcDbPolyline
 90
3
 70
1
 10
100.32733992480587
 20
138.85531143205995
 10
100.5
 20
138.69415465163735
 10
103.0
 20
138.33058671268333
  0
LWPOLYLINE
  5
157
330
17
100
AcDbEntity
  8
PASS_05
100
AcDbPolyline
 90
3
 70
1
 10
231.25
 20
242.8526356988253
 10
231.21530166224463
 20
243.06661265168813
 10
230.02570349615817
 20
241.9063003412613
  0
LWPOLYLINE
  5
158
330
17
100
AcDbEntity
  8
PASS_05
100
AcDbPolyline
 90
3
 70
1
 10
229.98934547030038
 20
241.8433507257559
 10
229.99830422088644
 20
241.879575588903
 10
229.99361314580358
 20
241.875
  0
LWPOLYLINE
  5
159
330
17
100
AcDbEntity
  8
PASS_05
100
AcDbPolyline
 90
3
 70
1
 10
229.5
 20
239.8646738418548
 10
229.56498313490695
 20
240.12743427326305
 10
225.25
 20
241.50531282883964
  0
LWPOLYLINE
  5
15A
330
17
100
AcDbEntity
  8
PASS_05
100
AcDbPolyline
 90
3
 70
1
 10
222.75
 20
235.5543375727808
 10
224.0
 20
235.67345375630308
 10
222.64838159612913
 20
235.6632377186852
  0
LWPOLYLINE
  5
15B
330
17
100
AcDbEntity
  8
PASS_05
100
AcDbPolyline
 90
3
 70
1
 10
222.21749561700318
 20
236.125
 10
222.51193406276732
 20
235.80946276971318
 10
222.6387318496532
 20
237.375
  0
LWPOLYLINE
  5
15C
330
17
100
AcDbEntity
  8
PASS_05
100
AcDbPolyline
 90
3
 70
1
 10
221.99882166240621
 20
243.875
 10
222.02435531497315
 20
243.61563744414033
 10
222.1666008799725
 20
244.08363754097536
  0
LWPOLYLINE
  5
15D
330
17
100
AcDbEntity
  8
PASS_05
100
AcDbPolyline
 90
3
 70
1
 10
224.8134026756637
 20
247.375
 10
223.99058189830293
 20
246.35180233498428
 10
224.91684339310885
 20
247.41280187228944
  0
LWPOLYLINE
  5
15E
330
17
100
AcDbEntity
  8
PASS_05
100
AcDbPolyline
 90
3
 70
1
 10
228.0
 20
248.5395254215905
 10
227.80147626642136
 20
248.46697595549517
 10
228.4485815411287
 20
248.25209235153423
  0
LWPOLYLINE
  5
15F
330
17
100
AcDbEntity
  8
PASS_05
100
AcDbPolyline
 90
3
 70
1
 10
76.25
 20
298.0721270090271
 10
76.40422856709954
 20
298.02040104627577
 10
76.05568635903496
 20
298.50919911495174
  0
LWPOLYLINE
  5
160
330
17
100
AcDbEntity
  8
PASS_05
100
AcDbPolyline
 90
4
 70
1
 10
75.78191342669453
 20
299.125
 10
75.83080466983442
 20
299.01502831456247
 10
76.43679335252335
 20
301.375
 10
76.37801346385797
 20
301.4866460007173
  0
LWPOLYLINE
  5
161
330
17
100
AcDbEntity
  8
PASS_05
100
AcDbPolyline
 90
3
 70
1
 10
75.0713842843495
 20
306.875
 10
75.09464399326379
 20
306.71338510878786
 10
75.23367594684477
 20
307.1472733274384
  0
LWPOLYLINE
  5
162
330
17
100
AcDbEntity
  8
PASS_05
100
AcDbPolyline
 90
3
 70
1
 10
75.75
 20
308.0134993912276
 10
75.69217392516242
 20
307.9164857950474
 10
77.05075789226638
 20
307.4786933233359
  0
LWPOLYLINE
  5
163
330
17
100
AcDbEntity
  8
PASS_05
100
AcDbPolyline
 90
3
 70
1
 10
77.75
 20
307.1912002207649
 10
77.60006471271818
 20
307.2528460519424
 10
78.5
 20
306.52362603501933
  0
LWPOLYLINE
  5
164
330
17
100
AcDbEntity
  8
PASS_05
100
AcDbPolyline
 90
3
 70
1
 10
79.30920049868838
 20
303.875
 10
79.38944945594243
 20
303.78342205551365
 10
78.5
 20
306.52362603501933
  0
LWPOLYLINE
  5
165
330
17
100
AcDbEntity
  8
PASS_05
100
AcDbPolyline
 90
3
 70
1
 10
92.88734545394321
 20
301.6658492924383
 10
90.55501403503615
 20
302.375
 10
92.75
 20
301.6448403478711
  0
LWPOLYLINE
  5
166
330
17
100
AcDbEntity
  8
PASS_05
100
AcDbPolyline
 90
3
 70
1
 10
105.95255081799685
 20
304.08919786694554
 10
105.21348842275931
 20
303.5513085262518
 10
105.75
 20
303.63337561811625
  0
LWPOLYLINE
  5
167
330
17
100
AcDbEntity
  8
PASS_05
100
AcDbPolyline
 90
3
 70
1
 10
104.54487068169092
 20
312.875
 10
105.0
 20
306.77496830568884
 10
104.55185442814896
 20
312.9033173271291
  0
LWPOLYLINE
  5
168
330
17
100
AcDbEntity
  8
PASS_05
100
AcDbPolyline
 90
3
 70
1
 10
105.55580096510036
 20
322.51957102902406
 10
102.14834918424557
 20
321.125
 10
105.25
 20
322.26470450132047
  0
LWPOLYLINE
  5
169
330
17
100
AcDbEntity
  8
PASS_05
100
AcDbPolyline
 90
3
 70
1
 10
107.32190757602828
 20
324.2439786445048
 10
106.56493219441757
 20
323.36062060625125
 10
107.18210902204335
 20
323.875
  0
LWPOLYLINE
  5
16A
330
17
100
AcDbEntity
  8
PASS_05
100
AcDbPolyline
 90
3
 70
1
 10
108.38307857433209
 20
327.24298371654623
 10
108.16862050909636
 20
326.47875848608874
 10
108.41346836280096
 20
327.125
  0
LWPOLYLINE
  5
16B
330
17
100
AcDbEntity
  8
PASS_05
100
AcDbPolyline
 90
3
 70
1
 10
115.75
 20
337.82935563679916
 10
115.33865125516728
 20
337.55187548473
 10
115.8963549064706
 20
337.7083459591765
  0
LWPOLYLINE
  5
16C
330
17
100
AcDbEntity
  8
PASS_05
100
AcDbPolyline
 90
3
 70
1
 10
120.75
 20
335.73801308073973
 10
118.67806618279435
 20
335.5700279623313
 10
118.75
 20
335.51181090568195
  0
LWPOLYLINE
  5
16D
330
17
100
AcDbEntity
  8
PASS_05
100
AcDbPolyline
 90
3
 70
1
 10
194.5985152741941
 20
307.7241014696594
 10
182.0
 20
308.68756189461055
 10
194.5
 20
307.69415241254455
  0
LWPOLYLINE
  5
16E
330
17
100
AcDbEntity
  8
PASS_05
100
AcDbPolyline
 90
3
 70
1
 10
216.0
 20
311.70161973835906
 10
215.8571266926152
 20
311.6849388643309
 10
220.25
 20
311.66491853657544
  0
LWPOLYLINE
  5
16F
330
17
100
AcDbEntity
  8
PASS_05
100
AcDbPolyline
 90
3
 70
1
 10
231.25
 20
312.51848716366607
 10
229.7683843763167
 20
311.40500158572064
 10
231.3330818901276
 20
312.30945370543196
  0
LWPOLYLINE
  5
170
330
17
100
AcDbEntity
  8
PASS_05
100
AcDbPolyline
 90
3
 70
1
 10
199.0
 20
296.1078018293115
 10
199.0524847664063
 20
296.13736116006794
 10
198.86528875451074
 20
296.2092093408755
  0
LWPOLYLINE
  5
171
330
17
100
AcDbEntity
  8
PASS_05
100
AcDbPolyline
 90
3
 70
1
 10
198.31294626341108
 20
296.625
 10
198.37264906358735
 20
296.5800571121417
 10
197.61952679592233
 20
299.125
  0
LWPOLYLINE
  5
172
330
17
100
AcDbEntity
  8
PASS_05
100
AcDbPolyline
 90
3
 70
1
 10
137.7072826452856
 20
274.375
 10
137.5601495587535
 20
274.4984257588528
 10
137.30898080362712
 20
274.19855811314636
  0
LWPOLYLINE
  5
173
330
17
100
AcDbEntity
  8
PASS_05
100
AcDbPolyline
 90
3
 70
1
 10
136.0
 20
270.42856500629387
 10
135.99974030298787
 20
270.4917369019592
 10
134.75
 20
269.66201528654904
  0
LWPOLYLINE
  5
174
330
17
100
AcDbEntity
  8
PASS_05
100
AcDbPolyline
 90
3
 70
1
 10
130.38050527809438
 20
263.6142660528608
 10
130.58768647070744
 20
264.6140490948152
 10
130.4075264788675
 20
264.125
  0
LWPOLYLINE
  5
175
330
17
100
AcDbEntity
  8
PASS_05
100
AcDbPolyline
 90
3
 70
1
 10
131.0171694035502
 20
261.125
 10
130.32942356608498
 20
262.6487588342789
 10
130.3017132627127
 20
262.125
  0
LWPOLYLINE
  5
176
330
17
100
AcDbEntity
  8
PASS_05
100
AcDbPolyline
 90
3
 70
1
 10
130.60693842887818
 20
260.40095758009994
 10
130.75624716740148
 20
260.375
 10
131.0171694035502
 20
261.125
  0
LWPOLYLINE
  5
177
330
17
100
AcDbEntity
  8
PASS_05
100
AcDbPolyline
 90
3
 70
1
 10
118.01062337208994
 20
257.875
 10
118.75
 20
257.58377587234156
 10
117.74555989859067
 20
258.456700065199
  0
LWPOLYLINE
  5
178
330
17
100
AcDbEntity
  8
PASS_05
100
AcDbPolyline
 90
3
 70
1
 10
116.96413192528351
 20
258.82300866103805
 10
117.17234842747365
 20
258.9548583526463
 10
117.0
 20
259.1046404170338
  0
LWPOLYLINE
  5
179
330
17
100
AcDbEntity
  8
PASS_05
100
AcDbPolyline
 90
3
 70
1
 10
115.70789007491311
 20
246.43326210690168
 10
117.5
 20
247.48018153672953
 10
115.75
 20
246.55438216135616
  0
LWPOLYLINE
  5
17A
330
17
100
AcDbEntity
  8
PASS_05
100
AcDbPolyline
 90
3
 70
1
 10
161.0
 20
295.941338440907
 10
163.05322256701652
 20
297.21788971991106
 10
161.81052438597266
 20
296.875
  0
LWPOLYLINE
  5
17B
330
17
100
AcDbEntity
  8
PASS_05
100
AcDbPolyline
 90
3
 70
1
 10
163.25467021723853
 20
297.3431358864369
 10
163.30592089405948
 20
297.375
 10
163.27843106465974
 20
297.70411421245984
  0
LWPOLYLINE
  5
17C
330
17
100
AcDbEntity
  8
PASS_05
100
AcDbPolyline
 90
3
 70
1
 10
163.15335793224932
 20
299.20151693819423
 10
163.13886746179185
 20
299.375
 10
162.79294282511194
 20
299.7836816913704
  0
LWPOLYLINE
  5
17D
330
17
100
AcDbEntity
  8
PASS_05
100
AcDbPolyline
 90
3
 70
1
 10
162.34219024032507
 20
300.316209037524
 10
162.25
 20
300.4251242732398
 10
160.5
 20
301.0090070787793
  0
LWPOLYLINE
  5
17E
330
17
100
AcDbEntity
  8
PASS_05
100
AcDbPolyline
 90
4
 70
1
 10
153.9707608542728
 20
296.8683072987878
 10
153.15075868369084
 20
298.03648623668767
 10
153.0384422337159
 20
297.875
 10
153.75
 20
296.9249121605103
  0
LWPOLYLINE
  5
17F
330
17
100
AcDbEntity
  8
PASS_05
100
AcDbPolyline
 90
3
 70
1
 10
280.04855527347127
 20
116.875
 10
280.19701413500155
 20
117.13631988706322
 10
279.6135224437698
 20
116.79612793276883
  0
LWPOLYLINE
  5
180
330
17
100
AcDbEntity
  8
PASS_05
100
AcDbPolyline
 90
3
 70
1
 10
281.3807600845928
 20
120.99986346532769
 10
281.23861135478717
 20
120.875
 10
282.03694590533433
 20
120.375
  0
LWPOLYLINE
  5
181
330
17
100
AcDbEntity
  8
PASS_05
100
AcDbPolyline
 90
3
 70
1
 10
282.1299355889184
 20
122.125
 10
282.0832197730759
 20
122.23873078502233
 10
282.0856823855334
 20
122.07474566077177
  0
LWPOLYLINE
  5
182
330
17
100
AcDbEntity
  8
PASS_05
100
AcDbPolyline
 90
3
 70
1
 10
280.36288543121145
 20
126.42692640298277
 10
280.4076021591248
 20
126.125
 10
280.9779726770302
 20
124.92948160698488
  0
LWPOLYLINE
  5
183
330
17
100
AcDbEntity
  8
PASS_05
100
AcDbPolyline
 90
3
 70
1
 10
280.00113571208044
 20
128.875
 10
280.00023455144355
 20
128.87553748828174
 10
280.001470318111
 20
128.86719361782818
  0
LWPOLYLINE
  5
184
330
17
100
AcDbEntity
  8
PASS_05
100
AcDbPolyline
 90
3
 70
1
 10
265.0
 20
137.12523265651438
 10
264.8900990610426
 20
136.99440804334256
 10
265.67048748431125
 20
137.06907474787812
  0
LWPOLYLINE
  5
185
330
17
100
AcDbEntity
  8
PASS_05
100
AcDbPolyline
 90
3
 70
1
 10
264.1597413861074
 20
136.125
 10
263.7933816841959
 20
134.125
 10
264.66456484427596
 20
136.72593511722005
  0
LWPOLYLINE
  5
186
330
17
100
AcDbEntity
  8
PASS_05
100
AcDbPolyline
 90
3
 70
1
 10
258.9687994004922
 20
127.26261146628744
 10
259.0
 20
127.28579277657147
 10
261.0441778412603
 20
132.125
  0
LWPOLYLINE
  5
187
330
17
100
AcDbEntity
  8
PASS_05
100
AcDbPolyline
 90
3
 70
1
 10
257.8177782749799
 20
126.64814782758577
 10
258.0
 20
126.54281633862696
 10
258.6033785985394
 20
126.99111242050172
  0
LWPOLYLINE
  5
188
330
17
100
AcDbEntity
  8
PASS_05
100
AcDbPolyline
 90
3
 70
1
 10
256.1345548067811
 20
127.69342429875954
 10
256.25
 20
127.55438675185619
 10
256.9625313460337
 20
127.14251496434414
  0
LWPOLYLINE
  5
189
330
17
100
AcDbEntity
  8
PASS_05
100
AcDbPolyline
 90
3
 70
1
 10
254.7024803762116
 20
129.64874696066846
 10
254.73831446691918
 20
129.375
 10
255.68955157314173
 20
128.22936829299724
  0
LWPOLYLINE
  5
18A
330
17
100
AcDbEntity
  8
PASS_05
100
AcDbPolyline
 90
3
 70
1
 10
257.75
 20
148.39596868447285
 10
256.25
 20
148.16185787596
 10
256.2239886189577
 20
148.1275329219884
  0
LWPOLYLINE
  5
18B
330
17
100
AcDbEntity
  8
PASS_05
100
AcDbPolyline
 90
3
 70
1
 10
262.052599392262
 20
151.875
 10
262.522455678504
 20
153.125
 10
262.01371261665145
 20
151.86315049759926
  0
LWPOLYLINE
  5
18C
330
17
100
AcDbEntity
  8
PASS_05
100
AcDbPolyline
 90
3
 70
1
 10
269.25
 20
156.5922888440473
 10
265.5
 20
156.38534380557206
 10
265.49451718436546
 20
156.37551230648089
  0
LWPOLYLINE
  5
18D
330
17
100
AcDbEntity
  8
PASS_05
100
AcDbPolyline
 90
3
 70
1
 10
281.62863529992944
 20
170.4761139311379
 10
281.5
 20
170.5775716253031
 10
279.4001664741455
 20
168.125
  0
LWPOLYLINE
  5
18E
330
17
100
AcDbEntity
  8
PASS_05
100
AcDbPolyline
 90
3
 70
1
 10
310.72296892130584
 20
127.625
 10
311.317368820149
 20
127.625
 10
304.25
 20
131.7803492410095
  0
LWPOLYLINE
  5
18F
330
17
100
AcDbEntity
  8
PASS_05
100
AcDbPolyline
 90
3
 70
1
 10
312.74003613152075
 20
127.625
 10
313.7668301354043
 20
128.18300997887533
 10
312.36887751849997
 20
127.625
  0
LWPOLYLINE
  5
190
330
17
100
AcDbEntity
  8
PASS_05
100
AcDbPolyline
 90
3
 70
1
 10
229.12089948348535
 20
175.13912111676518
 10
229.25
 20
174.9825620820702
 10
229.43435155473432
 20
174.9416159209329
  0
LWPOLYLINE
  5
191
330
17
100
AcDbEntity
  8
PASS_05
100
AcDbPolyline
 90
3
 70
1
 10
224.77912512916276
 20
194.8906181024077
 10
224.71455213441794
 20
194.625
 10
225.09689850311167
 20
190.125
  0
LWPOLYLINE
  5
192
330
17
100
AcDbEntity
  8
PASS_05
100
AcDbPolyline
 90
3
 70
1
 10
225.4062844972066
 20
196.7155900483268
 10
225.25
 20
196.82754065273295
 10
225.227833833937
 20
196.73636112806363
  0
LWPOLYLINE
  5
193
330
17
100
AcDbEntity
  8
PASS_05
100
AcDbPolyline
 90
3
 70
1
 10
244.01293891203204
 20
193.82441456023764
 10
244.03240399323522
 20
193.875
 10
243.86522737596533
 20
197.125
  0
LWPOLYLINE
  5
194
330
17
100
AcDbEntity
  8
PASS_05
100
AcDbPolyline
 90
3
 70
1
 10
234.83168038745737
 20
180.37021689752314
 10
234.89779447161058
 20
180.375
 10
234.85843357001914
 20
180.45723727390984
  0
LWPOLYLINE
  5
195
330
17
100
AcDbEntity
  8
PASS_05
100
AcDbPolyline
 90
3
 70
1
 10
228.1295691184869
 20
169.99717972694776
 10
228.03173428943148
 20
169.875
 10
230.25
 20
166.18529362880886
  0
LWPOLYLINE
  5
196
330
17
100
AcDbEntity
  8
PASS_05
100
AcDbPolyline
 90
3
 70
1
 10
229.86889901871444
 20
171.875
 10
230.24314582864832
 20
172.6366919315883
 10
228.82601693045905
 20
170.86692932759286
  0
LWPOLYLINE
  5
197
330
17
100
AcDbEntity
  8
PASS_05
100
AcDbPolyline
 90
3
 70
1
 10
230.97440544123273
 20
174.125
 10
230.75814023652637
 20
174.52640100001983
 10
230.80722479019823
 20
173.78474284982374
  0
LWPOLYLINE
  5
198
330
17
100
AcDbEntity
  8
PASS_05
100
AcDbPolyline
 90
3
 70
1
 10
230.5
 20
175.0055245336818
 10
229.9749421040108
 20
174.82154583108806
 10
230.6839706556261
 20
174.66406412518526
  0
LWPOLYLINE
  5
199
330
17
100
AcDbEntity
  8
PASS_05
100
AcDbPolyline
 90
3
 70
1
 10
120.09125324509512
 20
114.46342401880236
 10
120.18367761677013
 20
114.19835785415847
 10
120.2220915060303
 20
114.375
  0
LWPOLYLINE
  5
19A
330
17
100
AcDbEntity
  8
PASS_05
100
AcDbPolyline
 90
3
 70
1
 10
121.34436814156054
 20
128.22068726629078
 10
121.21947883224621
 20
127.91760801805995
 10
121.25
 20
127.91633898666839
  0
LWPOLYLINE
  5
19B
330
17
100
AcDbEntity
  8
PASS_05
100
AcDbPolyline
 90
3
 70
1
 10
121.62285878469233
 20
129.41605254985197
 10
121.66990979199281
 20
129.27059711527224
 10
121.70228160699877
 20
129.375
  0
LWPOLYLINE
  5
19C
330
17
100
AcDbEntity
  8
PASS_05
100
AcDbPolyline
 90
3
 70
1
 10
119.12615583775123
 20
129.625
 10
120.15278335067961
 20
130.17591405172737
 10
120.0
 20
130.25488563619368
  0
LWPOLYLINE
  5
19D
330
17
100
AcDbEntity
  8
PASS_05
100
AcDbPolyline
 90
3
 70
1
 10
163.0
 20
120.88518020422529
 10
160.85828439927414
 20
120.82071086889677
 10
161.0
 20
120.67563603089296
  0
LWPOLYLINE
  5
19E
330
17
100
AcDbEntity
  8
PASS_05
100
AcDbPolyline
 90
3
 70
1
 10
188.78637788185262
 20
120.15866886648863
 10
187.07194641215918
 20
119.95050605322513
 10
188.0
 20
119.83967382729293
  0
LWPOLYLINE
  5
19F
330
17
100
AcDbEntity
  8
PASS_05
100
AcDbPolyline
 90
3
 70
1
 10
191.75
 20
120.51850589028857
 10
191.14731358410404
 20
120.445328920508
 10
191.80210926432218
 20
120.39648364257506
  0
LWPOLYLINE
  5
1A0
330
17
100
AcDbEntity
  8
PASS_05
100
AcDbPolyline
 90
3
 70
1
 10
189.25
 20
116.5500393923003
 10
190.75
 20
118.75286030315777
 10
188.64992102989302
 20
116.22920562846184
  0
LWPOLYLINE
  5
1A1
330
17
100
AcDbEntity
  8
PASS_05
100
AcDbPolyline
 90
3
 70
1
 10
188.0
 20
115.88172367924243
 10
188.33769789164475
 20
116.0622747250446
 10
183.75
 20
116.43619603138481
  0
LWPOLYLINE
  5
1A2
330
17
100
AcDbEntity
  8
PASS_05
100
AcDbPolyline
 90
3
 70
1
 10
175.51610470912237
 20
109.20808859538701
 10
176.761318272871
 20
110.12874281453382
 10
175.3025512631567
 20
109.375
  0
LWPOLYLINE
  5
1A3
330
17
100
AcDbEntity
  8
PASS_05
100
AcDbPolyline
 90
3
 70
1
 10
176.9319558957446
 20
108.125
 10
176.74704758037453
 20
108.245994995305
 10
176.9425588487615
 20
108.09318519035631
  0
LWPOLYLINE
  5
1A4
330
17
100
AcDbEntity
  8
PASS_05
100
AcDbPolyline
 90
3
 70
1
 10
177.51049504825076
 20
106.38905785453524
 10
177.42640587530144
 20
106.64137256593844
 10
177.5
 20
106.39855031093006
  0
LWPOLYLINE
  5
1A5
330
17
100
AcDbEntity
  8
PASS_05
100
AcDbPolyline
 90
3
 70
1
 10
178.82352861009514
 20
105.29561262217914
 10
177.63875293999655
 20
106.2730524379238
 10
178.75
 20
105.26796279860957
  0
LWPOLYLINE
  5
1A6
330
17
100
AcDbEntity
  8
PASS_05
100
AcDbPolyline
 90
3
 70
1
 10
183.5
 20
106.95129648894671
 10
183.3877945522052
 20
106.97722080315854
 10
183.596987031937
 20
106.79999780832507
  0
LWPOLYLINE
  5
1A7
330
17
100
AcDbEntity
  8
PASS_05
100
AcDbPolyline
 90
3
 70
1
 10
188.75
 20
102.83299096409418
 10
188.71674622366308
 20
102.85955815156663
 10
188.75
 20
102.35618276419717
  0
LWPOLYLINE
  5
1A8
330
17
100
AcDbEntity
  8
PASS_05
100
AcDbPolyline
 90
3
 70
1
 10
204.70178001738057
 20
95.89609429867494
 10
204.33863546733102
 20
95.97643781683465
 10
204.5
 20
95.83701278062642
  0
LWPOLYLINE
  5
1A9
330
17
100
AcDbEntity
  8
PASS_05
100
AcDbPolyline
 90
3
 70
1
 10
207.47081510625108
 20
97.31869071575724
 10
207.0420404313281
 20
96.58132636317657
 10
207.19119819653767
 20
96.625
  0
LWPOLYLINE
  5
1AA
330
17
100
AcDbEntity
  8
PASS_05
100
AcDbPolyline
 90
3
 70
1
 10
207.00567033534986
 20
101.375
 10
207.87980630415228
 20
98.33334107113551
 10
207.9973698905272
 20
98.625
  0
LWPOLYLINE
  5
1AB
330
17
100
AcDbEntity
  8
PASS_05
100
AcDbPolyline
 90
3
 70
1
 10
208.14931929433519
 20
107.26420133476826
 10
207.38758365745122
 20
105.875
 10
208.2302736895784
 20
107.125
  0
LWPOLYLINE
  5
1AC
330
17
100
AcDbEntity
  8
PASS_05
100
AcDbPolyline
 90
3
 70
1
 10
220.49895332208095
 20
99.37432873504375
 10
215.5
 20
98.72859463176364
 10
220.5
 20
99.37193272460112
  0
LWPOLYLINE
  5
1AD
330
17
100
AcDbEntity
  8
PASS_05
100
AcDbPolyline
 90
3
 70
1
 10
108.64147616516043
 20
168.875
 10
108.74727806283028
 20
168.8463933418178
 10
108.71712732989367
 20
168.95169042117234
  0
LWPOLYLINE
  5
1AE
330
17
100
AcDbEntity
  8
PASS_05
100
AcDbPolyline
 90
3
 70
1
 10
107.84655293584987
 20
172.375
 10
108.03156666231158
 20
172.16973168019976
 10
107.81017167577923
 20
172.5939700385214
  0
LWPOLYLINE
  5
1AF
330
17
100
AcDbEntity
  8
PASS_05
100
AcDbPolyline
 90
3
 70
1
 10
104.1096225103921
 20
217.23584597993678
 10
106.29402218576952
 20
201.875
 10
104.36834344317916
 20
215.875
  0
LWPOLYLINE
  5
1B0
330
17
100
AcDbEntity
  8
PASS_05
100
AcDbPolyline
 90
3
 70
1
 10
102.90672010420525
 20
222.8865899718623
 10
103.19765042025487
 20
222.03272708000313
 10
103.0375194144426
 20
222.875
  0
LWPOLYLINE
  5
1B1
330
17
100
AcDbEntity
  8
PASS_05
100
AcDbPolyline
 90
3
 70
1
 10
100.25
 20
223.11551913609784
 10
100.32020972132328
 20
223.11577759146596
 10
100.25100234172032
 20
223.1219099753509
  0
LWPOLYLINE
  5
1B2
330
17
100
AcDbEntity
  8
PASS_05
100
AcDbPolyline
 90
3
 70
1
 10
100.32990717734752
 20
223.625
 10
100.27280868899363
 20
223.26094525373443
 10
100.43641312869958
 20
223.65335242554352
  0
LWPOLYLINE
  5
1B3
330
17
100
AcDbEntity
  8
PASS_05
100
AcDbPolyline
 90
3
 70
1
 10
307.7754793553365
 20
297.8590573021748
 10
307.2220707144133
 20
297.55715927834507
 10
307.5
 20
297.50538978958264
  0
LWPOLYLINE
  5
1B4
330
17
100
AcDbEntity
  8
PASS_05
100
AcDbPolyline
 90
3
 70
1
 10
308.37109716092795
 20
300.625
 10
308.0283864559513
 20
298.1837459710665
 10
308.1773583991472
 20
298.375
  0
LWPOLYLINE
  5
1B5
330
17
100
AcDbEntity
  8
PASS_05
100
AcDbPolyline
 90
3
 70
1
 10
342.52987560759607
 20
308.36727992074975
 10
338.0
 20
308.2743575657694
 10
342.5
 20
308.2479728552404
  0
LWPOLYLINE
  5
1B6
330
17
100
AcDbEntity
  8
PASS_05
100
AcDbPolyline
 90
3
 70
1
 10
342.5
 20
314.1308801392417
 10
342.71764524109807
 20
309.1171305771037
 10
342.97002519242767
 20
310.125
  0
LWPOLYLINE
  5
1B7
330
17
100
AcDbEntity
  8
PASS_05
100
AcDbPolyline
 90
3
 70
1
 10
351.10152814712166
 20
309.375
 10
350.34872533494
 20
308.66460810248634
 10
350.5
 20
308.5956002834241
  0
LWPOLYLINE
  5
1B8
330
17
100
AcDbEntity
  8
PASS_05
100
AcDbPolyline
 90
3
 70
1
 10
376.0
 20
323.6719402722365
 10
376.0
 20
322.1522422917004
 10
376.2432666364089
 20
323.81382065342723
  0
LWPOLYLINE
  5
1B9
330
17
100
AcDbEntity
  8
PASS_05
100
AcDbPolyline
 90
4
 70
1
 10
378.15688778283754
 20
323.6386453817485
 10
376.75
 20
324.10936271315916
 10
376.30240359779435
 20
323.84831109875785
 10
378.0
 20
323.4757632196372
  0
LWPOLYLINE
  5
1BA
330
17
100
AcDbEntity
  8
PASS_05
100
AcDbPolyline
 90
3
 70
1
 10
387.40318763186247
 20
330.71758968176607
 10
387.1134261948899
 20
330.2426491578163
 10
387.25
 20
330.1940101337968
  0
LWPOLYLINE
  5
1BB
330
17
100
AcDbEntity
  8
PASS_05
100
AcDbPolyline
 90
3
 70
1
 10
386.57070794822437
 20
338.375
 10
387.6080774785807
 20
331.4178820749833
 10
387.7418199302994
 20
331.875
  0
LWPOLYLINE
  5
1BC
330
17
100
AcDbEntity
  8
PASS_05
100
AcDbPolyline
 90
4
 70
1
 10
374.9134400132659
 20
364.375
 10
375.75
 20
363.76338948888747
 10
375.8367081766851
 20
363.84390770833323
 10
374.8973328975344
 20
364.7311197620892
  0
LWPOLYLINE
  5
1BD
330
17
100
AcDbEntity
  8
PASS_05
100
AcDbPolyline
 90
3
 70
1
 10
374.86821052182444
 20
365.375
 10
374.88351984515816
 20
365.03651900351326
 10
375.14923649454215
 20
365.34633893280017
  0
LWPOLYLINE
  5
1BE
330
17
100
AcDbEntity
  8
PASS_05
100
AcDbPolyline
 90
3
 70
1
 10
379.4483440750431
 20
367.875
 10
379.4371136186187
 20
367.70814408363265
 10
379.6835010229239
 20
367.92455668491175
  0
LWPOLYLINE
  5
1BF
330
17
100
AcDbEntity
  8
PASS_05
100
AcDbPolyline
 90
3
 70
1
 10
380.6346469335754
 20
368.125
 10
380.2317530313444
 20
368.0400946363879
 10
380.931908677946
 20
367.5492922664454
  0
LWPOLYLINE
  5
1C0
330
17
100
AcDbEntity
  8
PASS_05
100
AcDbPolyline
 90
3
 70
1
 10
400.3953776050591
 20
360.4866130123263
 10
407.0
 20
367.98827331148505
 10
400.45810690489833
 20
360.625
  0
LWPOLYLINE
  5
1C1
330
17
100
AcDbEntity
  8
PASS_05
100
AcDbPolyline
 90
3
 70
1
 10
397.288196272947
 20
353.4480467218267
 10
399.2020806311984
 20
357.854082854395
 10
397.2850838753772
 20
353.625
  0
LWPOLYLINE
  5
1C2
330
17
100
AcDbEntity
  8
PASS_05
100
AcDbPolyline
 90
3
 70
1
 10
398.49855334257734
 20
346.82820917137457
 10
398.44072792912357
 20
348.375
 10
398.43447700018856
 20
346.875
  0
LWPOLYLINE
  5
1C3
330
17
100
AcDbEntity
  8
PASS_05
100
AcDbPolyline
 90
3
 70
1
 10
405.12627337733966
 20
343.04289562124205
 10
404.9108230328296
 20
343.15025695649916
 10
405.0
 20
342.93917975165385
  0
LWPOLYLINE
  5
1C4
330
17
100
AcDbEntity
  8
PASS_05
100
AcDbPolyline
 90
3
 70
1
 10
426.7359452611127
 20
349.8676290741687
 10
425.5
 20
353.50852049756895
 10
426.71204804847787
 20
349.875
  0
LWPOLYLINE
  5
1C5
330
17
100
AcDbEntity
  8
PASS_05
100
AcDbPolyline
 90
3
 70
1
 10
428.7274841437696
 20
349.4526364644978
 10
428.3002937743686
 20
349.3851168648289
 10
428.5
 20
349.32351889523846
  0
LWPOLYLINE
  5
1C6
330
17
100
AcDbEntity
  8
PASS_05
100
AcDbPolyline
 90
3
 70
1
 10
430.3291794710426
 20
350.51240703026946
 10
429.56560994084407
 20
349.9283477112624
 10
430.3525385830811
 20
350.375
  0
LWPOLYLINE
  5
1C7
330
17
100
AcDbEntity
  8
PASS_05
100
AcDbPolyline
 90
3
 70
1
 10
429.95344770924106
 20
352.20984763611784
 10
430.13325622816086
 20
351.66490079462005
 10
430.0550396415261
 20
352.125
  0
LWPOLYLINE
  5
1C8
330
17
100
AcDbEntity
  8
PASS_05
100
AcDbPolyline
 90
3
 70
1
 10
428.25
 20
364.1612936498056
 10
428.2535063867039
 20
364.127298663935
 10
429.5
 20
364.2534408029139
  0
LWPOLYLINE
  5
1C9
330
17
100
AcDbEntity
  8
PASS_05
100
AcDbPolyline
 90
3
 70
1
 10
435.86498804778665
 20
368.3915595098938
 10
435.64349319638404
 20
368.11024515025116
 10
435.729244285031
 20
368.125
  0
LWPOLYLINE
  5
1CA
330
17
100
AcDbEntity
  8
PASS_05
100
AcDbPolyline
 90
3
 70
1
 10
439.23623527894773
 20
374.125
 10
438.80825112976663
 20
372.82511618178387
 10
438.86161698060715
 20
372.875
  0
LWPOLYLINE
  5
1CB
330
17
100
AcDbEntity
  8
PASS_05
100
AcDbPolyline
 90
3
 70
1
 10
442.33758348011787
 20
376.55834519896314
 10
441.8264007523642
 20
375.82054839472113
 10
442.0
 20
375.90524035109956
  0
LWPOLYLINE
  5
1CC
330
17
100
AcDbEntity
  8
PASS_05
100
AcDbPolyline
 90
3
 70
1
 10
442.41696435300634
 20
378.875
 10
442.5503315739116
 20
376.9699376482793
 10
442.6304817802687
 20
377.125
  0
LWPOLYLINE
  5
1CD
330
17
100
AcDbEntity
  8
PASS_05
100
AcDbPolyline
 90
3
 70
1
 10
443.1824803198694
 20
379.87248171507895
 10
443.1160533512603
 20
379.875
 10
442.41696435300634
 20
378.875
  0
LWPOLYLINE
  5
1CE
330
17
100
AcDbEntity
  8
PASS_05
100
AcDbPolyline
 90
3
 70
1
 10
453.3511933350176
 20
376.3600444767581
 10
452.226541470574
 20
377.00556674568253
 10
452.75
 20
376.49368170909537
  0
LWPOLYLINE
  5
1CF
330
17
100
AcDbEntity
  8
PASS_05
100
AcDbPolyline
 90
3
 70
1
 10
536.2309971041036
 20
349.625
 10
530.0
 20
353.9335502944701
 10
536.235686140199
 20
349.6158084474691
  0
LWPOLYLINE
  5
1D0
330
17
100
AcDbEntity
  8
PASS_05
100
AcDbPolyline
 90
3
 70
1
 10
539.8747309830276
 20
335.875
 10
538.8425789573325
 20
336.7521298774127
 10
539.7510183210009
 20
335.64965030649375
  0
LWPOLYLINE
  5
1D1
330
17
100
AcDbEntity
  8
PASS_05
100
AcDbPolyline
 90
3
 70
1
 10
528.1296549613418
 20
321.1568809644003
 10
531.5
 20
322.58130169912374
 10
528.25
 20
321.30446759126966
  0
LWPOLYLINE
  5
1D2
330
17
100
AcDbEntity
  8
PASS_05
100
AcDbPolyline
 90
3
 70
1
 10
523.2552108483358
 20
315.875
 10
524.0399374106971
 20
316.73949194426507
 10
522.0563537087868
 20
315.2875589397033
  0
LWPOLYLINE
  5
1D3
330
17
100
AcDbEntity
  8
PASS_05
100
AcDbPolyline
 90
4
 70
1
 10
517.25
 20
314.1157973798159
 10
520.7041950516546
 20
314.625
 10
521.6403211568654
 20
315.0837026207505
 10
517.1932483118748
 20
314.1367955097947
  0
LWPOLYLINE
  5
1D4
330
17
100
AcDbEntity
  8
PASS_05
100
AcDbPolyline
 90
3
 70
1
 10
507.37979353272624
 20
315.9993289283338
 10
507.62703694091573
 20
316.2112572993666
 10
507.4177776215414
 20
316.125
  0
LWPOLYLINE
  5
1D5
330
17
100
AcDbEntity
  8
PASS_05
100
AcDbPolyline
 90
3
 70
1
 10
506.24768312102543
 20
312.125
 10
506.5100414702447
 20
313.12173788467663
 10
506.1880526940862
 20
312.05643196773724
  0
LWPOLYLINE
  5
1D6
330
17
100
AcDbEntity
  8
PASS_05
100
AcDbPolyline
 90
3
 70
1
 10
505.37802965465886
 20
311.125
 10
505.79891599813186
 20
311.6089701786408
 10
505.11054583480603
 20
311.06117595508823
  0
LWPOLYLINE
  5
1D7
330
17
100
AcDbEntity
  8
PASS_05
100
AcDbPolyline
 90
3
 70
1
 10
503.75
 20
310.73653748344907
 10
504.4957960865437
 20
310.91449113667863
 10
500.05529623759793
 20
311.375
  0
LWPOLYLINE
  5
1D8
330
17
100
AcDbEntity
  8
PASS_05
100
AcDbPolyline
 90
3
 70
1
 10
498.12081596278165
 20
312.875
 10
498.2877388541206
 20
312.74556764534225
 10
499.4064026718587
 20
313.7740276245382
  0
LWPOLYLINE
  5
1D9
330
17
100
AcDbEntity
  8
PASS_05
100
AcDbPolyline
 90
3
 70
1
 10
499.99472232128346
 20
315.35984490544115
 10
500.2242409335153
 20
314.52591921898494
 10
500.33201185994596
 20
314.625
  0
LWPOLYLINE
  5
1DA
330
17
100
AcDbEntity
  8
PASS_05
100
AcDbPolyline
 90
3
 70
1
 10
499.09326330266185
 20
315.6654869192554
 10
499.63393461107694
 20
316.14588473295066
 10
499.5
 20
316.4376849678539
  0
LWPOLYLINE
  5
1DB
330
17
100
AcDbEntity
  8
PASS_05
100
AcDbPolyline
 90
3
 70
1
 10
498.0
 20
314.69409951212333
 10
498.14612946742847
 20
314.8239386132121
 10
497.91768423231576
 20
314.75211584094023
  0
LWPOLYLINE
  5
1DC
330
17
100
AcDbEntity
  8
PASS_05
100
AcDbPolyline
 90
3
 70
1
 10
489.3884937322682
 20
350.375
 10
490.0
 20
349.4923355015343
 10
489.46048970241145
 20
350.9101649384048
  0
LWPOLYLINE
  5
1DD
330
17
100
AcDbEntity
  8
PASS_05
100
AcDbPolyline
 90
3
 70
1
 10
489.1914008473649
 20
351.3841812824333
 10
489.28106230762745
 20
351.38169892625064
 10
489.25
 20
351.46333046197503
  0
LWPOLYLINE
  5
1DE
330
17
100
AcDbEntity
  8
PASS_05
100
AcDbPolyline
 90
3
 70
1
 10
446.31868796016477
 20
308.3942866050706
 10
446.5703275373013
 20
308.65269851493787
 10
446.52313716471383
 20
308.625
  0
LWPOLYLINE
  5
1DF
330
17
100
AcDbEntity
  8
PASS_05
100
AcDbPolyline
 90
3
 70
1
 10
440.0694186645314
 20
301.25750948622954
 10
440.38194052391464
 20
301.69488584742777
 10
440.0984701728623
 20
301.375
  0
LWPOLYLINE
  5
1E0
330
17
100
AcDbEntity
  8
PASS_05
100
AcDbPolyline
 90
3
 70
1
 10
438.5419151748767
 20
294.26821993342503
 10
438.4849143195996
 20
294.8494349918817
 10
438.42941898787325
 20
294.625
  0
LWPOLYLINE
  5
1E1
330
17
100
AcDbEntity
  8
PASS_05
100
AcDbPolyline
 90
3
 70
1
 10
466.0133137210086
 20
255.0
 10
466.51336599544067
 20
257.64441416516325
 10
465.21692409053685
 20
253.24564773027674
  0
LWPOLYLINE
  5
1E2
330
17
100
AcDbEntity
  8
PASS_05
100
AcDbPolyline
 90
3
 70
1
 10
459.2720190229763
 20
237.625
 10
460.5
 20
239.02498833643716
 10
456.96817391753916
 20
235.96476701629283
  0
LWPOLYLINE
  5
1E3
330
17
100
AcDbEntity
  8
PASS_05
100
AcDbPolyline
 90
3
 70
1
 10
453.96399999118023
 20
233.11974142688445
 10
455.24980453865345
 20
234.4758515129889
 10
454.556356966319
 20
233.875
  0
LWPOLYLINE
  5
1E4
330
17
100
AcDbEntity
  8
PASS_05
100
AcDbPolyline
 90
3
 70
1
 10
171.7184457222201
 20
97.53392256151999
 10
171.76617842444662
 20
97.625
 10
169.6525850513517
 20
99.625
  0
LWPOLYLINE
  5
1E5
330
17
100
AcDbEntity
  8
PASS_05
100
AcDbPolyline
 90
3
 70
1
 10
169.52612757727917
 20
100.88889990662776
 10
169.58522409504158
 20
101.04421608738117
 10
169.5
 20
101.15003625088697
  0
LWPOLYLINE
  5
1E6
330
17
100
AcDbEntity
  8
PASS_05
100
AcDbPolyline
 90
4
 70
1
 10
173.18234101545812
 20
98.875
 10
171.26705523145205
 20
99.23704998915358
 10
171.5
 20
98.97068828957703
 10
173.2216653609037
 20
98.8375182991576
  0
LWPOLYLINE
  5
1E7
330
17
100
AcDbEntity
  8
PASS_05
100
AcDbPolyline
 90
3
 70
1
 10
173.32702892871487
 20
98.73709181567416
 10
174.5
 20
97.24120455034426
 10
174.86604264175844
 20
97.27019259761846
  0
LWPOLYLINE
  5
1E8
330
17
100
AcDbEntity
  8
PASS_05
100
AcDbPolyline
 90
3
 70
1
 10
174.14503416289782
 20
100.68366584031122
 10
173.9106006726228
 20
100.72447617809617
 10
173.97434567507182
 20
100.625
  0
LWPOLYLINE
  5
1E9
330
17
100
AcDbEntity
  8
PASS_05
100
AcDbPolyline
 90
3
 70
1
 10
172.53253057667033
 20
102.875
 10
173.22243378187645
 20
103.67126778659889
 10
173.0
 20
103.6941585182781
  0
LWPOLYLINE
  5
1EA
330
17
100
AcDbEntity
  8
PASS_05
100
AcDbPolyline
 90
3
 70
1
 10
175.0
 20
103.4883378782107
 10
178.2399025490774
 20
101.74205078310237
 10
178.0634916866864
 20
101.875
  0
LWPOLYLINE
  5
1EB
330
17
100
AcDbEntity
  8
PASS_05
100
AcDbPolyline
 90
3
 70
1
 10
178.46326453705834
 20
101.57371760347684
 10
178.60810883092344
 20
100.375
 10
178.7269437419431
 20
101.375
  0
LWPOLYLINE
  5
1EC
330
17
100
AcDbEntity
  8
PASS_05
100
AcDbPolyline
 90
3
 70
1
 10
201.34268578518711
 20
86.06357127827744
 10
201.25
 20
86.16724290252978
 10
200.9504383833442
 20
86.11225709633588
  0
LWPOLYLINE
  5
1ED
330
17
100
AcDbEntity
  8
PASS_05
100
AcDbPolyline
 90
3
 70
1
 10
197.72960645274446
 20
85.52105972500324
 10
196.96421883817467
 20
85.38056957974442
 10
197.0
 20
85.35063895038039
  0
LWPOLYLINE
  5
1EE
330
17
100
AcDbEntity
  8
PASS_05
100
AcDbPolyline
 90
3
 70
1
 10
249.34900440559198
 20
104.375
 10
246.75
 20
105.08927729553852
 10
243.02823995776643
 20
105.24806737044153
  0
LWPOLYLINE
  5
1EF
330
17
100
AcDbEntity
  8
PASS_05
100
AcDbPolyline
 90
3
 70
1
 10
242.13640988166716
 20
105.2861175840441
 10
242.0
 20
105.29193755499378
 10
241.66020031170913
 20
104.99497716964827
  0
LWPOLYLINE
  5
1F0
330
17
100
AcDbEntity
  8
PASS_05
100
AcDbPolyline
 90
3
 70
1
 10
234.58957426282112
 20
102.375
 10
234.16866960719148
 20
100.88360389166006
 10
234.44889365153645
 20
101.125
  0
LWPOLYLINE
  5
1F1
330
17
100
AcDbEntity
  8
PASS_05
100
AcDbPolyline
 90
3
 70
1
 10
233.33423911504903
 20
100.16479236371212
 10
232.5987088472668
 20
100.0309322986875
 10
233.0
 20
99.87686553067958
  0
LWPOLYLINE
  5
1F2
330
17
100
AcDbEntity
  8
PASS_05
100
AcDbPolyline
 90
3
 70
1
 10
229.74584668545117
 20
101.12622495552625
 10
225.5
 20
102.84243940120965
 10
225.355824411505
 20
102.81167587719
  0
LWPOLYLINE
  5
1F3
330
17
100
AcDbEntity
  8
PASS_05
100
AcDbPolyline
 90
3
 70
1
 10
240.8232297634652
 20
150.25824674534377
 10
240.75
 20
150.2663285296303
 10
240.6897436656989
 20
150.22239697529108
  0
LWPOLYLINE
  5
1F4
330
17
100
AcDbEntity
  8
PASS_05
100
AcDbPolyline
 90
3
 70
1
 10
241.83941934541613
 20
136.125
 10
242.3019675468464
 20
135.67575153142843
 10
241.33194500139751
 20
138.625
  0
LWPOLYLINE
  5
1F5
330
17
100
AcDbEntity
  8
PASS_05
100
AcDbPolyline
 90
3
 70
1
 10
243.0
 20
134.99778973280326
 10
243.05366014330517
 20
135.125
 10
242.86902374874552
 20
135.125
  0
LWPOLYLINE
  5
1F6
330
17
100
AcDbEntity
  8
PASS_05
100
AcDbPolyline
 90
3
 70
1
 10
243.44439817951744
 20
136.05130930386872
 10
243.25
 20
136.17298961120116
 10
243.122889146113
 20
135.28911883015056
  0
LWPOLYLINE
  5
1F7
330
17
100
AcDbEntity
  8
PASS_05
100
AcDbPolyline
 90
4
 70
1
 10
243.59165906504924
 20
135.95913380174187
 10
244.60609417505825
 20
133.48014123939066
 10
244.64292945456995
 20
133.625
 10
243.72607241633884
 20
135.875
  0
LWPOLYLINE
  5
1F8
330
17
100
AcDbEntity
  8
PASS_05
100
AcDbPolyline
 90
3
 70
1
 10
243.68854518669608
 20
132.25054344548897
 10
244.38864535496313
 20
132.625
 10
244.54979192703783
 20
133.25872649852616
  0
LWPOLYLINE
  5
1F9
330
17
100
AcDbEntity
  8
PASS_05
100
AcDbPolyline
 90
3
 70
1
 10
239.5109617260116
 20
132.625
 10
243.0
 20
131.88226720457112
 10
243.3247717017795
 20
132.0559750509098
  0
LWPOLYLINE
  5
1FA
330
17
100
AcDbEntity
  8
PASS_05
100
AcDbPolyline
 90
3
 70
1
 10
235.07803651804954
 20
153.03600425758657
 10
234.75
 20
153.38862688047527
 10
234.36642205828673
 20
153.106633325258
  0
LWPOLYLINE
  5
1FB
330
17
100
AcDbEntity
  8
PASS_05
100
AcDbPolyline
 90
3
 70
1
 10
236.9555998722039
 20
152.8496525788388
 10
236.92831598509838
 20
152.875
 10
236.7287813301338
 20
152.87216474387034
  0
LWPOLYLINE
  5
1FC
330
17
100
AcDbEntity
  8
PASS_05
100
AcDbPolyline
 90
3
 70
1
 10
238.70337811259378
 20
151.02944400935908
 10
238.75
 20
151.18260947772006
 10
237.26896888270335
 20
152.5585248426303
  0
LWPOLYLINE
  5
1FD
330
17
100
AcDbEntity
  8
PASS_05
100
AcDbPolyline
 90
3
 70
1
 10
235.3383622624477
 20
150.81584276562208
 10
235.5
 20
150.5572310359981
 10
238.5
 20
150.36129208323948
  0
LWPOLYLINE
  5
1FE
330
17
100
AcDbEntity
  8
PASS_05
100
AcDbPolyline
 90
3
 70
1
 10
234.22553217114594
 20
153.00305583591768
 10
234.05134594221659
 20
152.875
 10
234.57575420790295
 20
152.03597483996026
  0
LWPOLYLINE
  5
1FF
330
17
100
AcDbEntity
  8
PASS_05
100
AcDbPolyline
 90
4
 70
1
 10
273.45708049301487
 20
207.74069579336123
 10
272.4358837881444
 20
208.10745528186473
 10
272.5747092856608
 20
207.875
 10
273.45070366063914
 20
207.625
  0
LWPOLYLINE
  5
200
330
17
100
AcDbEntity
  8
PASS_05
100
AcDbPolyline
 90
3
 70
1
 10
274.39026588407086
 20
213.77441115041796
 10
274.4483726687572
 20
213.875
 10
274.29397015162255
 20
213.97427843368143
  0
LWPOLYLINE
  5
201
330
17
100
AcDbEntity
  8
PASS_05
100
AcDbPolyline
 90
4
 70
1
 10
270.6406305143457
 20
214.41562679642763
 10
272.33824624495713
 20
215.23177869838096
 10
272.25
 20
215.28851967087414
 10
270.5793240404296
 20
214.625
  0
LWPOLYLINE
  5
202
330
17
100
AcDbEntity
  8
PASS_05
100
AcDbPolyline
 90
4
 70
1
 10
260.5349754908273
 20
250.95376481164644
 10
260.5783435057931
 20
250.875
 10
264.5
 20
247.5639452817456
 10
264.38754111315444
 20
247.94470426217393
  0
LWPOLYLINE
  5
203
330
17
100
AcDbEntity
  8
PASS_05
100
AcDbPolyline
 90
3
 70
1
 10
248.0
 20
206.44426540785122
 10
247.03639952065774
 20
205.625
 10
247.10097409720038
 20
205.34578926877614
  0
LWPOLYLINE
  5
204
330
17
100
AcDbEntity
  8
PASS_05
100
AcDbPolyline
 90
3
 70
1
 10
248.97186649623166
 20
205.7108806087145
 10
248.75
 20
206.18996431122702
 10
248.0
 20
206.44426540785122
  0
LWPOLYLINE
  5
205
330
17
100
AcDbEntity
  8
PASS_05
100
AcDbPolyline
 90
3
 70
1
 10
249.07570871689856
 20
202.38695860916462
 10
247.24845231769703
 20
204.70811568283688
 10
247.3833126367454
 20
204.125
  0
LWPOLYLINE
  5
206
330
17
100
AcDbEntity
  8
PASS_05
100
AcDbPolyline
 90
3
 70
1
 10
249.82522326163425
 20
201.86041138308283
 10
249.59692288312334
 20
201.85168686928534
 10
249.75
 20
201.69448113698581
  0
LWPOLYLINE
  5
207
330
17
100
AcDbEntity
  8
PASS_05
100
AcDbPolyline
 90
3
 70
1
 10
249.69228263573422
 20
204.15526208440016
 10
250.0822800244547
 20
202.42743667538005
 10
250.2851795792838
 20
202.875
  0
LWPOLYLINE
  5
208
330
17
100
AcDbEntity
  8
PASS_05
100
AcDbPolyline
 90
3
 70
1
 10
219.5
 20
195.47669223357832
 10
219.38597476697805
 20
195.4841111598181
 10
219.8534877436175
 20
193.125
  0
LWPOLYLINE
  5
209
330
17
100
AcDbEntity
  8
PASS_05
100
AcDbPolyline
 90
3
 70
1
 10
222.23715723059118
 20
175.875
 10
220.88998928624224
 20
173.00769648142506
 10
221.92109374598496
 20
174.375
  0
LWPOLYLINE
  5
20A
330
17
100
AcDbEntity
  8
PASS_05
100
AcDbPolyline
 90
3
 70
1
 10
220.61128240000278
 20
172.41449855171055
 10
220.35780551826394
 20
171.875
 10
220.6933389147147
 20
170.66805134755415
  0
LWPOLYLINE
  5
20B
330
17
100
AcDbEntity
  8
PASS_05
100
AcDbPolyline
 90
3
 70
1
 10
220.73992277821802
 20
169.676585179879
 10
219.8037748224358
 20
169.875
 10
220.75
 20
169.46210695266484
  0
LWPOLYLINE
  5
20C
330
17
100
AcDbEntity
  8
PASS_05
100
AcDbPolyline
 90
3
 70
1
 10
219.97659314081196
 20
178.32422577845247
 10
219.84474879370256
 20
174.875
 10
219.8037748224358
 20
169.875
  0
LWPOLYLINE
  5
20D
330
17
100
AcDbEntity
  8
PASS_05
100
AcDbPolyline
 90
4
 70
1
 10
220.04542653032638
 20
180.125
 10
220.03970100957926
 20
179.97521266221094
 10
221.57441810074474
 20
184.875
 10
221.61875902771274
 20
185.86957013252723
  0
LWPOLYLINE
  5
20E
330
17
100
AcDbEntity
  8
PASS_05
100
AcDbPolyline
 90
3
 70
1
 10
221.750635424772
 20
188.82756705927372
 10
221.76389587958693
 20
189.125
 10
221.34011811484035
 20
192.125
  0
LWPOLYLINE
  5
20F
330
17
100
AcDbEntity
  8
PASS_05
100
AcDbPolyline
 90
3
 70
1
 10
264.92913407513504
 20
116.125
 10
264.6947282816159
 20
116.00630135726712
 10
264.87205003649024
 20
115.94603267956907
  0
LWPOLYLINE
  5
210
330
17
100
AcDbEntity
  8
PASS_05
100
AcDbPolyline
 90
3
 70
1
 10
263.5
 20
111.64444287693017
 10
264.6983611202799
 20
115.40149097122648
 10
264.0708168819719
 20
114.625
  0
LWPOLYLINE
  5
211
330
17
100
AcDbEntity
  8
PASS_05
100
AcDbPolyline
 90
3
 70
1
 10
261.0
 20
112.15029707768315
 10
261.4896925425962
 20
112.05121186578329
 10
260.50539986610295
 20
113.24358951826915
  0
LWPOLYLINE
  5
212
330
17
100
AcDbEntity
  8
PASS_05
100
AcDbPolyline
 90
3
 70
1
 10
258.9025081433225
 20
116.875
 10
258.7459474615776
 20
115.375
 10
258.9894289744857
 20
116.89184970402376
  0
LWPOLYLINE
  5
213
330
17
100
AcDbEntity
  8
PASS_05
100
AcDbPolyline
 90
3
 70
1
 10
259.5
 20
116.99082449002034
 10
259.0735519653767
 20
116.90815704346285
 10
260.05294478096
 20
116.24838739383208
  0
LWPOLYLINE
  5
214
330
17
100
AcDbEntity
  8
PASS_05
100
AcDbPolyline
 90
3
 70
1
 10
342.0
 20
129.2926331692029
 10
346.75
 20
125.78846681234393
 10
346.94631880592414
 20
126.01120601315732
  0
LWPOLYLINE
  5
215
330
17
100
AcDbEntity
  8
PASS_05
100
AcDbPolyline
 90
8
 70
1
 10
163.37863094789094
 20
213.875
 10
165.5
 20
212.16172316053124
 10
166.7491999791557
 20
213.625
 10
165.75
 20
215.95884277096786
 10
164.7421168094821
 20
215.625
 10
164.75
 20
214.4017537794542
 10
163.75
 20
215.2028096961331
 10
163.24953390640138
 20
214.625
  0
LWPOLYLINE
  5
216
330
17
100
AcDbEntity
  8
PASS_05
100
AcDbPolyline
 90
7
 70
1
 10
133.938717212511
 20
208.125
 10
133.0
 20
209.3193204227053
 10
131.3791831860163
 20
208.875
 10
131.03279058735166
 20
207.375
 10
131.75
 20
206.15928331066164
 10
133.0
 20
205.86720857715068
 10
133.9247497507925
 20
206.875
  0
LWPOLYLINE
  5
217
330
17
100
AcDbEntity
  8
PASS_05
100
AcDbPolyline
 90
5
 70
1
 10
445.920194337444
 20
374.44925891814535
 10
445.6485453387131
 20
375.125
 10
447.0
 20
378.13172517625435
 10
445.6069274071923
 20
375.875
 10
445.6722803566535
 20
374.375
  0
LWPOLYLINE
  5
218
330
17
100
AcDbEntity
  8
PASS_05
100
AcDbPolyline
 90
3
 70
1
 10
447.34153427916067
 20
374.875
 10
448.5
 20
376.02314566115706
 10
446.54325877964277
 20
374.6358885356642
  0
LWPOLYLINE
  5
219
330
17
100
AcDbEntity
  8
PASS_05
100
AcDbPolyline
 90
3
 70
1
 10
445.63863893553713
 20
359.0376660971454
 10
448.94829643285874
 20
356.95981147126287
 10
448.9415455459263
 20
357.125
  0
LWPOLYLINE
  5
21A
330
17
100
AcDbEntity
  8
PASS_05
100
AcDbPolyline
 90
3
 70
1
 10
443.75
 20
360.13134996043965
 10
441.3828352013284
 20
358.375
 10
443.93483539963427
 20
360.0243144174665
  0
LWPOLYLINE
  5
21B
330
17
100
AcDbEntity
  8
PASS_05
100
AcDbPolyline
 90
3
 70
1
 10
448.0
 20
356.2749894545359
 10
448.14280115504204
 20
356.32694681302127
 10
444.5
 20
358.3425602326113
  0
LWPOLYLINE
  5
21C
330
17
100
AcDbEntity
  8
PASS_05
100
AcDbPolyline
 90
3
 70
1
 10
448.96197943133
 20
356.625
 10
448.9555694139045
 20
356.7818477384218
 10
448.51940135759867
 20
356.4639705767586
  0
LWPOLYLINE
  5
21D
330
17
100
AcDbEntity
  8
PASS_05
100
AcDbPolyline
 90
4
 70
1
 10
413.5611604374366
 20
337.89215855947646
 10
413.75
 20
337.81479789739404
 10
414.4571567556407
 20
339.3928539351912
 10
414.23803620298276
 20
339.375
  0
LWPOLYLINE
  5
21E
330
17
100
AcDbEntity
  8
PASS_05
100
AcDbPolyline
 90
3
 70
1
 10
415.3911015422312
 20
338.625
 10
414.75
 20
339.4167147927994
 10
414.5876909934866
 20
339.4034898604592
  0
LWPOLYLINE
  5
21F
330
17
100
AcDbEntity
  8
PASS_05
100
AcDbPolyline
 90
3
 70
1
 10
414.9390009461278
 20
337.875
 10
415.02875194032947
 20
337.5367555612724
 10
415.3911015422312
 20
338.625
  0
LWPOLYLINE
  5
220
330
17
100
AcDbEntity
  8
PASS_05
100
AcDbPolyline
 90
3
 70
1
 10
415.25
 20
336.70293832695086
 10
415.4848062540478
 20
336.98928767644037
 10
415.069105178443
 20
337.3846763726464
  0
LWPOLYLINE
  5
221
330
17
100
AcDbEntity
  8
PASS_05
100
AcDbPolyline
 90
3
 70
1
 10
416.00608988752964
 20
337.625
 10
415.8927988223275
 20
338.625
 10
415.7979641678227
 20
337.37118791696247
  0
LWPOLYLINE
  5
222
330
17
100
AcDbEntity
  8
PASS_05
100
AcDbPolyline
 90
3
 70
1
 10
398.33095296450705
 20
307.33322433713215
 10
398.7870762207108
 20
310.625
 10
398.2097617724829
 20
307.625
  0
LWPOLYLINE
  5
223
330
17
100
AcDbEntity
  8
PASS_05
100
AcDbPolyline
 90
3
 70
1
 10
398.75
 20
306.3243413934821
 10
398.862691642309
 20
306.39619581405617
 10
398.6753469706533
 20
306.5040734083168
  0
LWPOLYLINE
  5
224
330
17
100
AcDbEntity
  8
PASS_05
100
AcDbPolyline
 90
3
 70
1
 10
400.0
 20
307.1213661228876
 10
399.72537696365373
 20
307.39480166300285
 10
399.9494902913315
 20
307.0891601333805
  0
LWPOLYLINE
  5
225
330
17
100
AcDbEntity
  8
PASS_05
100
AcDbPolyline
 90
3
 70
1
 10
399.2724446318146
 20
308.2559855862209
 10
399.1899550287766
 20
308.125
 10
399.2554699482787
 20
308.03565198836145
  0
LWPOLYLINE
  5
226
330
17
100
AcDbEntity
  8
PASS_05
100
AcDbPolyline
 90
3
 70
1
 10
401.12049411998646
 20
311.125
 10
401.1153236648971
 20
311.18230092284983
 10
400.9267626564444
 20
310.88288410762766
  0
LWPOLYLINE
  5
227
330
17
100
AcDbEntity
  8
PASS_05
100
AcDbPolyline
 90
6
 70
1
 10
429.5860828240805
 20
352.125
 10
428.25
 20
353.0797097725816
 10
426.4747687634144
 20
352.625
 10
427.25
 20
349.8432182261955
 10
428.5
 20
349.6887143762667
 10
430.02250624668693
 20
350.625
  0
LWPOLYLINE
  5
228
330
17
100
AcDbEntity
  8
PASS_05
100
AcDbPolyline
 90
3
 70
1
 10
410.0
 20
370.04113469063935
 10
409.2889190825157
 20
369.2689414794707
 10
410.01156306364845
 20
370.0470475624891
  0
LWPOLYLINE
  5
229
330
17
100
AcDbEntity
  8
PASS_05
100
AcDbPolyline
 90
3
 70
1
 10
400.8686400608906
 20
360.125
 10
400.3936572251784
 20
359.052269083102
 10
400.9270169083933
 20
360.18839391793904
  0
LWPOLYLINE
  5
22A
330
17
100
AcDbEntity
  8
PASS_05
100
AcDbPolyline
 90
3
 70
1
 10
398.4333549812257
 20
354.625
 10
398.9189365635456
 20
353.59920714074843
 10
398.48416858443716
 20
354.73976061673307
  0
LWPOLYLINE
  5
22B
330
17
100
AcDbEntity
  8
PASS_05
100
AcDbPolyline
 90
3
 70
1
 10
400.5
 20
350.2592048791507
 10
400.5884029290623
 20
350.46673659840076
 10
400.19687969622123
 20
350.89954762366926
  0
LWPOLYLINE
  5
22C
330
17
100
AcDbEntity
  8
PASS_05
100
AcDbPolyline
 90
3
 70
1
 10
401.82724489555767
 20
353.375
 10
400.6033490477088
 20
355.625
 10
401.72807004021735
 20
353.142180471807
  0
LWPOLYLINE
  5
22D
330
17
100
AcDbEntity
  8
PASS_05
100
AcDbPolyline
 90
3
 70
1
 10
407.87215921477576
 20
356.875
 10
407.782596186119
 20
357.4693526296476
 10
407.75506988880596
 20
356.8133410399902
  0
LWPOLYLINE
  5
22E
330
17
100
AcDbEntity
  8
PASS_05
100
AcDbPolyline
 90
3
 70
1
 10
407.42008905883205
 20
359.875
 10
406.29925963538074
 20
361.375
 10
407.5258874563604
 20
359.17290721990383
  0
LWPOLYLINE
  5
22F
330
17
100
AcDbEntity
  8
PASS_05
100
AcDbPolyline
 90
3
 70
1
 10
295.4425487713604
 20
256.375
 10
295.6943793578568
 20
256.0254533884939
 10
295.7945699248945
 20
257.625
  0
LWPOLYLINE
  5
230
330
17
100
AcDbEntity
  8
PASS_05
100
AcDbPolyline
 90
3
 70
1
 10
296.5
 20
254.9072335187858
 10
297.2302278510352
 20
254.73159867117403
 10
295.9372885688919
 20
255.68828985009208
  0
LWPOLYLINE
  5
231
330
17
100
AcDbEntity
  8
PASS_05
100
AcDbPolyline
 90
3
 70
1
 10
298.75
 20
254.36606214800574
 10
300.4203427522022
 20
254.875
 10
297.87635889757007
 20
254.57619083821544
  0
LWPOLYLINE
  5
232
330
17
100
AcDbEntity
  8
PASS_05
100
AcDbPolyline
 90
3
 70
1
 10
301.25
 20
259.93673288837124
 10
300.0
 20
260.54336100698515
 10
301.2231594111287
 20
259.75106628544444
  0
LWPOLYLINE
  5
233
330
17
100
AcDbEntity
  8
PASS_05
100
AcDbPolyline
 90
3
 70
1
 10
290.1045360421723
 20
263.4311529986443
 10
290.09189085144936
 20
263.375
 10
291.0
 20
262.4544543213081
  0
LWPOLYLINE
  5
234
330
17
100
AcDbEntity
  8
PASS_05
100
AcDbPolyline
 90
3
 70
1
 10
232.78823631805216
 20
329.625
 10
231.98624899065436
 20
324.375
 10
232.07839574363905
 20
323.0684677444661
  0
LWPOLYLINE
  5
235
330
17
100
AcDbEntity
  8
PASS_05
100
AcDbPolyline
 90
3
 70
1
 10
232.22995962599097
 20
320.9194706864835
 10
232.23309604252037
 20
320.875
 10
232.2406417690805
 20
320.8687129930651
  0
LWPOLYLINE
  5
236
330
17
100
AcDbEntity
  8
PASS_05
100
AcDbPolyline
 90
4
 70
1
 10
233.6957548313253
 20
319.65633061471016
 10
234.0
 20
319.4028372671679
 10
235.25
 20
319.7561604543064
 10
235.23879959760137
 20
319.8663689939598
  0
LWPOLYLINE
  5
237
330
17
100
AcDbEntity
  8
PASS_05
100
AcDbPolyline
 90
3
 70
1
 10
235.20108755938847
 20
320.23744393491967
 10
234.75245465802968
 20
324.6518546979896
 10
234.60472253129132
 20
322.375
  0
LWPOLYLINE
  5
238
330
17
100
AcDbEntity
  8
PASS_05
100
AcDbPolyline
 90
3
 70
1
 10
234.43083687982755
 20
327.8164754322026
 10
234.3907018055562
 20
328.21139230812366
 10
234.33806970752053
 20
328.125
  0
LWPOLYLINE
  5
239
330
17
100
AcDbEntity
  8
PASS_05
100
AcDbPolyline
 90
3
 70
1
 10
227.52358043761797
 20
269.625
 10
228.75
 20
270.0957884673845
 10
227.52638689597987
 20
269.6734142733217
  0
LWPOLYLINE
  5
23A
330
17
100
AcDbEntity
  8
PASS_05
100
AcDbPolyline
 90
3
 70
1
 10
229.5
 20
268.5467386901528
 10
231.55396439709781
 20
268.125
 10
229.46962219965883
 20
268.6094809899545
  0
LWPOLYLINE
  5
23B
330
17
100
AcDbEntity
  8
PASS_05
100
AcDbPolyline
 90
3
 70
1
 10
234.04934575488858
 20
267.0431818861911
 10
233.5
 20
266.7556092237993
 10
233.25
 20
265.5839690013453
  0
LWPOLYLINE
  5
23C
330
17
100
AcDbEntity
  8
PASS_05
100
AcDbPolyline
 90
3
 70
1
 10
234.50500941097178
 20
267.875
 10
233.1481853821967
 20
270.375
 10
234.35743263921188
 20
267.60559727215787
  0
LWPOLYLINE
  5
23D
330
17
100
AcDbEntity
  8
PASS_05
100
AcDbPolyline
 90
3
 70
1
 10
236.5
 20
271.5871954747663
 10
236.24653308138303
 20
272.73081438756645
 10
236.27109575594514
 20
271.5044114546346
  0
LWPOLYLINE
  5
23E
330
17
100
AcDbEntity
  8
PASS_05
100
AcDbPolyline
 90
3
 70
1
 10
236.10375847318676
 20
273.375
 10
233.75
 20
273.6987198654915
 10
236.15488822494476
 20
273.14430736588315
  0
LWPOLYLINE
  5
23F
330
17
100
AcDbEntity
  8
PASS_05
100
AcDbPolyline
 90
3
 70
1
 10
208.25
 20
257.84298716118394
 10
208.09598326687777
 20
257.8690062783393
 10
208.30203718846852
 20
257.73904069777956
  0
LWPOLYLINE
  5
240
330
17
100
AcDbEntity
  8
PASS_05
100
AcDbPolyline
 90
3
 70
1
 10
203.1742894492513
 20
258.7004622211306
 10
206.0
 20
257.8602741145685
 10
206.8529669539212
 20
258.0789976631534
  0
LWPOLYLINE
  5
241
330
17
100
AcDbEntity
  8
PASS_05
100
AcDbPolyline
 90
3
 70
1
 10
202.75
 20
258.7721403866394
 10
200.73129043297783
 20
258.375
 10
202.93324481086515
 20
258.7411835671734
  0
LWPOLYLINE
  5
242
330
17
100
AcDbEntity
  8
PASS_05
100
AcDbPolyline
 90
3
 70
1
 10
206.1422849442877
 20
253.78256026110165
 10
206.0
 20
253.91125875190258
 10
201.0
 20
254.62803086919516
  0
LWPOLYLINE
  5
243
330
17
100
AcDbEntity
  8
PASS_05
100
AcDbPolyline
 90
3
 70
1
 10
209.75
 20
249.46592584441274
 10
208.25122269318555
 20
251.875
 10
206.49623678048818
 20
253.46240645028723
  0
LWPOLYLINE
  5
244
330
17
100
AcDbEntity
  8
PASS_05
100
AcDbPolyline
 90
3
 70
1
 10
210.61842783273175
 20
251.625
 10
209.19930143767795
 20
253.625
 10
210.58257950985842
 20
251.53587435878984
  0
LWPOLYLINE
  5
245
330
17
100
AcDbEntity
  8
PASS_05
100
AcDbPolyline
 90
3
 70
1
 10
249.75
 20
340.1227494773612
 10
248.38279321222922
 20
341.33384189734886
 10
248.1673820338601
 20
341.125
  0
LWPOLYLINE
  5
246
330
17
100
AcDbEntity
  8
PASS_05
100
AcDbPolyline
 90
3
 70
1
 10
253.49614178470512
 20
340.125
 10
253.32394447027932
 20
340.12489655117804
 10
253.71464791503152
 20
339.58049405072256
  0
LWPOLYLINE
  5
247
330
17
100
AcDbEntity
  8
PASS_05
100
AcDbPolyline
 90
3
 70
1
 10
255.75
 20
339.6322540492489
 10
254.17136368298236
 20
338.9441106007953
 10
254.25
 20
338.834539497223
  0
LWPOLYLINE
  5
248
330
17
100
AcDbEntity
  8
PASS_05
100
AcDbPolyline
 90
3
 70
1
 10
257.5
 20
339.1030449999506
 10
257.32009875986984
 20
339.15744806524026
 10
259.8917128391288
 20
337.125
  0
LWPOLYLINE
  5
249
330
17
100
AcDbEntity
  8
PASS_05
100
AcDbPolyline
 90
3
 70
1
 10
261.75
 20
334.4356832436563
 10
260.0274165078921
 20
335.875
 10
261.7597887697373
 20
334.39947875697044
  0
LWPOLYLINE
  5
24A
330
17
100
AcDbEntity
  8
PASS_05
100
AcDbPolyline
 90
3
 70
1
 10
265.25
 20
336.74182719246767
 10
265.022901789032
 20
336.7821334193781
 10
266.923620311448
 20
335.125
  0
LWPOLYLINE
  5
24B
330
17
100
AcDbEntity
  8
PASS_05
100
AcDbPolyline
 90
3
 70
1
 10
267.28250349624443
 20
339.375
 10
269.6543625654081
 20
334.875
 10
267.37275887307476
 20
339.71903301511884
  0
LWPOLYLINE
  5
24C
330
17
100
AcDbEntity
  8
PASS_05
100
AcDbPolyline
 90
3
 70
1
 10
267.5
 20
340.20404731654406
 10
267.44481165239245
 20
339.99368185917575
 10
267.9649981181605
 20
340.0311224201924
  0
LWPOLYLINE
  5
24D
330
17
100
AcDbEntity
  8
PASS_05
100
AcDbPolyline
 90
3
 70
1
 10
271.0
 20
340.59682415366126
 10
269.8768967441531
 20
340.1687318388813
 10
273.75
 20
340.44749948917047
  0
LWPOLYLINE
  5
24E
330
17
100
AcDbEntity
  8
PASS_05
100
AcDbPolyline
 90
3
 70
1
 10
288.5
 20
355.56941599564817
 10
289.825017869154
 20
356.30270021966413
 10
289.75
 20
356.50120644821646
  0
LWPOLYLINE
  5
24F
330
17
100
AcDbEntity
  8
PASS_05
100
AcDbPolyline
 90
3
 70
1
 10
272.9396283014196
 20
344.523140348457
 10
274.46162768021486
 20
344.5487141151498
 10
273.0
 20
344.55273080136715
  0
LWPOLYLINE
  5
250
330
17
100
AcDbEntity
  8
PASS_05
100
AcDbPolyline
 90
3
 70
1
 10
440.5
 20
392.5426852643324
 10
442.4304262702888
 20
392.3357084530193
 10
442.39408266919924
 20
392.375
  0
LWPOLYLINE
  5
251
330
17
100
AcDbEntity
  8
PASS_05
100
AcDbPolyline
 90
3
 70
1
 10
438.40106608513895
 20
390.7026691328694
 10
438.5
 20
390.7060182517961
 10
440.5
 20
392.5426852643324
  0
LWPOLYLINE
  5
252
330
17
100
AcDbEntity
  8
PASS_05
100
AcDbPolyline
 90
3
 70
1
 10
436.1550702300664
 20
390.6266374986417
 10
437.7203123406194
 20
390.67962420178213
 10
436.25
 20
390.81525521609535
  0
LWPOLYLINE
  5
253
330
17
100
AcDbEntity
  8
PASS_05
100
AcDbPolyline
 90
3
 70
1
 10
439.25
 20
389.60218502691396
 10
438.0598139188441
 20
388.28669681527276
 10
438.25
 20
388.1810341090648
  0
LWPOLYLINE
  5
254
330
17
100
AcDbEntity
  8
PASS_05
100
AcDbPolyline
 90
3
 70
1
 10
443.98480569150956
 20
383.46159667844216
 10
443.6986088736743
 20
387.125
 10
443.8784067085954
 20
383.375
  0
LWPOLYLINE
  5
255
330
17
100
AcDbEntity
  8
PASS_05
100
AcDbPolyline
 90
3
 70
1
 10
441.8974380055055
 20
387.1587652354349
 10
442.8234378557677
 20
384.375
 10
442.1118820572961
 20
386.875
  0
LWPOLYLINE
  5
256
330
17
100
AcDbEntity
  8
PASS_05
100
AcDbPolyline
 90
3
 70
1
 10
440.2042696652099
 20
388.3704331965765
 10
441.4311053522384
 20
387.77584458102797
 10
441.0
 20
388.34630904835007
  0
LWPOLYLINE
  5
257
330
17
100
AcDbEntity
  8
PASS_05
100
AcDbPolyline
 90
3
 70
1
 10
439.11935105554926
 20
386.625
 10
439.95632038848544
 20
388.3779502722023
 10
439.75
 20
388.3842052852593
  0
LWPOLYLINE
  5
258
330
17
100
AcDbEntity
  8
PASS_05
100
AcDbPolyline
 90
4
 70
1
 10
443.0
 20
381.54882091656515
 10
443.0059309188685
 20
381.625
 10
441.4750632454799
 20
381.625
 10
441.5
 20
381.58835703608446
  0
LWPOLYLINE
  5
259
330
17
100
AcDbEntity
  8
PASS_05
100
AcDbPolyline
 90
4
 70
1
 10
441.80951866354985
 20
383.30223167547456
 10
441.6420094324099
 20
383.125
 10
443.0119421191358
 20
381.7022102496867
 10
443.0448583947652
 20
382.125
  0
LWPOLYLINE
  5
25A
330
17
100
AcDbEntity
  8
PASS_05
100
AcDbPolyline
 90
3
 70
1
 10
391.33005744378846
 20
383.5596811044678
 10
391.0581322876524
 20
383.3592752495467
 10
391.3851051958746
 20
383.375
  0
LWPOLYLINE
  5
25B
330
17
100
AcDbEntity
  8
PASS_05
100
AcDbPolyline
 90
3
 70
1
 10
390.8333315877589
 20
384.91602858308767
 10
391.10315634530764
 20
384.3209173745124
 10
390.9380013713271
 20
384.875
  0
LWPOLYLINE
  5
25C
330
17
100
AcDbEntity
  8
PASS_05
100
AcDbPolyline
 90
4
 70
1
 10
388.25
 20
382.49027436527433
 10
387.19510774533916
 20
382.875
 10
387.3433822662712
 20
384.125
 10
387.14475989081865
 20
382.625
  0
LWPOLYLINE
  5
25D
330
17
100
AcDbEntity
  8
PASS_05
100
AcDbPolyline
 90
3
 70
1
 10
385.88766710700855
 20
397.4201574012326
 10
386.0
 20
397.4664204103347
 10
385.82727881709627
 20
397.7667400053427
  0
LWPOLYLINE
  5
25E
330
17
100
AcDbEntity
  8
PASS_05
100
AcDbPolyline
 90
3
 70
1
 10
384.19329884165296
 20
398.8345381525552
 10
385.5188973873673
 20
398.3029393558057
 10
385.3336723925397
 20
398.625
  0
LWPOLYLINE
  5
25F
330
17
100
AcDbEntity
  8
PASS_05
100
AcDbPolyline
 90
4
 70
1
 10
383.5954976670654
 20
398.9443812417964
 10
383.5
 20
398.9619284785897
 10
379.3820005731956
 20
397.125
 10
379.3552950234818
 20
397.08006384576214
  0
LWPOLYLINE
  5
260
330
17
100
AcDbEntity
  8
PASS_05
100
AcDbPolyline
 90
3
 70
1
 10
378.7527515587737
 20
395.375
 10
379.170834828073
 20
396.7696814765374
 10
377.59910102381536
 20
394.125
  0
LWPOLYLINE
  5
261
330
17
100
AcDbEntity
  8
PASS_05
100
AcDbPolyline
 90
3
 70
1
 10
375.67953411374845
 20
387.92316757823943
 10
376.3761047493124
 20
390.125
 10
375.5939570779826
 20
388.625
  0
LWPOLYLINE
  5
262
330
17
100
AcDbEntity
  8
PASS_05
100
AcDbPolyline
 90
3
 70
1
 10
376.1141550515035
 20
387.46501221714595
 10
375.7208950766645
 20
387.5839589983919
 10
375.75
 20
387.34526436908
  0
LWPOLYLINE
  5
263
330
17
100
AcDbEntity
  8
PASS_05
100
AcDbPolyline
 90
3
 70
1
 10
376.57633897092427
 20
387.9081438121718
 10
376.4763033900668
 20
387.58410018268313
 10
376.6006803648688
 20
387.625
  0
LWPOLYLINE
  5
264
330
17
100
AcDbEntity
  8
PASS_05
100
AcDbPolyline
 90
3
 70
1
 10
377.6465929149565
 20
391.375
 10
377.5618188856638
 20
391.1003928661891
 10
377.72129034289287
 20
391.43249749599863
  0
LWPOLYLINE
  5
265
330
17
100
AcDbEntity
  8
PASS_05
100
AcDbPolyline
 90
3
 70
1
 10
379.7212214504309
 20
394.125
 10
379.27052076257417
 20
392.625
 10
379.7412370116003
 20
394.1266640081252
  0
LWPOLYLINE
  5
266
330
17
100
AcDbEntity
  8
PASS_05
100
AcDbPolyline
 90
3
 70
1
 10
382.5161932765051
 20
394.35736200019005
 10
382.00513144545306
 20
394.3148745059777
 10
382.5
 20
394.23473274139843
  0
LWPOLYLINE
  5
267
330
17
100
AcDbEntity
  8
PASS_05
100
AcDbPolyline
 90
3
 70
1
 10
382.747416977027
 20
396.125
 10
382.74721969051575
 20
396.1068904481553
 10
382.74973247621637
 20
396.12591939809477
  0
LWPOLYLINE
  5
268
330
17
100
AcDbEntity
  8
PASS_05
100
AcDbPolyline
 90
4
 70
1
 10
376.25
 20
378.84379131397594
 10
377.3101669920126
 20
377.375
 10
379.0
 20
376.54038882476425
 10
379.03450380254634
 20
376.66626142301703
  0
LWPOLYLINE
  5
269
330
17
100
AcDbEntity
  8
PASS_05
100
AcDbPolyline
 90
3
 70
1
 10
382.0
 20
393.1011568545686
 10
378.3756121516053
 20
391.375
 10
378.33999149795864
 20
391.2837283349499
  0
LWPOLYLINE
  5
26A
330
17
100
AcDbEntity
  8
PASS_05
100
AcDbPolyline
 90
3
 70
1
 10
381.5529139704557
 20
390.5059734881321
 10
381.86719353613654
 20
390.875
 10
382.0
 20
393.1011568545686
  0
LWPOLYLINE
  5
26B
330
17
100
AcDbEntity
  8
PASS_05
100
AcDbPolyline
 90
3
 70
1
 10
377.6081107259667
 20
388.18029713108996
 10
377.27398703325036
 20
388.5522792321372
 10
377.20480014898305
 20
388.375
  0
LWPOLYLINE
  5
26C
330
17
100
AcDbEntity
  8
PASS_05
100
AcDbPolyline
 90
3
 70
1
 10
379.11237090476
 20
387.6402921236883
 10
378.63436977438363
 20
387.68485864676836
 10
379.0
 20
387.50834640545753
  0
LWPOLYLINE
  5
26D
330
17
100
AcDbEntity
  8
PASS_05
100
AcDbPolyline
 90
3
 70
1
 10
305.4422160605659
 20
325.125
 10
304.2878993205847
 20
319.375
 10
304.4782933585712
 20
318.21498665030055
  0
LWPOLYLINE
  5
26E
330
17
100
AcDbEntity
  8
PASS_05
100
AcDbPolyline
 90
3
 70
1
 10
304.4935490668254
 20
318.12203822911505
 10
304.5
 20
318.0827346423025
 10
308.5
 20
317.69532782212895
  0
LWPOLYLINE
  5
26F
330
17
100
AcDbEntity
  8
PASS_05
100
AcDbPolyline
 90
3
 70
1
 10
321.7771862895684
 20
315.89819933625876
 10
322.9938582950477
 20
314.375
 10
321.94036395041763
 20
315.875
  0
LWPOLYLINE
  5
270
330
17
100
AcDbEntity
  8
PASS_05
100
AcDbPolyline
 90
3
 70
1
 10
322.79082094169195
 20
311.7297659718138
 10
322.75
 20
311.19793799907154
 10
323.25
 20
310.987245289383
  0
LWPOLYLINE
  5
271
330
17
100
AcDbEntity
  8
PASS_05
100
AcDbPolyline
 90
3
 70
1
 10
324.672721426673
 20
312.125
 10
324.71426159784096
 20
312.2746883037844
 10
323.25
 20
310.987245289383
  0
LWPOLYLINE
  5
272
330
17
100
AcDbEntity
  8
PASS_05
100
AcDbPolyline
 90
3
 70
1
 10
307.15872511501254
 20
338.95201831866177
 10
308.6389627596264
 20
339.05234475895924
 10
308.5
 20
339.13245967489644
  0
LWPOLYLINE
  5
273
330
17
100
AcDbEntity
  8
PASS_05
100
AcDbPolyline
 90
3
 70
1
 10
304.9166768697016
 20
337.875
 10
305.90173763233
 20
338.78291612441063
 10
305.75
 20
338.76250290078593
  0
LWPOLYLINE
  5
274
330
17
100
AcDbEntity
  8
PASS_05
100
AcDbPolyline
 90
3
 70
1
 10
305.05481830835555
 20
335.625
 10
305.2376540271227
 20
335.3831644357605
 10
304.9166768697016
 20
337.875
  0
LWPOLYLINE
  5
275
330
17
100
AcDbEntity
  8
PASS_05
100
AcDbPolyline
 90
3
 70
1
 10
306.48379812642213
 20
335.00947979540257
 10
305.322451117011
 20
335.2710039005145
 10
305.5
 20
335.0361611980749
  0
LWPOLYLINE
  5
276
330
17
100
AcDbEntity
  8
PASS_05
100
AcDbPolyline
 90
3
 70
1
 10
307.0809809679431
 20
334.875
 10
306.98258891104103
 20
334.8971569388158
 10
306.8170631636528
 20
333.9624080973429
  0
LWPOLYLINE
  5
277
330
17
100
AcDbEntity
  8
PASS_05
100
AcDbPolyline
 90
3
 70
1
 10
307.25
 20
332.6051442652829
 10
306.7477076663029
 20
333.5707471514146
 10
306.71304467224564
 20
333.375
  0
LWPOLYLINE
  5
278
330
17
100
AcDbEntity
  8
PASS_05
100
AcDbPolyline
 90
3
 70
1
 10
305.1862570387996
 20
313.6471740882042
 10
304.0673118830293
 20
315.26226180592715
 10
304.77763427897196
 20
313.625
  0
LWPOLYLINE
  5
279
330
17
100
AcDbEntity
  8
PASS_05
100
AcDbPolyline
 90
3
 70
1
 10
305.5
 20
313.66419948370117
 10
307.5107727352849
 20
315.125
 10
305.39913883184136
 20
313.6587262094272
  0
LWPOLYLINE
  5
27A
330
17
100
AcDbEntity
  8
PASS_05
100
AcDbPolyline
 90
3
 70
1
 10
304.75
 20
317.2823889507673
 10
304.30722571815176
 20
317.1519020190273
 10
306.0
 20
316.69650816905096
  0
LWPOLYLINE
  5
27B
330
17
100
AcDbEntity
  8
PASS_05
100
AcDbPolyline
 90
3
 70
1
 10
303.3676290015897
 20
316.875
 10
303.4847335799931
 20
316.60507910969136
 10
303.81315917031515
 20
317.0062991000107
  0
LWPOLYLINE
  5
27C
330
17
100
AcDbEntity
  8
PASS_05
100
AcDbPolyline
 90
3
 70
1
 10
295.75
 20
325.65375058922496
 10
297.1034049580632
 20
326.44050105151393
 10
297.0
 20
326.4779751984057
  0
LWPOLYLINE
  5
27D
330
17
100
AcDbEntity
  8
PASS_05
100
AcDbPolyline
 90
3
 70
1
 10
298.39989835385876
 20
326.12974606479924
 10
298.5
 20
326.09527563318557
 10
298.59700790632377
 20
326.2675180348609
  0
LWPOLYLINE
  5
27E
330
17
100
AcDbEntity
  8
PASS_05
100
AcDbPolyline
 90
3
 70
1
 10
274.9521825341727
 20
326.9169364509961
 10
274.75
 20
326.9227253662741
 10
274.75
 20
326.57152899976586
  0
LWPOLYLINE
  5
27F
330
17
100
AcDbEntity
  8
PASS_05
100
AcDbPolyline
 90
3
 70
1
 10
274.75
 20
326.2904348061459
 10
274.75
 20
326.26464307598417
 10
276.5
 20
325.0039901123514
  0
LWPOLYLINE
  5
280
330
17
100
AcDbEntity
  8
PASS_05
100
AcDbPolyline
 90
3
 70
1
 10
285.0990875889621
 20
318.0801356243343
 10
285.25
 20
317.7879302506819
 10
286.25
 20
317.7117692341692
  0
LWPOLYLINE
  5
281
330
17
100
AcDbEntity
  8
PASS_05
100
AcDbPolyline
 90
3
 70
1
 10
287.3063155963633
 20
319.95967959809207
 10
287.3840013091635
 20
320.125
 10
284.48813594690296
 20
321.125
  0
LWPOLYLINE
  5
282
330
17
100
AcDbEntity
  8
PASS_05
100
AcDbPolyline
 90
3
 70
1
 10
292.701648310894
 20
354.4308324197376
 10
293.25
 20
353.54573799146243
 10
293.7802595822749
 20
353.5557569395367
  0
LWPOLYLINE
  5
283
330
17
100
AcDbEntity
  8
PASS_05
100
AcDbPolyline
 90
3
 70
1
 10
296.2050587532532
 20
353.61926286452297
 10
296.0101277263533
 20
353.59788900823435
 10
296.25
 20
353.6024212560889
  0
LWPOLYLINE
  5
284
330
17
100
AcDbEntity
  8
PASS_05
100
AcDbPolyline
 90
3
 70
1
 10
295.25
 20
353.9846160239883
 10
295.49394809220394
 20
353.89753122532204
 10
294.4769898561209
 20
356.25840498870946
  0
LWPOLYLINE
  5
285
330
17
100
AcDbEntity
  8
PASS_05
100
AcDbPolyline
 90
3
 70
1
 10
293.67719939733513
 20
357.5880363887963
 10
293.96768494562747
 20
357.4407589518177
 10
293.88832218838087
 20
357.625
  0
LWPOLYLINE
  5
286
330
17
100
AcDbEntity
  8
PASS_05
100
AcDbPolyline
 90
3
 70
1
 10
291.51383606885616
 20
356.3480800878878
 10
291.29055499683204
 20
357.1701800537949
 10
291.0325028545718
 20
357.125
  0
LWPOLYLINE
  5
287
330
17
100
AcDbEntity
  8
PASS_05
100
AcDbPolyline
 90
3
 70
1
 10
271.75
 20
318.3081951206889
 10
271.8080202682188
 20
318.3367874406624
 10
271.66144585730933
 20
318.4137967536753
  0
LWPOLYLINE
  5
288
330
17
100
AcDbEntity
  8
PASS_05
100
AcDbPolyline
 90
3
 70
1
 10
274.6972818023475
 20
318.72647682943614
 10
274.64201328305285
 20
318.875
 10
272.696227823784
 20
320.875
  0
LWPOLYLINE
  5
289
330
17
100
AcDbEntity
  8
PASS_05
100
AcDbPolyline
 90
3
 70
1
 10
259.5
 20
317.8937424314229
 10
259.34412512067024
 20
317.67844312338127
 10
261.7252756936401
 20
318.125
  0
LWPOLYLINE
  5
28A
330
17
100
AcDbEntity
  8
PASS_05
100
AcDbPolyline
 90
4
 70
1
 10
259.16055914252024
 20
317.4248959947765
 10
258.9434369769988
 20
317.125
 10
259.75
 20
315.8844352683602
 10
259.9855505642157
 20
315.79694150964525
  0
LWPOLYLINE
  5
28B
330
17
100
AcDbEntity
  8
PASS_05
100
AcDbPolyline
 90
3
 70
1
 10
262.0
 20
315.04868708085655
 10
262.645572545378
 20
314.9755031650517
 10
260.3226998140544
 20
315.67170956543595
  0
LWPOLYLINE
  5
28C
330
17
100
AcDbEntity
  8
PASS_05
100
AcDbPolyline
 90
3
 70
1
 10
263.5
 20
314.87864287049905
 10
264.1973748380312
 20
315.5275316034782
 10
263.3769481720321
 20
314.8925923711123
  0
LWPOLYLINE
  5
28D
330
17
100
AcDbEntity
  8
PASS_05
100
AcDbPolyline
 90
3
 70
1
 10
269.3059999542437
 20
315.125
 10
265.75
 20
316.7291291006683
 10
265.67021355018477
 20
316.6673812939497
  0
LWPOLYLINE
  5
28E
330
17
100
AcDbEntity
  8
PASS_05
100
AcDbPolyline
 90
3
 70
1
 10
272.5
 20
314.76146701214043
 10
272.5088408069957
 20
315.125
 10
269.3059999542437
 20
315.125
  0
LWPOLYLINE
  5
28F
330
17
100
AcDbEntity
  8
PASS_05
100
AcDbPolyline
 90
3
 70
1
 10
272.52708015656833
 20
315.875
 10
272.33445374860634
 20
315.89502822560434
 10
272.5185297554861
 20
315.5234084705909
  0
LWPOLYLINE
  5
290
330
17
100
AcDbEntity
  8
PASS_05
100
AcDbPolyline
 90
3
 70
1
 10
269.5
 20
320.0592556515069
 10
266.5
 20
319.9045535502868
 10
269.5942953113332
 20
319.9810657685107
  0
LWPOLYLINE
  5
291
330
17
100
AcDbEntity
  8
PASS_05
100
AcDbPolyline
 90
3
 70
1
 10
239.05124407874078
 20
327.7813486339402
 10
236.81166101425316
 20
326.125
 10
239.05453849239638
 20
327.625
  0
LWPOLYLINE
  5
292
330
17
100
AcDbEntity
  8
PASS_05
100
AcDbPolyline
 90
3
 70
1
 10
236.13308539917205
 20
323.7306332477414
 10
236.10314840393457
 20
323.625
 10
236.85207908563524
 20
321.593734300551
  0
LWPOLYLINE
  5
293
330
17
100
AcDbEntity
  8
PASS_05
100
AcDbPolyline
 90
3
 70
1
 10
237.49215743436272
 20
319.85770021021614
 10
237.5
 20
319.8364294371474
 10
238.5
 20
319.5754944920441
  0
LWPOLYLINE
  5
294
330
17
100
AcDbEntity
  8
PASS_05
100
AcDbPolyline
 90
3
 70
1
 10
247.96719883904393
 20
317.42559994879446
 10
248.0315741093232
 20
317.125
 10
248.36475200930832
 20
317.0474616403068
  0
LWPOLYLINE
  5
295
330
17
100
AcDbEntity
  8
PASS_05
100
AcDbPolyline
 90
3
 70
1
 10
248.96669901323438
 20
316.9073743676853
 10
250.0
 20
316.6669008441209
 10
250.13688622645546
 20
316.87867942712995
  0
LWPOLYLINE
  5
296
330
17
100
AcDbEntity
  8
PASS_05
100
AcDbPolyline
 90
3
 70
1
 10
250.21067517386905
 20
316.99283933298483
 10
250.29609918009524
 20
317.125
 10
248.66907337999845
 20
319.375
  0
LWPOLYLINE
  5
297
330
17
100
AcDbEntity
  8
PASS_05
100
AcDbPolyline
 90
3
 70
1
 10
252.01437028268182
 20
321.9761466705331
 10
252.5
 20
321.7696742703537
 10
252.69339373267138
 20
322.09323720981956
  0
LWPOLYLINE
  5
298
330
17
100
AcDbEntity
  8
PASS_05
100
AcDbPolyline
 90
3
 70
1
 10
253.4812742987878
 20
328.875
 10
255.52829404177737
 20
331.375
 10
255.46806808249582
 20
331.48350862383666
  0
LWPOLYLINE
  5
299
330
17
100
AcDbEntity
  8
PASS_05
100
AcDbPolyline
 90
3
 70
1
 10
255.03932717220914
 20
332.2559676550027
 10
254.76818514534722
 20
332.7444820522831
 10
254.7255405613894
 20
332.625
  0
LWPOLYLINE
  5
29A
330
17
100
AcDbEntity
  8
PASS_05
100
AcDbPolyline
 90
3
 70
1
 10
253.9274056934378
 20
337.14985278741636
 10
253.75
 20
337.4461063699325
 10
251.75
 20
337.9247657240122
  0
LWPOLYLINE
  5
29B
330
17
100
AcDbEntity
  8
PASS_05
100
AcDbPolyline
 90
34
 70
1
 10
329.75
 20
322.31435468849355
 10
326.5
 20
323.88574945631865
 10
325.0
 20
323.8259809433849
 10
323.0796422055112
 20
325.375
 10
321.5
 20
328.75887049791305
 10
318.25
 20
329.66052811863267
 10
311.0
 20
327.1294174256926
 10
310.5930925417983
 20
326.125
 10
311.75
 20
324.20331207990455
 10
309.0
 20
325.7322299045519
 10
307.75
 20
325.51671456174694
 10
306.09548021419766
 20
320.875
 10
307.0
 20
320.4921313732664
 10
309.0
 20
321.6437167884733
 10
312.0
 20
318.6644502929569
 10
314.25
 20
318.9628164860386
 10
315.86088660040383
 20
321.125
 10
317.5
 20
319.79992195899126
 10
320.0
 20
320.1545003085964
 10
320.75
 20
321.14342333102564
 10
321.80399041594984
 20
320.625
 10
321.5681736741783
 20
319.125
 10
322.5
 20
317.6550457279046
 10
324.0
 20
317.7418706856149
 10
326.0
 20
316.58308599988345
 10
329.5
 20
318.0016480231608
 10
330.5
 20
319.26957609227395
 10
332.35854635408987
 20
318.625
 10
332.5
 20
320.80204211987507
 10
334.11467578506796
 20
319.875
 10
334.357107415471
 20
321.875
 10
336.205308306335
 20
324.125
 10
334.5
 20
324.08017681273935
 10
332.25
 20
322.818282671092
  0
LWPOLYLINE
  5
29C
330
17
100
AcDbEntity
  8
PASS_05
100
AcDbPolyline
 90
20
 70
1
 10
247.0
 20
333.26804159536914
 10
244.0
 20
332.76166555882014
 10
243.5
 20
330.35915872689475
 10
242.5
 20
332.96785081802716
 10
241.50237716438843
 20
332.125
 10
240.62281013132468
 20
330.625
 10
240.47751801602624
 20
328.875
 10
242.03457054444846
 20
328.125
 10
241.84332620317605
 20
326.625
 10
243.03642139545084
 20
325.125
 10
242.72616240595457
 20
322.875
 10
246.474601008893
 20
324.125
 10
246.49285357044033
 20
325.125
 10
248.5
 20
326.4277531019304
 10
251.1731267243873
 20
326.875
 10
252.87185518272037
 20
332.375
 10
252.75
 20
334.5600854850114
 10
251.25
 20
334.8248364017918
 10
249.25
 20
334.2605667099232
 10
249.75
 20
332.7577019047952
  0
LWPOLYLINE
  5
29D
330
17
100
AcDbEntity
  8
PASS_05
100
AcDbPolyline
 90
49
 70
1
 10
367.75
 20
333.5990208538801
 10
368.25
 20
334.7141631264926
 10
369.30226415446236
 20
334.125
 10
371.0
 20
337.5226725025076
 10
373.75
 20
339.0862856037696
 10
376.26119894168386
 20
339.375
 10
375.55026355857916
 20
341.625
 10
375.7467958356536
 20
342.875
 10
374.53362166430384
 20
345.375
 10
374.70668322034345
 20
346.375
 10
372.5
 20
347.21026695770706
 10
371.5
 20
345.87715548138664
 10
371.0
 20
347.84161456040863
 10
367.3594415121593
 20
349.125
 10
369.0
 20
349.49036206370573
 10
369.3400713221359
 20
350.125
 10
368.8364212867074
 20
351.125
 10
367.25
 20
352.1099568146971
 10
364.0
 20
351.41114098226177
 10
362.25
 20
351.8187274309024
 10
357.5
 20
348.161646074596
 10
356.3105684097754
 20
348.125
 10
355.377091946156
 20
346.625
 10
355.75
 20
345.5266434593434
 10
354.549101108187
 20
345.375
 10
353.4777843295161
 20
344.125
 10
354.05879291763927
 20
342.125
 10
351.52887866023906
 20
339.125
 10
352.0
 20
336.56921490158663
 10
353.25
 20
337.3248925616447
 10
355.5
 20
337.00915425115886
 10
357.37547363111935
 20
339.125
 10
358.75
 20
339.67084917437444
 10
359.75
 20
339.7485822563364
 10
360.25
 20
339.08207863757093
 10
361.0
 20
339.6559676080748
 10
361.0
 20
336.3682614712649
 10
361.75
 20
336.0946805701451
 10
363.75
 20
332.7335440436779
 10
363.6876667683688
 20
334.375
 10
362.39877343278334
 20
336.875
 10
362.5
 20
337.8861393127345
 10
364.75
 20
337.80787986499917
 10
365.2185415501141
 20
339.375
 10
367.5
 20
340.92444546033937
 10
367.6582422899258
 20
339.375
 10
365.9102129986179
 20
337.625
 10
364.6090574002934
 20
335.125
 10
365.75
 20
333.4571698912923
  0
LWPOLYLINE
  5
29E
330
17
100
AcDbEntity
  8
PASS_05
100
AcDbPolyline
 90
18
 70
1
 10
421.59376866588553
 20
385.375
 10
420.87420840481474
 20
383.625
 10
422.0
 20
381.9521553437107
 10
423.0
 20
382.49804208484807
 10
424.5
 20
381.7861450800742
 10
427.5
 20
381.3917776395586
 10
428.75
 20
381.8242563192471
 10
431.25
 20
381.2243083026839
 10
431.27429086424434
 20
382.875
 10
429.75
 20
383.135462676882
 10
428.3903660945089
 20
384.625
 10
428.4567166662059
 20
385.875
 10
427.4820949216755
 20
386.625
 10
426.75
 20
388.4410921736472
 10
424.5
 20
389.40269121160696
 10
423.75
 20
388.27277037576266
 10
422.0
 20
389.43361063423066
 10
421.0144557232171
 20
387.375
  0
LWPOLYLINE
  5
29F
330
17
100
AcDbEntity
  8
PASS_05
100
AcDbPolyline
 90
16
 70
1
 10
421.25
 20
378.4191120919416
 10
419.7969607793534
 20
376.875
 10
420.25
 20
375.51398110222874
 10
422.5
 20
375.62179635850663
 10
425.0
 20
374.9240582967677
 10
424.7175251054027
 20
373.625
 10
425.25
 20
372.50985711994554
 10
426.77606578099613
 20
374.625
 10
426.3764882457338
 20
376.125
 10
427.91568449560157
 20
376.625
 10
428.25
 20
378.72312203355915
 10
425.75
 20
378.7899589588109
 10
424.75
 20
380.1033956002565
 10
424.25719471230616
 20
379.375
 10
425.0157988248763
 20
378.375
 10
424.25784554086187
 20
377.375
  0
LWPOLYLINE
  5
2A0
330
17
100
AcDbEntity
  8
PASS_05
100
AcDbPolyline
 90
5
 70
1
 10
57.5
 20
269.00642967631654
 10
57.125
 20
271.5
 10
57.875
 20
272.75
 10
59.125
 20
272.73003000396545
 10
59.826231383443286
 20
269.375
  0
ENDSEC
  0
SECTION
  2
OBJECTS
  0
DICTIONARY
  5
A
330
0
100
AcDbDictionary
281
1
  3
ACAD_COLOR
350
B
  3
ACAD_GROUP
350
C
  3
ACAD_LAYOUT
350
D
  3
ACAD_MATERIAL
350
E
  3
ACAD_MLEADERSTYLE
350
F
  3
ACAD_MLINESTYLE
350
10
  3
ACAD_PLOTSETTINGS
350
11
  3
ACAD_PLOTSTYLENAME
350
12
  3
ACAD_SCALELIST
350
14
  3
ACAD_TABLESTYLE
350
15
  3
ACAD_VISUALSTYLE
350
16
  3
EZDXF_META
350
2D
  0
DICTIONARY
  5
B
330
A
100
AcDbDictionary
281
1
  0
DICTIONARY
  5
C
330
A
100
AcDbDictionary
281
1
  0
DICTIONARY
  5
D
330
A
100
AcDbDictionary
281
1
  3
Model
350
1A
  3
Layout1
350
1E
  0
DICTIONARY
  5
E
330
A
100
AcDbDictionary
281
1
  3
ByBlock
350
1F
  3
ByLayer
350
20
  3
Global
350
21
  0
DICTIONARY
  5
F
330
A
100
AcDbDictionary
281
1
  3
Standard
350
2C
  0
DICTIONARY
  5
10
330
A
100
AcDbDictionary
281
1
  3
Standard
350
22
  0
DICTIONARY
  5
11
330
A
100
AcDbDictionary
281
1
  0
ACDBDICTIONARYWDFLT
  5
12
330
A
100
AcDbDictionary
281
1
  3
Normal
350
13
100
AcDbDictionaryWithDefault
340
13
  0
ACDBPLACEHOLDER
  5
13
330
12
  0
DICTIONARY
  5
14
330
A
100
AcDbDictionary
281
1
  0
DICTIONARY
  5
15
330
A
100
AcDbDictionary
281
1
  0
DICTIONARY
  5
16
330
A
100
AcDbDictionary
281
1
  0
LAYOUT
  5
1A
330
D
100
AcDbPlotSettings
  1

  4
A3
  6

 40
7.5
 41
20.0
 42
7.5
 43
20.0
 44
420.0
 45
297.0
 46
0.0
 47
0.0
 48
0.0
 49
0.0
140
0.0
141
0.0
142
1.0
143
1.0
 70
1024
 72
1
 73
0
 74
5
  7

 75
16
 76
0
 77
2
 78
300
147
1.0
148
0.0
149
0.0
100
AcDbLayout
  1
Model
 70
1
 71
0
 10
0.0
 20
0.0
 11
420.0
 21
297.0
 12
0.0
 22
0.0
 32
0.0
 14
1e+20
 24
1e+20
 34
1e+20
 15
-1e+20
 25
-1e+20
 35
-1e+20
146
0.0
 13
0.0
 23
0.0
 33
0.0
 16
1.0
 26
0.0
 36
0.0
 17
0.0
 27
1.0
 37
0.0
 76
1
330
17
  0
LAYOUT
  5
1E
330
D
100
AcDbPlotSettings
  1

  4
A3
  6

 40
7.5
 41
20.0
 42
7.5
 43
20.0
 44
420.0
 45
297.0
 46
0.0
 47
0.0
 48
0.0
 49
0.0
140
0.0
141
0.0
142
1.0
143
1.0
 70
0
 72
1
 73
0
 74
5
  7

 75
16
 76
0
 77
2
 78
300
147
1.0
148
0.0
149
0.0
100
AcDbLayout
  1
Layout1
 70
1
 71
1
 10
0.0
 20
0.0
 11
420.0
 21
297.0
 12
0.0
 22
0.0
 32
0.0
 14
1e+20
 24
1e+20
 34
1e+20
 15
-1e+20
 25
-1e+20
 35
-1e+20
146
0.0
 13
0.0
 23
0.0
 33
0.0
 16
1.0
 26
0.0
 36
0.0
 17
0.0
 27
1.0
 37
0.0
 76
1
330
1B
  0
MATERIAL
  5
1F
102
{ACAD_REACTORS
330
E
102
}
330
E
100
AcDbMaterial
  1
ByBlock
  2

 70
0
 40
1.0
 71
1
 41
1.0
 91
-1023410177
 42
1.0
 72
1
  3

 73
1
 74
1
 75
1
 44
0.5
 73
0
 45
1.0
 46
1.0
 77
1
  4

 78
1
 79
1
170
1
 48
1.0
171
1
  6

172
1
173
1
174
1
140
1.0
141
1.0
175
1
  7

176
1
177
1
178
1
143
1.0
179
1
  8

270
1
271
1
272
1
145
1.0
146
1.0
273
1
  9

274
1
275
1
276
1
 42
1.0
 72
1
  3

 73
1
 74
1
 75
1
 94
63
  0
MATERIAL
  5
20
102
{ACAD_REACTORS
330
E
102
}
330
E
100
AcDbMaterial
  1
ByLayer
  2

 70
0
 40
1.0
 71
1
 41
1.0
 91
-1023410177
 42
1.0
 72
1
  3

 73
1
 74
1
 75
1
 44
0.5
 73
0
 45
1.0
 46
1.0
 77
1
  4

 78
1
 79
1
170
1
 48
1.0
171
1
  6

172
1
173
1
174
1
140
1.0
141
1.0
175
1
  7

176
1
177
1
178
1
143
1.0
179
1
  8

270
1
271
1
272
1
145
1.0
146
1.0
273
1
  9

274
1
275
1
276
1
 42
1.0
 72
1
  3

 73
1
 74
1
 75
1
 94
63
  0
MATERIAL
  5
21
102
{ACAD_REACTORS
330
E
102
}
330
E
100
AcDbMaterial
  1
Global
  2

 70
0
 40
1.0
 71
1
 41
1.0
 91
-1023410177
 42
1.0
 72
1
  3

 73
1
 74
1
 75
1
 44
0.5
 73
0
 45
1.0
 46
1.0
 77
1
  4

 78
1
 79
1
170
1
 48
1.0
171
1
  6

172
1
173
1
174
1
140
1.0
141
1.0
175
1
  7

176
1
177
1
178
1
143
1.0
179
1
  8

270
1
271
1
272
1
145
1.0
146
1.0
273
1
  9

274
1
275
1
276
1
 42
1.0
 72
1
  3

 73
1
 74
1
 75
1
 94
63
  0
MLINESTYLE
  5
22
102
{ACAD_REACTORS
330
10
102
}
330
10
100
AcDbMlineStyle
  2
Standard
 70
0
  3

 62
256
 51
90.0
 52
90.0
 71
2
 49
0.5
 62
256
  6
BYLAYER
 49
-0.5
 62
256
  6
BYLAYER
  0
MLEADERSTYLE
  5
2C
102
{ACAD_REACTORS
330
F
102
}
330
F
100
AcDbMLeaderStyle
179
2
170
2
171
1
172
0
 90
2
 40
0.0
 41
0.0
173
1
 91
-1056964608
 92
-2
290
1
 42
2.0
291
1
 43
8.0
  3
Standard
 44
4.0
300

342
29
174
1
175
1
176
0
178
1
 93
-1056964608
 45
4.0
292
0
297
0
 46
4.0
 94
-1056964608
 47
1.0
 49
1.0
140
1.0
294
1
141
0.0
177
0
142
1.0
295
0
296
0
143
3.75
271
0
272
9
273
9
  0
DICTIONARY
  5
2D
330
A
100
AcDbDictionary
280
1
281
1
  3
CREATED_BY_EZDXF
350
2E
  3
WRITTEN_BY_EZDXF
350
2A3
  0
DICTIONARYVAR
  5
2E
330
2D
100
DictionaryVariables
280
0
  1
1.4.3 @ 2026-09-03T21:25:23.273187+00:00
  0
DICTIONARYVAR
  5
2A3
330
2D
100
DictionaryVariables
280
0
  1
1.4.3 @ 2026-09-03T21:25:23.288025+00:00
  0
ENDSEC
  0
EOF
