  0
SECTION
  2
HEADER
  9
$ACADVER
  1
AC1024
  9
$ACADMAINTVER
 70
6
  9
$DWGCODEPAGE
  3
ANSI_1252
  9
$LASTSAVEDBY
  1
ezdxf
  9
$INSBASE
 10
0.0
 20
0.0
 30
0.0
  9
$EXTMIN
 10
1e+20
 20
1e+20
 30
1e+20
  9
$EXTMAX
 10
-1e+20
 20
-1e+20
 30
-1e+20
  9
$LIMMIN
 10
0.0
 20
0.0
  9
$LIMMAX
 10
420.0
 20
297.0
  9
$ORTHOMODE
 70
0
  9
$REGENMODE
 70
1
  9
$FILLMODE
 70
1
  9
$QTEXTMODE
 70
0
  9
$MIRRTEXT
 70
1
  9
$LTSCALE
 40
1.0
  9
$ATTMODE
 70
1
  9
$TEXTSIZE
 40
2.5
  9
$TRACEWID
 40
1.0
  9
$TEXTSTYLE
  7
Standard
  9
$CLAYER
  8
0
  9
$CELTYPE
  6
ByLayer
  9
$CECOLOR
 62
256
  9
$CELTSCALE
 40
1.0
  9
$DISPSILH
 70
0
  9
$DIMSCALE
 40
1.0
  9
$DIMASZ
 40
2.5
  9
$DIMEXO
 40
0.625
  9
$DIMDLI
 40
3.75
  9
$DIMRND
 40
0.0
  9
$DIMDLE
 40
0.0
  9
$DIMEXE
 40
1.25
  9
$DIMTP
 40
0.0
  9
$DIMTM
 40
0.0
  9
$DIMTXT
 40
2.5
  9
$DIMCEN
 40
2.5
  9
$DIMTSZ
 40
0.0
  9
$DIMTOL
 70
0
  9
$DIMLIM
 70
0
  9
$DIMTIH
 70
0
  9
$DIMTOH
 70
0
  9
$DIMSE1
 70
0
  9
$DIMSE2
 70
0
  9
$DIMTAD
 70
1
  9
$DIMZIN
 70
8
  9
$DIMBLK
  1

  9
$DIMASO
 70
1
  9
$DIMSHO
 70
1
  9
$DIMPOST
  1

  9
$DIMAPOST
  1

  9
$DIMALT
 70
0
  9
$DIMALTD
 70
3
  9
$DIMALTF
 40
0.03937007874
  9
$DIMLFAC
 40
1.0
  9
$DIMTOFL
 70
1
  9
$DIMTVP
 40
0.0
  9
$DIMTIX
 70
0
  9
$DIMSOXD
 70
0
  9
$DIMSAH
 70
0
  9
$DIMBLK1
  1

  9
$DIMBLK2
  1

  9
$DIMSTYLE
  2
ISO-25
  9
$DIMCLRD
 70
0
  9
$DIMCLRE
 70
0
  9
$DIMCLRT
 70
0
  9
$DIMTFAC
 40
1.0
  9
$DIMGAP
 40
0.625
  9
$DIMJUST
 70
0
  9
$DIMSD1
 70
0
  9
$DIMSD2
 70
0
  9
$DIMTOLJ
 70
0
  9
$DIMTZIN
 70
8
  9
$DIMALTZ
 70
0
  9
$DIMALTTZ
 70
0
  9
$DIMUPT
 70
0
  9
$DIMDEC
 70
2
  9
$DIMTDEC
 70
2
  9
$DIMALTU
 70
2
  9
$DIMALTTD
 70
3
  9
$DIMTXSTY
  7
Standard
  9
$DIMAUNIT
 70
0
  9
$DIMADEC
 70
0
  9
$DIMALTRND
 40
0.0
  9
$DIMAZIN
 70
0
  9
$DIMDSEP
 70
44
  9
$DIMATFIT
 70
3
  9
$DIMFRAC
 70
0
  9
$DIMLDRBLK
  1

  9
$DIMLUNIT
 70
2
  9
$DIMLWD
 70
-2
  9
$DIMLWE
 70
-2
  9
$DIMTMOVE
 70
0
  9
$DIMFXL
 40
1.0
  9
$DIMFXLON
 70
0
  9
$DIMJOGANG
 40
0.785398163397
  9
$DIMTFILL
 70
0
  9
$DIMTFILLCLR
 70
0
  9
$DIMARCSYM
 70
0
  9
$DIMLTYPE
  6

  9
$DIMLTEX1
  6

  9
$DIMLTEX2
  6

  9
$DIMTXTDIRECTION
 70
0
  9
$LUNITS
 70
2
  9
$LUPREC
 70
4
  9
$SKETCHINC
 40
1.0
  9
$FILLETRAD
 40
10.0
  9
$AUNITS
 70
0
  9
$AUPREC
 70
2
  9
$MENU
  1
.
  9
$ELEVATION
 40
0.0
  9
$PELEVATION
 40
0.0
  9
$THICKNESS
 40
0.0
  9
$LIMCHECK
 70
0
  9
$CHAMFERA
 40
0.0
  9
$CHAMFERB
 40
0.0
  9
$CHAMFERC
 40
0.0
  9
$CHAMFERD
 40
0.0
  9
$SKPOLY
 70
0
  9
$TDCREATE
 40
2461288.3092939816
  9
$TDUCREATE
 40
2458532.153996898
  9
$TDUPDATE
 40
2461288.3092939816
  9
$TDUUPDATE
 40
2458532.1544311
  9
$TDINDWG
 40
0.0
  9
$TDUSRTIMER
 40
0.0
  9
$USRTIMER
 70
1
  9
$ANGBASE
 50
0.0
  9
$ANGDIR
 70
0
  9
$PDMODE
 70
0
  9
$PDSIZE
 40
0.0
  9
$PLINEWID
 40
0.0
  9
$SPLFRAME
 70
0
  9
$SPLINETYPE
 70
6
  9
$SPLINESEGS
 70
8
  9
$HANDSEED
  5
1E8
  9
$SURFTAB1
 70
6
  9
$SURFTAB2
 70
6
  9
$SURFTYPE
 70
6
  9
$SURFU
 70
6
  9
$SURFV
 70
6
  9
$UCSBASE
  2

  9
$UCSNAME
  2

  9
$UCSORG
 10
0.0
 20
0.0
 30
0.0
  9
$UCSXDIR
 10
1.0
 20
0.0
 30
0.0
  9
$UCSYDIR
 10
0.0
 20
1.0
 30
0.0
  9
$UCSORTHOREF
  2

  9
$UCSORTHOVIEW
 70
0
  9
$UCSORGTOP
 10
0.0
 20
0.0
 30
0.0
  9
$UCSORGBOTTOM
 10
0.0
 20
0.0
 30
0.0
  9
$UCSORGLEFT
 10
0.0
 20
0.0
 30
0.0
  9
$UCSORGRIGHT
 10
0.0
 20
0.0
 30
0.0
  9
$UCSORGFRONT
 10
0.0
 20
0.0
 30
0.0
  9
$UCSORGBACK
 10
0.0
 20
0.0
 30
0.0
  9
$PUCSBASE
  2

  9
$PUCSNAME
  2

  9
$PUCSORG
 10
0.0
 20
0.0
 30
0.0
  9
$PUCSXDIR
 10
1.0
 20
0.0
 30
0.0
  9
$PUCSYDIR
 10
0.0
 20
1.0
 30
0.0
  9
$PUCSORTHOREF
  2

  9
$PUCSORTHOVIEW
 70
0
  9
$PUCSORGTOP
 10
0.0
 20
0.0
 30
0.0
  9
$PUCSORGBOTTOM
 10
0.0
 20
0.0
 30
0.0
  9
$PUCSORGLEFT
 10
0.0
 20
0.0
 30
0.0
  9
$PUCSORGRIGHT
 10
0.0
 20
0.0
 30
0.0
  9
$PUCSORGFRONT
 10
0.0
 20
0.0
 30
0.0
  9
$PUCSORGBACK
 10
0.0
 20
0.0
 30
0.0
  9
$USERI1
 70
0
  9
$USERI2
 70
0
  9
$USERI3
 70
0
  9
$USERI4
 70
0
  9
$USERI5
 70
0
  9
$USERR1
 40
0.0
  9
$USERR2
 40
0.0
  9
$USERR3
 40
0.0
  9
$USERR4
 40
0.0
  9
$USERR5
 40
0.0
  9
$WORLDVIEW
 70
1
  9
$SHADEDGE
 70
3
  9
$SHADEDIF
 70
70
  9
$TILEMODE
 70
1
  9
$MAXACTVP
 70
64
  9
$PINSBASE
 10
0.0
 20
0.0
 30
0.0
  9
$PLIMCHECK
 70
0
  9
$PEXTMIN
 10
1e+20
 20
1e+20
 30
1e+20
  9
$PEXTMAX
 10
-1e+20
 20
-1e+20
 30
-1e+20
  9
$PLIMMIN
 10
0.0
 20
0.0
  9
$PLIMMAX
 10
420.0
 20
297.0
  9
$UNITMODE
 70
0
  9
$VISRETAIN
 70
1
  9
$PLINEGEN
 70
0
  9
$PSLTSCALE
 70
1
  9
$TREEDEPTH
 70
3020
  9
$CMLSTYLE
  2
Standard
  9
$CMLJUST
 70
0
  9
$CMLSCALE
 40
20.0
  9
$PROXYGRAPHICS
 70
1
  9
$MEASUREMENT
 70
1
  9
$CELWEIGHT
370
-1
  9
$ENDCAPS
280
0
  9
$JOINSTYLE
280
0
  9
$LWDISPLAY
290
0
  9
$INSUNITS
 70
4
  9
$HYPERLINKBASE
  1

  9
$STYLESHEET
  1

  9
$XEDIT
290
1
  9
$CEPSNTYPE
380
0
  9
$PSTYLEMODE
290
1
  9
$FINGERPRINTGUID
  2
{B0F166CE-7D01-42C3-842E-CD1754185E28}
  9
$VERSIONGUID
  2
{2F024FAD-C979-447B-B177-81FF9F1007A3}
  9
$EXTNAMES
290
1
  9
$PSVPSCALE
 40
0.0
  9
$OLESTARTUP
290
0
  9
$SORTENTS
280
127
  9
$INDEXCTL
280
0
  9
$HIDETEXT
280
1
  9
$XCLIPFRAME
280
1
  9
$HALOGAP
280
0
  9
$OBSCOLOR
 70
257
  9
$OBSLTYPE
280
0
  9
$INTERSECTIONDISPLAY
280
0
  9
$INTERSECTIONCOLOR
 70
257
  9
$DIMASSOC
280
2
  9
$PROJECTNAME
  1

  9
$CAMERADISPLAY
290
0
  9
$LENSLENGTH
 40
50.0
  9
$CAMERAHEIGHT
 40
0.0
  9
$STEPSPERSEC
 40
24.0
  9
$STEPSIZE
 40
100.0
  9
$3DDWFPREC
 40
2.0
  9
$PSOLWIDTH
 40
0.005
  9
$PSOLHEIGHT
 40
0.08
  9
$LOFTANG1
 40
1.570796326795
  9
$LOFTANG2
 40
1.570796326795
  9
$LOFTMAG1
 40
0.0
  9
$LOFTMAG2
 40
0.0
  9
$LOFTPARAM
 70
7
  9
$LOFTNORMALS
280
1
  9
$LATITUDE
 40
37.795
  9
$LONGITUDE
 40
-122.394
  9
$NORTHDIRECTION
 40
0.0
  9
$TIMEZONE
 70
-8000
  9
$LIGHTGLYPHDISPLAY
280
1
  9
$TILEMODELIGHTSYNCH
280
1
  9
$CMATERIAL
347
20
  9
$SOLIDHIST
280
0
  9
$SHOWHIST
280
1
  9
$DWFFRAME
280
2
  9
$DGNFRAME
280
2
  9
$REALWORLDSCALE
290
1
  9
$INTERFERECOLOR
 62
256
  9
$CSHADOW
280
0
  9
$SHADOWPLANELOCATION
 40
0.0
  0
ENDSEC
  0
SECTION
  2
CLASSES
  0
CLASS
  1
ACDBDICTIONARYWDFLT
  2
AcDbDictionaryWithDefault
  3
ObjectDBX Classes
 90
0
 91
0
280
0
281
0
  0
CLASS
  1
SUN
  2
AcDbSun
  3
SCENEOE
 90
1153
 91
0
280
0
281
0
  0
CLASS
  1
VISUALSTYLE
  2
AcDbVisualStyle
  3
ObjectDBX Classes
 90
4095
 91
0
280
0
281
0
  0
CLASS
  1
MATERIAL
  2
AcDbMaterial
  3
ObjectDBX Classes
 90
1153
 91
0
280
0
281
0
  0
CLASS
  1
SCALE
  2
AcDbScale
  3
ObjectDBX Classes
 90
1153
 91
0
280
0
281
0
  0
CLASS
  1
TABLESTYLE
  2
AcDbTableStyle
  3
ObjectDBX Classes
 90
4095
 91
0
280
0
281
0
  0
CLASS
  1
MLEADERSTYLE
  2
AcDbMLeaderStyle
  3
ACDB_MLEADERSTYLE_CLASS
 90
4095
 91
0
280
0
281
0
  0
CLASS
  1
DICTIONARYVAR
  2
AcDbDictionaryVar
  3
ObjectDBX Classes
 90
0
 91
0
280
0
281
0
  0
CLASS
  1
CELLSTYLEMAP
  2
AcDbCellStyleMap
  3
ObjectDBX Classes
 90
1152
 91
0
280
0
281
0
  0
CLASS
  1
MENTALRAYRENDERSETTINGS
  2
AcDbMentalRayRenderSettings
  3
SCENEOE
 90
1024
 91
0
280
0
281
0
  0
CLASS
  1
ACDBDETAILVIEWSTYLE
  2
AcDbDetailViewStyle
  3
ObjectDBX Classes
 90
1025
 91
0
280
0
281
0
  0
CLASS
  1
ACDBSECTIONVIEWSTYLE
  2
AcDbSectionViewStyle
  3
ObjectDBX Classes
 90
1025
 91
0
280
0
281
0
  0
CLASS
  1
RASTERVARIABLES
  2
AcDbRasterVariables
  3
ISM
 90
0
 91
0
280
0
281
0
  0
CLASS
  1
ACDBPLACEHOLDER
  2
AcDbPlaceHolder
  3
ObjectDBX Classes
 90
0
 91
0
280
0
281
0
  0
CLASS
  1
LAYOUT
  2
AcDbLayout
  3
ObjectDBX Classes
 90
0
 91
0
280
0
281
0
  0
ENDSEC
  0
SECTION
  2
TABLES
  0
TABLE
  2
VPORT
  5
8
330
0
100
AcDbSymbolTable
 70
1
  0
VPORT
  5
23
330
8
100
AcDbSymbolTableRecord
100
AcDbViewportTableRecord
  2
*Active
 70
0
 10
0.0
 20
0.0
 11
1.0
 21
1.0
 12
0.0
 22
0.0
 13
0.0
 23
0.0
 14
0.5
 24
0.5
 15
0.5
 25
0.5
 16
0.0
 26
0.0
 36
1.0
 17
0.0
 27
0.0
 37
0.0
 40
1000.0
 41
1.34
 42
50.0
 43
0.0
 44
0.0
 50
0.0
 51
0.0
 71
0
 72
1000
 73
1
 74
3
 75
0
 76
0
 77
0
 78
0
281
0
 65
0
146
0.0
  0
ENDTAB
  0
TABLE
  2
LTYPE
  5
2
330
0
100
AcDbSymbolTable
 70
3
  0
LTYPE
  5
24
330
2
100
AcDbSymbolTableRecord
100
AcDbLinetypeTableRecord
  2
ByBlock
 70
0
  3

 72
65
 73
0
 40
0.0
  0
LTYPE
  5
25
330
2
100
AcDbSymbolTableRecord
100
AcDbLinetypeTableRecord
  2
ByLayer
 70
0
  3

 72
65
 73
0
 40
0.0
  0
LTYPE
  5
26
330
2
100
AcDbSymbolTableRecord
100
AcDbLinetypeTableRecord
  2
Continuous
 70
0
  3

 72
65
 73
0
 40
0.0
  0
ENDTAB
  0
TABLE
  2
LAYER
  5
1
330
0
100
AcDbSymbolTable
 70
3
  0
LAYER
  5
27
330
1
100
AcDbSymbolTableRecord
100
AcDbLayerTableRecord
  2
0
 70
0
 62
7
  6
Continuous
370
-3
390
13
347
21
  0
LAYER
  5
28
330
1
100
AcDbSymbolTableRecord
100
AcDbLayerTableRecord
  2
Defpoints
 70
0
 62
7
  6
Continuous
290
0
370
-3
390
13
347
21
  0
LAYER
  5
2F
330
1
100
AcDbSymbolTableRecord
100
AcDbLayerTableRecord
  2
PASS_04
 70
0
 62
4
  6
Continuous
370
-3
390
13
347
21
  0
ENDTAB
  0
TABLE
  2
STYLE
  5
5
330
0
100
AcDbSymbolTable
 70
1
  0
STYLE
  5
29
330
5
100
AcDbSymbolTableRecord
100
AcDbTextStyleTableRecord
  2
Standard
 70
0
 40
0.0
 41
1.0
 50
0.0
 71
0
 42
2.5
  3
txt
  4

  0
ENDTAB
  0
TABLE
  2
VIEW
  5
7
330
0
100
AcDbSymbolTable
 70
0
  0
ENDTAB
  0
TABLE
  2
UCS
  5
6
330
0
100
AcDbSymbolTable
 70
0
  0
ENDTAB
  0
TABLE
  2
APPID
  5
3
330
0
100
AcDbSymbolTable
 70
3
  0
APPID
  5
2A
330
3
100
AcDbSymbolTableRecord
100
AcDbRegAppTableRecord
  2
ACAD
 70
0
  0
APPID
  5
1E5
330
3
100
AcDbSymbolTableRecord
100
AcDbRegAppTableRecord
  2
HATCHBACKGROUNDCOLOR
 70
0
  0
APPID
  5
1E6
330
3
100
AcDbSymbolTableRecord
100
AcDbRegAppTableRecord
  2
EZDXF
 70
0
  0
ENDTAB
  0
TABLE
  2
DIMSTYLE
  5
4
330
0
100
AcDbSymbolTable
 70
1
100
AcDbDimStyleTable
  0
DIMSTYLE
105
2B
330
4
100
AcDbSymbolTableRecord
100
AcDbDimStyleTableRecord
  2
Standard
 70
0
 40
1.0
 41
2.5
 42
0.625
 43
3.75
 44
1.25
 45
0.0
 46
0.0
 47
0.0
 48
0.0
 49
2.5
140
2.5
141
2.5
142
0.0
143
0.03937007874
144
1.0
145
0.0
146
1.0
147
0.625
148
0.0
 69
0
 70
0
 71
0
 72
0
 73
0
 74
0
 75
0
 76
0
 77
1
 78
8
 79
3
170
0
171
3
172
1
173
0
174
0
175
0
176
0
177
0
178
0
179
2
271
2
272
2
273
2
274
3
275
0
276
0
277
2
278
44
279
0
280
0
281
0
282
0
283
0
284
8
285
0
286
0
288
0
289
3
290
0
371
-2
372
-2
  0
ENDTAB
  0
TABLE
  2
BLOCK_RECORD
  5
9
330
0
100
AcDbSymbolTable
 70
2
  0
BLOCK_RECORD
  5
17
330
9
100
AcDbSymbolTableRecord
100
AcDbBlockTableRecord
  2
*Model_Space
340
1A
 70
0
280
1
281
0
  0
BLOCK_RECORD
  5
1B
330
9
100
AcDbSymbolTableRecord
100
AcDbBlockTableRecord
  2
*Paper_Space
340
1E
 70
0
280
1
281
0
  0
ENDTAB
  0
ENDSEC
  0
SECTION
  2
BLOCKS
  0
BLOCK
  5
18
330
17
100
AcDbEntity
  8
0
100
AcDbBlockBegin
  2
*Model_Space
 70
0
 10
0.0
 20
0.0
 30
0.0
  3
*Model_Space
  1

  0
ENDBLK
  5
19
330
17
100
AcDbEntity
  8
0
100
AcDbBlockEnd
  0
BLOCK
  5
1C
330
1B
100
AcDbEntity
  8
0
100
AcDbBlockBegin
  2
*Paper_Space
 70
0
 10
0.0
 20
0.0
 30
0.0
  3
*Paper_Space
  1

  0
ENDBLK
  5
1D
330
1B
100
AcDbEntity
  8
0
100
AcDbBlockEnd
  0
ENDSEC
  0
SECTION
  2
ENTITIES
  0
LWPOLYLINE
  5
30
330
17
100
AcDbEntity
  8
PASS_04
100
AcDbPolyline
 90
905
 70
1
 10
91.60257130916784
 20
143.25
 10
88.125
 20
147.0
 10
87.125
 20
150.43123043467307
 10
86.625
 20
154.75
 10
85.11535931316438
 20
156.875
 10
84.125
 20
157.25
 10
83.5
 20
156.85248926201223
 10
82.0
 20
158.20905525680882
 10
80.0
 20
158.738486328028
 10
78.25
 20
157.87305121545478
 10
74.01652680388253
 20
162.60787561592807
 10
74.3362523237149
 20
162.0
 10
73.87162226662073
 20
162.76994054630146
 10
73.66592286821245
 20
163.0
 10
73.38882300587993
 20
163.56998936125225
 10
72.375
 20
165.25
 10
70.375
 20
167.5
 10
66.13681934020516
 20
168.99479582259997
 10
65.85925137458517
 20
168.8297684864967
 10
65.375
 20
167.75
 10
64.625
 20
167.75
 10
59.875
 20
171.75
 10
59.125
 20
176.25
 10
57.46872711756849
 20
178.125
 10
59.5
 20
178.43028653002227
 10
59.3799589075261
 20
179.875
 10
56.5
 20
179.34427925265348
 10
55.375
 20
180.25
 10
53.875
 20
183.25
 10
49.875
 20
185.75
 10
49.375
 20
188.0
 10
52.625
 20
190.25
 10
52.375
 20
192.25
 10
48.875
 20
193.5
 10
48.875
 20
195.5
 10
47.125
 20
196.0
 10
45.73756421055738
 20
199.0
 10
46.0
 20
199.73753609423122
 10
46.798613710304316
 20
199.625
 10
46.75
 20
200.22160036731663
 10
45.07623118782416
 20
201.625
 10
45.25
 20
203.7085330250768
 10
48.826465734208
 20
205.375
 10
46.75
 20
205.97120128940804
 10
46.875
 20
207.93180685576613
 10
47.75
 20
208.7761019590383
 10
50.01938550798286
 20
209.375
 10
48.17189023069426
 20
212.125
 10
48.28435413973383
 20
213.125
 10
49.75
 20
213.33800938057803
 10
51.5
 20
212.55512335080888
 10
52.530989538538506
 20
213.375
 10
52.5
 20
214.15576245752413
 10
51.0
 20
214.9317505479683
 10
50.53299734972371
 20
215.875
 10
52.3824962450086
 20
217.125
 10
52.02042163492558
 20
217.625
 10
52.51489254164288
 20
219.875
 10
49.395962846851674
 20
217.125
 10
46.75
 20
216.40581704051147
 10
46.156459111844946
 20
216.625
 10
49.25
 20
218.1223166116228
 10
50.006386236667055
 20
219.125
 10
50.0
 20
220.56892580764034
 10
47.0
 20
220.38897564173004
 10
46.0
 20
219.19719624066914
 10
45.25
 20
220.7971754642759
 10
44.75
 20
219.69191937908982
 10
42.5
 20
220.18715883197663
 10
40.75
 20
219.61638678556065
 10
40.0
 20
218.43406217154507
 10
38.75
 20
219.11448720252193
 10
36.75
 20
217.58313180862876
 10
36.62697566713224
 20
218.125
 10
37.21425991775404
 20
219.875
 10
39.875
 20
221.5
 10
41.17902120390284
 20
224.5
 10
42.375
 20
225.0
 10
43.5
 20
226.89830815460243
 10
47.5
 20
225.7701065159753
 10
48.35721291568066
 20
225.875
 10
48.0
 20
226.65691017552626
 10
49.0
 20
227.29714123546322
 10
50.0
 20
226.80575460477272
 10
51.18267304696195
 20
227.125
 10
52.25
 20
225.89831766158522
 10
52.75
 20
226.66341132299084
 10
54.625
 20
226.0
 10
59.625
 20
226.75
 10
59.375
 20
228.0
 10
58.375
 20
229.0
 10
55.534871697307096
 20
229.5
 10
55.375
 20
230.25
 10
60.625
 20
232.75
 10
60.125
 20
233.75
 10
57.875
 20
234.7566277093104
 10
57.625
 20
236.75
 10
58.27738122652151
 20
238.0
 10
59.875
 20
238.75
 10
61.67508228551829
 20
240.875
 10
61.893779327004914
 20
242.375
 10
60.5
 20
243.9454633470456
 10
57.56646111545741
 20
242.5
 10
56.625
 20
242.90710938025097
 10
56.875
 20
246.75
 10
55.72311947757157
 20
248.125
 10
56.87474118092895
 20
249.625
 10
56.25914435164252
 20
250.625
 10
57.474600177071174
 20
253.125
 10
58.25
 20
253.54549954373834
 10
58.97665549846168
 20
252.625
 10
58.16689791002835
 20
250.375
 10
60.0
 20
247.81929590745443
 10
63.0
 20
248.25194834069245
 10
63.575455346826
 20
249.375
 10
64.65088295223005
 20
249.875
 10
64.95971698423486
 20
252.125
 10
60.25
 20
252.8890547937395
 10
58.91880114015768
 20
255.125
 10
60.25
 20
255.8024063188832
 10
61.0
 20
257.70655529326314
 10
62.0
 20
256.7178425055846
 10
64.25
 20
257.6415350949951
 10
64.466506953677
 20
259.625
 10
66.75
 20
261.8507052956034
 10
66.55342082155403
 20
264.125
 10
65.29515322706173
 20
265.125
 10
65.93855837186646
 20
266.125
 10
65.5
 20
270.16531745085183
 10
66.25
 20
269.91107014972727
 10
68.31117983467685
 20
266.875
 10
69.5
 20
266.23567236319695
 10
71.85715031650656
 20
266.875
 10
71.0
 20
269.5806056109344
 10
72.5
 20
268.6466911764706
 10
73.45680135091143
 20
269.375
 10
73.04065741914283
 20
271.125
 10
71.0
 20
270.9187606820217
 10
70.0
 20
272.40053873320034
 10
68.75
 20
271.9343467321371
 10
68.11408003741951
 20
273.375
 10
72.91960942946758
 20
276.625
 10
73.25
 20
281.49068796484414
 10
76.208667482464
 20
283.375
 10
77.15635511336336
 20
285.125
 10
76.625
 20
287.25
 10
74.88778938879742
 20
289.625
 10
74.125
 20
293.75
 10
73.125
 20
295.25
 10
71.625
 20
296.25
 10
68.63196216056939
 20
296.375
 10
68.60639819938189
 20
298.625
 10
69.3076703694978
 20
300.125
 10
68.91742927789252
 20
301.375
 10
63.22869538981415
 20
303.875
 10
65.33720419333102
 20
306.625
 10
65.45325967735104
 20
308.5
 10
66.0
 20
309.0612014836985
 10
67.0
 20
309.2116639007975
 10
68.82120708660793
 20
307.125
 10
67.9601128216876
 20
309.875
 10
68.75
 20
310.5745124258815
 10
71.875
 20
310.25
 10
75.375
 20
308.75
 10
73.75
 20
307.64947006248514
 10
75.94172194755765
 20
308.5
 10
78.125
 20
307.5
 10
79.125
 20
306.25
 10
79.625
 20
303.75
 10
81.125
 20
302.25
 10
84.375
 20
301.5
 10
86.625
 20
301.75
 10
89.125
 20
305.25
 10
89.875
 20
305.08443050034776
 10
90.625
 20
302.5
 10
92.375
 20
302.0
 10
106.01232758038691
 20
304.2237200502171
 10
106.11072792632231
 20
304.4451611059158
 10
104.625
 20
306.4119350106206
 10
104.125
 20
314.70002478773563
 10
105.125
 20
316.25
 10
104.125
 20
318.75
 10
101.625
 20
320.24859337306657
 10
101.59331734989043
 20
321.375
 10
102.43783224856713
 20
322.25
 10
105.125
 20
322.75
 10
106.875
 20
324.25
 10
107.875
 20
327.25
 10
107.875
 20
328.25
 10
107.09587507896534
 20
329.125
 10
108.625
 20
331.75
 10
108.41100421280193
 20
333.75
 10
115.12530992849824
 20
338.75
 10
127.875
 20
335.75
 10
131.875
 20
331.0
 10
136.375
 20
324.25
 10
137.625
 20
323.0
 10
140.875
 20
322.0
 10
143.625
 20
317.5
 10
144.18902489187
 20
317.12398340542
 10
144.5485335813108
 20
317.09525533251053
 10
145.28588643930584
 20
317.5
 10
147.625
 20
317.25
 10
150.625
 20
314.5442957806064
 10
152.125
 20
312.25
 10
156.625
 20
309.75
 10
162.375
 20
308.0
 10
180.875
 20
309.0
 10
195.125
 20
308.0
 10
202.04804886084236
 20
310.5
 10
215.125
 20
312.0
 10
220.625
 20
312.0
 10
223.625
 20
310.5
 10
227.625
 20
310.25
 10
229.375
 20
311.25
 10
233.125
 20
315.25
 10
237.1982391923226
 20
316.375
 10
236.5
 20
318.91476351462444
 10
233.625
 20
319.02791022978056
 10
231.875
 20
320.6905590741476
 10
231.625
 20
325.0
 10
232.625
 20
329.5
 10
231.88148534202784
 20
331.625
 10
232.875
 20
333.25
 10
235.625
 20
334.25
 10
237.875
 20
338.75
 10
239.21230386999866
 20
339.5
 10
240.3142118783827
 20
339.4321461685032
 10
239.375
 20
339.75
 10
248.81204188511498
 20
341.75
 10
248.5112544880653
 20
341.45838555745314
 10
250.1718898826371
 20
342.25
 10
258.25
 20
342.8341341203349
 10
268.0
 20
341.74217208348347
 10
271.8017720467182
 20
343.9654339609447
 10
271.5
 20
343.81752406693835
 10
271.375
 20
344.0
 10
272.375
 20
344.75
 10
283.125
 20
344.75
 10
286.875
 20
347.75
 10
286.625
 20
350.25
 10
287.625
 20
351.75
 10
288.125
 20
356.25
 10
288.875
 20
357.75
 10
291.375
 20
359.0
 10
297.5
 20
360.3557171957341
 10
299.5
 20
359.4545506469617
 10
301.75
 20
356.093848116335
 10
303.0
 20
356.74952165202365
 10
303.75
 20
356.50585207390804
 10
304.75137337394244
 20
355.625
 10
305.0
 20
354.3322342891164
 10
305.8949134569278
 20
354.875
 10
305.5899729823377
 20
356.375
 10
306.0
 20
356.98219638413394
 10
306.83604553554335
 20
356.875
 10
307.74267334605594
 20
355.375
 10
307.17180916998024
 20
352.375
 10
308.3346715309789
 20
350.875
 10
307.74129987955956
 20
349.875
 10
308.44610131698147
 20
349.125
 10
307.0
 20
348.8114449172397
 10
305.70552801452214
 20
346.375
 10
304.60900387594455
 20
346.125
 10
306.497503968115
 20
343.375
 10
305.25
 20
342.54998912802984
 10
304.25
 20
342.6780626739499
 10
304.8097366881217
 20
341.125
 10
306.25
 20
340.77962117964114
 10
307.5
 20
341.73172209893534
 10
308.5
 20
341.7387560504613
 10
307.50978148605674
 20
342.875
 10
308.54104221251816
 20
343.125
 10
308.37721788028125
 20
344.875
 10
309.75
 20
345.3984734373591
 10
311.25
 20
347.2072257238527
 10
310.36910324039184
 20
344.375
 10
310.5
 20
341.0260715612608
 10
315.0
 20
341.5368835241176
 10
317.0
 20
340.32995528292014
 10
318.0
 20
340.9041371970637
 10
320.0
 20
340.85463314425914
 10
321.0
 20
341.7079592497317
 10
322.75
 20
341.4297544399892
 10
324.80846037932184
 20
339.625
 10
323.82646106551283
 20
337.875
 10
324.75
 20
336.59110297183383
 10
325.25
 20
336.4935351341141
 10
325.5
 20
337.87016389723817
 10
327.1139614702427
 20
336.875
 10
327.75
 20
335.30261078609374
 10
329.1064606425477
 20
335.125
 10
329.39239951707935
 20
335.875
 10
328.03089951981747
 20
336.875
 10
328.2741729831956
 20
337.875
 10
327.5
 20
337.7289409025558
 10
327.79029948312245
 20
339.375
 10
326.66061053421083
 20
341.125
 10
328.25
 20
341.0681971083607
 10
329.37401620075923
 20
339.375
 10
330.5
 20
338.9875693034958
 10
331.0984097588034
 20
339.375
 10
330.4642195183113
 20
340.375
 10
331.1289831923771
 20
341.375
 10
328.94392757298937
 20
343.875
 10
328.5
 20
345.1792266029694
 10
326.3096947935368
 20
344.875
 10
327.3985409418973
 20
347.125
 10
324.0
 20
347.6070934853983
 10
322.56082686903153
 20
348.625
 10
323.27364959475494
 20
349.875
 10
322.4714306868799
 20
351.625
 10
326.3976972922934
 20
354.125
 10
329.25
 20
352.0510523821897
 10
330.63081149731204
 20
351.875
 10
329.7026990062494
 20
350.375
 10
329.0440090556336
 20
346.625
 10
329.5
 20
345.45193737795256
 10
331.25
 20
344.2892545045045
 10
332.0
 20
343.0161511470661
 10
332.5
 20
342.8956150261969
 10
332.75
 20
343.7206417759271
 10
334.25
 20
342.90107752769836
 10
335.0
 20
343.6573659151379
 10
337.0
 20
343.089683738073
 10
337.75
 20
344.2923557074593
 10
341.5
 20
344.24839239887575
 10
341.062267760901
 20
341.875
 10
340.1739886216349
 20
340.875
 10
340.49304517176097
 20
334.375
 10
339.0
 20
331.7497697378634
 10
341.5
 20
331.3711956994669
 10
342.25
 20
330.1801975089207
 10
342.58420269399534
 20
331.625
 10
343.25
 20
331.5394298007306
 10
345.0
 20
330.65968107464806
 10
345.5
 20
329.6271045452147
 10
345.682905982906
 20
330.625
 10
343.91428088209034
 20
332.625
 10
345.75
 20
333.13504652083543
 10
346.07006405004836
 20
330.875
 10
347.5
 20
330.13912007736644
 10
350.0
 20
330.9359081870743
 10
351.0
 20
330.02995104461235
 10
351.4358941632116
 20
330.625
 10
350.7299008966493
 20
331.875
 10
351.0
 20
334.3519299531007
 10
351.7014783895081
 20
333.875
 10
351.82227545159174
 20
332.125
 10
352.5
 20
331.57525766537947
 10
354.5
 20
332.18272144396343
 10
355.75
 20
334.12612340698365
 10
357.75
 20
335.02552240857847
 10
358.15790324890685
 20
333.625
 10
357.10478275102867
 20
332.375
 10
355.66534897523144
 20
328.125
 10
356.25
 20
326.734047200037
 10
358.5
 20
326.4886806702486
 10
362.0
 20
329.0876143050948
 10
361.8129835659848
 20
331.125
 10
362.25
 20
331.4678459310496
 10
364.0
 20
330.9431878303578
 10
366.5
 20
331.53163114282324
 10
369.1769546193846
 20
329.625
 10
369.5
 20
328.1753948677691
 10
370.5
 20
327.5969870587815
 10
371.6141211881188
 20
329.375
 10
370.24705433681305
 20
329.875
 10
370.1299868401334
 20
331.875
 10
371.0
 20
332.7844207723597
 10
372.4916740837762
 20
332.875
 10
372.5
 20
335.02276983673744
 10
374.1783367317538
 20
334.875
 10
375.25
 20
337.48256039852924
 10
377.8868593821235
 20
338.625
 10
377.7339511870654
 20
340.375
 10
379.1533715148538
 20
341.875
 10
379.2566070030891
 20
344.375
 10
373.5
 20
348.9005885970444
 10
373.75
 20
350.07725356449725
 10
376.22457449672464
 20
349.625
 10
375.06035653992836
 20
350.875
 10
376.7746606978546
 20
351.125
 10
376.0
 20
352.5781611512725
 10
374.25
 20
353.25887052482875
 10
373.1410256869623
 20
352.125
 10
371.75
 20
351.99537726939246
 10
370.0
 20
352.2987654823253
 10
369.253005343126
 20
353.125
 10
371.260817094171
 20
356.375
 10
368.79313441668313
 20
357.625
 10
370.5
 20
358.7988035069357
 10
371.6377864049736
 20
358.375
 10
371.5
 20
361.4580537796824
 10
368.5
 20
359.97665502933205
 10
368.0
 20
358.57988935576407
 10
366.62812509969484
 20
357.375
 10
366.4749504739299
 20
355.625
 10
364.4805837969179
 20
354.375
 10
364.2390632762048
 20
355.625
 10
366.1054344270488
 20
357.125
 10
366.9958617097935
 20
358.875
 10
366.63987991035407
 20
360.125
 10
368.3321055262326
 20
362.125
 10
367.5
 20
364.8176199386526
 10
366.75
 20
364.52162187526494
 10
366.06441302263283
 20
362.625
 10
363.6556360633287
 20
359.625
 10
362.5
 20
359.03626834133377
 10
362.16386180910024
 20
358.125
 10
363.14033445353436
 20
357.375
 10
362.69822594680403
 20
356.375
 10
363.1900745710374
 20
354.625
 10
360.75
 20
353.07616467107806
 10
359.8690253467413
 20
353.125
 10
360.75
 20
355.07196624473875
 10
358.88087771081865
 20
355.375
 10
360.31957392149883
 20
357.375
 10
359.15096923860176
 20
359.375
 10
360.75
 20
359.8216768446964
 10
361.28705471354004
 20
360.875
 10
361.0583474197077
 20
362.875
 10
364.0
 20
364.4688176397614
 10
364.1115728052338
 20
365.125
 10
360.5
 20
364.828722431846
 10
359.5
 20
364.0524109577674
 10
358.5
 20
364.6883951464923
 10
357.13860812314556
 20
364.125
 10
356.30668290549073
 20
361.125
 10
358.0
 20
360.98801053831244
 10
358.4510110294118
 20
359.875
 10
357.75
 20
359.0148367549707
 10
355.75
 20
358.44356162045784
 10
354.69081127951483
 20
359.125
 10
355.494057520492
 20
360.375
 10
354.21771624650154
 20
361.125
 10
355.25
 20
363.62055454751646
 10
352.5492924669718
 20
360.375
 10
352.0
 20
360.5301359996719
 10
351.7304693421251
 20
361.875
 10
350.05160355260165
 20
359.125
 10
350.71063585682447
 20
358.125
 10
348.5
 20
357.63110201378834
 10
348.7788915360296
 20
356.375
 10
346.6054417737576
 20
354.875
 10
347.1657301222633
 20
353.625
 10
346.42631932898695
 20
351.875
 10
344.43508478137284
 20
349.625
 10
344.443635772886
 20
348.625
 10
342.5
 20
347.7189031585759
 10
341.8870664286368
 20
347.875
 10
341.95555628560277
 20
349.125
 10
342.91471773048795
 20
350.625
 10
341.1309303036479
 20
352.625
 10
342.07670886252424
 20
354.125
 10
339.49683920224464
 20
355.625
 10
340.0
 20
358.8804934783142
 10
339.0
 20
359.1621876344011
 10
337.5
 20
358.5329608165932
 10
336.0
 20
356.2373983622444
 10
334.0
 20
355.6255920727317
 10
333.75
 20
353.99783946702746
 10
332.6893164407779
 20
354.625
 10
331.5
 20
354.1942308160705
 10
330.9250663685214
 20
354.625
 10
332.2288283308242
 20
355.625
 10
331.64129468099554
 20
356.625
 10
332.75
 20
356.95849277759106
 10
334.0
 20
358.877580816349
 10
337.91612980911486
 20
360.375
 10
336.8582085417856
 20
362.375
 10
339.25
 20
363.02941568896244
 10
341.36374597305104
 20
365.5
 10
342.3080495524148
 20
365.75
 10
344.875
 20
364.0
 10
345.875
 20
364.0
 10
348.0862976997576
 20
365.375
 10
351.125
 20
369.75
 10
353.4943612912125
 20
374.625
 10
353.375
 20
376.14036686419814
 10
354.5
 20
377.2464949202008
 10
355.78901158162347
 20
377.125
 10
356.5
 20
378.71666160989895
 10
357.75
 20
378.5323681434064
 10
359.21655255784526
 20
376.375
 10
356.0216766238029
 20
373.125
 10
355.8508624858427
 20
372.125
 10
356.4167687078421
 20
371.375
 10
358.0
 20
371.33170802247616
 10
358.75
 20
369.72167709934723
 10
360.25
 20
369.48468738885356
 10
362.0
 20
372.9780060753471
 10
361.75
 20
368.8716518338017
 10
362.5
 20
368.96354133520015
 10
363.0
 20
370.25108305692817
 10
364.25
 20
371.08409228342856
 10
365.61311801567825
 20
370.875
 10
365.5
 20
369.24408100578216
 10
366.70680643550565
 20
369.625
 10
366.4118773260808
 20
371.625
 10
365.5
 20
371.8818693398614
 10
363.5
 20
374.8767101334787
 10
361.75
 20
375.41847449269295
 10
361.6818678575186
 20
376.375
 10
359.17972567952637
 20
378.375
 10
359.1328103353281
 20
379.375
 10
357.96683869737797
 20
380.875
 10
358.5
 20
381.42637788298435
 10
360.0
 20
380.99296814182173
 10
362.5955536723164
 20
379.375
 10
363.75
 20
377.39898449791247
 10
365.09589709356055
 20
377.625
 10
366.2431533299794
 20
375.625
 10
367.25
 20
375.73071522894327
 10
366.63947455637157
 20
376.875
 10
362.91160126575295
 20
379.875
 10
361.9726506159855
 20
382.625
 10
364.5
 20
381.4482916506104
 10
365.15363134468885
 20
382.125
 10
364.4501841730038
 20
383.125
 10
365.8348262740939
 20
383.375
 10
369.0
 20
381.1569259854032
 10
368.14093562836575
 20
382.875
 10
369.6497168075184
 20
383.125
 10
369.0
 20
383.2342409145885
 10
368.19239278070467
 20
385.375
 10
370.5
 20
385.88164597092384
 10
372.5
 20
387.1551628748595
 10
373.6005599939397
 20
386.875
 10
375.49975705505676
 20
390.375
 10
374.75
 20
390.7606902455565
 10
371.5
 20
388.8260623885606
 10
369.25
 20
388.41230283716783
 10
365.5
 20
389.5858016309584
 10
365.25
 20
390.69335164362343
 10
367.5
 20
389.6158091107986
 10
369.75
 20
390.233911738985
 10
373.92545516097965
 20
392.875
 10
373.5
 20
395.9771275010033
 10
374.25
 20
396.13923911335246
 10
374.8278879338667
 20
394.875
 10
376.75
 20
394.46008650848427
 10
377.75
 20
395.74576635449563
 10
377.9328322756605
 20
397.125
 10
383.2379962075336
 20
399.75
 10
384.375
 20
399.75
 10
387.875
 20
397.0
 10
389.6878264471504
 20
397.0
 10
392.375
 20
396.0
 10
394.75
 20
393.76579938813666
 10
396.75
 20
393.383935920267
 10
399.75
 20
394.10637617197733
 10
401.75
 20
393.7005332096317
 10
402.0698125399398
 20
393.125
 10
401.3960655565083
 20
392.125
 10
402.25
 20
391.4471312834843
 10
403.25
 20
392.8644088352494
 10
403.75
 20
392.7518562350538
 10
405.835401327899
 20
390.125
 10
404.7287583189977
 20
389.875
 10
404.25
 20
387.5325469541362
 10
406.0
 20
389.85124680340004
 10
408.0
 20
389.1824909569221
 10
408.08955769538716
 20
390.875
 10
409.26853578194977
 20
391.375
 10
410.5
 20
393.0969611700757
 10
414.625
 20
395.0
 10
418.625
 20
393.5
 10
421.125
 20
397.75
 10
424.5536541854346
 20
398.75
 10
425.18666009221147
 20
397.625
 10
423.5915603404546
 20
394.375
 10
425.501881971007
 20
391.625
 10
423.25
 20
392.9658375910526
 10
421.83024390875244
 20
392.625
 10
420.24870590392317
 20
388.875
 10
419.5712246454585
 20
384.375
 10
420.5167263030454
 20
380.875
 10
418.53290138774014
 20
378.125
 10
418.44810258701307
 20
376.875
 10
417.35626044226825
 20
376.125
 10
418.31847072161514
 20
374.875
 10
418.3714985202176
 20
370.875
 10
419.2035102051292
 20
369.875
 10
417.0
 20
369.3665818642003
 10
415.5
 20
366.7527594709056
 10
414.6330770750338
 20
366.375
 10
418.0
 20
363.9403571999277
 10
419.46104784952826
 20
363.625
 10
419.75
 20
361.94898728312506
 10
421.0
 20
361.9806462533009
 10
422.5
 20
360.8342106799325
 10
423.75
 20
360.7368592292956
 10
424.074642715452
 20
360.125
 10
423.0832099920486
 20
359.375
 10
424.0
 20
358.74416715961445
 10
427.0549442792314
 20
360.875
 10
426.6484864296685
 20
362.375
 10
427.00369434046604
 20
363.375
 10
426.5
 20
363.9335017197747
 10
425.3900853876071
 20
363.625
 10
425.0
 20
364.9418375662094
 10
423.0
 20
367.27845435565905
 10
422.6104591836735
 20
368.875
 10
423.75
 20
369.3424027895182
 10
427.0
 20
369.1084136518445
 10
428.0
 20
368.196177807446
 10
430.49696067448565
 20
369.125
 10
430.92061345088473
 20
370.375
 10
429.75
 20
370.4739464674563
 10
429.18647901595875
 20
372.125
 10
427.5321840553344
 20
373.375
 10
428.0
 20
374.33751292890634
 10
429.25
 20
374.9632386764694
 10
429.75
 20
376.58069048264116
 10
430.75
 20
376.0522496169778
 10
431.5
 20
376.45232373934874
 10
432.75
 20
375.45475275885013
 10
433.75
 20
376.5999527782685
 10
434.33559084093883
 20
375.125
 10
432.76606581914893
 20
374.375
 10
432.41435934444144
 20
372.875
 10
433.5
 20
371.31873053466353
 10
435.75
 20
371.3244292041257
 10
435.889755835876
 20
373.375
 10
436.97043386851243
 20
373.875
 10
437.1729452385807
 20
375.875
 10
435.15248996787983
 20
380.375
 10
437.75
 20
379.76964578350606
 10
438.87512802150496
 20
380.875
 10
436.5233338731496
 20
385.625
 10
436.4952127732616
 20
388.375
 10
435.08595200896974
 20
388.375
 10
434.75
 20
386.64366186409285
 10
433.75
 20
387.0900170684468
 10
432.60701109131656
 20
385.625
 10
433.34895241418434
 20
388.875
 10
432.25
 20
389.9434820444022
 10
430.75
 20
389.81835902462075
 10
429.62122000211434
 20
391.125
 10
430.872847991782
 20
392.625
 10
431.5
 20
395.68651904113636
 10
433.25
 20
395.4849171627124
 10
434.5
 20
396.00100958928016
 10
436.0
 20
395.30240371649825
 10
436.5
 20
393.17027939388674
 10
437.25
 20
392.5640471520129
 10
440.125
 20
393.25
 10
442.875
 20
392.75
 10
443.375
 20
391.3145173226694
 10
442.5909467461901
 20
392.1621676471787
 10
443.875
 20
389.8173102335021
 10
444.08346253077417
 20
387.125
 10
445.64158168656064
 20
384.8100240239352
 10
445.875
 20
385.0
 10
447.875
 20
381.99984271991144
 10
450.2758967333608
 20
378.91308338080495
 10
452.2170447748534
 20
377.0148534726401
 10
453.35505363382515
 20
376.3591863839973
 10
457.0
 20
375.5489635887313
 10
461.125
 20
377.6344786959051
 10
464.75
 20
378.4552485547651
 10
467.75
 20
380.16390718102974
 10
473.74126279965674
 20
381.25
 10
479.75
 20
381.2362469726981
 10
482.893048929584
 20
384.125
 10
485.0
 20
384.23796017219126
 10
487.7337285244642
 20
385.875
 10
489.25
 20
385.93370335127094
 10
492.84000443666105
 20
384.625
 10
492.13194153635345
 20
380.125
 10
493.25968341465347
 20
379.6648256994623
 10
494.84272642595045
 20
379.75
 10
495.625
 20
378.8749771821695
 10
495.85742863319825
 20
374.3426400488725
 10
495.91709332321443
 20
373.93422918247745
 10
499.875
 20
367.75
 10
500.8349567584302
 20
366.7900432415698
 10
500.8913757371156
 20
366.75
 10
501.875
 20
366.75
 10
502.5341696965459
 20
367.5
 10
505.625
 20
366.75
 10
508.7198743158117
 20
367.75
 10
509.875
 20
367.5
 10
515.375
 20
361.0
 10
517.5828594651256
 20
355.11237475966516
 10
517.6722999441378
 20
354.9189143814781
 10
519.3366957043464
 20
352.06566450683476
 10
520.6790284014908
 20
352.13971732873114
 10
526.375
 20
352.75
 10
528.7783866840322
 20
354.25
 10
530.125
 20
354.3271936383571
 10
536.625
 20
350.0
 10
538.9299279500417
 20
345.25
 10
538.375
 20
341.0561844762929
 10
537.125
 20
339.25
 10
540.625
 20
335.75
 10
539.375
 20
334.5
 10
537.625
 20
330.5
 10
532.375
 20
327.5
 10
531.875
 20
326.5
 10
532.375
 20
323.2488255359205
 10
531.875
 20
322.2766229485678
 10
527.3989683526838
 20
320.26079440301964
 10
527.3373906048988
 20
320.18527777028487
 10
525.875
 20
317.6686411583737
 10
523.125
 20
315.25
 10
520.125
 20
314.0
 10
516.625
 20
313.75
 10
509.375
 20
316.75
 10
507.375
 20
315.75
 10
506.625
 20
311.77059897603976
 10
505.375
 20
310.5
 10
499.0
 20
310.4963206359487
 10
495.64147573904927
 20
308.375
 10
491.60449196859173
 20
303.125
 10
491.02594754353726
 20
299.625
 10
489.3299085986256
 20
296.625
 10
488.5810941787998
 20
293.625
 10
487.1818998759594
 20
292.5
 10
483.75
 20
291.4097543663183
 10
479.5
 20
287.91075095302995
 10
477.1397456261304
 20
284.875
 10
476.230959304411
 20
281.375
 10
477.625
 20
272.81097640097585
 10
476.875
 20
269.99616816086126
 10
476.02399024656694
 20
268.5
 10
471.375
 20
266.5
 10
468.375
 20
262.25
 10
467.375
 20
260.5
 10
466.375
 20
255.0
 10
464.875
 20
251.75
 10
464.875
 20
246.5
 10
461.875
 20
243.25
 10
460.625
 20
238.5
 10
453.6658545811615
 20
232.7396043028151
 10
451.125
 20
229.5
 10
453.75
 20
226.70947356958987
 10
452.875
 20
222.01388948920592
 10
452.0
 20
220.05361736347947
 10
448.125
 20
216.5
 10
448.125
 20
210.34865035256252
 10
446.6276797857904
 20
209.0
 10
444.25
 20
208.20515572146746
 10
441.875
 20
205.0
 10
439.7388111880673
 20
198.625
 10
440.0
 20
197.58370635971323
 10
442.0947715320591
 20
195.875
 10
442.19476989451425
 20
194.125
 10
441.625
 20
192.59940608992048
 10
440.5198368909521
 20
191.25
 10
437.125
 20
190.0
 10
435.125
 20
185.86075128737178
 10
433.81326029705025
 20
184.5
 10
433.0036337756913
 20
184.0
 10
429.5
 20
184.00865369144992
 10
427.1454541772911
 20
182.125
 10
426.375
 20
175.1237872353644
 10
423.1750653234213
 20
169.375
 10
423.3781940025196
 20
167.625
 10
425.5
 20
163.74679897202932
 10
425.8723726233256
 20
161.375
 10
424.5
 20
160.12185370456365
 10
420.0
 20
159.30791421571854
 10
418.59338363815823
 20
157.875
 10
417.6553403642185
 20
155.125
 10
417.25745560060767
 20
149.5
 10
415.5
 20
145.87695230784925
 10
412.75
 20
145.50896041208367
 10
409.2357193033451
 20
141.125
 10
408.0
 20
140.53868411444307
 10
404.75
 20
142.48772212698464
 10
401.75
 20
142.33316491345312
 10
398.0
 20
143.51558538552155
 10
395.5
 20
142.7281455623003
 10
392.0
 20
144.48160457684776
 10
389.75
 20
143.97533835908246
 10
384.8913376318016
 20
140.125
 10
385.3935699947957
 20
135.375
 10
385.0
 20
134.8579456638969
 10
382.875
 20
134.75
 10
382.375
 20
131.84385471250164
 10
381.375
 20
130.35368615000922
 10
379.80343224641075
 20
129.25
 10
375.8224302118956
 20
128.25
 10
373.42585858931045
 20
128.5
 10
368.75
 20
131.79773180928257
 10
364.4875031142874
 20
132.72551242580744
 10
364.06390320018664
 20
132.2415165853907
 10
362.875
 20
130.29827075568926
 10
362.0083646015023
 20
129.75
 10
350.24237702289224
 20
129.25493871167083
 10
348.69684820574867
 20
127.56479874597488
 10
347.0
 20
125.56253908721294
 10
346.1336234050042
 20
125.75
 10
341.6606208984719
 20
129.22234784690303
 10
341.4229579991639
 20
129.17312792322073
 10
338.99671142889423
 20
128.25
 10
337.8866144790737
 20
129.1656144590305
 10
336.47757157665524
 20
130.05677548904924
 10
335.125
 20
130.25
 10
332.6681884145604
 20
129.0
 10
330.625
 20
128.96919723427902
 10
327.375
 20
130.75
 10
323.5
 20
131.14193017325726
 10
319.5
 20
130.47147523609996
 10
319.04168264648996
 20
130.28853222811972
 10
319.22266553668095
 20
130.25
 10
311.375
 20
127.0
 10
304.125
 20
131.5
 10
302.375
 20
132.0
 10
292.75
 20
130.72512530505577
 10
288.875
 20
128.0
 10
289.26455095099436
 20
124.5
 10
287.447065514263
 20
123.625
 10
284.5972129462307
 20
120.0
 10
282.125
 20
119.25
 10
280.625
 20
116.5
 10
278.8193518687445
 20
115.75
 10
274.625
 20
115.5
 10
273.125
 20
114.25
 10
271.3793138379564
 20
110.5
 10
268.625
 20
110.0
 10
261.875
 20
110.75
 10
260.125
 20
112.0
 10
259.375
 20
113.85159549310617
 10
260.5
 20
112.06669882447966
 10
259.375
 20
114.0
 10
257.25
 20
114.56482492253609
 10
255.91312875342206
 20
113.875
 10
254.85776212602087
 20
112.125
 10
254.25
 20
108.57097982292052
 10
251.125
 20
108.25
 10
249.375
 20
107.0
 10
249.63851867487725
 20
104.125
 10
242.5
 20
104.90705741393577
 10
237.875
 20
102.30983026233612
 10
236.75
 20
102.19389032807521
 10
235.625
 20
102.75
 10
234.625
 20
100.56389873674081
 10
233.5
 20
99.69453954878513
 10
232.16494602734141
 20
99.75
 10
226.0
 20
102.4807533741963
 10
224.125
 20
102.25
 10
221.59267626608337
 20
99.875
 10
221.25
 20
98.18267533722741
 10
218.51558126132855
 20
93.375
 10
216.83157087037165
 20
91.625
 10
213.35177299677488
 20
89.0
 10
210.0
 20
89.24599797167768
 10
204.845193781232
 20
84.0
 10
203.18758525113097
 20
84.0
 10
201.0
 20
85.88612669471709
 10
198.60477309700846
 20
85.0
 10
196.74199236485106
 20
85.0
 10
195.25
 20
86.43546279457392
 10
192.4738862207106
 20
87.25
 10
190.5
 20
88.81331139082532
 10
189.0
 20
89.18781536284781
 10
183.25
 20
89.20596108376316
 10
179.5
 20
87.69759142085485
 10
170.75
 20
90.21219020652259
 10
165.5
 20
90.25420069945865
 10
164.0
 20
89.88581803641445
 10
163.0
 20
88.45051524434186
 10
162.25
 20
88.2716031892384
 10
160.42190418205573
 20
91.125
 10
158.25
 20
92.7683279928147
 10
154.65716111128697
 20
93.89308062648871
 10
157.93747171937338
 20
92.75
 10
151.4771536139849
 20
94.88859473621679
 10
148.725534957576
 20
95.75
 10
146.875
 20
95.75
 10
146.125
 20
96.75
 10
146.125
 20
98.84382704147103
 10
145.78593923502117
 20
100.18671267742585
 10
145.125
 20
102.5
 10
141.125
 20
106.75
 10
136.0
 20
108.47706455101189
 10
130.125
 20
109.0
 10
129.02187498843423
 20
109.0
 10
128.74518670130803
 20
108.83773337663506
 10
127.875
 20
107.75
 10
127.125
 20
107.81799704312789
 10
126.7229879586312
 20
109.17036792768896
 10
126.4146008767696
 20
109.59221538746867
 10
126.05459865753998
 20
109.75
 10
126.25
 20
109.81737547304557
 10
122.72668473989796
 20
109.375
 10
122.125
 20
111.75
 10
120.5
 20
111.36250248997513
 10
118.57280111572665
 20
112.625
 10
120.05899103638943
 20
113.625
 10
120.16440729000131
 20
114.10974532527712
 10
119.625
 20
114.75
 10
117.93098765772663
 20
115.0
 10
116.875
 20
116.13365512678988
 10
115.375
 20
123.0
 10
112.625
 20
126.75
 10
111.375
 20
127.75
 10
105.09499868392606
 20
128.0
 10
100.125
 20
131.5
 10
98.875
 20
134.25
 10
94.125
 20
138.25
 10
91.49584907866371
 20
143.6954451546005
  0
LWPOLYLINE
  5
31
330
17
100
AcDbEntity
  8
PASS_04
100
AcDbPolyline
 90
3
 70
1
 10
87.75
 20
149.24128831774667
 10
87.90668038567104
 20
149.25617823003944
 10
87.125
 20
150.43123043467307
  0
LWPOLYLINE
  5
32
330
17
100
AcDbEntity
  8
PASS_04
100
AcDbPolyline
 90
3
 70
1
 10
191.75
 20
110.36237164641452
 10
191.63896147398842
 20
110.24519008787381
 10
193.0
 20
109.2096766655866
  0
LWPOLYLINE
  5
33
330
17
100
AcDbEntity
  8
PASS_04
100
AcDbPolyline
 90
3
 70
1
 10
193.25
 20
116.12019008911051
 10
191.5
 20
116.80684623763274
 10
191.4346725155104
 20
116.69455443332306
  0
LWPOLYLINE
  5
34
330
17
100
AcDbEntity
  8
PASS_04
100
AcDbPolyline
 90
3
 70
1
 10
140.50470591095734
 20
154.14817335396754
 10
140.49387536312082
 20
154.125
 10
141.01301699790335
 20
152.625
  0
LWPOLYLINE
  5
35
330
17
100
AcDbEntity
  8
PASS_04
100
AcDbPolyline
 90
3
 70
1
 10
198.89168784991384
 20
110.92324013214711
 10
199.20347935888776
 20
110.875
 10
199.16331411438668
 20
111.05332046308699
  0
LWPOLYLINE
  5
36
330
17
100
AcDbEntity
  8
PASS_04
100
AcDbPolyline
 90
3
 70
1
 10
196.51642360145925
 20
117.375
 10
195.1401178287425
 20
114.625
 10
195.20516941119416
 20
114.4656232152969
  0
LWPOLYLINE
  5
37
330
17
100
AcDbEntity
  8
PASS_04
100
AcDbPolyline
 90
47
 70
1
 10
201.0
 20
130.67023729011953
 10
201.5
 20
129.49568302806094
 10
203.25
 20
129.44183139675042
 10
209.25
 20
134.07696900063084
 10
209.5
 20
135.36283624913054
 10
211.75
 20
134.17029456552777
 10
212.75
 20
134.45432887214807
 10
211.70513736436166
 20
135.625
 10
212.25
 20
136.99308989176876
 10
209.0
 20
136.90764123490138
 10
207.69793056673686
 20
137.875
 10
208.0527204865911
 20
138.625
 10
207.12803228593967
 20
140.125
 10
205.75
 20
139.61473562644358
 10
205.0
 20
141.24637605280094
 10
203.75
 20
140.59846468464661
 10
202.75
 20
141.9025963112835
 10
198.76013475544983
 20
141.875
 10
198.3350234284585
 20
139.375
 10
195.31125521454925
 20
136.375
 10
195.330223954614
 20
133.875
 10
192.63507327616506
 20
132.875
 10
192.75
 20
132.1801295205769
 10
193.9483091487787
 20
131.625
 10
193.92991083799558
 20
130.875
 10
190.0
 20
129.9253772754957
 10
187.75
 20
132.7236882348454
 10
186.10483347889163
 20
130.125
 10
186.59274304290372
 20
128.875
 10
186.0
 20
127.95187981730292
 10
180.75
 20
127.68490389451688
 10
179.73904973828186
 20
127.125
 10
180.28573975235224
 20
125.875
 10
177.03275196433265
 20
125.625
 10
177.25
 20
123.65851377130696
 10
180.75
 20
123.35537672367413
 10
185.0
 20
121.38051975442237
 10
186.87598180730572
 20
122.125
 10
187.75
 20
123.78632485485315
 10
190.02795708870772
 20
122.625
 10
191.75
 20
122.79657100272505
 10
191.61169446082087
 20
124.875
 10
193.0
 20
126.019516807737
 10
194.25
 20
126.17834758118394
 10
196.0
 20
125.06263957525172
 10
196.25470748138673
 20
126.875
 10
198.5
 20
129.74564003503613
  0
LWPOLYLINE
  5
38
330
17
100
AcDbEntity
  8
PASS_04
100
AcDbPolyline
 90
6
 70
1
 10
172.0
 20
134.0592200039674
 10
170.59659328688892
 20
132.625
 10
172.25
 20
130.95872560275544
 10
175.44050381486852
 20
132.625
 10
175.65715139165334
 20
133.625
 10
175.0
 20
134.70372101004736
  0
LWPOLYLINE
  5
39
330
17
100
AcDbEntity
  8
PASS_04
100
AcDbPolyline
 90
3
 70
1
 10
101.5
 20
152.03157239697217
 10
101.53053507663816
 20
151.8592372746867
 10
101.61799797471089
 20
151.96138210435535
  0
LWPOLYLINE
  5
3A
330
17
100
AcDbEntity
  8
PASS_04
100
AcDbPolyline
 90
3
 70
1
 10
102.25
 20
147.7986915286598
 10
102.12279454618157
 20
150.625
 10
101.6417073313839
 20
151.23179872775282
  0
LWPOLYLINE
  5
3B
330
17
100
AcDbEntity
  8
PASS_04
100
AcDbPolyline
 90
3
 70
1
 10
91.3330375448488
 20
144.375
 10
91.3774125525248
 20
144.18978430443914
 10
92.25
 20
144.82524059371127
  0
LWPOLYLINE
  5
3C
330
17
100
AcDbEntity
  8
PASS_04
100
AcDbPolyline
 90
3
 70
1
 10
122.8174829269196
 20
182.875
 10
122.42917198457103
 20
183.5238225989346
 10
122.63221113651676
 20
181.1022004470941
  0
LWPOLYLINE
  5
3D
330
17
100
AcDbEntity
  8
PASS_04
100
AcDbPolyline
 90
4
 70
1
 10
122.52479100317397
 20
186.125
 10
122.13040110018244
 20
187.7276978306781
 10
122.08531174161017
 20
187.625
 10
122.330771993089
 20
184.69742678724154
  0
LWPOLYLINE
  5
3E
330
17
100
AcDbEntity
  8
PASS_04
100
AcDbPolyline
 90
3
 70
1
 10
123.55502089885964
 20
164.54668440344577
 10
123.4691176219593
 20
163.875
 10
123.56431190951766
 20
163.43791689538628
  0
LWPOLYLINE
  5
3F
330
17
100
AcDbEntity
  8
PASS_04
100
AcDbPolyline
 90
3
 70
1
 10
123.40744885671064
 20
176.12569232159632
 10
122.77466828095086
 20
174.125
 10
122.81031654956271
 20
174.02135736530136
  0
LWPOLYLINE
  5
40
330
17
100
AcDbEntity
  8
PASS_04
100
AcDbPolyline
 90
3
 70
1
 10
124.4004227467156
 20
179.625
 10
124.11657030127711
 20
179.77424008544142
 10
124.35719974267654
 20
179.47267918729787
  0
LWPOLYLINE
  5
41
330
17
100
AcDbEntity
  8
PASS_04
100
AcDbPolyline
 90
3
 70
1
 10
123.92492642714619
 20
179.875
 10
123.17939293964231
 20
178.875
 10
123.9528792570872
 20
179.86030334053567
  0
LWPOLYLINE
  5
42
330
17
100
AcDbEntity
  8
PASS_04
100
AcDbPolyline
 90
3
 70
1
 10
70.221237326701
 20
309.625
 10
70.4252363549823
 20
308.65371238898837
 10
70.38688214421795
 20
309.625
  0
LWPOLYLINE
  5
43
330
17
100
AcDbEntity
  8
PASS_04
100
AcDbPolyline
 90
3
 70
1
 10
50.46684718093434
 20
185.875
 10
53.957057731880695
 20
183.375
 10
50.43157106280686
 20
186.02322698061596
  0
LWPOLYLINE
  5
44
330
17
100
AcDbEntity
  8
PASS_04
100
AcDbPolyline
 90
3
 70
1
 10
50.0
 20
187.8366486085261
 10
50.25
 20
186.78617176693947
 10
50.25
 20
188.01607308384357
  0
LWPOLYLINE
  5
45
330
17
100
AcDbEntity
  8
PASS_04
100
AcDbPolyline
 90
3
 70
1
 10
51.44678058781661
 20
188.875
 10
50.40246269078655
 20
188.12549523704303
 10
53.53438276576349
 20
189.25969940497953
  0
LWPOLYLINE
  5
46
330
17
100
AcDbEntity
  8
PASS_04
100
AcDbPolyline
 90
3
 70
1
 10
53.8200782196761
 20
191.125
 10
54.139870698655365
 20
189.4789728604576
 10
54.25
 20
189.5188554595044
  0
LWPOLYLINE
  5
47
330
17
100
AcDbEntity
  8
PASS_04
100
AcDbPolyline
 90
3
 70
1
 10
58.881651163820386
 20
193.18669458295304
 10
57.25
 20
194.09903075082457
 10
58.75
 20
193.1148572651444
  0
LWPOLYLINE
  5
48
330
17
100
AcDbEntity
  8
PASS_04
100
AcDbPolyline
 90
3
 70
1
 10
63.5
 20
194.52030965698498
 10
61.5
 20
194.61543362346114
 10
63.56145238328666
 20
194.40240395774362
  0
LWPOLYLINE
  5
49
330
17
100
AcDbEntity
  8
PASS_04
100
AcDbPolyline
 90
3
 70
1
 10
74.09226073496085
 20
190.125
 10
74.19519324136351
 20
188.23226179546054
 10
74.26998488776741
 20
188.375
  0
LWPOLYLINE
  5
4A
330
17
100
AcDbEntity
  8
PASS_04
100
AcDbPolyline
 90
3
 70
1
 10
74.7637225812151
 20
190.54589958323325
 10
74.75
 20
190.8686010308049
 10
74.09226073496085
 20
190.125
  0
LWPOLYLINE
  5
4B
330
17
100
AcDbEntity
  8
PASS_04
100
AcDbPolyline
 90
3
 70
1
 10
72.75489088874147
 20
180.125
 10
72.14467832873885
 20
181.375
 10
72.74421634814432
 20
180.12906975796992
  0
LWPOLYLINE
  5
4C
330
17
100
AcDbEntity
  8
PASS_04
100
AcDbPolyline
 90
3
 70
1
 10
70.78772097175062
 20
180.875
 10
72.692370459412
 20
180.14883643710291
 10
70.24619615141332
 20
181.49804107122657
  0
LWPOLYLINE
  5
4D
330
17
100
AcDbEntity
  8
PASS_04
100
AcDbPolyline
 90
3
 70
1
 10
68.05063359721474
 20
181.3676806604738
 10
69.4417596738554
 20
181.94173366493516
 10
69.25
 20
182.04750006095924
  0
LWPOLYLINE
  5
4E
330
17
100
AcDbEntity
  8
PASS_04
100
AcDbPolyline
 90
3
 70
1
 10
66.20575420140399
 20
177.875
 10
67.41763452345043
 20
181.00888700923016
 10
67.181425347123
 20
180.875
  0
LWPOLYLINE
  5
4F
330
17
100
AcDbEntity
  8
PASS_04
100
AcDbPolyline
 90
3
 70
1
 10
66.49139752657875
 20
172.84914534999282
 10
65.94930188866391
 20
174.625
 10
66.45723146090627
 20
172.875
  0
LWPOLYLINE
  5
50
330
17
100
AcDbEntity
  8
PASS_04
100
AcDbPolyline
 90
3
 70
1
 10
70.75
 20
169.6285617256225
 10
70.38288154547617
 20
169.90432406791695
 10
70.75025875003452
 20
169.62631696181566
  0
LWPOLYLINE
  5
51
330
17
100
AcDbEntity
  8
PASS_04
100
AcDbPolyline
 90
3
 70
1
 10
66.1374179474636
 20
168.99515172304046
 10
71.0
 20
167.45970809530445
 10
66.5
 20
169.21072397077907
  0
LWPOLYLINE
  5
52
330
17
100
AcDbEntity
  8
PASS_04
100
AcDbPolyline
 90
3
 70
1
 10
60.75
 20
171.38279062139958
 10
64.75
 20
168.17026587059584
 10
60.61677129425839
 20
171.81391295021834
  0
LWPOLYLINE
  5
53
330
17
100
AcDbEntity
  8
PASS_04
100
AcDbPolyline
 90
3
 70
1
 10
59.74806776318507
 20
174.625
 10
60.13642197248822
 20
173.36830257740354
 10
60.03636044029216
 20
174.45286090294206
  0
LWPOLYLINE
  5
54
330
17
100
AcDbEntity
  8
PASS_04
100
AcDbPolyline
 90
3
 70
1
 10
64.30270805904235
 20
180.625
 10
62.751071102219036
 20
173.6241405343735
 10
62.75294889235299
 20
173.625
  0
LWPOLYLINE
  5
55
330
17
100
AcDbEntity
  8
PASS_04
100
AcDbPolyline
 90
3
 70
1
 10
62.63259464476667
 20
183.6569635675458
 10
62.85453272208834
 20
183.38240615636107
 10
62.72712370022759
 20
183.625
  0
LWPOLYLINE
  5
56
330
17
100
AcDbEntity
  8
PASS_04
100
AcDbPolyline
 90
3
 70
1
 10
60.11206270676481
 20
184.42904106471204
 10
61.07253858500721
 20
184.18447288199133
 10
60.25
 20
184.46260183919628
  0
LWPOLYLINE
  5
57
330
17
100
AcDbEntity
  8
PASS_04
100
AcDbPolyline
 90
3
 70
1
 10
57.71639691527586
 20
183.81925325338457
 10
58.459399534755285
 20
184.02694055430354
 10
57.75
 20
183.85434040211294
  0
LWPOLYLINE
  5
58
330
17
100
AcDbEntity
  8
PASS_04
100
AcDbPolyline
 90
3
 70
1
 10
101.09288157897454
 20
194.67128291792778
 10
101.0
 20
194.70936983560932
 10
99.0
 20
193.94189360250812
  0
LWPOLYLINE
  5
59
330
17
100
AcDbEntity
  8
PASS_04
100
AcDbPolyline
 90
3
 70
1
 10
103.75
 20
188.33802579303847
 10
102.75
 20
189.11396576515568
 10
102.65984315978656
 20
189.02126541141166
  0
LWPOLYLINE
  5
5A
330
17
100
AcDbEntity
  8
PASS_04
100
AcDbPolyline
 90
3
 70
1
 10
105.25
 20
185.49066092466654
 10
105.6545922505741
 20
188.125
 10
105.5976911087376
 20
188.21230211406538
  0
LWPOLYLINE
  5
5B
330
17
100
AcDbEntity
  8
PASS_04
100
AcDbPolyline
 90
3
 70
1
 10
103.65115459142142
 20
180.625
 10
105.5
 20
179.59819843236275
 10
105.48377340742714
 20
179.64974403174767
  0
LWPOLYLINE
  5
5C
330
17
100
AcDbEntity
  8
PASS_04
100
AcDbPolyline
 90
3
 70
1
 10
103.0
 20
185.2856219003839
 10
102.9350189408725
 20
185.27956183861932
 10
103.63013615539414
 20
184.625
  0
LWPOLYLINE
  5
5D
330
17
100
AcDbEntity
  8
PASS_04
100
AcDbPolyline
 90
3
 70
1
 10
100.75
 20
185.07578938682704
 10
100.77721181451356
 20
184.89040413402606
 10
101.75436077143844
 20
185.16945496246652
  0
LWPOLYLINE
  5
5E
330
17
100
AcDbEntity
  8
PASS_04
100
AcDbPolyline
 90
3
 70
1
 10
101.03634704296756
 20
183.125
 10
101.28210141532371
 20
182.77259053242767
 10
100.84878566561284
 20
184.4027947365209
  0
LWPOLYLINE
  5
5F
330
17
100
AcDbEntity
  8
PASS_04
100
AcDbPolyline
 90
3
 70
1
 10
102.08237898153503
 20
181.625
 10
103.4294155654675
 20
180.875
 10
101.73963443841595
 20
182.11649246377954
  0
LWPOLYLINE
  5
60
330
17
100
AcDbEntity
  8
PASS_04
100
AcDbPolyline
 90
3
 70
1
 10
103.25
 20
179.28622661183607
 10
103.34448563862333
 20
179.16693177736607
 10
103.4294155654675
 20
180.875
  0
LWPOLYLINE
  5
61
330
17
100
AcDbEntity
  8
PASS_04
100
AcDbPolyline
 90
3
 70
1
 10
104.5
 20
177.7080127662171
 10
105.25179415616562
 20
177.3902200040905
 10
103.4682808346484
 20
179.0106315434558
  0
LWPOLYLINE
  5
62
330
17
100
AcDbEntity
  8
PASS_04
100
AcDbPolyline
 90
3
 70
1
 10
106.05363161877756
 20
176.22900202246035
 10
106.09403702967754
 20
176.625
 10
105.95130409637792
 20
176.7546800474523
  0
LWPOLYLINE
  5
63
330
17
100
AcDbEntity
  8
PASS_04
100
AcDbPolyline
 90
3
 70
1
 10
105.6934974792982
 20
173.2578855096597
 10
105.75
 20
173.25322466307057
 10
105.79013451922476
 20
173.64656773491492
  0
LWPOLYLINE
  5
64
330
17
100
AcDbEntity
  8
PASS_04
100
AcDbPolyline
 90
3
 70
1
 10
105.74968338515195
 20
171.63048723647915
 10
105.75
 20
171.634497933605
 10
104.27374169278995
 20
173.375
  0
LWPOLYLINE
  5
65
330
17
100
AcDbEntity
  8
PASS_04
100
AcDbPolyline
 90
3
 70
1
 10
105.5702374119773
 20
170.82606165818896
 10
105.6900432604868
 20
170.875
 10
105.74660496817832
 20
171.59149159813666
  0
LWPOLYLINE
  5
66
330
17
100
AcDbEntity
  8
PASS_04
100
AcDbPolyline
 90
3
 70
1
 10
103.42484910831082
 20
170.125
 10
103.37993484207843
 20
169.93136597205313
 10
104.23062589770711
 20
170.27885660104894
  0
LWPOLYLINE
  5
67
330
17
100
AcDbEntity
  8
PASS_04
100
AcDbPolyline
 90
3
 70
1
 10
101.75
 20
170.28823691859725
 10
100.75
 20
169.0180428492303
 10
101.81088677054251
 20
170.13152480685073
  0
LWPOLYLINE
  5
68
330
17
100
AcDbEntity
  8
PASS_04
100
AcDbPolyline
 90
3
 70
1
 10
97.94033614589144
 20
168.73637322826485
 10
98.0
 20
168.59300338154816
 10
100.75
 20
169.0180428492303
  0
LWPOLYLINE
  5
69
330
17
100
AcDbEntity
  8
PASS_04
100
AcDbPolyline
 90
3
 70
1
 10
96.40146468396397
 20
173.16069047109536
 10
96.42610911813094
 20
172.375
 10
97.2158744579317
 20
170.47722558697976
  0
LWPOLYLINE
  5
6A
330
17
100
AcDbEntity
  8
PASS_04
100
AcDbPolyline
 90
4
 70
1
 10
97.48343386793287
 20
176.875
 10
97.47746333283692
 20
177.02351207862992
 10
96.37905922684371
 20
173.875
 10
96.38964825511223
 20
173.5374106460562
  0
LWPOLYLINE
  5
6B
330
17
100
AcDbEntity
  8
PASS_04
100
AcDbPolyline
 90
3
 70
1
 10
97.33439447598003
 20
180.58223051467158
 10
97.16853520372673
 20
180.125
 10
97.45209729693653
 20
177.65447105594467
  0
LWPOLYLINE
  5
6C
330
17
100
AcDbEntity
  8
PASS_04
100
AcDbPolyline
 90
4
 70
1
 10
152.20999275887036
 20
170.875
 10
151.88292173142003
 20
169.34142103014386
 10
152.0
 20
169.3480606994346
 10
152.24176240676678
 20
170.87994818815633
  0
LWPOLYLINE
  5
6D
330
17
100
AcDbEntity
  8
PASS_04
100
AcDbPolyline
 90
3
 70
1
 10
151.45874560897835
 20
169.45422019776942
 10
151.5
 20
169.31970501322888
 10
151.60627889230895
 20
169.3257322350701
  0
LWPOLYLINE
  5
6E
330
17
100
AcDbEntity
  8
PASS_04
100
AcDbPolyline
 90
4
 70
1
 10
147.82228083271056
 20
182.61425476925754
 10
147.81605806979852
 20
182.375
 10
148.5
 20
180.3269642407454
 10
149.079929056552
 20
179.81591040165733
  0
LWPOLYLINE
  5
6F
330
17
100
AcDbEntity
  8
PASS_04
100
AcDbPolyline
 90
3
 70
1
 10
159.0049203314472
 20
166.61275047809553
 10
159.0
 20
166.50126145751875
 10
159.0471629497578
 20
166.59792345117862
  0
LWPOLYLINE
  5
70
330
17
100
AcDbEntity
  8
PASS_04
100
AcDbPolyline
 90
3
 70
1
 10
171.0
 20
182.8466128639124
 10
170.75
 20
181.22064604085233
 10
171.23464287207293
 20
182.7573638425412
  0
LWPOLYLINE
  5
71
330
17
100
AcDbEntity
  8
PASS_04
100
AcDbPolyline
 90
3
 70
1
 10
110.0
 20
197.17010073133326
 10
110.52077145244915
 20
198.875
 10
110.31777426098033
 20
200.66334526347077
  0
LWPOLYLINE
  5
72
330
17
100
AcDbEntity
  8
PASS_04
100
AcDbPolyline
 90
4
 70
1
 10
107.85698167474524
 20
206.95933977215944
 10
107.84228477578715
 20
206.875
 10
108.96261376769165
 20
198.625
 10
109.03452092130809
 20
198.52415263770595
  0
LWPOLYLINE
  5
73
330
17
100
AcDbEntity
  8
PASS_04
100
AcDbPolyline
 90
3
 70
1
 10
139.43770563735336
 20
203.86912620338043
 10
139.5
 20
203.75152378520337
 10
140.3070831510767
 20
204.125
  0
LWPOLYLINE
  5
74
330
17
100
AcDbEntity
  8
PASS_04
100
AcDbPolyline
 90
3
 70
1
 10
95.03015969389456
 20
199.625
 10
95.5
 20
198.198443784784
 10
95.61091352820026
 20
198.51053743462933
  0
LWPOLYLINE
  5
75
330
17
100
AcDbEntity
  8
PASS_04
100
AcDbPolyline
 90
3
 70
1
 10
95.04251474903256
 20
213.875
 10
94.02819857233646
 20
209.125
 10
94.03693128236014
 20
209.0831450451373
  0
LWPOLYLINE
  5
76
330
17
100
AcDbEntity
  8
PASS_04
100
AcDbPolyline
 90
3
 70
1
 10
104.77939021638106
 20
204.125
 10
105.1792743825493
 20
203.1906247378955
 10
104.36664021769178
 20
210.125
  0
LWPOLYLINE
  5
77
330
17
100
AcDbEntity
  8
PASS_04
100
AcDbPolyline
 90
3
 70
1
 10
105.25
 20
197.27254119306568
 10
105.65572185454565
 20
199.125
 10
105.38362855814017
 20
201.44682832715316
  0
LWPOLYLINE
  5
78
330
17
100
AcDbEntity
  8
PASS_04
100
AcDbPolyline
 90
3
 70
1
 10
97.5590698077261
 20
202.16170250532085
 10
97.54322037585418
 20
201.625
 10
99.0
 20
198.50466144993825
  0
LWPOLYLINE
  5
79
330
17
100
AcDbEntity
  8
PASS_04
100
AcDbPolyline
 90
3
 70
1
 10
108.61343425259791
 20
218.625
 10
107.96330606195644
 20
219.875
 10
108.74535969750502
 20
217.375
  0
LWPOLYLINE
  5
7A
330
17
100
AcDbEntity
  8
PASS_04
100
AcDbPolyline
 90
4
 70
1
 10
110.34998774417988
 20
216.08805955819906
 10
110.37261618172994
 20
216.125
 10
109.27543102074635
 20
221.625
 10
109.0
 20
221.83020480019283
  0
LWPOLYLINE
  5
7B
330
17
100
AcDbEntity
  8
PASS_04
100
AcDbPolyline
 90
3
 70
1
 10
108.19817134819306
 20
215.93580107336942
 10
108.08000371816324
 20
215.625
 10
109.5
 20
214.7004726898644
  0
LWPOLYLINE
  5
7C
330
17
100
AcDbEntity
  8
PASS_04
100
AcDbPolyline
 90
3
 70
1
 10
183.2912106402787
 20
230.28483412687626
 10
183.39499871109322
 20
230.125
 10
183.44438224554358
 20
230.12166170893016
  0
LWPOLYLINE
  5
7D
330
17
100
AcDbEntity
  8
PASS_04
100
AcDbPolyline
 90
3
 70
1
 10
184.75
 20
232.7670430247281
 10
182.58331292750222
 20
231.375
 10
182.66742384089986
 20
231.24546878992768
  0
LWPOLYLINE
  5
7E
330
17
100
AcDbEntity
  8
PASS_04
100
AcDbPolyline
 90
3
 70
1
 10
186.80733562915916
 20
227.61016478176342
 10
187.22411287333443
 20
228.625
 10
186.98363382306937
 20
229.95924380609256
  0
LWPOLYLINE
  5
7F
330
17
100
AcDbEntity
  8
PASS_04
100
AcDbPolyline
 90
3
 70
1
 10
184.75
 20
230.03340289678067
 10
186.5
 20
226.86181533455027
 10
186.5950174290569
 20
227.09317881396493
  0
LWPOLYLINE
  5
80
330
17
100
AcDbEntity
  8
PASS_04
100
AcDbPolyline
 90
3
 70
1
 10
125.29330725631722
 20
209.80122380912454
 10
124.31639855308458
 20
212.875
 10
122.99978959660191
 20
215.625
  0
LWPOLYLINE
  5
81
330
17
100
AcDbEntity
  8
PASS_04
100
AcDbPolyline
 90
3
 70
1
 10
125.25170047383826
 20
207.875
 10
125.42876986738655
 20
209.375
 10
125.36047935870974
 20
209.5898713988717
  0
LWPOLYLINE
  5
82
330
17
100
AcDbEntity
  8
PASS_04
100
AcDbPolyline
 90
3
 70
1
 10
126.67746635380786
 20
203.61791692953938
 10
126.68075636850921
 20
204.375
 10
125.25170047383826
 20
207.875
  0
LWPOLYLINE
  5
83
330
17
100
AcDbEntity
  8
PASS_04
100
AcDbPolyline
 90
3
 70
1
 10
125.5
 20
199.90225902422884
 10
126.67097866594675
 20
202.125
 10
126.67541073978326
 20
203.1448884726181
  0
LWPOLYLINE
  5
84
330
17
100
AcDbEntity
  8
PASS_04
100
AcDbPolyline
 90
3
 70
1
 10
121.41571207672462
 20
199.79737791297322
 10
121.5
 20
199.68568102444704
 10
123.5
 20
199.13434989518032
  0
LWPOLYLINE
  5
85
330
17
100
AcDbEntity
  8
PASS_04
100
AcDbPolyline
 90
3
 70
1
 10
111.22962518580759
 20
214.3469063497981
 10
111.25
 20
214.28371675767863
 10
114.0
 20
213.20537114578414
  0
LWPOLYLINE
  5
86
330
17
100
AcDbEntity
  8
PASS_04
100
AcDbPolyline
 90
3
 70
1
 10
110.79975958992516
 20
216.2739708533268
 10
110.65629773544084
 20
216.125
 10
110.70233961780481
 20
215.982207641772
  0
LWPOLYLINE
  5
87
330
17
100
AcDbEntity
  8
PASS_04
100
AcDbPolyline
 90
62
 70
1
 10
242.5
 20
298.51065766966747
 10
246.25
 20
295.4401433609586
 10
246.6453836626073
 20
296.875
 10
245.37036977263634
 20
299.875
 10
249.5
 20
297.8181956295525
 10
252.41029513260514
 20
298.625
 10
252.64054418855162
 20
299.375
 10
251.41700434311886
 20
300.875
 10
253.0
 20
302.0223449240565
 10
256.22894530145464
 20
301.625
 10
256.1676212980626
 20
305.125
 10
254.5
 20
307.5201350904949
 10
253.25
 20
308.28362688451364
 10
251.66287957491667
 20
311.875
 10
249.8271620503387
 20
311.875
 10
250.218263984181
 20
309.375
 10
248.25
 20
307.3231959484166
 10
244.75
 20
307.480910620228
 10
243.75
 20
306.8139898395244
 10
243.5
 20
307.8937966460393
 10
241.5
 20
309.01962907485273
 10
238.75
 20
308.7997691954814
 10
239.28859447388595
 20
310.625
 10
238.5
 20
311.49888914808764
 10
238.59117369382923
 20
312.375
 10
237.75
 20
312.9094765593572
 10
236.32201298205788
 20
310.375
 10
236.85123510686844
 20
306.125
 10
235.25
 20
305.6537374961297
 10
234.88034785078514
 20
304.875
 10
237.77281232962758
 20
302.375
 10
237.68757898842986
 20
301.125
 10
238.9880211108547
 20
299.375
 10
238.0
 20
297.297961865544
 10
236.75
 20
297.5315913120445
 10
236.33052819317766
 20
296.875
 10
239.7147656583595
 20
294.625
 10
239.82252472747408
 20
293.875
 10
238.5
 20
291.904569302081
 10
236.75
 20
292.889316850002
 10
235.75
 20
292.7178003097215
 10
235.28957223527192
 20
291.875
 10
239.36835070984043
 20
283.125
 10
240.12863970577123
 20
279.875
 10
239.45847012402606
 20
278.125
 10
242.5
 20
279.57991317033105
 10
242.8847238032243
 20
280.375
 10
242.5
 20
281.78491846405797
 10
244.5
 20
281.9254197164355
 10
246.1193176814646
 20
280.875
 10
246.0288237036384
 20
276.375
 10
248.5
 20
276.40000466252593
 10
250.75
 20
278.1020978396059
 10
250.98356125510122
 20
279.375
 10
249.0
 20
281.08261125960155
 10
248.27041593727657
 20
283.375
 10
247.04500147970336
 20
284.125
 10
245.8035362668794
 20
288.375
 10
240.992905427404
 20
291.875
 10
241.761271974165
 20
293.625
 10
240.81589300952527
 20
297.625
 10
241.25
 20
298.2909507946852
  0
LWPOLYLINE
  5
88
330
17
100
AcDbEntity
  8
PASS_04
100
AcDbPolyline
 90
7
 70
1
 10
249.0
 20
284.0623911741499
 10
251.25
 20
282.9017674552298
 10
252.0
 20
283.75352173819647
 10
252.0
 20
284.8116382356609
 10
249.841592012341
 20
287.625
 10
247.64150873166045
 20
287.875
 10
248.81414119024947
 20
286.625
  0
LWPOLYLINE
  5
89
330
17
100
AcDbEntity
  8
PASS_04
100
AcDbPolyline
 90
35
 70
1
 10
218.0
 20
292.3804474024977
 10
218.7604588722228
 20
293.125
 10
217.41108604538417
 20
295.625
 10
218.11621531621927
 20
298.875
 10
216.32423959496407
 20
300.625
 10
216.64380318341497
 20
301.875
 10
215.97161280841846
 20
303.875
 10
211.25
 20
305.6533279831915
 10
210.64084340741684
 20
305.375
 10
211.5880529905318
 20
304.125
 10
211.5954661792335
 20
301.625
 10
210.25
 20
301.62903790111466
 10
208.75
 20
300.4383839296248
 10
207.74911818957574
 20
301.875
 10
208.4056221061782
 20
303.375
 10
208.0
 20
303.75387936560077
 10
206.0
 20
303.0698780678968
 10
204.8272156049353
 20
301.625
 10
205.00130290937844
 20
300.125
 10
206.2837647154478
 20
297.875
 10
204.71205713943218
 20
295.875
 10
205.79414861643025
 20
293.375
 10
206.42107672681428
 20
289.625
 10
207.25
 20
288.8301543315198
 10
208.5
 20
288.91863773390156
 10
209.5
 20
293.70706210926124
 10
210.25
 20
294.29272722244247
 10
210.61579963203286
 20
293.875
 10
209.80050644934911
 20
291.125
 10
211.0
 20
290.4197102613284
 10
211.8808416018763
 20
291.375
 10
212.18142188333593
 20
295.625
 10
214.25
 20
297.2777200372431
 10
215.6552586611272
 20
297.375
 10
217.25
 20
292.70512952695174
  0
LWPOLYLINE
  5
8A
330
17
100
AcDbEntity
  8
PASS_04
100
AcDbPolyline
 90
6
 70
1
 10
214.18817669500342
 20
286.625
 10
216.75
 20
284.61513858035426
 10
216.60316790523427
 20
287.875
 10
214.25
 20
289.62120654179523
 10
212.25
 20
287.9255736031503
 10
212.60040204492748
 20
287.125
  0
LWPOLYLINE
  5
8B
330
17
100
AcDbEntity
  8
PASS_04
100
AcDbPolyline
 90
25
 70
1
 10
210.30264986125775
 20
272.875
 10
210.75425746841577
 20
275.375
 10
212.5889021943974
 20
278.875
 10
212.35648409919605
 20
280.625
 10
210.5
 20
282.38485692727687
 10
207.5
 20
282.60774437135336
 10
204.8461912943872
 20
280.875
 10
205.0
 20
277.51519881630514
 10
201.41416078782723
 20
272.875
 10
195.25
 20
268.6466710095543
 10
193.75
 20
269.0833990747281
 10
193.0
 20
268.54012867991156
 10
193.17337979387074
 20
266.625
 10
194.75
 20
264.2595182688556
 10
198.0
 20
262.65724180562694
 10
201.25
 20
263.95196767663435
 10
202.64520386743848
 20
265.875
 10
202.90288627517026
 20
267.875
 10
205.75
 20
270.4497569412182
 10
207.295625042393
 20
269.875
 10
205.81270154732582
 20
267.125
 10
207.0
 20
266.86798112615674
 10
206.78442367733038
 20
267.625
 10
208.6507018276914
 20
268.125
 10
208.07052844080724
 20
270.125
  0
LWPOLYLINE
  5
8C
330
17
100
AcDbEntity
  8
PASS_04
100
AcDbPolyline
 90
122
 70
1
 10
157.58004765649025
 20
216.625
 10
156.6652741796201
 20
217.625
 10
156.64668181965584
 20
219.875
 10
157.75
 20
221.04861426545494
 10
160.75
 20
222.44039296971357
 10
164.25
 20
222.43462752272455
 10
166.0
 20
224.26612562586283
 10
168.24686029770936
 20
225.125
 10
169.25
 20
228.36391940404533
 10
170.0
 20
228.33857967489095
 10
171.25
 20
227.07910959417617
 10
172.3989549099093
 20
227.625
 10
170.99487077850011
 20
228.875
 10
172.29003023425082
 20
230.625
 10
172.82398648127284
 20
232.625
 10
174.1302215417458
 20
233.875
 10
174.0
 20
234.88754301016672
 10
172.5
 20
233.59014811367246
 10
170.25
 20
234.7756040039271
 10
169.0
 20
234.60300087857377
 10
168.25
 20
233.46141887115937
 10
164.40234783867444
 20
234.375
 10
163.75
 20
236.57581271769226
 10
162.7842579522177
 20
237.375
 10
162.41723121800214
 20
239.375
 10
165.8221549997707
 20
241.875
 10
169.0
 20
242.18391036194316
 10
169.75
 20
243.02502277053145
 10
172.0
 20
243.60613586751975
 10
175.0
 20
247.11635796388256
 10
178.0
 20
246.16990794742603
 10
179.0
 20
247.43043059258872
 10
182.5
 20
247.82530052056066
 10
185.25
 20
249.26597949080622
 10
187.44345492797032
 20
251.375
 10
189.89322257099744
 20
255.625
 10
189.26091191141157
 20
257.125
 10
187.75
 20
257.64424112742097
 10
184.0
 20
256.84379517323555
 10
183.0
 20
257.7336762771469
 10
175.5
 20
254.43824538002457
 10
175.25
 20
255.65855256234875
 10
176.26415118153045
 20
256.125
 10
174.44844323750306
 20
257.875
 10
175.30728240842197
 20
258.625
 10
174.75
 20
260.04608913649025
 10
169.56113683869737
 20
261.625
 10
163.25
 20
266.239112295734
 10
162.25
 20
264.64868312995264
 10
159.0
 20
264.31339506093485
 10
155.95178308687684
 20
261.875
 10
153.70586501058028
 20
260.875
 10
152.75
 20
258.4893336320414
 10
150.5
 20
260.01070340963827
 10
147.25988186056503
 20
258.375
 10
146.87178186876187
 20
257.375
 10
147.26817988200173
 20
255.875
 10
146.20313699704315
 20
255.125
 10
147.10817512650124
 20
253.625
 10
143.55147117262962
 20
254.625
 10
143.6131471114445
 20
253.125
 10
142.7228745225633
 20
253.125
 10
142.15336776836065
 20
251.625
 10
143.5
 20
251.5285696162725
 10
143.6884640192165
 20
250.875
 10
142.71474474212727
 20
249.875
 10
142.53618064640403
 20
248.625
 10
140.5
 20
248.82193056649578
 10
140.49810720236204
 20
247.625
 10
137.75776741199581
 20
243.125
 10
138.25
 20
242.2617611416959
 10
141.0
 20
243.6495138729447
 10
142.20708542896375
 20
243.375
 10
143.325955434063
 20
241.375
 10
142.9739617748116
 20
238.625
 10
143.82407750110235
 20
237.625
 10
142.5
 20
234.61838192484288
 10
141.06559387873546
 20
233.875
 10
141.63417764518223
 20
230.625
 10
141.25
 20
229.1990874033193
 10
140.5
 20
228.251796168915
 10
138.12539186295507
 20
227.375
 10
138.0
 20
223.95337044873358
 10
135.25
 20
223.12606367410652
 10
134.5444791278989
 20
220.875
 10
135.02971785963422
 20
219.375
 10
136.25
 20
218.37008176959503
 10
138.75
 20
217.84706117676507
 10
140.76726214113424
 20
219.625
 10
140.30013299872166
 20
222.125
 10
141.5
 20
222.2933419363722
 10
141.75
 20
224.0241311054503
 10
144.5
 20
226.26496423001598
 10
145.75
 20
225.35209610710012
 10
148.25
 20
225.64847669753516
 10
149.25
 20
224.86520580494917
 10
152.25
 20
226.30703307621846
 10
156.84996306783205
 20
225.625
 10
155.6847345926389
 20
222.875
 10
153.25
 20
221.51866711278745
 10
151.5
 20
222.08447565570526
 10
150.5
 20
221.76536983455082
 10
147.66741030717606
 20
223.375
 10
147.1496941595122
 20
222.375
 10
147.6975619156448
 20
220.125
 10
147.41299503384334
 20
218.875
 10
146.0
 20
219.3363512722305
 10
145.0
 20
218.96063596193113
 10
141.50844043395784
 20
215.625
 10
141.62915987975583
 20
214.375
 10
143.0
 20
212.92059486159073
 10
144.062338376401
 20
213.375
 10
145.25
 20
215.8788489425982
 10
147.9669239445295
 20
214.375
 10
148.25
 20
213.49663422950889
 10
149.0
 20
213.46705098074932
 10
148.7154337918442
 20
216.375
 10
150.5
 20
217.69562718924922
 10
152.0
 20
216.38294931349174
 10
154.0
 20
216.7605668426267
 10
154.75
 20
215.31487743217693
 10
156.75
 20
215.28762803459665
  0
LWPOLYLINE
  5
8D
330
17
100
AcDbEntity
  8
PASS_04
100
AcDbPolyline
 90
12
 70
1
 10
176.0
 20
263.2213922336734
 10
175.94127775378178
 20
265.125
 10
175.1810335874824
 20
266.375
 10
177.25
 20
267.65631009452613
 10
177.13768394993804
 20
269.125
 10
174.25
 20
269.92159524594797
 10
173.25
 20
270.9272893365356
 10
172.0
 20
270.8738972015386
 10
170.74505764150376
 20
267.375
 10
172.25
 20
266.39992095780997
 10
173.95266903914592
 20
266.875
 10
174.25
 20
264.26360484572933
  0
LWPOLYLINE
  5
8E
330
17
100
AcDbEntity
  8
PASS_04
100
AcDbPolyline
 90
12
 70
1
 10
123.5
 20
200.44836610041148
 10
124.5
 20
201.85512279494333
 10
125.25
 20
201.46235920429842
 10
126.00481142589078
 20
202.125
 10
126.13451939977932
 20
204.375
 10
122.75
 20
208.4638445942416
 10
121.13910063479963
 20
207.375
 10
120.04146955361473
 20
204.875
 10
120.75
 20
203.50715118812641
 10
121.62429870718194
 20
203.125
 10
121.75
 20
201.32684129040416
 10
122.75
 20
201.44873503518443
  0
LWPOLYLINE
  5
8F
330
17
100
AcDbEntity
  8
PASS_04
100
AcDbPolyline
 90
13
 70
1
 10
122.03067737042403
 20
210.375
 10
123.5
 20
209.26077368781057
 10
124.23350435405236
 20
209.875
 10
123.5
 20
212.7219718877093
 10
122.25
 20
213.72780586242044
 10
121.25
 20
216.09968654223235
 10
119.5
 20
216.68979538783296
 10
118.0
 20
215.45859326012513
 10
118.25
 20
214.41999937265618
 10
119.25
 20
215.7676930769727
 10
120.0
 20
215.84273328960893
 10
120.5
 20
213.75889047120884
 10
122.01848658632673
 20
213.375
  0
LWPOLYLINE
  5
90
330
17
100
AcDbEntity
  8
PASS_04
100
AcDbPolyline
 90
7
 70
1
 10
115.15737844592938
 20
208.625
 10
117.0
 20
205.70693745292203
 10
118.25
 20
205.81841311687305
 10
118.67644400725462
 20
207.125
 10
117.97196211821993
 20
210.125
 10
117.0
 20
210.69110001814633
 10
115.5
 20
210.42025192097742
  0
LWPOLYLINE
  5
91
330
17
100
AcDbEntity
  8
PASS_04
100
AcDbPolyline
 90
8
 70
1
 10
112.53614682073653
 20
216.375
 10
111.68904274995526
 20
215.375
 10
112.25
 20
214.61181854259286
 10
114.75
 20
214.0859888719342
 10
115.25955351781467
 20
214.625
 10
114.97942475414352
 20
215.625
 10
115.9682395408933
 20
216.625
 10
115.5
 20
217.3499000612453
  0
LWPOLYLINE
  5
92
330
17
100
AcDbEntity
  8
PASS_04
100
AcDbPolyline
 90
3
 70
1
 10
241.22178416876392
 20
339.125
 10
241.02438916018673
 20
339.191803626784
 10
238.5
 20
337.068916237494
  0
LWPOLYLINE
  5
93
330
17
100
AcDbEntity
  8
PASS_04
100
AcDbPolyline
 90
3
 70
1
 10
283.5
 20
272.51757906704336
 10
282.75
 20
271.82966048253684
 10
283.8426972778872
 20
272.39364170689026
  0
LWPOLYLINE
  5
94
330
17
100
AcDbEntity
  8
PASS_04
100
AcDbPolyline
 90
3
 70
1
 10
189.8453156724846
 20
100.08065505983802
 10
189.7226414780756
 20
100.27470146422031
 10
189.61152550843872
 20
100.125
  0
LWPOLYLINE
  5
95
330
17
100
AcDbEntity
  8
PASS_04
100
AcDbPolyline
 90
3
 70
1
 10
189.93804363363367
 20
100.56490293740767
 10
190.76036160422186
 20
101.125
 10
192.25
 20
103.67969601701293
  0
LWPOLYLINE
  5
96
330
17
100
AcDbEntity
  8
PASS_04
100
AcDbPolyline
 90
3
 70
1
 10
203.5
 20
99.57779644662345
 10
206.77070559037674
 20
98.8944860903812
 10
206.75
 20
98.93407274205505
  0
LWPOLYLINE
  5
97
330
17
100
AcDbEntity
  8
PASS_04
100
AcDbPolyline
 90
3
 70
1
 10
206.83398119400056
 20
98.77351058403094
 10
206.19897771228594
 20
96.625
 10
207.04242006328727
 20
98.375
  0
LWPOLYLINE
  5
98
330
17
100
AcDbEntity
  8
PASS_04
100
AcDbPolyline
 90
3
 70
1
 10
204.38925339169845
 20
96.39829234951621
 10
204.75
 20
96.15407633852773
 10
206.19897771228594
 20
96.625
  0
LWPOLYLINE
  5
99
330
17
100
AcDbEntity
  8
PASS_04
100
AcDbPolyline
 90
3
 70
1
 10
204.1949864673517
 20
96.52980597220649
 10
204.13603638108063
 20
97.625
 10
204.05436946800725
 20
96.625
  0
LWPOLYLINE
  5
9A
330
17
100
AcDbEntity
  8
PASS_04
100
AcDbPolyline
 90
3
 70
1
 10
196.75
 20
98.7709857048822
 10
191.5
 20
100.00999993467174
 10
190.70442702332457
 20
99.91770020841838
  0
LWPOLYLINE
  5
9B
330
17
100
AcDbEntity
  8
PASS_04
100
AcDbPolyline
 90
3
 70
1
 10
220.58640042805877
 20
116.48851723343937
 10
220.5404483819777
 20
116.12101767806132
 10
220.65845498669637
 20
116.375
  0
LWPOLYLINE
  5
9C
330
17
100
AcDbEntity
  8
PASS_04
100
AcDbPolyline
 90
3
 70
1
 10
220.34199291348116
 20
115.69388751182734
 10
220.16482865902606
 20
115.57767529090859
 10
220.25
 20
115.49589373153378
  0
LWPOLYLINE
  5
9D
330
17
100
AcDbEntity
  8
PASS_04
100
AcDbPolyline
 90
4
 70
1
 10
216.1393530701129
 20
118.375
 10
216.6712681222422
 20
117.7878229754276
 10
215.75993614922353
 20
120.86471838398893
 10
215.7260239916551
 20
120.875
  0
LWPOLYLINE
  5
9E
330
17
100
AcDbEntity
  8
PASS_04
100
AcDbPolyline
 90
3
 70
1
 10
220.49153344900208
 20
143.375
 10
220.4944082591104
 20
143.38532217076175
 10
220.45569165456945
 20
143.3501841915173
  0
LWPOLYLINE
  5
9F
330
17
100
AcDbEntity
  8
PASS_04
100
AcDbPolyline
 90
3
 70
1
 10
220.15009911979294
 20
146.125
 10
219.59005704575543
 20
149.250314534752
 10
219.5
 20
149.15576317918345
  0
LWPOLYLINE
  5
A0
330
17
100
AcDbEntity
  8
PASS_04
100
AcDbPolyline
 90
3
 70
1
 10
223.25
 20
152.10471005852776
 10
224.5
 20
152.42629091212308
 10
225.3228303673153
 20
153.16811497729176
  0
LWPOLYLINE
  5
A1
330
17
100
AcDbEntity
  8
PASS_04
100
AcDbPolyline
 90
3
 70
1
 10
226.7688098291968
 20
153.9099323958527
 10
227.00351074706927
 20
153.92231889347485
 10
227.0
 20
154.02853774276318
  0
LWPOLYLINE
  5
A2
330
17
100
AcDbEntity
  8
PASS_04
100
AcDbPolyline
 90
3
 70
1
 10
224.97548270256954
 20
149.08650463466404
 10
225.0
 20
149.04102177705084
 10
225.16569535977524
 20
148.99060132197042
  0
LWPOLYLINE
  5
A3
330
17
100
AcDbEntity
  8
PASS_04
100
AcDbPolyline
 90
3
 70
1
 10
226.20236658909263
 20
148.46792209270032
 10
225.58031713669212
 20
147.875
 10
226.38666635590164
 20
148.375
  0
LWPOLYLINE
  5
A4
330
17
100
AcDbEntity
  8
PASS_04
100
AcDbPolyline
 90
3
 70
1
 10
226.09556389474866
 20
146.18513901558708
 10
226.12083993179607
 20
146.375
 10
225.58031713669212
 20
147.875
  0
LWPOLYLINE
  5
A5
330
17
100
AcDbEntity
  8
PASS_04
100
AcDbPolyline
 90
3
 70
1
 10
226.02620276118938
 20
145.6641327726834
 10
225.46484950207258
 20
142.71412384633652
 10
225.65488780403555
 20
142.875
  0
LWPOLYLINE
  5
A6
330
17
100
AcDbEntity
  8
PASS_04
100
AcDbPolyline
 90
3
 70
1
 10
222.38388706069128
 20
140.10594758906996
 10
221.7860745884838
 20
140.5522996622632
 10
222.25
 20
139.99260604093553
  0
LWPOLYLINE
  5
A7
330
17
100
AcDbEntity
  8
PASS_04
100
AcDbPolyline
 90
3
 70
1
 10
221.43200106096805
 20
140.97946465454913
 10
222.2268408038815
 20
142.0422346023615
 10
221.31136801736056
 20
141.125
  0
LWPOLYLINE
  5
A8
330
17
100
AcDbEntity
  8
PASS_04
100
AcDbPolyline
 90
3
 70
1
 10
223.06755462277437
 20
143.875
 10
220.63245338321747
 20
142.625
 10
220.58231728478754
 20
142.53142601766976
  0
LWPOLYLINE
  5
A9
330
17
100
AcDbEntity
  8
PASS_04
100
AcDbPolyline
 90
3
 70
1
 10
220.45020479167525
 20
142.2848513442662
 10
220.09897107660572
 20
141.62930896109447
 10
220.25
 20
141.4724075029481
  0
LWPOLYLINE
  5
AA
330
17
100
AcDbEntity
  8
PASS_04
100
AcDbPolyline
 90
3
 70
1
 10
219.69924586093728
 20
142.0445768964456
 10
219.4859545034454
 20
142.47008108607292
 10
219.38118989011343
 20
142.375
  0
LWPOLYLINE
  5
AB
330
17
100
AcDbEntity
  8
PASS_04
100
AcDbPolyline
 90
3
 70
1
 10
191.75
 20
173.90445833196463
 10
192.21282899806454
 20
176.96831955126578
 10
192.06440944909852
 20
176.875
  0
LWPOLYLINE
  5
AC
330
17
100
AcDbEntity
  8
PASS_04
100
AcDbPolyline
 90
3
 70
1
 10
192.3524322785198
 20
177.05609582856943
 10
193.25
 20
176.52264046392048
 10
192.5
 20
177.14887978894245
  0
LWPOLYLINE
  5
AD
330
17
100
AcDbEntity
  8
PASS_04
100
AcDbPolyline
 90
3
 70
1
 10
197.76497437838105
 20
179.375
 10
198.21989831290267
 20
181.70224954272183
 10
198.0
 20
181.77101245900423
  0
LWPOLYLINE
  5
AE
330
17
100
AcDbEntity
  8
PASS_04
100
AcDbPolyline
 90
3
 70
1
 10
200.07808908435422
 20
181.12118725639772
 10
201.63014841942302
 20
180.49712241179506
 10
201.5
 20
180.67655109724333
  0
LWPOLYLINE
  5
AF
330
17
100
AcDbEntity
  8
PASS_04
100
AcDbPolyline
 90
3
 70
1
 10
192.37480429424
 20
167.66528488307455
 10
192.0288863681699
 20
166.875
 10
192.25692390353382
 20
166.55178806861267
  0
LWPOLYLINE
  5
B0
330
17
100
AcDbEntity
  8
PASS_04
100
AcDbPolyline
 90
3
 70
1
 10
192.38719516745147
 20
166.36714641850932
 10
192.82658433184235
 20
165.74437253952135
 10
192.95345597548365
 20
165.875
  0
LWPOLYLINE
  5
B1
330
17
100
AcDbEntity
  8
PASS_04
100
AcDbPolyline
 90
3
 70
1
 10
192.25
 20
165.1507194200481
 10
190.01009262882917
 20
167.47088354227807
 10
190.0
 20
167.37567972866913
  0
LWPOLYLINE
  5
B2
330
17
100
AcDbEntity
  8
PASS_04
100
AcDbPolyline
 90
3
 70
1
 10
217.5805221549715
 20
190.15934455218363
 10
217.9135800115076
 20
190.625
 10
217.837160819901
 20
190.73138731071222
  0
LWPOLYLINE
  5
B3
330
17
100
AcDbEntity
  8
PASS_04
100
AcDbPolyline
 90
3
 70
1
 10
215.63900646355313
 20
189.80271844263046
 10
217.0
 20
189.34770387553957
 10
217.0819420655545
 20
189.46226886321952
  0
LWPOLYLINE
  5
B4
330
17
100
AcDbEntity
  8
PASS_04
100
AcDbPolyline
 90
3
 70
1
 10
213.52641097482132
 20
192.625
 10
214.67503047636595
 20
190.125
 10
214.70143122806508
 20
190.11617356087038
  0
LWPOLYLINE
  5
B5
330
17
100
AcDbEntity
  8
PASS_04
100
AcDbPolyline
 90
3
 70
1
 10
215.40240045002597
 20
194.97219781103118
 10
215.25
 20
195.00705991924372
 10
213.52641097482132
 20
192.625
  0
LWPOLYLINE
  5
B6
330
17
100
AcDbEntity
  8
PASS_04
100
AcDbPolyline
 90
3
 70
1
 10
216.02398238522414
 20
194.6773896227613
 10
216.0
 20
194.8354949326905
 10
215.75477812137183
 20
194.89159025043637
  0
LWPOLYLINE
  5
B7
330
17
100
AcDbEntity
  8
PASS_04
100
AcDbPolyline
 90
3
 70
1
 10
216.43326973049622
 20
192.625
 10
216.73689093097346
 20
192.26313283274237
 10
216.4195442280372
 20
192.70492842857337
  0
LWPOLYLINE
  5
B8
330
17
100
AcDbEntity
  8
PASS_04
100
AcDbPolyline
 90
4
 70
1
 10
235.39717341888317
 20
195.98606555249154
 10
235.25075883849468
 20
195.875
 10
235.52000677417504
 20
194.25626107148148
 10
235.61162990771152
 20
194.375
  0
LWPOLYLINE
  5
B9
330
17
100
AcDbEntity
  8
PASS_04
100
AcDbPolyline
 90
3
 70
1
 10
236.74991552108247
 20
198.9334730759745
 10
236.0
 20
199.36563586288037
 10
235.00416784047894
 20
199.16017093343203
  0
LWPOLYLINE
  5
BA
330
17
100
AcDbEntity
  8
PASS_04
100
AcDbPolyline
 90
3
 70
1
 10
237.27385838099164
 20
198.30830733908516
 10
237.28519702730736
 20
198.625
 10
237.07030736157432
 20
198.74883703791917
  0
LWPOLYLINE
  5
BB
330
17
100
AcDbEntity
  8
PASS_04
100
AcDbPolyline
 90
3
 70
1
 10
236.25
 20
197.9158749678005
 10
237.25
 20
197.64193377464218
 10
237.25860215163493
 20
197.88219510875584
  0
LWPOLYLINE
  5
BC
330
17
100
AcDbEntity
  8
PASS_04
100
AcDbPolyline
 90
3
 70
1
 10
200.26883291393509
 20
234.375
 10
199.15885554938973
 20
236.125
 10
200.24137284297265
 20
234.34936851185975
  0
LWPOLYLINE
  5
BD
330
17
100
AcDbEntity
  8
PASS_04
100
AcDbPolyline
 90
3
 70
1
 10
195.9853598770577
 20
234.4009470377483
 10
197.75
 20
234.7873435788981
 10
196.0
 20
234.44336033232037
  0
LWPOLYLINE
  5
BE
330
17
100
AcDbEntity
  8
PASS_04
100
AcDbPolyline
 90
3
 70
1
 10
194.25
 20
230.2864678363014
 10
194.3051701343747
 20
230.42597564459948
 10
194.15511730097845
 20
230.34672188897687
  0
LWPOLYLINE
  5
BF
330
17
100
AcDbEntity
  8
PASS_04
100
AcDbPolyline
 90
3
 70
1
 10
190.0
 20
231.09055973384605
 10
192.0
 20
230.65303093684787
 10
189.8641676335783
 20
231.31959760477991
  0
LWPOLYLINE
  5
C0
330
17
100
AcDbEntity
  8
PASS_04
100
AcDbPolyline
 90
3
 70
1
 10
186.56601923424458
 20
100.23430947936619
 10
186.0858587087094
 20
99.81464641639185
 10
186.66737298485592
 20
100.125
  0
LWPOLYLINE
  5
C1
330
17
100
AcDbEntity
  8
PASS_04
100
AcDbPolyline
 90
4
 70
1
 10
181.89038384284052
 20
100.52301086094812
 10
185.5
 20
99.50197421349964
 10
185.62476456000434
 20
99.56856093353896
 10
183.0
 20
100.56319433037646
  0
LWPOLYLINE
  5
C2
330
17
100
AcDbEntity
  8
PASS_04
100
AcDbPolyline
 90
3
 70
1
 10
180.83027301769175
 20
100.8228798652152
 10
180.75854568206935
 20
100.96323231044674
 10
180.64601549755014
 20
100.875
  0
LWPOLYLINE
  5
C3
330
17
100
AcDbEntity
  8
PASS_04
100
AcDbPolyline
 90
3
 70
1
 10
183.5
 20
101.39174758314178
 10
185.06694256497275
 20
101.85105567040246
 10
185.0
 20
101.92325286962273
  0
LWPOLYLINE
  5
C4
330
17
100
AcDbEntity
  8
PASS_04
100
AcDbPolyline
 90
3
 70
1
 10
204.0
 20
106.5677723802568
 10
204.5
 20
102.98816163410305
 10
205.9098930909147
 20
99.875
  0
LWPOLYLINE
  5
C5
330
17
100
AcDbEntity
  8
PASS_04
100
AcDbPolyline
 90
3
 70
1
 10
203.71870900143554
 20
100.83538583032751
 10
205.25
 20
99.69798216873548
 10
205.9098930909147
 20
99.875
  0
LWPOLYLINE
  5
C6
330
17
100
AcDbEntity
  8
PASS_04
100
AcDbPolyline
 90
3
 70
1
 10
203.2992069978775
 20
101.01925161410423
 10
202.75
 20
101.2599664957113
 10
200.75
 20
101.29112169398717
  0
LWPOLYLINE
  5
C7
330
17
100
AcDbEntity
  8
PASS_04
100
AcDbPolyline
 90
3
 70
1
 10
102.97252183643653
 20
143.625
 10
103.97754737794527
 20
139.875
 10
103.99922802753407
 20
139.8512165640092
  0
LWPOLYLINE
  5
C8
330
17
100
AcDbEntity
  8
PASS_04
100
AcDbPolyline
 90
3
 70
1
 10
107.75
 20
137.72118794005488
 10
110.51860405866445
 20
134.66722093673863
 10
110.5
 20
134.71386256886169
  0
LWPOLYLINE
  5
C9
330
17
100
AcDbEntity
  8
PASS_04
100
AcDbPolyline
 90
3
 70
1
 10
113.42726955611754
 20
127.375
 10
115.3979306890052
 20
124.91857758295451
 10
115.51403725955298
 20
125.125
  0
LWPOLYLINE
  5
CA
330
17
100
AcDbEntity
  8
PASS_04
100
AcDbPolyline
 90
3
 70
1
 10
115.36069460142251
 20
124.85237665079478
 10
114.7773630946858
 20
125.10792757876018
 10
115.25
 20
124.65557601262489
  0
LWPOLYLINE
  5
CB
330
17
100
AcDbEntity
  8
PASS_04
100
AcDbPolyline
 90
3
 70
1
 10
103.5
 20
137.36697786369191
 10
104.71690872322826
 20
137.625
 10
103.49321193022898
 20
137.38005995188976
  0
LWPOLYLINE
  5
CC
330
17
100
AcDbEntity
  8
PASS_04
100
AcDbPolyline
 90
3
 70
1
 10
104.5
 20
138.13951262090762
 10
104.32942727365138
 20
138.16660374740596
 10
104.71690872322826
 20
137.625
  0
LWPOLYLINE
  5
CD
330
17
100
AcDbEntity
  8
PASS_04
100
AcDbPolyline
 90
4
 70
1
 10
99.21391731587151
 20
141.59180598748264
 10
100.0
 20
141.20627132593955
 10
101.2640637439958
 20
141.36944270792395
 10
101.25
 20
141.40884406220403
  0
LWPOLYLINE
  5
CE
330
17
100
AcDbEntity
  8
PASS_04
100
AcDbPolyline
 90
3
 70
1
 10
98.5
 20
141.6559584345418
 10
98.96702158735337
 20
140.125
 10
98.68094225374853
 20
141.63969900491836
  0
LWPOLYLINE
  5
CF
330
17
100
AcDbEntity
  8
PASS_04
100
AcDbPolyline
 90
3
 70
1
 10
100.5
 20
138.69415465163735
 10
103.0
 20
138.33058671268333
 10
100.32733992480587
 20
138.85531143205995
  0
LWPOLYLINE
  5
D0
330
17
100
AcDbEntity
  8
PASS_04
100
AcDbPolyline
 90
3
 70
1
 10
231.21530166224463
 20
243.06661265168813
 10
230.02570349615817
 20
241.9063003412613
 10
231.25
 20
242.8526356988253
  0
LWPOLYLINE
  5
D1
330
17
100
AcDbEntity
  8
PASS_04
100
AcDbPolyline
 90
3
 70
1
 10
229.99830422088644
 20
241.879575588903
 10
229.99361314580358
 20
241.875
 10
229.98934547030038
 20
241.8433507257559
  0
LWPOLYLINE
  5
D2
330
17
100
AcDbEntity
  8
PASS_04
100
AcDbPolyline
 90
3
 70
1
 10
229.56498313490695
 20
240.12743427326305
 10
225.25
 20
241.50531282883964
 10
229.5
 20
239.8646738418548
  0
LWPOLYLINE
  5
D3
330
17
100
AcDbEntity
  8
PASS_04
100
AcDbPolyline
 90
3
 70
1
 10
224.0
 20
235.67345375630308
 10
222.64838159612913
 20
235.6632377186852
 10
222.75
 20
235.5543375727808
  0
LWPOLYLINE
  5
D4
330
17
100
AcDbEntity
  8
PASS_04
100
AcDbPolyline
 90
3
 70
1
 10
222.51193406276732
 20
235.80946276971318
 10
222.6387318496532
 20
237.375
 10
222.21749561700318
 20
236.125
  0
LWPOLYLINE
  5
D5
330
17
100
AcDbEntity
  8
PASS_04
100
AcDbPolyline
 90
3
 70
1
 10
222.02435531497315
 20
243.61563744414033
 10
222.1666008799725
 20
244.08363754097536
 10
221.99882166240621
 20
243.875
  0
LWPOLYLINE
  5
D6
330
17
100
AcDbEntity
  8
PASS_04
100
AcDbPolyline
 90
3
 70
1
 10
223.99058189830293
 20
246.35180233498428
 10
224.91684339310885
 20
247.41280187228944
 10
224.8134026756637
 20
247.375
  0
LWPOLYLINE
  5
D7
330
17
100
AcDbEntity
  8
PASS_04
100
AcDbPolyline
 90
3
 70
1
 10
227.80147626642136
 20
248.46697595549517
 10
228.4485815411287
 20
248.25209235153423
 10
228.0
 20
248.5395254215905
  0
LWPOLYLINE
  5
D8
330
17
100
AcDbEntity
  8
PASS_04
100
AcDbPolyline
 90
3
 70
1
 10
76.40422856709954
 20
298.02040104627577
 10
76.05568635903496
 20
298.50919911495174
 10
76.25
 20
298.0721270090271
  0
LWPOLYLINE
  5
D9
330
17
100
AcDbEntity
  8
PASS_04
100
AcDbPolyline
 90
4
 70
1
 10
76.37801346385797
 20
301.4866460007173
 10
75.78191342669453
 20
299.125
 10
75.83080466983442
 20
299.01502831456247
 10
76.43679335252335
 20
301.375
  0
LWPOLYLINE
  5
DA
330
17
100
AcDbEntity
  8
PASS_04
100
AcDbPolyline
 90
3
 70
1
 10
75.09464399326379
 20
306.71338510878786
 10
75.23367594684477
 20
307.1472733274384
 10
75.0713842843495
 20
306.875
  0
LWPOLYLINE
  5
DB
330
17
100
AcDbEntity
  8
PASS_04
100
AcDbPolyline
 90
3
 70
1
 10
75.69217392516242
 20
307.9164857950474
 10
77.05075789226638
 20
307.4786933233359
 10
75.75
 20
308.0134993912276
  0
LWPOLYLINE
  5
DC
330
17
100
AcDbEntity
  8
PASS_04
100
AcDbPolyline
 90
3
 70
1
 10
77.60006471271818
 20
307.2528460519424
 10
78.5
 20
306.52362603501933
 10
77.75
 20
307.1912002207649
  0
LWPOLYLINE
  5
DD
330
17
100
AcDbEntity
  8
PASS_04
100
AcDbPolyline
 90
3
 70
1
 10
79.30920049868838
 20
303.875
 10
79.38944945594243
 20
303.78342205551365
 10
78.5
 20
306.52362603501933
  0
LWPOLYLINE
  5
DE
330
17
100
AcDbEntity
  8
PASS_04
100
AcDbPolyline
 90
3
 70
1
 10
90.55501403503615
 20
302.375
 10
92.75
 20
301.6448403478711
 10
92.88734545394321
 20
301.6658492924383
  0
LWPOLYLINE
  5
DF
330
17
100
AcDbEntity
  8
PASS_04
100
AcDbPolyline
 90
3
 70
1
 10
105.21348842275931
 20
303.5513085262518
 10
105.75
 20
303.63337561811625
 10
105.95255081799685
 20
304.08919786694554
  0
LWPOLYLINE
  5
E0
330
17
100
AcDbEntity
  8
PASS_04
100
AcDbPolyline
 90
3
 70
1
 10
105.0
 20
306.77496830568884
 10
104.55185442814896
 20
312.9033173271291
 10
104.54487068169092
 20
312.875
  0
LWPOLYLINE
  5
E1
330
17
100
AcDbEntity
  8
PASS_04
100
AcDbPolyline
 90
3
 70
1
 10
102.14834918424557
 20
321.125
 10
105.25
 20
322.26470450132047
 10
105.55580096510036
 20
322.51957102902406
  0
LWPOLYLINE
  5
E2
330
17
100
AcDbEntity
  8
PASS_04
100
AcDbPolyline
 90
3
 70
1
 10
106.56493219441757
 20
323.36062060625125
 10
107.18210902204335
 20
323.875
 10
107.32190757602828
 20
324.2439786445048
  0
LWPOLYLINE
  5
E3
330
17
100
AcDbEntity
  8
PASS_04
100
AcDbPolyline
 90
3
 70
1
 10
108.16862050909636
 20
326.47875848608874
 10
108.41346836280096
 20
327.125
 10
108.38307857433209
 20
327.24298371654623
  0
LWPOLYLINE
  5
E4
330
17
100
AcDbEntity
  8
PASS_04
100
AcDbPolyline
 90
3
 70
1
 10
115.33865125516728
 20
337.55187548473
 10
115.8963549064706
 20
337.7083459591765
 10
115.75
 20
337.82935563679916
  0
LWPOLYLINE
  5
E5
330
17
100
AcDbEntity
  8
PASS_04
100
AcDbPolyline
 90
3
 70
1
 10
118.67806618279435
 20
335.5700279623313
 10
118.75
 20
335.51181090568195
 10
120.75
 20
335.73801308073973
  0
LWPOLYLINE
  5
E6
330
17
100
AcDbEntity
  8
PASS_04
100
AcDbPolyline
 90
3
 70
1
 10
182.0
 20
308.68756189461055
 10
194.5
 20
307.69415241254455
 10
194.5985152741941
 20
307.7241014696594
  0
LWPOLYLINE
  5
E7
330
17
100
AcDbEntity
  8
PASS_04
100
AcDbPolyline
 90
3
 70
1
 10
215.8571266926152
 20
311.6849388643309
 10
220.25
 20
311.66491853657544
 10
216.0
 20
311.70161973835906
  0
LWPOLYLINE
  5
E8
330
17
100
AcDbEntity
  8
PASS_04
100
AcDbPolyline
 90
3
 70
1
 10
229.7683843763167
 20
311.40500158572064
 10
231.3330818901276
 20
312.30945370543196
 10
231.25
 20
312.51848716366607
  0
LWPOLYLINE
  5
E9
330
17
100
AcDbEntity
  8
PASS_04
100
AcDbPolyline
 90
3
 70
1
 10
199.0524847664063
 20
296.13736116006794
 10
198.86528875451074
 20
296.2092093408755
 10
199.0
 20
296.1078018293115
  0
LWPOLYLINE
  5
EA
330
17
100
AcDbEntity
  8
PASS_04
100
AcDbPolyline
 90
3
 70
1
 10
198.37264906358735
 20
296.5800571121417
 10
197.61952679592233
 20
299.125
 10
198.31294626341108
 20
296.625
  0
LWPOLYLINE
  5
EB
330
17
100
AcDbEntity
  8
PASS_04
100
AcDbPolyline
 90
3
 70
1
 10
137.5601495587535
 20
274.4984257588528
 10
137.30898080362712
 20
274.19855811314636
 10
137.7072826452856
 20
274.375
  0
LWPOLYLINE
  5
EC
330
17
100
AcDbEntity
  8
PASS_04
100
AcDbPolyline
 90
3
 70
1
 10
135.99974030298787
 20
270.4917369019592
 10
134.75
 20
269.66201528654904
 10
136.0
 20
270.42856500629387
  0
LWPOLYLINE
  5
ED
330
17
100
AcDbEntity
  8
PASS_04
100
AcDbPolyline
 90
3
 70
1
 10
130.58768647070744
 20
264.6140490948152
 10
130.4075264788675
 20
264.125
 10
130.38050527809438
 20
263.6142660528608
  0
LWPOLYLINE
  5
EE
330
17
100
AcDbEntity
  8
PASS_04
100
AcDbPolyline
 90
3
 70
1
 10
130.32942356608498
 20
262.6487588342789
 10
130.3017132627127
 20
262.125
 10
131.0171694035502
 20
261.125
  0
LWPOLYLINE
  5
EF
330
17
100
AcDbEntity
  8
PASS_04
100
AcDbPolyline
 90
3
 70
1
 10
130.60693842887818
 20
260.40095758009994
 10
130.75624716740148
 20
260.375
 10
131.0171694035502
 20
261.125
  0
LWPOLYLINE
  5
F0
330
17
100
AcDbEntity
  8
PASS_04
100
AcDbPolyline
 90
3
 70
1
 10
118.75
 20
257.58377587234156
 10
117.74555989859067
 20
258.456700065199
 10
118.01062337208994
 20
257.875
  0
LWPOLYLINE
  5
F1
330
17
100
AcDbEntity
  8
PASS_04
100
AcDbPolyline
 90
3
 70
1
 10
117.17234842747365
 20
258.9548583526463
 10
117.0
 20
259.1046404170338
 10
116.96413192528351
 20
258.82300866103805
  0
LWPOLYLINE
  5
F2
330
17
100
AcDbEntity
  8
PASS_04
100
AcDbPolyline
 90
3
 70
1
 10
117.5
 20
247.48018153672953
 10
115.75
 20
246.55438216135616
 10
115.70789007491311
 20
246.43326210690168
  0
LWPOLYLINE
  5
F3
330
17
100
AcDbEntity
  8
PASS_04
100
AcDbPolyline
 90
3
 70
1
 10
163.05322256701652
 20
297.21788971991106
 10
161.81052438597266
 20
296.875
 10
161.0
 20
295.941338440907
  0
LWPOLYLINE
  5
F4
330
17
100
AcDbEntity
  8
PASS_04
100
AcDbPolyline
 90
3
 70
1
 10
163.30592089405948
 20
297.375
 10
163.27843106465974
 20
297.70411421245984
 10
163.25467021723853
 20
297.3431358864369
  0
LWPOLYLINE
  5
F5
330
17
100
AcDbEntity
  8
PASS_04
100
AcDbPolyline
 90
3
 70
1
 10
163.13886746179185
 20
299.375
 10
162.79294282511194
 20
299.7836816913704
 10
163.15335793224932
 20
299.20151693819423
  0
LWPOLYLINE
  5
F6
330
17
100
AcDbEntity
  8
PASS_04
100
AcDbPolyline
 90
3
 70
1
 10
162.25
 20
300.4251242732398
 10
160.5
 20
301.0090070787793
 10
162.34219024032507
 20
300.316209037524
  0
LWPOLYLINE
  5
F7
330
17
100
AcDbEntity
  8
PASS_04
100
AcDbPolyline
 90
4
 70
1
 10
153.75
 20
296.9249121605103
 10
153.9707608542728
 20
296.8683072987878
 10
153.15075868369084
 20
298.03648623668767
 10
153.0384422337159
 20
297.875
  0
LWPOLYLINE
  5
F8
330
17
100
AcDbEntity
  8
PASS_04
100
AcDbPolyline
 90
3
 70
1
 10
280.19701413500155
 20
117.13631988706322
 10
279.6135224437698
 20
116.79612793276883
 10
280.04855527347127
 20
116.875
  0
LWPOLYLINE
  5
F9
330
17
100
AcDbEntity
  8
PASS_04
100
AcDbPolyline
 90
3
 70
1
 10
281.23861135478717
 20
120.875
 10
282.03694590533433
 20
120.375
 10
281.3807600845928
 20
120.99986346532769
  0
LWPOLYLINE
  5
FA
330
17
100
AcDbEntity
  8
PASS_04
100
AcDbPolyline
 90
3
 70
1
 10
282.0832197730759
 20
122.23873078502233
 10
282.0856823855334
 20
122.07474566077177
 10
282.1299355889184
 20
122.125
  0
LWPOLYLINE
  5
FB
330
17
100
AcDbEntity
  8
PASS_04
100
AcDbPolyline
 90
3
 70
1
 10
280.4076021591248
 20
126.125
 10
280.9779726770302
 20
124.92948160698488
 10
280.36288543121145
 20
126.42692640298277
  0
LWPOLYLINE
  5
FC
330
17
100
AcDbEntity
  8
PASS_04
100
AcDbPolyline
 90
3
 70
1
 10
280.00023455144355
 20
128.87553748828174
 10
280.001470318111
 20
128.86719361782818
 10
280.00113571208044
 20
128.875
  0
LWPOLYLINE
  5
FD
330
17
100
AcDbEntity
  8
PASS_04
100
AcDbPolyline
 90
3
 70
1
 10
264.8900990610426
 20
136.99440804334256
 10
265.67048748431125
 20
137.06907474787812
 10
265.0
 20
137.12523265651438
  0
LWPOLYLINE
  5
FE
330
17
100
AcDbEntity
  8
PASS_04
100
AcDbPolyline
 90
3
 70
1
 10
263.7933816841959
 20
134.125
 10
264.66456484427596
 20
136.72593511722005
 10
264.1597413861074
 20
136.125
  0
LWPOLYLINE
  5
FF
330
17
100
AcDbEntity
  8
PASS_04
100
AcDbPolyline
 90
3
 70
1
 10
259.0
 20
127.28579277657147
 10
261.0441778412603
 20
132.125
 10
258.9687994004922
 20
127.26261146628744
  0
LWPOLYLINE
  5
100
330
17
100
AcDbEntity
  8
PASS_04
100
AcDbPolyline
 90
3
 70
1
 10
258.0
 20
126.54281633862696
 10
258.6033785985394
 20
126.99111242050172
 10
257.8177782749799
 20
126.64814782758577
  0
LWPOLYLINE
  5
101
330
17
100
AcDbEntity
  8
PASS_04
100
AcDbPolyline
 90
3
 70
1
 10
256.25
 20
127.55438675185619
 10
256.9625313460337
 20
127.14251496434414
 10
256.1345548067811
 20
127.69342429875954
  0
LWPOLYLINE
  5
102
330
17
100
AcDbEntity
  8
PASS_04
100
AcDbPolyline
 90
3
 70
1
 10
254.73831446691918
 20
129.375
 10
255.68955157314173
 20
128.22936829299724
 10
254.7024803762116
 20
129.64874696066846
  0
LWPOLYLINE
  5
103
330
17
100
AcDbEntity
  8
PASS_04
100
AcDbPolyline
 90
3
 70
1
 10
256.25
 20
148.16185787596
 10
256.2239886189577
 20
148.1275329219884
 10
257.75
 20
148.39596868447285
  0
LWPOLYLINE
  5
104
330
17
100
AcDbEntity
  8
PASS_04
100
AcDbPolyline
 90
3
 70
1
 10
262.522455678504
 20
153.125
 10
262.01371261665145
 20
151.86315049759926
 10
262.052599392262
 20
151.875
  0
LWPOLYLINE
  5
105
330
17
100
AcDbEntity
  8
PASS_04
100
AcDbPolyline
 90
3
 70
1
 10
265.5
 20
156.38534380557206
 10
265.49451718436546
 20
156.37551230648089
 10
269.25
 20
156.5922888440473
  0
LWPOLYLINE
  5
106
330
17
100
AcDbEntity
  8
PASS_04
100
AcDbPolyline
 90
3
 70
1
 10
281.5
 20
170.5775716253031
 10
279.4001664741455
 20
168.125
 10
281.62863529992944
 20
170.4761139311379
  0
LWPOLYLINE
  5
107
330
17
100
AcDbEntity
  8
PASS_04
100
AcDbPolyline
 90
3
 70
1
 10
311.317368820149
 20
127.625
 10
304.25
 20
131.7803492410095
 10
310.72296892130584
 20
127.625
  0
LWPOLYLINE
  5
108
330
17
100
AcDbEntity
  8
PASS_04
100
AcDbPolyline
 90
3
 70
1
 10
313.7668301354043
 20
128.18300997887533
 10
312.36887751849997
 20
127.625
 10
312.74003613152075
 20
127.625
  0
LWPOLYLINE
  5
109
330
17
100
AcDbEntity
  8
PASS_04
100
AcDbPolyline
 90
3
 70
1
 10
229.25
 20
174.9825620820702
 10
229.43435155473432
 20
174.9416159209329
 10
229.12089948348535
 20
175.13912111676518
  0
LWPOLYLINE
  5
10A
330
17
100
AcDbEntity
  8
PASS_04
100
AcDbPolyline
 90
3
 70
1
 10
224.71455213441794
 20
194.625
 10
225.09689850311167
 20
190.125
 10
224.77912512916276
 20
194.8906181024077
  0
LWPOLYLINE
  5
10B
330
17
100
AcDbEntity
  8
PASS_04
100
AcDbPolyline
 90
3
 70
1
 10
225.25
 20
196.82754065273295
 10
225.227833833937
 20
196.73636112806363
 10
225.4062844972066
 20
196.7155900483268
  0
LWPOLYLINE
  5
10C
330
17
100
AcDbEntity
  8
PASS_04
100
AcDbPolyline
 90
3
 70
1
 10
244.03240399323522
 20
193.875
 10
243.86522737596533
 20
197.125
 10
244.01293891203204
 20
193.82441456023764
  0
LWPOLYLINE
  5
10D
330
17
100
AcDbEntity
  8
PASS_04
100
AcDbPolyline
 90
3
 70
1
 10
234.89779447161058
 20
180.375
 10
234.85843357001914
 20
180.45723727390984
 10
234.83168038745737
 20
180.37021689752314
  0
LWPOLYLINE
  5
10E
330
17
100
AcDbEntity
  8
PASS_04
100
AcDbPolyline
 90
3
 70
1
 10
228.03173428943148
 20
169.875
 10
230.25
 20
166.18529362880886
 10
228.1295691184869
 20
169.99717972694776
  0
LWPOLYLINE
  5
10F
330
17
100
AcDbEntity
  8
PASS_04
100
AcDbPolyline
 90
3
 70
1
 10
230.24314582864832
 20
172.6366919315883
 10
228.82601693045905
 20
170.86692932759286
 10
229.86889901871444
 20
171.875
  0
LWPOLYLINE
  5
110
330
17
100
AcDbEntity
  8
PASS_04
100
AcDbPolyline
 90
3
 70
1
 10
230.75814023652637
 20
174.52640100001983
 10
230.80722479019823
 20
173.78474284982374
 10
230.97440544123273
 20
174.125
  0
LWPOLYLINE
  5
111
330
17
100
AcDbEntity
  8
PASS_04
100
AcDbPolyline
 90
3
 70
1
 10
229.9749421040108
 20
174.82154583108806
 10
230.6839706556261
 20
174.66406412518526
 10
230.5
 20
175.0055245336818
  0
LWPOLYLINE
  5
112
330
17
100
AcDbEntity
  8
PASS_04
100
AcDbPolyline
 90
3
 70
1
 10
120.18367761677013
 20
114.19835785415847
 10
120.2220915060303
 20
114.375
 10
120.09125324509512
 20
114.46342401880236
  0
LWPOLYLINE
  5
113
330
17
100
AcDbEntity
  8
PASS_04
100
AcDbPolyline
 90
3
 70
1
 10
121.21947883224621
 20
127.91760801805995
 10
121.25
 20
127.91633898666839
 10
121.34436814156054
 20
128.22068726629078
  0
LWPOLYLINE
  5
114
330
17
100
AcDbEntity
  8
PASS_04
100
AcDbPolyline
 90
3
 70
1
 10
121.66990979199281
 20
129.27059711527224
 10
121.70228160699877
 20
129.375
 10
121.62285878469233
 20
129.41605254985197
  0
LWPOLYLINE
  5
115
330
17
100
AcDbEntity
  8
PASS_04
100
AcDbPolyline
 90
3
 70
1
 10
120.15278335067961
 20
130.17591405172737
 10
120.0
 20
130.25488563619368
 10
119.12615583775123
 20
129.625
  0
LWPOLYLINE
  5
116
330
17
100
AcDbEntity
  8
PASS_04
100
AcDbPolyline
 90
3
 70
1
 10
160.85828439927414
 20
120.82071086889677
 10
161.0
 20
120.67563603089296
 10
163.0
 20
120.88518020422529
  0
LWPOLYLINE
  5
117
330
17
100
AcDbEntity
  8
PASS_04
100
AcDbPolyline
 90
3
 70
1
 10
187.07194641215918
 20
119.95050605322513
 10
188.0
 20
119.83967382729293
 10
188.78637788185262
 20
120.15866886648863
  0
LWPOLYLINE
  5
118
330
17
100
AcDbEntity
  8
PASS_04
100
AcDbPolyline
 90
3
 70
1
 10
191.14731358410404
 20
120.445328920508
 10
191.80210926432218
 20
120.39648364257506
 10
191.75
 20
120.51850589028857
  0
LWPOLYLINE
  5
119
330
17
100
AcDbEntity
  8
PASS_04
100
AcDbPolyline
 90
3
 70
1
 10
190.75
 20
118.75286030315777
 10
188.64992102989302
 20
116.22920562846184
 10
189.25
 20
116.5500393923003
  0
LWPOLYLINE
  5
11A
330
17
100
AcDbEntity
  8
PASS_04
100
AcDbPolyline
 90
3
 70
1
 10
188.33769789164475
 20
116.0622747250446
 10
183.75
 20
116.43619603138481
 10
188.0
 20
115.88172367924243
  0
LWPOLYLINE
  5
11B
330
17
100
AcDbEntity
  8
PASS_04
100
AcDbPolyline
 90
3
 70
1
 10
176.761318272871
 20
110.12874281453382
 10
175.3025512631567
 20
109.375
 10
175.51610470912237
 20
109.20808859538701
  0
LWPOLYLINE
  5
11C
330
17
100
AcDbEntity
  8
PASS_04
100
AcDbPolyline
 90
3
 70
1
 10
176.74704758037453
 20
108.245994995305
 10
176.9425588487615
 20
108.09318519035631
 10
176.9319558957446
 20
108.125
  0
LWPOLYLINE
  5
11D
330
17
100
AcDbEntity
  8
PASS_04
100
AcDbPolyline
 90
3
 70
1
 10
177.42640587530144
 20
106.64137256593844
 10
177.5
 20
106.39855031093006
 10
177.51049504825076
 20
106.38905785453524
  0
LWPOLYLINE
  5
11E
330
17
100
AcDbEntity
  8
PASS_04
100
AcDbPolyline
 90
3
 70
1
 10
177.63875293999655
 20
106.2730524379238
 10
178.75
 20
105.26796279860957
 10
178.82352861009514
 20
105.29561262217914
  0
LWPOLYLINE
  5
11F
330
17
100
AcDbEntity
  8
PASS_04
100
AcDbPolyline
 90
3
 70
1
 10
183.3877945522052
 20
106.97722080315854
 10
183.596987031937
 20
106.79999780832507
 10
183.5
 20
106.95129648894671
  0
LWPOLYLINE
  5
120
330
17
100
AcDbEntity
  8
PASS_04
100
AcDbPolyline
 90
3
 70
1
 10
188.71674622366308
 20
102.85955815156663
 10
188.75
 20
102.35618276419717
 10
188.75
 20
102.83299096409418
  0
LWPOLYLINE
  5
121
330
17
100
AcDbEntity
  8
PASS_04
100
AcDbPolyline
 90
3
 70
1
 10
204.33863546733102
 20
95.97643781683465
 10
204.5
 20
95.83701278062642
 10
204.70178001738057
 20
95.89609429867494
  0
LWPOLYLINE
  5
122
330
17
100
AcDbEntity
  8
PASS_04
100
AcDbPolyline
 90
3
 70
1
 10
207.0420404313281
 20
96.58132636317657
 10
207.19119819653767
 20
96.625
 10
207.47081510625108
 20
97.31869071575724
  0
LWPOLYLINE
  5
123
330
17
100
AcDbEntity
  8
PASS_04
100
AcDbPolyline
 90
3
 70
1
 10
207.87980630415228
 20
98.33334107113551
 10
207.9973698905272
 20
98.625
 10
207.00567033534986
 20
101.375
  0
LWPOLYLINE
  5
124
330
17
100
AcDbEntity
  8
PASS_04
100
AcDbPolyline
 90
3
 70
1
 10
207.38758365745122
 20
105.875
 10
208.2302736895784
 20
107.125
 10
208.14931929433519
 20
107.26420133476826
  0
LWPOLYLINE
  5
125
330
17
100
AcDbEntity
  8
PASS_04
100
AcDbPolyline
 90
3
 70
1
 10
215.5
 20
98.72859463176364
 10
220.5
 20
99.37193272460112
 10
220.49895332208095
 20
99.37432873504375
  0
LWPOLYLINE
  5
126
330
17
100
AcDbEntity
  8
PASS_04
100
AcDbPolyline
 90
3
 70
1
 10
108.74727806283028
 20
168.8463933418178
 10
108.71712732989367
 20
168.95169042117234
 10
108.64147616516043
 20
168.875
  0
LWPOLYLINE
  5
127
330
17
100
AcDbEntity
  8
PASS_04
100
AcDbPolyline
 90
3
 70
1
 10
108.03156666231158
 20
172.16973168019976
 10
107.81017167577923
 20
172.5939700385214
 10
107.84655293584987
 20
172.375
  0
LWPOLYLINE
  5
128
330
17
100
AcDbEntity
  8
PASS_04
100
AcDbPolyline
 90
3
 70
1
 10
106.29402218576952
 20
201.875
 10
104.36834344317916
 20
215.875
 10
104.1096225103921
 20
217.23584597993678
  0
LWPOLYLINE
  5
129
330
17
100
AcDbEntity
  8
PASS_04
100
AcDbPolyline
 90
3
 70
1
 10
103.19765042025487
 20
222.03272708000313
 10
103.0375194144426
 20
222.875
 10
102.90672010420525
 20
222.8865899718623
  0
LWPOLYLINE
  5
12A
330
17
100
AcDbEntity
  8
PASS_04
100
AcDbPolyline
 90
3
 70
1
 10
100.32020972132328
 20
223.11577759146596
 10
100.25100234172032
 20
223.1219099753509
 10
100.25
 20
223.11551913609784
  0
LWPOLYLINE
  5
12B
330
17
100
AcDbEntity
  8
PASS_04
100
AcDbPolyline
 90
3
 70
1
 10
100.27280868899363
 20
223.26094525373443
 10
100.43641312869958
 20
223.65335242554352
 10
100.32990717734752
 20
223.625
  0
LWPOLYLINE
  5
12C
330
17
100
AcDbEntity
  8
PASS_04
100
AcDbPolyline
 90
3
 70
1
 10
307.2220707144133
 20
297.55715927834507
 10
307.5
 20
297.50538978958264
 10
307.7754793553365
 20
297.8590573021748
  0
LWPOLYLINE
  5
12D
330
17
100
AcDbEntity
  8
PASS_04
100
AcDbPolyline
 90
3
 70
1
 10
308.0283864559513
 20
298.1837459710665
 10
308.1773583991472
 20
298.375
 10
308.37109716092795
 20
300.625
  0
LWPOLYLINE
  5
12E
330
17
100
AcDbEntity
  8
PASS_04
100
AcDbPolyline
 90
3
 70
1
 10
338.0
 20
308.2743575657694
 10
342.5
 20
308.2479728552404
 10
342.52987560759607
 20
308.36727992074975
  0
LWPOLYLINE
  5
12F
330
17
100
AcDbEntity
  8
PASS_04
100
AcDbPolyline
 90
3
 70
1
 10
342.71764524109807
 20
309.1171305771037
 10
342.97002519242767
 20
310.125
 10
342.5
 20
314.1308801392417
  0
LWPOLYLINE
  5
130
330
17
100
AcDbEntity
  8
PASS_04
100
AcDbPolyline
 90
3
 70
1
 10
350.34872533494
 20
308.66460810248634
 10
350.5
 20
308.5956002834241
 10
351.10152814712166
 20
309.375
  0
LWPOLYLINE
  5
131
330
17
100
AcDbEntity
  8
PASS_04
100
AcDbPolyline
 90
3
 70
1
 10
376.0
 20
322.1522422917004
 10
376.2432666364089
 20
323.81382065342723
 10
376.0
 20
323.6719402722365
  0
LWPOLYLINE
  5
132
330
17
100
AcDbEntity
  8
PASS_04
100
AcDbPolyline
 90
4
 70
1
 10
378.0
 20
323.4757632196372
 10
378.15688778283754
 20
323.6386453817485
 10
376.75
 20
324.10936271315916
 10
376.30240359779435
 20
323.84831109875785
  0
LWPOLYLINE
  5
133
330
17
100
AcDbEntity
  8
PASS_04
100
AcDbPolyline
 90
3
 70
1
 10
387.1134261948899
 20
330.2426491578163
 10
387.25
 20
330.1940101337968
 10
387.40318763186247
 20
330.71758968176607
  0
LWPOLYLINE
  5
134
330
17
100
AcDbEntity
  8
PASS_04
100
AcDbPolyline
 90
3
 70
1
 10
387.6080774785807
 20
331.4178820749833
 10
387.7418199302994
 20
331.875
 10
386.57070794822437
 20
338.375
  0
LWPOLYLINE
  5
135
330
17
100
AcDbEntity
  8
PASS_04
100
AcDbPolyline
 90
4
 70
1
 10
374.8973328975344
 20
364.7311197620892
 10
374.9134400132659
 20
364.375
 10
375.75
 20
363.76338948888747
 10
375.8367081766851
 20
363.84390770833323
  0
LWPOLYLINE
  5
136
330
17
100
AcDbEntity
  8
PASS_04
100
AcDbPolyline
 90
3
 70
1
 10
374.88351984515816
 20
365.03651900351326
 10
375.14923649454215
 20
365.34633893280017
 10
374.86821052182444
 20
365.375
  0
LWPOLYLINE
  5
137
330
17
100
AcDbEntity
  8
PASS_04
100
AcDbPolyline
 90
3
 70
1
 10
379.4371136186187
 20
367.70814408363265
 10
379.6835010229239
 20
367.92455668491175
 10
379.4483440750431
 20
367.875
  0
LWPOLYLINE
  5
138
330
17
100
AcDbEntity
  8
PASS_04
100
AcDbPolyline
 90
3
 70
1
 10
380.2317530313444
 20
368.0400946363879
 10
380.931908677946
 20
367.5492922664454
 10
380.6346469335754
 20
368.125
  0
LWPOLYLINE
  5
139
330
17
100
AcDbEntity
  8
PASS_04
100
AcDbPolyline
 90
3
 70
1
 10
407.0
 20
367.98827331148505
 10
400.45810690489833
 20
360.625
 10
400.3953776050591
 20
360.4866130123263
  0
LWPOLYLINE
  5
13A
330
17
100
AcDbEntity
  8
PASS_04
100
AcDbPolyline
 90
3
 70
1
 10
399.2020806311984
 20
357.854082854395
 10
397.2850838753772
 20
353.625
 10
397.288196272947
 20
353.4480467218267
  0
LWPOLYLINE
  5
13B
330
17
100
AcDbEntity
  8
PASS_04
100
AcDbPolyline
 90
3
 70
1
 10
398.44072792912357
 20
348.375
 10
398.43447700018856
 20
346.875
 10
398.49855334257734
 20
346.82820917137457
  0
LWPOLYLINE
  5
13C
330
17
100
AcDbEntity
  8
PASS_04
100
AcDbPolyline
 90
3
 70
1
 10
404.9108230328296
 20
343.15025695649916
 10
405.0
 20
342.93917975165385
 10
405.12627337733966
 20
343.04289562124205
  0
LWPOLYLINE
  5
13D
330
17
100
AcDbEntity
  8
PASS_04
100
AcDbPolyline
 90
3
 70
1
 10
425.5
 20
353.50852049756895
 10
426.71204804847787
 20
349.875
 10
426.7359452611127
 20
349.8676290741687
  0
LWPOLYLINE
  5
13E
330
17
100
AcDbEntity
  8
PASS_04
100
AcDbPolyline
 90
3
 70
1
 10
428.3002937743686
 20
349.3851168648289
 10
428.5
 20
349.32351889523846
 10
428.7274841437696
 20
349.4526364644978
  0
LWPOLYLINE
  5
13F
330
17
100
AcDbEntity
  8
PASS_04
100
AcDbPolyline
 90
3
 70
1
 10
429.56560994084407
 20
349.9283477112624
 10
430.3525385830811
 20
350.375
 10
430.3291794710426
 20
350.51240703026946
  0
LWPOLYLINE
  5
140
330
17
100
AcDbEntity
  8
PASS_04
100
AcDbPolyline
 90
3
 70
1
 10
430.13325622816086
 20
351.66490079462005
 10
430.0550396415261
 20
352.125
 10
429.95344770924106
 20
352.20984763611784
  0
LWPOLYLINE
  5
141
330
17
100
AcDbEntity
  8
PASS_04
100
AcDbPolyline
 90
3
 70
1
 10
428.2535063867039
 20
364.127298663935
 10
429.5
 20
364.2534408029139
 10
428.25
 20
364.1612936498056
  0
LWPOLYLINE
  5
142
330
17
100
AcDbEntity
  8
PASS_04
100
AcDbPolyline
 90
3
 70
1
 10
435.64349319638404
 20
368.11024515025116
 10
435.729244285031
 20
368.125
 10
435.86498804778665
 20
368.3915595098938
  0
LWPOLYLINE
  5
143
330
17
100
AcDbEntity
  8
PASS_04
100
AcDbPolyline
 90
3
 70
1
 10
438.80825112976663
 20
372.82511618178387
 10
438.86161698060715
 20
372.875
 10
439.23623527894773
 20
374.125
  0
LWPOLYLINE
  5
144
330
17
100
AcDbEntity
  8
PASS_04
100
AcDbPolyline
 90
3
 70
1
 10
441.8264007523642
 20
375.82054839472113
 10
442.0
 20
375.90524035109956
 10
442.33758348011787
 20
376.55834519896314
  0
LWPOLYLINE
  5
145
330
17
100
AcDbEntity
  8
PASS_04
100
AcDbPolyline
 90
3
 70
1
 10
442.5503315739116
 20
376.9699376482793
 10
442.6304817802687
 20
377.125
 10
442.41696435300634
 20
378.875
  0
LWPOLYLINE
  5
146
330
17
100
AcDbEntity
  8
PASS_04
100
AcDbPolyline
 90
3
 70
1
 10
443.1824803198694
 20
379.87248171507895
 10
443.1160533512603
 20
379.875
 10
442.41696435300634
 20
378.875
  0
LWPOLYLINE
  5
147
330
17
100
AcDbEntity
  8
PASS_04
100
AcDbPolyline
 90
3
 70
1
 10
452.226541470574
 20
377.00556674568253
 10
452.75
 20
376.49368170909537
 10
453.3511933350176
 20
376.3600444767581
  0
LWPOLYLINE
  5
148
330
17
100
AcDbEntity
  8
PASS_04
100
AcDbPolyline
 90
3
 70
1
 10
530.0
 20
353.9335502944701
 10
536.235686140199
 20
349.6158084474691
 10
536.2309971041036
 20
349.625
  0
LWPOLYLINE
  5
149
330
17
100
AcDbEntity
  8
PASS_04
100
AcDbPolyline
 90
3
 70
1
 10
538.8425789573325
 20
336.7521298774127
 10
539.7510183210009
 20
335.64965030649375
 10
539.8747309830276
 20
335.875
  0
LWPOLYLINE
  5
14A
330
17
100
AcDbEntity
  8
PASS_04
100
AcDbPolyline
 90
3
 70
1
 10
531.5
 20
322.58130169912374
 10
528.25
 20
321.30446759126966
 10
528.1296549613418
 20
321.1568809644003
  0
LWPOLYLINE
  5
14B
330
17
100
AcDbEntity
  8
PASS_04
100
AcDbPolyline
 90
3
 70
1
 10
524.0399374106971
 20
316.73949194426507
 10
522.0563537087868
 20
315.2875589397033
 10
523.2552108483358
 20
315.875
  0
LWPOLYLINE
  5
14C
330
17
100
AcDbEntity
  8
PASS_04
100
AcDbPolyline
 90
4
 70
1
 10
517.1932483118748
 20
314.1367955097947
 10
517.25
 20
314.1157973798159
 10
520.7041950516546
 20
314.625
 10
521.6403211568654
 20
315.0837026207505
  0
LWPOLYLINE
  5
14D
330
17
100
AcDbEntity
  8
PASS_04
100
AcDbPolyline
 90
3
 70
1
 10
507.62703694091573
 20
316.2112572993666
 10
507.4177776215414
 20
316.125
 10
507.37979353272624
 20
315.9993289283338
  0
LWPOLYLINE
  5
14E
330
17
100
AcDbEntity
  8
PASS_04
100
AcDbPolyline
 90
3
 70
1
 10
506.5100414702447
 20
313.12173788467663
 10
506.1880526940862
 20
312.05643196773724
 10
506.24768312102543
 20
312.125
  0
LWPOLYLINE
  5
14F
330
17
100
AcDbEntity
  8
PASS_04
100
AcDbPolyline
 90
3
 70
1
 10
505.79891599813186
 20
311.6089701786408
 10
505.11054583480603
 20
311.06117595508823
 10
505.37802965465886
 20
311.125
  0
LWPOLYLINE
  5
150
330
17
100
AcDbEntity
  8
PASS_04
100
AcDbPolyline
 90
3
 70
1
 10
504.4957960865437
 20
310.91449113667863
 10
500.05529623759793
 20
311.375
 10
503.75
 20
310.73653748344907
  0
LWPOLYLINE
  5
151
330
17
100
AcDbEntity
  8
PASS_04
100
AcDbPolyline
 90
3
 70
1
 10
498.2877388541206
 20
312.74556764534225
 10
499.4064026718587
 20
313.7740276245382
 10
498.12081596278165
 20
312.875
  0
LWPOLYLINE
  5
152
330
17
100
AcDbEntity
  8
PASS_04
100
AcDbPolyline
 90
3
 70
1
 10
500.2242409335153
 20
314.52591921898494
 10
500.33201185994596
 20
314.625
 10
499.99472232128346
 20
315.35984490544115
  0
LWPOLYLINE
  5
153
330
17
100
AcDbEntity
  8
PASS_04
100
AcDbPolyline
 90
3
 70
1
 10
499.63393461107694
 20
316.14588473295066
 10
499.5
 20
316.4376849678539
 10
499.09326330266185
 20
315.6654869192554
  0
LWPOLYLINE
  5
154
330
17
100
AcDbEntity
  8
PASS_04
100
AcDbPolyline
 90
3
 70
1
 10
498.14612946742847
 20
314.8239386132121
 10
497.91768423231576
 20
314.75211584094023
 10
498.0
 20
314.69409951212333
  0
LWPOLYLINE
  5
155
330
17
100
AcDbEntity
  8
PASS_04
100
AcDbPolyline
 90
3
 70
1
 10
490.0
 20
349.4923355015343
 10
489.46048970241145
 20
350.9101649384048
 10
489.3884937322682
 20
350.375
  0
LWPOLYLINE
  5
156
330
17
100
AcDbEntity
  8
PASS_04
100
AcDbPolyline
 90
3
 70
1
 10
489.28106230762745
 20
351.38169892625064
 10
489.25
 20
351.46333046197503
 10
489.1914008473649
 20
351.3841812824333
  0
LWPOLYLINE
  5
157
330
17
100
AcDbEntity
  8
PASS_04
100
AcDbPolyline
 90
3
 70
1
 10
446.5703275373013
 20
308.65269851493787
 10
446.52313716471383
 20
308.625
 10
446.31868796016477
 20
308.3942866050706
  0
LWPOLYLINE
  5
158
330
17
100
AcDbEntity
  8
PASS_04
100
AcDbPolyline
 90
3
 70
1
 10
440.38194052391464
 20
301.69488584742777
 10
440.0984701728623
 20
301.375
 10
440.0694186645314
 20
301.25750948622954
  0
LWPOLYLINE
  5
159
330
17
100
AcDbEntity
  8
PASS_04
100
AcDbPolyline
 90
3
 70
1
 10
438.4849143195996
 20
294.8494349918817
 10
438.42941898787325
 20
294.625
 10
438.5419151748767
 20
294.26821993342503
  0
LWPOLYLINE
  5
15A
330
17
100
AcDbEntity
  8
PASS_04
100
AcDbPolyline
 90
3
 70
1
 10
466.51336599544067
 20
257.64441416516325
 10
465.21692409053685
 20
253.24564773027674
 10
466.0133137210086
 20
255.0
  0
LWPOLYLINE
  5
15B
330
17
100
AcDbEntity
  8
PASS_04
100
AcDbPolyline
 90
3
 70
1
 10
460.5
 20
239.02498833643716
 10
456.96817391753916
 20
235.96476701629283
 10
459.2720190229763
 20
237.625
  0
LWPOLYLINE
  5
15C
330
17
100
AcDbEntity
  8
PASS_04
100
AcDbPolyline
 90
3
 70
1
 10
455.24980453865345
 20
234.4758515129889
 10
454.556356966319
 20
233.875
 10
453.96399999118023
 20
233.11974142688445
  0
LWPOLYLINE
  5
15D
330
17
100
AcDbEntity
  8
PASS_04
100
AcDbPolyline
 90
3
 70
1
 10
171.76617842444662
 20
97.625
 10
169.6525850513517
 20
99.625
 10
171.7184457222201
 20
97.53392256151999
  0
LWPOLYLINE
  5
15E
330
17
100
AcDbEntity
  8
PASS_04
100
AcDbPolyline
 90
3
 70
1
 10
169.58522409504158
 20
101.04421608738117
 10
169.5
 20
101.15003625088697
 10
169.52612757727917
 20
100.88889990662776
  0
LWPOLYLINE
  5
15F
330
17
100
AcDbEntity
  8
PASS_04
100
AcDbPolyline
 90
4
 70
1
 10
173.2216653609037
 20
98.8375182991576
 10
173.18234101545812
 20
98.875
 10
171.26705523145205
 20
99.23704998915358
 10
171.5
 20
98.97068828957703
  0
LWPOLYLINE
  5
160
330
17
100
AcDbEntity
  8
PASS_04
100
AcDbPolyline
 90
3
 70
1
 10
174.5
 20
97.24120455034426
 10
174.86604264175844
 20
97.27019259761846
 10
173.32702892871487
 20
98.73709181567416
  0
LWPOLYLINE
  5
161
330
17
100
AcDbEntity
  8
PASS_04
100
AcDbPolyline
 90
3
 70
1
 10
173.9106006726228
 20
100.72447617809617
 10
173.97434567507182
 20
100.625
 10
174.14503416289782
 20
100.68366584031122
  0
LWPOLYLINE
  5
162
330
17
100
AcDbEntity
  8
PASS_04
100
AcDbPolyline
 90
3
 70
1
 10
173.22243378187645
 20
103.67126778659889
 10
173.0
 20
103.6941585182781
 10
172.53253057667033
 20
102.875
  0
LWPOLYLINE
  5
163
330
17
100
AcDbEntity
  8
PASS_04
100
AcDbPolyline
 90
3
 70
1
 10
178.2399025490774
 20
101.74205078310237
 10
178.0634916866864
 20
101.875
 10
175.0
 20
103.4883378782107
  0
LWPOLYLINE
  5
164
330
17
100
AcDbEntity
  8
PASS_04
100
AcDbPolyline
 90
3
 70
1
 10
178.60810883092344
 20
100.375
 10
178.7269437419431
 20
101.375
 10
178.46326453705834
 20
101.57371760347684
  0
LWPOLYLINE
  5
165
330
17
100
AcDbEntity
  8
PASS_04
100
AcDbPolyline
 90
3
 70
1
 10
201.25
 20
86.16724290252978
 10
200.9504383833442
 20
86.11225709633588
 10
201.34268578518711
 20
86.06357127827744
  0
LWPOLYLINE
  5
166
330
17
100
AcDbEntity
  8
PASS_04
100
AcDbPolyline
 90
3
 70
1
 10
196.96421883817467
 20
85.38056957974442
 10
197.0
 20
85.35063895038039
 10
197.72960645274446
 20
85.52105972500324
  0
LWPOLYLINE
  5
167
330
17
100
AcDbEntity
  8
PASS_04
100
AcDbPolyline
 90
3
 70
1
 10
246.75
 20
105.08927729553852
 10
243.02823995776643
 20
105.24806737044153
 10
249.34900440559198
 20
104.375
  0
LWPOLYLINE
  5
168
330
17
100
AcDbEntity
  8
PASS_04
100
AcDbPolyline
 90
3
 70
1
 10
242.0
 20
105.29193755499378
 10
241.66020031170913
 20
104.99497716964827
 10
242.13640988166716
 20
105.2861175840441
  0
LWPOLYLINE
  5
169
330
17
100
AcDbEntity
  8
PASS_04
100
AcDbPolyline
 90
3
 70
1
 10
234.16866960719148
 20
100.88360389166006
 10
234.44889365153645
 20
101.125
 10
234.58957426282112
 20
102.375
  0
LWPOLYLINE
  5
16A
330
17
100
AcDbEntity
  8
PASS_04
100
AcDbPolyline
 90
3
 70
1
 10
232.5987088472668
 20
100.0309322986875
 10
233.0
 20
99.87686553067958
 10
233.33423911504903
 20
100.16479236371212
  0
LWPOLYLINE
  5
16B
330
17
100
AcDbEntity
  8
PASS_04
100
AcDbPolyline
 90
3
 70
1
 10
225.5
 20
102.84243940120965
 10
225.355824411505
 20
102.81167587719
 10
229.74584668545117
 20
101.12622495552625
  0
LWPOLYLINE
  5
16C
330
17
100
AcDbEntity
  8
PASS_04
100
AcDbPolyline
 90
3
 70
1
 10
240.75
 20
150.2663285296303
 10
240.6897436656989
 20
150.22239697529108
 10
240.8232297634652
 20
150.25824674534377
  0
LWPOLYLINE
  5
16D
330
17
100
AcDbEntity
  8
PASS_04
100
AcDbPolyline
 90
3
 70
1
 10
242.3019675468464
 20
135.67575153142843
 10
241.33194500139751
 20
138.625
 10
241.83941934541613
 20
136.125
  0
LWPOLYLINE
  5
16E
330
17
100
AcDbEntity
  8
PASS_04
100
AcDbPolyline
 90
3
 70
1
 10
243.05366014330517
 20
135.125
 10
242.86902374874552
 20
135.125
 10
243.0
 20
134.99778973280326
  0
LWPOLYLINE
  5
16F
330
17
100
AcDbEntity
  8
PASS_04
100
AcDbPolyline
 90
3
 70
1
 10
243.25
 20
136.17298961120116
 10
243.122889146113
 20
135.28911883015056
 10
243.44439817951744
 20
136.05130930386872
  0
LWPOLYLINE
  5
170
330
17
100
AcDbEntity
  8
PASS_04
100
AcDbPolyline
 90
4
 70
1
 10
243.72607241633884
 20
135.875
 10
243.59165906504924
 20
135.95913380174187
 10
244.60609417505825
 20
133.48014123939066
 10
244.64292945456995
 20
133.625
  0
LWPOLYLINE
  5
171
330
17
100
AcDbEntity
  8
PASS_04
100
AcDbPolyline
 90
3
 70
1
 10
244.38864535496313
 20
132.625
 10
244.54979192703783
 20
133.25872649852616
 10
243.68854518669608
 20
132.25054344548897
  0
LWPOLYLINE
  5
172
330
17
100
AcDbEntity
  8
PASS_04
100
AcDbPolyline
 90
3
 70
1
 10
243.0
 20
131.88226720457112
 10
243.3247717017795
 20
132.0559750509098
 10
239.5109617260116
 20
132.625
  0
LWPOLYLINE
  5
173
330
17
100
AcDbEntity
  8
PASS_04
100
AcDbPolyline
 90
3
 70
1
 10
234.75
 20
153.38862688047527
 10
234.36642205828673
 20
153.106633325258
 10
235.07803651804954
 20
153.03600425758657
  0
LWPOLYLINE
  5
174
330
17
100
AcDbEntity
  8
PASS_04
100
AcDbPolyline
 90
3
 70
1
 10
236.92831598509838
 20
152.875
 10
236.7287813301338
 20
152.87216474387034
 10
236.9555998722039
 20
152.8496525788388
  0
LWPOLYLINE
  5
175
330
17
100
AcDbEntity
  8
PASS_04
100
AcDbPolyline
 90
3
 70
1
 10
238.75
 20
151.18260947772006
 10
237.26896888270335
 20
152.5585248426303
 10
238.70337811259378
 20
151.02944400935908
  0
LWPOLYLINE
  5
176
330
17
100
AcDbEntity
  8
PASS_04
100
AcDbPolyline
 90
3
 70
1
 10
235.5
 20
150.5572310359981
 10
238.5
 20
150.36129208323948
 10
235.3383622624477
 20
150.81584276562208
  0
LWPOLYLINE
  5
177
330
17
100
AcDbEntity
  8
PASS_04
100
AcDbPolyline
 90
3
 70
1
 10
234.05134594221659
 20
152.875
 10
234.57575420790295
 20
152.03597483996026
 10
234.22553217114594
 20
153.00305583591768
  0
LWPOLYLINE
  5
178
330
17
100
AcDbEntity
  8
PASS_04
100
AcDbPolyline
 90
4
 70
1
 10
273.45070366063914
 20
207.625
 10
273.45708049301487
 20
207.74069579336123
 10
272.4358837881444
 20
208.10745528186473
 10
272.5747092856608
 20
207.875
  0
LWPOLYLINE
  5
179
330
17
100
AcDbEntity
  8
PASS_04
100
AcDbPolyline
 90
3
 70
1
 10
274.4483726687572
 20
213.875
 10
274.29397015162255
 20
213.97427843368143
 10
274.39026588407086
 20
213.77441115041796
  0
LWPOLYLINE
  5
17A
330
17
100
AcDbEntity
  8
PASS_04
100
AcDbPolyline
 90
4
 70
1
 10
270.5793240404296
 20
214.625
 10
270.6406305143457
 20
214.41562679642763
 10
272.33824624495713
 20
215.23177869838096
 10
272.25
 20
215.28851967087414
  0
LWPOLYLINE
  5
17B
330
17
100
AcDbEntity
  8
PASS_04
100
AcDbPolyline
 90
4
 70
1
 10
264.38754111315444
 20
247.94470426217393
 10
260.5349754908273
 20
250.95376481164644
 10
260.5783435057931
 20
250.875
 10
264.5
 20
247.5639452817456
  0
LWPOLYLINE
  5
17C
330
17
100
AcDbEntity
  8
PASS_04
100
AcDbPolyline
 90
3
 70
1
 10
247.03639952065774
 20
205.625
 10
247.10097409720038
 20
205.34578926877614
 10
248.0
 20
206.44426540785122
  0
LWPOLYLINE
  5
17D
330
17
100
AcDbEntity
  8
PASS_04
100
AcDbPolyline
 90
3
 70
1
 10
248.97186649623166
 20
205.7108806087145
 10
248.75
 20
206.18996431122702
 10
248.0
 20
206.44426540785122
  0
LWPOLYLINE
  5
17E
330
17
100
AcDbEntity
  8
PASS_04
100
AcDbPolyline
 90
3
 70
1
 10
247.24845231769703
 20
204.70811568283688
 10
247.3833126367454
 20
204.125
 10
249.07570871689856
 20
202.38695860916462
  0
LWPOLYLINE
  5
17F
330
17
100
AcDbEntity
  8
PASS_04
100
AcDbPolyline
 90
3
 70
1
 10
249.59692288312334
 20
201.85168686928534
 10
249.75
 20
201.69448113698581
 10
249.82522326163425
 20
201.86041138308283
  0
LWPOLYLINE
  5
180
330
17
100
AcDbEntity
  8
PASS_04
100
AcDbPolyline
 90
3
 70
1
 10
250.0822800244547
 20
202.42743667538005
 10
250.2851795792838
 20
202.875
 10
249.69228263573422
 20
204.15526208440016
  0
LWPOLYLINE
  5
181
330
17
100
AcDbEntity
  8
PASS_04
100
AcDbPolyline
 90
3
 70
1
 10
219.38597476697805
 20
195.4841111598181
 10
219.8534877436175
 20
193.125
 10
219.5
 20
195.47669223357832
  0
LWPOLYLINE
  5
182
330
17
100
AcDbEntity
  8
PASS_04
100
AcDbPolyline
 90
3
 70
1
 10
220.88998928624224
 20
173.00769648142506
 10
221.92109374598496
 20
174.375
 10
222.23715723059118
 20
175.875
  0
LWPOLYLINE
  5
183
330
17
100
AcDbEntity
  8
PASS_04
100
AcDbPolyline
 90
3
 70
1
 10
220.35780551826394
 20
171.875
 10
220.6933389147147
 20
170.66805134755415
 10
220.61128240000278
 20
172.41449855171055
  0
LWPOLYLINE
  5
184
330
17
100
AcDbEntity
  8
PASS_04
100
AcDbPolyline
 90
3
 70
1
 10
219.8037748224358
 20
169.875
 10
220.75
 20
169.46210695266484
 10
220.73992277821802
 20
169.676585179879
  0
LWPOLYLINE
  5
185
330
17
100
AcDbEntity
  8
PASS_04
100
AcDbPolyline
 90
3
 70
1
 10
219.97659314081196
 20
178.32422577845247
 10
219.84474879370256
 20
174.875
 10
219.8037748224358
 20
169.875
  0
LWPOLYLINE
  5
186
330
17
100
AcDbEntity
  8
PASS_04
100
AcDbPolyline
 90
4
 70
1
 10
221.61875902771274
 20
185.86957013252723
 10
220.04542653032638
 20
180.125
 10
220.03970100957926
 20
179.97521266221094
 10
221.57441810074474
 20
184.875
  0
LWPOLYLINE
  5
187
330
17
100
AcDbEntity
  8
PASS_04
100
AcDbPolyline
 90
3
 70
1
 10
221.76389587958693
 20
189.125
 10
221.34011811484035
 20
192.125
 10
221.750635424772
 20
188.82756705927372
  0
LWPOLYLINE
  5
188
330
17
100
AcDbEntity
  8
PASS_04
100
AcDbPolyline
 90
3
 70
1
 10
264.6947282816159
 20
116.00630135726712
 10
264.87205003649024
 20
115.94603267956907
 10
264.92913407513504
 20
116.125
  0
LWPOLYLINE
  5
189
330
17
100
AcDbEntity
  8
PASS_04
100
AcDbPolyline
 90
3
 70
1
 10
264.6983611202799
 20
115.40149097122648
 10
264.0708168819719
 20
114.625
 10
263.5
 20
111.64444287693017
  0
LWPOLYLINE
  5
18A
330
17
100
AcDbEntity
  8
PASS_04
100
AcDbPolyline
 90
3
 70
1
 10
261.4896925425962
 20
112.05121186578329
 10
260.50539986610295
 20
113.24358951826915
 10
261.0
 20
112.15029707768315
  0
LWPOLYLINE
  5
18B
330
17
100
AcDbEntity
  8
PASS_04
100
AcDbPolyline
 90
3
 70
1
 10
258.7459474615776
 20
115.375
 10
258.9894289744857
 20
116.89184970402376
 10
258.9025081433225
 20
116.875
  0
LWPOLYLINE
  5
18C
330
17
100
AcDbEntity
  8
PASS_04
100
AcDbPolyline
 90
3
 70
1
 10
259.0735519653767
 20
116.90815704346285
 10
260.05294478096
 20
116.24838739383208
 10
259.5
 20
116.99082449002034
  0
LWPOLYLINE
  5
18D
330
17
100
AcDbEntity
  8
PASS_04
100
AcDbPolyline
 90
3
 70
1
 10
346.75
 20
125.78846681234393
 10
346.94631880592414
 20
126.01120601315732
 10
342.0
 20
129.2926331692029
  0
LWPOLYLINE
  5
18E
330
17
100
AcDbEntity
  8
PASS_04
100
AcDbPolyline
 90
8
 70
1
 10
165.75
 20
215.95884277096786
 10
164.7421168094821
 20
215.625
 10
164.75
 20
214.4017537794542
 10
163.75
 20
215.2028096961331
 10
163.24953390640138
 20
214.625
 10
163.37863094789094
 20
213.875
 10
165.5
 20
212.16172316053124
 10
166.7491999791557
 20
213.625
  0
LWPOLYLINE
  5
18F
330
17
100
AcDbEntity
  8
PASS_04
100
AcDbPolyline
 90
7
 70
1
 10
131.3791831860163
 20
208.875
 10
131.03279058735166
 20
207.375
 10
131.75
 20
206.15928331066164
 10
133.0
 20
205.86720857715068
 10
133.9247497507925
 20
206.875
 10
133.938717212511
 20
208.125
 10
133.0
 20
209.3193204227053
  0
LWPOLYLINE
  5
190
330
17
100
AcDbEntity
  8
PASS_04
100
AcDbPolyline
 90
5
 70
1
 10
445.920194337444
 20
374.44925891814535
 10
445.6485453387131
 20
375.125
 10
447.0
 20
378.13172517625435
 10
445.6069274071923
 20
375.875
 10
445.6722803566535
 20
374.375
  0
LWPOLYLINE
  5
191
330
17
100
AcDbEntity
  8
PASS_04
100
AcDbPolyline
 90
3
 70
1
 10
448.5
 20
376.02314566115706
 10
446.54325877964277
 20
374.6358885356642
 10
447.34153427916067
 20
374.875
  0
LWPOLYLINE
  5
192
330
17
100
AcDbEntity
  8
PASS_04
100
AcDbPolyline
 90
3
 70
1
 10
448.94829643285874
 20
356.95981147126287
 10
448.9415455459263
 20
357.125
 10
445.63863893553713
 20
359.0376660971454
  0
LWPOLYLINE
  5
193
330
17
100
AcDbEntity
  8
PASS_04
100
AcDbPolyline
 90
3
 70
1
 10
441.3828352013284
 20
358.375
 10
443.93483539963427
 20
360.0243144174665
 10
443.75
 20
360.13134996043965
  0
LWPOLYLINE
  5
194
330
17
100
AcDbEntity
  8
PASS_04
100
AcDbPolyline
 90
3
 70
1
 10
448.14280115504204
 20
356.32694681302127
 10
444.5
 20
358.3425602326113
 10
448.0
 20
356.2749894545359
  0
LWPOLYLINE
  5
195
330
17
100
AcDbEntity
  8
PASS_04
100
AcDbPolyline
 90
3
 70
1
 10
448.9555694139045
 20
356.7818477384218
 10
448.51940135759867
 20
356.4639705767586
 10
448.96197943133
 20
356.625
  0
LWPOLYLINE
  5
196
330
17
100
AcDbEntity
  8
PASS_04
100
AcDbPolyline
 90
4
 70
1
 10
414.23803620298276
 20
339.375
 10
413.5611604374366
 20
337.89215855947646
 10
413.75
 20
337.81479789739404
 10
414.4571567556407
 20
339.3928539351912
  0
LWPOLYLINE
  5
197
330
17
100
AcDbEntity
  8
PASS_04
100
AcDbPolyline
 90
3
 70
1
 10
414.75
 20
339.4167147927994
 10
414.5876909934866
 20
339.4034898604592
 10
415.3911015422312
 20
338.625
  0
LWPOLYLINE
  5
198
330
17
100
AcDbEntity
  8
PASS_04
100
AcDbPolyline
 90
3
 70
1
 10
414.9390009461278
 20
337.875
 10
415.02875194032947
 20
337.5367555612724
 10
415.3911015422312
 20
338.625
  0
LWPOLYLINE
  5
199
330
17
100
AcDbEntity
  8
PASS_04
100
AcDbPolyline
 90
3
 70
1
 10
415.4848062540478
 20
336.98928767644037
 10
415.069105178443
 20
337.3846763726464
 10
415.25
 20
336.70293832695086
  0
LWPOLYLINE
  5
19A
330
17
100
AcDbEntity
  8
PASS_04
100
AcDbPolyline
 90
3
 70
1
 10
415.8927988223275
 20
338.625
 10
415.7979641678227
 20
337.37118791696247
 10
416.00608988752964
 20
337.625
  0
LWPOLYLINE
  5
19B
330
17
100
AcDbEntity
  8
PASS_04
100
AcDbPolyline
 90
3
 70
1
 10
398.7870762207108
 20
310.625
 10
398.2097617724829
 20
307.625
 10
398.33095296450705
 20
307.33322433713215
  0
LWPOLYLINE
  5
19C
330
17
100
AcDbEntity
  8
PASS_04
100
AcDbPolyline
 90
3
 70
1
 10
398.862691642309
 20
306.39619581405617
 10
398.6753469706533
 20
306.5040734083168
 10
398.75
 20
306.3243413934821
  0
LWPOLYLINE
  5
19D
330
17
100
AcDbEntity
  8
PASS_04
100
AcDbPolyline
 90
3
 70
1
 10
399.72537696365373
 20
307.39480166300285
 10
399.9494902913315
 20
307.0891601333805
 10
400.0
 20
307.1213661228876
  0
LWPOLYLINE
  5
19E
330
17
100
AcDbEntity
  8
PASS_04
100
AcDbPolyline
 90
3
 70
1
 10
399.1899550287766
 20
308.125
 10
399.2554699482787
 20
308.03565198836145
 10
399.2724446318146
 20
308.2559855862209
  0
LWPOLYLINE
  5
19F
330
17
100
AcDbEntity
  8
PASS_04
100
AcDbPolyline
 90
3
 70
1
 10
401.1153236648971
 20
311.18230092284983
 10
400.9267626564444
 20
310.88288410762766
 10
401.12049411998646
 20
311.125
  0
LWPOLYLINE
  5
1A0
330
17
100
AcDbEntity
  8
PASS_04
100
AcDbPolyline
 90
6
 70
1
 10
428.25
 20
353.0797097725816
 10
426.4747687634144
 20
352.625
 10
427.25
 20
349.8432182261955
 10
428.5
 20
349.6887143762667
 10
430.02250624668693
 20
350.625
 10
429.5860828240805
 20
352.125
  0
LWPOLYLINE
  5
1A1
330
17
100
AcDbEntity
  8
PASS_04
100
AcDbPolyline
 90
3
 70
1
 10
409.2889190825157
 20
369.2689414794707
 10
410.01156306364845
 20
370.0470475624891
 10
410.0
 20
370.04113469063935
  0
LWPOLYLINE
  5
1A2
330
17
100
AcDbEntity
  8
PASS_04
100
AcDbPolyline
 90
3
 70
1
 10
400.3936572251784
 20
359.052269083102
 10
400.9270169083933
 20
360.18839391793904
 10
400.8686400608906
 20
360.125
  0
LWPOLYLINE
  5
1A3
330
17
100
AcDbEntity
  8
PASS_04
100
AcDbPolyline
 90
3
 70
1
 10
398.9189365635456
 20
353.59920714074843
 10
398.48416858443716
 20
354.73976061673307
 10
398.4333549812257
 20
354.625
  0
LWPOLYLINE
  5
1A4
330
17
100
AcDbEntity
  8
PASS_04
100
AcDbPolyline
 90
3
 70
1
 10
400.5884029290623
 20
350.46673659840076
 10
400.19687969622123
 20
350.89954762366926
 10
400.5
 20
350.2592048791507
  0
LWPOLYLINE
  5
1A5
330
17
100
AcDbEntity
  8
PASS_04
100
AcDbPolyline
 90
3
 70
1
 10
400.6033490477088
 20
355.625
 10
401.72807004021735
 20
353.142180471807
 10
401.82724489555767
 20
353.375
  0
LWPOLYLINE
  5
1A6
330
17
100
AcDbEntity
  8
PASS_04
100
AcDbPolyline
 90
3
 70
1
 10
407.782596186119
 20
357.4693526296476
 10
407.75506988880596
 20
356.8133410399902
 10
407.87215921477576
 20
356.875
  0
LWPOLYLINE
  5
1A7
330
17
100
AcDbEntity
  8
PASS_04
100
AcDbPolyline
 90
3
 70
1
 10
406.29925963538074
 20
361.375
 10
407.5258874563604
 20
359.17290721990383
 10
407.42008905883205
 20
359.875
  0
LWPOLYLINE
  5
1A8
330
17
100
AcDbEntity
  8
PASS_04
100
AcDbPolyline
 90
3
 70
1
 10
295.6943793578568
 20
256.0254533884939
 10
295.7945699248945
 20
257.625
 10
295.4425487713604
 20
256.375
  0
LWPOLYLINE
  5
1A9
330
17
100
AcDbEntity
  8
PASS_04
100
AcDbPolyline
 90
3
 70
1
 10
297.2302278510352
 20
254.73159867117403
 10
295.9372885688919
 20
255.68828985009208
 10
296.5
 20
254.9072335187858
  0
LWPOLYLINE
  5
1AA
330
17
100
AcDbEntity
  8
PASS_04
100
AcDbPolyline
 90
3
 70
1
 10
300.4203427522022
 20
254.875
 10
297.87635889757007
 20
254.57619083821544
 10
298.75
 20
254.36606214800574
  0
LWPOLYLINE
  5
1AB
330
17
100
AcDbEntity
  8
PASS_04
100
AcDbPolyline
 90
3
 70
1
 10
300.0
 20
260.54336100698515
 10
301.2231594111287
 20
259.75106628544444
 10
301.25
 20
259.93673288837124
  0
LWPOLYLINE
  5
1AC
330
17
100
AcDbEntity
  8
PASS_04
100
AcDbPolyline
 90
3
 70
1
 10
290.09189085144936
 20
263.375
 10
291.0
 20
262.4544543213081
 10
290.1045360421723
 20
263.4311529986443
  0
LWPOLYLINE
  5
1AD
330
17
100
AcDbEntity
  8
PASS_04
100
AcDbPolyline
 90
3
 70
1
 10
231.98624899065436
 20
324.375
 10
232.07839574363905
 20
323.0684677444661
 10
232.78823631805216
 20
329.625
  0
LWPOLYLINE
  5
1AE
330
17
100
AcDbEntity
  8
PASS_04
100
AcDbPolyline
 90
3
 70
1
 10
232.23309604252037
 20
320.875
 10
232.2406417690805
 20
320.8687129930651
 10
232.22995962599097
 20
320.9194706864835
  0
LWPOLYLINE
  5
1AF
330
17
100
AcDbEntity
  8
PASS_04
100
AcDbPolyline
 90
4
 70
1
 10
235.23879959760137
 20
319.8663689939598
 10
233.6957548313253
 20
319.65633061471016
 10
234.0
 20
319.4028372671679
 10
235.25
 20
319.7561604543064
  0
LWPOLYLINE
  5
1B0
330
17
100
AcDbEntity
  8
PASS_04
100
AcDbPolyline
 90
3
 70
1
 10
234.75245465802968
 20
324.6518546979896
 10
234.60472253129132
 20
322.375
 10
235.20108755938847
 20
320.23744393491967
  0
LWPOLYLINE
  5
1B1
330
17
100
AcDbEntity
  8
PASS_04
100
AcDbPolyline
 90
3
 70
1
 10
234.3907018055562
 20
328.21139230812366
 10
234.33806970752053
 20
328.125
 10
234.43083687982755
 20
327.8164754322026
  0
LWPOLYLINE
  5
1B2
330
17
100
AcDbEntity
  8
PASS_04
100
AcDbPolyline
 90
3
 70
1
 10
228.75
 20
270.0957884673845
 10
227.52638689597987
 20
269.6734142733217
 10
227.52358043761797
 20
269.625
  0
LWPOLYLINE
  5
1B3
330
17
100
AcDbEntity
  8
PASS_04
100
AcDbPolyline
 90
3
 70
1
 10
231.55396439709781
 20
268.125
 10
229.46962219965883
 20
268.6094809899545
 10
229.5
 20
268.5467386901528
  0
LWPOLYLINE
  5
1B4
330
17
100
AcDbEntity
  8
PASS_04
100
AcDbPolyline
 90
3
 70
1
 10
233.5
 20
266.7556092237993
 10
233.25
 20
265.5839690013453
 10
234.04934575488858
 20
267.0431818861911
  0
LWPOLYLINE
  5
1B5
330
17
100
AcDbEntity
  8
PASS_04
100
AcDbPolyline
 90
3
 70
1
 10
233.1481853821967
 20
270.375
 10
234.35743263921188
 20
267.60559727215787
 10
234.50500941097178
 20
267.875
  0
LWPOLYLINE
  5
1B6
330
17
100
AcDbEntity
  8
PASS_04
100
AcDbPolyline
 90
3
 70
1
 10
236.24653308138303
 20
272.73081438756645
 10
236.27109575594514
 20
271.5044114546346
 10
236.5
 20
271.5871954747663
  0
LWPOLYLINE
  5
1B7
330
17
100
AcDbEntity
  8
PASS_04
100
AcDbPolyline
 90
3
 70
1
 10
233.75
 20
273.6987198654915
 10
236.15488822494476
 20
273.14430736588315
 10
236.10375847318676
 20
273.375
  0
LWPOLYLINE
  5
1B8
330
17
100
AcDbEntity
  8
PASS_04
100
AcDbPolyline
 90
3
 70
1
 10
208.09598326687777
 20
257.8690062783393
 10
208.30203718846852
 20
257.73904069777956
 10
208.25
 20
257.84298716118394
  0
LWPOLYLINE
  5
1B9
330
17
100
AcDbEntity
  8
PASS_04
100
AcDbPolyline
 90
3
 70
1
 10
206.0
 20
257.8602741145685
 10
206.8529669539212
 20
258.0789976631534
 10
203.1742894492513
 20
258.7004622211306
  0
LWPOLYLINE
  5
1BA
330
17
100
AcDbEntity
  8
PASS_04
100
AcDbPolyline
 90
3
 70
1
 10
200.73129043297783
 20
258.375
 10
202.93324481086515
 20
258.7411835671734
 10
202.75
 20
258.7721403866394
  0
LWPOLYLINE
  5
1BB
330
17
100
AcDbEntity
  8
PASS_04
100
AcDbPolyline
 90
3
 70
1
 10
206.0
 20
253.91125875190258
 10
201.0
 20
254.62803086919516
 10
206.1422849442877
 20
253.78256026110165
  0
LWPOLYLINE
  5
1BC
330
17
100
AcDbEntity
  8
PASS_04
100
AcDbPolyline
 90
3
 70
1
 10
208.25122269318555
 20
251.875
 10
206.49623678048818
 20
253.46240645028723
 10
209.75
 20
249.46592584441274
  0
LWPOLYLINE
  5
1BD
330
17
100
AcDbEntity
  8
PASS_04
100
AcDbPolyline
 90
3
 70
1
 10
209.19930143767795
 20
253.625
 10
210.58257950985842
 20
251.53587435878984
 10
210.61842783273175
 20
251.625
  0
LWPOLYLINE
  5
1BE
330
17
100
AcDbEntity
  8
PASS_04
100
AcDbPolyline
 90
3
 70
1
 10
248.38279321222922
 20
341.33384189734886
 10
248.1673820338601
 20
341.125
 10
249.75
 20
340.1227494773612
  0
LWPOLYLINE
  5
1BF
330
17
100
AcDbEntity
  8
PASS_04
100
AcDbPolyline
 90
3
 70
1
 10
253.32394447027932
 20
340.12489655117804
 10
253.71464791503152
 20
339.58049405072256
 10
253.49614178470512
 20
340.125
  0
LWPOLYLINE
  5
1C0
330
17
100
AcDbEntity
  8
PASS_04
100
AcDbPolyline
 90
3
 70
1
 10
254.17136368298236
 20
338.9441106007953
 10
254.25
 20
338.834539497223
 10
255.75
 20
339.6322540492489
  0
LWPOLYLINE
  5
1C1
330
17
100
AcDbEntity
  8
PASS_04
100
AcDbPolyline
 90
3
 70
1
 10
257.32009875986984
 20
339.15744806524026
 10
259.8917128391288
 20
337.125
 10
257.5
 20
339.1030449999506
  0
LWPOLYLINE
  5
1C2
330
17
100
AcDbEntity
  8
PASS_04
100
AcDbPolyline
 90
3
 70
1
 10
260.0274165078921
 20
335.875
 10
261.7597887697373
 20
334.39947875697044
 10
261.75
 20
334.4356832436563
  0
LWPOLYLINE
  5
1C3
330
17
100
AcDbEntity
  8
PASS_04
100
AcDbPolyline
 90
3
 70
1
 10
265.022901789032
 20
336.7821334193781
 10
266.923620311448
 20
335.125
 10
265.25
 20
336.74182719246767
  0
LWPOLYLINE
  5
1C4
330
17
100
AcDbEntity
  8
PASS_04
100
AcDbPolyline
 90
3
 70
1
 10
269.6543625654081
 20
334.875
 10
267.37275887307476
 20
339.71903301511884
 10
267.28250349624443
 20
339.375
  0
LWPOLYLINE
  5
1C5
330
17
100
AcDbEntity
  8
PASS_04
100
AcDbPolyline
 90
3
 70
1
 10
267.44481165239245
 20
339.99368185917575
 10
267.9649981181605
 20
340.0311224201924
 10
267.5
 20
340.20404731654406
  0
LWPOLYLINE
  5
1C6
330
17
100
AcDbEntity
  8
PASS_04
100
AcDbPolyline
 90
3
 70
1
 10
269.8768967441531
 20
340.1687318388813
 10
273.75
 20
340.44749948917047
 10
271.0
 20
340.59682415366126
  0
LWPOLYLINE
  5
1C7
330
17
100
AcDbEntity
  8
PASS_04
100
AcDbPolyline
 90
3
 70
1
 10
289.825017869154
 20
356.30270021966413
 10
289.75
 20
356.50120644821646
 10
288.5
 20
355.56941599564817
  0
LWPOLYLINE
  5
1C8
330
17
100
AcDbEntity
  8
PASS_04
100
AcDbPolyline
 90
3
 70
1
 10
274.46162768021486
 20
344.5487141151498
 10
273.0
 20
344.55273080136715
 10
272.9396283014196
 20
344.523140348457
  0
LWPOLYLINE
  5
1C9
330
17
100
AcDbEntity
  8
PASS_04
100
AcDbPolyline
 90
3
 70
1
 10
442.4304262702888
 20
392.3357084530193
 10
442.39408266919924
 20
392.375
 10
440.5
 20
392.5426852643324
  0
LWPOLYLINE
  5
1CA
330
17
100
AcDbEntity
  8
PASS_04
100
AcDbPolyline
 90
3
 70
1
 10
438.40106608513895
 20
390.7026691328694
 10
438.5
 20
390.7060182517961
 10
440.5
 20
392.5426852643324
  0
LWPOLYLINE
  5
1CB
330
17
100
AcDbEntity
  8
PASS_04
100
AcDbPolyline
 90
3
 70
1
 10
437.7203123406194
 20
390.67962420178213
 10
436.25
 20
390.81525521609535
 10
436.1550702300664
 20
390.6266374986417
  0
LWPOLYLINE
  5
1CC
330
17
100
AcDbEntity
  8
PASS_04
100
AcDbPolyline
 90
3
 70
1
 10
438.0598139188441
 20
388.28669681527276
 10
438.25
 20
388.1810341090648
 10
439.25
 20
389.60218502691396
  0
LWPOLYLINE
  5
1CD
330
17
100
AcDbEntity
  8
PASS_04
100
AcDbPolyline
 90
3
 70
1
 10
443.6986088736743
 20
387.125
 10
443.8784067085954
 20
383.375
 10
443.98480569150956
 20
383.46159667844216
  0
LWPOLYLINE
  5
1CE
330
17
100
AcDbEntity
  8
PASS_04
100
AcDbPolyline
 90
12
 70
1
 10
441.5
 20
381.58835703608446
 10
443.0
 20
381.54882091656515
 10
443.0448583947652
 20
382.125
 10
441.73315850069235
 20
383.375
 10
442.8234378557677
 20
384.375
 10
442.1118820572961
 20
386.875
 10
441.0
 20
388.34630904835007
 10
439.75
 20
388.3842052852593
 10
439.11935105554926
 20
386.625
 10
439.32506124102815
 20
384.875
 10
438.5716580945443
 20
383.875
 10
440.25
 20
383.42515199099387
  0
LWPOLYLINE
  5
1CF
330
17
100
AcDbEntity
  8
PASS_04
100
AcDbPolyline
 90
7
 70
1
 10
389.0
 20
385.634660023904
 10
387.3433822662712
 20
384.125
 10
387.14475989081865
 20
382.625
 10
388.25
 20
382.49027436527433
 10
389.0
 20
383.2602957444889
 10
391.3851051958746
 20
383.375
 10
390.9380013713271
 20
384.875
  0
LWPOLYLINE
  5
1D0
330
17
100
AcDbEntity
  8
PASS_04
100
AcDbPolyline
 90
3
 70
1
 10
386.0
 20
397.4664204103347
 10
385.82727881709627
 20
397.7667400053427
 10
385.88766710700855
 20
397.4201574012326
  0
LWPOLYLINE
  5
1D1
330
17
100
AcDbEntity
  8
PASS_04
100
AcDbPolyline
 90
3
 70
1
 10
385.5188973873673
 20
398.3029393558057
 10
385.3336723925397
 20
398.625
 10
384.19329884165296
 20
398.8345381525552
  0
LWPOLYLINE
  5
1D2
330
17
100
AcDbEntity
  8
PASS_04
100
AcDbPolyline
 90
4
 70
1
 10
379.3552950234818
 20
397.08006384576214
 10
383.5954976670654
 20
398.9443812417964
 10
383.5
 20
398.9619284785897
 10
379.3820005731956
 20
397.125
  0
LWPOLYLINE
  5
1D3
330
17
100
AcDbEntity
  8
PASS_04
100
AcDbPolyline
 90
3
 70
1
 10
379.170834828073
 20
396.7696814765374
 10
377.59910102381536
 20
394.125
 10
378.7527515587737
 20
395.375
  0
LWPOLYLINE
  5
1D4
330
17
100
AcDbEntity
  8
PASS_04
100
AcDbPolyline
 90
3
 70
1
 10
376.3761047493124
 20
390.125
 10
375.5939570779826
 20
388.625
 10
375.67953411374845
 20
387.92316757823943
  0
LWPOLYLINE
  5
1D5
330
17
100
AcDbEntity
  8
PASS_04
100
AcDbPolyline
 90
3
 70
1
 10
375.7208950766645
 20
387.5839589983919
 10
375.75
 20
387.34526436908
 10
376.1141550515035
 20
387.46501221714595
  0
LWPOLYLINE
  5
1D6
330
17
100
AcDbEntity
  8
PASS_04
100
AcDbPolyline
 90
3
 70
1
 10
376.4763033900668
 20
387.58410018268313
 10
376.6006803648688
 20
387.625
 10
376.57633897092427
 20
387.9081438121718
  0
LWPOLYLINE
  5
1D7
330
17
100
AcDbEntity
  8
PASS_04
100
AcDbPolyline
 90
3
 70
1
 10
377.5618188856638
 20
391.1003928661891
 10
377.72129034289287
 20
391.43249749599863
 10
377.6465929149565
 20
391.375
  0
LWPOLYLINE
  5
1D8
330
17
100
AcDbEntity
  8
PASS_04
100
AcDbPolyline
 90
3
 70
1
 10
379.27052076257417
 20
392.625
 10
379.7412370116003
 20
394.1266640081252
 10
379.7212214504309
 20
394.125
  0
LWPOLYLINE
  5
1D9
330
17
100
AcDbEntity
  8
PASS_04
100
AcDbPolyline
 90
3
 70
1
 10
382.00513144545306
 20
394.3148745059777
 10
382.5
 20
394.23473274139843
 10
382.5161932765051
 20
394.35736200019005
  0
LWPOLYLINE
  5
1DA
330
17
100
AcDbEntity
  8
PASS_04
100
AcDbPolyline
 90
3
 70
1
 10
382.74721969051575
 20
396.1068904481553
 10
382.74973247621637
 20
396.12591939809477
 10
382.747416977027
 20
396.125
  0
LWPOLYLINE
  5
1DB
330
17
100
AcDbEntity
  8
PASS_04
100
AcDbPolyline
 90
4
 70
1
 10
379.03450380254634
 20
376.66626142301703
 10
376.25
 20
378.84379131397594
 10
377.3101669920126
 20
377.375
 10
379.0
 20
376.54038882476425
  0
LWPOLYLINE
  5
1DC
330
17
100
AcDbEntity
  8
PASS_04
100
AcDbPolyline
 90
5
 70
1
 10
379.0
 20
387.50834640545753
 10
381.86719353613654
 20
390.875
 10
382.0
 20
393.1011568545686
 10
378.3756121516053
 20
391.375
 10
377.20480014898305
 20
388.375
  0
LWPOLYLINE
  5
1DD
330
17
100
AcDbEntity
  8
PASS_04
100
AcDbPolyline
 90
46
 70
1
 10
327.5
 20
326.3228594320932
 10
327.0925528408224
 20
327.625
 10
324.8600934790135
 20
329.625
 10
325.9118132851748
 20
330.375
 10
325.85093204294543
 20
331.625
 10
326.6262386086894
 20
332.375
 10
325.25243568332365
 20
332.875
 10
325.5460624607329
 20
334.375
 10
324.75
 20
334.9191645142876
 10
323.6662201332287
 20
334.875
 10
323.25
 20
333.17917122203676
 10
322.0
 20
333.7817126101505
 10
320.75
 20
333.059461564295
 10
319.0
 20
333.574861395774
 10
317.75
 20
333.0333360354608
 10
316.75
 20
333.73497116523356
 10
315.5
 20
332.26692517020876
 10
312.0
 20
330.2210808409395
 10
310.25
 20
331.0456730240297
 10
308.25
 20
330.99385181816194
 10
307.84462321430215
 20
329.875
 10
308.81354589488615
 20
328.875
 10
307.75
 20
328.56761541678213
 10
307.0936523806255
 20
326.875
 10
305.4422160605659
 20
325.125
 10
304.2878993205847
 20
319.375
 10
304.5
 20
318.0827346423025
 10
308.5
 20
317.69532782212895
 10
313.0
 20
314.56791588876456
 10
313.7886288528588
 20
314.875
 10
313.5072874585553
 20
315.875
 10
315.75
 20
316.7550980115941
 10
321.75
 20
315.93223491695716
 10
322.9938582950477
 20
314.375
 10
322.75
 20
311.19793799907154
 10
323.25
 20
310.987245289383
 10
324.672721426673
 20
312.125
 10
325.5
 20
315.1060644231016
 10
334.5
 20
318.23323286645166
 10
336.25
 20
320.87274965427275
 10
338.75
 20
321.19510493819496
 10
339.0918893690724
 20
322.875
 10
338.0
 20
325.1596602435747
 10
332.03230285159174
 20
325.625
 10
331.0
 20
326.6705326004665
 10
329.75
 20
325.6755470999817
  0
LWPOLYLINE
  5
1DE
330
17
100
AcDbEntity
  8
PASS_04
100
AcDbPolyline
 90
11
 70
1
 10
307.25
 20
332.6051442652829
 10
308.49744714347844
 20
333.875
 10
307.9698205557221
 20
335.125
 10
309.81384631061485
 20
338.375
 10
308.5
 20
339.13245967489644
 10
305.75
 20
338.76250290078593
 10
304.9166768697016
 20
337.875
 10
305.05481830835555
 20
335.625
 10
305.5
 20
335.0361611980749
 10
307.0
 20
334.99547998214894
 10
306.71304467224564
 20
333.375
  0
LWPOLYLINE
  5
1DF
330
17
100
AcDbEntity
  8
PASS_04
100
AcDbPolyline
 90
6
 70
1
 10
303.3676290015897
 20
316.875
 10
304.77763427897196
 20
313.625
 10
305.5
 20
313.66419948370117
 10
307.5107727352849
 20
315.125
 10
306.0
 20
316.69650816905096
 10
304.75
 20
317.2823889507673
  0
LWPOLYLINE
  5
1E0
330
17
100
AcDbEntity
  8
PASS_04
100
AcDbPolyline
 90
71
 70
1
 10
289.75756077971016
 20
323.625
 10
291.9006069598058
 20
325.375
 10
291.2119721942748
 20
327.875
 10
291.7445321240382
 20
329.125
 10
296.25
 20
332.13890987103855
 10
296.70480313477384
 20
331.375
 10
295.25
 20
328.4388832402774
 10
291.452293701755
 20
323.625
 10
293.75
 20
324.0671402627597
 10
294.5
 20
326.2770743087831
 10
295.75
 20
325.65375058922496
 10
297.25
 20
326.525718499792
 10
298.5
 20
326.09527563318557
 10
301.75
 20
331.8658135888932
 10
303.6994836350581
 20
333.625
 10
301.68630164295365
 20
336.125
 10
302.3114400753123
 20
338.125
 10
300.9227251424857
 20
340.125
 10
301.75
 20
340.53641854923717
 10
304.0
 20
339.98358164344506
 10
304.4219774803806
 20
341.375
 10
300.5
 20
341.3927856480698
 10
299.5
 20
340.3611043387582
 10
298.25
 20
340.85133666767024
 10
297.75
 20
340.1709539603008
 10
294.75
 20
341.82864034487477
 10
295.71855605225477
 20
340.125
 10
294.9124011263934
 20
339.375
 10
295.0
 20
337.39582823557043
 10
294.0374874168884
 20
336.625
 10
293.5
 20
334.22134733558926
 10
291.5
 20
335.64250939089027
 10
289.75
 20
335.838198268268
 10
289.25
 20
334.57847218608526
 10
283.5
 20
336.34804586766086
 10
281.50023800952033
 20
336.375
 10
281.8142183960127
 20
334.875
 10
284.25
 20
334.63523489412546
 10
287.0
 20
333.43467664748886
 10
288.30045180108516
 20
331.875
 10
287.25
 20
328.6821095371701
 10
285.7606680587138
 20
329.875
 10
284.8123948797255
 20
329.875
 10
286.6284922471751
 20
327.625
 10
285.0
 20
326.24518468828035
 10
283.75
 20
326.1467813537686
 10
282.75
 20
327.5329051592787
 10
281.0
 20
326.7118304224284
 10
276.75
 20
327.75439821888506
 10
275.51890990331174
 20
329.875
 10
274.6930731622896
 20
329.875
 10
276.41684690208757
 20
326.875
 10
274.75
 20
326.9227253662741
 10
274.75
 20
326.26464307598417
 10
276.5
 20
325.0039901123514
 10
277.0
 20
326.53011308833567
 10
279.5
 20
325.9436630125531
 10
280.97483610104825
 20
323.875
 10
280.80527185394754
 20
322.625
 10
284.5
 20
319.24012380276963
 10
285.25
 20
317.7879302506819
 10
286.25
 20
317.7117692341692
 10
287.3840013091635
 20
320.125
 10
284.48813594690296
 20
321.125
 10
284.8084656937
 20
322.375
 10
283.8174136757234
 20
323.375
 10
285.84400554533374
 20
323.125
 10
286.75
 20
321.2984269352438
 10
288.75
 20
321.51122430380195
 10
290.25
 20
320.6194464192978
 10
290.5352870080327
 20
321.375
  0
LWPOLYLINE
  5
1E1
330
17
100
AcDbEntity
  8
PASS_04
100
AcDbPolyline
 90
5
 70
1
 10
295.5
 20
353.88348169031934
 10
293.88832218838087
 20
357.625
 10
291.0325028545718
 20
357.125
 10
293.25
 20
353.54573799146243
 10
296.25
 20
353.6024212560889
  0
LWPOLYLINE
  5
1E2
330
17
100
AcDbEntity
  8
PASS_04
100
AcDbPolyline
 90
16
 70
1
 10
271.1201634211518
 20
320.375
 10
270.85541164152477
 20
319.375
 10
271.75
 20
318.3081951206889
 10
273.0
 20
318.92419365127364
 10
274.5
 20
318.2744896140432
 10
275.25
 20
317.24115643020343
 10
274.64201328305285
 20
318.875
 10
272.696227823784
 20
320.875
 10
272.4043791151878
 20
322.375
 10
273.0
 20
322.89297111825374
 10
274.25
 20
322.464887274964
 10
273.8644502455387
 20
324.625
 10
272.25
 20
325.4220208617942
 10
271.5
 20
324.50529279109
 10
267.0
 20
324.2066530690158
 10
268.7242874372355
 20
321.875
  0
LWPOLYLINE
  5
1E3
330
17
100
AcDbEntity
  8
PASS_04
100
AcDbPolyline
 90
24
 70
1
 10
258.75
 20
321.42102145883644
 10
256.56619526697216
 20
320.625
 10
257.75
 20
320.0326186443252
 10
259.0
 20
320.4201582505975
 10
260.2218612860718
 20
318.875
 10
261.7252756936401
 20
318.125
 10
259.5
 20
317.8937424314229
 10
258.9434369769988
 20
317.125
 10
259.75
 20
315.8844352683602
 10
262.0
 20
315.04868708085655
 10
263.5
 20
314.87864287049905
 10
265.5
 20
316.7395896600651
 10
269.3059999542437
 20
315.125
 10
272.5
 20
314.76146701214043
 10
272.52708015656833
 20
315.875
 10
268.0
 20
316.34570068773985
 10
267.30576861131544
 20
317.125
 10
268.6376737717092
 20
317.375
 10
270.6266921518211
 20
319.125
 10
269.5
 20
320.0592556515069
 10
266.5
 20
319.9045535502868
 10
265.5
 20
318.7977430327792
 10
263.75
 20
319.7078215096734
 10
261.25
 20
319.9393028052518
  0
LWPOLYLINE
  5
1E4
330
17
100
AcDbEntity
  8
PASS_04
100
AcDbPolyline
 90
36
 70
1
 10
255.43936465702438
 20
334.625
 10
253.75
 20
337.4461063699325
 10
251.75
 20
337.9247657240122
 10
250.5
 20
339.19531769148807
 10
248.0
 20
339.47521135274667
 10
245.6738199519138
 20
338.375
 10
246.30861812015007
 20
336.875
 10
244.0
 20
336.9517818421588
 10
243.0
 20
335.319135771879
 10
241.7189055515976
 20
335.125
 10
238.9913256537693
 20
330.625
 10
239.17787201750676
 20
327.875
 10
236.81166101425316
 20
326.125
 10
236.10314840393457
 20
323.625
 10
237.5
 20
319.8364294371474
 10
238.5
 20
319.5754944920441
 10
239.25
 20
320.97738689671843
 10
240.75
 20
320.98085675467627
 10
242.5
 20
319.8605111784617
 10
245.25
 20
319.18399050975347
 10
245.63251006731136
 20
319.875
 10
244.99868972075126
 20
321.125
 10
245.5
 20
321.31245651637227
 10
247.54972320179897
 20
319.375
 10
248.0315741093232
 20
317.125
 10
250.0
 20
316.6669008441209
 10
250.29609918009524
 20
317.125
 10
248.66907337999845
 20
319.375
 10
250.0
 20
321.62878944343674
 10
251.5
 20
322.1948385319637
 10
252.5
 20
321.7696742703537
 10
253.31007887452913
 20
323.125
 10
252.1834600066091
 20
325.125
 10
253.4812742987878
 20
328.875
 10
255.52829404177737
 20
331.375
 10
254.69574326628936
 20
332.875
  0
ENDSEC
  0
SECTION
  2
OBJECTS
  0
DICTIONARY
  5
A
330
0
100
AcDbDictionary
281
1
  3
ACAD_COLOR
350
B
  3
ACAD_GROUP
350
C
  3
ACAD_LAYOUT
350
D
  3
ACAD_MATERIAL
350
E
  3
ACAD_MLEADERSTYLE
350
F
  3
ACAD_MLINESTYLE
350
10
  3
ACAD_PLOTSETTINGS
350
11
  3
ACAD_PLOTSTYLENAME
350
12
  3
ACAD_SCALELIST
350
14
  3
ACAD_TABLESTYLE
350
15
  3
ACAD_VISUALSTYLE
350
16
  3
EZDXF_META
350
2D
  0
DICTIONARY
  5
B
330
A
100
AcDbDictionary
281
1
  0
DICTIONARY
  5
C
330
A
100
AcDbDictionary
281
1
  0
DICTIONARY
  5
D
330
A
100
AcDbDictionary
281
1
  3
Model
350
1A
  3
Layout1
350
1E
  0
DICTIONARY
  5
E
330
A
100
AcDbDictionary
281
1
  3
ByBlock
350
1F
  3
ByLayer
350
20
  3
Global
350
21
  0
DICTIONARY
  5
F
330
A
100
AcDbDictionary
281
1
  3
Standard
350
2C
  0
DICTIONARY
  5
10
330
A
100
AcDbDictionary
281
1
  3
Standard
350
22
  0
DICTIONARY
  5
11
330
A
100
AcDbDictionary
281
1
  0
ACDBDICTIONARYWDFLT
  5
12
330
A
100
AcDbDictionary
281
1
  3
Normal
350
13
100
AcDbDictionaryWithDefault
340
13
  0
ACDBPLACEHOLDER
  5
13
330
12
  0
DICTIONARY
  5
14
330
A
100
AcDbDictionary
281
1
  0
DICTIONARY
  5
15
330
A
100
AcDbDictionary
281
1
  0
DICTIONARY
  5
16
330
A
100
AcDbDictionary
281
1
  0
LAYOUT
  5
1A
330
D
100
AcDbPlotSettings
  1

  4
A3
  6

 40
7.5
 41
20.0
 42
7.5
 43
20.0
 44
420.0
 45
297.0
 46
0.0
 47
0.0
 48
0.0
 49
0.0
140
0.0
141
0.0
142
1.0
143
1.0
 70
1024
 72
1
 73
0
 74
5
  7

 75
16
 76
0
 77
2
 78
300
147
1.0
148
0.0
149
0.0
100
AcDbLayout
  1
Model
 70
1
 71
0
 10
0.0
 20
0.0
 11
420.0
 21
297.0
 12
0.0
 22
0.0
 32
0.0
 14
1e+20
 24
1e+20
 34
1e+20
 15
-1e+20
 25
-1e+20
 35
-1e+20
146
0.0
 13
0.0
 23
0.0
 33
0.0
 16
1.0
 26
0.0
 36
0.0
 17
0.0
 27
1.0
 37
0.0
 76
1
330
17
  0
LAYOUT
  5
1E
330
D
100
AcDbPlotSettings
  1

  4
A3
  6

 40
7.5
 41
20.0
 42
7.5
 43
20.0
 44
420.0
 45
297.0
 46
0.0
 47
0.0
 48
0.0
 49
0.0
140
0.0
141
0.0
142
1.0
143
1.0
 70
0
 72
1
 73
0
 74
5
  7

 75
16
 76
0
 77
2
 78
300
147
1.0
148
0.0
149
0.0
100
AcDbLayout
  1
Layout1
 70
1
 71
1
 10
0.0
 20
0.0
 11
420.0
 21
297.0
 12
0.0
 22
0.0
 32
0.0
 14
1e+20
 24
1e+20
 34
1e+20
 15
-1e+20
 25
-1e+20
 35
-1e+20
146
0.0
 13
0.0
 23
0.0
 33
0.0
 16
1.0
 26
0.0
 36
0.0
 17
0.0
 27
1.0
 37
0.0
 76
1
330
1B
  0
MATERIAL
  5
1F
102
{ACAD_REACTORS
330
E
102
}
330
E
100
AcDbMaterial
  1
ByBlock
  2

 70
0
 40
1.0
 71
1
 41
1.0
 91
-1023410177
 42
1.0
 72
1
  3

 73
1
 74
1
 75
1
 44
0.5
 73
0
 45
1.0
 46
1.0
 77
1
  4

 78
1
 79
1
170
1
 48
1.0
171
1
  6

172
1
173
1
174
1
140
1.0
141
1.0
175
1
  7

176
1
177
1
178
1
143
1.0
179
1
  8

270
1
271
1
272
1
145
1.0
146
1.0
273
1
  9

274
1
275
1
276
1
 42
1.0
 72
1
  3

 73
1
 74
1
 75
1
 94
63
  0
MATERIAL
  5
20
102
{ACAD_REACTORS
330
E
102
}
330
E
100
AcDbMaterial
  1
ByLayer
  2

 70
0
 40
1.0
 71
1
 41
1.0
 91
-1023410177
 42
1.0
 72
1
  3

 73
1
 74
1
 75
1
 44
0.5
 73
0
 45
1.0
 46
1.0
 77
1
  4

 78
1
 79
1
170
1
 48
1.0
171
1
  6

172
1
173
1
174
1
140
1.0
141
1.0
175
1
  7

176
1
177
1
178
1
143
1.0
179
1
  8

270
1
271
1
272
1
145
1.0
146
1.0
273
1
  9

274
1
275
1
276
1
 42
1.0
 72
1
  3

 73
1
 74
1
 75
1
 94
63
  0
MATERIAL
  5
21
102
{ACAD_REACTORS
330
E
102
}
330
E
100
AcDbMaterial
  1
Global
  2

 70
0
 40
1.0
 71
1
 41
1.0
 91
-1023410177
 42
1.0
 72
1
  3

 73
1
 74
1
 75
1
 44
0.5
 73
0
 45
1.0
 46
1.0
 77
1
  4

 78
1
 79
1
170
1
 48
1.0
171
1
  6

172
1
173
1
174
1
140
1.0
141
1.0
175
1
  7

176
1
177
1
178
1
143
1.0
179
1
  8

270
1
271
1
272
1
145
1.0
146
1.0
273
1
  9

274
1
275
1
276
1
 42
1.0
 72
1
  3

 73
1
 74
1
 75
1
 94
63
  0
MLINESTYLE
  5
22
102
{ACAD_REACTORS
330
10
102
}
330
10
100
AcDbMlineStyle
  2
Standard
 70
0
  3

 62
256
 51
90.0
 52
90.0
 71
2
 49
0.5
 62
256
  6
BYLAYER
 49
-0.5
 62
256
  6
BYLAYER
  0
MLEADERSTYLE
  5
2C
102
{ACAD_REACTORS
330
F
102
}
330
F
100
AcDbMLeaderStyle
179
2
170
2
171
1
172
0
 90
2
 40
0.0
 41
0.0
173
1
 91
-1056964608
 92
-2
290
1
 42
2.0
291
1
 43
8.0
  3
Standard
 44
4.0
300

342
29
174
1
175
1
176
0
178
1
 93
-1056964608
 45
4.0
292
0
297
0
 46
4.0
 94
-1056964608
 47
1.0
 49
1.0
140
1.0
294
1
141
0.0
177
0
142
1.0
295
0
296
0
143
3.75
271
0
272
9
273
9
  0
DICTIONARY
  5
2D
330
A
100
AcDbDictionary
280
1
281
1
  3
CREATED_BY_EZDXF
350
2E
  3
WRITTEN_BY_EZDXF
350
1E7
  0
DICTIONARYVAR
  5
2E
330
2D
100
DictionaryVariables
280
0
  1
1.4.3 @ 2026-09-03T21:25:23.245599+00:00
  0
DICTIONARYVAR
  5
1E7
330
2D
100
DictionaryVariables
280
0
  1
1.4.3 @ 2026-09-03T21:25:23.258414+00:00
  0
ENDSEC
  0
EOF
