  0
SECTION
  2
HEADER
  9
$ACADVER
  1
AC1024
  9
$ACADMAINTVER
 70
6
  9
$DWGCODEPAGE
  3
ANSI_1252
  9
$LASTSAVEDBY
  1
ezdxf
  9
$INSBASE
 10
0.0
 20
0.0
 30
0.0
  9
$EXTMIN
 10
1e+20
 20
1e+20
 30
1e+20
  9
$EXTMAX
 10
-1e+20
 20
-1e+20
 30
-1e+20
  9
$LIMMIN
 10
0.0
 20
0.0
  9
$LIMMAX
 10
420.0
 20
297.0
  9
$ORTHOMODE
 70
0
  9
$REGENMODE
 70
1
  9
$FILLMODE
 70
1
  9
$QTEXTMODE
 70
0
  9
$MIRRTEXT
 70
1
  9
$LTSCALE
 40
1.0
  9
$ATTMODE
 70
1
  9
$TEXTSIZE
 40
2.5
  9
$TRACEWID
 40
1.0
  9
$TEXTSTYLE
  7
Standard
  9
$CLAYER
  8
0
  9
$CELTYPE
  6
ByLayer
  9
$CECOLOR
 62
256
  9
$CELTSCALE
 40
1.0
  9
$DISPSILH
 70
0
  9
$DIMSCALE
 40
1.0
  9
$DIMASZ
 40
2.5
  9
$DIMEXO
 40
0.625
  9
$DIMDLI
 40
3.75
  9
$DIMRND
 40
0.0
  9
$DIMDLE
 40
0.0
  9
$DIMEXE
 40
1.25
  9
$DIMTP
 40
0.0
  9
$DIMTM
 40
0.0
  9
$DIMTXT
 40
2.5
  9
$DIMCEN
 40
2.5
  9
$DIMTSZ
 40
0.0
  9
$DIMTOL
 70
0
  9
$DIMLIM
 70
0
  9
$DIMTIH
 70
0
  9
$DIMTOH
 70
0
  9
$DIMSE1
 70
0
  9
$DIMSE2
 70
0
  9
$DIMTAD
 70
1
  9
$DIMZIN
 70
8
  9
$DIMBLK
  1

  9
$DIMASO
 70
1
  9
$DIMSHO
 70
1
  9
$DIMPOST
  1

  9
$DIMAPOST
  1

  9
$DIMALT
 70
0
  9
$DIMALTD
 70
3
  9
$DIMALTF
 40
0.03937007874
  9
$DIMLFAC
 40
1.0
  9
$DIMTOFL
 70
1
  9
$DIMTVP
 40
0.0
  9
$DIMTIX
 70
0
  9
$DIMSOXD
 70
0
  9
$DIMSAH
 70
0
  9
$DIMBLK1
  1

  9
$DIMBLK2
  1

  9
$DIMSTYLE
  2
ISO-25
  9
$DIMCLRD
 70
0
  9
$DIMCLRE
 70
0
  9
$DIMCLRT
 70
0
  9
$DIMTFAC
 40
1.0
  9
$DIMGAP
 40
0.625
  9
$DIMJUST
 70
0
  9
$DIMSD1
 70
0
  9
$DIMSD2
 70
0
  9
$DIMTOLJ
 70
0
  9
$DIMTZIN
 70
8
  9
$DIMALTZ
 70
0
  9
$DIMALTTZ
 70
0
  9
$DIMUPT
 70
0
  9
$DIMDEC
 70
2
  9
$DIMTDEC
 70
2
  9
$DIMALTU
 70
2
  9
$DIMALTTD
 70
3
  9
$DIMTXSTY
  7
Standard
  9
$DIMAUNIT
 70
0
  9
$DIMADEC
 70
0
  9
$DIMALTRND
 40
0.0
  9
$DIMAZIN
 70
0
  9
$DIMDSEP
 70
44
  9
$DIMATFIT
 70
3
  9
$DIMFRAC
 70
0
  9
$DIMLDRBLK
  1

  9
$DIMLUNIT
 70
2
  9
$DIMLWD
 70
-2
  9
$DIMLWE
 70
-2
  9
$DIMTMOVE
 70
0
  9
$DIMFXL
 40
1.0
  9
$DIMFXLON
 70
0
  9
$DIMJOGANG
 40
0.785398163397
  9
$DIMTFILL
 70
0
  9
$DIMTFILLCLR
 70
0
  9
$DIMARCSYM
 70
0
  9
$DIMLTYPE
  6

  9
$DIMLTEX1
  6

  9
$DIMLTEX2
  6

  9
$DIMTXTDIRECTION
 70
0
  9
$LUNITS
 70
2
  9
$LUPREC
 70
4
  9
$SKETCHINC
 40
1.0
  9
$FILLETRAD
 40
10.0
  9
$AUNITS
 70
0
  9
$AUPREC
 70
2
  9
$MENU
  1
.
  9
$ELEVATION
 40
0.0
  9
$PELEVATION
 40
0.0
  9
$THICKNESS
 40
0.0
  9
$LIMCHECK
 70
0
  9
$CHAMFERA
 40
0.0
  9
$CHAMFERB
 40
0.0
  9
$CHAMFERC
 40
0.0
  9
$CHAMFERD
 40
0.0
  9
$SKPOLY
 70
0
  9
$TDCREATE
 40
2461288.3092939816
  9
$TDUCREATE
 40
2458532.153996898
  9
$TDUPDATE
 40
2461288.3092939816
  9
$TDUUPDATE
 40
2458532.1544311
  9
$TDINDWG
 40
0.0
  9
$TDUSRTIMER
 40
0.0
  9
$USRTIMER
 70
1
  9
$ANGBASE
 50
0.0
  9
$ANGDIR
 70
0
  9
$PDMODE
 70
0
  9
$PDSIZE
 40
0.0
  9
$PLINEWID
 40
0.0
  9
$SPLFRAME
 70
0
  9
$SPLINETYPE
 70
6
  9
$SPLINESEGS
 70
8
  9
$HANDSEED
  5
137
  9
$SURFTAB1
 70
6
  9
$SURFTAB2
 70
6
  9
$SURFTYPE
 70
6
  9
$SURFU
 70
6
  9
$SURFV
 70
6
  9
$UCSBASE
  2

  9
$UCSNAME
  2

  9
$UCSORG
 10
0.0
 20
0.0
 30
0.0
  9
$UCSXDIR
 10
1.0
 20
0.0
 30
0.0
  9
$UCSYDIR
 10
0.0
 20
1.0
 30
0.0
  9
$UCSORTHOREF
  2

  9
$UCSORTHOVIEW
 70
0
  9
$UCSORGTOP
 10
0.0
 20
0.0
 30
0.0
  9
$UCSORGBOTTOM
 10
0.0
 20
0.0
 30
0.0
  9
$UCSORGLEFT
 10
0.0
 20
0.0
 30
0.0
  9
$UCSORGRIGHT
 10
0.0
 20
0.0
 30
0.0
  9
$UCSORGFRONT
 10
0.0
 20
0.0
 30
0.0
  9
$UCSORGBACK
 10
0.0
 20
0.0
 30
0.0
  9
$PUCSBASE
  2

  9
$PUCSNAME
  2

  9
$PUCSORG
 10
0.0
 20
0.0
 30
0.0
  9
$PUCSXDIR
 10
1.0
 20
0.0
 30
0.0
  9
$PUCSYDIR
 10
0.0
 20
1.0
 30
0.0
  9
$PUCSORTHOREF
  2

  9
$PUCSORTHOVIEW
 70
0
  9
$PUCSORGTOP
 10
0.0
 20
0.0
 30
0.0
  9
$PUCSORGBOTTOM
 10
0.0
 20
0.0
 30
0.0
  9
$PUCSORGLEFT
 10
0.0
 20
0.0
 30
0.0
  9
$PUCSORGRIGHT
 10
0.0
 20
0.0
 30
0.0
  9
$PUCSORGFRONT
 10
0.0
 20
0.0
 30
0.0
  9
$PUCSORGBACK
 10
0.0
 20
0.0
 30
0.0
  9
$USERI1
 70
0
  9
$USERI2
 70
0
  9
$USERI3
 70
0
  9
$USERI4
 70
0
  9
$USERI5
 70
0
  9
$USERR1
 40
0.0
  9
$USERR2
 40
0.0
  9
$USERR3
 40
0.0
  9
$USERR4
 40
0.0
  9
$USERR5
 40
0.0
  9
$WORLDVIEW
 70
1
  9
$SHADEDGE
 70
3
  9
$SHADEDIF
 70
70
  9
$TILEMODE
 70
1
  9
$MAXACTVP
 70
64
  9
$PINSBASE
 10
0.0
 20
0.0
 30
0.0
  9
$PLIMCHECK
 70
0
  9
$PEXTMIN
 10
1e+20
 20
1e+20
 30
1e+20
  9
$PEXTMAX
 10
-1e+20
 20
-1e+20
 30
-1e+20
  9
$PLIMMIN
 10
0.0
 20
0.0
  9
$PLIMMAX
 10
420.0
 20
297.0
  9
$UNITMODE
 70
0
  9
$VISRETAIN
 70
1
  9
$PLINEGEN
 70
0
  9
$PSLTSCALE
 70
1
  9
$TREEDEPTH
 70
3020
  9
$CMLSTYLE
  2
Standard
  9
$CMLJUST
 70
0
  9
$CMLSCALE
 40
20.0
  9
$PROXYGRAPHICS
 70
1
  9
$MEASUREMENT
 70
1
  9
$CELWEIGHT
370
-1
  9
$ENDCAPS
280
0
  9
$JOINSTYLE
280
0
  9
$LWDISPLAY
290
0
  9
$INSUNITS
 70
4
  9
$HYPERLINKBASE
  1

  9
$STYLESHEET
  1

  9
$XEDIT
290
1
  9
$CEPSNTYPE
380
0
  9
$PSTYLEMODE
290
1
  9
$FINGERPRINTGUID
  2
{C5FA1A73-732E-402E-8DE7-42DC3BD803B0}
  9
$VERSIONGUID
  2
{A18ECC6C-E883-461E-8ECB-EEB6EF913CC9}
  9
$EXTNAMES
290
1
  9
$PSVPSCALE
 40
0.0
  9
$OLESTARTUP
290
0
  9
$SORTENTS
280
127
  9
$INDEXCTL
280
0
  9
$HIDETEXT
280
1
  9
$XCLIPFRAME
280
1
  9
$HALOGAP
280
0
  9
$OBSCOLOR
 70
257
  9
$OBSLTYPE
280
0
  9
$INTERSECTIONDISPLAY
280
0
  9
$INTERSECTIONCOLOR
 70
257
  9
$DIMASSOC
280
2
  9
$PROJECTNAME
  1

  9
$CAMERADISPLAY
290
0
  9
$LENSLENGTH
 40
50.0
  9
$CAMERAHEIGHT
 40
0.0
  9
$STEPSPERSEC
 40
24.0
  9
$STEPSIZE
 40
100.0
  9
$3DDWFPREC
 40
2.0
  9
$PSOLWIDTH
 40
0.005
  9
$PSOLHEIGHT
 40
0.08
  9
$LOFTANG1
 40
1.570796326795
  9
$LOFTANG2
 40
1.570796326795
  9
$LOFTMAG1
 40
0.0
  9
$LOFTMAG2
 40
0.0
  9
$LOFTPARAM
 70
7
  9
$LOFTNORMALS
280
1
  9
$LATITUDE
 40
37.795
  9
$LONGITUDE
 40
-122.394
  9
$NORTHDIRECTION
 40
0.0
  9
$TIMEZONE
 70
-8000
  9
$LIGHTGLYPHDISPLAY
280
1
  9
$TILEMODELIGHTSYNCH
280
1
  9
$CMATERIAL
347
20
  9
$SOLIDHIST
280
0
  9
$SHOWHIST
280
1
  9
$DWFFRAME
280
2
  9
$DGNFRAME
280
2
  9
$REALWORLDSCALE
290
1
  9
$INTERFERECOLOR
 62
256
  9
$CSHADOW
280
0
  9
$SHADOWPLANELOCATION
 40
0.0
  0
ENDSEC
  0
SECTION
  2
CLASSES
  0
CLASS
  1
ACDBDICTIONARYWDFLT
  2
AcDbDictionaryWithDefault
  3
ObjectDBX Classes
 90
0
 91
0
280
0
281
0
  0
CLASS
  1
SUN
  2
AcDbSun
  3
SCENEOE
 90
1153
 91
0
280
0
281
0
  0
CLASS
  1
VISUALSTYLE
  2
AcDbVisualStyle
  3
ObjectDBX Classes
 90
4095
 91
0
280
0
281
0
  0
CLASS
  1
MATERIAL
  2
AcDbMaterial
  3
ObjectDBX Classes
 90
1153
 91
0
280
0
281
0
  0
CLASS
  1
SCALE
  2
AcDbScale
  3
ObjectDBX Classes
 90
1153
 91
0
280
0
281
0
  0
CLASS
  1
TABLESTYLE
  2
AcDbTableStyle
  3
ObjectDBX Classes
 90
4095
 91
0
280
0
281
0
  0
CLASS
  1
MLEADERSTYLE
  2
AcDbMLeaderStyle
  3
ACDB_MLEADERSTYLE_CLASS
 90
4095
 91
0
280
0
281
0
  0
CLASS
  1
DICTIONARYVAR
  2
AcDbDictionaryVar
  3
ObjectDBX Classes
 90
0
 91
0
280
0
281
0
  0
CLASS
  1
CELLSTYLEMAP
  2
AcDbCellStyleMap
  3
ObjectDBX Classes
 90
1152
 91
0
280
0
281
0
  0
CLASS
  1
MENTALRAYRENDERSETTINGS
  2
AcDbMentalRayRenderSettings
  3
SCENEOE
 90
1024
 91
0
280
0
281
0
  0
CLASS
  1
ACDBDETAILVIEWSTYLE
  2
AcDbDetailViewStyle
  3
ObjectDBX Classes
 90
1025
 91
0
280
0
281
0
  0
CLASS
  1
ACDBSECTIONVIEWSTYLE
  2
AcDbSectionViewStyle
  3
ObjectDBX Classes
 90
1025
 91
0
280
0
281
0
  0
CLASS
  1
RASTERVARIABLES
  2
AcDbRasterVariables
  3
ISM
 90
0
 91
0
280
0
281
0
  0
CLASS
  1
ACDBPLACEHOLDER
  2
AcDbPlaceHolder
  3
ObjectDBX Classes
 90
0
 91
0
280
0
281
0
  0
CLASS
  1
LAYOUT
  2
AcDbLayout
  3
ObjectDBX Classes
 90
0
 91
0
280
0
281
0
  0
ENDSEC
  0
SECTION
  2
TABLES
  0
TABLE
  2
VPORT
  5
8
330
0
100
AcDbSymbolTable
 70
1
  0
VPORT
  5
23
330
8
100
AcDbSymbolTableRecord
100
AcDbViewportTableRecord
  2
*Active
 70
0
 10
0.0
 20
0.0
 11
1.0
 21
1.0
 12
0.0
 22
0.0
 13
0.0
 23
0.0
 14
0.5
 24
0.5
 15
0.5
 25
0.5
 16
0.0
 26
0.0
 36
1.0
 17
0.0
 27
0.0
 37
0.0
 40
1000.0
 41
1.34
 42
50.0
 43
0.0
 44
0.0
 50
0.0
 51
0.0
 71
0
 72
1000
 73
1
 74
3
 75
0
 76
0
 77
0
 78
0
281
0
 65
0
146
0.0
  0
ENDTAB
  0
TABLE
  2
LTYPE
  5
2
330
0
100
AcDbSymbolTable
 70
3
  0
LTYPE
  5
24
330
2
100
AcDbSymbolTableRecord
100
AcDbLinetypeTableRecord
  2
ByBlock
 70
0
  3

 72
65
 73
0
 40
0.0
  0
LTYPE
  5
25
330
2
100
AcDbSymbolTableRecord
100
AcDbLinetypeTableRecord
  2
ByLayer
 70
0
  3

 72
65
 73
0
 40
0.0
  0
LTYPE
  5
26
330
2
100
AcDbSymbolTableRecord
100
AcDbLinetypeTableRecord
  2
Continuous
 70
0
  3

 72
65
 73
0
 40
0.0
  0
ENDTAB
  0
TABLE
  2
LAYER
  5
1
330
0
100
AcDbSymbolTable
 70
3
  0
LAYER
  5
27
330
1
100
AcDbSymbolTableRecord
100
AcDbLayerTableRecord
  2
0
 70
0
 62
7
  6
Continuous
370
-3
390
13
347
21
  0
LAYER
  5
28
330
1
100
AcDbSymbolTableRecord
100
AcDbLayerTableRecord
  2
Defpoints
 70
0
 62
7
  6
Continuous
290
0
370
-3
390
13
347
21
  0
LAYER
  5
2F
330
1
100
AcDbSymbolTableRecord
100
AcDbLayerTableRecord
  2
PASS_03
 70
0
 62
3
  6
Continuous
370
-3
390
13
347
21
  0
ENDTAB
  0
TABLE
  2
STYLE
  5
5
330
0
100
AcDbSymbolTable
 70
1
  0
STYLE
  5
29
330
5
100
AcDbSymbolTableRecord
100
AcDbTextStyleTableRecord
  2
Standard
 70
0
 40
0.0
 41
1.0
 50
0.0
 71
0
 42
2.5
  3
txt
  4

  0
ENDTAB
  0
TABLE
  2
VIEW
  5
7
330
0
100
AcDbSymbolTable
 70
0
  0
ENDTAB
  0
TABLE
  2
UCS
  5
6
330
0
100
AcDbSymbolTable
 70
0
  0
ENDTAB
  0
TABLE
  2
APPID
  5
3
330
0
100
AcDbSymbolTable
 70
3
  0
APPID
  5
2A
330
3
100
AcDbSymbolTableRecord
100
AcDbRegAppTableRecord
  2
ACAD
 70
0
  0
APPID
  5
134
330
3
100
AcDbSymbolTableRecord
100
AcDbRegAppTableRecord
  2
HATCHBACKGROUNDCOLOR
 70
0
  0
APPID
  5
135
330
3
100
AcDbSymbolTableRecord
100
AcDbRegAppTableRecord
  2
EZDXF
 70
0
  0
ENDTAB
  0
TABLE
  2
DIMSTYLE
  5
4
330
0
100
AcDbSymbolTable
 70
1
100
AcDbDimStyleTable
  0
DIMSTYLE
105
2B
330
4
100
AcDbSymbolTableRecord
100
AcDbDimStyleTableRecord
  2
Standard
 70
0
 40
1.0
 41
2.5
 42
0.625
 43
3.75
 44
1.25
 45
0.0
 46
0.0
 47
0.0
 48
0.0
 49
2.5
140
2.5
141
2.5
142
0.0
143
0.03937007874
144
1.0
145
0.0
146
1.0
147
0.625
148
0.0
 69
0
 70
0
 71
0
 72
0
 73
0
 74
0
 75
0
 76
0
 77
1
 78
8
 79
3
170
0
171
3
172
1
173
0
174
0
175
0
176
0
177
0
178
0
179
2
271
2
272
2
273
2
274
3
275
0
276
0
277
2
278
44
279
0
280
0
281
0
282
0
283
0
284
8
285
0
286
0
288
0
289
3
290
0
371
-2
372
-2
  0
ENDTAB
  0
TABLE
  2
BLOCK_RECORD
  5
9
330
0
100
AcDbSymbolTable
 70
2
  0
BLOCK_RECORD
  5
17
330
9
100
AcDbSymbolTableRecord
100
AcDbBlockTableRecord
  2
*Model_Space
340
1A
 70
0
280
1
281
0
  0
BLOCK_RECORD
  5
1B
330
9
100
AcDbSymbolTableRecord
100
AcDbBlockTableRecord
  2
*Paper_Space
340
1E
 70
0
280
1
281
0
  0
ENDTAB
  0
ENDSEC
  0
SECTION
  2
BLOCKS
  0
BLOCK
  5
18
330
17
100
AcDbEntity
  8
0
100
AcDbBlockBegin
  2
*Model_Space
 70
0
 10
0.0
 20
0.0
 30
0.0
  3
*Model_Space
  1

  0
ENDBLK
  5
19
330
17
100
AcDbEntity
  8
0
100
AcDbBlockEnd
  0
BLOCK
  5
1C
330
1B
100
AcDbEntity
  8
0
100
AcDbBlockBegin
  2
*Paper_Space
 70
0
 10
0.0
 20
0.0
 30
0.0
  3
*Paper_Space
  1

  0
ENDBLK
  5
1D
330
1B
100
AcDbEntity
  8
0
100
AcDbBlockEnd
  0
ENDSEC
  0
SECTION
  2
ENTITIES
  0
LWPOLYLINE
  5
30
330
17
100
AcDbEntity
  8
PASS_03
100
AcDbPolyline
 90
1017
 70
1
 10
130.125
 20
109.0
 10
129.02187498843423
 20
109.0
 10
128.74518670130803
 20
108.83773337663506
 10
127.875
 20
107.75
 10
127.125
 20
107.81799704312789
 10
126.7229879586312
 20
109.17036792768896
 10
126.4146008767696
 20
109.59221538746867
 10
126.05459865753998
 20
109.75
 10
126.25
 20
109.81737547304557
 10
122.72668473989796
 20
109.375
 10
122.125
 20
111.75
 10
120.5
 20
111.36250248997513
 10
118.57280111572665
 20
112.625
 10
120.05899103638943
 20
113.625
 10
120.16440729000131
 20
114.10974532527712
 10
119.625
 20
114.75
 10
117.93098765772663
 20
115.0
 10
116.875
 20
116.13365512678988
 10
115.375
 20
123.0
 10
112.625
 20
126.75
 10
111.375
 20
127.75
 10
105.09499868392606
 20
128.0
 10
100.125
 20
131.5
 10
98.875
 20
134.25
 10
94.125
 20
138.25
 10
91.28845289975033
 20
144.125
 10
92.25
 20
144.82524059371127
 10
94.25
 20
143.6944460722553
 10
94.53891231064766
 20
144.125
 10
93.72975339399191
 20
144.875
 10
95.5
 20
146.05986706216845
 10
96.42781977352826
 20
144.875
 10
97.5
 20
144.989486992443
 10
96.21380236438888
 20
148.625
 10
96.75
 20
149.93134637056295
 10
97.75
 20
148.464769144559
 10
99.0
 20
148.58056793945138
 10
99.50089691000036
 20
146.875
 10
99.98511526050488
 20
147.125
 10
100.25
 20
149.08744606238176
 10
102.25
 20
147.7986915286598
 10
102.12279454618157
 20
150.625
 10
101.32996622800216
 20
151.625
 10
101.75
 20
152.1155426076794
 10
102.5
 20
151.43672919912257
 10
103.52396697754331
 20
151.875
 10
103.04495729424886
 20
149.625
 10
103.5
 20
148.43140613410617
 10
104.45269288366282
 20
148.375
 10
104.92890930221056
 20
149.625
 10
104.57288195818599
 20
151.375
 10
105.57739073723333
 20
152.875
 10
106.60010830132512
 20
157.625
 10
105.96061646744394
 20
159.375
 10
105.5
 20
165.29729424646916
 10
103.25
 20
165.4505256195008
 10
102.25
 20
166.78635426998414
 10
101.5
 20
166.62529500044138
 10
100.53167441132845
 20
164.875
 10
100.38074544180499
 20
162.875
 10
98.75
 20
162.5177962948985
 10
97.25
 20
160.81027601348703
 10
97.25
 20
159.1070551066735
 10
102.0
 20
160.18106151021345
 10
103.08080467907561
 20
158.125
 10
102.0
 20
157.10125931458674
 10
101.25
 20
157.77943228581432
 10
100.25
 20
157.45424661133245
 10
98.75
 20
158.15312824856744
 10
96.74476568389568
 20
157.125
 10
97.0
 20
156.43025337442947
 10
98.0
 20
156.42857334495943
 10
97.87323560605023
 20
155.125
 10
99.04549562570814
 20
153.125
 10
98.25
 20
152.22525177597478
 10
97.0
 20
155.14985298447704
 10
96.0
 20
155.36662579638602
 10
95.25
 20
154.3699633813307
 10
94.84546097314376
 20
155.625
 10
94.0
 20
155.8324328238843
 10
92.75
 20
153.21723395796278
 10
91.25
 20
153.861872458519
 10
90.3019344946826
 20
152.625
 10
89.25
 20
152.5903288860565
 10
89.15699270299642
 20
149.375
 10
88.0
 20
149.1158965745663
 10
87.125
 20
150.43123043467307
 10
86.625
 20
154.75
 10
85.11535931316438
 20
156.875
 10
84.125
 20
157.25
 10
83.5
 20
156.85248926201223
 10
82.0
 20
158.20905525680882
 10
80.0
 20
158.738486328028
 10
78.25
 20
157.87305121545478
 10
73.66592286821245
 20
163.0
 10
71.90363207957643
 20
166.625
 10
73.45484165119484
 20
164.875
 10
75.25
 20
164.412895183444
 10
76.5
 20
165.20820078403096
 10
77.25
 20
164.5415704685427
 10
81.75
 20
164.96697325686065
 10
83.0
 20
165.7351862014396
 10
84.5
 20
165.2481185525487
 10
86.75
 20
166.56306141245136
 10
87.75
 20
166.37562155510983
 10
91.39876411077026
 20
168.875
 10
92.29058708870603
 20
172.625
 10
90.9016575800946
 20
176.375
 10
91.44731556243461
 20
182.875
 10
91.00190242422676
 20
192.625
 10
89.68202523971175
 20
193.625
 10
89.68361696081469
 20
196.125
 10
92.24571444860747
 20
199.875
 10
91.71648673527343
 20
201.375
 10
92.76053118426324
 20
202.625
 10
92.42591814904095
 20
208.625
 10
92.85268405471044
 20
210.375
 10
92.25
 20
211.86458735447167
 10
90.5
 20
211.80555832432225
 10
89.58137626219902
 20
209.625
 10
89.54014843761269
 20
207.875
 10
88.45474669846067
 20
206.625
 10
87.06471569828335
 20
198.125
 10
87.31375811269088
 20
192.625
 10
86.61638037393894
 20
189.625
 10
85.75
 20
188.6991979257536
 10
85.2111114218292
 20
190.125
 10
86.59407284507603
 20
199.875
 10
86.25
 20
206.92788386430578
 10
85.26037308779183
 20
207.375
 10
83.5
 20
209.69923289955346
 10
82.0
 20
209.80643583524198
 10
81.0
 20
208.49393425138712
 10
80.95701671420068
 20
210.625
 10
78.25
 20
211.9894718332261
 10
73.75057687426445
 20
211.125
 10
79.5
 20
213.6539582248568
 10
82.25
 20
212.158110528204
 10
83.75
 20
212.85097018432992
 10
85.5
 20
211.71027967938022
 10
88.5
 20
213.31433585453038
 10
89.36355421494396
 20
215.125
 10
87.56095478812216
 20
216.875
 10
86.25
 20
222.43802922059925
 10
84.61916992824524
 20
222.625
 10
83.25
 20
221.39521921862047
 10
81.90097399678513
 20
223.625
 10
83.0
 20
225.39927185965345
 10
85.75
 20
226.53547201471764
 10
86.25485143898969
 20
227.875
 10
89.0
 20
230.67918722011322
 10
90.02997067760658
 20
230.625
 10
90.59819706982648
 20
228.125
 10
89.9578802583955
 20
225.625
 10
88.75
 20
225.0754344936778
 10
87.92392533338267
 20
223.375
 10
89.29458814659307
 20
220.375
 10
89.25
 20
217.80587990062043
 10
90.25
 20
217.2954489707626
 10
91.25
 20
218.1173494653911
 10
92.25
 20
217.25643700311394
 10
93.5
 20
218.67157030745545
 10
94.75
 20
219.10314302793935
 10
96.75
 20
221.51331557584984
 10
94.61465835056151
 20
223.375
 10
94.5
 20
224.2087886756369
 10
95.87404094259196
 20
225.125
 10
94.95105557920505
 20
227.375
 10
94.55756688345282
 20
231.875
 10
95.5
 20
232.64881444262446
 10
96.75
 20
232.25574984872082
 10
97.06270980177564
 20
235.125
 10
99.49291650043178
 20
237.375
 10
100.31900667378726
 20
242.375
 10
100.10089542648772
 20
243.625
 10
99.16072706439137
 20
244.625
 10
100.58809516020142
 20
245.875
 10
100.98433296829812
 20
247.875
 10
100.57253513361304
 20
252.875
 10
102.84023816375236
 20
255.375
 10
104.25
 20
255.53582957277135
 10
106.25
 20
257.6464946378637
 10
108.0
 20
258.2541335877862
 10
109.02365299088916
 20
259.875
 10
107.75
 20
260.7087319519453
 10
101.25
 20
258.0572593615608
 10
99.1778316795854
 20
254.625
 10
99.90430808734946
 20
250.625
 10
99.5
 20
250.09137204232772
 10
98.55368249569956
 20
251.375
 10
98.30623854315543
 20
253.375
 10
97.4198556498831
 20
253.625
 10
95.58395279922395
 20
250.125
 10
92.00769959430909
 20
240.375
 10
88.0
 20
235.41260413440324
 10
85.3005997943562
 20
233.375
 10
81.0
 20
231.49120436987826
 10
80.5
 20
232.56690226598897
 10
78.32775711513585
 20
232.875
 10
83.15741566683462
 20
238.625
 10
82.29240173455706
 20
239.875
 10
80.58918498217233
 20
240.625
 10
81.0
 20
241.2710218720826
 10
83.69146357244533
 20
241.875
 10
83.54956573143555
 20
243.875
 10
82.54842986084998
 20
245.125
 10
82.80890773183201
 20
246.125
 10
81.84295403790439
 20
247.375
 10
81.87768530150754
 20
249.125
 10
85.25
 20
250.96622228525504
 10
84.30177465160028
 20
253.125
 10
87.5
 20
255.37041191274045
 10
87.70652647525247
 20
256.125
 10
86.64651625368134
 20
261.375
 10
85.69235504617367
 20
262.625
 10
87.18222743776784
 20
264.375
 10
83.0
 20
265.3406496490504
 10
82.0
 20
266.46507208296947
 10
80.25
 20
267.1126634427568
 10
78.5
 20
269.42408941985565
 10
78.41454535383254
 20
270.375
 10
79.25
 20
271.10458996888156
 10
81.0
 20
269.8601536544851
 10
81.25
 20
271.1250252414768
 10
82.26231599427335
 20
271.375
 10
81.92161436953081
 20
272.875
 10
83.11148979205895
 20
273.625
 10
83.25
 20
276.4695916616714
 10
85.25
 20
275.3133656826526
 10
88.19230191209454
 20
277.625
 10
87.25
 20
279.1149151172191
 10
85.5678254765775
 20
279.375
 10
84.98204446686327
 20
280.875
 10
89.25
 20
281.6929079660541
 10
88.81078138482326
 20
283.625
 10
89.75
 20
284.4106568962079
 10
90.68317122197337
 20
284.375
 10
90.25
 20
285.0033570037524
 10
88.5
 20
285.22745932613793
 10
82.5
 20
288.2039365439987
 10
81.25
 20
289.85844523332776
 10
80.0
 20
290.2452937575202
 10
79.27399828320341
 20
291.625
 10
77.0
 20
293.1304509409728
 10
74.75
 20
293.3365757362552
 10
74.9966738885959
 20
294.625
 10
76.0
 20
295.5807840300437
 10
73.07141260246752
 20
297.875
 10
74.75
 20
298.1983612527313
 10
74.5351992922906
 20
299.375
 10
75.51791731195851
 20
301.375
 10
73.75
 20
306.60385972945755
 10
73.10892421320489
 20
306.375
 10
72.25
 20
304.2245605130645
 10
71.25
 20
304.7268176524416
 10
70.50534616145504
 20
306.625
 10
70.37701014278153
 20
309.875
 10
72.34488590190274
 20
309.625
 10
73.75
 20
307.64947006248514
 10
75.94172194755765
 20
308.5
 10
78.125
 20
307.5
 10
79.125
 20
306.25
 10
79.625
 20
303.75
 10
81.125
 20
302.25
 10
84.375
 20
301.5
 10
86.625
 20
301.75
 10
89.125
 20
305.25
 10
89.875
 20
305.08443050034776
 10
90.625
 20
302.5
 10
92.375
 20
302.0
 10
106.01232758038691
 20
304.2237200502171
 10
106.11072792632231
 20
304.4451611059158
 10
104.625
 20
306.4119350106206
 10
104.125
 20
314.70002478773563
 10
105.125
 20
316.25
 10
104.125
 20
318.75
 10
101.625
 20
320.24859337306657
 10
101.59331734989043
 20
321.375
 10
102.43783224856713
 20
322.25
 10
105.125
 20
322.75
 10
106.875
 20
324.25
 10
107.875
 20
327.25
 10
107.875
 20
328.25
 10
107.09587507896534
 20
329.125
 10
108.625
 20
331.75
 10
108.41100421280193
 20
333.75
 10
115.12530992849824
 20
338.75
 10
127.875
 20
335.75
 10
131.875
 20
331.0
 10
136.375
 20
324.25
 10
137.625
 20
323.0
 10
140.875
 20
322.0
 10
143.625
 20
317.5
 10
144.18902489187
 20
317.12398340542
 10
144.5485335813108
 20
317.09525533251053
 10
145.28588643930584
 20
317.5
 10
147.625
 20
317.25
 10
150.625
 20
314.5442957806064
 10
152.125
 20
312.25
 10
156.625
 20
309.75
 10
162.375
 20
308.0
 10
180.875
 20
309.0
 10
195.125
 20
308.0
 10
202.04804886084236
 20
310.5
 10
215.125
 20
312.0
 10
220.625
 20
312.0
 10
223.625
 20
310.5
 10
227.625
 20
310.25
 10
229.375
 20
311.25
 10
233.125
 20
315.25
 10
237.1982391923226
 20
316.375
 10
236.5
 20
318.91476351462444
 10
233.625
 20
319.02791022978056
 10
231.875
 20
320.6905590741476
 10
231.625
 20
325.0
 10
232.625
 20
329.5
 10
231.88148534202784
 20
331.625
 10
232.875
 20
333.25
 10
235.625
 20
334.25
 10
237.875
 20
338.75
 10
239.21230386999866
 20
339.5
 10
241.242233470283
 20
339.375
 10
238.5
 20
337.068916237494
 10
238.24904951471382
 20
334.625
 10
239.20608178533382
 20
333.375
 10
236.75
 20
331.47492462240757
 10
236.6049661220537
 20
329.625
 10
235.504968564208
 20
328.375
 10
236.1508425243369
 20
327.375
 10
235.1939789263443
 20
323.375
 10
236.0
 20
319.8921440321718
 10
238.75
 20
317.6449148331561
 10
242.5
 20
315.8434796336036
 10
243.5
 20
316.0925614939598
 10
244.0
 20
314.14895951087294
 10
245.0816379359863
 20
314.375
 10
244.46962989275715
 20
310.375
 10
245.25
 20
309.22139241220174
 10
246.80680135600153
 20
309.875
 10
249.0
 20
315.63832834831464
 10
253.75
 20
317.28507922043457
 10
256.5
 20
314.89125961203064
 10
260.5
 20
314.49086868121617
 10
261.2128136739334
 20
312.625
 10
262.5
 20
311.65322884741903
 10
262.75
 20
312.80453180981897
 10
263.75
 20
312.7095240860725
 10
264.25
 20
313.3320028583096
 10
266.25
 20
311.47320130118635
 10
266.75
 20
313.9713239686736
 10
269.75
 20
313.79548823593757
 10
270.53313373541323
 20
312.625
 10
269.83774153596505
 20
311.375
 10
272.2143268765319
 20
309.125
 10
269.25
 20
308.54318833967295
 10
268.7996895637745
 20
307.375
 10
269.8215080178366
 20
305.375
 10
272.2670622552545
 20
304.125
 10
272.35538289789736
 20
301.375
 10
270.75
 20
302.0584364556608
 10
270.2011986353282
 20
301.125
 10
272.9886283402423
 20
297.625
 10
273.0163150045348
 20
295.375
 10
272.5
 20
293.8604675894504
 10
271.0
 20
293.45773231622746
 10
270.57469441409455
 20
294.375
 10
270.9558999217281
 20
296.625
 10
268.25
 20
298.59849198868994
 10
264.0
 20
296.87251393358326
 10
264.8223332277964
 20
294.375
 10
267.7782078086473
 20
290.125
 10
266.24643588736643
 20
289.375
 10
265.979758576202
 20
287.375
 10
268.75
 20
281.90489415844866
 10
269.5516227999942
 20
281.875
 10
271.75
 20
283.408359969215
 10
273.25
 20
280.6255969293952
 10
277.5
 20
278.81469738893645
 10
276.5
 20
277.5881922682677
 10
275.25
 20
277.98780769441726
 10
273.6335180119819
 20
277.125
 10
272.87326016533444
 20
275.625
 10
274.0
 20
274.41253715257005
 10
280.25
 20
271.92466045249813
 10
281.0
 20
272.75603681409757
 10
282.75
 20
271.82966048253684
 10
288.1658893055427
 20
274.625
 10
287.9554977581531
 20
277.125
 10
285.5
 20
279.63950854235287
 10
288.25
 20
279.8086906993476
 10
288.5
 20
282.06732361836174
 10
290.71339517901185
 20
282.125
 10
289.92017749171055
 20
285.625
 10
288.4991208791209
 20
286.875
 10
289.42314775630473
 20
288.125
 10
289.3396780837714
 20
289.125
 10
292.0
 20
288.61774884380395
 10
292.68953197140365
 20
289.875
 10
291.75
 20
291.0353852803693
 10
288.0
 20
290.1681156848829
 10
289.60983254886116
 20
291.875
 10
288.5
 20
292.9729375811523
 10
286.5
 20
292.57481920065135
 10
286.0
 20
293.487265285392
 10
281.75
 20
293.18220058403705
 10
281.25
 20
293.83990577143663
 10
281.0
 20
294.71897553303484
 10
282.5
 20
293.91594575559975
 10
284.5916183344597
 20
294.875
 10
280.14214284310947
 20
298.375
 10
279.4179697102542
 20
300.375
 10
277.5
 20
300.85587868232625
 10
275.9778557588421
 20
302.375
 10
276.5
 20
302.89192595547127
 10
277.75
 20
302.2834618040954
 10
278.3447570710555
 20
302.625
 10
277.0
 20
313.1079474374495
 10
278.75
 20
312.1709074438538
 10
278.75
 20
314.41171867357923
 10
280.25
 20
314.1239403443389
 10
280.0730096845817
 20
311.625
 10
278.75
 20
311.54340545552225
 10
278.6876993619509
 20
309.125
 10
280.1459611569354
 20
303.625
 10
280.75
 20
303.3777459233778
 10
281.5
 20
305.1430600330608
 10
281.8896934293852
 20
304.625
 10
282.25
 20
299.4198331908681
 10
285.5
 20
297.61827552939565
 10
286.0
 20
299.91450734202925
 10
287.46631191890305
 20
297.625
 10
288.5
 20
297.6532707426914
 10
288.79896096348847
 20
299.375
 10
290.0
 20
299.19610642875284
 10
291.0656459062742
 20
299.875
 10
291.16056471787965
 20
300.875
 10
290.2415653727694
 20
302.125
 10
291.7505485148563
 20
303.125
 10
290.75
 20
303.95628709015557
 10
288.75
 20
304.1151646830733
 10
287.8981208505048
 20
306.125
 10
286.4496022639908
 20
307.625
 10
286.06034239222555
 20
309.375
 10
287.0346782700422
 20
309.875
 10
286.9221131669128
 20
312.125
 10
288.1807343223605
 20
311.125
 10
289.232784828712
 20
306.875
 10
291.25
 20
306.69931713810786
 10
289.9663538389895
 20
310.375
 10
290.25
 20
310.7091209763496
 10
290.88957872838387
 20
309.625
 10
292.0
 20
309.2777561303247
 10
292.0645428828988
 20
310.875
 10
289.584621065788
 20
317.375
 10
291.75
 20
316.2587592512382
 10
291.88182746508755
 20
314.625
 10
293.75
 20
312.61975705516653
 10
294.37548387398687
 20
314.625
 10
293.3444233233845
 20
317.875
 10
293.75
 20
319.33512502759993
 10
294.57829543098086
 20
318.625
 10
295.75
 20
314.65107316871087
 10
296.5
 20
313.98470354642063
 10
297.25
 20
314.2885227829496
 10
297.1026920210532
 20
318.625
 10
295.4704157611529
 20
321.125
 10
296.75
 20
320.84420932257626
 10
296.80402824676116
 20
321.625
 10
295.6004099207716
 20
324.125
 10
298.0
 20
323.54891537106016
 10
299.25
 20
319.88196464875034
 10
300.0
 20
319.215251740001
 10
300.5
 20
322.37116393614156
 10
301.75
 20
322.20298266243105
 10
302.4629229774121
 20
323.125
 10
301.3019547811188
 20
325.375
 10
301.43269437905167
 20
327.125
 10
303.25
 20
329.50466662234413
 10
305.0
 20
329.9564200485412
 10
306.0
 20
330.930460217034
 10
306.57551119256766
 20
330.625
 10
306.25
 20
329.56953564992983
 10
303.6918575962498
 20
327.625
 10
303.9627167321807
 20
321.375
 10
303.3120575854505
 20
319.875
 10
303.5
 20
318.3176816695501
 10
302.67980410349975
 20
316.875
 10
304.4154654713259
 20
307.625
 10
303.809139584386
 20
305.125
 10
304.25
 20
303.07641838353993
 10
307.31281174397424
 20
305.875
 10
307.5
 20
306.98201093409284
 10
308.4039817218105
 20
307.375
 10
307.25
 20
310.1303165290905
 10
308.73851023075605
 20
309.375
 10
309.06879543292314
 20
305.875
 10
309.75
 20
304.6329725089805
 10
311.0
 20
304.41438038723356
 10
312.0
 20
305.4236303453647
 10
314.7429793066728
 20
304.875
 10
313.70607425037514
 20
306.875
 10
314.00336191209556
 20
308.125
 10
311.89036670894177
 20
308.625
 10
312.54262340080203
 20
310.125
 10
310.9975909540529
 20
312.875
 10
311.5
 20
313.43078994000155
 10
314.86954161640534
 20
313.125
 10
315.2534278655618
 20
311.875
 10
316.0
 20
311.5309977394246
 10
317.0
 20
312.96495381172554
 10
319.25
 20
312.4358678673798
 10
321.5
 20
311.2567060569287
 10
323.25
 20
308.26657455549315
 10
325.25
 20
307.512870959148
 10
326.5789736528569
 20
309.125
 10
325.4591972553048
 20
310.375
 10
325.75
 20
311.02560546901515
 10
328.0
 20
312.6607192613118
 10
329.25
 20
312.20531012949834
 10
331.41038095530706
 20
313.375
 10
330.5
 20
315.8442212077716
 10
335.0
 20
316.7620032632195
 10
336.5
 20
319.18324017831486
 10
337.75
 20
319.1486004915673
 10
338.5
 20
319.75464501918816
 10
339.1037954730615
 20
317.625
 10
340.1580428335797
 20
316.375
 10
338.5531759926141
 20
311.625
 10
341.0
 20
311.9469141553685
 10
341.4090587040668
 20
313.375
 10
340.5048456735405
 20
316.375
 10
340.1115938471609
 20
323.125
 10
339.22795239864735
 20
324.375
 10
340.52864162896134
 20
326.125
 10
341.6428322969582
 20
325.625
 10
340.37328537069436
 20
324.625
 10
340.3502113206451
 20
323.375
 10
342.2624834322186
 20
322.125
 10
344.6339672141833
 20
318.125
 10
344.80357940851115
 20
316.875
 10
346.0
 20
315.6750186418771
 10
345.8629103364528
 20
318.375
 10
346.75
 20
318.7294857845857
 10
347.0
 20
319.6559221389013
 10
348.17330489261377
 20
316.875
 10
349.0
 20
316.16295365323975
 10
349.6765080192866
 20
316.375
 10
349.88727706078043
 20
318.375
 10
348.5545612342869
 20
325.375
 10
349.75
 20
324.66513948741215
 10
351.00586515336437
 20
320.125
 10
351.24649256625446
 20
316.375
 10
352.5
 20
314.1547040660332
 10
353.25
 20
315.7414890241709
 10
354.0
 20
314.79911057187667
 10
354.7262695221172
 20
314.875
 10
354.95472338251653
 20
318.625
 10
353.52820221629975
 20
323.625
 10
353.0
 20
329.0726328217238
 10
353.8674665085678
 20
325.375
 10
355.49390592394235
 20
323.875
 10
356.55098521435053
 20
319.875
 10
358.5
 20
315.8653847574362
 10
359.30733410631655
 20
318.625
 10
358.41962328980213
 20
320.625
 10
360.2704729675369
 20
319.875
 10
360.3441433260819
 20
322.125
 10
361.5
 20
320.91355832615454
 10
362.62306248836614
 20
320.875
 10
363.5
 20
319.47874819426295
 10
364.0
 20
322.25509636367565
 10
365.25
 20
321.39668336597856
 10
365.72211396206416
 20
324.875
 10
368.0
 20
321.60746138761186
 10
369.6091306125231
 20
322.375
 10
368.02333716728816
 20
324.875
 10
369.5
 20
326.1260160546396
 10
370.75
 20
323.7008335123484
 10
371.5313613400691
 20
323.375
 10
373.0
 20
329.3839696319635
 10
374.0
 20
327.21668141759346
 10
374.8594112568728
 20
327.625
 10
374.3407409650341
 20
329.875
 10
374.75
 20
331.69353301414094
 10
376.75
 20
328.59517464951296
 10
377.3574073456626
 20
328.875
 10
377.5181315925382
 20
329.875
 10
377.0
 20
332.72712202603503
 10
378.25
 20
332.7006737388689
 10
379.36851438483734
 20
331.625
 10
379.5584116589438
 20
330.125
 10
380.0
 20
330.1549695818695
 10
380.35116346765057
 20
332.125
 10
378.95661378297865
 20
334.375
 10
380.5
 20
335.58667839331713
 10
381.62423565346495
 20
334.625
 10
381.75
 20
331.8317393688554
 10
382.5
 20
330.40807799226843
 10
383.4331368771417
 20
331.875
 10
383.5953670223581
 20
334.125
 10
380.5
 20
336.8979180923304
 10
378.70865444623445
 20
337.375
 10
379.140080001546
 20
338.125
 10
381.5
 20
337.05150640540506
 10
382.5
 20
337.24831776702524
 10
385.3551150323877
 20
334.375
 10
384.62802495588596
 20
337.875
 10
386.0275489104502
 20
336.625
 10
385.466239553752
 20
339.125
 10
383.75
 20
341.1537955228541
 10
382.5
 20
341.27436040484264
 10
382.0
 20
340.5106205825295
 10
382.0
 20
342.4357796553882
 10
380.5738061793901
 20
343.375
 10
382.5
 20
345.99892461521256
 10
383.25
 20
345.9566425450413
 10
383.3718254589799
 20
347.125
 10
379.25
 20
346.26064455510664
 10
377.64202640648324
 20
347.125
 10
378.25
 20
347.8569545611455
 10
380.81294401894485
 20
348.375
 10
381.2921622156281
 20
349.375
 10
382.88178149945315
 20
350.125
 10
381.25
 20
355.038787220978
 10
378.5
 20
354.1458846178723
 10
377.7802051108922
 20
354.625
 10
379.75
 20
356.64131146054416
 10
379.0
 20
359.5657555030655
 10
377.5
 20
358.8526603683836
 10
376.25
 20
356.7145464704307
 10
373.5
 20
355.7156154239546
 10
373.38247765715585
 20
356.625
 10
374.876710122254
 20
357.875
 10
375.4187601100698
 20
360.875
 10
373.0
 20
363.5131381279799
 10
372.25
 20
363.6795492704338
 10
370.0
 20
361.99464183928
 10
370.1637774384113
 20
364.125
 10
366.75
 20
365.72084002947014
 10
365.1457910413896
 20
363.125
 10
362.75
 20
360.8478261428234
 10
362.88057839107455
 20
361.875
 10
364.9488656005799
 20
364.375
 10
364.75
 20
365.84838669584576
 10
358.25
 20
365.62831937186314
 10
355.0
 20
366.71221383114835
 10
348.5
 20
360.90128205128207
 10
349.6143811261028
 20
363.125
 10
351.40915626398265
 20
364.625
 10
351.4178079526363
 20
365.875
 10
349.66674084790867
 20
367.125
 10
351.75
 20
370.2910760715799
 10
352.75
 20
370.271483415091
 10
354.0
 20
371.32376438699595
 10
354.75
 20
370.0276050539672
 10
362.25
 20
367.45573353484104
 10
368.25
 20
368.45781276935014
 10
372.5
 20
368.28652956950873
 10
370.5
 20
371.4642408137144
 10
367.82750401411903
 20
373.125
 10
369.4555760700415
 20
373.625
 10
369.5
 20
376.3275777272026
 10
372.25
 20
371.01907164286695
 10
373.75
 20
370.94194949736186
 10
374.25
 20
369.76405059962343
 10
375.0
 20
369.6838616657083
 10
375.5
 20
367.7427504733202
 10
376.5
 20
367.54382290621794
 10
379.47113194471154
 20
372.375
 10
379.25
 20
376.21805086981925
 10
381.25
 20
372.8891938710105
 10
384.10514182141947
 20
372.625
 10
382.5811469540848
 20
371.375
 10
383.0
 20
370.06945165468943
 10
384.0088402737165
 20
369.625
 10
383.20438194151853
 20
368.375
 10
383.42498093394937
 20
365.625
 10
383.75
 20
365.38821617710545
 10
384.55148192591315
 20
366.375
 10
384.48736361955247
 20
365.375
 10
385.17556810463594
 20
364.875
 10
384.57289107917785
 20
363.625
 10
385.0
 20
362.8181551091849
 10
387.14949163944925
 20
363.625
 10
386.1242313698697
 20
362.125
 10
386.5302832894903
 20
361.125
 10
388.5
 20
359.8273246746918
 10
389.3414252438492
 20
357.625
 10
391.75
 20
355.39919273647405
 10
392.13208343316336
 20
356.625
 10
391.43676689240664
 20
362.625
 10
390.54757591078896
 20
363.625
 10
391.6296651565582
 20
364.375
 10
390.7301237283014
 20
365.375
 10
390.9494437669546
 20
366.375
 10
389.2071825122086
 20
366.375
 10
389.12535357584085
 20
367.125
 10
390.2243534560064
 20
368.125
 10
388.9068606921865
 20
369.125
 10
390.4673889898535
 20
369.375
 10
391.25
 20
368.1197637793993
 10
391.5
 20
369.0868114946603
 10
391.0871821954785
 20
370.375
 10
389.4265473925676
 20
371.875
 10
390.0856764737307
 20
372.875
 10
389.607387523834
 20
374.375
 10
388.0302747324175
 20
375.625
 10
389.75
 20
375.5876394953906
 10
390.5
 20
376.6383646423222
 10
390.525650363388
 20
374.625
 10
392.25
 20
371.1544481381634
 10
393.25
 20
378.40947835572064
 10
393.5
 20
372.2380659730611
 10
394.0
 20
371.88842349616476
 10
394.75
 20
372.4465251786767
 10
395.75
 20
374.9919139418126
 10
396.0
 20
373.6742611345781
 10
396.58832066576065
 20
373.375
 10
393.4920122870144
 20
368.875
 10
394.33490583352057
 20
367.875
 10
393.64074716987903
 20
366.625
 10
394.2687546100111
 20
365.125
 10
394.0536179084426
 20
361.875
 10
394.67808227472545
 20
360.875
 10
396.70175609254323
 20
365.625
 10
396.5478085766147
 20
368.625
 10
399.8323729798116
 20
373.875
 10
401.0
 20
377.31489025162756
 10
401.5
 20
376.9779943124791
 10
401.31716976881563
 20
375.875
 10
398.776479190352
 20
369.375
 10
398.6600997506235
 20
367.125
 10
401.25
 20
371.0558114266709
 10
402.5
 20
371.1170330165308
 10
403.75
 20
373.1714511866211
 10
405.0
 20
373.5860727775697
 10
405.13653928010854
 20
374.625
 10
407.61277346658915
 20
376.125
 10
407.6579134060816
 20
377.375
 10
408.3463669984476
 20
377.875
 10
408.25
 20
380.8319202355903
 10
409.5
 20
379.62146885002664
 10
410.9907047007643
 20
381.875
 10
411.64199676890837
 20
385.125
 10
413.82670709054264
 20
389.375
 10
415.02446746488454
 20
393.625
 10
416.0
 20
394.13072652154744
 10
418.75
 20
393.38363164445025
 10
421.0
 20
396.9330319654001
 10
422.0096867048058
 20
397.625
 10
421.9277974498378
 20
396.125
 10
418.38806672811114
 20
391.625
 10
415.7446898921947
 20
378.875
 10
416.9143538654847
 20
378.875
 10
415.6326129553756
 20
375.625
 10
417.16213422254475
 20
374.375
 10
417.31053487734914
 20
371.875
 10
413.4519820647049
 20
366.875
 10
414.5
 20
365.34080418063024
 10
418.15187882599423
 20
362.625
 10
418.3812393988236
 20
359.625
 10
422.5
 20
358.35975591511004
 10
423.1516971693866
 20
357.625
 10
422.836284490627
 20
356.625
 10
424.5
 20
356.30674034790843
 10
425.220623497954
 20
358.375
 10
428.21201743069315
 20
360.875
 10
427.5771289292832
 20
364.125
 10
426.0902354850691
 20
365.125
 10
424.9120958131405
 20
367.625
 10
426.5
 20
367.984326146077
 10
428.0
 20
367.4720869611337
 10
430.5
 20
367.93323276059635
 10
431.3270475128668
 20
368.625
 10
431.8947820477903
 20
369.875
 10
429.9866519578877
 20
372.875
 10
430.5
 20
373.588235631719
 10
431.25
 20
373.3669148848515
 10
433.5
 20
370.3781987650665
 10
436.25
 20
370.11698153792514
 10
436.75
 20
372.397119513916
 10
438.12865369882223
 20
373.375
 10
437.25
 20
378.0505039487736
 10
440.0
 20
379.08195628750303
 10
439.58209557708705
 20
376.875
 10
440.5
 20
376.2408676387662
 10
442.11261180889096
 20
377.375
 10
441.30733582085315
 20
379.125
 10
442.04943509999674
 20
380.375
 10
443.75
 20
380.88504518125
 10
445.25
 20
380.2370986199482
 10
446.8027116629812
 20
380.875
 10
447.2342924647769
 20
382.375
 10
447.875
 20
381.99984271991144
 10
450.2758967333608
 20
378.91308338080495
 10
452.2170447748534
 20
377.0148534726401
 10
453.35505363382515
 20
376.3591863839973
 10
457.0
 20
375.5489635887313
 10
461.125
 20
377.6344786959051
 10
464.75
 20
378.4552485547651
 10
467.75
 20
380.16390718102974
 10
473.74126279965674
 20
381.25
 10
479.75
 20
381.2362469726981
 10
482.893048929584
 20
384.125
 10
485.0
 20
384.23796017219126
 10
487.7337285244642
 20
385.875
 10
489.25
 20
385.93370335127094
 10
492.84000443666105
 20
384.625
 10
492.13194153635345
 20
380.125
 10
493.25968341465347
 20
379.6648256994623
 10
494.84272642595045
 20
379.75
 10
495.625
 20
378.8749771821695
 10
495.85742863319825
 20
374.3426400488725
 10
495.91709332321443
 20
373.93422918247745
 10
499.875
 20
367.75
 10
500.8349567584302
 20
366.7900432415698
 10
500.8913757371156
 20
366.75
 10
501.875
 20
366.75
 10
502.5341696965459
 20
367.5
 10
505.625
 20
366.75
 10
508.7198743158117
 20
367.75
 10
509.875
 20
367.5
 10
515.375
 20
361.0
 10
517.5828594651256
 20
355.11237475966516
 10
517.6722999441378
 20
354.9189143814781
 10
519.3366957043464
 20
352.06566450683476
 10
520.6790284014908
 20
352.13971732873114
 10
526.375
 20
352.75
 10
528.7783866840322
 20
354.25
 10
530.125
 20
354.3271936383571
 10
536.625
 20
350.0
 10
538.9299279500417
 20
345.25
 10
538.375
 20
341.0561844762929
 10
537.125
 20
339.25
 10
540.625
 20
335.75
 10
539.375
 20
334.5
 10
537.625
 20
330.5
 10
532.375
 20
327.5
 10
531.875
 20
326.5
 10
532.375
 20
323.2488255359205
 10
531.875
 20
322.2766229485678
 10
527.3989683526838
 20
320.26079440301964
 10
527.3373906048988
 20
320.18527777028487
 10
525.875
 20
317.6686411583737
 10
523.125
 20
315.25
 10
520.125
 20
314.0
 10
516.625
 20
313.75
 10
509.375
 20
316.75
 10
507.375
 20
315.75
 10
506.625
 20
311.77059897603976
 10
505.375
 20
310.5
 10
499.0
 20
310.4963206359487
 10
495.64147573904927
 20
308.375
 10
491.60449196859173
 20
303.125
 10
491.02594754353726
 20
299.625
 10
489.3299085986256
 20
296.625
 10
488.5810941787998
 20
293.625
 10
487.1818998759594
 20
292.5
 10
483.75
 20
291.4097543663183
 10
479.5
 20
287.91075095302995
 10
477.1397456261304
 20
284.875
 10
476.230959304411
 20
281.375
 10
477.625
 20
272.81097640097585
 10
476.875
 20
269.99616816086126
 10
476.02399024656694
 20
268.5
 10
471.375
 20
266.5
 10
468.375
 20
262.25
 10
467.375
 20
260.5
 10
466.375
 20
255.0
 10
464.875
 20
251.75
 10
464.875
 20
246.5
 10
461.875
 20
243.25
 10
460.625
 20
238.5
 10
453.6658545811615
 20
232.7396043028151
 10
451.125
 20
229.5
 10
453.75
 20
226.70947356958987
 10
452.875
 20
222.01388948920592
 10
452.0
 20
220.05361736347947
 10
448.125
 20
216.5
 10
448.125
 20
210.34865035256252
 10
446.6276797857904
 20
209.0
 10
444.25
 20
208.20515572146746
 10
441.875
 20
205.0
 10
439.7388111880673
 20
198.625
 10
440.0
 20
197.58370635971323
 10
442.0947715320591
 20
195.875
 10
442.19476989451425
 20
194.125
 10
441.625
 20
192.59940608992048
 10
440.5198368909521
 20
191.25
 10
437.125
 20
190.0
 10
435.125
 20
185.86075128737178
 10
433.81326029705025
 20
184.5
 10
433.0036337756913
 20
184.0
 10
429.5
 20
184.00865369144992
 10
427.1454541772911
 20
182.125
 10
426.375
 20
175.1237872353644
 10
423.1750653234213
 20
169.375
 10
423.3781940025196
 20
167.625
 10
425.5
 20
163.74679897202932
 10
425.8723726233256
 20
161.375
 10
424.5
 20
160.12185370456365
 10
420.0
 20
159.30791421571854
 10
418.59338363815823
 20
157.875
 10
417.6553403642185
 20
155.125
 10
417.25745560060767
 20
149.5
 10
415.5
 20
145.87695230784925
 10
412.75
 20
145.50896041208367
 10
409.2357193033451
 20
141.125
 10
408.0
 20
140.53868411444307
 10
404.75
 20
142.48772212698464
 10
401.75
 20
142.33316491345312
 10
398.0
 20
143.51558538552155
 10
395.5
 20
142.7281455623003
 10
392.0
 20
144.48160457684776
 10
389.75
 20
143.97533835908246
 10
384.8913376318016
 20
140.125
 10
385.3935699947957
 20
135.375
 10
385.0
 20
134.8579456638969
 10
382.875
 20
134.75
 10
382.375
 20
131.84385471250164
 10
381.375
 20
130.35368615000922
 10
379.80343224641075
 20
129.25
 10
375.8224302118956
 20
128.25
 10
373.42585858931045
 20
128.5
 10
368.75
 20
131.79773180928257
 10
364.4875031142874
 20
132.72551242580744
 10
364.06390320018664
 20
132.2415165853907
 10
362.875
 20
130.29827075568926
 10
362.0083646015023
 20
129.75
 10
350.24237702289224
 20
129.25493871167083
 10
348.69684820574867
 20
127.56479874597488
 10
347.0
 20
125.56253908721294
 10
346.1336234050042
 20
125.75
 10
341.6606208984719
 20
129.22234784690303
 10
341.4229579991639
 20
129.17312792322073
 10
338.99671142889423
 20
128.25
 10
337.8866144790737
 20
129.1656144590305
 10
336.47757157665524
 20
130.05677548904924
 10
335.125
 20
130.25
 10
332.6681884145604
 20
129.0
 10
330.625
 20
128.96919723427902
 10
327.375
 20
130.75
 10
323.5
 20
131.14193017325726
 10
319.5
 20
130.47147523609996
 10
319.04168264648996
 20
130.28853222811972
 10
319.22266553668095
 20
130.25
 10
311.375
 20
127.0
 10
304.125
 20
131.5
 10
302.375
 20
132.0
 10
292.75
 20
130.72512530505577
 10
288.875
 20
128.0
 10
289.26455095099436
 20
124.5
 10
287.447065514263
 20
123.625
 10
284.5972129462307
 20
120.0
 10
282.125
 20
119.25
 10
280.625
 20
116.5
 10
278.8193518687445
 20
115.75
 10
274.625
 20
115.5
 10
273.125
 20
114.25
 10
271.3793138379564
 20
110.5
 10
268.625
 20
110.0
 10
261.875
 20
110.75
 10
260.125
 20
112.0
 10
259.375
 20
113.85159549310617
 10
260.5
 20
112.06669882447966
 10
259.375
 20
114.0
 10
257.25
 20
114.56482492253609
 10
255.91312875342206
 20
113.875
 10
254.85776212602087
 20
112.125
 10
254.25
 20
108.57097982292052
 10
251.125
 20
108.25
 10
249.375
 20
107.0
 10
249.63851867487725
 20
104.125
 10
242.5
 20
104.90705741393577
 10
237.875
 20
102.30983026233612
 10
236.75
 20
102.19389032807521
 10
235.625
 20
102.75
 10
234.625
 20
100.56389873674081
 10
233.5
 20
99.69453954878513
 10
232.16494602734141
 20
99.75
 10
226.0
 20
102.4807533741963
 10
224.125
 20
102.25
 10
221.59267626608337
 20
99.875
 10
221.25
 20
98.18267533722741
 10
218.51558126132855
 20
93.375
 10
216.83157087037165
 20
91.625
 10
213.35177299677488
 20
89.0
 10
210.0
 20
89.24599797167768
 10
204.845193781232
 20
84.0
 10
203.18758525113097
 20
84.0
 10
201.0
 20
85.88612669471709
 10
198.60477309700846
 20
85.0
 10
196.74199236485106
 20
85.0
 10
195.25
 20
86.43546279457392
 10
192.4738862207106
 20
87.25
 10
190.5
 20
88.81331139082532
 10
189.0
 20
89.18781536284781
 10
183.25
 20
89.20596108376316
 10
179.5
 20
87.69759142085485
 10
170.75
 20
90.21219020652259
 10
165.5
 20
90.25420069945865
 10
164.0
 20
89.88581803641445
 10
163.0
 20
88.45051524434186
 10
162.25
 20
88.2716031892384
 10
160.42190418205573
 20
91.125
 10
158.25
 20
92.7683279928147
 10
154.65716111128697
 20
93.89308062648871
 10
157.93747171937338
 20
92.75
 10
151.4771536139849
 20
94.88859473621679
 10
148.725534957576
 20
95.75
 10
146.875
 20
95.75
 10
146.125
 20
96.75
 10
146.125
 20
98.84382704147103
 10
145.78593923502117
 20
100.18671267742585
 10
145.125
 20
102.5
 10
141.125
 20
106.75
 10
136.0
 20
108.47706455101189
  0
LWPOLYLINE
  5
31
330
17
100
AcDbEntity
  8
PASS_03
100
AcDbPolyline
 90
3
 70
1
 10
186.0858587087094
 20
99.81464641639185
 10
186.66737298485592
 20
100.125
 10
186.56601923424458
 20
100.23430947936619
  0
LWPOLYLINE
  5
32
330
17
100
AcDbEntity
  8
PASS_03
100
AcDbPolyline
 90
4
 70
1
 10
183.0
 20
100.56319433037646
 10
181.89038384284052
 20
100.52301086094812
 10
185.5
 20
99.50197421349964
 10
185.62476456000434
 20
99.56856093353896
  0
LWPOLYLINE
  5
33
330
17
100
AcDbEntity
  8
PASS_03
100
AcDbPolyline
 90
3
 70
1
 10
180.75854568206935
 20
100.96323231044674
 10
180.64601549755014
 20
100.875
 10
180.83027301769175
 20
100.8228798652152
  0
LWPOLYLINE
  5
34
330
17
100
AcDbEntity
  8
PASS_03
100
AcDbPolyline
 90
3
 70
1
 10
185.06694256497275
 20
101.85105567040246
 10
185.0
 20
101.92325286962273
 10
183.5
 20
101.39174758314178
  0
LWPOLYLINE
  5
35
330
17
100
AcDbEntity
  8
PASS_03
100
AcDbPolyline
 90
3
 70
1
 10
204.5
 20
102.98816163410305
 10
205.9098930909147
 20
99.875
 10
204.0
 20
106.5677723802568
  0
LWPOLYLINE
  5
36
330
17
100
AcDbEntity
  8
PASS_03
100
AcDbPolyline
 90
3
 70
1
 10
203.71870900143554
 20
100.83538583032751
 10
205.25
 20
99.69798216873548
 10
205.9098930909147
 20
99.875
  0
LWPOLYLINE
  5
37
330
17
100
AcDbEntity
  8
PASS_03
100
AcDbPolyline
 90
3
 70
1
 10
202.75
 20
101.2599664957113
 10
200.75
 20
101.29112169398717
 10
203.2992069978775
 20
101.01925161410423
  0
LWPOLYLINE
  5
38
330
17
100
AcDbEntity
  8
PASS_03
100
AcDbPolyline
 90
3
 70
1
 10
103.97754737794527
 20
139.875
 10
103.99922802753407
 20
139.8512165640092
 10
102.97252183643653
 20
143.625
  0
LWPOLYLINE
  5
39
330
17
100
AcDbEntity
  8
PASS_03
100
AcDbPolyline
 90
3
 70
1
 10
110.51860405866445
 20
134.66722093673863
 10
110.5
 20
134.71386256886169
 10
107.75
 20
137.72118794005488
  0
LWPOLYLINE
  5
3A
330
17
100
AcDbEntity
  8
PASS_03
100
AcDbPolyline
 90
3
 70
1
 10
115.3979306890052
 20
124.91857758295451
 10
115.51403725955298
 20
125.125
 10
113.42726955611754
 20
127.375
  0
LWPOLYLINE
  5
3B
330
17
100
AcDbEntity
  8
PASS_03
100
AcDbPolyline
 90
3
 70
1
 10
114.7773630946858
 20
125.10792757876018
 10
115.25
 20
124.65557601262489
 10
115.36069460142251
 20
124.85237665079478
  0
LWPOLYLINE
  5
3C
330
17
100
AcDbEntity
  8
PASS_03
100
AcDbPolyline
 90
3
 70
1
 10
104.71690872322826
 20
137.625
 10
103.49321193022898
 20
137.38005995188976
 10
103.5
 20
137.36697786369191
  0
LWPOLYLINE
  5
3D
330
17
100
AcDbEntity
  8
PASS_03
100
AcDbPolyline
 90
3
 70
1
 10
104.5
 20
138.13951262090762
 10
104.32942727365138
 20
138.16660374740596
 10
104.71690872322826
 20
137.625
  0
LWPOLYLINE
  5
3E
330
17
100
AcDbEntity
  8
PASS_03
100
AcDbPolyline
 90
4
 70
1
 10
101.25
 20
141.40884406220403
 10
99.21391731587151
 20
141.59180598748264
 10
100.0
 20
141.20627132593955
 10
101.2640637439958
 20
141.36944270792395
  0
LWPOLYLINE
  5
3F
330
17
100
AcDbEntity
  8
PASS_03
100
AcDbPolyline
 90
3
 70
1
 10
98.96702158735337
 20
140.125
 10
98.68094225374853
 20
141.63969900491836
 10
98.5
 20
141.6559584345418
  0
LWPOLYLINE
  5
40
330
17
100
AcDbEntity
  8
PASS_03
100
AcDbPolyline
 90
3
 70
1
 10
103.0
 20
138.33058671268333
 10
100.32733992480587
 20
138.85531143205995
 10
100.5
 20
138.69415465163735
  0
LWPOLYLINE
  5
41
330
17
100
AcDbEntity
  8
PASS_03
100
AcDbPolyline
 90
3
 70
1
 10
230.02570349615817
 20
241.9063003412613
 10
231.25
 20
242.8526356988253
 10
231.21530166224463
 20
243.06661265168813
  0
LWPOLYLINE
  5
42
330
17
100
AcDbEntity
  8
PASS_03
100
AcDbPolyline
 90
3
 70
1
 10
229.99361314580358
 20
241.875
 10
229.98934547030038
 20
241.8433507257559
 10
229.99830422088644
 20
241.879575588903
  0
LWPOLYLINE
  5
43
330
17
100
AcDbEntity
  8
PASS_03
100
AcDbPolyline
 90
3
 70
1
 10
225.25
 20
241.50531282883964
 10
229.5
 20
239.8646738418548
 10
229.56498313490695
 20
240.12743427326305
  0
LWPOLYLINE
  5
44
330
17
100
AcDbEntity
  8
PASS_03
100
AcDbPolyline
 90
3
 70
1
 10
222.64838159612913
 20
235.6632377186852
 10
222.75
 20
235.5543375727808
 10
224.0
 20
235.67345375630308
  0
LWPOLYLINE
  5
45
330
17
100
AcDbEntity
  8
PASS_03
100
AcDbPolyline
 90
3
 70
1
 10
222.6387318496532
 20
237.375
 10
222.21749561700318
 20
236.125
 10
222.51193406276732
 20
235.80946276971318
  0
LWPOLYLINE
  5
46
330
17
100
AcDbEntity
  8
PASS_03
100
AcDbPolyline
 90
3
 70
1
 10
222.1666008799725
 20
244.08363754097536
 10
221.99882166240621
 20
243.875
 10
222.02435531497315
 20
243.61563744414033
  0
LWPOLYLINE
  5
47
330
17
100
AcDbEntity
  8
PASS_03
100
AcDbPolyline
 90
3
 70
1
 10
224.91684339310885
 20
247.41280187228944
 10
224.8134026756637
 20
247.375
 10
223.99058189830293
 20
246.35180233498428
  0
LWPOLYLINE
  5
48
330
17
100
AcDbEntity
  8
PASS_03
100
AcDbPolyline
 90
3
 70
1
 10
228.4485815411287
 20
248.25209235153423
 10
228.0
 20
248.5395254215905
 10
227.80147626642136
 20
248.46697595549517
  0
LWPOLYLINE
  5
49
330
17
100
AcDbEntity
  8
PASS_03
100
AcDbPolyline
 90
3
 70
1
 10
76.05568635903496
 20
298.50919911495174
 10
76.25
 20
298.0721270090271
 10
76.40422856709954
 20
298.02040104627577
  0
LWPOLYLINE
  5
4A
330
17
100
AcDbEntity
  8
PASS_03
100
AcDbPolyline
 90
4
 70
1
 10
76.43679335252335
 20
301.375
 10
76.37801346385797
 20
301.4866460007173
 10
75.78191342669453
 20
299.125
 10
75.83080466983442
 20
299.01502831456247
  0
LWPOLYLINE
  5
4B
330
17
100
AcDbEntity
  8
PASS_03
100
AcDbPolyline
 90
3
 70
1
 10
75.23367594684477
 20
307.1472733274384
 10
75.0713842843495
 20
306.875
 10
75.09464399326379
 20
306.71338510878786
  0
LWPOLYLINE
  5
4C
330
17
100
AcDbEntity
  8
PASS_03
100
AcDbPolyline
 90
3
 70
1
 10
77.05075789226638
 20
307.4786933233359
 10
75.75
 20
308.0134993912276
 10
75.69217392516242
 20
307.9164857950474
  0
LWPOLYLINE
  5
4D
330
17
100
AcDbEntity
  8
PASS_03
100
AcDbPolyline
 90
3
 70
1
 10
78.5
 20
306.52362603501933
 10
77.75
 20
307.1912002207649
 10
77.60006471271818
 20
307.2528460519424
  0
LWPOLYLINE
  5
4E
330
17
100
AcDbEntity
  8
PASS_03
100
AcDbPolyline
 90
3
 70
1
 10
79.30920049868838
 20
303.875
 10
79.38944945594243
 20
303.78342205551365
 10
78.5
 20
306.52362603501933
  0
LWPOLYLINE
  5
4F
330
17
100
AcDbEntity
  8
PASS_03
100
AcDbPolyline
 90
3
 70
1
 10
92.75
 20
301.6448403478711
 10
92.88734545394321
 20
301.6658492924383
 10
90.55501403503615
 20
302.375
  0
LWPOLYLINE
  5
50
330
17
100
AcDbEntity
  8
PASS_03
100
AcDbPolyline
 90
3
 70
1
 10
105.75
 20
303.63337561811625
 10
105.95255081799685
 20
304.08919786694554
 10
105.21348842275931
 20
303.5513085262518
  0
LWPOLYLINE
  5
51
330
17
100
AcDbEntity
  8
PASS_03
100
AcDbPolyline
 90
3
 70
1
 10
104.55185442814896
 20
312.9033173271291
 10
104.54487068169092
 20
312.875
 10
105.0
 20
306.77496830568884
  0
LWPOLYLINE
  5
52
330
17
100
AcDbEntity
  8
PASS_03
100
AcDbPolyline
 90
3
 70
1
 10
105.25
 20
322.26470450132047
 10
105.55580096510036
 20
322.51957102902406
 10
102.14834918424557
 20
321.125
  0
LWPOLYLINE
  5
53
330
17
100
AcDbEntity
  8
PASS_03
100
AcDbPolyline
 90
3
 70
1
 10
107.18210902204335
 20
323.875
 10
107.32190757602828
 20
324.2439786445048
 10
106.56493219441757
 20
323.36062060625125
  0
LWPOLYLINE
  5
54
330
17
100
AcDbEntity
  8
PASS_03
100
AcDbPolyline
 90
3
 70
1
 10
108.41346836280096
 20
327.125
 10
108.38307857433209
 20
327.24298371654623
 10
108.16862050909636
 20
326.47875848608874
  0
LWPOLYLINE
  5
55
330
17
100
AcDbEntity
  8
PASS_03
100
AcDbPolyline
 90
3
 70
1
 10
115.8963549064706
 20
337.7083459591765
 10
115.75
 20
337.82935563679916
 10
115.33865125516728
 20
337.55187548473
  0
LWPOLYLINE
  5
56
330
17
100
AcDbEntity
  8
PASS_03
100
AcDbPolyline
 90
3
 70
1
 10
118.75
 20
335.51181090568195
 10
120.75
 20
335.73801308073973
 10
118.67806618279435
 20
335.5700279623313
  0
LWPOLYLINE
  5
57
330
17
100
AcDbEntity
  8
PASS_03
100
AcDbPolyline
 90
3
 70
1
 10
194.5
 20
307.69415241254455
 10
194.5985152741941
 20
307.7241014696594
 10
182.0
 20
308.68756189461055
  0
LWPOLYLINE
  5
58
330
17
100
AcDbEntity
  8
PASS_03
100
AcDbPolyline
 90
3
 70
1
 10
220.25
 20
311.66491853657544
 10
216.0
 20
311.70161973835906
 10
215.8571266926152
 20
311.6849388643309
  0
LWPOLYLINE
  5
59
330
17
100
AcDbEntity
  8
PASS_03
100
AcDbPolyline
 90
3
 70
1
 10
231.3330818901276
 20
312.30945370543196
 10
231.25
 20
312.51848716366607
 10
229.7683843763167
 20
311.40500158572064
  0
LWPOLYLINE
  5
5A
330
17
100
AcDbEntity
  8
PASS_03
100
AcDbPolyline
 90
3
 70
1
 10
198.86528875451074
 20
296.2092093408755
 10
199.0
 20
296.1078018293115
 10
199.0524847664063
 20
296.13736116006794
  0
LWPOLYLINE
  5
5B
330
17
100
AcDbEntity
  8
PASS_03
100
AcDbPolyline
 90
3
 70
1
 10
197.61952679592233
 20
299.125
 10
198.31294626341108
 20
296.625
 10
198.37264906358735
 20
296.5800571121417
  0
LWPOLYLINE
  5
5C
330
17
100
AcDbEntity
  8
PASS_03
100
AcDbPolyline
 90
3
 70
1
 10
137.30898080362712
 20
274.19855811314636
 10
137.7072826452856
 20
274.375
 10
137.5601495587535
 20
274.4984257588528
  0
LWPOLYLINE
  5
5D
330
17
100
AcDbEntity
  8
PASS_03
100
AcDbPolyline
 90
3
 70
1
 10
134.75
 20
269.66201528654904
 10
136.0
 20
270.42856500629387
 10
135.99974030298787
 20
270.4917369019592
  0
LWPOLYLINE
  5
5E
330
17
100
AcDbEntity
  8
PASS_03
100
AcDbPolyline
 90
3
 70
1
 10
130.4075264788675
 20
264.125
 10
130.38050527809438
 20
263.6142660528608
 10
130.58768647070744
 20
264.6140490948152
  0
LWPOLYLINE
  5
5F
330
17
100
AcDbEntity
  8
PASS_03
100
AcDbPolyline
 90
3
 70
1
 10
130.3017132627127
 20
262.125
 10
131.0171694035502
 20
261.125
 10
130.32942356608498
 20
262.6487588342789
  0
LWPOLYLINE
  5
60
330
17
100
AcDbEntity
  8
PASS_03
100
AcDbPolyline
 90
3
 70
1
 10
130.60693842887818
 20
260.40095758009994
 10
130.75624716740148
 20
260.375
 10
131.0171694035502
 20
261.125
  0
LWPOLYLINE
  5
61
330
17
100
AcDbEntity
  8
PASS_03
100
AcDbPolyline
 90
3
 70
1
 10
117.74555989859067
 20
258.456700065199
 10
118.01062337208994
 20
257.875
 10
118.75
 20
257.58377587234156
  0
LWPOLYLINE
  5
62
330
17
100
AcDbEntity
  8
PASS_03
100
AcDbPolyline
 90
3
 70
1
 10
117.0
 20
259.1046404170338
 10
116.96413192528351
 20
258.82300866103805
 10
117.17234842747365
 20
258.9548583526463
  0
LWPOLYLINE
  5
63
330
17
100
AcDbEntity
  8
PASS_03
100
AcDbPolyline
 90
3
 70
1
 10
115.75
 20
246.55438216135616
 10
115.70789007491311
 20
246.43326210690168
 10
117.5
 20
247.48018153672953
  0
LWPOLYLINE
  5
64
330
17
100
AcDbEntity
  8
PASS_03
100
AcDbPolyline
 90
3
 70
1
 10
161.81052438597266
 20
296.875
 10
161.0
 20
295.941338440907
 10
163.05322256701652
 20
297.21788971991106
  0
LWPOLYLINE
  5
65
330
17
100
AcDbEntity
  8
PASS_03
100
AcDbPolyline
 90
3
 70
1
 10
163.27843106465974
 20
297.70411421245984
 10
163.25467021723853
 20
297.3431358864369
 10
163.30592089405948
 20
297.375
  0
LWPOLYLINE
  5
66
330
17
100
AcDbEntity
  8
PASS_03
100
AcDbPolyline
 90
3
 70
1
 10
162.79294282511194
 20
299.7836816913704
 10
163.15335793224932
 20
299.20151693819423
 10
163.13886746179185
 20
299.375
  0
LWPOLYLINE
  5
67
330
17
100
AcDbEntity
  8
PASS_03
100
AcDbPolyline
 90
3
 70
1
 10
160.5
 20
301.0090070787793
 10
162.34219024032507
 20
300.316209037524
 10
162.25
 20
300.4251242732398
  0
LWPOLYLINE
  5
68
330
17
100
AcDbEntity
  8
PASS_03
100
AcDbPolyline
 90
4
 70
1
 10
153.0384422337159
 20
297.875
 10
153.75
 20
296.9249121605103
 10
153.9707608542728
 20
296.8683072987878
 10
153.15075868369084
 20
298.03648623668767
  0
LWPOLYLINE
  5
69
330
17
100
AcDbEntity
  8
PASS_03
100
AcDbPolyline
 90
3
 70
1
 10
279.6135224437698
 20
116.79612793276883
 10
280.04855527347127
 20
116.875
 10
280.19701413500155
 20
117.13631988706322
  0
LWPOLYLINE
  5
6A
330
17
100
AcDbEntity
  8
PASS_03
100
AcDbPolyline
 90
3
 70
1
 10
282.03694590533433
 20
120.375
 10
281.3807600845928
 20
120.99986346532769
 10
281.23861135478717
 20
120.875
  0
LWPOLYLINE
  5
6B
330
17
100
AcDbEntity
  8
PASS_03
100
AcDbPolyline
 90
3
 70
1
 10
282.0856823855334
 20
122.07474566077177
 10
282.1299355889184
 20
122.125
 10
282.0832197730759
 20
122.23873078502233
  0
LWPOLYLINE
  5
6C
330
17
100
AcDbEntity
  8
PASS_03
100
AcDbPolyline
 90
3
 70
1
 10
280.9779726770302
 20
124.92948160698488
 10
280.36288543121145
 20
126.42692640298277
 10
280.4076021591248
 20
126.125
  0
LWPOLYLINE
  5
6D
330
17
100
AcDbEntity
  8
PASS_03
100
AcDbPolyline
 90
3
 70
1
 10
280.001470318111
 20
128.86719361782818
 10
280.00113571208044
 20
128.875
 10
280.00023455144355
 20
128.87553748828174
  0
LWPOLYLINE
  5
6E
330
17
100
AcDbEntity
  8
PASS_03
100
AcDbPolyline
 90
3
 70
1
 10
265.67048748431125
 20
137.06907474787812
 10
265.0
 20
137.12523265651438
 10
264.8900990610426
 20
136.99440804334256
  0
LWPOLYLINE
  5
6F
330
17
100
AcDbEntity
  8
PASS_03
100
AcDbPolyline
 90
3
 70
1
 10
264.66456484427596
 20
136.72593511722005
 10
264.1597413861074
 20
136.125
 10
263.7933816841959
 20
134.125
  0
LWPOLYLINE
  5
70
330
17
100
AcDbEntity
  8
PASS_03
100
AcDbPolyline
 90
3
 70
1
 10
261.0441778412603
 20
132.125
 10
258.9687994004922
 20
127.26261146628744
 10
259.0
 20
127.28579277657147
  0
LWPOLYLINE
  5
71
330
17
100
AcDbEntity
  8
PASS_03
100
AcDbPolyline
 90
3
 70
1
 10
258.6033785985394
 20
126.99111242050172
 10
257.8177782749799
 20
126.64814782758577
 10
258.0
 20
126.54281633862696
  0
LWPOLYLINE
  5
72
330
17
100
AcDbEntity
  8
PASS_03
100
AcDbPolyline
 90
3
 70
1
 10
256.9625313460337
 20
127.14251496434414
 10
256.1345548067811
 20
127.69342429875954
 10
256.25
 20
127.55438675185619
  0
LWPOLYLINE
  5
73
330
17
100
AcDbEntity
  8
PASS_03
100
AcDbPolyline
 90
3
 70
1
 10
255.68955157314173
 20
128.22936829299724
 10
254.7024803762116
 20
129.64874696066846
 10
254.73831446691918
 20
129.375
  0
LWPOLYLINE
  5
74
330
17
100
AcDbEntity
  8
PASS_03
100
AcDbPolyline
 90
3
 70
1
 10
256.2239886189577
 20
148.1275329219884
 10
257.75
 20
148.39596868447285
 10
256.25
 20
148.16185787596
  0
LWPOLYLINE
  5
75
330
17
100
AcDbEntity
  8
PASS_03
100
AcDbPolyline
 90
3
 70
1
 10
262.01371261665145
 20
151.86315049759926
 10
262.052599392262
 20
151.875
 10
262.522455678504
 20
153.125
  0
LWPOLYLINE
  5
76
330
17
100
AcDbEntity
  8
PASS_03
100
AcDbPolyline
 90
3
 70
1
 10
265.49451718436546
 20
156.37551230648089
 10
269.25
 20
156.5922888440473
 10
265.5
 20
156.38534380557206
  0
LWPOLYLINE
  5
77
330
17
100
AcDbEntity
  8
PASS_03
100
AcDbPolyline
 90
3
 70
1
 10
279.4001664741455
 20
168.125
 10
281.62863529992944
 20
170.4761139311379
 10
281.5
 20
170.5775716253031
  0
LWPOLYLINE
  5
78
330
17
100
AcDbEntity
  8
PASS_03
100
AcDbPolyline
 90
3
 70
1
 10
304.25
 20
131.7803492410095
 10
310.72296892130584
 20
127.625
 10
311.317368820149
 20
127.625
  0
LWPOLYLINE
  5
79
330
17
100
AcDbEntity
  8
PASS_03
100
AcDbPolyline
 90
3
 70
1
 10
312.36887751849997
 20
127.625
 10
312.74003613152075
 20
127.625
 10
313.7668301354043
 20
128.18300997887533
  0
LWPOLYLINE
  5
7A
330
17
100
AcDbEntity
  8
PASS_03
100
AcDbPolyline
 90
3
 70
1
 10
229.43435155473432
 20
174.9416159209329
 10
229.12089948348535
 20
175.13912111676518
 10
229.25
 20
174.9825620820702
  0
LWPOLYLINE
  5
7B
330
17
100
AcDbEntity
  8
PASS_03
100
AcDbPolyline
 90
3
 70
1
 10
225.09689850311167
 20
190.125
 10
224.77912512916276
 20
194.8906181024077
 10
224.71455213441794
 20
194.625
  0
LWPOLYLINE
  5
7C
330
17
100
AcDbEntity
  8
PASS_03
100
AcDbPolyline
 90
3
 70
1
 10
225.227833833937
 20
196.73636112806363
 10
225.4062844972066
 20
196.7155900483268
 10
225.25
 20
196.82754065273295
  0
LWPOLYLINE
  5
7D
330
17
100
AcDbEntity
  8
PASS_03
100
AcDbPolyline
 90
3
 70
1
 10
243.86522737596533
 20
197.125
 10
244.01293891203204
 20
193.82441456023764
 10
244.03240399323522
 20
193.875
  0
LWPOLYLINE
  5
7E
330
17
100
AcDbEntity
  8
PASS_03
100
AcDbPolyline
 90
3
 70
1
 10
234.85843357001914
 20
180.45723727390984
 10
234.83168038745737
 20
180.37021689752314
 10
234.89779447161058
 20
180.375
  0
LWPOLYLINE
  5
7F
330
17
100
AcDbEntity
  8
PASS_03
100
AcDbPolyline
 90
3
 70
1
 10
230.25
 20
166.18529362880886
 10
228.1295691184869
 20
169.99717972694776
 10
228.03173428943148
 20
169.875
  0
LWPOLYLINE
  5
80
330
17
100
AcDbEntity
  8
PASS_03
100
AcDbPolyline
 90
3
 70
1
 10
228.82601693045905
 20
170.86692932759286
 10
229.86889901871444
 20
171.875
 10
230.24314582864832
 20
172.6366919315883
  0
LWPOLYLINE
  5
81
330
17
100
AcDbEntity
  8
PASS_03
100
AcDbPolyline
 90
3
 70
1
 10
230.80722479019823
 20
173.78474284982374
 10
230.97440544123273
 20
174.125
 10
230.75814023652637
 20
174.52640100001983
  0
LWPOLYLINE
  5
82
330
17
100
AcDbEntity
  8
PASS_03
100
AcDbPolyline
 90
3
 70
1
 10
230.6839706556261
 20
174.66406412518526
 10
230.5
 20
175.0055245336818
 10
229.9749421040108
 20
174.82154583108806
  0
LWPOLYLINE
  5
83
330
17
100
AcDbEntity
  8
PASS_03
100
AcDbPolyline
 90
11
 70
1
 10
232.75
 20
199.4528907952219
 10
233.1679294567809
 20
196.375
 10
235.0
 20
193.58235869765196
 10
235.61162990771152
 20
194.375
 10
235.37867920321088
 20
196.125
 10
236.2394626519452
 20
196.625
 10
236.25
 20
197.9158749678005
 10
237.25
 20
197.64193377464218
 10
237.28519702730736
 20
198.625
 10
236.0
 20
199.36563586288037
 10
234.25
 20
199.00456736042557
  0
LWPOLYLINE
  5
84
330
17
100
AcDbEntity
  8
PASS_03
100
AcDbPolyline
 90
3
 70
1
 10
120.2220915060303
 20
114.375
 10
120.09125324509512
 20
114.46342401880236
 10
120.18367761677013
 20
114.19835785415847
  0
LWPOLYLINE
  5
85
330
17
100
AcDbEntity
  8
PASS_03
100
AcDbPolyline
 90
3
 70
1
 10
121.25
 20
127.91633898666839
 10
121.34436814156054
 20
128.22068726629078
 10
121.21947883224621
 20
127.91760801805995
  0
LWPOLYLINE
  5
86
330
17
100
AcDbEntity
  8
PASS_03
100
AcDbPolyline
 90
3
 70
1
 10
121.70228160699877
 20
129.375
 10
121.62285878469233
 20
129.41605254985197
 10
121.66990979199281
 20
129.27059711527224
  0
LWPOLYLINE
  5
87
330
17
100
AcDbEntity
  8
PASS_03
100
AcDbPolyline
 90
3
 70
1
 10
120.0
 20
130.25488563619368
 10
119.12615583775123
 20
129.625
 10
120.15278335067961
 20
130.17591405172737
  0
LWPOLYLINE
  5
88
330
17
100
AcDbEntity
  8
PASS_03
100
AcDbPolyline
 90
3
 70
1
 10
161.0
 20
120.67563603089296
 10
163.0
 20
120.88518020422529
 10
160.85828439927414
 20
120.82071086889677
  0
LWPOLYLINE
  5
89
330
17
100
AcDbEntity
  8
PASS_03
100
AcDbPolyline
 90
3
 70
1
 10
188.0
 20
119.83967382729293
 10
188.78637788185262
 20
120.15866886648863
 10
187.07194641215918
 20
119.95050605322513
  0
LWPOLYLINE
  5
8A
330
17
100
AcDbEntity
  8
PASS_03
100
AcDbPolyline
 90
3
 70
1
 10
191.80210926432218
 20
120.39648364257506
 10
191.75
 20
120.51850589028857
 10
191.14731358410404
 20
120.445328920508
  0
LWPOLYLINE
  5
8B
330
17
100
AcDbEntity
  8
PASS_03
100
AcDbPolyline
 90
3
 70
1
 10
188.64992102989302
 20
116.22920562846184
 10
189.25
 20
116.5500393923003
 10
190.75
 20
118.75286030315777
  0
LWPOLYLINE
  5
8C
330
17
100
AcDbEntity
  8
PASS_03
100
AcDbPolyline
 90
3
 70
1
 10
183.75
 20
116.43619603138481
 10
188.0
 20
115.88172367924243
 10
188.33769789164475
 20
116.0622747250446
  0
LWPOLYLINE
  5
8D
330
17
100
AcDbEntity
  8
PASS_03
100
AcDbPolyline
 90
3
 70
1
 10
175.3025512631567
 20
109.375
 10
175.51610470912237
 20
109.20808859538701
 10
176.761318272871
 20
110.12874281453382
  0
LWPOLYLINE
  5
8E
330
17
100
AcDbEntity
  8
PASS_03
100
AcDbPolyline
 90
3
 70
1
 10
176.9425588487615
 20
108.09318519035631
 10
176.9319558957446
 20
108.125
 10
176.74704758037453
 20
108.245994995305
  0
LWPOLYLINE
  5
8F
330
17
100
AcDbEntity
  8
PASS_03
100
AcDbPolyline
 90
3
 70
1
 10
177.5
 20
106.39855031093006
 10
177.51049504825076
 20
106.38905785453524
 10
177.42640587530144
 20
106.64137256593844
  0
LWPOLYLINE
  5
90
330
17
100
AcDbEntity
  8
PASS_03
100
AcDbPolyline
 90
3
 70
1
 10
178.75
 20
105.26796279860957
 10
178.82352861009514
 20
105.29561262217914
 10
177.63875293999655
 20
106.2730524379238
  0
LWPOLYLINE
  5
91
330
17
100
AcDbEntity
  8
PASS_03
100
AcDbPolyline
 90
3
 70
1
 10
183.596987031937
 20
106.79999780832507
 10
183.5
 20
106.95129648894671
 10
183.3877945522052
 20
106.97722080315854
  0
LWPOLYLINE
  5
92
330
17
100
AcDbEntity
  8
PASS_03
100
AcDbPolyline
 90
3
 70
1
 10
188.75
 20
102.35618276419717
 10
188.75
 20
102.83299096409418
 10
188.71674622366308
 20
102.85955815156663
  0
LWPOLYLINE
  5
93
330
17
100
AcDbEntity
  8
PASS_03
100
AcDbPolyline
 90
3
 70
1
 10
204.5
 20
95.83701278062642
 10
204.70178001738057
 20
95.89609429867494
 10
204.33863546733102
 20
95.97643781683465
  0
LWPOLYLINE
  5
94
330
17
100
AcDbEntity
  8
PASS_03
100
AcDbPolyline
 90
3
 70
1
 10
207.19119819653767
 20
96.625
 10
207.47081510625108
 20
97.31869071575724
 10
207.0420404313281
 20
96.58132636317657
  0
LWPOLYLINE
  5
95
330
17
100
AcDbEntity
  8
PASS_03
100
AcDbPolyline
 90
3
 70
1
 10
207.9973698905272
 20
98.625
 10
207.00567033534986
 20
101.375
 10
207.87980630415228
 20
98.33334107113551
  0
LWPOLYLINE
  5
96
330
17
100
AcDbEntity
  8
PASS_03
100
AcDbPolyline
 90
3
 70
1
 10
208.2302736895784
 20
107.125
 10
208.14931929433519
 20
107.26420133476826
 10
207.38758365745122
 20
105.875
  0
LWPOLYLINE
  5
97
330
17
100
AcDbEntity
  8
PASS_03
100
AcDbPolyline
 90
3
 70
1
 10
220.5
 20
99.37193272460112
 10
220.49895332208095
 20
99.37432873504375
 10
215.5
 20
98.72859463176364
  0
LWPOLYLINE
  5
98
330
17
100
AcDbEntity
  8
PASS_03
100
AcDbPolyline
 90
3
 70
1
 10
108.71712732989367
 20
168.95169042117234
 10
108.64147616516043
 20
168.875
 10
108.74727806283028
 20
168.8463933418178
  0
LWPOLYLINE
  5
99
330
17
100
AcDbEntity
  8
PASS_03
100
AcDbPolyline
 90
3
 70
1
 10
107.81017167577923
 20
172.5939700385214
 10
107.84655293584987
 20
172.375
 10
108.03156666231158
 20
172.16973168019976
  0
LWPOLYLINE
  5
9A
330
17
100
AcDbEntity
  8
PASS_03
100
AcDbPolyline
 90
3
 70
1
 10
104.36834344317916
 20
215.875
 10
104.1096225103921
 20
217.23584597993678
 10
106.29402218576952
 20
201.875
  0
LWPOLYLINE
  5
9B
330
17
100
AcDbEntity
  8
PASS_03
100
AcDbPolyline
 90
3
 70
1
 10
103.0375194144426
 20
222.875
 10
102.90672010420525
 20
222.8865899718623
 10
103.19765042025487
 20
222.03272708000313
  0
LWPOLYLINE
  5
9C
330
17
100
AcDbEntity
  8
PASS_03
100
AcDbPolyline
 90
3
 70
1
 10
100.25100234172032
 20
223.1219099753509
 10
100.25
 20
223.11551913609784
 10
100.32020972132328
 20
223.11577759146596
  0
LWPOLYLINE
  5
9D
330
17
100
AcDbEntity
  8
PASS_03
100
AcDbPolyline
 90
3
 70
1
 10
100.43641312869958
 20
223.65335242554352
 10
100.32990717734752
 20
223.625
 10
100.27280868899363
 20
223.26094525373443
  0
LWPOLYLINE
  5
9E
330
17
100
AcDbEntity
  8
PASS_03
100
AcDbPolyline
 90
3
 70
1
 10
307.5
 20
297.50538978958264
 10
307.7754793553365
 20
297.8590573021748
 10
307.2220707144133
 20
297.55715927834507
  0
LWPOLYLINE
  5
9F
330
17
100
AcDbEntity
  8
PASS_03
100
AcDbPolyline
 90
3
 70
1
 10
308.1773583991472
 20
298.375
 10
308.37109716092795
 20
300.625
 10
308.0283864559513
 20
298.1837459710665
  0
LWPOLYLINE
  5
A0
330
17
100
AcDbEntity
  8
PASS_03
100
AcDbPolyline
 90
3
 70
1
 10
342.5
 20
308.2479728552404
 10
342.52987560759607
 20
308.36727992074975
 10
338.0
 20
308.2743575657694
  0
LWPOLYLINE
  5
A1
330
17
100
AcDbEntity
  8
PASS_03
100
AcDbPolyline
 90
3
 70
1
 10
342.97002519242767
 20
310.125
 10
342.5
 20
314.1308801392417
 10
342.71764524109807
 20
309.1171305771037
  0
LWPOLYLINE
  5
A2
330
17
100
AcDbEntity
  8
PASS_03
100
AcDbPolyline
 90
3
 70
1
 10
350.5
 20
308.5956002834241
 10
351.10152814712166
 20
309.375
 10
350.34872533494
 20
308.66460810248634
  0
LWPOLYLINE
  5
A3
330
17
100
AcDbEntity
  8
PASS_03
100
AcDbPolyline
 90
3
 70
1
 10
376.2432666364089
 20
323.81382065342723
 10
376.0
 20
323.6719402722365
 10
376.0
 20
322.1522422917004
  0
LWPOLYLINE
  5
A4
330
17
100
AcDbEntity
  8
PASS_03
100
AcDbPolyline
 90
4
 70
1
 10
376.30240359779435
 20
323.84831109875785
 10
378.0
 20
323.4757632196372
 10
378.15688778283754
 20
323.6386453817485
 10
376.75
 20
324.10936271315916
  0
LWPOLYLINE
  5
A5
330
17
100
AcDbEntity
  8
PASS_03
100
AcDbPolyline
 90
3
 70
1
 10
387.25
 20
330.1940101337968
 10
387.40318763186247
 20
330.71758968176607
 10
387.1134261948899
 20
330.2426491578163
  0
LWPOLYLINE
  5
A6
330
17
100
AcDbEntity
  8
PASS_03
100
AcDbPolyline
 90
3
 70
1
 10
387.7418199302994
 20
331.875
 10
386.57070794822437
 20
338.375
 10
387.6080774785807
 20
331.4178820749833
  0
LWPOLYLINE
  5
A7
330
17
100
AcDbEntity
  8
PASS_03
100
AcDbPolyline
 90
4
 70
1
 10
375.8367081766851
 20
363.84390770833323
 10
374.8973328975344
 20
364.7311197620892
 10
374.9134400132659
 20
364.375
 10
375.75
 20
363.76338948888747
  0
LWPOLYLINE
  5
A8
330
17
100
AcDbEntity
  8
PASS_03
100
AcDbPolyline
 90
3
 70
1
 10
375.14923649454215
 20
365.34633893280017
 10
374.86821052182444
 20
365.375
 10
374.88351984515816
 20
365.03651900351326
  0
LWPOLYLINE
  5
A9
330
17
100
AcDbEntity
  8
PASS_03
100
AcDbPolyline
 90
3
 70
1
 10
379.6835010229239
 20
367.92455668491175
 10
379.4483440750431
 20
367.875
 10
379.4371136186187
 20
367.70814408363265
  0
LWPOLYLINE
  5
AA
330
17
100
AcDbEntity
  8
PASS_03
100
AcDbPolyline
 90
3
 70
1
 10
380.931908677946
 20
367.5492922664454
 10
380.6346469335754
 20
368.125
 10
380.2317530313444
 20
368.0400946363879
  0
LWPOLYLINE
  5
AB
330
17
100
AcDbEntity
  8
PASS_03
100
AcDbPolyline
 90
3
 70
1
 10
400.45810690489833
 20
360.625
 10
400.3953776050591
 20
360.4866130123263
 10
407.0
 20
367.98827331148505
  0
LWPOLYLINE
  5
AC
330
17
100
AcDbEntity
  8
PASS_03
100
AcDbPolyline
 90
3
 70
1
 10
397.2850838753772
 20
353.625
 10
397.288196272947
 20
353.4480467218267
 10
399.2020806311984
 20
357.854082854395
  0
LWPOLYLINE
  5
AD
330
17
100
AcDbEntity
  8
PASS_03
100
AcDbPolyline
 90
3
 70
1
 10
398.43447700018856
 20
346.875
 10
398.49855334257734
 20
346.82820917137457
 10
398.44072792912357
 20
348.375
  0
LWPOLYLINE
  5
AE
330
17
100
AcDbEntity
  8
PASS_03
100
AcDbPolyline
 90
3
 70
1
 10
405.0
 20
342.93917975165385
 10
405.12627337733966
 20
343.04289562124205
 10
404.9108230328296
 20
343.15025695649916
  0
LWPOLYLINE
  5
AF
330
17
100
AcDbEntity
  8
PASS_03
100
AcDbPolyline
 90
3
 70
1
 10
426.71204804847787
 20
349.875
 10
426.7359452611127
 20
349.8676290741687
 10
425.5
 20
353.50852049756895
  0
LWPOLYLINE
  5
B0
330
17
100
AcDbEntity
  8
PASS_03
100
AcDbPolyline
 90
3
 70
1
 10
428.5
 20
349.32351889523846
 10
428.7274841437696
 20
349.4526364644978
 10
428.3002937743686
 20
349.3851168648289
  0
LWPOLYLINE
  5
B1
330
17
100
AcDbEntity
  8
PASS_03
100
AcDbPolyline
 90
3
 70
1
 10
430.3525385830811
 20
350.375
 10
430.3291794710426
 20
350.51240703026946
 10
429.56560994084407
 20
349.9283477112624
  0
LWPOLYLINE
  5
B2
330
17
100
AcDbEntity
  8
PASS_03
100
AcDbPolyline
 90
3
 70
1
 10
430.0550396415261
 20
352.125
 10
429.95344770924106
 20
352.20984763611784
 10
430.13325622816086
 20
351.66490079462005
  0
LWPOLYLINE
  5
B3
330
17
100
AcDbEntity
  8
PASS_03
100
AcDbPolyline
 90
3
 70
1
 10
429.5
 20
364.2534408029139
 10
428.25
 20
364.1612936498056
 10
428.2535063867039
 20
364.127298663935
  0
LWPOLYLINE
  5
B4
330
17
100
AcDbEntity
  8
PASS_03
100
AcDbPolyline
 90
3
 70
1
 10
435.729244285031
 20
368.125
 10
435.86498804778665
 20
368.3915595098938
 10
435.64349319638404
 20
368.11024515025116
  0
LWPOLYLINE
  5
B5
330
17
100
AcDbEntity
  8
PASS_03
100
AcDbPolyline
 90
3
 70
1
 10
438.86161698060715
 20
372.875
 10
439.23623527894773
 20
374.125
 10
438.80825112976663
 20
372.82511618178387
  0
LWPOLYLINE
  5
B6
330
17
100
AcDbEntity
  8
PASS_03
100
AcDbPolyline
 90
3
 70
1
 10
442.0
 20
375.90524035109956
 10
442.33758348011787
 20
376.55834519896314
 10
441.8264007523642
 20
375.82054839472113
  0
LWPOLYLINE
  5
B7
330
17
100
AcDbEntity
  8
PASS_03
100
AcDbPolyline
 90
3
 70
1
 10
442.6304817802687
 20
377.125
 10
442.41696435300634
 20
378.875
 10
442.5503315739116
 20
376.9699376482793
  0
LWPOLYLINE
  5
B8
330
17
100
AcDbEntity
  8
PASS_03
100
AcDbPolyline
 90
3
 70
1
 10
443.1824803198694
 20
379.87248171507895
 10
443.1160533512603
 20
379.875
 10
442.41696435300634
 20
378.875
  0
LWPOLYLINE
  5
B9
330
17
100
AcDbEntity
  8
PASS_03
100
AcDbPolyline
 90
3
 70
1
 10
452.75
 20
376.49368170909537
 10
453.3511933350176
 20
376.3600444767581
 10
452.226541470574
 20
377.00556674568253
  0
LWPOLYLINE
  5
BA
330
17
100
AcDbEntity
  8
PASS_03
100
AcDbPolyline
 90
3
 70
1
 10
536.235686140199
 20
349.6158084474691
 10
536.2309971041036
 20
349.625
 10
530.0
 20
353.9335502944701
  0
LWPOLYLINE
  5
BB
330
17
100
AcDbEntity
  8
PASS_03
100
AcDbPolyline
 90
3
 70
1
 10
539.7510183210009
 20
335.64965030649375
 10
539.8747309830276
 20
335.875
 10
538.8425789573325
 20
336.7521298774127
  0
LWPOLYLINE
  5
BC
330
17
100
AcDbEntity
  8
PASS_03
100
AcDbPolyline
 90
3
 70
1
 10
528.25
 20
321.30446759126966
 10
528.1296549613418
 20
321.1568809644003
 10
531.5
 20
322.58130169912374
  0
LWPOLYLINE
  5
BD
330
17
100
AcDbEntity
  8
PASS_03
100
AcDbPolyline
 90
3
 70
1
 10
522.0563537087868
 20
315.2875589397033
 10
523.2552108483358
 20
315.875
 10
524.0399374106971
 20
316.73949194426507
  0
LWPOLYLINE
  5
BE
330
17
100
AcDbEntity
  8
PASS_03
100
AcDbPolyline
 90
4
 70
1
 10
521.6403211568654
 20
315.0837026207505
 10
517.1932483118748
 20
314.1367955097947
 10
517.25
 20
314.1157973798159
 10
520.7041950516546
 20
314.625
  0
LWPOLYLINE
  5
BF
330
17
100
AcDbEntity
  8
PASS_03
100
AcDbPolyline
 90
3
 70
1
 10
507.4177776215414
 20
316.125
 10
507.37979353272624
 20
315.9993289283338
 10
507.62703694091573
 20
316.2112572993666
  0
LWPOLYLINE
  5
C0
330
17
100
AcDbEntity
  8
PASS_03
100
AcDbPolyline
 90
3
 70
1
 10
506.1880526940862
 20
312.05643196773724
 10
506.24768312102543
 20
312.125
 10
506.5100414702447
 20
313.12173788467663
  0
LWPOLYLINE
  5
C1
330
17
100
AcDbEntity
  8
PASS_03
100
AcDbPolyline
 90
3
 70
1
 10
505.11054583480603
 20
311.06117595508823
 10
505.37802965465886
 20
311.125
 10
505.79891599813186
 20
311.6089701786408
  0
LWPOLYLINE
  5
C2
330
17
100
AcDbEntity
  8
PASS_03
100
AcDbPolyline
 90
3
 70
1
 10
500.05529623759793
 20
311.375
 10
503.75
 20
310.73653748344907
 10
504.4957960865437
 20
310.91449113667863
  0
LWPOLYLINE
  5
C3
330
17
100
AcDbEntity
  8
PASS_03
100
AcDbPolyline
 90
3
 70
1
 10
499.4064026718587
 20
313.7740276245382
 10
498.12081596278165
 20
312.875
 10
498.2877388541206
 20
312.74556764534225
  0
LWPOLYLINE
  5
C4
330
17
100
AcDbEntity
  8
PASS_03
100
AcDbPolyline
 90
3
 70
1
 10
500.33201185994596
 20
314.625
 10
499.99472232128346
 20
315.35984490544115
 10
500.2242409335153
 20
314.52591921898494
  0
LWPOLYLINE
  5
C5
330
17
100
AcDbEntity
  8
PASS_03
100
AcDbPolyline
 90
3
 70
1
 10
499.5
 20
316.4376849678539
 10
499.09326330266185
 20
315.6654869192554
 10
499.63393461107694
 20
316.14588473295066
  0
LWPOLYLINE
  5
C6
330
17
100
AcDbEntity
  8
PASS_03
100
AcDbPolyline
 90
3
 70
1
 10
497.91768423231576
 20
314.75211584094023
 10
498.0
 20
314.69409951212333
 10
498.14612946742847
 20
314.8239386132121
  0
LWPOLYLINE
  5
C7
330
17
100
AcDbEntity
  8
PASS_03
100
AcDbPolyline
 90
3
 70
1
 10
489.46048970241145
 20
350.9101649384048
 10
489.3884937322682
 20
350.375
 10
490.0
 20
349.4923355015343
  0
LWPOLYLINE
  5
C8
330
17
100
AcDbEntity
  8
PASS_03
100
AcDbPolyline
 90
3
 70
1
 10
489.25
 20
351.46333046197503
 10
489.1914008473649
 20
351.3841812824333
 10
489.28106230762745
 20
351.38169892625064
  0
LWPOLYLINE
  5
C9
330
17
100
AcDbEntity
  8
PASS_03
100
AcDbPolyline
 90
3
 70
1
 10
446.52313716471383
 20
308.625
 10
446.31868796016477
 20
308.3942866050706
 10
446.5703275373013
 20
308.65269851493787
  0
LWPOLYLINE
  5
CA
330
17
100
AcDbEntity
  8
PASS_03
100
AcDbPolyline
 90
3
 70
1
 10
440.0984701728623
 20
301.375
 10
440.0694186645314
 20
301.25750948622954
 10
440.38194052391464
 20
301.69488584742777
  0
LWPOLYLINE
  5
CB
330
17
100
AcDbEntity
  8
PASS_03
100
AcDbPolyline
 90
3
 70
1
 10
438.42941898787325
 20
294.625
 10
438.5419151748767
 20
294.26821993342503
 10
438.4849143195996
 20
294.8494349918817
  0
LWPOLYLINE
  5
CC
330
17
100
AcDbEntity
  8
PASS_03
100
AcDbPolyline
 90
3
 70
1
 10
465.21692409053685
 20
253.24564773027674
 10
466.0133137210086
 20
255.0
 10
466.51336599544067
 20
257.64441416516325
  0
LWPOLYLINE
  5
CD
330
17
100
AcDbEntity
  8
PASS_03
100
AcDbPolyline
 90
3
 70
1
 10
456.96817391753916
 20
235.96476701629283
 10
459.2720190229763
 20
237.625
 10
460.5
 20
239.02498833643716
  0
LWPOLYLINE
  5
CE
330
17
100
AcDbEntity
  8
PASS_03
100
AcDbPolyline
 90
3
 70
1
 10
454.556356966319
 20
233.875
 10
453.96399999118023
 20
233.11974142688445
 10
455.24980453865345
 20
234.4758515129889
  0
LWPOLYLINE
  5
CF
330
17
100
AcDbEntity
  8
PASS_03
100
AcDbPolyline
 90
3
 70
1
 10
169.6525850513517
 20
99.625
 10
171.7184457222201
 20
97.53392256151999
 10
171.76617842444662
 20
97.625
  0
LWPOLYLINE
  5
D0
330
17
100
AcDbEntity
  8
PASS_03
100
AcDbPolyline
 90
3
 70
1
 10
169.5
 20
101.15003625088697
 10
169.52612757727917
 20
100.88889990662776
 10
169.58522409504158
 20
101.04421608738117
  0
LWPOLYLINE
  5
D1
330
17
100
AcDbEntity
  8
PASS_03
100
AcDbPolyline
 90
4
 70
1
 10
171.5
 20
98.97068828957703
 10
173.2216653609037
 20
98.8375182991576
 10
173.18234101545812
 20
98.875
 10
171.26705523145205
 20
99.23704998915358
  0
LWPOLYLINE
  5
D2
330
17
100
AcDbEntity
  8
PASS_03
100
AcDbPolyline
 90
3
 70
1
 10
174.86604264175844
 20
97.27019259761846
 10
173.32702892871487
 20
98.73709181567416
 10
174.5
 20
97.24120455034426
  0
LWPOLYLINE
  5
D3
330
17
100
AcDbEntity
  8
PASS_03
100
AcDbPolyline
 90
3
 70
1
 10
173.97434567507182
 20
100.625
 10
174.14503416289782
 20
100.68366584031122
 10
173.9106006726228
 20
100.72447617809617
  0
LWPOLYLINE
  5
D4
330
17
100
AcDbEntity
  8
PASS_03
100
AcDbPolyline
 90
3
 70
1
 10
173.0
 20
103.6941585182781
 10
172.53253057667033
 20
102.875
 10
173.22243378187645
 20
103.67126778659889
  0
LWPOLYLINE
  5
D5
330
17
100
AcDbEntity
  8
PASS_03
100
AcDbPolyline
 90
3
 70
1
 10
178.0634916866864
 20
101.875
 10
175.0
 20
103.4883378782107
 10
178.2399025490774
 20
101.74205078310237
  0
LWPOLYLINE
  5
D6
330
17
100
AcDbEntity
  8
PASS_03
100
AcDbPolyline
 90
3
 70
1
 10
178.7269437419431
 20
101.375
 10
178.46326453705834
 20
101.57371760347684
 10
178.60810883092344
 20
100.375
  0
LWPOLYLINE
  5
D7
330
17
100
AcDbEntity
  8
PASS_03
100
AcDbPolyline
 90
3
 70
1
 10
200.9504383833442
 20
86.11225709633588
 10
201.34268578518711
 20
86.06357127827744
 10
201.25
 20
86.16724290252978
  0
LWPOLYLINE
  5
D8
330
17
100
AcDbEntity
  8
PASS_03
100
AcDbPolyline
 90
3
 70
1
 10
197.0
 20
85.35063895038039
 10
197.72960645274446
 20
85.52105972500324
 10
196.96421883817467
 20
85.38056957974442
  0
LWPOLYLINE
  5
D9
330
17
100
AcDbEntity
  8
PASS_03
100
AcDbPolyline
 90
3
 70
1
 10
243.02823995776643
 20
105.24806737044153
 10
249.34900440559198
 20
104.375
 10
246.75
 20
105.08927729553852
  0
LWPOLYLINE
  5
DA
330
17
100
AcDbEntity
  8
PASS_03
100
AcDbPolyline
 90
3
 70
1
 10
241.66020031170913
 20
104.99497716964827
 10
242.13640988166716
 20
105.2861175840441
 10
242.0
 20
105.29193755499378
  0
LWPOLYLINE
  5
DB
330
17
100
AcDbEntity
  8
PASS_03
100
AcDbPolyline
 90
3
 70
1
 10
234.44889365153645
 20
101.125
 10
234.58957426282112
 20
102.375
 10
234.16866960719148
 20
100.88360389166006
  0
LWPOLYLINE
  5
DC
330
17
100
AcDbEntity
  8
PASS_03
100
AcDbPolyline
 90
3
 70
1
 10
233.0
 20
99.87686553067958
 10
233.33423911504903
 20
100.16479236371212
 10
232.5987088472668
 20
100.0309322986875
  0
LWPOLYLINE
  5
DD
330
17
100
AcDbEntity
  8
PASS_03
100
AcDbPolyline
 90
3
 70
1
 10
225.355824411505
 20
102.81167587719
 10
229.74584668545117
 20
101.12622495552625
 10
225.5
 20
102.84243940120965
  0
LWPOLYLINE
  5
DE
330
17
100
AcDbEntity
  8
PASS_03
100
AcDbPolyline
 90
3
 70
1
 10
240.6897436656989
 20
150.22239697529108
 10
240.8232297634652
 20
150.25824674534377
 10
240.75
 20
150.2663285296303
  0
LWPOLYLINE
  5
DF
330
17
100
AcDbEntity
  8
PASS_03
100
AcDbPolyline
 90
3
 70
1
 10
241.33194500139751
 20
138.625
 10
241.83941934541613
 20
136.125
 10
242.3019675468464
 20
135.67575153142843
  0
LWPOLYLINE
  5
E0
330
17
100
AcDbEntity
  8
PASS_03
100
AcDbPolyline
 90
3
 70
1
 10
242.86902374874552
 20
135.125
 10
243.0
 20
134.99778973280326
 10
243.05366014330517
 20
135.125
  0
LWPOLYLINE
  5
E1
330
17
100
AcDbEntity
  8
PASS_03
100
AcDbPolyline
 90
3
 70
1
 10
243.122889146113
 20
135.28911883015056
 10
243.44439817951744
 20
136.05130930386872
 10
243.25
 20
136.17298961120116
  0
LWPOLYLINE
  5
E2
330
17
100
AcDbEntity
  8
PASS_03
100
AcDbPolyline
 90
4
 70
1
 10
244.64292945456995
 20
133.625
 10
243.72607241633884
 20
135.875
 10
243.59165906504924
 20
135.95913380174187
 10
244.60609417505825
 20
133.48014123939066
  0
LWPOLYLINE
  5
E3
330
17
100
AcDbEntity
  8
PASS_03
100
AcDbPolyline
 90
3
 70
1
 10
244.54979192703783
 20
133.25872649852616
 10
243.68854518669608
 20
132.25054344548897
 10
244.38864535496313
 20
132.625
  0
LWPOLYLINE
  5
E4
330
17
100
AcDbEntity
  8
PASS_03
100
AcDbPolyline
 90
3
 70
1
 10
243.3247717017795
 20
132.0559750509098
 10
239.5109617260116
 20
132.625
 10
243.0
 20
131.88226720457112
  0
LWPOLYLINE
  5
E5
330
17
100
AcDbEntity
  8
PASS_03
100
AcDbPolyline
 90
3
 70
1
 10
234.36642205828673
 20
153.106633325258
 10
235.07803651804954
 20
153.03600425758657
 10
234.75
 20
153.38862688047527
  0
LWPOLYLINE
  5
E6
330
17
100
AcDbEntity
  8
PASS_03
100
AcDbPolyline
 90
3
 70
1
 10
236.7287813301338
 20
152.87216474387034
 10
236.9555998722039
 20
152.8496525788388
 10
236.92831598509838
 20
152.875
  0
LWPOLYLINE
  5
E7
330
17
100
AcDbEntity
  8
PASS_03
100
AcDbPolyline
 90
3
 70
1
 10
237.26896888270335
 20
152.5585248426303
 10
238.70337811259378
 20
151.02944400935908
 10
238.75
 20
151.18260947772006
  0
LWPOLYLINE
  5
E8
330
17
100
AcDbEntity
  8
PASS_03
100
AcDbPolyline
 90
3
 70
1
 10
238.5
 20
150.36129208323948
 10
235.3383622624477
 20
150.81584276562208
 10
235.5
 20
150.5572310359981
  0
LWPOLYLINE
  5
E9
330
17
100
AcDbEntity
  8
PASS_03
100
AcDbPolyline
 90
3
 70
1
 10
234.57575420790295
 20
152.03597483996026
 10
234.22553217114594
 20
153.00305583591768
 10
234.05134594221659
 20
152.875
  0
LWPOLYLINE
  5
EA
330
17
100
AcDbEntity
  8
PASS_03
100
AcDbPolyline
 90
4
 70
1
 10
272.5747092856608
 20
207.875
 10
273.45070366063914
 20
207.625
 10
273.45708049301487
 20
207.74069579336123
 10
272.4358837881444
 20
208.10745528186473
  0
LWPOLYLINE
  5
EB
330
17
100
AcDbEntity
  8
PASS_03
100
AcDbPolyline
 90
3
 70
1
 10
274.29397015162255
 20
213.97427843368143
 10
274.39026588407086
 20
213.77441115041796
 10
274.4483726687572
 20
213.875
  0
LWPOLYLINE
  5
EC
330
17
100
AcDbEntity
  8
PASS_03
100
AcDbPolyline
 90
4
 70
1
 10
272.25
 20
215.28851967087414
 10
270.5793240404296
 20
214.625
 10
270.6406305143457
 20
214.41562679642763
 10
272.33824624495713
 20
215.23177869838096
  0
LWPOLYLINE
  5
ED
330
17
100
AcDbEntity
  8
PASS_03
100
AcDbPolyline
 90
4
 70
1
 10
264.5
 20
247.5639452817456
 10
264.38754111315444
 20
247.94470426217393
 10
260.5349754908273
 20
250.95376481164644
 10
260.5783435057931
 20
250.875
  0
LWPOLYLINE
  5
EE
330
17
100
AcDbEntity
  8
PASS_03
100
AcDbPolyline
 90
3
 70
1
 10
247.10097409720038
 20
205.34578926877614
 10
248.0
 20
206.44426540785122
 10
247.03639952065774
 20
205.625
  0
LWPOLYLINE
  5
EF
330
17
100
AcDbEntity
  8
PASS_03
100
AcDbPolyline
 90
3
 70
1
 10
248.97186649623166
 20
205.7108806087145
 10
248.75
 20
206.18996431122702
 10
248.0
 20
206.44426540785122
  0
LWPOLYLINE
  5
F0
330
17
100
AcDbEntity
  8
PASS_03
100
AcDbPolyline
 90
3
 70
1
 10
247.3833126367454
 20
204.125
 10
249.07570871689856
 20
202.38695860916462
 10
247.24845231769703
 20
204.70811568283688
  0
LWPOLYLINE
  5
F1
330
17
100
AcDbEntity
  8
PASS_03
100
AcDbPolyline
 90
3
 70
1
 10
249.75
 20
201.69448113698581
 10
249.82522326163425
 20
201.86041138308283
 10
249.59692288312334
 20
201.85168686928534
  0
LWPOLYLINE
  5
F2
330
17
100
AcDbEntity
  8
PASS_03
100
AcDbPolyline
 90
3
 70
1
 10
250.2851795792838
 20
202.875
 10
249.69228263573422
 20
204.15526208440016
 10
250.0822800244547
 20
202.42743667538005
  0
LWPOLYLINE
  5
F3
330
17
100
AcDbEntity
  8
PASS_03
100
AcDbPolyline
 90
3
 70
1
 10
219.8534877436175
 20
193.125
 10
219.5
 20
195.47669223357832
 10
219.38597476697805
 20
195.4841111598181
  0
LWPOLYLINE
  5
F4
330
17
100
AcDbEntity
  8
PASS_03
100
AcDbPolyline
 90
3
 70
1
 10
221.92109374598496
 20
174.375
 10
222.23715723059118
 20
175.875
 10
220.88998928624224
 20
173.00769648142506
  0
LWPOLYLINE
  5
F5
330
17
100
AcDbEntity
  8
PASS_03
100
AcDbPolyline
 90
3
 70
1
 10
220.6933389147147
 20
170.66805134755415
 10
220.61128240000278
 20
172.41449855171055
 10
220.35780551826394
 20
171.875
  0
LWPOLYLINE
  5
F6
330
17
100
AcDbEntity
  8
PASS_03
100
AcDbPolyline
 90
3
 70
1
 10
220.75
 20
169.46210695266484
 10
220.73992277821802
 20
169.676585179879
 10
219.8037748224358
 20
169.875
  0
LWPOLYLINE
  5
F7
330
17
100
AcDbEntity
  8
PASS_03
100
AcDbPolyline
 90
3
 70
1
 10
219.97659314081196
 20
178.32422577845247
 10
219.84474879370256
 20
174.875
 10
219.8037748224358
 20
169.875
  0
LWPOLYLINE
  5
F8
330
17
100
AcDbEntity
  8
PASS_03
100
AcDbPolyline
 90
4
 70
1
 10
221.57441810074474
 20
184.875
 10
221.61875902771274
 20
185.86957013252723
 10
220.04542653032638
 20
180.125
 10
220.03970100957926
 20
179.97521266221094
  0
LWPOLYLINE
  5
F9
330
17
100
AcDbEntity
  8
PASS_03
100
AcDbPolyline
 90
3
 70
1
 10
221.34011811484035
 20
192.125
 10
221.750635424772
 20
188.82756705927372
 10
221.76389587958693
 20
189.125
  0
LWPOLYLINE
  5
FA
330
17
100
AcDbEntity
  8
PASS_03
100
AcDbPolyline
 90
3
 70
1
 10
264.87205003649024
 20
115.94603267956907
 10
264.92913407513504
 20
116.125
 10
264.6947282816159
 20
116.00630135726712
  0
LWPOLYLINE
  5
FB
330
17
100
AcDbEntity
  8
PASS_03
100
AcDbPolyline
 90
3
 70
1
 10
264.0708168819719
 20
114.625
 10
263.5
 20
111.64444287693017
 10
264.6983611202799
 20
115.40149097122648
  0
LWPOLYLINE
  5
FC
330
17
100
AcDbEntity
  8
PASS_03
100
AcDbPolyline
 90
3
 70
1
 10
260.50539986610295
 20
113.24358951826915
 10
261.0
 20
112.15029707768315
 10
261.4896925425962
 20
112.05121186578329
  0
LWPOLYLINE
  5
FD
330
17
100
AcDbEntity
  8
PASS_03
100
AcDbPolyline
 90
3
 70
1
 10
258.9894289744857
 20
116.89184970402376
 10
258.9025081433225
 20
116.875
 10
258.7459474615776
 20
115.375
  0
LWPOLYLINE
  5
FE
330
17
100
AcDbEntity
  8
PASS_03
100
AcDbPolyline
 90
3
 70
1
 10
260.05294478096
 20
116.24838739383208
 10
259.5
 20
116.99082449002034
 10
259.0735519653767
 20
116.90815704346285
  0
LWPOLYLINE
  5
FF
330
17
100
AcDbEntity
  8
PASS_03
100
AcDbPolyline
 90
3
 70
1
 10
346.94631880592414
 20
126.01120601315732
 10
342.0
 20
129.2926331692029
 10
346.75
 20
125.78846681234393
  0
LWPOLYLINE
  5
100
330
17
100
AcDbEntity
  8
PASS_03
100
AcDbPolyline
 90
8
 70
1
 10
163.75
 20
215.2028096961331
 10
163.24953390640138
 20
214.625
 10
163.37863094789094
 20
213.875
 10
165.5
 20
212.16172316053124
 10
166.7491999791557
 20
213.625
 10
165.75
 20
215.95884277096786
 10
164.7421168094821
 20
215.625
 10
164.75
 20
214.4017537794542
  0
LWPOLYLINE
  5
101
330
17
100
AcDbEntity
  8
PASS_03
100
AcDbPolyline
 90
7
 70
1
 10
131.75
 20
206.15928331066164
 10
133.0
 20
205.86720857715068
 10
133.9247497507925
 20
206.875
 10
133.938717212511
 20
208.125
 10
133.0
 20
209.3193204227053
 10
131.3791831860163
 20
208.875
 10
131.03279058735166
 20
207.375
  0
LWPOLYLINE
  5
102
330
17
100
AcDbEntity
  8
PASS_03
100
AcDbPolyline
 90
5
 70
1
 10
445.920194337444
 20
374.44925891814535
 10
445.6485453387131
 20
375.125
 10
447.0
 20
378.13172517625435
 10
445.6069274071923
 20
375.875
 10
445.6722803566535
 20
374.375
  0
LWPOLYLINE
  5
103
330
17
100
AcDbEntity
  8
PASS_03
100
AcDbPolyline
 90
3
 70
1
 10
446.54325877964277
 20
374.6358885356642
 10
447.34153427916067
 20
374.875
 10
448.5
 20
376.02314566115706
  0
LWPOLYLINE
  5
104
330
17
100
AcDbEntity
  8
PASS_03
100
AcDbPolyline
 90
3
 70
1
 10
448.9415455459263
 20
357.125
 10
445.63863893553713
 20
359.0376660971454
 10
448.94829643285874
 20
356.95981147126287
  0
LWPOLYLINE
  5
105
330
17
100
AcDbEntity
  8
PASS_03
100
AcDbPolyline
 90
3
 70
1
 10
443.93483539963427
 20
360.0243144174665
 10
443.75
 20
360.13134996043965
 10
441.3828352013284
 20
358.375
  0
LWPOLYLINE
  5
106
330
17
100
AcDbEntity
  8
PASS_03
100
AcDbPolyline
 90
3
 70
1
 10
444.5
 20
358.3425602326113
 10
448.0
 20
356.2749894545359
 10
448.14280115504204
 20
356.32694681302127
  0
LWPOLYLINE
  5
107
330
17
100
AcDbEntity
  8
PASS_03
100
AcDbPolyline
 90
3
 70
1
 10
448.51940135759867
 20
356.4639705767586
 10
448.96197943133
 20
356.625
 10
448.9555694139045
 20
356.7818477384218
  0
LWPOLYLINE
  5
108
330
17
100
AcDbEntity
  8
PASS_03
100
AcDbPolyline
 90
4
 70
1
 10
414.4571567556407
 20
339.3928539351912
 10
414.23803620298276
 20
339.375
 10
413.5611604374366
 20
337.89215855947646
 10
413.75
 20
337.81479789739404
  0
LWPOLYLINE
  5
109
330
17
100
AcDbEntity
  8
PASS_03
100
AcDbPolyline
 90
3
 70
1
 10
414.5876909934866
 20
339.4034898604592
 10
415.3911015422312
 20
338.625
 10
414.75
 20
339.4167147927994
  0
LWPOLYLINE
  5
10A
330
17
100
AcDbEntity
  8
PASS_03
100
AcDbPolyline
 90
3
 70
1
 10
414.9390009461278
 20
337.875
 10
415.02875194032947
 20
337.5367555612724
 10
415.3911015422312
 20
338.625
  0
LWPOLYLINE
  5
10B
330
17
100
AcDbEntity
  8
PASS_03
100
AcDbPolyline
 90
3
 70
1
 10
415.069105178443
 20
337.3846763726464
 10
415.25
 20
336.70293832695086
 10
415.4848062540478
 20
336.98928767644037
  0
LWPOLYLINE
  5
10C
330
17
100
AcDbEntity
  8
PASS_03
100
AcDbPolyline
 90
3
 70
1
 10
415.7979641678227
 20
337.37118791696247
 10
416.00608988752964
 20
337.625
 10
415.8927988223275
 20
338.625
  0
LWPOLYLINE
  5
10D
330
17
100
AcDbEntity
  8
PASS_03
100
AcDbPolyline
 90
3
 70
1
 10
398.2097617724829
 20
307.625
 10
398.33095296450705
 20
307.33322433713215
 10
398.7870762207108
 20
310.625
  0
LWPOLYLINE
  5
10E
330
17
100
AcDbEntity
  8
PASS_03
100
AcDbPolyline
 90
3
 70
1
 10
398.6753469706533
 20
306.5040734083168
 10
398.75
 20
306.3243413934821
 10
398.862691642309
 20
306.39619581405617
  0
LWPOLYLINE
  5
10F
330
17
100
AcDbEntity
  8
PASS_03
100
AcDbPolyline
 90
3
 70
1
 10
399.9494902913315
 20
307.0891601333805
 10
400.0
 20
307.1213661228876
 10
399.72537696365373
 20
307.39480166300285
  0
LWPOLYLINE
  5
110
330
17
100
AcDbEntity
  8
PASS_03
100
AcDbPolyline
 90
3
 70
1
 10
399.2554699482787
 20
308.03565198836145
 10
399.2724446318146
 20
308.2559855862209
 10
399.1899550287766
 20
308.125
  0
LWPOLYLINE
  5
111
330
17
100
AcDbEntity
  8
PASS_03
100
AcDbPolyline
 90
3
 70
1
 10
400.9267626564444
 20
310.88288410762766
 10
401.12049411998646
 20
311.125
 10
401.1153236648971
 20
311.18230092284983
  0
LWPOLYLINE
  5
112
330
17
100
AcDbEntity
  8
PASS_03
100
AcDbPolyline
 90
6
 70
1
 10
426.4747687634144
 20
352.625
 10
427.25
 20
349.8432182261955
 10
428.5
 20
349.6887143762667
 10
430.02250624668693
 20
350.625
 10
429.5860828240805
 20
352.125
 10
428.25
 20
353.0797097725816
  0
LWPOLYLINE
  5
113
330
17
100
AcDbEntity
  8
PASS_03
100
AcDbPolyline
 90
31
 70
1
 10
407.42008905883205
 20
359.875
 10
406.29925963538074
 20
361.375
 10
406.8046864718406
 20
362.625
 10
408.75
 20
364.4494498480243
 10
410.7166990887047
 20
361.125
 10
409.3493650385819
 20
359.375
 10
409.9357964674509
 20
356.875
 10
411.0
 20
355.80419757553824
 10
413.25
 20
357.4627803889349
 10
414.25
 20
357.31865962621265
 10
414.8764331091789
 20
359.375
 10
413.96110430149395
 20
360.875
 10
414.08732224389075
 20
362.625
 10
412.5
 20
361.7939942840008
 10
411.64758792488954
 20
363.375
 10
409.48893391160993
 20
364.875
 10
409.764555064867
 20
366.125
 10
411.6445415750574
 20
366.875
 10
411.5
 20
370.80817256609515
 10
410.0
 20
370.04113469063935
 10
400.8686400608906
 20
360.125
 10
398.4333549812257
 20
354.625
 10
400.5
 20
350.2592048791507
 10
401.82724489555767
 20
353.375
 10
400.6033490477088
 20
355.625
 10
403.25
 20
355.0520572203113
 10
402.82920970051794
 20
356.875
 10
403.25
 20
359.3702972865941
 10
405.6877886124612
 20
358.375
 10
406.75
 20
356.2840736318152
 10
407.87215921477576
 20
356.875
  0
LWPOLYLINE
  5
114
330
17
100
AcDbEntity
  8
PASS_03
100
AcDbPolyline
 90
32
 70
1
 10
292.5
 20
262.5751319294101
 10
291.0
 20
262.4544543213081
 10
289.92681182991015
 20
263.625
 10
290.31708257812846
 20
264.375
 10
288.982462619751
 20
265.875
 10
290.19441451093485
 20
266.375
 10
289.1234649207019
 20
267.125
 10
288.9498757618639
 20
268.125
 10
289.8641036122716
 20
270.375
 10
292.0823281753775
 20
272.375
 10
291.8002976931988
 20
272.875
 10
289.75
 20
273.1161681119559
 10
284.75
 20
271.19735863523545
 10
282.3667514172689
 20
270.875
 10
282.28450848852333
 20
268.625
 10
284.75
 20
265.58252772075355
 10
288.0
 20
263.5915543639154
 10
292.75
 20
259.5226775403626
 10
294.5
 20
259.1452849137638
 10
295.7945699248945
 20
257.625
 10
295.4425487713604
 20
256.375
 10
296.5
 20
254.9072335187858
 10
298.75
 20
254.36606214800574
 10
300.4203427522022
 20
254.875
 10
299.6076061728152
 20
256.375
 10
300.87966727364505
 20
257.375
 10
301.25
 20
259.93673288837124
 10
300.0
 20
260.54336100698515
 10
299.25
 20
258.64509102136026
 10
298.75
 20
258.5934788757026
 10
297.25
 20
261.214801833227
 10
296.25
 20
260.6595284858216
  0
LWPOLYLINE
  5
115
330
17
100
AcDbEntity
  8
PASS_03
100
AcDbPolyline
 90
404
 70
1
 10
124.31327489139291
 20
215.375
 10
125.19803839259373
 20
213.875
 10
127.0
 20
213.0942683789006
 10
128.4565510065786
 20
214.375
 10
129.0
 20
215.90426787795485
 10
132.25
 20
216.0705842851835
 10
133.5
 20
215.59564179700862
 10
135.0
 20
216.75080685070034
 10
137.25
 20
215.8348169686469
 10
140.5
 20
217.79904854617092
 10
141.5
 20
217.76952804935073
 10
141.8121626952208
 20
217.125
 10
139.2407014976485
 20
214.875
 10
136.21026137201
 20
210.375
 10
136.75
 20
209.92758635386798
 10
138.50748331127932
 20
210.125
 10
140.0
 20
209.0225995393767
 10
140.45972437789317
 20
209.375
 10
140.5
 20
212.23246004817184
 10
145.5
 20
211.97931888393077
 10
146.56206053570855
 20
211.375
 10
146.6713381506421
 20
210.625
 10
144.79786351163347
 20
207.125
 10
146.0
 20
206.25112920949613
 10
148.53907337395475
 20
208.875
 10
148.5003174429276
 20
211.625
 10
150.5
 20
214.0976027691902
 10
152.0
 20
213.35713206807185
 10
153.5
 20
214.17544898311803
 10
155.5
 20
213.1342639833919
 10
156.75
 20
213.21409291393618
 10
159.25
 20
216.2175996300933
 10
160.75
 20
216.70086796089475
 10
160.9627128608178
 20
218.375
 10
166.25
 20
220.72219467091938
 10
171.25
 20
223.94547273180223
 10
173.99222795336286
 20
224.375
 10
175.2723715811281
 20
227.625
 10
175.07244291292864
 20
229.125
 10
177.75033073140168
 20
235.375
 10
176.5658359166386
 20
236.625
 10
177.12452503371262
 20
239.125
 10
176.25
 20
239.8344739111502
 10
174.91404282338
 20
239.875
 10
178.56403649376554
 20
241.125
 10
181.3178280960057
 20
246.125
 10
182.75
 20
246.32710909262437
 10
184.0
 20
245.50954618426272
 10
187.5
 20
248.05078336085973
 10
189.25
 20
248.5858944299238
 10
191.0
 20
247.57360146655228
 10
196.75
 20
248.17099721563565
 10
196.72478622351798
 20
249.875
 10
195.70029715710564
 20
251.375
 10
196.0677696430676
 20
252.625
 10
194.5388608914189
 20
254.875
 10
193.25
 20
254.91455365899222
 10
192.66929839877844
 20
255.875
 10
192.75
 20
256.8987201200039
 10
193.7218617743129
 20
257.375
 10
193.18565477996773
 20
259.125
 10
191.55963270084163
 20
260.375
 10
188.76206943585038
 20
263.625
 10
188.5
 20
264.9552604897832
 10
187.11689700264088
 20
266.125
 10
187.5
 20
267.8093861187797
 10
199.25
 20
258.2041026568179
 10
200.1595617583969
 20
258.625
 10
200.0
 20
260.6294072462201
 10
204.5
 20
262.2849425309548
 10
205.75
 20
263.8781778749048
 10
207.75
 20
264.48817717629606
 10
211.5
 20
271.41948642240834
 10
213.25
 20
270.8853050693292
 10
214.52691383907666
 20
269.125
 10
213.76798074754876
 20
267.125
 10
214.41186512130534
 20
261.875
 10
216.0
 20
261.5101990509906
 10
218.25
 20
258.8666530388511
 10
219.25
 20
259.92677683266453
 10
219.63199969772796
 20
258.875
 10
218.44500707823667
 20
257.625
 10
217.5386812425831
 20
255.125
 10
215.70975445710553
 20
253.625
 10
215.68421581424911
 20
251.875
 10
213.7581098825077
 20
249.375
 10
214.25
 20
248.36291814390594
 10
216.3866383562819
 20
249.125
 10
216.8091989665497
 20
251.625
 10
218.75
 20
250.6099900401611
 10
221.25
 20
250.87266479327553
 10
222.4281743519297
 20
251.625
 10
222.25
 20
252.72850800466955
 10
223.04221089978552
 20
253.625
 10
222.0
 20
259.42739753503696
 10
224.25
 20
259.74352834287146
 10
226.0
 20
258.50027657403587
 10
226.68451651924093
 20
258.625
 10
224.90852814999897
 20
263.125
 10
222.372873870229
 20
265.875
 10
219.82059994862183
 20
270.125
 10
218.75
 20
270.39948470864783
 10
218.15247632547351
 20
269.375
 10
220.1188824315984
 20
264.375
 10
219.5
 20
262.36116210519003
 10
217.44886090618732
 20
268.125
 10
214.875481047258
 20
270.375
 10
213.2448289811687
 20
274.375
 10
216.10170862151253
 20
272.375
 10
214.55660459525836
 20
275.125
 10
215.5
 20
275.280812070918
 10
215.63304019371864
 20
276.625
 10
217.73427359833696
 20
277.375
 10
217.6165483277958
 20
279.125
 10
221.06399683203676
 20
276.625
 10
221.25
 20
275.0135288826246
 10
222.01008075464085
 20
274.125
 10
221.6280364981317
 20
273.125
 10
222.0
 20
271.34059635110754
 10
226.25
 20
269.80055778390573
 10
225.47270879459916
 20
273.375
 10
225.83187025801675
 20
275.125
 10
223.75
 20
274.7908647626492
 10
223.60018270069804
 20
276.625
 10
221.11877803566912
 20
277.625
 10
221.03771167949995
 20
278.375
 10
222.75
 20
281.2645988238953
 10
225.75
 20
279.0661723057957
 10
225.29335464934599
 20
281.375
 10
226.5
 20
281.53831725616294
 10
226.75
 20
283.6593561967268
 10
228.25
 20
282.0369479604957
 10
229.5
 20
281.67534607021446
 10
229.75
 20
284.57337446693793
 10
231.25
 20
286.84532343170224
 10
233.25
 20
287.8625348920148
 10
234.3704039033706
 20
285.625
 10
235.36278721775662
 20
280.875
 10
236.5
 20
279.3575431349142
 10
237.5
 20
279.2302441186047
 10
238.69407307126968
 20
276.125
 10
237.5775180300139
 20
272.875
 10
238.5
 20
269.7771477338624
 10
239.68940850406526
 20
268.375
 10
241.25
 20
267.72107981239446
 10
244.47486198639405
 20
268.375
 10
246.75
 20
269.9469512487326
 10
251.0
 20
270.3433871958201
 10
252.25
 20
271.7591903880449
 10
251.66262348132162
 20
272.375
 10
244.49912567724184
 20
271.875
 10
242.01489420743474
 20
273.125
 10
240.91073348233593
 20
275.875
 10
243.5
 20
275.76948399786863
 10
245.0
 20
274.53414492708396
 10
250.25
 20
276.05723234778463
 10
252.32445914901595
 20
277.375
 10
252.05436065773875
 20
279.625
 10
250.00617411583337
 20
281.875
 10
252.0
 20
281.07234079756233
 10
253.0
 20
281.51389500508117
 10
252.37861573088495
 20
285.625
 10
250.25
 20
288.24077672925205
 10
246.37108637376318
 20
289.625
 10
245.83032023916022
 20
290.625
 10
246.44886507319544
 20
291.375
 10
245.0
 20
292.099618940186
 10
244.03965914561485
 20
293.875
 10
244.70198986767699
 20
294.375
 10
244.5
 20
295.40429148834994
 10
249.79780424497974
 20
289.875
 10
251.75
 20
290.0149213212897
 10
252.25
 20
288.7535851979868
 10
253.54864482115676
 20
289.125
 10
253.8281962328871
 20
291.625
 10
251.23447445397267
 20
294.125
 10
251.5952956723422
 20
295.125
 10
248.78236785195162
 20
296.875
 10
251.75
 20
296.37004937040103
 10
252.13710220040008
 20
297.625
 10
253.89738323429927
 20
299.125
 10
253.93695334345497
 20
300.375
 10
256.5
 20
300.307899082233
 10
257.0596489455161
 20
301.375
 10
257.11412516445523
 20
305.125
 10
252.33632294194575
 20
312.125
 10
250.0
 20
312.8201774999198
 10
249.18208080804231
 20
311.875
 10
249.28045113371198
 20
310.625
 10
247.6774827415956
 20
308.375
 10
245.75
 20
307.9866519238345
 10
244.25
 20
308.17897474406317
 10
241.0
 20
310.400769967517
 10
238.0
 20
314.0876613386808
 10
236.75
 20
313.38396125107704
 10
235.64936428319197
 20
313.875
 10
235.75
 20
313.13382652106577
 10
236.6994013197528
 20
312.875
 10
236.0
 20
311.6946540330273
 10
233.75
 20
312.6852219195256
 10
232.5
 20
312.5154360608532
 10
232.42411483449257
 20
311.375
 10
234.6087352055068
 20
307.125
 10
234.0
 20
306.61863785956353
 10
232.5
 20
307.0576296925582
 10
232.06958357786223
 20
306.375
 10
233.82576669420547
 20
303.375
 10
234.91588729996468
 20
302.625
 10
236.61966610169492
 20
299.125
 10
234.25
 20
298.2765291864449
 10
233.68766434453917
 20
299.875
 10
232.42739712857326
 20
300.125
 10
231.48410579664062
 20
302.125
 10
229.25
 20
304.43085938254876
 10
227.5
 20
304.2775025571312
 10
225.75
 20
303.3182843251665
 10
223.6368370224475
 20
303.375
 10
229.75
 20
297.2580569908072
 10
230.81833370033
 20
294.625
 10
230.0
 20
293.2782738916528
 10
229.0800504699049
 20
293.625
 10
229.2710702669079
 20
294.875
 10
226.25
 20
297.3632379864935
 10
224.0
 20
297.6473788982263
 10
223.55288790429978
 20
297.125
 10
226.05663629096725
 20
294.375
 10
226.0
 20
293.6236768848569
 10
223.47561959064205
 20
295.875
 10
222.8300860251809
 20
298.625
 10
221.11051065752807
 20
299.625
 10
221.32711882991822
 20
300.875
 10
220.0599514785451
 20
302.625
 10
220.5
 20
303.202115854771
 10
222.25
 20
302.7997594873533
 10
222.4703006803966
 20
304.375
 10
220.25
 20
306.0223307745988
 10
218.75
 20
306.2490061258313
 10
218.0
 20
305.25112094999974
 10
217.5
 20
306.0541631426029
 10
215.5
 20
306.62789104677546
 10
214.75
 20
306.576136966019
 10
214.75
 20
305.6469729243066
 10
210.0
 20
307.25849675500814
 10
208.94443235666014
 20
306.625
 10
208.75
 20
305.10266159695817
 10
206.5
 20
305.4849634236584
 10
200.5
 20
304.76423087360234
 10
199.79614396194754
 20
301.875
 10
201.5
 20
301.54660358647686
 10
202.96480896475958
 20
300.125
 10
203.9653560166947
 20
298.125
 10
203.79458452127304
 20
295.625
 10
205.85426654471155
 20
289.125
 10
209.01404323367774
 20
286.375
 10
205.0
 20
285.7714674423336
 10
203.75
 20
283.8756348007198
 10
201.25
 20
282.1393252456387
 10
199.75
 20
279.325218761314
 10
199.25
 20
279.092616382702
 10
198.25
 20
280.5985534098197
 10
196.42600797452917
 20
277.875
 10
194.5
 20
276.35308825083405
 10
195.5752754269388
 20
278.625
 10
194.72614388662856
 20
281.125
 10
196.25
 20
283.01766938766457
 10
198.0
 20
283.66996086190966
 10
199.14847298206203
 20
284.875
 10
198.4484904262462
 20
286.875
 10
199.25
 20
287.49862898424624
 10
200.75
 20
286.3180379242577
 10
201.3973418377767
 20
286.875
 10
199.9901046112713
 20
288.875
 10
200.25
 20
290.20470423925985
 10
199.25
 20
290.31483131806647
 10
198.75
 20
289.56965461489267
 10
196.75
 20
288.8390261021849
 10
194.75
 20
289.28558353001824
 10
194.0
 20
288.240554249106
 10
193.0
 20
289.4127232469326
 10
191.5
 20
289.77284033062847
 10
191.5104943195372
 20
285.875
 10
189.75
 20
283.86774083580656
 10
187.68548714221734
 20
283.875
 10
187.25
 20
282.1062398099984
 10
186.25
 20
282.35935597487094
 10
184.25
 20
284.3510990220616
 10
182.5
 20
281.8529454498763
 10
180.75
 20
283.439486213721
 10
180.50546479483626
 20
281.125
 10
179.25
 20
279.57612434259204
 10
176.0
 20
279.7189143616297
 10
173.75
 20
282.27680174691534
 10
172.62844850303046
 20
282.125
 10
172.25
 20
281.3191172570106
 10
168.5
 20
282.5181992654234
 10
168.34013143264946
 20
281.875
 10
170.27217897297652
 20
278.625
 10
171.7001136264312
 20
277.375
 10
170.0
 20
276.1982909865054
 10
168.75
 20
273.7741544365722
 10
168.45115262378602
 20
276.625
 10
167.28286700749956
 20
278.625
 10
163.75
 20
280.27263900103014
 10
162.25
 20
282.4151546644399
 10
160.5
 20
283.3549546665744
 10
160.12954121792328
 20
284.875
 10
158.0
 20
287.71845470940866
 10
157.0
 20
287.95799294145786
 10
156.66477618498018
 20
287.375
 10
158.25
 20
282.9846087867836
 10
160.16724309043343
 20
280.125
 10
159.75
 20
278.71870063699737
 10
156.75
 20
281.4276338753643
 10
154.35541889878908
 20
285.625
 10
150.8849967710398
 20
289.875
 10
147.62339899966247
 20
292.375
 10
148.2675063391165
 20
291.125
 10
147.41108169988578
 20
290.125
 10
148.05791706435718
 20
287.875
 10
152.82658548201317
 20
276.375
 10
150.8861600494763
 20
278.125
 10
150.20338889107853
 20
281.875
 10
146.25
 20
286.4359036559558
 10
146.16221057600808
 20
284.125
 10
147.87698094582754
 20
280.125
 10
150.33001502126677
 20
276.875
 10
150.75
 20
274.19167531335324
 10
153.0
 20
273.2762177478048
 10
154.0
 20
274.8382343743485
 10
157.0
 20
273.3920009161576
 10
158.0
 20
273.482678589626
 10
160.31970387840667
 20
275.625
 10
160.25488764522225
 20
277.875
 10
160.75
 20
278.3925642398287
 10
162.00536762828693
 20
277.625
 10
163.52049539497705
 20
275.125
 10
162.5
 20
273.5203855393081
 10
161.0
 20
272.62021300560673
 10
160.25291565955024
 20
270.125
 10
159.0
 20
270.59149164866085
 10
156.75
 20
269.8669552433845
 10
152.12580969118758
 20
267.375
 10
151.0
 20
266.2133126860655
 10
149.9965918940926
 20
266.625
 10
149.25
 20
268.21902950786966
 10
146.5
 20
269.7983833508361
 10
147.45897176762077
 20
267.375
 10
145.28659563492369
 20
266.375
 10
146.66194979680142
 20
263.875
 10
145.90740603660453
 20
261.625
 10
143.09057920700417
 20
261.625
 10
141.25
 20
258.61817592624885
 10
138.69822418111193
 20
256.125
 10
137.75
 20
253.99260588369685
 10
136.25
 20
254.0488735365127
 10
133.8955711085269
 20
253.125
 10
133.81763291146373
 20
251.875
 10
132.09486745544407
 20
248.875
 10
132.23235673894652
 20
247.375
 10
133.50080936481967
 20
245.875
 10
132.63183732773678
 20
243.125
 10
131.41640811934008
 20
242.125
 10
131.75
 20
241.28036837726825
 10
133.20139813373834
 20
240.625
 10
132.6687585811494
 20
238.625
 10
133.75
 20
236.27653291644953
 10
131.5
 20
234.88168065986684
 10
126.3841121729124
 20
235.625
 10
129.25
 20
233.57417708265166
 10
129.41973115008395
 20
231.875
 10
130.84433208186994
 20
230.875
 10
130.8329003132485
 20
230.125
 10
128.25
 20
230.83139013568237
 10
126.25
 20
230.47746930889866
 10
125.60918295284937
 20
229.875
 10
125.0
 20
227.28519109794166
 10
124.0
 20
228.36842063022124
 10
122.75
 20
226.8903181863687
 10
120.75
 20
226.9955611274957
 10
119.42243662312941
 20
224.625
 10
121.22437387525785
 20
220.125
 10
121.13056030279328
 20
219.125
 10
117.25
 20
217.69147997026374
 10
116.0
 20
218.5612337046617
 10
113.5
 20
219.07790169279866
 10
110.65629773544084
 20
216.125
 10
111.25
 20
214.28371675767863
 10
114.0
 20
213.20537114578414
 10
115.05169811113609
 20
211.625
 10
113.7179571089503
 20
207.625
 10
115.0
 20
203.19626843216923
 10
117.75
 20
202.4980109940667
 10
119.0
 20
202.9986375010603
 10
121.5
 20
199.68568102444704
 10
123.5
 20
199.13434989518032
 10
125.5
 20
199.90225902422884
 10
126.67097866594675
 20
202.125
 10
126.68075636850921
 20
204.375
 10
125.25170047383826
 20
207.875
 10
125.42876986738655
 20
209.375
 10
124.31639855308458
 20
212.875
 10
122.99978959660191
 20
215.625
 10
122.68590926038578
 20
218.625
 10
124.16878902066959
 20
217.375
  0
LWPOLYLINE
  5
116
330
17
100
AcDbEntity
  8
PASS_03
100
AcDbPolyline
 90
3
 70
1
 10
232.07839574363905
 20
323.0684677444661
 10
232.78823631805216
 20
329.625
 10
231.98624899065436
 20
324.375
  0
LWPOLYLINE
  5
117
330
17
100
AcDbEntity
  8
PASS_03
100
AcDbPolyline
 90
3
 70
1
 10
232.2406417690805
 20
320.8687129930651
 10
232.22995962599097
 20
320.9194706864835
 10
232.23309604252037
 20
320.875
  0
LWPOLYLINE
  5
118
330
17
100
AcDbEntity
  8
PASS_03
100
AcDbPolyline
 90
4
 70
1
 10
235.25
 20
319.7561604543064
 10
235.23879959760137
 20
319.8663689939598
 10
233.6957548313253
 20
319.65633061471016
 10
234.0
 20
319.4028372671679
  0
LWPOLYLINE
  5
119
330
17
100
AcDbEntity
  8
PASS_03
100
AcDbPolyline
 90
3
 70
1
 10
234.60472253129132
 20
322.375
 10
235.20108755938847
 20
320.23744393491967
 10
234.75245465802968
 20
324.6518546979896
  0
LWPOLYLINE
  5
11A
330
17
100
AcDbEntity
  8
PASS_03
100
AcDbPolyline
 90
3
 70
1
 10
234.33806970752053
 20
328.125
 10
234.43083687982755
 20
327.8164754322026
 10
234.3907018055562
 20
328.21139230812366
  0
LWPOLYLINE
  5
11B
330
17
100
AcDbEntity
  8
PASS_03
100
AcDbPolyline
 90
17
 70
1
 10
227.0
 20
277.4056052602758
 10
226.892328575399
 20
273.625
 10
228.5109370222974
 20
271.625
 10
227.62502370623233
 20
271.375
 10
227.52358043761797
 20
269.625
 10
228.75
 20
270.0957884673845
 10
229.5
 20
268.5467386901528
 10
231.55396439709781
 20
268.125
 10
233.25
 20
265.5839690013453
 10
234.50500941097178
 20
267.875
 10
233.1481853821967
 20
270.375
 10
236.5
 20
271.5871954747663
 10
236.10375847318676
 20
273.375
 10
233.75
 20
273.6987198654915
 10
232.25
 20
273.07757024064506
 10
230.16024809940427
 20
274.625
 10
228.5
 20
276.9817995864108
  0
LWPOLYLINE
  5
11C
330
17
100
AcDbEntity
  8
PASS_03
100
AcDbPolyline
 90
445
 70
1
 10
199.45531307326164
 20
117.875
 10
200.3720433050981
 20
118.875
 10
199.9506733715249
 20
120.875
 10
197.35697371462848
 20
122.875
 10
198.5
 20
125.70123126299872
 10
199.25
 20
125.21075640602876
 10
199.40590922758147
 20
123.375
 10
201.25
 20
120.33883807693748
 10
201.75
 20
122.81912432792899
 10
201.91454719821039
 20
121.625
 10
206.75
 20
113.6112726873536
 10
207.3287180242918
 20
114.875
 10
207.07896680580313
 20
117.125
 10
205.80012723964813
 20
120.375
 10
206.47944550410193
 20
121.375
 10
206.5
 20
122.82974857246259
 10
207.75
 20
121.93699876093416
 10
208.5949671096555
 20
123.125
 10
206.22655245958873
 20
126.875
 10
206.0
 20
128.83458565834886
 10
206.75
 20
128.45459104581462
 10
208.0
 20
125.850500195304
 10
209.0
 20
125.96526071245823
 10
209.5
 20
124.60338077375496
 10
210.30145383723536
 20
125.625
 10
210.77737093829026
 20
123.375
 10
209.5
 20
119.2324537793288
 10
210.75
 20
120.40950841068052
 10
211.5
 20
120.32850597875705
 10
211.99140581065882
 20
119.375
 10
210.75
 20
118.05185329366296
 10
209.27116097926208
 20
114.125
 10
209.75
 20
112.6316266836414
 10
211.75
 20
112.40983174275519
 10
215.13694904129207
 20
113.375
 10
213.6667035311465
 20
114.875
 10
214.65905598488473
 20
115.875
 10
214.5
 20
117.37885083626368
 10
213.46089926458663
 20
118.375
 10
213.63710687987938
 20
119.875
 10
212.24958604433715
 20
121.375
 10
212.97142936445877
 20
123.625
 10
215.25
 20
124.26781338163995
 10
216.60683620585246
 20
125.875
 10
218.25
 20
126.22690589900058
 10
219.0
 20
127.28347720448795
 10
221.75
 20
128.1478493779442
 10
222.25
 20
129.7496394994542
 10
224.0
 20
129.88497193559056
 10
224.07718314553915
 20
130.875
 10
224.75
 20
131.37222166353564
 10
226.12651056510478
 20
131.125
 10
227.0
 20
129.59203171321576
 10
227.6026421554034
 20
130.125
 10
227.0
 20
132.14881395728486
 10
224.2553013779372
 20
133.875
 10
225.16924971381587
 20
135.625
 10
224.25
 20
136.2923359948413
 10
222.67249826203928
 20
136.125
 10
223.0
 20
138.03990001957703
 10
221.5
 20
138.57713680716148
 10
220.04693761321843
 20
137.375
 10
220.58811445531342
 20
139.375
 10
220.0
 20
140.82451729080594
 10
219.27863443312782
 20
140.375
 10
218.72977535134507
 20
138.125
 10
216.0
 20
136.92553878350702
 10
215.34769474753622
 20
137.375
 10
217.25
 20
138.60919985250734
 10
217.33860159675288
 20
140.625
 10
215.07230546030075
 20
140.375
 10
213.75
 20
141.3876737948375
 10
211.25
 20
140.27318994146896
 10
210.75
 20
139.18561061367268
 10
211.26971122106713
 20
141.875
 10
212.01174693402928
 20
142.375
 10
211.610094979077
 20
142.875
 10
204.5
 20
142.7516703837801
 10
202.10810625770233
 20
143.375
 10
202.25
 20
144.55804449664123
 10
199.67653983510425
 20
145.125
 10
200.25
 20
146.16617449606662
 10
203.75
 20
148.4190544665588
 10
204.5
 20
148.04100763050178
 10
207.5
 20
148.9829892932163
 10
207.96883321637299
 20
150.625
 10
206.4935246441455
 20
152.375
 10
207.75
 20
152.76390004831262
 10
209.0
 20
151.9446482477598
 10
210.4347765559901
 20
153.875
 10
210.0
 20
154.59430667340308
 10
208.0
 20
154.5618858826523
 10
207.25
 20
155.11967371945258
 10
206.0
 20
154.76233669569854
 10
206.7396025382909
 20
156.125
 10
206.28563680347847
 20
157.125
 10
202.76041291831598
 20
158.625
 10
203.73889411872148
 20
159.375
 10
203.75
 20
160.95440260409111
 10
206.5
 20
159.43800323521918
 10
208.75
 20
159.538989692913
 10
210.0
 20
158.51806699222465
 10
210.5
 20
160.16255345232707
 10
212.0
 20
159.83375126869691
 10
211.81038402568154
 20
161.375
 10
212.8426521636406
 20
162.125
 10
211.83331052354865
 20
162.875
 10
211.2090169091531
 20
164.375
 10
212.5
 20
165.92493481388243
 10
212.55833692491672
 20
167.625
 10
214.25
 20
168.51069965937506
 10
214.41499058839935
 20
169.625
 10
212.75
 20
170.07757409589414
 10
212.42617983574723
 20
167.375
 10
211.75
 20
166.796317416668
 10
210.5
 20
167.6593649057703
 10
209.75
 20
167.3292672824204
 10
209.5
 20
166.15174705163145
 10
208.31646013902
 20
166.625
 10
207.49573530632782
 20
165.375
 10
208.34027804743732
 20
163.125
 10
207.25
 20
161.17964373444454
 10
207.31576891077904
 20
163.375
 10
206.02206523305853
 20
166.375
 10
206.19558697874913
 20
168.125
 10
207.08554831079383
 20
169.125
 10
207.69669606978343
 20
173.875
 10
209.0
 20
173.22951258428714
 10
210.04935782211322
 20
174.375
 10
210.25
 20
175.55576680966146
 10
212.25
 20
175.0557912452512
 10
213.16086205455406
 20
176.125
 10
211.72837693034987
 20
177.375
 10
212.1895029056608
 20
178.125
 10
209.90845740004582
 20
180.125
 10
210.5
 20
180.58272048469644
 10
213.67946128481614
 20
180.625
 10
213.13354241600143
 20
181.875
 10
210.71815003714175
 20
183.125
 10
210.25859419897154
 20
185.375
 10
211.0
 20
185.6513438672864
 10
213.25
 20
184.49322089647723
 10
214.4624809209885
 20
186.125
 10
215.78384560276893
 20
186.375
 10
213.08473705223273
 20
188.375
 10
213.56001727313293
 20
188.875
 10
212.9247970950805
 20
191.375
 10
212.25
 20
191.99009666080843
 10
210.79471070102394
 20
190.875
 10
208.44065643370547
 20
187.125
 10
207.41528865553067
 20
184.875
 10
207.56835195253487
 20
183.375
 10
206.72414676932468
 20
182.875
 10
207.52273668926767
 20
180.875
 10
207.4040365394681
 20
179.375
 10
208.96031957266038
 20
177.125
 10
206.60606786302245
 20
175.375
 10
206.25
 20
174.11500172913549
 10
204.8391357185524
 20
173.375
 10
204.65467462103837
 20
171.375
 10
205.28696000404796
 20
169.375
 10
203.85853049761826
 20
166.125
 10
204.3327909128042
 20
164.375
 10
202.5
 20
165.23367612605236
 10
201.4962094124098
 20
164.375
 10
201.5
 20
163.16032337561097
 10
199.67379518106046
 20
163.625
 10
198.75
 20
159.96488854036755
 10
197.5
 20
160.46327433969577
 10
196.75
 20
159.90482568581714
 10
195.0
 20
160.1653534586771
 10
195.15709500642762
 20
159.375
 10
192.27736639397267
 20
156.375
 10
195.0
 20
156.3816018171515
 10
196.27520027928847
 20
155.625
 10
195.5
 20
155.30024337540374
 10
194.5
 20
155.82961844013977
 10
192.5
 20
155.10005568739354
 10
190.97290252778598
 20
152.375
 10
192.75
 20
151.19987819919828
 10
194.5
 20
151.26987395808175
 10
195.5
 20
152.84861544281128
 10
196.0
 20
152.0325655361612
 10
198.78766585846222
 20
151.375
 10
198.75
 20
150.080898923174
 10
201.02899017335173
 20
149.375
 10
198.5
 20
148.5490497989797
 10
197.25
 20
149.24615520514013
 10
196.75
 20
148.55901635848886
 10
193.75
 20
148.267858603795
 10
192.75
 20
146.34604387909906
 10
194.25
 20
146.3208385878281
 10
196.0304315057205
 20
144.875
 10
194.0
 20
143.74750682166712
 10
191.0
 20
146.3755328926472
 10
189.20624927187293
 20
149.125
 10
187.75
 20
149.10942976999104
 10
187.0
 20
147.69378985331775
 10
188.9223486048478
 20
147.625
 10
189.25060383548796
 20
145.125
 10
192.16213775325892
 20
142.875
 10
191.75
 20
142.33293007011844
 10
191.0
 20
142.85007729203824
 10
190.25
 20
142.545508466637
 10
189.25
 20
143.04350483980818
 10
188.7501063834337
 20
144.125
 10
187.0
 20
144.152927219444
 10
186.7282796281525
 20
145.375
 10
185.83509630925045
 20
146.125
 10
184.9791914328884
 20
145.875
 10
185.4066510637945
 20
144.125
 10
183.75
 20
143.67711790303554
 10
183.54848500346824
 20
141.625
 10
184.25
 20
139.9461044268931
 10
185.0
 20
140.94071619576522
 10
185.97624327927713
 20
140.875
 10
185.9154045260509
 20
140.125
 10
184.09301691103542
 20
138.625
 10
185.9905338178568
 20
137.375
 10
183.8804660678989
 20
136.625
 10
186.0
 20
135.56894644009117
 10
188.5
 20
136.49534099494275
 10
188.5184411414261
 20
135.125
 10
186.0
 20
133.3693563830739
 10
180.75
 20
135.7499289076088
 10
180.56855700992327
 20
133.625
 10
181.0
 20
131.92849746291245
 10
181.85800152591673
 20
131.625
 10
181.5
 20
130.84440706842096
 10
180.75
 20
130.98661804960128
 10
179.4736558936542
 20
133.875
 10
179.98166403428525
 20
135.625
 10
179.48216246324301
 20
136.625
 10
180.58929816921406
 20
136.875
 10
180.43126464854856
 20
137.375
 10
179.5
 20
137.83676064986253
 10
177.75
 20
136.951379120139
 10
176.75
 20
137.57322189623892
 10
176.0
 20
136.78264921963523
 10
175.21534257384226
 20
137.375
 10
176.4046062166806
 20
138.375
 10
178.21732002184774
 20
138.625
 10
178.17919885336678
 20
139.875
 10
180.75
 20
139.28065602322204
 10
180.567531847814
 20
141.125
 10
177.25
 20
142.45125777673724
 10
176.1865749915198
 20
141.625
 10
174.75
 20
138.8631292537175
 10
171.75
 20
137.63746884210914
 10
171.75
 20
138.44826809269614
 10
174.30313382660364
 20
139.875
 10
175.25450895953352
 20
142.125
 10
172.75
 20
142.5349193241138
 10
170.75
 20
141.42242229021116
 10
170.2041238820802
 20
142.125
 10
171.61964355132915
 20
143.125
 10
170.5
 20
144.14350076255317
 10
171.75
 20
144.31665303906885
 10
172.5
 20
143.73318821196614
 10
173.5
 20
144.5287794630909
 10
175.75
 20
143.69432729678329
 10
176.5
 20
144.45071147002125
 10
180.0
 20
144.11114291730829
 10
179.39162173636794
 20
145.625
 10
179.92759294261924
 20
146.875
 10
179.0
 20
147.60234115147958
 10
177.48598199507035
 20
147.375
 10
177.75
 20
151.00079227026464
 10
177.0
 20
150.93405927934907
 10
175.87882884582726
 20
148.875
 10
174.0
 20
147.9482418384677
 10
173.75
 20
150.21349640197565
 10
172.0
 20
150.2065263248437
 10
171.25
 20
148.682062426392
 10
168.75
 20
150.53319326121334
 10
168.25
 20
151.75806615856695
 10
166.5
 20
152.14415204751083
 10
165.75
 20
151.7498176482847
 10
166.25509305865586
 20
149.625
 10
167.5654212821799
 20
148.625
 10
166.89944831025846
 20
147.875
 10
165.75
 20
147.8528630150395
 10
165.41020377065126
 20
147.125
 10
165.9888920146086
 20
144.875
 10
167.73964563258738
 20
144.375
 10
167.05279188236537
 20
143.875
 10
166.80833157949183
 20
142.125
 10
167.5095182522774
 20
140.125
 10
166.0
 20
140.5151754999033
 10
165.25
 20
139.09852482167946
 10
161.25
 20
138.14901027033233
 10
160.95527096976292
 20
139.625
 10
163.5
 20
139.74396910189665
 10
166.03817339050607
 20
142.625
 10
165.54553920927225
 20
143.875
 10
164.1478184873711
 20
144.375
 10
164.25
 20
145.61822336587417
 10
163.0
 20
145.3031398977604
 10
162.20927580414923
 20
145.875
 10
164.13523453391133
 20
146.875
 10
164.6631739973747
 20
148.625
 10
164.52793684772146
 20
149.875
 10
163.56663950445807
 20
150.375
 10
163.56770106927004
 20
151.875
 10
162.25
 20
152.09512965885244
 10
161.5
 20
150.51521005060852
 10
160.5
 20
151.16475992875203
 10
159.8257195519422
 20
150.625
 10
160.05020879576554
 20
147.375
 10
159.5
 20
146.00392159691148
 10
157.676866845194
 20
147.875
 10
158.2381875215557
 20
149.625
 10
157.90056168985473
 20
150.625
 10
156.0
 20
149.76204888464287
 10
155.28737538296497
 20
148.375
 10
154.9793696841475
 20
144.375
 10
153.75
 20
144.50319273535953
 10
152.75
 20
143.03789868877345
 10
152.44738662898237
 20
144.875
 10
153.87148717591145
 20
146.875
 10
152.75
 20
147.59916295444748
 10
153.6845146994237
 20
148.875
 10
152.949572967981
 20
150.125
 10
153.5
 20
151.00305893500249
 10
154.4661679938154
 20
151.125
 10
154.0
 20
151.83185039778175
 10
151.75
 20
152.1820016485242
 10
151.400377271572
 20
149.875
 10
149.91168587611082
 20
148.125
 10
149.5541211181362
 20
145.375
 10
148.56008636516987
 20
144.625
 10
148.75
 20
142.53691724099986
 10
147.79705899869964
 20
143.125
 10
147.42170533677853
 20
144.875
 10
148.44495215088955
 20
145.875
 10
149.1674014314271
 20
150.375
 10
147.6097245824975
 20
149.875
 10
147.85301000698774
 20
151.875
 10
147.25
 20
152.30676669791444
 10
143.75
 20
150.68971598510325
 10
142.32771084337355
 20
152.375
 10
141.68811816856055
 20
154.375
 10
140.75
 20
154.67301169431107
 10
140.49387536312082
 20
154.125
 10
141.01301699790335
 20
152.625
 10
141.0
 20
147.50620777027027
 10
141.80025007814936
 20
146.625
 10
141.161225062676
 20
145.375
 10
141.4074204161166
 20
144.625
 10
142.5
 20
143.926453129452
 10
143.25
 20
145.796735629336
 10
145.91684696098497
 20
143.625
 10
143.5
 20
141.25346401664342
 10
141.3957485234252
 20
140.375
 10
139.63867973816033
 20
136.375
 10
141.25
 20
134.00274470131677
 10
142.0
 20
134.02216059584327
 10
142.75
 20
135.15517547966544
 10
144.29212765742665
 20
134.875
 10
143.90652933261453
 20
137.625
 10
144.75
 20
138.3966212745525
 10
146.0
 20
138.4871360595933
 10
146.75
 20
137.04463958775497
 10
147.8397973925299
 20
136.875
 10
148.0
 20
135.47759284324508
 10
149.0
 20
137.6258122129793
 10
150.04932312784706
 20
137.125
 10
149.32710406126012
 20
135.625
 10
149.75
 20
133.64885429348098
 10
151.05735178631534
 20
133.625
 10
149.684528965962
 20
130.875
 10
149.75
 20
129.90066009505367
 10
150.5
 20
129.62332973653446
 10
152.0
 20
131.95304365238286
 10
153.0
 20
128.79335984794417
 10
153.25
 20
131.3086285585437
 10
154.34189407405304
 20
132.625
 10
153.98094451309322
 20
134.375
 10
155.0
 20
136.25125112749828
 10
155.68543633273174
 20
134.125
 10
155.78349580989664
 20
127.375
 10
157.75
 20
125.54818835011142
 10
158.2333949485058
 20
126.375
 10
157.33893283402432
 20
128.625
 10
157.08113707268507
 20
131.625
 10
158.0629984097659
 20
135.875
 10
158.5
 20
136.1035498244738
 10
159.44147135664977
 20
134.625
 10
159.10032961022517
 20
132.625
 10
160.33882545898692
 20
132.875
 10
159.76619395896444
 20
134.875
 10
160.5
 20
135.4871594028466
 10
161.96762987989396
 20
134.875
 10
162.75
 20
132.25267799094203
 10
163.90216255086918
 20
132.625
 10
163.0
 20
135.67308209416765
 10
165.25
 20
133.82937302782102
 10
166.0
 20
135.9647676786927
 10
166.75
 20
133.89383240586054
 10
168.1847205376263
 20
134.125
 10
168.42850845431326
 20
132.875
 10
166.51489290993965
 20
131.625
 10
167.90219412615966
 20
130.875
 10
167.85584697788536
 20
129.875
 10
166.75
 20
129.2613617350738
 10
165.25
 20
130.43571511416144
 10
160.69553015986725
 20
128.375
 10
162.75
 20
127.00048351162084
 10
163.75
 20
127.72588720387373
 10
165.25
 20
127.14122898663337
 10
166.52278763009457
 20
127.375
 10
165.92427599832195
 20
126.125
 10
164.5
 20
125.1087097887877
 10
161.5
 20
125.08696915441641
 10
161.5
 20
122.76980605806177
 10
163.0
 20
123.32185599347227
 10
165.0
 20
121.6684787549391
 10
166.5
 20
122.44807137112872
 10
167.75
 20
121.96395371058776
 10
169.25
 20
123.89581745921151
 10
170.5
 20
123.33813319363935
 10
171.53296646315792
 20
123.875
 10
173.0
 20
126.64747331542907
 10
174.0
 20
127.38049557279348
 10
174.58329429368536
 20
125.125
 10
173.3176118867778
 20
122.875
 10
174.75563487053464
 20
122.125
 10
174.75
 20
120.51905766248785
 10
180.0
 20
121.24849050654832
 10
184.0
 20
120.37704528704646
 10
192.0
 20
121.85236311966041
 10
193.25
 20
122.92988849959755
 10
194.75
 20
122.6623267212548
 10
196.51642360145925
 20
117.375
 10
195.1401178287425
 20
114.625
 10
196.5
 20
111.29328015765705
 10
199.20347935888776
 20
110.875
 10
198.1898906931459
 20
115.375
 10
198.5
 20
116.37501642749913
 10
201.75
 20
113.04343341843341
 10
204.0
 20
112.25773796423
 10
204.569526793045
 20
112.625
 10
203.44086138174265
 20
113.875
 10
203.59132312199847
 20
114.875
 10
202.5
 20
116.38716352417879
  0
LWPOLYLINE
  5
11D
330
17
100
AcDbEntity
  8
PASS_03
100
AcDbPolyline
 90
27
 70
1
 10
226.273243525723
 20
151.625
 10
227.05465275535605
 20
152.375
 10
227.0
 20
154.02853774276318
 10
223.25
 20
152.10471005852776
 10
221.75
 20
149.8984683551589
 10
221.0
 20
150.73062089479146
 10
219.5
 20
149.15576317918345
 10
220.15009911979294
 20
146.125
 10
221.11817709722905
 20
145.625
 10
220.5
 20
143.39039705988614
 10
219.38118989011343
 20
142.375
 10
220.25
 20
141.4724075029481
 10
220.5
 20
142.48692348246072
 10
223.06755462277437
 20
143.875
 10
223.5
 20
144.9755057601004
 10
223.97150309203985
 20
144.375
 10
223.30752643564077
 20
143.125
 10
221.31136801736056
 20
141.125
 10
222.25
 20
139.99260604093553
 10
225.65488780403555
 20
142.875
 10
226.12083993179607
 20
146.375
 10
225.58031713669212
 20
147.875
 10
226.38666635590164
 20
148.375
 10
224.89913178699638
 20
149.125
 10
224.41568718645186
 20
150.125
 10
225.0
 20
150.60301358595308
 10
227.0
 20
150.29918668747047
  0
LWPOLYLINE
  5
11E
330
17
100
AcDbEntity
  8
PASS_03
100
AcDbPolyline
 90
10
 70
1
 10
220.25
 20
115.49589373153378
 10
220.65845498669637
 20
116.375
 10
219.07159111469892
 20
118.875
 10
219.5
 20
119.2561987276944
 10
220.75
 20
118.73428369752027
 10
220.67351826666808
 20
119.375
 10
215.7260239916551
 20
120.875
 10
216.1393530701129
 20
118.375
 10
217.75
 20
116.59701897061966
 10
219.25
 20
116.45609417501191
  0
LWPOLYLINE
  5
11F
330
17
100
AcDbEntity
  8
PASS_03
100
AcDbPolyline
 90
7
 70
1
 10
216.0
 20
194.8354949326905
 10
215.25
 20
195.00705991924372
 10
213.52641097482132
 20
192.625
 10
214.67503047636595
 20
190.125
 10
217.0
 20
189.34770387553957
 10
217.9135800115076
 20
190.625
 10
216.29737992181794
 20
192.875
  0
LWPOLYLINE
  5
120
330
17
100
AcDbEntity
  8
PASS_03
100
AcDbPolyline
 90
10
 70
1
 10
206.25
 20
253.76485025190524
 10
209.75
 20
249.46592584441274
 10
210.61842783273175
 20
251.625
 10
209.19930143767795
 20
253.625
 10
209.36035827624343
 20
255.625
 10
208.25
 20
257.84298716118394
 10
202.75
 20
258.7721403866394
 10
200.73129043297783
 20
258.375
 10
200.3159582169821
 20
255.625
 10
201.0
 20
254.62803086919516
  0
LWPOLYLINE
  5
121
330
17
100
AcDbEntity
  8
PASS_03
100
AcDbPolyline
 90
18
 70
1
 10
194.5
 20
101.84605082619021
 10
192.25
 20
103.67969601701293
 10
189.61152550843872
 20
100.125
 10
196.75
 20
98.7709857048822
 10
200.0
 20
99.07443475673756
 10
203.0
 20
98.4900852043223
 10
204.13603638108063
 20
97.625
 10
204.05436946800725
 20
96.625
 10
204.75
 20
96.15407633852773
 10
206.19897771228594
 20
96.625
 10
207.04242006328727
 20
98.375
 10
206.75
 20
98.93407274205505
 10
203.5
 20
99.57779644662345
 10
202.0
 20
100.59192209526407
 10
200.5
 20
100.2004009901773
 10
199.5
 20
100.98545187028434
 10
198.75
 20
100.58871635220805
 10
195.25
 20
102.5007080258004
  0
LWPOLYLINE
  5
122
330
17
100
AcDbEntity
  8
PASS_03
100
AcDbPolyline
 90
34
 70
1
 10
195.75
 20
173.19446876243535
 10
196.75
 20
173.718065912617
 10
196.56079275242706
 20
175.125
 10
198.75
 20
175.85433573035516
 10
200.5
 20
179.22050875478146
 10
202.44407880033972
 20
179.375
 10
201.5
 20
180.67655109724333
 10
198.0
 20
181.77101245900423
 10
197.76497437838105
 20
179.375
 10
196.25
 20
180.8993361218773
 10
195.8227363193905
 20
179.125
 10
194.75
 20
179.058153252939
 10
194.0
 20
177.09241305124192
 10
193.25
 20
176.52264046392048
 10
192.5
 20
177.14887978894245
 10
192.06440944909852
 20
176.875
 10
191.75
 20
173.90445833196463
 10
190.75
 20
173.65389832710997
 10
190.71268892182619
 20
172.625
 10
189.86874826450529
 20
172.125
 10
189.21232474840875
 20
170.125
 10
190.15894408449577
 20
168.875
 10
190.0
 20
167.37567972866913
 10
192.25
 20
165.1507194200481
 10
192.95345597548365
 20
165.875
 10
192.25
 20
166.48638495548784
 10
192.47640457856994
 20
168.625
 10
193.5
 20
170.2359095594676
 10
195.25
 20
169.35866843512707
 10
196.40131443178865
 20
170.375
 10
197.5
 20
170.07440381267844
 10
198.3240784901547
 20
170.625
 10
198.5
 20
172.1153521461266
 10
195.5
 20
171.79516782762795
  0
LWPOLYLINE
  5
123
330
17
100
AcDbEntity
  8
PASS_03
100
AcDbPolyline
 90
18
 70
1
 10
194.25
 20
236.39971679509574
 10
192.75
 20
236.69473512563098
 10
190.25
 20
235.87084087291743
 10
188.5
 20
237.48247029692382
 10
187.5235211182196
 20
237.375
 10
187.7556136247801
 20
234.875
 10
190.0
 20
231.09055973384605
 10
192.0
 20
230.65303093684787
 10
193.0
 20
231.08026445698167
 10
194.25
 20
230.2864678363014
 10
195.8668619636295
 20
234.375
 10
197.75
 20
234.7873435788981
 10
199.25
 20
233.42401178929384
 10
200.26883291393509
 20
234.375
 10
199.15885554938973
 20
236.125
 10
199.36919814132642
 20
237.875
 10
198.5
 20
239.979102495695
 10
197.5
 20
239.92337200376681
  0
LWPOLYLINE
  5
124
330
17
100
AcDbEntity
  8
PASS_03
100
AcDbPolyline
 90
90
 70
1
 10
176.95922890057975
 20
185.625
 10
177.82920395600715
 20
186.625
 10
177.75
 20
188.94807866176075
 10
180.0857602080293
 20
185.125
 10
180.24019836317154
 20
182.875
 10
181.5
 20
182.03988642881274
 10
181.6667684272473
 20
183.875
 10
182.7712332692072
 20
184.375
 10
182.86207940428682
 20
185.125
 10
182.081108897571
 20
186.875
 10
180.8326504039578
 20
187.625
 10
180.0
 20
189.16043148570662
 10
181.61537372593432
 20
189.125
 10
182.5
 20
190.50172248474752
 10
184.5
 20
190.54188799595613
 10
185.0
 20
191.62605284836462
 10
187.25
 20
191.50637790888757
 10
190.75
 20
194.96499462787546
 10
194.5
 20
194.73204857199448
 10
195.79583127800387
 20
194.125
 10
195.75
 20
195.44655756207675
 10
190.5
 20
195.9428646429405
 10
189.01229209663708
 20
196.875
 10
193.0
 20
198.77036061031794
 10
194.75
 20
197.85712925218155
 10
194.60692347199085
 20
199.625
 10
193.75
 20
200.09189387733295
 10
192.0
 20
199.63494809481665
 10
189.5
 20
201.2355657812247
 10
188.75
 20
200.11892421602786
 10
186.76733430269243
 20
199.625
 10
187.0
 20
196.8673935788842
 10
185.75
 20
197.18077669778086
 10
183.5
 20
195.17959092355596
 10
178.0
 20
194.36637003058104
 10
175.75
 20
192.85254291795434
 10
173.2123071763917
 20
192.625
 10
175.0292291354863
 20
193.625
 10
176.5
 20
195.67960685436066
 10
178.0
 20
195.83961947578587
 10
178.25
 20
197.46154871573788
 10
179.75
 20
196.63114697899624
 10
181.25
 20
197.71666914152047
 10
182.5
 20
197.451529611233
 10
183.0
 20
198.55935805653525
 10
184.5
 20
199.0783685107856
 10
184.25
 20
201.8351160009036
 10
183.5
 20
202.41246310603123
 10
181.25
 20
201.25087845303867
 10
182.28717285034085
 20
203.375
 10
181.25
 20
204.76725707202402
 10
179.5
 20
204.6867893410015
 10
176.6689060836425
 20
202.875
 10
176.5
 20
201.0687830656487
 10
172.75
 20
198.14105205653345
 10
175.25
 20
202.61430356513262
 10
175.14402729537397
 20
205.625
 10
174.5
 20
205.73848953629005
 10
173.94648795533857
 20
204.625
 10
172.75
 20
204.77715806442058
 10
171.4602599560133
 20
207.875
 10
170.08351519543072
 20
208.875
 10
169.95256698499642
 20
207.625
 10
168.72986220110917
 20
207.625
 10
168.5
 20
206.21763533263544
 10
167.7979251815749
 20
205.625
 10
167.75
 20
200.67928619359168
 10
166.40280995146395
 20
203.875
 10
165.0
 20
205.38487114445462
 10
163.343952713412
 20
203.125
 10
164.55717958813207
 20
200.625
 10
163.28898493641114
 20
197.875
 10
164.29862991781312
 20
194.625
 10
165.70249330975815
 20
192.375
 10
167.80381145277107
 20
183.125
 10
168.66829205010598
 20
182.625
 10
167.64218392922044
 20
186.875
 10
168.0
 20
189.13378367413176
 10
168.40388004475284
 20
188.625
 10
168.08910706576845
 20
187.375
 10
170.75
 20
181.22064604085233
 10
171.25
 20
182.80605860981882
 10
174.21171870061661
 20
181.625
 10
172.25
 20
188.18389885595423
 10
173.8848702683748
 20
186.375
 10
175.75
 20
181.85177756269104
 10
176.297465167208
 20
182.125
 10
174.62309404888097
 20
185.875
 10
174.75
 20
187.5082095767691
 10
178.0
 20
182.98000816750815
  0
LWPOLYLINE
  5
125
330
17
100
AcDbEntity
  8
PASS_03
100
AcDbPolyline
 90
16
 70
1
 10
184.5
 20
114.7502583445054
 10
183.6918436373789
 20
113.125
 10
180.5
 20
111.78040922882792
 10
179.53694368327515
 20
110.375
 10
180.75
 20
109.80338474591676
 10
183.75
 20
111.34678993061185
 10
190.5
 20
109.04321735432138
 10
191.5
 20
110.350915582594
 10
193.0
 20
109.2096766655866
 10
193.80450413260633
 20
109.375
 10
192.67623670350096
 20
112.625
 10
194.0
 20
112.6744894460108
 10
194.43890495234658
 20
114.375
 10
193.25
 20
116.12019008911051
 10
191.5
 20
116.80684623763274
 10
189.5034706607674
 20
113.375
  0
LWPOLYLINE
  5
126
330
17
100
AcDbEntity
  8
PASS_03
100
AcDbPolyline
 90
101
 70
1
 10
167.0
 20
169.00593807436732
 10
166.75
 20
171.77773232584718
 10
168.75
 20
173.6452268268417
 10
170.0
 20
173.34891006572343
 10
171.25
 20
171.8591703167355
 10
173.25
 20
172.0786513605879
 10
174.0
 20
172.79537479305475
 10
176.25
 20
172.19213994953094
 10
177.5
 20
172.58415866839601
 10
178.52877092263557
 20
172.125
 10
180.0
 20
169.98554415905303
 10
181.5
 20
171.74335366067564
 10
182.5
 20
171.60425587706047
 10
183.0
 20
172.6357140009568
 10
185.25
 20
171.41379108646947
 10
186.0
 20
174.18050131008664
 10
188.25
 20
174.83281833971745
 10
188.87896144114725
 20
175.625
 10
188.6287997126789
 20
177.625
 10
188.0
 20
177.98102162613944
 10
185.75
 20
175.8884436666276
 10
184.5
 20
176.4787916914765
 10
183.5
 20
176.1181890822777
 10
182.5
 20
176.4466017874779
 10
182.2603146521766
 20
177.875
 10
181.0
 20
178.33068058964506
 10
180.0
 20
177.72351138230988
 10
179.25
 20
179.0185581075704
 10
178.0
 20
178.8110403223007
 10
177.5
 20
177.73140932541946
 10
176.5
 20
178.91682698589096
 10
175.75
 20
178.3148825579995
 10
173.5
 20
179.16732844254943
 10
172.75
 20
178.2348176863287
 10
171.25
 20
178.33221786599938
 10
170.25
 20
179.0572905125421
 10
168.25
 20
178.6889559875434
 10
166.0
 20
180.8080963256757
 10
162.2800811381439
 20
181.375
 10
162.34211836428113
 20
183.375
 10
161.5
 20
184.50342944654662
 10
163.5
 20
182.79209280746534
 10
164.5
 20
183.01380793000138
 10
166.0
 20
182.0990761545467
 10
166.26759043960843
 20
182.875
 10
164.78476491699112
 20
187.625
 10
162.85874902716523
 20
188.125
 10
163.40289368421048
 20
189.375
 10
163.23120536268328
 20
194.125
 10
162.5
 20
195.5481554653765
 10
160.76788515689282
 20
195.625
 10
161.20230338756775
 20
196.875
 10
160.8864445444732
 20
199.125
 10
159.5
 20
200.71879859433182
 10
157.75
 20
199.27525797092392
 10
157.14108254919108
 20
197.625
 10
158.36648394438345
 20
194.125
 10
157.45557849166042
 20
192.125
 10
158.83293398648735
 20
182.125
 10
157.13319074631215
 20
187.625
 10
155.82015042631423
 20
189.375
 10
156.15699674906654
 20
190.875
 10
154.92267620039522
 20
194.375
 10
153.75
 20
196.55804230549603
 10
152.25
 20
197.17622349611935
 10
151.29136203235865
 20
196.125
 10
151.34087921720675
 20
194.375
 10
150.55278899787135
 20
192.625
 10
150.61569917759462
 20
185.375
 10
151.54927747561388
 20
182.125
 10
151.0
 20
181.98804945530503
 10
148.75
 20
183.88561446390486
 10
147.84856924466112
 20
183.625
 10
147.81605806979852
 20
182.375
 10
148.5
 20
180.3269642407454
 10
149.75
 20
179.2254203680203
 10
150.4016501377544
 20
176.875
 10
149.94959424598517
 20
174.375
 10
151.5
 20
169.31970501322888
 10
152.0
 20
169.3480606994346
 10
152.25
 20
170.93214433469512
 10
153.0
 20
170.9980452564891
 10
154.0
 20
172.33974415722378
 10
154.75
 20
170.05959847224963
 10
155.75
 20
169.40250811547008
 10
156.5
 20
166.83731776169347
 10
157.53175222967903
 20
169.375
 10
156.96445571455894
 20
171.125
 10
157.4961562631775
 20
173.375
 10
157.0
 20
176.23255191944617
 10
159.10475991570823
 20
168.875
 10
159.0
 20
166.50126145751875
 10
159.79224829117757
 20
168.125
 10
159.5
 20
177.86484393940117
 10
160.5
 20
176.72970394893537
 10
161.75
 20
170.8401440239334
 10
162.25
 20
170.40641820242098
 10
162.75
 20
171.60628568559378
 10
163.36950094205724
 20
168.625
 10
164.5
 20
167.276716113073
 10
165.0
 20
170.89905546726817
  0
LWPOLYLINE
  5
127
330
17
100
AcDbEntity
  8
PASS_03
100
AcDbPolyline
 90
7
 70
1
 10
184.75
 20
232.7670430247281
 10
182.58331292750222
 20
231.375
 10
183.39499871109322
 20
230.125
 10
184.75
 20
230.03340289678067
 10
186.5
 20
226.86181533455027
 10
187.22411287333443
 20
228.625
 10
186.5
 20
232.64257706167527
  0
LWPOLYLINE
  5
128
330
17
100
AcDbEntity
  8
PASS_03
100
AcDbPolyline
 90
7
 70
1
 10
135.93865138632992
 20
206.125
 10
136.5
 20
205.13217610632887
 10
137.5
 20
205.91789305769026
 10
138.50761388631736
 20
205.625
 10
139.5
 20
203.75152378520337
 10
140.3070831510767
 20
204.125
 10
139.75
 20
207.92222540597754
  0
LWPOLYLINE
  5
129
330
17
100
AcDbEntity
  8
PASS_03
100
AcDbPolyline
 90
29
 70
1
 10
126.0
 20
174.3491453315154
 10
126.81483981599548
 20
175.125
 10
127.50519457650994
 20
179.375
 10
126.49782928824024
 20
182.625
 10
126.78939785212896
 20
184.125
 10
126.21294243554928
 20
185.125
 10
124.64994224447751
 20
185.625
 10
124.13972635537473
 20
186.875
 10
124.62175555933844
 20
189.125
 10
123.25
 20
190.27775358400112
 10
122.08531174161017
 20
187.625
 10
123.0
 20
176.71562943122737
 10
123.47315091108973
 20
177.375
 10
123.17939293964231
 20
178.875
 10
124.0
 20
179.92032796457022
 10
124.43514250123886
 20
179.375
 10
122.77466828095086
 20
174.125
 10
124.23647154406609
 20
169.875
 10
123.4691176219593
 20
163.875
 10
124.122501062455
 20
160.875
 10
126.0
 20
158.39377465714824
 10
125.42642728773883
 20
161.125
 10
126.1218581965656
 20
163.625
 10
124.86209924865875
 20
166.375
 10
125.5
 20
167.30749257360355
 10
126.75
 20
166.28669061825275
 10
126.99995030241267
 20
167.375
 10
126.45801513157227
 20
170.375
 10
125.42916912894458
 20
172.375
  0
LWPOLYLINE
  5
12A
330
17
100
AcDbEntity
  8
PASS_03
100
AcDbPolyline
 90
8
 70
1
 10
110.23699348795972
 20
201.375
 10
110.99654776159755
 20
208.125
 10
109.75
 20
210.43268375994046
 10
108.14723666880442
 20
208.625
 10
107.84228477578715
 20
206.875
 10
108.96261376769165
 20
198.625
 10
110.0
 20
197.17010073133326
 10
110.52077145244915
 20
198.875
  0
LWPOLYLINE
  5
12B
330
17
100
AcDbEntity
  8
PASS_03
100
AcDbPolyline
 90
7
 70
1
 10
109.0
 20
221.83020480019283
 10
107.96330606195644
 20
219.875
 10
108.74535969750502
 20
217.375
 10
108.08000371816324
 20
215.625
 10
109.5
 20
214.7004726898644
 10
110.37261618172994
 20
216.125
 10
109.27543102074635
 20
221.625
  0
LWPOLYLINE
  5
12C
330
17
100
AcDbEntity
  8
PASS_03
100
AcDbPolyline
 90
42
 70
1
 10
100.72327134216297
 20
184.875
 10
102.75
 20
185.45378617889872
 10
103.63013615539414
 20
184.625
 10
103.65115459142142
 20
180.625
 10
105.5
 20
179.59819843236275
 10
104.38976027427603
 20
183.125
 10
105.25
 20
182.2320963006972
 10
105.70676576114813
 20
182.875
 10
103.78210738428339
 20
184.875
 10
105.25
 20
185.49066092466654
 10
105.6545922505741
 20
188.125
 10
105.25
 20
188.7457565906338
 10
103.75
 20
188.33802579303847
 10
102.75
 20
189.11396576515568
 10
101.75
 20
188.0857536680527
 10
101.0
 20
188.30495725312085
 10
101.75
 20
190.58042779856197
 10
103.95259882599086
 20
190.625
 10
102.45392723193841
 20
192.625
 10
102.4250875718089
 20
194.125
 10
101.0
 20
194.70936983560932
 10
99.0
 20
193.94189360250812
 10
97.29449913290563
 20
190.375
 10
98.71021250753239
 20
184.375
 10
97.16853520372673
 20
180.125
 10
97.512868866231
 20
177.125
 10
96.37905922684371
 20
173.875
 10
96.42610911813094
 20
172.375
 10
98.0
 20
168.59300338154816
 10
100.75
 20
169.0180428492303
 10
102.0
 20
170.3300136322327
 10
102.5
 20
168.3578654641312
 10
103.0
 20
168.293393897694
 10
103.2419454280733
 20
169.875
 10
105.6900432604868
 20
170.875
 10
105.75
 20
171.634497933605
 10
104.27374169278995
 20
173.375
 10
105.75
 20
173.25322466307057
 10
106.09403702967754
 20
176.625
 10
103.34240067343461
 20
179.125
 10
103.4294155654675
 20
180.875
 10
101.38778280125331
 20
182.375
  0
LWPOLYLINE
  5
12D
330
17
100
AcDbEntity
  8
PASS_03
100
AcDbPolyline
 90
25
 70
1
 10
101.25
 20
220.90382201179554
 10
100.75
 20
221.56832967528962
 10
100.25
 20
221.2652691933112
 10
98.41277484767221
 20
215.875
 10
97.9497925097422
 20
212.125
 10
99.53744188072777
 20
211.125
 10
97.97572374147113
 20
210.125
 10
98.64002656797983
 20
208.625
 10
97.95603094589181
 20
206.375
 10
99.08986142346869
 20
205.875
 10
97.63919655087311
 20
204.875
 10
97.54322037585418
 20
201.625
 10
99.0
 20
198.50466144993825
 10
101.5
 20
197.59090505556185
 10
103.5
 20
198.74034942201857
 10
105.25
 20
197.27254119306568
 10
105.65572185454565
 20
199.125
 10
104.36664021769178
 20
210.125
 10
102.49234966064775
 20
211.125
 10
102.00340728664585
 20
212.875
 10
102.5
 20
214.3295983760317
 10
103.81760534406838
 20
214.125
 10
102.5917549405251
 20
218.375
 10
102.8950352383802
 20
220.875
 10
102.25
 20
221.91608628106474
  0
LWPOLYLINE
  5
12E
330
17
100
AcDbEntity
  8
PASS_03
100
AcDbPolyline
 90
10
 70
1
 10
95.03015969389456
 20
199.625
 10
95.5
 20
198.198443784784
 10
96.9842871227463
 20
202.375
 10
97.07295902154368
 20
212.375
 10
96.25
 20
215.7738561141648
 10
95.04251474903256
 20
213.875
 10
94.02819857233646
 20
209.125
 10
94.60196463286364
 20
206.375
 10
93.68282545626636
 20
201.125
 10
94.0
 20
199.9007860848909
  0
LWPOLYLINE
  5
12F
330
17
100
AcDbEntity
  8
PASS_03
100
AcDbPolyline
 90
45
 70
1
 10
62.72712370022759
 20
183.625
 10
60.25
 20
184.46260183919628
 10
57.75
 20
183.85434040211294
 10
55.5
 20
181.50497023901792
 10
53.957057731880695
 20
183.375
 10
50.25
 20
186.15961705454313
 10
50.25
 20
188.0702818806338
 10
54.25
 20
189.5188554595044
 10
53.8200782196761
 20
191.125
 10
55.30592506631301
 20
192.375
 10
55.0
 20
194.26825435395722
 10
57.25
 20
194.09903075082457
 10
58.75
 20
193.1148572651444
 10
61.5
 20
194.61543362346114
 10
63.826635891000336
 20
194.375
 10
65.53023317448987
 20
190.625
 10
65.18470455332462
 20
185.875
 10
65.8280360028071
 20
185.375
 10
65.60255971004435
 20
183.375
 10
66.25
 20
182.91727435959473
 10
71.0
 20
184.53985617218865
 10
73.0
 20
185.951261903726
 10
74.26998488776741
 20
188.375
 10
74.09226073496085
 20
190.125
 10
74.88991161536356
 20
190.625
 10
74.91982419787196
 20
186.875
 10
75.4155826468105
 20
186.125
 10
72.93680387107491
 20
183.875
 10
72.14467832873885
 20
181.375
 10
72.75
 20
180.11705045890443
 10
69.25
 20
182.04750006095924
 10
67.181425347123
 20
180.875
 10
66.20575420140399
 20
177.875
 10
66.45316911483161
 20
175.625
 10
65.94930188866391
 20
174.625
 10
66.45723146090627
 20
172.875
 10
70.75199907155772
 20
169.625
 10
71.0
 20
167.45970809530445
 10
66.5
 20
169.21072397077907
 10
64.75
 20
168.17026587059584
 10
60.25
 20
172.13724012380482
 10
60.0
 20
174.84696858222316
 10
62.0
 20
173.2803748580406
 10
62.75294889235299
 20
173.625
 10
64.30270805904235
 20
180.625
  0
LWPOLYLINE
  5
130
330
17
100
AcDbEntity
  8
PASS_03
100
AcDbPolyline
 90
72
 70
1
 10
263.0
 20
337.14116547946685
 10
263.4394926162088
 20
336.125
 10
262.7219868687821
 20
334.875
 10
263.59962533878
 20
333.125
 10
263.26648814023486
 20
331.875
 10
262.5
 20
331.66175293953944
 10
261.75
 20
334.4356832436563
 10
260.0274165078921
 20
335.875
 10
259.8917128391288
 20
337.125
 10
257.5
 20
339.1030449999506
 10
255.75
 20
339.6322540492489
 10
254.0
 20
338.8694114478137
 10
253.49614178470512
 20
340.125
 10
249.75
 20
340.1227494773612
 10
248.33632967535314
 20
341.375
 10
250.1718898826371
 20
342.25
 10
258.25
 20
342.8341341203349
 10
268.0
 20
341.74217208348347
 10
272.75
 20
344.51995407255805
 10
283.25
 20
344.6963828898201
 10
286.9501445348195
 20
347.625
 10
288.5
 20
355.56941599564817
 10
289.9556609373443
 20
356.375
 10
290.93143066840315
 20
353.375
 10
291.25
 20
348.4750794657406
 10
293.5
 20
349.37013000396763
 10
297.52987880755285
 20
348.875
 10
292.57695054137594
 20
348.125
 10
292.64938368456404
 20
346.875
 10
291.61150379263563
 20
345.875
 10
292.35761870556723
 20
343.125
 10
291.25
 20
339.1285105931063
 10
288.8262872005379
 20
339.875
 10
289.85905050719214
 20
342.375
 10
289.25
 20
343.63283258606634
 10
288.25
 20
343.04449010399196
 10
286.75
 20
343.57288785273414
 10
284.0
 20
343.3821383526206
 10
282.67678882012706
 20
342.125
 10
283.2509850173368
 20
340.125
 10
282.75
 20
338.5260060569203
 10
281.5
 20
339.3697585281201
 10
279.75
 20
338.96096500956554
 10
280.66504625670774
 20
340.625
 10
279.6548043133493
 20
341.625
 10
278.25
 20
341.88095771953397
 10
276.2457179979251
 20
340.125
 10
276.2773316446453
 20
337.375
 10
276.9640182385342
 20
336.625
 10
275.8171851720372
 20
335.625
 10
278.5
 20
333.1564811573468
 10
278.5
 20
332.52681951023624
 10
276.96380691807974
 20
333.375
 10
274.75
 20
335.8518888524685
 10
275.52790936920894
 20
337.125
 10
273.75
 20
340.44749948917047
 10
271.0
 20
340.59682415366126
 10
268.75
 20
339.7391935633834
 10
267.5
 20
340.20404731654406
 10
267.28250349624443
 20
339.375
 10
269.6543625654081
 20
334.875
 10
268.82604573878274
 20
333.625
 10
269.63778916570357
 20
329.125
 10
272.29262621361306
 20
327.375
 10
270.75
 20
325.69219803947703
 10
267.8447710519711
 20
326.125
 10
269.37220722066627
 20
327.125
 10
268.5
 20
328.1213549525264
 10
267.5
 20
328.1438829720429
 10
266.2285600676123
 20
333.875
 10
266.923620311448
 20
335.125
 10
265.25
 20
336.74182719246767
  0
LWPOLYLINE
  5
131
330
17
100
AcDbEntity
  8
PASS_03
100
AcDbPolyline
 90
17
 70
1
 10
382.0
 20
387.55637553844366
 10
383.5
 20
387.62828747250694
 10
383.96769807009724
 20
386.125
 10
382.25
 20
386.0703121145918
 10
380.84756086476136
 20
384.625
 10
381.0
 20
384.0983326948429
 10
381.5
 20
384.27250575676226
 10
381.8755164038618
 20
382.625
 10
380.5993653481328
 20
382.375
 10
379.08726660950776
 20
376.625
 10
376.25
 20
378.84379131397594
 10
374.6969434035425
 20
378.625
 10
375.7619883946991
 20
379.625
 10
377.72266574700177
 20
380.125
 10
376.8444709593457
 20
382.875
 10
378.09044223765517
 20
386.875
 10
381.25
 20
386.64941138120315
  0
LWPOLYLINE
  5
132
330
17
100
AcDbEntity
  8
PASS_03
100
AcDbPolyline
 90
13
 70
1
 10
442.5
 20
392.3282488836235
 10
443.875
 20
389.8173102335021
 10
444.08346253077417
 20
387.125
 10
445.7661140700302
 20
384.625
 10
444.0
 20
383.2671050673413
 10
443.6986088736743
 20
387.125
 10
441.75
 20
389.29249158067523
 10
439.25
 20
389.60218502691396
 10
438.0
 20
388.22058572022866
 10
435.6509541873821
 20
389.625
 10
436.10669805972907
 20
390.625
 10
438.5
 20
390.7060182517961
 10
440.5
 20
392.5426852643324
  0
LWPOLYLINE
  5
133
330
17
100
AcDbEntity
  8
PASS_03
100
AcDbPolyline
 90
15
 70
1
 10
382.747416977027
 20
396.125
 10
382.7283523752254
 20
394.375
 10
379.7212214504309
 20
394.125
 10
379.27052076257417
 20
392.625
 10
377.6465929149565
 20
391.375
 10
376.4117520262115
 20
387.375
 10
375.5852059635104
 20
387.625
 10
376.3761047493124
 20
390.125
 10
375.3716040616457
 20
393.375
 10
377.59910102381536
 20
394.125
 10
378.7527515587737
 20
395.375
 10
379.25
 20
397.03376809989965
 10
383.75
 20
399.01231228453884
 10
385.75
 20
398.21026131900607
 10
385.8955352983285
 20
397.375
  0
ENDSEC
  0
SECTION
  2
OBJECTS
  0
DICTIONARY
  5
A
330
0
100
AcDbDictionary
281
1
  3
ACAD_COLOR
350
B
  3
ACAD_GROUP
350
C
  3
ACAD_LAYOUT
350
D
  3
ACAD_MATERIAL
350
E
  3
ACAD_MLEADERSTYLE
350
F
  3
ACAD_MLINESTYLE
350
10
  3
ACAD_PLOTSETTINGS
350
11
  3
ACAD_PLOTSTYLENAME
350
12
  3
ACAD_SCALELIST
350
14
  3
ACAD_TABLESTYLE
350
15
  3
ACAD_VISUALSTYLE
350
16
  3
EZDXF_META
350
2D
  0
DICTIONARY
  5
B
330
A
100
AcDbDictionary
281
1
  0
DICTIONARY
  5
C
330
A
100
AcDbDictionary
281
1
  0
DICTIONARY
  5
D
330
A
100
AcDbDictionary
281
1
  3
Model
350
1A
  3
Layout1
350
1E
  0
DICTIONARY
  5
E
330
A
100
AcDbDictionary
281
1
  3
ByBlock
350
1F
  3
ByLayer
350
20
  3
Global
350
21
  0
DICTIONARY
  5
F
330
A
100
AcDbDictionary
281
1
  3
Standard
350
2C
  0
DICTIONARY
  5
10
330
A
100
AcDbDictionary
281
1
  3
Standard
350
22
  0
DICTIONARY
  5
11
330
A
100
AcDbDictionary
281
1
  0
ACDBDICTIONARYWDFLT
  5
12
330
A
100
AcDbDictionary
281
1
  3
Normal
350
13
100
AcDbDictionaryWithDefault
340
13
  0
ACDBPLACEHOLDER
  5
13
330
12
  0
DICTIONARY
  5
14
330
A
100
AcDbDictionary
281
1
  0
DICTIONARY
  5
15
330
A
100
AcDbDictionary
281
1
  0
DICTIONARY
  5
16
330
A
100
AcDbDictionary
281
1
  0
LAYOUT
  5
1A
330
D
100
AcDbPlotSettings
  1

  4
A3
  6

 40
7.5
 41
20.0
 42
7.5
 43
20.0
 44
420.0
 45
297.0
 46
0.0
 47
0.0
 48
0.0
 49
0.0
140
0.0
141
0.0
142
1.0
143
1.0
 70
1024
 72
1
 73
0
 74
5
  7

 75
16
 76
0
 77
2
 78
300
147
1.0
148
0.0
149
0.0
100
AcDbLayout
  1
Model
 70
1
 71
0
 10
0.0
 20
0.0
 11
420.0
 21
297.0
 12
0.0
 22
0.0
 32
0.0
 14
1e+20
 24
1e+20
 34
1e+20
 15
-1e+20
 25
-1e+20
 35
-1e+20
146
0.0
 13
0.0
 23
0.0
 33
0.0
 16
1.0
 26
0.0
 36
0.0
 17
0.0
 27
1.0
 37
0.0
 76
1
330
17
  0
LAYOUT
  5
1E
330
D
100
AcDbPlotSettings
  1

  4
A3
  6

 40
7.5
 41
20.0
 42
7.5
 43
20.0
 44
420.0
 45
297.0
 46
0.0
 47
0.0
 48
0.0
 49
0.0
140
0.0
141
0.0
142
1.0
143
1.0
 70
0
 72
1
 73
0
 74
5
  7

 75
16
 76
0
 77
2
 78
300
147
1.0
148
0.0
149
0.0
100
AcDbLayout
  1
Layout1
 70
1
 71
1
 10
0.0
 20
0.0
 11
420.0
 21
297.0
 12
0.0
 22
0.0
 32
0.0
 14
1e+20
 24
1e+20
 34
1e+20
 15
-1e+20
 25
-1e+20
 35
-1e+20
146
0.0
 13
0.0
 23
0.0
 33
0.0
 16
1.0
 26
0.0
 36
0.0
 17
0.0
 27
1.0
 37
0.0
 76
1
330
1B
  0
MATERIAL
  5
1F
102
{ACAD_REACTORS
330
E
102
}
330
E
100
AcDbMaterial
  1
ByBlock
  2

 70
0
 40
1.0
 71
1
 41
1.0
 91
-1023410177
 42
1.0
 72
1
  3

 73
1
 74
1
 75
1
 44
0.5
 73
0
 45
1.0
 46
1.0
 77
1
  4

 78
1
 79
1
170
1
 48
1.0
171
1
  6

172
1
173
1
174
1
140
1.0
141
1.0
175
1
  7

176
1
177
1
178
1
143
1.0
179
1
  8

270
1
271
1
272
1
145
1.0
146
1.0
273
1
  9

274
1
275
1
276
1
 42
1.0
 72
1
  3

 73
1
 74
1
 75
1
 94
63
  0
MATERIAL
  5
20
102
{ACAD_REACTORS
330
E
102
}
330
E
100
AcDbMaterial
  1
ByLayer
  2

 70
0
 40
1.0
 71
1
 41
1.0
 91
-1023410177
 42
1.0
 72
1
  3

 73
1
 74
1
 75
1
 44
0.5
 73
0
 45
1.0
 46
1.0
 77
1
  4

 78
1
 79
1
170
1
 48
1.0
171
1
  6

172
1
173
1
174
1
140
1.0
141
1.0
175
1
  7

176
1
177
1
178
1
143
1.0
179
1
  8

270
1
271
1
272
1
145
1.0
146
1.0
273
1
  9

274
1
275
1
276
1
 42
1.0
 72
1
  3

 73
1
 74
1
 75
1
 94
63
  0
MATERIAL
  5
21
102
{ACAD_REACTORS
330
E
102
}
330
E
100
AcDbMaterial
  1
Global
  2

 70
0
 40
1.0
 71
1
 41
1.0
 91
-1023410177
 42
1.0
 72
1
  3

 73
1
 74
1
 75
1
 44
0.5
 73
0
 45
1.0
 46
1.0
 77
1
  4

 78
1
 79
1
170
1
 48
1.0
171
1
  6

172
1
173
1
174
1
140
1.0
141
1.0
175
1
  7

176
1
177
1
178
1
143
1.0
179
1
  8

270
1
271
1
272
1
145
1.0
146
1.0
273
1
  9

274
1
275
1
276
1
 42
1.0
 72
1
  3

 73
1
 74
1
 75
1
 94
63
  0
MLINESTYLE
  5
22
102
{ACAD_REACTORS
330
10
102
}
330
10
100
AcDbMlineStyle
  2
Standard
 70
0
  3

 62
256
 51
90.0
 52
90.0
 71
2
 49
0.5
 62
256
  6
BYLAYER
 49
-0.5
 62
256
  6
BYLAYER
  0
MLEADERSTYLE
  5
2C
102
{ACAD_REACTORS
330
F
102
}
330
F
100
AcDbMLeaderStyle
179
2
170
2
171
1
172
0
 90
2
 40
0.0
 41
0.0
173
1
 91
-1056964608
 92
-2
290
1
 42
2.0
291
1
 43
8.0
  3
Standard
 44
4.0
300

342
29
174
1
175
1
176
0
178
1
 93
-1056964608
 45
4.0
292
0
297
0
 46
4.0
 94
-1056964608
 47
1.0
 49
1.0
140
1.0
294
1
141
0.0
177
0
142
1.0
295
0
296
0
143
3.75
271
0
272
9
273
9
  0
DICTIONARY
  5
2D
330
A
100
AcDbDictionary
280
1
281
1
  3
CREATED_BY_EZDXF
350
2E
  3
WRITTEN_BY_EZDXF
350
136
  0
DICTIONARYVAR
  5
2E
330
2D
100
DictionaryVariables
280
0
  1
1.4.3 @ 2026-09-03T21:25:23.220260+00:00
  0
DICTIONARYVAR
  5
136
330
2D
100
DictionaryVariables
280
0
  1
1.4.3 @ 2026-09-03T21:25:23.232010+00:00
  0
ENDSEC
  0
EOF
