  0
SECTION
  2
HEADER
  9
$ACADVER
  1
AC1024
  9
$ACADMAINTVER
 70
6
  9
$DWGCODEPAGE
  3
ANSI_1252
  9
$LASTSAVEDBY
  1
ezdxf
  9
$INSBASE
 10
0.0
 20
0.0
 30
0.0
  9
$EXTMIN
 10
1e+20
 20
1e+20
 30
1e+20
  9
$EXTMAX
 10
-1e+20
 20
-1e+20
 30
-1e+20
  9
$LIMMIN
 10
0.0
 20
0.0
  9
$LIMMAX
 10
420.0
 20
297.0
  9
$ORTHOMODE
 70
0
  9
$REGENMODE
 70
1
  9
$FILLMODE
 70
1
  9
$QTEXTMODE
 70
0
  9
$MIRRTEXT
 70
1
  9
$LTSCALE
 40
1.0
  9
$ATTMODE
 70
1
  9
$TEXTSIZE
 40
2.5
  9
$TRACEWID
 40
1.0
  9
$TEXTSTYLE
  7
Standard
  9
$CLAYER
  8
0
  9
$CELTYPE
  6
ByLayer
  9
$CECOLOR
 62
256
  9
$CELTSCALE
 40
1.0
  9
$DISPSILH
 70
0
  9
$DIMSCALE
 40
1.0
  9
$DIMASZ
 40
2.5
  9
$DIMEXO
 40
0.625
  9
$DIMDLI
 40
3.75
  9
$DIMRND
 40
0.0
  9
$DIMDLE
 40
0.0
  9
$DIMEXE
 40
1.25
  9
$DIMTP
 40
0.0
  9
$DIMTM
 40
0.0
  9
$DIMTXT
 40
2.5
  9
$DIMCEN
 40
2.5
  9
$DIMTSZ
 40
0.0
  9
$DIMTOL
 70
0
  9
$DIMLIM
 70
0
  9
$DIMTIH
 70
0
  9
$DIMTOH
 70
0
  9
$DIMSE1
 70
0
  9
$DIMSE2
 70
0
  9
$DIMTAD
 70
1
  9
$DIMZIN
 70
8
  9
$DIMBLK
  1

  9
$DIMASO
 70
1
  9
$DIMSHO
 70
1
  9
$DIMPOST
  1

  9
$DIMAPOST
  1

  9
$DIMALT
 70
0
  9
$DIMALTD
 70
3
  9
$DIMALTF
 40
0.03937007874
  9
$DIMLFAC
 40
1.0
  9
$DIMTOFL
 70
1
  9
$DIMTVP
 40
0.0
  9
$DIMTIX
 70
0
  9
$DIMSOXD
 70
0
  9
$DIMSAH
 70
0
  9
$DIMBLK1
  1

  9
$DIMBLK2
  1

  9
$DIMSTYLE
  2
ISO-25
  9
$DIMCLRD
 70
0
  9
$DIMCLRE
 70
0
  9
$DIMCLRT
 70
0
  9
$DIMTFAC
 40
1.0
  9
$DIMGAP
 40
0.625
  9
$DIMJUST
 70
0
  9
$DIMSD1
 70
0
  9
$DIMSD2
 70
0
  9
$DIMTOLJ
 70
0
  9
$DIMTZIN
 70
8
  9
$DIMALTZ
 70
0
  9
$DIMALTTZ
 70
0
  9
$DIMUPT
 70
0
  9
$DIMDEC
 70
2
  9
$DIMTDEC
 70
2
  9
$DIMALTU
 70
2
  9
$DIMALTTD
 70
3
  9
$DIMTXSTY
  7
Standard
  9
$DIMAUNIT
 70
0
  9
$DIMADEC
 70
0
  9
$DIMALTRND
 40
0.0
  9
$DIMAZIN
 70
0
  9
$DIMDSEP
 70
44
  9
$DIMATFIT
 70
3
  9
$DIMFRAC
 70
0
  9
$DIMLDRBLK
  1

  9
$DIMLUNIT
 70
2
  9
$DIMLWD
 70
-2
  9
$DIMLWE
 70
-2
  9
$DIMTMOVE
 70
0
  9
$DIMFXL
 40
1.0
  9
$DIMFXLON
 70
0
  9
$DIMJOGANG
 40
0.785398163397
  9
$DIMTFILL
 70
0
  9
$DIMTFILLCLR
 70
0
  9
$DIMARCSYM
 70
0
  9
$DIMLTYPE
  6

  9
$DIMLTEX1
  6

  9
$DIMLTEX2
  6

  9
$DIMTXTDIRECTION
 70
0
  9
$LUNITS
 70
2
  9
$LUPREC
 70
4
  9
$SKETCHINC
 40
1.0
  9
$FILLETRAD
 40
10.0
  9
$AUNITS
 70
0
  9
$AUPREC
 70
2
  9
$MENU
  1
.
  9
$ELEVATION
 40
0.0
  9
$PELEVATION
 40
0.0
  9
$THICKNESS
 40
0.0
  9
$LIMCHECK
 70
0
  9
$CHAMFERA
 40
0.0
  9
$CHAMFERB
 40
0.0
  9
$CHAMFERC
 40
0.0
  9
$CHAMFERD
 40
0.0
  9
$SKPOLY
 70
0
  9
$TDCREATE
 40
2461288.3092939816
  9
$TDUCREATE
 40
2458532.153996898
  9
$TDUPDATE
 40
2461288.3092939816
  9
$TDUUPDATE
 40
2458532.1544311
  9
$TDINDWG
 40
0.0
  9
$TDUSRTIMER
 40
0.0
  9
$USRTIMER
 70
1
  9
$ANGBASE
 50
0.0
  9
$ANGDIR
 70
0
  9
$PDMODE
 70
0
  9
$PDSIZE
 40
0.0
  9
$PLINEWID
 40
0.0
  9
$SPLFRAME
 70
0
  9
$SPLINETYPE
 70
6
  9
$SPLINESEGS
 70
8
  9
$HANDSEED
  5
80
  9
$SURFTAB1
 70
6
  9
$SURFTAB2
 70
6
  9
$SURFTYPE
 70
6
  9
$SURFU
 70
6
  9
$SURFV
 70
6
  9
$UCSBASE
  2

  9
$UCSNAME
  2

  9
$UCSORG
 10
0.0
 20
0.0
 30
0.0
  9
$UCSXDIR
 10
1.0
 20
0.0
 30
0.0
  9
$UCSYDIR
 10
0.0
 20
1.0
 30
0.0
  9
$UCSORTHOREF
  2

  9
$UCSORTHOVIEW
 70
0
  9
$UCSORGTOP
 10
0.0
 20
0.0
 30
0.0
  9
$UCSORGBOTTOM
 10
0.0
 20
0.0
 30
0.0
  9
$UCSORGLEFT
 10
0.0
 20
0.0
 30
0.0
  9
$UCSORGRIGHT
 10
0.0
 20
0.0
 30
0.0
  9
$UCSORGFRONT
 10
0.0
 20
0.0
 30
0.0
  9
$UCSORGBACK
 10
0.0
 20
0.0
 30
0.0
  9
$PUCSBASE
  2

  9
$PUCSNAME
  2

  9
$PUCSORG
 10
0.0
 20
0.0
 30
0.0
  9
$PUCSXDIR
 10
1.0
 20
0.0
 30
0.0
  9
$PUCSYDIR
 10
0.0
 20
1.0
 30
0.0
  9
$PUCSORTHOREF
  2

  9
$PUCSORTHOVIEW
 70
0
  9
$PUCSORGTOP
 10
0.0
 20
0.0
 30
0.0
  9
$PUCSORGBOTTOM
 10
0.0
 20
0.0
 30
0.0
  9
$PUCSORGLEFT
 10
0.0
 20
0.0
 30
0.0
  9
$PUCSORGRIGHT
 10
0.0
 20
0.0
 30
0.0
  9
$PUCSORGFRONT
 10
0.0
 20
0.0
 30
0.0
  9
$PUCSORGBACK
 10
0.0
 20
0.0
 30
0.0
  9
$USERI1
 70
0
  9
$USERI2
 70
0
  9
$USERI3
 70
0
  9
$USERI4
 70
0
  9
$USERI5
 70
0
  9
$USERR1
 40
0.0
  9
$USERR2
 40
0.0
  9
$USERR3
 40
0.0
  9
$USERR4
 40
0.0
  9
$USERR5
 40
0.0
  9
$WORLDVIEW
 70
1
  9
$SHADEDGE
 70
3
  9
$SHADEDIF
 70
70
  9
$TILEMODE
 70
1
  9
$MAXACTVP
 70
64
  9
$PINSBASE
 10
0.0
 20
0.0
 30
0.0
  9
$PLIMCHECK
 70
0
  9
$PEXTMIN
 10
1e+20
 20
1e+20
 30
1e+20
  9
$PEXTMAX
 10
-1e+20
 20
-1e+20
 30
-1e+20
  9
$PLIMMIN
 10
0.0
 20
0.0
  9
$PLIMMAX
 10
420.0
 20
297.0
  9
$UNITMODE
 70
0
  9
$VISRETAIN
 70
1
  9
$PLINEGEN
 70
0
  9
$PSLTSCALE
 70
1
  9
$TREEDEPTH
 70
3020
  9
$CMLSTYLE
  2
Standard
  9
$CMLJUST
 70
0
  9
$CMLSCALE
 40
20.0
  9
$PROXYGRAPHICS
 70
1
  9
$MEASUREMENT
 70
1
  9
$CELWEIGHT
370
-1
  9
$ENDCAPS
280
0
  9
$JOINSTYLE
280
0
  9
$LWDISPLAY
290
0
  9
$INSUNITS
 70
4
  9
$HYPERLINKBASE
  1

  9
$STYLESHEET
  1

  9
$XEDIT
290
1
  9
$CEPSNTYPE
380
0
  9
$PSTYLEMODE
290
1
  9
$FINGERPRINTGUID
  2
{231BF5AF-9075-4156-B1C1-C44C5ED31EC8}
  9
$VERSIONGUID
  2
{E19FE96E-30DD-4407-9A77-3DAB717812A2}
  9
$EXTNAMES
290
1
  9
$PSVPSCALE
 40
0.0
  9
$OLESTARTUP
290
0
  9
$SORTENTS
280
127
  9
$INDEXCTL
280
0
  9
$HIDETEXT
280
1
  9
$XCLIPFRAME
280
1
  9
$HALOGAP
280
0
  9
$OBSCOLOR
 70
257
  9
$OBSLTYPE
280
0
  9
$INTERSECTIONDISPLAY
280
0
  9
$INTERSECTIONCOLOR
 70
257
  9
$DIMASSOC
280
2
  9
$PROJECTNAME
  1

  9
$CAMERADISPLAY
290
0
  9
$LENSLENGTH
 40
50.0
  9
$CAMERAHEIGHT
 40
0.0
  9
$STEPSPERSEC
 40
24.0
  9
$STEPSIZE
 40
100.0
  9
$3DDWFPREC
 40
2.0
  9
$PSOLWIDTH
 40
0.005
  9
$PSOLHEIGHT
 40
0.08
  9
$LOFTANG1
 40
1.570796326795
  9
$LOFTANG2
 40
1.570796326795
  9
$LOFTMAG1
 40
0.0
  9
$LOFTMAG2
 40
0.0
  9
$LOFTPARAM
 70
7
  9
$LOFTNORMALS
280
1
  9
$LATITUDE
 40
37.795
  9
$LONGITUDE
 40
-122.394
  9
$NORTHDIRECTION
 40
0.0
  9
$TIMEZONE
 70
-8000
  9
$LIGHTGLYPHDISPLAY
280
1
  9
$TILEMODELIGHTSYNCH
280
1
  9
$CMATERIAL
347
20
  9
$SOLIDHIST
280
0
  9
$SHOWHIST
280
1
  9
$DWFFRAME
280
2
  9
$DGNFRAME
280
2
  9
$REALWORLDSCALE
290
1
  9
$INTERFERECOLOR
 62
256
  9
$CSHADOW
280
0
  9
$SHADOWPLANELOCATION
 40
0.0
  0
ENDSEC
  0
SECTION
  2
CLASSES
  0
CLASS
  1
ACDBDICTIONARYWDFLT
  2
AcDbDictionaryWithDefault
  3
ObjectDBX Classes
 90
0
 91
0
280
0
281
0
  0
CLASS
  1
SUN
  2
AcDbSun
  3
SCENEOE
 90
1153
 91
0
280
0
281
0
  0
CLASS
  1
VISUALSTYLE
  2
AcDbVisualStyle
  3
ObjectDBX Classes
 90
4095
 91
0
280
0
281
0
  0
CLASS
  1
MATERIAL
  2
AcDbMaterial
  3
ObjectDBX Classes
 90
1153
 91
0
280
0
281
0
  0
CLASS
  1
SCALE
  2
AcDbScale
  3
ObjectDBX Classes
 90
1153
 91
0
280
0
281
0
  0
CLASS
  1
TABLESTYLE
  2
AcDbTableStyle
  3
ObjectDBX Classes
 90
4095
 91
0
280
0
281
0
  0
CLASS
  1
MLEADERSTYLE
  2
AcDbMLeaderStyle
  3
ACDB_MLEADERSTYLE_CLASS
 90
4095
 91
0
280
0
281
0
  0
CLASS
  1
DICTIONARYVAR
  2
AcDbDictionaryVar
  3
ObjectDBX Classes
 90
0
 91
0
280
0
281
0
  0
CLASS
  1
CELLSTYLEMAP
  2
AcDbCellStyleMap
  3
ObjectDBX Classes
 90
1152
 91
0
280
0
281
0
  0
CLASS
  1
MENTALRAYRENDERSETTINGS
  2
AcDbMentalRayRenderSettings
  3
SCENEOE
 90
1024
 91
0
280
0
281
0
  0
CLASS
  1
ACDBDETAILVIEWSTYLE
  2
AcDbDetailViewStyle
  3
ObjectDBX Classes
 90
1025
 91
0
280
0
281
0
  0
CLASS
  1
ACDBSECTIONVIEWSTYLE
  2
AcDbSectionViewStyle
  3
ObjectDBX Classes
 90
1025
 91
0
280
0
281
0
  0
CLASS
  1
RASTERVARIABLES
  2
AcDbRasterVariables
  3
ISM
 90
0
 91
0
280
0
281
0
  0
CLASS
  1
ACDBPLACEHOLDER
  2
AcDbPlaceHolder
  3
ObjectDBX Classes
 90
0
 91
0
280
0
281
0
  0
CLASS
  1
LAYOUT
  2
AcDbLayout
  3
ObjectDBX Classes
 90
0
 91
0
280
0
281
0
  0
ENDSEC
  0
SECTION
  2
TABLES
  0
TABLE
  2
VPORT
  5
8
330
0
100
AcDbSymbolTable
 70
1
  0
VPORT
  5
23
330
8
100
AcDbSymbolTableRecord
100
AcDbViewportTableRecord
  2
*Active
 70
0
 10
0.0
 20
0.0
 11
1.0
 21
1.0
 12
0.0
 22
0.0
 13
0.0
 23
0.0
 14
0.5
 24
0.5
 15
0.5
 25
0.5
 16
0.0
 26
0.0
 36
1.0
 17
0.0
 27
0.0
 37
0.0
 40
1000.0
 41
1.34
 42
50.0
 43
0.0
 44
0.0
 50
0.0
 51
0.0
 71
0
 72
1000
 73
1
 74
3
 75
0
 76
0
 77
0
 78
0
281
0
 65
0
146
0.0
  0
ENDTAB
  0
TABLE
  2
LTYPE
  5
2
330
0
100
AcDbSymbolTable
 70
3
  0
LTYPE
  5
24
330
2
100
AcDbSymbolTableRecord
100
AcDbLinetypeTableRecord
  2
ByBlock
 70
0
  3

 72
65
 73
0
 40
0.0
  0
LTYPE
  5
25
330
2
100
AcDbSymbolTableRecord
100
AcDbLinetypeTableRecord
  2
ByLayer
 70
0
  3

 72
65
 73
0
 40
0.0
  0
LTYPE
  5
26
330
2
100
AcDbSymbolTableRecord
100
AcDbLinetypeTableRecord
  2
Continuous
 70
0
  3

 72
65
 73
0
 40
0.0
  0
ENDTAB
  0
TABLE
  2
LAYER
  5
1
330
0
100
AcDbSymbolTable
 70
3
  0
LAYER
  5
27
330
1
100
AcDbSymbolTableRecord
100
AcDbLayerTableRecord
  2
0
 70
0
 62
7
  6
Continuous
370
-3
390
13
347
21
  0
LAYER
  5
28
330
1
100
AcDbSymbolTableRecord
100
AcDbLayerTableRecord
  2
Defpoints
 70
0
 62
7
  6
Continuous
290
0
370
-3
390
13
347
21
  0
LAYER
  5
2F
330
1
100
AcDbSymbolTableRecord
100
AcDbLayerTableRecord
  2
PASS_02
 70
0
 62
2
  6
Continuous
370
-3
390
13
347
21
  0
ENDTAB
  0
TABLE
  2
STYLE
  5
5
330
0
100
AcDbSymbolTable
 70
1
  0
STYLE
  5
29
330
5
100
AcDbSymbolTableRecord
100
AcDbTextStyleTableRecord
  2
Standard
 70
0
 40
0.0
 41
1.0
 50
0.0
 71
0
 42
2.5
  3
txt
  4

  0
ENDTAB
  0
TABLE
  2
VIEW
  5
7
330
0
100
AcDbSymbolTable
 70
0
  0
ENDTAB
  0
TABLE
  2
UCS
  5
6
330
0
100
AcDbSymbolTable
 70
0
  0
ENDTAB
  0
TABLE
  2
APPID
  5
3
330
0
100
AcDbSymbolTable
 70
3
  0
APPID
  5
2A
330
3
100
AcDbSymbolTableRecord
100
AcDbRegAppTableRecord
  2
ACAD
 70
0
  0
APPID
  5
7D
330
3
100
AcDbSymbolTableRecord
100
AcDbRegAppTableRecord
  2
HATCHBACKGROUNDCOLOR
 70
0
  0
APPID
  5
7E
330
3
100
AcDbSymbolTableRecord
100
AcDbRegAppTableRecord
  2
EZDXF
 70
0
  0
ENDTAB
  0
TABLE
  2
DIMSTYLE
  5
4
330
0
100
AcDbSymbolTable
 70
1
100
AcDbDimStyleTable
  0
DIMSTYLE
105
2B
330
4
100
AcDbSymbolTableRecord
100
AcDbDimStyleTableRecord
  2
Standard
 70
0
 40
1.0
 41
2.5
 42
0.625
 43
3.75
 44
1.25
 45
0.0
 46
0.0
 47
0.0
 48
0.0
 49
2.5
140
2.5
141
2.5
142
0.0
143
0.03937007874
144
1.0
145
0.0
146
1.0
147
0.625
148
0.0
 69
0
 70
0
 71
0
 72
0
 73
0
 74
0
 75
0
 76
0
 77
1
 78
8
 79
3
170
0
171
3
172
1
173
0
174
0
175
0
176
0
177
0
178
0
179
2
271
2
272
2
273
2
274
3
275
0
276
0
277
2
278
44
279
0
280
0
281
0
282
0
283
0
284
8
285
0
286
0
288
0
289
3
290
0
371
-2
372
-2
  0
ENDTAB
  0
TABLE
  2
BLOCK_RECORD
  5
9
330
0
100
AcDbSymbolTable
 70
2
  0
BLOCK_RECORD
  5
17
330
9
100
AcDbSymbolTableRecord
100
AcDbBlockTableRecord
  2
*Model_Space
340
1A
 70
0
280
1
281
0
  0
BLOCK_RECORD
  5
1B
330
9
100
AcDbSymbolTableRecord
100
AcDbBlockTableRecord
  2
*Paper_Space
340
1E
 70
0
280
1
281
0
  0
ENDTAB
  0
ENDSEC
  0
SECTION
  2
BLOCKS
  0
BLOCK
  5
18
330
17
100
AcDbEntity
  8
0
100
AcDbBlockBegin
  2
*Model_Space
 70
0
 10
0.0
 20
0.0
 30
0.0
  3
*Model_Space
  1

  0
ENDBLK
  5
19
330
17
100
AcDbEntity
  8
0
100
AcDbBlockEnd
  0
BLOCK
  5
1C
330
1B
100
AcDbEntity
  8
0
100
AcDbBlockBegin
  2
*Paper_Space
 70
0
 10
0.0
 20
0.0
 30
0.0
  3
*Paper_Space
  1

  0
ENDBLK
  5
1D
330
1B
100
AcDbEntity
  8
0
100
AcDbBlockEnd
  0
ENDSEC
  0
SECTION
  2
ENTITIES
  0
LWPOLYLINE
  5
30
330
17
100
AcDbEntity
  8
PASS_02
100
AcDbPolyline
 90
1393
 70
1
 10
203.18758525113097
 20
84.0
 10
201.0
 20
85.88612669471709
 10
198.60477309700846
 20
85.0
 10
196.74199236485106
 20
85.0
 10
195.25
 20
86.43546279457392
 10
192.4738862207106
 20
87.25
 10
190.5
 20
88.81331139082532
 10
189.0
 20
89.18781536284781
 10
183.25
 20
89.20596108376316
 10
179.5
 20
87.69759142085485
 10
170.75
 20
90.21219020652259
 10
165.5
 20
90.25420069945865
 10
164.0
 20
89.88581803641445
 10
163.0
 20
88.45051524434186
 10
162.25
 20
88.2716031892384
 10
160.42190418205573
 20
91.125
 10
158.25
 20
92.7683279928147
 10
146.75
 20
96.3684491471157
 10
145.17030411115428
 20
102.625
 10
141.75
 20
106.41788805253955
 10
138.75
 20
108.51894692986423
 10
136.0
 20
109.28234874516784
 10
134.5
 20
108.80785588378768
 10
129.5
 20
109.28040121242182
 10
127.5
 20
108.10748113654641
 10
126.25
 20
109.81737547304557
 10
122.72668473989796
 20
109.375
 10
122.125
 20
111.75
 10
120.5
 20
111.36250248997513
 10
118.57280111572665
 20
112.625
 10
120.05899103638943
 20
113.625
 10
120.2220915060303
 20
114.375
 10
117.26275392542053
 20
116.375
 10
116.25
 20
121.81855387362873
 10
116.5
 20
122.33866053770913
 10
118.25
 20
120.8115679934218
 10
119.59331549552496
 20
122.375
 10
119.84241237750743
 20
124.625
 10
119.27008889390406
 20
127.125
 10
119.75
 20
127.97870708158182
 10
121.25
 20
127.91633898666839
 10
121.70228160699877
 20
129.375
 10
120.0
 20
130.25488563619368
 10
119.12615583775123
 20
129.625
 10
118.91866891891894
 20
133.125
 10
119.5
 20
133.6732315807679
 10
120.75
 20
133.31439733744799
 10
123.28490328006725
 20
134.625
 10
125.5
 20
142.0192481792942
 10
125.25622091458023
 20
138.125
 10
125.88965316055331
 20
137.125
 10
125.28040530175193
 20
136.375
 10
125.41543516013014
 20
135.125
 10
124.89471573053603
 20
133.625
 10
123.51993464820518
 20
133.625
 10
123.1998804409234
 20
132.875
 10
123.75
 20
132.4261999854105
 10
124.75
 20
132.87679083662184
 10
125.75
 20
131.6467566789171
 10
127.0
 20
132.33064192538274
 10
127.59199606133072
 20
131.875
 10
126.28501854452485
 20
128.625
 10
124.36540915285703
 20
128.125
 10
125.0
 20
121.58036795881286
 10
125.5
 20
122.49041863814031
 10
126.75
 20
120.68397997009527
 10
129.0
 20
120.63350699504517
 10
129.52498524039703
 20
117.375
 10
131.25
 20
115.2377199054223
 10
132.8012333617371
 20
114.625
 10
133.0
 20
113.02014664425893
 10
135.5141063360303
 20
113.125
 10
134.73159729668637
 20
111.125
 10
135.25
 20
109.98508376029402
 10
138.75
 20
108.74587891861646
 10
140.5
 20
108.93910521384474
 10
141.32006790564685
 20
112.125
 10
143.4141417138594
 20
114.625
 10
144.0
 20
116.39589142963378
 10
144.85265444282524
 20
116.625
 10
146.5
 20
119.33944594728337
 10
149.75
 20
121.13386402046855
 10
149.75
 20
124.93896699467447
 10
151.49803320561944
 20
122.875
 10
151.16747583146673
 20
122.125
 10
151.75
 20
121.37454012794298
 10
154.0
 20
124.37866729596601
 10
156.0
 20
121.70904060770886
 10
159.75
 20
124.6324312626192
 10
159.33998514802718
 20
122.375
 10
161.0
 20
120.67563603089296
 10
163.0
 20
120.88518020422529
 10
167.0
 20
119.32447713438427
 10
168.5
 20
120.01995541448466
 10
170.0
 20
119.65986473052611
 10
171.3280779887361
 20
120.625
 10
172.0
 20
122.23278496468876
 10
172.65290001473156
 20
120.625
 10
172.48749867155902
 20
118.625
 10
177.5
 20
117.1190174251173
 10
178.87421567372024
 20
118.625
 10
181.0
 20
119.21326255910856
 10
186.0
 20
120.0785225907357
 10
188.0
 20
119.83967382729293
 10
189.75
 20
120.54956322204205
 10
192.0901083698409
 20
120.375
 10
192.45185465730157
 20
118.875
 10
190.75
 20
118.75286030315777
 10
188.5
 20
116.04904625669046
 10
183.75
 20
116.43619603138481
 10
182.16638083390706
 20
114.125
 10
178.0
 20
110.76876788029173
 10
175.3025512631567
 20
109.375
 10
177.0
 20
108.0482897160995
 10
177.5
 20
106.39855031093006
 10
178.75
 20
105.26796279860957
 10
179.69946172457304
 20
105.625
 10
180.0
 20
107.75994795395714
 10
183.25
 20
107.09395713729853
 10
185.25
 20
105.39960373548709
 10
186.0
 20
103.47994840252993
 10
188.0
 20
103.432182779257
 10
188.71572611066804
 20
102.875
 10
188.75
 20
102.35618276419717
 10
187.3407949211891
 20
102.125
 10
186.79810494590632
 20
100.375
 10
187.8965336232417
 20
99.375
 10
191.5
 20
99.32829453652981
 10
196.75
 20
98.13770827069453
 10
200.0
 20
98.2040567930892
 10
202.75
 20
97.3490787180955
 10
204.5
 20
95.83701278062642
 10
207.19119819653767
 20
96.625
 10
207.9973698905272
 20
98.625
 10
207.00567033534986
 20
101.375
 10
207.64911197094364
 20
102.625
 10
207.38758365745122
 20
105.875
 10
208.2302736895784
 20
107.125
 10
206.34019278641406
 20
110.375
 10
206.2095611224391
 20
111.625
 10
207.25
 20
110.66915425296803
 10
208.5
 20
113.51475531121432
 10
210.37731783958688
 20
108.125
 10
210.25
 20
100.83583674592018
 10
213.75
 20
100.79862590189371
 10
215.5
 20
98.72859463176364
 10
220.5
 20
99.37193272460112
 10
220.06181811656617
 20
100.375
 10
217.0
 20
101.31266223562142
 10
216.25
 20
102.76131713554985
 10
215.0
 20
103.24379811804957
 10
214.20031515904284
 20
104.375
 10
214.41444581280788
 20
105.875
 10
215.8633961688939
 20
105.625
 10
214.25
 20
109.11188046647224
 10
216.0
 20
111.51431221483107
 10
217.25
 20
111.11286374109314
 10
218.88197144715534
 20
112.375
 10
217.25
 20
115.06895177210193
 10
220.25
 20
113.9561998845791
 10
222.5270143180684
 20
114.875
 10
222.75
 20
116.51975117434817
 10
224.25
 20
115.9712296541506
 10
225.4564227461341
 20
116.875
 10
222.25
 20
120.52773797587696
 10
221.0
 20
120.97895300765376
 10
220.25
 20
122.54502488752752
 10
221.25
 20
122.49337110675557
 10
222.5
 20
120.88443350179924
 10
223.5
 20
121.12516646352475
 10
227.25
 20
117.28328617849743
 10
228.20013963301736
 20
118.625
 10
224.94769419978198
 20
121.875
 10
224.75
 20
123.63289462720975
 10
227.0
 20
120.72877176538576
 10
229.75
 20
119.80756009978464
 10
229.52853165313067
 20
120.875
 10
228.291062042558
 20
121.875
 10
228.9716346847223
 20
122.875
 10
228.04584421886736
 20
124.625
 10
227.97089205524327
 20
126.375
 10
231.25
 20
120.97283036888926
 10
231.3537577717374
 20
123.625
 10
230.75
 20
125.34499873944279
 10
232.25
 20
123.81789950774214
 10
234.59822799557284
 20
126.375
 10
234.0
 20
126.84515637148078
 10
232.25
 20
126.04593359523098
 10
230.38990453972306
 20
127.375
 10
226.0936700998716
 20
134.625
 10
226.38287913224195
 20
135.625
 10
224.54445773364696
 20
137.375
 10
226.84843739289977
 20
137.125
 10
226.19559665914997
 20
143.875
 10
227.5819175081132
 20
150.125
 10
228.10740568648092
 20
153.875
 10
227.75
 20
154.5795444485081
 10
220.5
 20
152.0887252447304
 10
218.8501641361179
 20
149.625
 10
218.75766877199115
 20
147.375
 10
218.25
 20
146.84158347761132
 10
217.56809216019627
 20
148.625
 10
216.1751224083507
 20
148.625
 10
215.4450566332983
 20
145.875
 10
215.8222143599929
 20
141.875
 10
213.25
 20
142.27690739512593
 10
213.25
 20
143.04032395351192
 10
214.25
 20
142.84608026450945
 10
214.5
 20
143.2912883233803
 10
214.25
 20
146.98550505050505
 10
212.4257880876161
 20
148.625
 10
214.5
 20
148.77861197869552
 10
216.04554074512725
 20
150.375
 10
215.70520675417944
 20
153.125
 10
216.26668894410543
 20
153.875
 10
213.25
 20
156.06393792377833
 10
210.75
 20
155.72710132149933
 10
210.19103499951657
 20
156.875
 10
214.75
 20
156.2394388369329
 10
217.25
 20
155.0411666983984
 10
218.5
 20
156.20127773810384
 10
220.5
 20
156.44765882629375
 10
222.0
 20
154.86289369815742
 10
223.49181092875835
 20
155.125
 10
221.87185169785167
 20
156.125
 10
222.03610597712617
 20
158.625
 10
221.02513574981387
 20
160.875
 10
220.96557648222708
 20
163.375
 10
222.51058906768088
 20
164.875
 10
222.65465592130715
 20
165.875
 10
220.25
 20
168.96101308067324
 10
217.1830500671398
 20
167.875
 10
216.97265354453853
 20
169.875
 10
218.25
 20
169.6059525424879
 10
219.25
 20
171.9334615803172
 10
219.53739700664
 20
179.125
 10
219.0
 20
179.53216243875073
 10
218.3706906157306
 20
179.125
 10
216.5
 20
175.30103898135064
 10
216.35976809674142
 20
176.625
 10
215.32713128923672
 20
177.625
 10
217.0445415133735
 20
177.625
 10
217.3470507399405
 20
179.125
 10
216.5
 20
180.4368602300013
 10
217.5
 20
180.23393889518962
 10
219.0
 20
180.96051891201097
 10
218.83803602472472
 20
184.125
 10
217.44006589881633
 20
186.125
 10
219.0
 20
185.75762444194433
 10
219.56388324188475
 20
187.375
 10
218.73907290981734
 20
191.625
 10
216.72545032164314
 20
195.375
 10
215.0
 20
195.63864191346818
 10
211.5
 20
192.75016536276655
 10
209.75
 20
189.92123614894638
 10
208.6246300300737
 20
189.125
 10
207.5
 20
186.2525547729227
 10
206.17500100450545
 20
185.125
 10
206.7925592684981
 20
179.625
 10
208.07719244612497
 20
177.375
 10
206.0
 20
176.18666207103945
 10
205.5
 20
175.07015066653491
 10
203.96985870812415
 20
174.625
 10
204.4783636560793
 20
168.625
 10
202.00309043429908
 20
165.625
 10
198.77392612380126
 20
163.625
 10
198.5
 20
160.8916826302513
 10
194.5
 20
160.93517782004102
 10
193.25
 20
158.30253925024033
 10
191.75
 20
157.05122182310635
 10
188.95988738516252
 20
156.875
 10
189.0
 20
153.79821075777699
 10
187.25
 20
153.63547278029432
 10
186.0
 20
152.03884937948936
 10
186.48312949555705
 20
148.875
 10
184.17655012457715
 20
146.375
 10
184.08745596467926
 20
144.875
 10
183.09140940867854
 20
144.125
 10
182.25
 20
141.27913957298654
 10
182.1050457200458
 20
143.625
 10
184.1697612955099
 20
147.875
 10
181.92981425495051
 20
153.125
 10
177.75
 20
153.05201614499617
 10
175.0
 20
150.6656716030376
 10
171.25
 20
151.25943044968292
 10
167.5
 20
153.70690530128314
 10
165.0
 20
152.79395782352094
 10
164.2484072417966
 20
153.375
 10
163.0
 20
159.97736886632822
 10
165.25
 20
154.9117746527217
 10
168.75
 20
154.13810150806373
 10
173.0
 20
152.23568241254355
 10
174.6615552132984
 20
153.625
 10
174.75
 20
156.54412758580162
 10
175.9885920474096
 20
153.875
 10
177.9407111596514
 20
154.625
 10
177.39969896450313
 20
155.625
 10
177.40383784697437
 20
158.625
 10
176.75
 20
159.64950680003165
 10
177.82635028449167
 20
158.875
 10
178.54934713362204
 20
155.125
 10
179.54745984983515
 20
154.875
 10
179.25
 20
161.89616369469985
 10
180.29306294745848
 20
161.125
 10
180.0651933479458
 20
157.625
 10
180.75
 20
155.37163283420813
 10
183.75
 20
154.537161093912
 10
184.3885814819925
 20
155.125
 10
183.6029278345171
 20
156.375
 10
184.5
 20
160.93772244943074
 10
185.75
 20
158.27460246835545
 10
189.25
 20
159.19319206788185
 10
190.75
 20
158.81453783880968
 10
191.8374793115611
 20
159.625
 10
192.02312703527616
 20
161.375
 10
192.75
 20
162.30997045301498
 10
196.44483797566778
 20
162.875
 10
196.1158719926672
 20
164.875
 10
197.25
 20
166.0975761034411
 10
200.7312208782416
 20
166.875
 10
200.4119029518884
 20
167.875
 10
202.02870464800392
 20
169.875
 10
201.29181295865425
 20
172.125
 10
200.20273814460728
 20
172.875
 10
201.75
 20
174.1036083154797
 10
202.04051697755094
 20
175.875
 10
203.58148618770076
 20
177.125
 10
202.75
 20
180.84505360161256
 10
199.0
 20
182.7517367213115
 10
197.5
 20
182.75039757529203
 10
194.79652680122248
 20
180.875
 10
193.5
 20
177.8650593804395
 10
192.25
 20
178.23735781975427
 10
190.5
 20
177.8280311255881
 10
189.5
 20
178.777902826371
 10
187.75
 20
179.22243765846895
 10
186.75
 20
178.3436806641352
 10
186.7414242572108
 20
178.875
 10
189.0
 20
180.05545743520292
 10
193.0
 20
178.93722136384855
 10
193.5230887150662
 20
181.625
 10
194.89844779864768
 20
183.125
 10
194.3857419134424
 20
184.875
 10
196.0
 20
183.512082964466
 10
197.25
 20
185.72379260744486
 10
198.75
 20
184.0152299727211
 10
203.13670723961644
 20
182.375
 10
200.20028874731182
 20
191.375
 10
201.99468236087216
 20
190.375
 10
203.0
 20
187.13315372313252
 10
204.25
 20
187.5956970354967
 10
205.0
 20
189.43353038460185
 10
206.0
 20
188.3312654354129
 10
205.9440644470954
 20
190.125
 10
206.75
 20
192.42846500848407
 10
208.02667553488527
 20
193.875
 10
207.5
 20
195.1302483143903
 10
204.75
 20
196.31408018658396
 10
201.25
 20
198.97430760675013
 10
198.0
 20
200.61053518665557
 10
196.75
 20
200.61619634737423
 10
196.42209231957096
 20
202.625
 10
195.75
 20
203.68449618763037
 10
194.72254356738551
 20
203.375
 10
193.75
 20
206.5051519322812
 10
192.0
 20
206.2024952684165
 10
189.75
 20
207.00638119070743
 10
188.75
 20
206.5701260047597
 10
187.0
 20
207.4471277886825
 10
185.04500074057876
 20
205.125
 10
186.29364447475527
 20
201.875
 10
185.75
 20
201.05936456598693
 10
184.26295610853447
 20
205.125
 10
182.5
 20
205.1395516390021
 10
179.6677587643694
 20
209.125
 10
176.25
 20
211.32272808053477
 10
175.25
 20
209.2510037927563
 10
174.5
 20
209.68395933608372
 10
173.25
 20
209.24219993997548
 10
172.5
 20
210.26539267222233
 10
169.5
 20
210.31998685999406
 10
167.5233560955642
 20
207.875
 10
166.75
 20
205.27707705709412
 10
164.75
 20
207.37762100851052
 10
163.95700496550114
 20
206.875
 10
163.5
 20
205.4497185261003
 10
161.29063230327225
 20
204.125
 10
161.31742515140212
 20
202.625
 10
162.87702092802235
 20
199.625
 10
162.5
 20
198.52926349675536
 10
158.75
 20
202.96885546952552
 10
158.25
 20
203.12101380957688
 10
157.5
 20
201.9317180416219
 10
156.5
 20
201.58228375854014
 10
156.36846112079337
 20
198.375
 10
157.12771166401066
 20
194.625
 10
154.0
 20
198.23294102844886
 10
151.75
 20
199.2004042878566
 10
150.75
 20
198.28003853369597
 10
149.4631836066784
 20
198.875
 10
149.5
 20
194.0184842118985
 10
147.75
 20
195.87966592250626
 10
146.72746019724383
 20
195.625
 10
145.19397924124405
 20
190.625
 10
146.1598425494542
 20
186.625
 10
146.0
 20
178.93583526300472
 10
145.16284528015473
 20
179.625
 10
145.53806351849647
 20
181.125
 10
142.74311029390222
 20
185.875
 10
141.0
 20
184.71412304889458
 10
140.0
 20
182.33776559712783
 10
138.21655773811392
 20
180.875
 10
138.0261627385699
 20
178.125
 10
136.5
 20
176.26397619264523
 10
135.04149781163886
 20
176.375
 10
134.0
 20
175.54537534108437
 10
132.5
 20
176.0420307047275
 10
131.24908530165303
 20
174.875
 10
131.22735929868043
 20
173.375
 10
130.5
 20
172.48864052147215
 10
129.75
 20
172.46838840928973
 10
129.27144926724804
 20
173.375
 10
129.5
 20
174.38852204272723
 10
130.52903364592302
 20
174.625
 10
129.35226867037056
 20
176.125
 10
129.3622236913361
 20
179.125
 10
126.60818883892266
 20
189.625
 10
124.75
 20
192.71922251264243
 10
122.25
 20
192.20803523296752
 10
120.81864109802397
 20
187.125
 10
121.25
 20
171.39172521261423
 10
120.75
 20
171.08830691258288
 10
119.5
 20
172.3719961283432
 10
118.93404586349183
 20
171.375
 10
119.74849465295277
 20
170.625
 10
118.5
 20
169.5443531093638
 10
118.13777005546697
 20
172.875
 10
117.5
 20
173.32553011274024
 10
116.9104656424179
 20
171.875
 10
117.68453204241587
 20
168.875
 10
117.38307516980963
 20
167.625
 10
116.75
 20
167.10108564912002
 10
115.0
 20
168.0312784856281
 10
113.25
 20
167.82511269986617
 10
112.0
 20
164.3096787716594
 10
111.41535568463901
 20
168.125
 10
108.81067176343437
 20
168.625
 10
108.66750191902172
 20
169.125
 10
109.87453701514652
 20
170.125
 10
108.70724130907114
 20
170.875
 10
107.79397823695199
 20
172.625
 10
106.80813289913198
 20
178.625
 10
106.82524513623525
 20
184.375
 10
105.87311990774725
 20
191.875
 10
106.29402218576952
 20
201.875
 10
104.36834344317916
 20
215.875
 10
103.0375194144426
 20
222.875
 10
100.21612968650402
 20
223.125
 10
100.5
 20
223.80586628382287
 10
103.14728389142942
 20
224.375
 10
105.61035420336644
 20
219.875
 10
107.17688882285194
 20
211.375
 10
108.15545523087476
 20
197.125
 10
109.75
 20
194.38835566823616
 10
110.5
 20
194.69641096406855
 10
111.10192116467945
 20
196.375
 10
111.33921639079962
 20
201.375
 10
112.5
 20
201.24875453550652
 10
113.5
 20
205.02329926423374
 10
115.25
 20
199.10488396121443
 10
118.25
 20
201.22691376618462
 10
122.5
 20
198.5906155089387
 10
125.5
 20
199.009456206723
 10
127.09290386098444
 20
201.625
 10
127.32971547413524
 20
203.125
 10
126.0
 20
211.57583412285243
 10
127.5
 20
211.25202544454768
 10
130.5
 20
212.2090089962657
 10
134.9251654014571
 20
211.875
 10
135.62046039595873
 20
209.875
 10
137.56141140969947
 20
208.375
 10
135.64962618340587
 20
206.875
 10
134.40327441464086
 20
203.625
 10
134.46676491343732
 20
202.125
 10
135.5
 20
201.28107784175728
 10
137.11377374304843
 20
201.875
 10
137.75
 20
204.72552263160384
 10
138.75
 20
203.52628683073937
 10
140.0
 20
203.31306726718884
 10
143.0
 20
205.76239636884455
 10
145.75
 20
205.58139616619394
 10
147.0
 20
206.17782076341484
 10
150.5616086202329
 20
211.125
 10
153.25
 20
212.02867189903583
 10
157.0
 20
212.17487141807493
 10
164.25
 20
218.759533207717
 10
167.0
 20
219.9781633343744
 10
168.25
 20
221.42440208836564
 10
170.75
 20
222.73341359704688
 10
174.0
 20
223.7237331507352
 10
177.75
 20
232.41785499200756
 10
179.75
 20
229.0758109197723
 10
182.0
 20
228.1911170069706
 10
184.71029336474882
 20
228.125
 10
187.28692032049725
 20
225.125
 10
187.6762058030551
 20
222.875
 10
186.6924918635569
 20
218.625
 10
187.75
 20
215.68135188909332
 10
191.3950124333147
 20
209.625
 10
192.25
 20
209.0453797213503
 10
194.0
 20
209.07963066688006
 10
194.0435634919717
 20
210.125
 10
191.1606375726359
 20
218.625
 10
191.0
 20
220.8171439516296
 10
189.37729328093073
 20
223.125
 10
189.0005343253297
 20
226.625
 10
190.0
 20
227.36242307274733
 10
194.25
 20
224.80818949790108
 10
195.25
 20
226.1751801968916
 10
197.98498309995165
 20
225.875
 10
197.4444763959922
 20
223.125
 10
196.17519866653544
 20
221.375
 10
194.70074923066167
 20
221.125
 10
193.44187426360978
 20
215.625
 10
194.25
 20
213.45301354475842
 10
196.13143927567907
 20
211.875
 10
195.13695743571478
 20
205.875
 10
199.0
 20
204.5012582253346
 10
198.6136995057239
 20
202.625
 10
199.0
 20
201.80037698490932
 10
203.25
 20
199.13611243718788
 10
204.5
 20
199.16072223655783
 10
206.0
 20
197.59641666447192
 10
207.5
 20
197.82175267206753
 10
208.5
 20
196.6132849291439
 10
211.61196003683634
 20
197.125
 10
211.5
 20
199.12842122681167
 10
213.0
 20
198.50096030526595
 10
212.87356859245278
 20
199.875
 10
211.3008815747127
 20
201.875
 10
209.36051434521693
 20
206.625
 10
207.0
 20
206.75310055160975
 10
206.29552967478125
 20
208.375
 10
204.76648779876018
 20
209.625
 10
204.18549189650267
 20
211.875
 10
202.4518160717314
 20
214.375
 10
202.3926089373827
 20
216.625
 10
203.75
 20
217.30595856524428
 10
205.55412822144456
 20
216.875
 10
206.0
 20
217.93501791890657
 10
207.5
 20
215.43499790400338
 10
208.53039424549974
 20
211.625
 10
209.8890031575202
 20
209.625
 10
212.3622090236533
 20
202.875
 10
214.75
 20
198.6320015667842
 10
216.46185650929098
 20
198.375
 10
217.51492623268382
 20
200.125
 10
215.02706877329388
 20
209.625
 10
214.0
 20
211.73511484689556
 10
212.80747813697195
 20
212.375
 10
212.0
 20
216.09420186030582
 10
208.75
 20
219.86540067902567
 10
207.78559727091414
 20
224.625
 10
201.56495592876803
 20
235.875
 10
201.1358780288368
 20
238.875
 10
199.59859921391484
 20
241.125
 10
198.5
 20
241.95282820291445
 10
197.0
 20
241.65452222377297
 10
194.0
 20
238.65230563470658
 10
193.0
 20
238.4276822193203
 10
190.75
 20
238.4116951633285
 10
189.0
 20
239.4688216680243
 10
187.0
 20
239.61941087910574
 10
185.5
 20
236.22592014282816
 10
183.79222458512942
 20
239.125
 10
185.25
 20
242.71677391971085
 10
185.30641529376618
 20
244.875
 10
188.75
 20
246.23105912710685
 10
191.5
 20
244.95626899346163
 10
192.81283279546932
 20
246.625
 10
195.5
 20
247.01882613560747
 10
197.62088755137475
 20
248.125
 10
198.22356438737688
 20
251.625
 10
196.83105812487054
 20
253.625
 10
197.35439262061007
 20
254.875
 10
196.75
 20
256.2636542729043
 10
199.25
 20
254.55036908817817
 10
202.25
 20
251.22206950580784
 10
207.00828105989586
 20
247.875
 10
210.0
 20
244.02636432541686
 10
212.2695609826839
 20
244.875
 10
212.8190905294514
 20
246.875
 10
211.77729132076166
 20
248.625
 10
212.26473814275755
 20
250.625
 10
212.83761086183983
 20
250.625
 10
212.87090458537358
 20
248.625
 10
214.0
 20
247.5695006839647
 10
216.75
 20
248.27363130298284
 10
217.75
 20
249.8054777435546
 10
219.25
 20
248.7291398353042
 10
220.0
 20
249.8564336475898
 10
221.25
 20
249.91804781090994
 10
223.24123019637238
 20
250.875
 10
223.75
 20
251.92347934403597
 10
225.75
 20
252.5203057187708
 10
226.0
 20
255.7996344951796
 10
228.0
 20
254.23835287915028
 10
230.0
 20
253.8028646253022
 10
230.83921114133554
 20
251.625
 10
231.0
 20
247.42630000565833
 10
235.0
 20
244.9295026264461
 10
236.0
 20
245.087731394914
 10
236.27897779863213
 20
245.875
 10
235.48231153285062
 20
248.875
 10
233.92845401128545
 20
251.875
 10
231.95746477077356
 20
254.625
 10
230.07667632321676
 20
255.625
 10
229.61173485392786
 20
257.875
 10
227.08998636784986
 20
262.375
 10
222.0
 20
269.4495391670198
 10
226.36154965242838
 20
264.875
 10
237.4785299931944
 20
250.875
 10
238.07173129352788
 20
250.875
 10
237.79694456252315
 20
251.625
 10
231.44549330791483
 20
261.625
 10
230.97352242526307
 20
263.125
 10
231.25
 20
264.70572786139076
 10
232.75
 20
261.72350125728656
 10
234.57455029959394
 20
261.625
 10
236.75
 20
259.64545395498243
 10
237.75571903123975
 20
256.875
 10
239.16442938025367
 20
255.125
 10
242.25
 20
252.6313430819121
 10
244.0
 20
252.6329545603238
 10
244.29943985659966
 20
254.625
 10
243.25163509323588
 20
259.625
 10
242.0
 20
260.9212663007384
 10
239.0
 20
260.8451477543198
 10
237.84664926952007
 20
261.625
 10
236.9046667217312
 20
264.125
 10
237.06026868905744
 20
265.875
 10
239.0
 20
267.7316607134794
 10
240.75
 20
266.67262258960466
 10
242.75
 20
266.41639930196135
 10
244.15681998853492
 20
262.625
 10
246.25
 20
260.78292204920433
 10
246.74300049608644
 20
262.125
 10
244.61935263717675
 20
265.875
 10
246.40091258482937
 20
268.625
 10
251.0
 20
268.7865201219539
 10
253.53981563351908
 20
270.375
 10
253.37652751366772
 20
272.125
 10
252.25
 20
273.224735954282
 10
250.25
 20
273.5138973271779
 10
249.0
 20
273.00611786273146
 10
247.71631701631705
 20
274.125
 10
250.0
 20
274.02500276681303
 10
253.25
 20
277.24578103926035
 10
254.80401701105504
 20
277.375
 10
253.2779816254934
 20
280.375
 10
253.5722627094835
 20
282.875
 10
252.25812317967961
 20
287.375
 10
254.0
 20
288.7412741777809
 10
254.1232117131613
 20
290.375
 10
255.15830300538906
 20
291.625
 10
252.72001472882263
 20
295.875
 10
252.9739089872403
 20
297.125
 10
254.0
 20
298.1263076938835
 10
255.74029677455243
 20
298.125
 10
257.0949256716315
 20
299.875
 10
257.6067840371629
 20
305.375
 10
254.48410818736338
 20
310.375
 10
251.25
 20
313.27624281997987
 10
249.25
 20
312.66173667639436
 10
247.5
 20
309.00358869973496
 10
245.75
 20
308.37185984318637
 10
244.0352917382503
 20
308.875
 10
238.25
 20
314.3823817710973
 10
235.75
 20
314.46450821069664
 10
234.75
 20
313.07492928379526
 10
232.25
 20
313.38727330760065
 10
233.2995621659403
 20
314.875
 10
237.75
 20
315.9603969425408
 10
238.0
 20
317.3073718494587
 10
243.5
 20
313.69327150187326
 10
244.16037978195877
 20
312.625
 10
244.21567083977723
 20
309.875
 10
245.0
 20
308.9245817776107
 10
247.06177735202772
 20
309.625
 10
248.14801107141213
 20
312.875
 10
249.80105117729562
 20
315.125
 10
251.5
 20
315.90056163463805
 10
253.0
 20
315.4753679701459
 10
253.75
 20
315.93285052689396
 10
259.5
 20
313.1046582708195
 10
262.0
 20
310.66120572078046
 10
266.75
 20
307.7798587691594
 10
266.5
 20
307.2714355555771
 10
264.75
 20
307.4380274052186
 10
264.4486642475943
 20
306.625
 10
265.5
 20
305.41989259115394
 10
268.75
 20
303.903886751109
 10
268.54546433149096
 20
303.125
 10
265.0
 20
301.28718639167687
 10
264.5
 20
300.20539654904746
 10
261.75
 20
298.7096305979653
 10
261.17954047746093
 20
297.625
 10
261.7414866474058
 20
292.625
 10
262.5
 20
291.73411730545877
 10
264.31140808078464
 20
291.125
 10
263.5198175531398
 20
287.875
 10
264.09123460668945
 20
283.125
 10
263.04044779188735
 20
280.875
 10
264.5
 20
279.0669388643472
 10
266.23657820943754
 20
278.375
 10
265.0
 20
277.99445449963343
 10
262.0
 20
278.61736706783074
 10
261.22283648883877
 20
278.125
 10
261.18916562215554
 20
277.375
 10
264.1116698047033
 20
274.375
 10
264.4502285249671
 20
271.375
 10
265.5
 20
269.85672124904795
 10
269.0
 20
271.0120773501995
 10
270.75
 20
269.60847353693083
 10
273.0
 20
271.77949034556343
 10
274.43704281258863
 20
271.375
 10
274.33549090034046
 20
270.375
 10
275.25
 20
269.4837796381777
 10
277.25
 20
269.732600018352
 10
276.75
 20
268.7326639817865
 10
278.0
 20
268.9427964929749
 10
279.5
 20
266.8481010324484
 10
282.459903321765
 20
260.375
 10
282.0
 20
259.116901619676
 10
280.4958823765718
 20
259.625
 10
281.29854999195715
 20
258.125
 10
280.15237342382295
 20
256.875
 10
280.06115195415975
 20
255.875
 10
282.6794407447335
 20
253.875
 10
283.779002248714
 20
252.125
 10
285.22595591515835
 20
251.625
 10
286.1508399307624
 20
247.875
 10
284.75
 20
248.37177863987785
 10
284.37814218381766
 20
247.625
 10
287.861571587716
 20
244.125
 10
285.5
 20
245.55232779971885
 10
284.85482034531026
 20
245.375
 10
284.63876394619024
 20
243.375
 10
286.2487238907666
 20
241.125
 10
285.96987808927474
 20
238.375
 10
286.9468405658237
 20
234.625
 10
286.0897299218194
 20
231.375
 10
288.25
 20
227.82853266044563
 10
286.2632153521143
 20
229.375
 10
285.5
 20
231.43577038500257
 10
283.5
 20
231.84977304710137
 10
283.43679628663034
 20
230.375
 10
285.2212219144353
 20
228.375
 10
287.5
 20
227.24487092156002
 10
288.3376309581187
 20
225.375
 10
292.61564035522696
 20
220.125
 10
291.23248601911064
 20
219.375
 10
291.25
 20
218.3048972226314
 10
293.25
 20
216.53721045341953
 10
294.5
 20
216.49296891987387
 10
295.34110884618843
 20
217.625
 10
293.93343424312326
 20
219.375
 10
294.15177982619406
 20
221.375
 10
295.25
 20
222.56440626129506
 10
297.0
 20
222.43372703412078
 10
297.75
 20
223.07140615848044
 10
301.75
 20
221.55096394890774
 10
305.54900360762747
 20
225.125
 10
305.5
 20
227.39283653846152
 10
306.4844044561746
 20
227.875
 10
305.63699658282593
 20
230.125
 10
306.53101496092535
 20
231.125
 10
306.43207101015713
 20
232.125
 10
304.358788930672
 20
234.375
 10
306.25
 20
235.32879531262674
 10
306.21046066474776
 20
237.125
 10
304.75
 20
238.06833242752506
 10
302.25
 20
242.1170903214037
 10
300.75
 20
241.65261789787738
 10
298.18452803066606
 20
242.875
 10
298.5
 20
243.8312080886001
 10
301.5683881214533
 20
244.625
 10
297.3154016955996
 20
249.375
 10
295.4992469362044
 20
253.125
 10
298.75
 20
251.81251081898768
 10
302.25
 20
248.0670186514423
 10
304.5
 20
247.33476655181047
 10
305.21210183208365
 20
251.375
 10
302.71051756375283
 20
255.125
 10
304.7650574389373
 20
261.375
 10
303.0
 20
263.2087450788248
 10
301.0
 20
264.0462891511575
 10
299.75
 20
263.52757224761757
 10
298.75
 20
265.40021264805637
 10
296.75
 20
265.1104965738141
 10
295.8431655108229
 20
265.625
 10
296.17162672070435
 20
266.375
 10
298.5
 20
266.60804655600685
 10
298.25
 20
268.53596548972666
 10
299.5
 20
268.2557617642491
 10
301.25
 20
266.6729789603374
 10
301.8819592644377
 20
266.875
 10
301.58135816936635
 20
268.125
 10
299.2264595366834
 20
270.125
 10
298.63648485181716
 20
271.375
 10
301.25
 20
271.00782220229064
 10
301.816352487803
 20
271.875
 10
301.26694246390696
 20
272.875
 10
301.7168254324678
 20
273.875
 10
300.8434971245789
 20
275.375
 10
302.25783906788405
 20
279.625
 10
301.67001724695484
 20
279.875
 10
301.0
 20
279.15330700778645
 10
299.0
 20
280.0300061516414
 10
297.746242059479
 20
279.625
 10
296.1499555648491
 20
283.875
 10
297.01445024554664
 20
284.875
 10
295.54609293923204
 20
290.875
 10
294.0
 20
292.318401894584
 10
291.0
 20
292.9754162379792
 10
285.16787529796954
 20
296.125
 10
293.5
 20
294.25380563162895
 10
297.5
 20
294.52803157733774
 10
296.2071724113438
 20
297.625
 10
297.75
 20
297.5962036276645
 10
298.3361963190185
 20
298.375
 10
298.38796409120886
 20
301.125
 10
297.5
 20
301.835767683527
 10
296.0
 20
301.51175510705343
 10
294.96798093999746
 20
302.375
 10
297.1175219076509
 20
302.375
 10
297.25
 20
304.5166082442362
 10
299.75
 20
303.23752833254935
 10
299.8982851411045
 20
304.125
 10
300.75375307269115
 20
304.625
 10
300.5
 20
305.6655073317356
 10
301.63169069169743
 20
306.125
 10
301.3678443835161
 20
307.125
 10
302.25
 20
310.35201350500313
 10
303.32057796615675
 20
307.875
 10
302.5293018709348
 20
302.875
 10
302.70335191294134
 20
299.625
 10
304.5
 20
298.0641954798841
 10
307.5
 20
297.50538978958264
 10
308.1773583991472
 20
298.375
 10
308.37109716092795
 20
300.625
 10
309.4375146491658
 20
302.125
 10
313.0
 20
302.1100397407152
 10
315.25
 20
300.780393614971
 10
318.0268702370592
 20
301.625
 10
316.95030705183467
 20
303.625
 10
316.0
 20
307.73576550625154
 10
318.0
 20
306.57413819104954
 10
319.5
 20
307.5513059701493
 10
323.0
 20
305.2774182996706
 10
325.5
 20
304.7584444078645
 10
328.75
 20
305.7046395250212
 10
330.5
 20
308.8195781367026
 10
335.25
 20
307.9726274177348
 10
336.25
 20
310.2110606988152
 10
338.0
 20
308.2743575657694
 10
342.5
 20
308.2479728552404
 10
342.97002519242767
 20
310.125
 10
342.5
 20
314.1308801392417
 10
343.0
 20
313.28440446425884
 10
344.0
 20
313.4212482366984
 10
346.25
 20
310.534346807161
 10
350.5
 20
308.5956002834241
 10
351.10152814712166
 20
309.375
 10
351.0
 20
313.5931317710787
 10
351.9791633451269
 20
312.375
 10
353.75
 20
311.5184142755046
 10
355.5
 20
312.35198593690615
 10
357.0
 20
314.7849850080379
 10
358.75
 20
313.0167981868486
 10
362.0
 20
312.9544272907234
 10
363.02235791618295
 20
315.125
 10
366.0
 20
315.3034889996326
 10
367.0
 20
317.95517027979895
 10
368.5
 20
317.4521196495391
 10
372.0871830251407
 20
318.375
 10
372.25
 20
319.72661060633413
 10
373.6663454099192
 20
319.875
 10
376.0
 20
322.1522422917004
 10
376.25
 20
323.8598113877495
 10
378.0
 20
323.4757632196372
 10
381.25
 20
326.84993944475497
 10
385.25
 20
328.22437353710586
 10
386.03982098884984
 20
330.625
 10
387.25
 20
330.1940101337968
 10
387.7418199302994
 20
331.875
 10
386.57070794822437
 20
338.375
 10
383.54397193045565
 20
344.125
 10
384.28423396343925
 20
345.375
 10
384.56816052006326
 20
348.875
 10
383.61419410263983
 20
353.125
 10
379.6588514829662
 20
360.125
 10
376.75
 20
362.1353653031461
 10
376.75
 20
363.0311807138619
 10
378.0
 20
362.5117930624043
 10
378.40477724212457
 20
362.875
 10
377.5
 20
364.57365411970676
 10
376.75
 20
364.69200109766547
 10
376.0
 20
363.68968343062414
 10
374.74499328708885
 20
364.875
 10
375.25
 20
365.46382702475086
 10
379.25
 20
364.9281133244553
 10
379.3424534425084
 20
367.625
 10
380.0
 20
368.2025512809601
 10
381.25
 20
367.3263133110088
 10
384.1199514684173
 20
361.375
 10
388.499782420218
 20
355.125
 10
389.142590412111
 20
353.875
 10
389.0
 20
352.4888493903152
 10
390.25
 20
351.82571998952744
 10
391.0
 20
352.5087179664185
 10
392.0
 20
352.3521289829004
 10
392.76758580958096
 20
353.625
 10
393.0
 20
362.69003305547574
 10
393.36783016044785
 20
360.375
 10
394.5
 20
359.76002300325143
 10
395.65870051740694
 20
360.875
 10
397.75
 20
364.8478972798855
 10
398.75
 20
365.22847143127444
 10
400.0
 20
366.9570508548395
 10
405.75
 20
370.6829704110806
 10
408.19142725457067
 20
370.375
 10
407.0
 20
367.98827331148505
 10
400.45810690489833
 20
360.625
 10
397.2850838753772
 20
353.625
 10
397.3378503050576
 20
350.625
 10
398.44072792912357
 20
348.375
 10
398.43447700018856
 20
346.875
 10
400.0
 20
345.7317993168383
 10
401.5
 20
345.903527168199
 10
402.0
 20
345.0973917685171
 10
404.0
 20
345.30612731157674
 10
405.0
 20
342.93917975165385
 10
406.44372821893984
 20
344.125
 10
405.321046417631
 20
345.625
 10
405.9771396591505
 20
347.875
 10
403.75
 20
350.05431730886136
 10
403.5
 20
351.2026984353354
 10
405.1894555583452
 20
352.125
 10
405.75
 20
353.53978687230557
 10
406.75
 20
353.2530659861864
 10
408.5
 20
354.1838244837348
 10
408.75
 20
356.42161343035286
 10
412.25
 20
354.0289105637351
 10
412.90971285713863
 20
354.375
 10
413.25
 20
355.7167563561257
 10
414.5
 20
355.52477540343
 10
415.01707503302816
 20
356.125
 10
415.37699017836246
 20
359.375
 10
414.70875320924927
 20
362.625
 10
411.84127615166733
 20
365.125
 10
412.5
 20
366.5027529471005
 10
415.11377128331105
 20
363.875
 10
418.25
 20
357.5149436816268
 10
420.25
 20
357.64146831694416
 10
422.25
 20
355.7840914357514
 10
424.24000501370875
 20
355.375
 10
424.25
 20
354.0438609754368
 10
425.5
 20
353.50852049756895
 10
426.71204804847787
 20
349.875
 10
428.5
 20
349.32351889523846
 10
430.3525385830811
 20
350.375
 10
430.0550396415261
 20
352.125
 10
428.0
 20
353.84132974971595
 10
426.25
 20
353.6862104121006
 10
425.04116549267013
 20
355.625
 10
425.8857806109118
 20
357.625
 10
428.6405343500164
 20
360.375
 10
428.2307917733535
 20
364.125
 10
429.5
 20
364.2534408029139
 10
431.5
 20
366.37369896419955
 10
432.75
 20
369.98129471996054
 10
434.25
 20
367.87047230231263
 10
435.729244285031
 20
368.125
 10
437.5
 20
371.60222625291715
 10
438.86161698060715
 20
372.875
 10
439.23623527894773
 20
374.125
 10
438.75
 20
375.70795789491973
 10
439.25
 20
375.95030564485836
 10
440.5
 20
375.1734518422338
 10
442.0
 20
375.90524035109956
 10
442.6304817802687
 20
377.125
 10
442.41696435300634
 20
378.875
 10
443.25
 20
379.9604611292958
 10
445.5
 20
379.78462319937483
 10
447.75
 20
381.38313338302663
 10
452.75
 20
376.49368170909537
 10
457.0
 20
375.5489635887313
 10
461.125
 20
377.6344786959051
 10
464.75
 20
378.4552485547651
 10
467.75
 20
380.16390718102974
 10
473.74126279965674
 20
381.25
 10
479.75
 20
381.2362469726981
 10
482.893048929584
 20
384.125
 10
485.0
 20
384.23796017219126
 10
487.7337285244642
 20
385.875
 10
489.25
 20
385.93370335127094
 10
492.84000443666105
 20
384.625
 10
492.13194153635345
 20
380.125
 10
495.1952967611626
 20
378.875
 10
496.0353135085654
 20
373.125
 10
500.010781152461
 20
367.375
 10
501.25
 20
366.4954672465529
 10
503.0
 20
367.18856215825855
 10
506.0
 20
366.50186139373005
 10
509.63622712676437
 20
367.125
 10
515.0
 20
360.69911774724454
 10
519.0
 20
352.04708992612143
 10
526.25
 20
352.4470525880539
 10
530.0
 20
353.9335502944701
 10
536.25
 20
349.6058971802781
 10
538.5266552487446
 20
345.125
 10
537.8372074173315
 20
341.125
 10
536.8873421610315
 20
339.125
 10
539.7713300885257
 20
335.625
 10
536.9925816198099
 20
330.625
 10
532.1110521106486
 20
327.625
 10
531.4635441348646
 20
326.125
 10
531.9006651089152
 20
323.875
 10
531.5
 20
322.58130169912374
 10
528.25
 20
321.30446759126966
 10
525.2496897489575
 20
317.625
 10
521.8342709664137
 20
315.125
 10
517.1378516518499
 20
314.125
 10
509.5
 20
316.98329811347736
 10
507.4177776215414
 20
316.125
 10
506.13321487114837
 20
311.875
 10
504.8765930709739
 20
310.875
 10
500.05529623759793
 20
311.375
 10
498.15659650034644
 20
312.625
 10
500.33201185994596
 20
314.625
 10
499.5
 20
316.4376849678539
 10
498.75
 20
315.013794425793
 10
497.5
 20
314.6207966672908
 10
497.03391256359873
 20
315.375
 10
498.4938944127119
 20
316.875
 10
499.4254673353741
 20
320.125
 10
498.7178430910085
 20
321.375
 10
499.6116839721641
 20
325.375
 10
497.94314633994645
 20
328.875
 10
498.16120133250047
 20
334.375
 10
496.7520687560892
 20
338.125
 10
496.6310740152244
 20
342.625
 10
496.25
 20
343.536300436205
 10
494.75
 20
343.81902590715697
 10
494.25
 20
347.5539461730638
 10
492.5
 20
346.2563234165634
 10
488.75
 20
348.0412617508231
 10
488.75
 20
349.1713601006151
 10
490.5
 20
348.1863205655269
 10
492.2062939297125
 20
349.125
 10
490.0
 20
349.4923355015343
 10
489.25
 20
351.46333046197503
 10
488.5
 20
350.4503143689618
 10
487.5
 20
350.77235324864574
 10
486.75
 20
349.9303318650056
 10
484.15091687720377
 20
349.125
 10
483.27990532740415
 20
347.625
 10
483.2570471349354
 20
344.125
 10
482.5534569293358
 20
343.375
 10
482.614160659665
 20
342.375
 10
480.5
 20
339.1258297083937
 10
479.0
 20
339.5300958109715
 10
477.5488795530808
 20
338.625
 10
477.43956381433355
 20
335.625
 10
476.17415379815947
 20
334.875
 10
474.8917787402173
 20
331.375
 10
471.75
 20
331.7329177664077
 10
469.75
 20
331.1011401229626
 10
467.0
 20
327.417304704838
 10
465.65488112631164
 20
327.125
 10
465.5566858457063
 20
325.625
 10
466.5
 20
324.587943566528
 10
467.25
 20
324.2695015714155
 10
468.427918118467
 20
324.875
 10
468.25
 20
323.5799968781706
 10
466.86677265042647
 20
322.125
 10
466.5
 20
319.6407601449523
 10
464.0
 20
320.0795274864281
 10
462.25
 20
317.89010970291633
 10
461.25
 20
317.64667466513856
 10
459.25
 20
319.7324405934095
 10
458.0
 20
320.12380661871737
 10
456.0
 20
319.63033010166873
 10
457.9211595301251
 20
316.625
 10
460.75
 20
314.9055356892441
 10
462.5
 20
317.345319998407
 10
462.8421181844133
 20
315.625
 10
462.0
 20
314.2965989173731
 10
460.0
 20
312.49656686509104
 10
458.75
 20
312.4813267905304
 10
457.25
 20
311.54824752625393
 10
455.75
 20
309.6764560275087
 10
454.0
 20
310.2214530180461
 10
451.5
 20
309.72071303845985
 10
449.0
 20
311.4871078104139
 10
448.25
 20
309.6385867427223
 10
446.52313716471383
 20
308.625
 10
440.0984701728623
 20
301.375
 10
438.42941898787325
 20
294.625
 10
439.8483122752006
 20
290.125
 10
443.75
 20
289.66693748144814
 10
444.8539890189432
 20
290.875
 10
445.0
 20
293.36040594426674
 10
445.5
 20
293.55916097084673
 10
446.7979927116316
 20
292.125
 10
447.0
 20
290.12215600134573
 10
448.5
 20
288.35455464434193
 10
449.75
 20
287.9725638671184
 10
450.75
 20
289.0966995649315
 10
452.3322175508604
 20
289.625
 10
452.0593486907104
 20
290.625
 10
451.0
 20
291.0818364353388
 10
451.25
 20
292.644222351113
 10
453.75
 20
291.1359188291707
 10
455.5
 20
291.90342653763844
 10
456.25
 20
291.15814332791524
 10
457.5
 20
291.7703757721345
 10
458.75
 20
290.5838969216418
 10
457.25
 20
289.35546416752754
 10
456.0
 20
290.1532362739584
 10
455.41259980836793
 20
289.625
 10
455.7773060564555
 20
288.625
 10
456.75
 20
287.8986428205088
 10
458.5
 20
288.1680098315717
 10
458.8804906583473
 20
290.125
 10
459.5
 20
290.52982514386895
 10
460.4113635239415
 20
289.375
 10
459.3477458379781
 20
288.375
 10
461.0648877049099
 20
287.625
 10
461.0
 20
284.693437671609
 10
463.8902780183614
 20
287.625
 10
465.4346506728286
 20
287.625
 10
464.9829555084746
 20
285.375
 10
463.25
 20
282.50657260009643
 10
465.0
 20
282.258021134837
 10
466.25
 20
284.97252800867363
 10
466.59500238626543
 20
284.625
 10
465.840138390481
 20
282.625
 10
466.25
 20
281.999045853367
 10
468.25
 20
284.9301031773948
 10
470.75
 20
284.6565166455513
 10
471.0653357706369
 20
284.125
 10
469.68371493371484
 20
283.375
 10
469.6048682304912
 20
282.125
 10
472.0
 20
282.56311037708815
 10
473.25
 20
284.2122527283294
 10
473.16154537683855
 20
282.625
 10
473.8386718866964
 20
281.625
 10
473.1636008709362
 20
280.875
 10
473.75
 20
280.65625113972067
 10
474.6477621974645
 20
281.375
 10
475.25
 20
283.35767022149304
 10
474.7176375593888
 20
278.625
 10
473.4755169833262
 20
276.625
 10
474.5
 20
276.5780532676208
 10
475.1779762576133
 20
278.625
 10
475.75
 20
278.7367124094319
 10
476.802798879256
 20
275.625
 10
476.78096371169727
 20
272.625
 10
475.45486793714485
 20
271.125
 10
475.56834995758885
 20
269.125
 10
471.0
 20
266.81582447656024
 10
467.90760453977134
 20
262.375
 10
464.66559086047266
 20
251.375
 10
464.75544886535266
 20
247.25
 10
461.84516579642474
 20
243.375
 10
460.5
 20
239.02498833643716
 10
454.556356966319
 20
233.875
 10
451.125
 20
229.5
 10
453.75
 20
226.70947356958987
 10
452.875
 20
222.01388948920592
 10
452.0
 20
220.05361736347947
 10
448.125
 20
216.5
 10
448.125
 20
210.34865035256252
 10
446.6276797857904
 20
209.0
 10
444.25
 20
208.20515572146746
 10
441.875
 20
205.0
 10
439.7388111880673
 20
198.625
 10
440.0
 20
197.58370635971323
 10
442.0947715320591
 20
195.875
 10
442.19476989451425
 20
194.125
 10
441.625
 20
192.59940608992048
 10
440.5198368909521
 20
191.25
 10
437.125
 20
190.0
 10
435.125
 20
185.86075128737178
 10
433.81326029705025
 20
184.5
 10
433.0036337756913
 20
184.0
 10
429.5
 20
184.00865369144992
 10
427.1454541772911
 20
182.125
 10
426.375
 20
175.1237872353644
 10
423.1750653234213
 20
169.375
 10
423.3781940025196
 20
167.625
 10
425.5
 20
163.74679897202932
 10
425.8723726233256
 20
161.375
 10
424.5
 20
160.12185370456365
 10
420.0
 20
159.30791421571854
 10
418.59338363815823
 20
157.875
 10
417.6553403642185
 20
155.125
 10
417.25745560060767
 20
149.5
 10
415.5
 20
145.87695230784925
 10
412.75
 20
145.50896041208367
 10
409.2357193033451
 20
141.125
 10
408.0
 20
140.53868411444307
 10
404.75
 20
142.48772212698464
 10
401.75
 20
142.33316491345312
 10
398.0
 20
143.51558538552155
 10
395.5
 20
142.7281455623003
 10
392.0
 20
144.48160457684776
 10
389.75
 20
143.97533835908246
 10
384.8913376318016
 20
140.125
 10
385.3935699947957
 20
135.375
 10
385.0
 20
134.8579456638969
 10
382.875
 20
134.75
 10
382.375
 20
131.84385471250164
 10
381.375
 20
130.35368615000922
 10
379.80343224641075
 20
129.25
 10
375.8224302118956
 20
128.25
 10
373.42585858931045
 20
128.5
 10
368.75
 20
131.79773180928257
 10
364.4875031142874
 20
132.72551242580744
 10
364.06390320018664
 20
132.2415165853907
 10
362.875
 20
130.29827075568926
 10
362.0083646015023
 20
129.75
 10
350.24237702289224
 20
129.25493871167083
 10
348.69684820574867
 20
127.56479874597488
 10
347.0
 20
125.56253908721294
 10
346.1336234050042
 20
125.75
 10
341.6606208984719
 20
129.22234784690303
 10
341.4229579991639
 20
129.17312792322073
 10
338.99671142889423
 20
128.25
 10
337.8866144790737
 20
129.1656144590305
 10
336.47757157665524
 20
130.05677548904924
 10
335.125
 20
130.25
 10
332.6681884145604
 20
129.0
 10
330.625
 20
128.96919723427902
 10
327.375
 20
130.75
 10
323.5
 20
131.14193017325726
 10
319.5
 20
130.47147523609996
 10
311.74256586197646
 20
127.375
 10
304.25
 20
131.7803492410095
 10
300.63102303188725
 20
132.875
 10
299.08112890883166
 20
135.125
 10
297.25
 20
135.78685122924986
 10
296.0
 20
137.7678848699802
 10
294.0
 20
137.18085042471608
 10
292.75
 20
138.3453306658614
 10
291.5
 20
138.35947127393837
 10
290.5236901100796
 20
141.875
 10
290.97078190515566
 20
143.125
 10
290.09635518272864
 20
144.875
 10
290.60933722574464
 20
146.375
 10
291.5
 20
146.6449998769049
 10
295.6173740174833
 20
142.375
 10
296.75
 20
138.56270095291757
 10
298.0
 20
138.04110611116278
 10
298.75
 20
138.92049205496278
 10
299.5241823004978
 20
138.625
 10
300.5595740504465
 20
137.625
 10
299.9047460467515
 20
137.125
 10
300.1574539215339
 20
136.125
 10
302.2104272979782
 20
135.625
 10
301.2028058670405
 20
137.375
 10
301.77772947852617
 20
137.625
 10
301.9675748823687
 20
139.375
 10
298.4128479815228
 20
142.125
 10
301.5
 20
141.475915589269
 10
302.94354218333797
 20
144.125
 10
301.5
 20
145.6056848768817
 10
301.07679357886
 20
145.375
 10
301.23028685644005
 20
144.125
 10
299.5
 20
144.49353063652586
 10
299.55302799756544
 20
145.125
 10
300.9623358126285
 20
145.625
 10
297.4883328680439
 20
148.375
 10
297.75246657640884
 20
149.875
 10
296.282227241991
 20
152.375
 10
296.5
 20
152.8854500988523
 10
297.75
 20
152.74883466826736
 10
298.5920174822591
 20
153.375
 10
297.69944446058923
 20
157.375
 10
298.25
 20
158.0044752527083
 10
299.0
 20
157.28066402962463
 10
299.75
 20
157.4567996561167
 10
300.00583446781314
 20
159.125
 10
299.5
 20
159.4002336305888
 10
298.5
 20
158.72766331334236
 10
297.75
 20
160.94814733910385
 10
293.5
 20
161.17461220637915
 10
291.6303011507748
 20
158.875
 10
291.5
 20
154.84432662796286
 10
288.3526563138537
 20
155.125
 10
287.07710676409283
 20
157.125
 10
286.84235871440893
 20
159.875
 10
285.0085521449704
 20
163.375
 10
286.5
 20
164.513148496761
 10
287.5
 20
164.16289185253316
 10
288.0
 20
165.01469894689762
 10
291.331974414845
 20
164.375
 10
290.0
 20
166.5157804486189
 10
288.61639468521486
 20
166.375
 10
289.8820157692707
 20
166.875
 10
289.85068086000905
 20
167.875
 10
287.5
 20
167.78769565331478
 10
285.5
 20
166.70748931938715
 10
285.5
 20
168.56544206637363
 10
284.0
 20
168.60576267743164
 10
281.5
 20
170.5775716253031
 10
279.4001664741455
 20
168.125
 10
278.750104480107
 20
166.125
 10
277.45444944407745
 20
165.625
 10
276.9778888064781
 20
162.875
 10
278.0
 20
162.3960259469132
 10
278.16817505209883
 20
161.625
 10
276.75
 20
161.45632271851832
 10
274.75
 20
163.46223115196636
 10
273.5
 20
161.25347535345816
 10
271.33313593222994
 20
160.625
 10
269.5
 20
158.2873006833713
 10
269.25
 20
156.5922888440473
 10
265.5
 20
156.38534380557206
 10
264.5
 20
154.59219595116673
 10
262.522455678504
 20
153.125
 10
262.0
 20
151.82913871484345
 10
259.0
 20
150.94481786843392
 10
257.75
 20
148.39596868447285
 10
256.25
 20
148.16185787596
 10
254.32757420690743
 20
145.625
 10
252.33294238970848
 20
139.625
 10
254.14925438095398
 20
133.875
 10
254.73831446691918
 20
129.375
 10
256.25
 20
127.55438675185619
 10
258.0
 20
126.54281633862696
 10
259.0
 20
127.28579277657147
 10
261.0441778412603
 20
132.125
 10
263.7933816841959
 20
134.125
 10
264.75
 20
136.98100351953792
 10
267.5
 20
137.24412048969074
 10
271.75
 20
136.5598740298964
 10
273.0
 20
137.67268476425514
 10
274.0
 20
137.40596629213485
 10
275.80917915148245
 20
134.875
 10
276.75
 20
131.68440372113878
 10
278.75
 20
130.8356541651194
 10
279.1628284712618
 20
129.375
 10
280.0
 20
128.87712117467768
 10
280.4076021591248
 20
126.125
 10
282.077419055571
 20
122.625
 10
282.0924363473456
 20
121.625
 10
281.23861135478717
 20
120.875
 10
282.03694590533433
 20
120.375
 10
280.5
 20
117.31296910947084
 10
278.89121068238234
 20
116.375
 10
274.25
 20
115.8237137288311
 10
272.92271146516526
 20
114.625
 10
271.25
 20
110.96492278960278
 10
269.5
 20
110.37067971765745
 10
261.875
 20
111.12440627331473
 10
260.5
 20
112.06669882447966
 10
259.375
 20
114.0
 10
257.25
 20
114.56482492253609
 10
255.91312875342206
 20
113.875
 10
254.85776212602087
 20
112.125
 10
254.25
 20
108.57097982292052
 10
251.125
 20
108.25
 10
249.375
 20
107.0
 10
249.63851867487725
 20
104.125
 10
242.5
 20
104.90705741393577
 10
237.875
 20
102.30983026233612
 10
236.75
 20
102.19389032807521
 10
235.625
 20
102.75
 10
234.625
 20
100.56389873674081
 10
233.5
 20
99.69453954878513
 10
232.16494602734141
 20
99.75
 10
226.0
 20
102.4807533741963
 10
224.125
 20
102.25
 10
221.59267626608337
 20
99.875
 10
221.25
 20
98.18267533722741
 10
218.51558126132855
 20
93.375
 10
216.83157087037165
 20
91.625
 10
213.35177299677488
 20
89.0
 10
210.0
 20
89.24599797167768
 10
204.845193781232
 20
84.0
  0
LWPOLYLINE
  5
31
330
17
100
AcDbEntity
  8
PASS_02
100
AcDbPolyline
 90
3
 70
1
 10
171.76617842444662
 20
97.625
 10
169.6525850513517
 20
99.625
 10
171.7184457222201
 20
97.53392256151999
  0
LWPOLYLINE
  5
32
330
17
100
AcDbEntity
  8
PASS_02
100
AcDbPolyline
 90
3
 70
1
 10
169.58522409504158
 20
101.04421608738117
 10
169.5
 20
101.15003625088697
 10
169.52612757727917
 20
100.88889990662776
  0
LWPOLYLINE
  5
33
330
17
100
AcDbEntity
  8
PASS_02
100
AcDbPolyline
 90
4
 70
1
 10
171.5
 20
98.97068828957703
 10
173.2216653609037
 20
98.8375182991576
 10
173.18234101545812
 20
98.875
 10
171.26705523145205
 20
99.23704998915358
  0
LWPOLYLINE
  5
34
330
17
100
AcDbEntity
  8
PASS_02
100
AcDbPolyline
 90
3
 70
1
 10
174.5
 20
97.24120455034426
 10
174.86604264175844
 20
97.27019259761846
 10
173.32702892871487
 20
98.73709181567416
  0
LWPOLYLINE
  5
35
330
17
100
AcDbEntity
  8
PASS_02
100
AcDbPolyline
 90
3
 70
1
 10
173.9106006726228
 20
100.72447617809617
 10
173.97434567507182
 20
100.625
 10
174.14503416289782
 20
100.68366584031122
  0
LWPOLYLINE
  5
36
330
17
100
AcDbEntity
  8
PASS_02
100
AcDbPolyline
 90
3
 70
1
 10
173.22243378187645
 20
103.67126778659889
 10
173.0
 20
103.6941585182781
 10
172.53253057667033
 20
102.875
  0
LWPOLYLINE
  5
37
330
17
100
AcDbEntity
  8
PASS_02
100
AcDbPolyline
 90
3
 70
1
 10
178.2399025490774
 20
101.74205078310237
 10
178.0634916866864
 20
101.875
 10
175.0
 20
103.4883378782107
  0
LWPOLYLINE
  5
38
330
17
100
AcDbEntity
  8
PASS_02
100
AcDbPolyline
 90
3
 70
1
 10
178.60810883092344
 20
100.375
 10
178.7269437419431
 20
101.375
 10
178.46326453705834
 20
101.57371760347684
  0
LWPOLYLINE
  5
39
330
17
100
AcDbEntity
  8
PASS_02
100
AcDbPolyline
 90
3
 70
1
 10
201.25
 20
86.16724290252978
 10
200.9504383833442
 20
86.11225709633588
 10
201.34268578518711
 20
86.06357127827744
  0
LWPOLYLINE
  5
3A
330
17
100
AcDbEntity
  8
PASS_02
100
AcDbPolyline
 90
3
 70
1
 10
196.96421883817467
 20
85.38056957974442
 10
197.0
 20
85.35063895038039
 10
197.72960645274446
 20
85.52105972500324
  0
LWPOLYLINE
  5
3B
330
17
100
AcDbEntity
  8
PASS_02
100
AcDbPolyline
 90
3
 70
1
 10
246.75
 20
105.08927729553852
 10
243.02823995776643
 20
105.24806737044153
 10
249.34900440559198
 20
104.375
  0
LWPOLYLINE
  5
3C
330
17
100
AcDbEntity
  8
PASS_02
100
AcDbPolyline
 90
3
 70
1
 10
242.0
 20
105.29193755499378
 10
241.66020031170913
 20
104.99497716964827
 10
242.13640988166716
 20
105.2861175840441
  0
LWPOLYLINE
  5
3D
330
17
100
AcDbEntity
  8
PASS_02
100
AcDbPolyline
 90
3
 70
1
 10
234.16866960719148
 20
100.88360389166006
 10
234.44889365153645
 20
101.125
 10
234.58957426282112
 20
102.375
  0
LWPOLYLINE
  5
3E
330
17
100
AcDbEntity
  8
PASS_02
100
AcDbPolyline
 90
3
 70
1
 10
232.5987088472668
 20
100.0309322986875
 10
233.0
 20
99.87686553067958
 10
233.33423911504903
 20
100.16479236371212
  0
LWPOLYLINE
  5
3F
330
17
100
AcDbEntity
  8
PASS_02
100
AcDbPolyline
 90
3
 70
1
 10
225.5
 20
102.84243940120965
 10
225.355824411505
 20
102.81167587719
 10
229.74584668545117
 20
101.12622495552625
  0
LWPOLYLINE
  5
40
330
17
100
AcDbEntity
  8
PASS_02
100
AcDbPolyline
 90
3
 70
1
 10
240.75
 20
150.2663285296303
 10
240.6897436656989
 20
150.22239697529108
 10
240.8232297634652
 20
150.25824674534377
  0
LWPOLYLINE
  5
41
330
17
100
AcDbEntity
  8
PASS_02
100
AcDbPolyline
 90
3
 70
1
 10
242.3019675468464
 20
135.67575153142843
 10
241.33194500139751
 20
138.625
 10
241.83941934541613
 20
136.125
  0
LWPOLYLINE
  5
42
330
17
100
AcDbEntity
  8
PASS_02
100
AcDbPolyline
 90
3
 70
1
 10
243.05366014330517
 20
135.125
 10
242.86902374874552
 20
135.125
 10
243.0
 20
134.99778973280326
  0
LWPOLYLINE
  5
43
330
17
100
AcDbEntity
  8
PASS_02
100
AcDbPolyline
 90
3
 70
1
 10
243.25
 20
136.17298961120116
 10
243.122889146113
 20
135.28911883015056
 10
243.44439817951744
 20
136.05130930386872
  0
LWPOLYLINE
  5
44
330
17
100
AcDbEntity
  8
PASS_02
100
AcDbPolyline
 90
4
 70
1
 10
244.64292945456995
 20
133.625
 10
243.72607241633884
 20
135.875
 10
243.59165906504924
 20
135.95913380174187
 10
244.60609417505825
 20
133.48014123939066
  0
LWPOLYLINE
  5
45
330
17
100
AcDbEntity
  8
PASS_02
100
AcDbPolyline
 90
3
 70
1
 10
244.38864535496313
 20
132.625
 10
244.54979192703783
 20
133.25872649852616
 10
243.68854518669608
 20
132.25054344548897
  0
LWPOLYLINE
  5
46
330
17
100
AcDbEntity
  8
PASS_02
100
AcDbPolyline
 90
3
 70
1
 10
243.0
 20
131.88226720457112
 10
243.3247717017795
 20
132.0559750509098
 10
239.5109617260116
 20
132.625
  0
LWPOLYLINE
  5
47
330
17
100
AcDbEntity
  8
PASS_02
100
AcDbPolyline
 90
3
 70
1
 10
234.75
 20
153.38862688047527
 10
234.36642205828673
 20
153.106633325258
 10
235.07803651804954
 20
153.03600425758657
  0
LWPOLYLINE
  5
48
330
17
100
AcDbEntity
  8
PASS_02
100
AcDbPolyline
 90
3
 70
1
 10
236.92831598509838
 20
152.875
 10
236.7287813301338
 20
152.87216474387034
 10
236.9555998722039
 20
152.8496525788388
  0
LWPOLYLINE
  5
49
330
17
100
AcDbEntity
  8
PASS_02
100
AcDbPolyline
 90
3
 70
1
 10
238.75
 20
151.18260947772006
 10
237.26896888270335
 20
152.5585248426303
 10
238.70337811259378
 20
151.02944400935908
  0
LWPOLYLINE
  5
4A
330
17
100
AcDbEntity
  8
PASS_02
100
AcDbPolyline
 90
3
 70
1
 10
235.5
 20
150.5572310359981
 10
238.5
 20
150.36129208323948
 10
235.3383622624477
 20
150.81584276562208
  0
LWPOLYLINE
  5
4B
330
17
100
AcDbEntity
  8
PASS_02
100
AcDbPolyline
 90
3
 70
1
 10
234.05134594221659
 20
152.875
 10
234.57575420790295
 20
152.03597483996026
 10
234.22553217114594
 20
153.00305583591768
  0
LWPOLYLINE
  5
4C
330
17
100
AcDbEntity
  8
PASS_02
100
AcDbPolyline
 90
4
 70
1
 10
272.5747092856608
 20
207.875
 10
273.45070366063914
 20
207.625
 10
273.45708049301487
 20
207.74069579336123
 10
272.4358837881444
 20
208.10745528186473
  0
LWPOLYLINE
  5
4D
330
17
100
AcDbEntity
  8
PASS_02
100
AcDbPolyline
 90
3
 70
1
 10
274.4483726687572
 20
213.875
 10
274.29397015162255
 20
213.97427843368143
 10
274.39026588407086
 20
213.77441115041796
  0
LWPOLYLINE
  5
4E
330
17
100
AcDbEntity
  8
PASS_02
100
AcDbPolyline
 90
4
 70
1
 10
272.25
 20
215.28851967087414
 10
270.5793240404296
 20
214.625
 10
270.6406305143457
 20
214.41562679642763
 10
272.33824624495713
 20
215.23177869838096
  0
LWPOLYLINE
  5
4F
330
17
100
AcDbEntity
  8
PASS_02
100
AcDbPolyline
 90
4
 70
1
 10
264.5
 20
247.5639452817456
 10
264.38754111315444
 20
247.94470426217393
 10
260.5349754908273
 20
250.95376481164644
 10
260.5783435057931
 20
250.875
  0
LWPOLYLINE
  5
50
330
17
100
AcDbEntity
  8
PASS_02
100
AcDbPolyline
 90
3
 70
1
 10
247.03639952065774
 20
205.625
 10
247.10097409720038
 20
205.34578926877614
 10
248.0
 20
206.44426540785122
  0
LWPOLYLINE
  5
51
330
17
100
AcDbEntity
  8
PASS_02
100
AcDbPolyline
 90
3
 70
1
 10
248.97186649623166
 20
205.7108806087145
 10
248.75
 20
206.18996431122702
 10
248.0
 20
206.44426540785122
  0
LWPOLYLINE
  5
52
330
17
100
AcDbEntity
  8
PASS_02
100
AcDbPolyline
 90
3
 70
1
 10
247.24845231769703
 20
204.70811568283688
 10
247.3833126367454
 20
204.125
 10
249.07570871689856
 20
202.38695860916462
  0
LWPOLYLINE
  5
53
330
17
100
AcDbEntity
  8
PASS_02
100
AcDbPolyline
 90
3
 70
1
 10
249.59692288312334
 20
201.85168686928534
 10
249.75
 20
201.69448113698581
 10
249.82522326163425
 20
201.86041138308283
  0
LWPOLYLINE
  5
54
330
17
100
AcDbEntity
  8
PASS_02
100
AcDbPolyline
 90
3
 70
1
 10
250.0822800244547
 20
202.42743667538005
 10
250.2851795792838
 20
202.875
 10
249.69228263573422
 20
204.15526208440016
  0
LWPOLYLINE
  5
55
330
17
100
AcDbEntity
  8
PASS_02
100
AcDbPolyline
 90
3
 70
1
 10
219.38597476697805
 20
195.4841111598181
 10
219.8534877436175
 20
193.125
 10
219.5
 20
195.47669223357832
  0
LWPOLYLINE
  5
56
330
17
100
AcDbEntity
  8
PASS_02
100
AcDbPolyline
 90
3
 70
1
 10
220.88998928624224
 20
173.00769648142506
 10
221.92109374598496
 20
174.375
 10
222.23715723059118
 20
175.875
  0
LWPOLYLINE
  5
57
330
17
100
AcDbEntity
  8
PASS_02
100
AcDbPolyline
 90
3
 70
1
 10
220.35780551826394
 20
171.875
 10
220.6933389147147
 20
170.66805134755415
 10
220.61128240000278
 20
172.41449855171055
  0
LWPOLYLINE
  5
58
330
17
100
AcDbEntity
  8
PASS_02
100
AcDbPolyline
 90
3
 70
1
 10
219.8037748224358
 20
169.875
 10
220.75
 20
169.46210695266484
 10
220.73992277821802
 20
169.676585179879
  0
LWPOLYLINE
  5
59
330
17
100
AcDbEntity
  8
PASS_02
100
AcDbPolyline
 90
3
 70
1
 10
219.97659314081196
 20
178.32422577845247
 10
219.84474879370256
 20
174.875
 10
219.8037748224358
 20
169.875
  0
LWPOLYLINE
  5
5A
330
17
100
AcDbEntity
  8
PASS_02
100
AcDbPolyline
 90
4
 70
1
 10
221.57441810074474
 20
184.875
 10
221.61875902771274
 20
185.86957013252723
 10
220.04542653032638
 20
180.125
 10
220.03970100957926
 20
179.97521266221094
  0
LWPOLYLINE
  5
5B
330
17
100
AcDbEntity
  8
PASS_02
100
AcDbPolyline
 90
3
 70
1
 10
221.76389587958693
 20
189.125
 10
221.34011811484035
 20
192.125
 10
221.750635424772
 20
188.82756705927372
  0
LWPOLYLINE
  5
5C
330
17
100
AcDbEntity
  8
PASS_02
100
AcDbPolyline
 90
3
 70
1
 10
264.6947282816159
 20
116.00630135726712
 10
264.87205003649024
 20
115.94603267956907
 10
264.92913407513504
 20
116.125
  0
LWPOLYLINE
  5
5D
330
17
100
AcDbEntity
  8
PASS_02
100
AcDbPolyline
 90
3
 70
1
 10
264.6983611202799
 20
115.40149097122648
 10
264.0708168819719
 20
114.625
 10
263.5
 20
111.64444287693017
  0
LWPOLYLINE
  5
5E
330
17
100
AcDbEntity
  8
PASS_02
100
AcDbPolyline
 90
3
 70
1
 10
261.4896925425962
 20
112.05121186578329
 10
260.50539986610295
 20
113.24358951826915
 10
261.0
 20
112.15029707768315
  0
LWPOLYLINE
  5
5F
330
17
100
AcDbEntity
  8
PASS_02
100
AcDbPolyline
 90
3
 70
1
 10
258.7459474615776
 20
115.375
 10
258.9894289744857
 20
116.89184970402376
 10
258.9025081433225
 20
116.875
  0
LWPOLYLINE
  5
60
330
17
100
AcDbEntity
  8
PASS_02
100
AcDbPolyline
 90
3
 70
1
 10
259.0735519653767
 20
116.90815704346285
 10
260.05294478096
 20
116.24838739383208
 10
259.5
 20
116.99082449002034
  0
LWPOLYLINE
  5
61
330
17
100
AcDbEntity
  8
PASS_02
100
AcDbPolyline
 90
3
 70
1
 10
346.75
 20
125.78846681234393
 10
346.94631880592414
 20
126.01120601315732
 10
342.0
 20
129.2926331692029
  0
LWPOLYLINE
  5
62
330
17
100
AcDbEntity
  8
PASS_02
100
AcDbPolyline
 90
94
 70
1
 10
239.5
 20
183.003274784162
 10
241.0
 20
183.22391413300616
 10
241.70885391047713
 20
184.625
 10
240.98702071284222
 20
185.875
 10
240.8424500707281
 20
188.125
 10
241.44019759620284
 20
189.375
 10
240.63783303486534
 20
191.375
 10
238.82533771721018
 20
193.125
 10
239.25
 20
193.59553142019206
 10
241.0
 20
192.4305334978336
 10
242.5
 20
189.8926210372672
 10
244.03240399323522
 20
193.875
 10
243.86522737596533
 20
197.125
 10
240.75
 20
199.4927714150837
 10
240.2339908315481
 20
202.375
 10
236.5
 20
204.44503440897654
 10
235.36462496296247
 20
207.625
 10
232.94210405244795
 20
208.625
 10
233.2514738316608
 20
212.625
 10
232.44284286498396
 20
215.125
 10
236.5
 20
213.5942843371521
 10
238.75
 20
211.40230654652714
 10
239.50536025417642
 20
211.625
 10
237.66056479278905
 20
214.625
 10
237.75
 20
220.3198974570015
 10
240.25
 20
218.06963168134433
 10
241.25
 20
218.07714541120382
 10
242.75
 20
216.35030880443554
 10
243.75
 20
216.49318420539927
 10
246.25
 20
213.18235495994242
 10
247.67422648200497
 20
216.875
 10
247.12711476965274
 20
219.125
 10
245.12408687307197
 20
221.625
 10
245.125636213711
 20
222.625
 10
246.00386575328838
 20
223.375
 10
246.3971259135427
 20
228.125
 10
244.75
 20
230.1582740444638
 10
243.25
 20
230.7754038475502
 10
242.0
 20
230.24582105187326
 10
238.0
 20
233.59690868370333
 10
237.5
 20
232.38856398790293
 10
236.75
 20
232.25000175487858
 10
234.5
 20
234.02671557242968
 10
233.5754923246284
 20
232.125
 10
235.1977756380015
 20
227.875
 10
234.25
 20
225.12739175930204
 10
232.0
 20
227.09217931012836
 10
231.0
 20
224.40246270181893
 10
229.75
 20
225.7310929138408
 10
229.5
 20
221.6337532665757
 10
228.25
 20
222.67660018552874
 10
226.5
 20
222.57084700173561
 10
224.5
 20
225.44569254398215
 10
222.7702260245036
 20
226.625
 10
222.27610680599466
 20
229.375
 10
220.46393757081626
 20
232.625
 10
216.0
 20
234.9527421791853
 10
215.50340722891573
 20
233.875
 10
217.27753619142015
 20
230.875
 10
217.70008189423754
 20
228.375
 10
221.75
 20
221.05601942107785
 10
223.07864295342634
 20
220.125
 10
223.39512042460777
 20
216.625
 10
225.89569815905136
 20
209.375
 10
228.25
 20
206.59353587209426
 10
230.62895236172145
 20
201.375
 10
230.5529146917971
 20
199.375
 10
229.04755298243614
 20
197.625
 10
230.71677833101455
 20
194.125
 10
227.97577210106655
 20
194.875
 10
225.25
 20
196.82754065273295
 10
224.71455213441794
 20
194.625
 10
225.09689850311167
 20
190.125
 10
226.25
 20
188.7551713765406
 10
227.7770536153468
 20
188.875
 10
227.07017390339846
 20
186.125
 10
227.36085050029425
 20
184.375
 10
225.75
 20
185.24197936911997
 10
225.00668074762706
 20
184.125
 10
227.01268063355843
 20
180.125
 10
225.73100216521905
 20
178.125
 10
227.0
 20
177.7111168359446
 10
229.25
 20
174.9825620820702
 10
230.75
 20
174.6493984057753
 10
230.83434246550257
 20
173.375
 10
228.03173428943148
 20
169.875
 10
230.25
 20
166.18529362880886
 10
231.22025607788981
 20
169.375
 10
233.0784079859691
 20
172.375
 10
233.75
 20
180.29196143642588
 10
234.89779447161058
 20
180.375
 10
233.22260329587897
 20
183.875
 10
234.5
 20
185.28655682157216
 10
236.5
 20
183.83066477559962
  0
LWPOLYLINE
  5
63
330
17
100
AcDbEntity
  8
PASS_02
100
AcDbPolyline
 90
12
 70
1
 10
221.99882166240621
 20
243.875
 10
222.6387318496532
 20
237.375
 10
222.21749561700318
 20
236.125
 10
222.75
 20
235.5543375727808
 10
224.0
 20
235.67345375630308
 10
225.25
 20
241.50531282883964
 10
229.5
 20
239.8646738418548
 10
230.0
 20
241.88643250111707
 10
231.25
 20
242.8526356988253
 10
230.59773650512378
 20
246.875
 10
228.0
 20
248.5395254215905
 10
224.8134026756637
 20
247.375
  0
LWPOLYLINE
  5
64
330
17
100
AcDbEntity
  8
PASS_02
100
AcDbPolyline
 90
6
 70
1
 10
183.5
 20
101.39174758314178
 10
181.75
 20
101.74060866992909
 10
180.64601549755014
 20
100.875
 10
185.5
 20
99.50197421349964
 10
186.66737298485592
 20
100.125
 10
185.0
 20
101.92325286962273
  0
LWPOLYLINE
  5
65
330
17
100
AcDbEntity
  8
PASS_02
100
AcDbPolyline
 90
8
 70
1
 10
166.7491999791557
 20
213.625
 10
165.75
 20
215.95884277096786
 10
164.7421168094821
 20
215.625
 10
164.75
 20
214.4017537794542
 10
163.75
 20
215.2028096961331
 10
163.24953390640138
 20
214.625
 10
163.37863094789094
 20
213.875
 10
165.5
 20
212.16172316053124
  0
LWPOLYLINE
  5
66
330
17
100
AcDbEntity
  8
PASS_02
100
AcDbPolyline
 90
7
 70
1
 10
133.938717212511
 20
208.125
 10
133.0
 20
209.3193204227053
 10
131.3791831860163
 20
208.875
 10
131.03279058735166
 20
207.375
 10
131.75
 20
206.15928331066164
 10
133.0
 20
205.86720857715068
 10
133.9247497507925
 20
206.875
  0
LWPOLYLINE
  5
67
330
17
100
AcDbEntity
  8
PASS_02
100
AcDbPolyline
 90
5
 70
1
 10
445.6485453387131
 20
375.125
 10
447.0
 20
378.13172517625435
 10
445.6069274071923
 20
375.875
 10
445.6722803566535
 20
374.375
 10
445.920194337444
 20
374.44925891814535
  0
LWPOLYLINE
  5
68
330
17
100
AcDbEntity
  8
PASS_02
100
AcDbPolyline
 90
3
 70
1
 10
448.5
 20
376.02314566115706
 10
446.54325877964277
 20
374.6358885356642
 10
447.34153427916067
 20
374.875
  0
LWPOLYLINE
  5
69
330
17
100
AcDbEntity
  8
PASS_02
100
AcDbPolyline
 90
3
 70
1
 10
448.94829643285874
 20
356.95981147126287
 10
448.9415455459263
 20
357.125
 10
445.63863893553713
 20
359.0376660971454
  0
LWPOLYLINE
  5
6A
330
17
100
AcDbEntity
  8
PASS_02
100
AcDbPolyline
 90
3
 70
1
 10
441.3828352013284
 20
358.375
 10
443.93483539963427
 20
360.0243144174665
 10
443.75
 20
360.13134996043965
  0
LWPOLYLINE
  5
6B
330
17
100
AcDbEntity
  8
PASS_02
100
AcDbPolyline
 90
3
 70
1
 10
448.14280115504204
 20
356.32694681302127
 10
444.5
 20
358.3425602326113
 10
448.0
 20
356.2749894545359
  0
LWPOLYLINE
  5
6C
330
17
100
AcDbEntity
  8
PASS_02
100
AcDbPolyline
 90
3
 70
1
 10
448.9555694139045
 20
356.7818477384218
 10
448.51940135759867
 20
356.4639705767586
 10
448.96197943133
 20
356.625
  0
LWPOLYLINE
  5
6D
330
17
100
AcDbEntity
  8
PASS_02
100
AcDbPolyline
 90
4
 70
1
 10
414.4571567556407
 20
339.3928539351912
 10
414.23803620298276
 20
339.375
 10
413.5611604374366
 20
337.89215855947646
 10
413.75
 20
337.81479789739404
  0
LWPOLYLINE
  5
6E
330
17
100
AcDbEntity
  8
PASS_02
100
AcDbPolyline
 90
3
 70
1
 10
414.75
 20
339.4167147927994
 10
414.5876909934866
 20
339.4034898604592
 10
415.3911015422312
 20
338.625
  0
LWPOLYLINE
  5
6F
330
17
100
AcDbEntity
  8
PASS_02
100
AcDbPolyline
 90
3
 70
1
 10
414.9390009461278
 20
337.875
 10
415.02875194032947
 20
337.5367555612724
 10
415.3911015422312
 20
338.625
  0
LWPOLYLINE
  5
70
330
17
100
AcDbEntity
  8
PASS_02
100
AcDbPolyline
 90
3
 70
1
 10
415.4848062540478
 20
336.98928767644037
 10
415.069105178443
 20
337.3846763726464
 10
415.25
 20
336.70293832695086
  0
LWPOLYLINE
  5
71
330
17
100
AcDbEntity
  8
PASS_02
100
AcDbPolyline
 90
3
 70
1
 10
415.8927988223275
 20
338.625
 10
415.7979641678227
 20
337.37118791696247
 10
416.00608988752964
 20
337.625
  0
LWPOLYLINE
  5
72
330
17
100
AcDbEntity
  8
PASS_02
100
AcDbPolyline
 90
3
 70
1
 10
398.7870762207108
 20
310.625
 10
398.2097617724829
 20
307.625
 10
398.33095296450705
 20
307.33322433713215
  0
LWPOLYLINE
  5
73
330
17
100
AcDbEntity
  8
PASS_02
100
AcDbPolyline
 90
3
 70
1
 10
398.862691642309
 20
306.39619581405617
 10
398.6753469706533
 20
306.5040734083168
 10
398.75
 20
306.3243413934821
  0
LWPOLYLINE
  5
74
330
17
100
AcDbEntity
  8
PASS_02
100
AcDbPolyline
 90
3
 70
1
 10
399.72537696365373
 20
307.39480166300285
 10
399.9494902913315
 20
307.0891601333805
 10
400.0
 20
307.1213661228876
  0
LWPOLYLINE
  5
75
330
17
100
AcDbEntity
  8
PASS_02
100
AcDbPolyline
 90
3
 70
1
 10
399.1899550287766
 20
308.125
 10
399.2554699482787
 20
308.03565198836145
 10
399.2724446318146
 20
308.2559855862209
  0
LWPOLYLINE
  5
76
330
17
100
AcDbEntity
  8
PASS_02
100
AcDbPolyline
 90
3
 70
1
 10
401.1153236648971
 20
311.18230092284983
 10
400.9267626564444
 20
310.88288410762766
 10
401.12049411998646
 20
311.125
  0
LWPOLYLINE
  5
77
330
17
100
AcDbEntity
  8
PASS_02
100
AcDbPolyline
 90
12
 70
1
 10
201.92443771298753
 20
102.375
 10
203.5
 20
101.61710071197734
 10
202.85493765751423
 20
105.125
 10
204.0
 20
106.5677723802568
 10
204.5
 20
102.98816163410305
 10
205.9098930909147
 20
99.875
 10
202.75
 20
101.2599664957113
 10
200.75
 20
101.29112169398717
 10
196.97579298994552
 20
102.625
 10
197.5
 20
103.5077342916897
 10
200.0
 20
102.26738019093563
 10
201.5
 20
104.41235393763398
  0
LWPOLYLINE
  5
78
330
17
100
AcDbEntity
  8
PASS_02
100
AcDbPolyline
 90
30
 70
1
 10
102.46216199407087
 20
133.625
 10
101.25
 20
133.24645050137696
 10
101.25
 20
132.07516874452645
 10
103.2742823812893
 20
131.875
 10
102.75
 20
130.43571126536892
 10
101.75
 20
130.85508476000857
 10
100.25
 20
132.25533549289253
 10
98.98125650767784
 20
134.625
 10
94.5
 20
138.84059159712695
 10
93.0953152797902
 20
142.125
 10
96.75
 20
143.52976763679175
 10
98.25
 20
142.9156253314311
 10
100.25
 20
143.9640933164697
 10
101.25
 20
142.76644268026547
 10
101.5
 20
143.9200209970267
 10
102.97252183643653
 20
143.625
 10
103.97754737794527
 20
139.875
 10
105.75
 20
137.93063881696872
 10
107.75
 20
137.72118794005488
 10
110.55687986737105
 20
134.625
 10
113.42726955611754
 20
127.375
 10
115.5
 20
124.79134853305051
 10
114.16773213333497
 20
125.375
 10
112.0
 20
127.7660876409167
 10
109.5738480803442
 20
128.375
 10
110.0971960597465
 20
129.625
 10
108.67466970153339
 20
131.125
 10
104.39175544200012
 20
132.125
 10
104.0
 20
134.74716415375366
 10
102.20673293066712
 20
134.375
  0
LWPOLYLINE
  5
79
330
17
100
AcDbEntity
  8
PASS_02
100
AcDbPolyline
 90
11
 70
1
 10
103.0
 20
138.33058671268333
 10
103.5
 20
137.36697786369191
 10
104.71690872322826
 20
137.625
 10
104.5
 20
138.13951262090762
 10
103.01731066720473
 20
138.375
 10
103.06696602014283
 20
139.375
 10
101.7974834714305
 20
139.875
 10
101.25
 20
141.40884406220403
 10
98.5
 20
141.6559584345418
 10
98.96702158735337
 20
140.125
 10
100.5
 20
138.69415465163735
  0
LWPOLYLINE
  5
7A
330
17
100
AcDbEntity
  8
PASS_02
100
AcDbPolyline
 90
208
 70
1
 10
117.5
 20
261.9967003510769
 10
117.75
 20
263.6971445854526
 10
119.54849092220242
 20
263.625
 10
120.20335791523388
 20
265.625
 10
119.90761050182785
 20
266.625
 10
121.0
 20
267.2370016963529
 10
120.90148694946856
 20
268.625
 10
122.36322840684717
 20
271.625
 10
120.75
 20
271.86588106822177
 10
119.5
 20
272.873454700332
 10
118.0
 20
272.2000087588684
 10
116.25
 20
273.64285135281193
 10
114.5
 20
274.06698290772204
 10
114.25
 20
274.83144904936125
 10
112.96858434932412
 20
275.125
 10
113.90882371952844
 20
276.125
 10
113.75
 20
276.99043457723195
 10
110.75
 20
276.7058188873576
 10
106.75
 20
280.9337883383889
 10
101.0
 20
280.78453088485617
 10
100.88304504807084
 20
283.375
 10
99.95877662123566
 20
284.375
 10
100.60893708880211
 20
286.875
 10
99.25
 20
287.5366902211226
 10
96.75
 20
291.1059457696497
 10
94.75
 20
291.7252176251956
 10
91.75
 20
291.3221010300332
 10
90.0
 20
289.7090021630237
 10
90.26408795401488
 20
291.875
 10
89.11131899897043
 20
292.125
 10
88.25
 20
294.77289512449966
 10
83.25
 20
294.9350418826941
 10
80.25
 20
296.7305866258379
 10
76.5
 20
297.8860905084042
 10
75.79484848679864
 20
298.875
 10
76.43679335252335
 20
301.375
 10
75.64706660520082
 20
302.875
 10
75.06632251825242
 20
306.625
 10
75.5
 20
307.9784122565194
 10
77.5
 20
307.3339287614805
 10
78.5
 20
306.52362603501933
 10
79.30920049868838
 20
303.875
 10
80.75
 20
302.23079848932633
 10
84.75
 20
301.17543987252867
 10
86.75
 20
301.5521421453037
 10
89.25
 20
304.66499312959735
 10
90.55501403503615
 20
302.375
 10
92.75
 20
301.6448403478711
 10
105.75
 20
303.63337561811625
 10
106.19064178572246
 20
304.625
 10
105.0
 20
306.77496830568884
 10
104.53564351916587
 20
313.125
 10
105.40805640863715
 20
316.375
 10
104.47886001324653
 20
318.875
 10
102.2501225080744
 20
320.375
 10
102.14834918424557
 20
321.125
 10
105.25
 20
322.26470450132047
 10
107.18210902204335
 20
323.875
 10
108.41346836280096
 20
327.125
 10
107.89831611368584
 20
329.125
 10
108.91928805389034
 20
330.375
 10
109.25
 20
333.4447039000271
 10
114.70821855526732
 20
337.375
 10
116.0
 20
337.7374248381128
 10
118.75
 20
335.51181090568195
 10
120.75
 20
335.73801308073973
 10
121.25
 20
336.51607851143257
 10
127.0
 20
335.55100349770305
 10
129.5
 20
333.0705597451833
 10
136.31346884424738
 20
323.875
 10
138.0
 20
322.4916133515129
 10
140.5
 20
321.66952944932234
 10
143.75
 20
317.1590655591291
 10
147.30485163239354
 20
316.875
 10
152.25
 20
311.94120488413705
 10
156.75
 20
309.4662012488159
 10
162.5
 20
307.72712200660635
 10
182.0
 20
308.68756189461055
 10
194.5
 20
307.69415241254455
 10
202.49609869799636
 20
310.125
 10
215.75
 20
311.6854270895419
 10
220.25
 20
311.66491853657544
 10
223.75
 20
310.2352060035712
 10
227.25
 20
309.9492837442192
 10
231.5
 20
312.40593844894295
 10
232.89685954193678
 20
308.375
 10
231.04325720445766
 20
307.125
 10
231.25
 20
304.46489536470705
 10
228.0
 20
305.2324183708366
 10
225.0
 20
304.0846744374587
 10
220.25
 20
307.03601826124935
 10
217.75
 20
307.3639989122017
 10
216.75
 20
308.10459087899625
 10
213.5
 20
307.1511225293448
 10
209.75
 20
307.944256880012
 10
204.75
 20
305.9798282341502
 10
200.5
 20
305.4079828573849
 10
198.71776033793822
 20
302.625
 10
200.13120713472122
 20
298.875
 10
199.91832340177044
 20
296.625
 10
199.08469100797177
 20
296.125
 10
198.43333139875241
 20
296.375
 10
197.61952679592233
 20
299.125
 10
196.5
 20
300.08391972264747
 10
194.55316896821256
 20
299.625
 10
194.24624428478117
 20
297.625
 10
191.5
 20
298.6052812447565
 10
190.5
 20
297.377270159012
 10
189.5
 20
298.8722522675213
 10
185.66626271141786
 20
299.625
 10
183.5
 20
300.6883674408724
 10
182.75
 20
302.11856401511886
 10
182.0
 20
302.240468774733
 10
180.77003679175863
 20
299.125
 10
181.0920252648209
 20
297.875
 10
183.55110170720016
 20
296.625
 10
186.56263709748177
 20
293.875
 10
184.0
 20
294.40027016137367
 10
183.25
 20
293.43722903669243
 10
182.0
 20
293.57614015976765
 10
181.0
 20
292.042627022925
 10
179.5
 20
291.4732463667078
 10
178.73220297541806
 20
292.375
 10
178.47147068232718
 20
295.125
 10
179.97134204356246
 20
296.875
 10
178.97717347304825
 20
298.875
 10
177.75
 20
299.79797557024915
 10
176.75
 20
299.19630770303564
 10
165.5
 20
299.70446898576756
 10
164.99703139942616
 20
298.625
 10
165.34973777099083
 20
298.125
 10
171.95682726231917
 20
295.875
 10
172.75
 20
294.45994679741284
 10
170.8661407647695
 20
293.875
 10
169.75
 20
291.940506023037
 10
166.25
 20
294.0774486980514
 10
164.75
 20
294.3352321730431
 10
162.35400647511125
 20
293.625
 10
160.0
 20
291.2896857082021
 10
159.0
 20
292.2289879226331
 10
158.25
 20
292.0504078856632
 10
156.62071933380108
 20
289.875
 10
154.60105626094574
 20
289.125
 10
154.25
 20
287.93839218388416
 10
146.5
 20
294.4225086840027
 10
146.05401151226346
 20
293.125
 10
146.25
 20
289.0694245957127
 10
144.854641930316
 20
288.375
 10
144.5131932966906
 20
284.125
 10
147.05144328662112
 20
279.375
 10
147.0
 20
278.1681736856592
 10
146.5
 20
277.8980386174861
 10
144.30944708276797
 20
279.125
 10
143.0
 20
280.8166325458918
 10
142.6040687559361
 20
282.625
 10
143.06084881666118
 20
285.375
 10
141.25
 20
289.0366710406039
 10
139.4211339425603
 20
288.375
 10
139.62577618698987
 20
285.375
 10
138.84496158184123
 20
285.375
 10
138.0
 20
286.65022034197074
 10
137.25
 20
286.611972327324
 10
137.74429476460756
 20
283.125
 10
140.48071933112294
 20
280.125
 10
137.0
 20
280.7977415126651
 10
135.25
 20
281.7697909957744
 10
135.0
 20
280.170789705153
 10
133.48025796742098
 20
280.125
 10
134.7270885614159
 20
276.875
 10
137.66616798066462
 20
274.625
 10
135.99097054791287
 20
272.625
 10
136.20046336651836
 20
270.625
 10
134.75
 20
269.66201528654904
 10
132.75
 20
270.54837997965524
 10
131.9800906078159
 20
270.125
 10
132.0652740790058
 20
268.625
 10
130.4075264788675
 20
264.125
 10
130.3017132627127
 20
262.125
 10
131.0171694035502
 20
261.125
 10
130.5
 20
260.2122152285816
 10
128.5
 20
260.76725243714725
 10
128.348219821819
 20
259.625
 10
126.5
 20
258.11740131436727
 10
122.5
 20
260.30000257811696
 10
122.5
 20
256.56500679307703
 10
121.0
 20
259.56412097517864
 10
119.31130191693292
 20
259.375
 10
118.75
 20
257.58377587234156
 10
117.0
 20
259.1046404170338
 10
116.6841978013675
 20
256.625
 10
115.37068748426088
 20
254.875
 10
117.29059369552368
 20
252.375
 10
117.35722494412505
 20
249.375
 10
119.0
 20
248.4767134092901
 10
119.3463162038168
 20
247.625
 10
117.5
 20
247.48018153672953
 10
115.75
 20
246.55438216135616
 10
114.29695020971663
 20
242.375
 10
114.5
 20
239.82412338373877
 10
113.73059131948662
 20
240.875
 10
113.63360934205784
 20
250.625
 10
112.45757590936415
 20
253.875
 10
113.24831923660811
 20
256.875
 10
111.25
 20
255.94845302619694
 10
109.25
 20
253.2938863255034
 10
107.98012755958375
 20
254.125
 10
113.08972016651248
 20
260.125
 10
116.25
 20
262.5003288478104
  0
LWPOLYLINE
  5
7B
330
17
100
AcDbEntity
  8
PASS_02
100
AcDbPolyline
 90
9
 70
1
 10
161.0
 20
295.941338440907
 10
163.30592089405948
 20
297.375
 10
163.13886746179185
 20
299.375
 10
162.25
 20
300.4251242732398
 10
160.5
 20
301.0090070787793
 10
154.25
 20
299.6169523520428
 10
153.0384422337159
 20
297.875
 10
153.75
 20
296.9249121605103
 10
157.75
 20
295.89927993220635
  0
LWPOLYLINE
  5
7C
330
17
100
AcDbEntity
  8
PASS_02
100
AcDbPolyline
 90
15
 70
1
 10
235.25
 20
332.27623456790127
 10
235.4042082742852
 20
329.875
 10
234.33806970752053
 20
328.125
 10
234.86425973736564
 20
326.375
 10
234.60472253129132
 20
322.375
 10
235.30220719361142
 20
319.875
 10
233.46558479656593
 20
319.625
 10
232.25
 20
320.82424605305414
 10
231.97625155223255
 20
322.125
 10
232.78823631805216
 20
329.625
 10
232.37663377720827
 20
331.625
 10
233.25
 20
332.9143874432717
 10
235.75
 20
334.04071561748685
 10
237.5
 20
337.3121140822627
 10
237.0087303371498
 20
333.375
  0
ENDSEC
  0
SECTION
  2
OBJECTS
  0
DICTIONARY
  5
A
330
0
100
AcDbDictionary
281
1
  3
ACAD_COLOR
350
B
  3
ACAD_GROUP
350
C
  3
ACAD_LAYOUT
350
D
  3
ACAD_MATERIAL
350
E
  3
ACAD_MLEADERSTYLE
350
F
  3
ACAD_MLINESTYLE
350
10
  3
ACAD_PLOTSETTINGS
350
11
  3
ACAD_PLOTSTYLENAME
350
12
  3
ACAD_SCALELIST
350
14
  3
ACAD_TABLESTYLE
350
15
  3
ACAD_VISUALSTYLE
350
16
  3
EZDXF_META
350
2D
  0
DICTIONARY
  5
B
330
A
100
AcDbDictionary
281
1
  0
DICTIONARY
  5
C
330
A
100
AcDbDictionary
281
1
  0
DICTIONARY
  5
D
330
A
100
AcDbDictionary
281
1
  3
Model
350
1A
  3
Layout1
350
1E
  0
DICTIONARY
  5
E
330
A
100
AcDbDictionary
281
1
  3
ByBlock
350
1F
  3
ByLayer
350
20
  3
Global
350
21
  0
DICTIONARY
  5
F
330
A
100
AcDbDictionary
281
1
  3
Standard
350
2C
  0
DICTIONARY
  5
10
330
A
100
AcDbDictionary
281
1
  3
Standard
350
22
  0
DICTIONARY
  5
11
330
A
100
AcDbDictionary
281
1
  0
ACDBDICTIONARYWDFLT
  5
12
330
A
100
AcDbDictionary
281
1
  3
Normal
350
13
100
AcDbDictionaryWithDefault
340
13
  0
ACDBPLACEHOLDER
  5
13
330
12
  0
DICTIONARY
  5
14
330
A
100
AcDbDictionary
281
1
  0
DICTIONARY
  5
15
330
A
100
AcDbDictionary
281
1
  0
DICTIONARY
  5
16
330
A
100
AcDbDictionary
281
1
  0
LAYOUT
  5
1A
330
D
100
AcDbPlotSettings
  1

  4
A3
  6

 40
7.5
 41
20.0
 42
7.5
 43
20.0
 44
420.0
 45
297.0
 46
0.0
 47
0.0
 48
0.0
 49
0.0
140
0.0
141
0.0
142
1.0
143
1.0
 70
1024
 72
1
 73
0
 74
5
  7

 75
16
 76
0
 77
2
 78
300
147
1.0
148
0.0
149
0.0
100
AcDbLayout
  1
Model
 70
1
 71
0
 10
0.0
 20
0.0
 11
420.0
 21
297.0
 12
0.0
 22
0.0
 32
0.0
 14
1e+20
 24
1e+20
 34
1e+20
 15
-1e+20
 25
-1e+20
 35
-1e+20
146
0.0
 13
0.0
 23
0.0
 33
0.0
 16
1.0
 26
0.0
 36
0.0
 17
0.0
 27
1.0
 37
0.0
 76
1
330
17
  0
LAYOUT
  5
1E
330
D
100
AcDbPlotSettings
  1

  4
A3
  6

 40
7.5
 41
20.0
 42
7.5
 43
20.0
 44
420.0
 45
297.0
 46
0.0
 47
0.0
 48
0.0
 49
0.0
140
0.0
141
0.0
142
1.0
143
1.0
 70
0
 72
1
 73
0
 74
5
  7

 75
16
 76
0
 77
2
 78
300
147
1.0
148
0.0
149
0.0
100
AcDbLayout
  1
Layout1
 70
1
 71
1
 10
0.0
 20
0.0
 11
420.0
 21
297.0
 12
0.0
 22
0.0
 32
0.0
 14
1e+20
 24
1e+20
 34
1e+20
 15
-1e+20
 25
-1e+20
 35
-1e+20
146
0.0
 13
0.0
 23
0.0
 33
0.0
 16
1.0
 26
0.0
 36
0.0
 17
0.0
 27
1.0
 37
0.0
 76
1
330
1B
  0
MATERIAL
  5
1F
102
{ACAD_REACTORS
330
E
102
}
330
E
100
AcDbMaterial
  1
ByBlock
  2

 70
0
 40
1.0
 71
1
 41
1.0
 91
-1023410177
 42
1.0
 72
1
  3

 73
1
 74
1
 75
1
 44
0.5
 73
0
 45
1.0
 46
1.0
 77
1
  4

 78
1
 79
1
170
1
 48
1.0
171
1
  6

172
1
173
1
174
1
140
1.0
141
1.0
175
1
  7

176
1
177
1
178
1
143
1.0
179
1
  8

270
1
271
1
272
1
145
1.0
146
1.0
273
1
  9

274
1
275
1
276
1
 42
1.0
 72
1
  3

 73
1
 74
1
 75
1
 94
63
  0
MATERIAL
  5
20
102
{ACAD_REACTORS
330
E
102
}
330
E
100
AcDbMaterial
  1
ByLayer
  2

 70
0
 40
1.0
 71
1
 41
1.0
 91
-1023410177
 42
1.0
 72
1
  3

 73
1
 74
1
 75
1
 44
0.5
 73
0
 45
1.0
 46
1.0
 77
1
  4

 78
1
 79
1
170
1
 48
1.0
171
1
  6

172
1
173
1
174
1
140
1.0
141
1.0
175
1
  7

176
1
177
1
178
1
143
1.0
179
1
  8

270
1
271
1
272
1
145
1.0
146
1.0
273
1
  9

274
1
275
1
276
1
 42
1.0
 72
1
  3

 73
1
 74
1
 75
1
 94
63
  0
MATERIAL
  5
21
102
{ACAD_REACTORS
330
E
102
}
330
E
100
AcDbMaterial
  1
Global
  2

 70
0
 40
1.0
 71
1
 41
1.0
 91
-1023410177
 42
1.0
 72
1
  3

 73
1
 74
1
 75
1
 44
0.5
 73
0
 45
1.0
 46
1.0
 77
1
  4

 78
1
 79
1
170
1
 48
1.0
171
1
  6

172
1
173
1
174
1
140
1.0
141
1.0
175
1
  7

176
1
177
1
178
1
143
1.0
179
1
  8

270
1
271
1
272
1
145
1.0
146
1.0
273
1
  9

274
1
275
1
276
1
 42
1.0
 72
1
  3

 73
1
 74
1
 75
1
 94
63
  0
MLINESTYLE
  5
22
102
{ACAD_REACTORS
330
10
102
}
330
10
100
AcDbMlineStyle
  2
Standard
 70
0
  3

 62
256
 51
90.0
 52
90.0
 71
2
 49
0.5
 62
256
  6
BYLAYER
 49
-0.5
 62
256
  6
BYLAYER
  0
MLEADERSTYLE
  5
2C
102
{ACAD_REACTORS
330
F
102
}
330
F
100
AcDbMLeaderStyle
179
2
170
2
171
1
172
0
 90
2
 40
0.0
 41
0.0
173
1
 91
-1056964608
 92
-2
290
1
 42
2.0
291
1
 43
8.0
  3
Standard
 44
4.0
300

342
29
174
1
175
1
176
0
178
1
 93
-1056964608
 45
4.0
292
0
297
0
 46
4.0
 94
-1056964608
 47
1.0
 49
1.0
140
1.0
294
1
141
0.0
177
0
142
1.0
295
0
296
0
143
3.75
271
0
272
9
273
9
  0
DICTIONARY
  5
2D
330
A
100
AcDbDictionary
280
1
281
1
  3
CREATED_BY_EZDXF
350
2E
  3
WRITTEN_BY_EZDXF
350
7F
  0
DICTIONARYVAR
  5
2E
330
2D
100
DictionaryVariables
280
0
  1
1.4.3 @ 2026-09-03T21:25:23.205924+00:00
  0
DICTIONARYVAR
  5
7F
330
2D
100
DictionaryVariables
280
0
  1
1.4.3 @ 2026-09-03T21:25:23.212554+00:00
  0
ENDSEC
  0
EOF
