  0
SECTION
  2
HEADER
  9
$ACADVER
  1
AC1024
  9
$ACADMAINTVER
 70
6
  9
$DWGCODEPAGE
  3
ANSI_1252
  9
$LASTSAVEDBY
  1
ezdxf
  9
$INSBASE
 10
0.0
 20
0.0
 30
0.0
  9
$EXTMIN
 10
1e+20
 20
1e+20
 30
1e+20
  9
$EXTMAX
 10
-1e+20
 20
-1e+20
 30
-1e+20
  9
$LIMMIN
 10
0.0
 20
0.0
  9
$LIMMAX
 10
420.0
 20
297.0
  9
$ORTHOMODE
 70
0
  9
$REGENMODE
 70
1
  9
$FILLMODE
 70
1
  9
$QTEXTMODE
 70
0
  9
$MIRRTEXT
 70
1
  9
$LTSCALE
 40
1.0
  9
$ATTMODE
 70
1
  9
$TEXTSIZE
 40
2.5
  9
$TRACEWID
 40
1.0
  9
$TEXTSTYLE
  7
Standard
  9
$CLAYER
  8
0
  9
$CELTYPE
  6
ByLayer
  9
$CECOLOR
 62
256
  9
$CELTSCALE
 40
1.0
  9
$DISPSILH
 70
0
  9
$DIMSCALE
 40
1.0
  9
$DIMASZ
 40
2.5
  9
$DIMEXO
 40
0.625
  9
$DIMDLI
 40
3.75
  9
$DIMRND
 40
0.0
  9
$DIMDLE
 40
0.0
  9
$DIMEXE
 40
1.25
  9
$DIMTP
 40
0.0
  9
$DIMTM
 40
0.0
  9
$DIMTXT
 40
2.5
  9
$DIMCEN
 40
2.5
  9
$DIMTSZ
 40
0.0
  9
$DIMTOL
 70
0
  9
$DIMLIM
 70
0
  9
$DIMTIH
 70
0
  9
$DIMTOH
 70
0
  9
$DIMSE1
 70
0
  9
$DIMSE2
 70
0
  9
$DIMTAD
 70
1
  9
$DIMZIN
 70
8
  9
$DIMBLK
  1

  9
$DIMASO
 70
1
  9
$DIMSHO
 70
1
  9
$DIMPOST
  1

  9
$DIMAPOST
  1

  9
$DIMALT
 70
0
  9
$DIMALTD
 70
3
  9
$DIMALTF
 40
0.03937007874
  9
$DIMLFAC
 40
1.0
  9
$DIMTOFL
 70
1
  9
$DIMTVP
 40
0.0
  9
$DIMTIX
 70
0
  9
$DIMSOXD
 70
0
  9
$DIMSAH
 70
0
  9
$DIMBLK1
  1

  9
$DIMBLK2
  1

  9
$DIMSTYLE
  2
ISO-25
  9
$DIMCLRD
 70
0
  9
$DIMCLRE
 70
0
  9
$DIMCLRT
 70
0
  9
$DIMTFAC
 40
1.0
  9
$DIMGAP
 40
0.625
  9
$DIMJUST
 70
0
  9
$DIMSD1
 70
0
  9
$DIMSD2
 70
0
  9
$DIMTOLJ
 70
0
  9
$DIMTZIN
 70
8
  9
$DIMALTZ
 70
0
  9
$DIMALTTZ
 70
0
  9
$DIMUPT
 70
0
  9
$DIMDEC
 70
2
  9
$DIMTDEC
 70
2
  9
$DIMALTU
 70
2
  9
$DIMALTTD
 70
3
  9
$DIMTXSTY
  7
Standard
  9
$DIMAUNIT
 70
0
  9
$DIMADEC
 70
0
  9
$DIMALTRND
 40
0.0
  9
$DIMAZIN
 70
0
  9
$DIMDSEP
 70
44
  9
$DIMATFIT
 70
3
  9
$DIMFRAC
 70
0
  9
$DIMLDRBLK
  1

  9
$DIMLUNIT
 70
2
  9
$DIMLWD
 70
-2
  9
$DIMLWE
 70
-2
  9
$DIMTMOVE
 70
0
  9
$DIMFXL
 40
1.0
  9
$DIMFXLON
 70
0
  9
$DIMJOGANG
 40
0.785398163397
  9
$DIMTFILL
 70
0
  9
$DIMTFILLCLR
 70
0
  9
$DIMARCSYM
 70
0
  9
$DIMLTYPE
  6

  9
$DIMLTEX1
  6

  9
$DIMLTEX2
  6

  9
$DIMTXTDIRECTION
 70
0
  9
$LUNITS
 70
2
  9
$LUPREC
 70
4
  9
$SKETCHINC
 40
1.0
  9
$FILLETRAD
 40
10.0
  9
$AUNITS
 70
0
  9
$AUPREC
 70
2
  9
$MENU
  1
.
  9
$ELEVATION
 40
0.0
  9
$PELEVATION
 40
0.0
  9
$THICKNESS
 40
0.0
  9
$LIMCHECK
 70
0
  9
$CHAMFERA
 40
0.0
  9
$CHAMFERB
 40
0.0
  9
$CHAMFERC
 40
0.0
  9
$CHAMFERD
 40
0.0
  9
$SKPOLY
 70
0
  9
$TDCREATE
 40
2461288.3092939816
  9
$TDUCREATE
 40
2458532.153996898
  9
$TDUPDATE
 40
2461288.3092939816
  9
$TDUUPDATE
 40
2458532.1544311
  9
$TDINDWG
 40
0.0
  9
$TDUSRTIMER
 40
0.0
  9
$USRTIMER
 70
1
  9
$ANGBASE
 50
0.0
  9
$ANGDIR
 70
0
  9
$PDMODE
 70
0
  9
$PDSIZE
 40
0.0
  9
$PLINEWID
 40
0.0
  9
$SPLFRAME
 70
0
  9
$SPLINETYPE
 70
6
  9
$SPLINESEGS
 70
8
  9
$HANDSEED
  5
47
  9
$SURFTAB1
 70
6
  9
$SURFTAB2
 70
6
  9
$SURFTYPE
 70
6
  9
$SURFU
 70
6
  9
$SURFV
 70
6
  9
$UCSBASE
  2

  9
$UCSNAME
  2

  9
$UCSORG
 10
0.0
 20
0.0
 30
0.0
  9
$UCSXDIR
 10
1.0
 20
0.0
 30
0.0
  9
$UCSYDIR
 10
0.0
 20
1.0
 30
0.0
  9
$UCSORTHOREF
  2

  9
$UCSORTHOVIEW
 70
0
  9
$UCSORGTOP
 10
0.0
 20
0.0
 30
0.0
  9
$UCSORGBOTTOM
 10
0.0
 20
0.0
 30
0.0
  9
$UCSORGLEFT
 10
0.0
 20
0.0
 30
0.0
  9
$UCSORGRIGHT
 10
0.0
 20
0.0
 30
0.0
  9
$UCSORGFRONT
 10
0.0
 20
0.0
 30
0.0
  9
$UCSORGBACK
 10
0.0
 20
0.0
 30
0.0
  9
$PUCSBASE
  2

  9
$PUCSNAME
  2

  9
$PUCSORG
 10
0.0
 20
0.0
 30
0.0
  9
$PUCSXDIR
 10
1.0
 20
0.0
 30
0.0
  9
$PUCSYDIR
 10
0.0
 20
1.0
 30
0.0
  9
$PUCSORTHOREF
  2

  9
$PUCSORTHOVIEW
 70
0
  9
$PUCSORGTOP
 10
0.0
 20
0.0
 30
0.0
  9
$PUCSORGBOTTOM
 10
0.0
 20
0.0
 30
0.0
  9
$PUCSORGLEFT
 10
0.0
 20
0.0
 30
0.0
  9
$PUCSORGRIGHT
 10
0.0
 20
0.0
 30
0.0
  9
$PUCSORGFRONT
 10
0.0
 20
0.0
 30
0.0
  9
$PUCSORGBACK
 10
0.0
 20
0.0
 30
0.0
  9
$USERI1
 70
0
  9
$USERI2
 70
0
  9
$USERI3
 70
0
  9
$USERI4
 70
0
  9
$USERI5
 70
0
  9
$USERR1
 40
0.0
  9
$USERR2
 40
0.0
  9
$USERR3
 40
0.0
  9
$USERR4
 40
0.0
  9
$USERR5
 40
0.0
  9
$WORLDVIEW
 70
1
  9
$SHADEDGE
 70
3
  9
$SHADEDIF
 70
70
  9
$TILEMODE
 70
1
  9
$MAXACTVP
 70
64
  9
$PINSBASE
 10
0.0
 20
0.0
 30
0.0
  9
$PLIMCHECK
 70
0
  9
$PEXTMIN
 10
1e+20
 20
1e+20
 30
1e+20
  9
$PEXTMAX
 10
-1e+20
 20
-1e+20
 30
-1e+20
  9
$PLIMMIN
 10
0.0
 20
0.0
  9
$PLIMMAX
 10
420.0
 20
297.0
  9
$UNITMODE
 70
0
  9
$VISRETAIN
 70
1
  9
$PLINEGEN
 70
0
  9
$PSLTSCALE
 70
1
  9
$TREEDEPTH
 70
3020
  9
$CMLSTYLE
  2
Standard
  9
$CMLJUST
 70
0
  9
$CMLSCALE
 40
20.0
  9
$PROXYGRAPHICS
 70
1
  9
$MEASUREMENT
 70
1
  9
$CELWEIGHT
370
-1
  9
$ENDCAPS
280
0
  9
$JOINSTYLE
280
0
  9
$LWDISPLAY
290
0
  9
$INSUNITS
 70
4
  9
$HYPERLINKBASE
  1

  9
$STYLESHEET
  1

  9
$XEDIT
290
1
  9
$CEPSNTYPE
380
0
  9
$PSTYLEMODE
290
1
  9
$FINGERPRINTGUID
  2
{3917641E-975A-4694-B810-90CE323A72F8}
  9
$VERSIONGUID
  2
{9F730DE2-CE55-49E2-9B82-8B86ACDB94EA}
  9
$EXTNAMES
290
1
  9
$PSVPSCALE
 40
0.0
  9
$OLESTARTUP
290
0
  9
$SORTENTS
280
127
  9
$INDEXCTL
280
0
  9
$HIDETEXT
280
1
  9
$XCLIPFRAME
280
1
  9
$HALOGAP
280
0
  9
$OBSCOLOR
 70
257
  9
$OBSLTYPE
280
0
  9
$INTERSECTIONDISPLAY
280
0
  9
$INTERSECTIONCOLOR
 70
257
  9
$DIMASSOC
280
2
  9
$PROJECTNAME
  1

  9
$CAMERADISPLAY
290
0
  9
$LENSLENGTH
 40
50.0
  9
$CAMERAHEIGHT
 40
0.0
  9
$STEPSPERSEC
 40
24.0
  9
$STEPSIZE
 40
100.0
  9
$3DDWFPREC
 40
2.0
  9
$PSOLWIDTH
 40
0.005
  9
$PSOLHEIGHT
 40
0.08
  9
$LOFTANG1
 40
1.570796326795
  9
$LOFTANG2
 40
1.570796326795
  9
$LOFTMAG1
 40
0.0
  9
$LOFTMAG2
 40
0.0
  9
$LOFTPARAM
 70
7
  9
$LOFTNORMALS
280
1
  9
$LATITUDE
 40
37.795
  9
$LONGITUDE
 40
-122.394
  9
$NORTHDIRECTION
 40
0.0
  9
$TIMEZONE
 70
-8000
  9
$LIGHTGLYPHDISPLAY
280
1
  9
$TILEMODELIGHTSYNCH
280
1
  9
$CMATERIAL
347
20
  9
$SOLIDHIST
280
0
  9
$SHOWHIST
280
1
  9
$DWFFRAME
280
2
  9
$DGNFRAME
280
2
  9
$REALWORLDSCALE
290
1
  9
$INTERFERECOLOR
 62
256
  9
$CSHADOW
280
0
  9
$SHADOWPLANELOCATION
 40
0.0
  0
ENDSEC
  0
SECTION
  2
CLASSES
  0
CLASS
  1
ACDBDICTIONARYWDFLT
  2
AcDbDictionaryWithDefault
  3
ObjectDBX Classes
 90
0
 91
0
280
0
281
0
  0
CLASS
  1
SUN
  2
AcDbSun
  3
SCENEOE
 90
1153
 91
0
280
0
281
0
  0
CLASS
  1
VISUALSTYLE
  2
AcDbVisualStyle
  3
ObjectDBX Classes
 90
4095
 91
0
280
0
281
0
  0
CLASS
  1
MATERIAL
  2
AcDbMaterial
  3
ObjectDBX Classes
 90
1153
 91
0
280
0
281
0
  0
CLASS
  1
SCALE
  2
AcDbScale
  3
ObjectDBX Classes
 90
1153
 91
0
280
0
281
0
  0
CLASS
  1
TABLESTYLE
  2
AcDbTableStyle
  3
ObjectDBX Classes
 90
4095
 91
0
280
0
281
0
  0
CLASS
  1
MLEADERSTYLE
  2
AcDbMLeaderStyle
  3
ACDB_MLEADERSTYLE_CLASS
 90
4095
 91
0
280
0
281
0
  0
CLASS
  1
DICTIONARYVAR
  2
AcDbDictionaryVar
  3
ObjectDBX Classes
 90
0
 91
0
280
0
281
0
  0
CLASS
  1
CELLSTYLEMAP
  2
AcDbCellStyleMap
  3
ObjectDBX Classes
 90
1152
 91
0
280
0
281
0
  0
CLASS
  1
MENTALRAYRENDERSETTINGS
  2
AcDbMentalRayRenderSettings
  3
SCENEOE
 90
1024
 91
0
280
0
281
0
  0
CLASS
  1
ACDBDETAILVIEWSTYLE
  2
AcDbDetailViewStyle
  3
ObjectDBX Classes
 90
1025
 91
0
280
0
281
0
  0
CLASS
  1
ACDBSECTIONVIEWSTYLE
  2
AcDbSectionViewStyle
  3
ObjectDBX Classes
 90
1025
 91
0
280
0
281
0
  0
CLASS
  1
RASTERVARIABLES
  2
AcDbRasterVariables
  3
ISM
 90
0
 91
0
280
0
281
0
  0
CLASS
  1
ACDBPLACEHOLDER
  2
AcDbPlaceHolder
  3
ObjectDBX Classes
 90
0
 91
0
280
0
281
0
  0
CLASS
  1
LAYOUT
  2
AcDbLayout
  3
ObjectDBX Classes
 90
0
 91
0
280
0
281
0
  0
ENDSEC
  0
SECTION
  2
TABLES
  0
TABLE
  2
VPORT
  5
8
330
0
100
AcDbSymbolTable
 70
1
  0
VPORT
  5
23
330
8
100
AcDbSymbolTableRecord
100
AcDbViewportTableRecord
  2
*Active
 70
0
 10
0.0
 20
0.0
 11
1.0
 21
1.0
 12
0.0
 22
0.0
 13
0.0
 23
0.0
 14
0.5
 24
0.5
 15
0.5
 25
0.5
 16
0.0
 26
0.0
 36
1.0
 17
0.0
 27
0.0
 37
0.0
 40
1000.0
 41
1.34
 42
50.0
 43
0.0
 44
0.0
 50
0.0
 51
0.0
 71
0
 72
1000
 73
1
 74
3
 75
0
 76
0
 77
0
 78
0
281
0
 65
0
146
0.0
  0
ENDTAB
  0
TABLE
  2
LTYPE
  5
2
330
0
100
AcDbSymbolTable
 70
3
  0
LTYPE
  5
24
330
2
100
AcDbSymbolTableRecord
100
AcDbLinetypeTableRecord
  2
ByBlock
 70
0
  3

 72
65
 73
0
 40
0.0
  0
LTYPE
  5
25
330
2
100
AcDbSymbolTableRecord
100
AcDbLinetypeTableRecord
  2
ByLayer
 70
0
  3

 72
65
 73
0
 40
0.0
  0
LTYPE
  5
26
330
2
100
AcDbSymbolTableRecord
100
AcDbLinetypeTableRecord
  2
Continuous
 70
0
  3

 72
65
 73
0
 40
0.0
  0
ENDTAB
  0
TABLE
  2
LAYER
  5
1
330
0
100
AcDbSymbolTable
 70
3
  0
LAYER
  5
27
330
1
100
AcDbSymbolTableRecord
100
AcDbLayerTableRecord
  2
0
 70
0
 62
7
  6
Continuous
370
-3
390
13
347
21
  0
LAYER
  5
28
330
1
100
AcDbSymbolTableRecord
100
AcDbLayerTableRecord
  2
Defpoints
 70
0
 62
7
  6
Continuous
290
0
370
-3
390
13
347
21
  0
LAYER
  5
2F
330
1
100
AcDbSymbolTableRecord
100
AcDbLayerTableRecord
  2
TEXT_OUTLINE
 70
0
 62
7
  6
Continuous
370
-3
390
13
347
21
  0
ENDTAB
  0
TABLE
  2
STYLE
  5
5
330
0
100
AcDbSymbolTable
 70
1
  0
STYLE
  5
29
330
5
100
AcDbSymbolTableRecord
100
AcDbTextStyleTableRecord
  2
Standard
 70
0
 40
0.0
 41
1.0
 50
0.0
 71
0
 42
2.5
  3
txt
  4

  0
ENDTAB
  0
TABLE
  2
VIEW
  5
7
330
0
100
AcDbSymbolTable
 70
0
  0
ENDTAB
  0
TABLE
  2
UCS
  5
6
330
0
100
AcDbSymbolTable
 70
0
  0
ENDTAB
  0
TABLE
  2
APPID
  5
3
330
0
100
AcDbSymbolTable
 70
3
  0
APPID
  5
2A
330
3
100
AcDbSymbolTableRecord
100
AcDbRegAppTableRecord
  2
ACAD
 70
0
  0
APPID
  5
44
330
3
100
AcDbSymbolTableRecord
100
AcDbRegAppTableRecord
  2
HATCHBACKGROUNDCOLOR
 70
0
  0
APPID
  5
45
330
3
100
AcDbSymbolTableRecord
100
AcDbRegAppTableRecord
  2
EZDXF
 70
0
  0
ENDTAB
  0
TABLE
  2
DIMSTYLE
  5
4
330
0
100
AcDbSymbolTable
 70
1
100
AcDbDimStyleTable
  0
DIMSTYLE
105
2B
330
4
100
AcDbSymbolTableRecord
100
AcDbDimStyleTableRecord
  2
Standard
 70
0
 40
1.0
 41
2.5
 42
0.625
 43
3.75
 44
1.25
 45
0.0
 46
0.0
 47
0.0
 48
0.0
 49
2.5
140
2.5
141
2.5
142
0.0
143
0.03937007874
144
1.0
145
0.0
146
1.0
147
0.625
148
0.0
 69
0
 70
0
 71
0
 72
0
 73
0
 74
0
 75
0
 76
0
 77
1
 78
8
 79
3
170
0
171
3
172
1
173
0
174
0
175
0
176
0
177
0
178
0
179
2
271
2
272
2
273
2
274
3
275
0
276
0
277
2
278
44
279
0
280
0
281
0
282
0
283
0
284
8
285
0
286
0
288
0
289
3
290
0
371
-2
372
-2
  0
ENDTAB
  0
TABLE
  2
BLOCK_RECORD
  5
9
330
0
100
AcDbSymbolTable
 70
2
  0
BLOCK_RECORD
  5
17
330
9
100
AcDbSymbolTableRecord
100
AcDbBlockTableRecord
  2
*Model_Space
340
1A
 70
0
280
1
281
0
  0
BLOCK_RECORD
  5
1B
330
9
100
AcDbSymbolTableRecord
100
AcDbBlockTableRecord
  2
*Paper_Space
340
1E
 70
0
280
1
281
0
  0
ENDTAB
  0
ENDSEC
  0
SECTION
  2
BLOCKS
  0
BLOCK
  5
18
330
17
100
AcDbEntity
  8
0
100
AcDbBlockBegin
  2
*Model_Space
 70
0
 10
0.0
 20
0.0
 30
0.0
  3
*Model_Space
  1

  0
ENDBLK
  5
19
330
17
100
AcDbEntity
  8
0
100
AcDbBlockEnd
  0
BLOCK
  5
1C
330
1B
100
AcDbEntity
  8
0
100
AcDbBlockBegin
  2
*Paper_Space
 70
0
 10
0.0
 20
0.0
 30
0.0
  3
*Paper_Space
  1

  0
ENDBLK
  5
1D
330
1B
100
AcDbEntity
  8
0
100
AcDbBlockEnd
  0
ENDSEC
  0
SECTION
  2
ENTITIES
  0
LWPOLYLINE
  5
30
330
17
100
AcDbEntity
  8
TEXT_OUTLINE
100
AcDbPolyline
 90
181
 70
1
 10
160.56852764680673
 20
40.65573765002143
 10
160.06156236605233
 20
40.15640738855551
 10
159.5423810544364
 20
39.69830623124732
 10
159.0109837119589
 20
39.28143417809687
 10
158.46737033861984
 20
38.90579122910416
 10
157.91154093441924
 20
38.571377384269184
 10
157.62904522074584
 20
38.419631375910846
 10
157.3432728112945
 20
38.27762001714531
 10
156.75512182543937
 20
38.021083369052725
 10
156.14482928364768
 20
37.80119481354479
 10
155.51239518591944
 20
37.61795435062152
 10
154.85781953225464
 20
37.4713619802829
 10
154.18110232265326
 20
37.36141770252893
 10
153.48224355711534
 20
37.28812151735962
 10
152.76124323564085
 20
37.251473424774964
 10
152.39243999142738
 20
37.246892413201884
 10
152.06793576537723
 20
37.25090079832833
 10
151.42952090253968
 20
37.28296787933991
 10
150.8052308253858
 20
37.34710204136305
 10
150.1950655339156
 20
37.44330328439777
 10
149.59902502812903
 20
37.57157160844406
 10
149.01710930802616
 20
37.73190701350193
 10
148.44931837360699
 20
37.924309499571365
 10
147.89565222487144
 20
38.14877906665238
 10
147.3561108618196
 20
38.405315714744965
 10
146.83069428445137
 20
38.69391944384912
 10
146.31940249276684
 20
39.014590253964855
 10
145.822235486766
 20
39.36732814509216
 10
145.3391932664488
 20
39.75213311723103
 10
144.8702758318153
 20
40.16900517038148
 10
144.41548318286544
 20
40.61794430454351
 10
143.97481531959926
 20
41.0989505197171
 10
143.75977818259756
 20
41.35147878268324
 10
143.5503400597407
 20
41.61072745325225
 10
143.15141030191816
 20
42.14244292153343
 10
142.7790758612838
 20
42.69178255933883
 10
142.43333673783758
 20
43.258746366668454
 10
142.11419293157954
 20
43.84333434352229
 10
141.82164444250967
 20
44.445546489900345
 10
141.555691270628
 20
45.065382805802614
 10
141.31633341593445
 20
45.7028432912291
 10
141.1035708784291
 20
46.35792794617981
 10
140.9174036581119
 20
47.03063677065473
 10
140.7578317549829
 20
47.72096976465388
 10
140.62485516904204
 20
48.42892692817724
 10
140.51847390028937
 20
49.15450826122481
 10
140.43868794872483
 20
49.89771376379661
 10
140.3854973143485
 20
50.658543435892625
 10
140.35890199716033
 20
51.43699727751286
 10
140.3555775825118
 20
51.83283326189456
 10
140.35890199716033
 20
52.2296395299775
 10
140.3854973143485
 20
53.009747625776896
 10
140.43868794872483
 20
53.771849801087654
 10
140.51847390028937
 20
54.51594605590977
 10
140.62485516904204
 20
55.24203639024325
 10
140.7578317549829
 20
55.95012080408808
 10
140.9174036581119
 20
56.640199297444276
 10
141.1035708784291
 20
57.312271870311825
 10
141.31633341593445
 20
57.96633852269074
 10
141.555691270628
 20
58.60239925458101
 10
141.82164444250967
 20
59.22045406598264
 10
142.11419293157954
 20
59.82050295689563
 10
142.43333673783758
 20
60.40254592731997
 10
142.7790758612838
 20
60.966582977255676
 10
143.15141030191816
 20
61.51261410670274
 10
143.5503400597407
 20
62.04063931566116
 10
143.75977818259756
 20
62.297899699957135
 10
143.97481531959926
 20
62.54942586664166
 10
144.41548318286544
 20
63.02852332699314
 10
144.8702758318153
 20
63.47568095665452
 10
145.3391932664488
 20
63.890898755625805
 10
145.822235486766
 20
64.27417672390699
 10
146.31940249276684
 20
64.62551486149808
 10
146.83069428445137
 20
64.94491316839905
 10
147.3561108618196
 20
65.23237164460994
 10
147.89565222487144
 20
65.48789029013074
 10
148.44931837360699
 20
65.71146910496142
 10
149.01710930802616
 20
65.90310808910202
 10
149.59902502812903
 20
66.06280724255251
 10
150.1950655339156
 20
66.1905665653129
 10
150.8052308253858
 20
66.2863860573832
 10
151.42952090253968
 20
66.3502657187634
 10
152.06793576537723
 20
66.3822055494535
 10
152.39243999142738
 20
66.38619802828975
 10
152.76124323564085
 20
66.38161701671667
 10
153.48224355711534
 20
66.34496892413202
 10
154.18110232265326
 20
66.2716727389627
 10
154.85781953225464
 20
66.16172846120875
 10
155.51239518591944
 20
66.01513609087013
 10
156.14482928364768
 20
65.83189562794685
 10
156.75512182543937
 20
65.61200707243893
 10
157.3432728112945
 20
65.35547042434634
 10
157.62904522074584
 20
65.2134590655808
 10
157.91154093441924
 20
65.06257199689242
 10
158.46737033861984
 20
64.72892165398629
 10
159.0109837119589
 20
64.35276970370768
 10
159.5423810544364
 20
63.934116146056574
 10
160.06156236605233
 20
63.472960981033005
 10
160.56852764680673
 20
62.96930420863695
 10
161.06327689669956
 20
62.42314582886841
 10
161.54581011573086
 20
61.83448584172739
 10
161.7824957136734
 20
61.5242177453922
 10
161.7824957136734
 20
65.75096442348908
 10
170.94451885983716
 20
65.75096442348908
 10
170.94451885983716
 20
40.121731675953704
 10
170.94027983350304
 20
39.69530789554758
 10
170.9063676228301
 20
38.86150016408594
 10
170.83854320148416
 20
38.053078871758466
 10
170.7368065694653
 20
37.27004401856515
 10
170.6011577267735
 20
36.512395604506004
 10
170.43159667340873
 20
35.78013362958101
 10
170.22812340937102
 20
35.07325809379019
 10
169.99073793466033
 20
34.39176899713352
 10
169.71944024927672
 20
33.735666339611015
 10
169.41423035322012
 20
33.10495012122267
 10
169.0751082464906
 20
32.499620341968495
 10
168.7020739290881
 20
31.919677001848477
 10
168.29512740101268
 20
31.365120100862626
 10
167.85426866226427
 20
30.835949639010927
 10
167.37949771284295
 20
30.332165616293402
 10
166.87081455274864
 20
29.85376803271003
 10
166.60375589369912
 20
29.62408915559366
 10
166.32864865181637
 20
29.401122732935065
 10
165.75557682905597
 20
28.976424785013933
 10
165.15202855430243
 20
28.580040033620875
 10
164.51800382755576
 20
28.211968478755892
 10
163.85350264881592
 20
27.872210120418984
 10
163.15852501808297
 20
27.560764958610157
 10
162.43307093535685
 20
27.277632993329405
 10
161.67714040063763
 20
27.022814224576727
 10
160.89073341392523
 20
26.796308652352124
 10
160.0738499752197
 20
26.598116276655595
 10
159.22649008452103
 20
26.42823709748714
 10
158.34865374182922
 20
26.28667111484676
 10
157.44034094714425
 20
26.173418328734464
 10
156.50155170046617
 20
26.088478739150236
 10
155.53228600179492
 20
26.031852346094084
 10
154.53254385113055
 20
26.00353914956601
 10
154.02124410630094
 20
26.0
 10
153.35610667595373
 20
26.006362516073725
 10
152.04186535576514
 20
26.057262644663524
 10
150.74900208958425
 20
26.15906290184312
 10
149.4775168774111
 20
26.311763287612514
 10
148.8497910415774
 20
26.40720102871839
 10
148.22639171667385
 20
26.51574555293613
 10
146.97730256108017
 20
26.773300203600513
 10
145.72515939777114
 20
27.08480899057008
 10
144.4699622267467
 20
27.450271913844837
 10
143.84121838834122
 20
27.653236176596657
 10
143.84121838834122
 20
34.75482211744535
 10
144.43624089155597
 20
34.421680775825116
 10
145.61712387483928
 20
33.821059258465496
 10
146.78579082726108
 20
33.30798596228033
 10
147.9422417488213
 20
32.88246088726961
 10
148.5158861980283
 20
32.70252893270467
 10
149.0902941491642
 20
32.54410228246893
 10
150.24063705529363
 20
32.29061964209173
 10
151.39301596656668
 20
32.12163121517359
 10
152.54743088298332
 20
32.03713700171453
 10
153.12540184312047
 20
32.02657522503215
 10
153.6759503589799
 20
32.034242056900986
 10
154.72092999892845
 20
32.09557671185169
 10
155.69108644985002
 20
32.21824602175311
 10
156.58641971174455
 20
32.40224998660523
 10
157.40692978461212
 20
32.64758860640806
 10
158.15261666845265
 20
32.95426188116159
 10
158.8234803632662
 20
33.32226981086584
 10
159.41952086905275
 20
33.75161239552079
 10
159.6894824260609
 20
33.98928418345478
 10
159.94293325385772
 20
34.2432440125375
 10
160.40077991052297
 20
34.80289092638234
 10
160.7932199019503
 20
35.431507514466354
 10
161.12025322813977
 20
36.12909377678954
 10
161.38187988909132
 20
36.89564971335191
 10
161.578099884805
 20
37.73117532415345
 10
161.70891321528077
 20
38.63567060919417
 10
161.77431988051868
 20
39.609135568474066
 10
161.7824957136734
 20
40.121731675953704
 10
161.7824957136734
 20
42.08444063437634
 10
161.54581011573086
 20
41.77808548542649
 10
161.06327689669956
 20
41.196297015645094
  0
LWPOLYLINE
  5
31
330
17
100
AcDbEntity
  8
TEXT_OUTLINE
100
AcDbPolyline
 90
72
 70
1
 10
154.127657187634
 20
59.61772161648093
 10
153.53797919792115
 20
59.42150162076725
 10
152.98723980657954
 20
59.15987495981569
 10
152.4754390136091
 20
58.83284163362623
 10
152.00257681900987
 20
58.440401642198886
 10
151.56865322278185
 20
57.982554985533646
 10
151.36629339905704
 20
57.72910415773682
 10
151.17595873071156
 20
57.461751232318896
 10
150.83212836208747
 20
56.88657977925418
 10
150.53741661755254
 20
56.257454189884264
 10
150.29182349710675
 20
55.57437446420917
 10
150.09534900075013
 20
54.837340602228885
 10
149.94799312848266
 20
54.04635260394342
 10
149.84975588030434
 20
53.20141046935276
 10
149.8006372562152
 20
52.30251419845692
 10
149.79449742820407
 20
51.83283326189456
 10
149.80044638073298
 20
51.34960016609515
 10
149.84803800096446
 20
50.4277988373339
 10
149.94322124142738
 20
49.56555065902271
 10
150.08599610212175
 20
48.76285563116159
 10
150.27636258304761
 20
48.01971375375053
 10
150.5143206842049
 20
47.33612502678954
 10
150.79987040559368
 20
46.71208945027861
 10
151.1330117472139
 20
46.14760702421774
 10
151.31742927561083
 20
45.887698242606085
 10
151.5142537103515
 20
45.64312312473211
 10
151.94054228729107
 20
45.201310008572655
 10
152.41035047417492
 20
44.82261305186455
 10
152.92367827100304
 20
44.5070322546078
 10
153.48052567777543
 20
44.2545676168024
 10
154.0808926944921
 20
44.06521913844835
 10
154.72477932115305
 20
43.93898681954565
 10
155.41218555775828
 20
43.8758706600943
 10
155.77220852979
 20
43.867981140162875
 10
156.12354666738108
 20
43.876125160737246
 10
156.7964463673382
 20
43.94127732533219
 10
157.42964396699531
 20
44.07158165452207
 10
158.02313946635238
 20
44.2670381483069
 10
158.57693286540936
 20
44.52764680668667
 10
159.09102416416633
 20
44.853407629661376
 10
159.56541336262325
 20
45.24432061723103
 10
160.00010046078015
 20
45.70038576939562
 10
160.20255572224607
 20
45.952850407201026
 10
160.39387658058297
 20
46.22013970745821
 10
160.7394884537077
 20
46.79480215923703
 10
161.03572720210033
 20
47.422909746035145
 10
161.28259282576084
 20
48.10446246785255
 10
161.48008532468927
 20
48.83946032468924
 10
161.62820469888558
 20
49.62790331654522
 10
161.72695094834978
 20
50.46979144342048
 10
161.7763240730819
 20
51.36512470531505
 10
161.7824957136734
 20
51.83283326189456
 10
161.7763240730819
 20
52.30251419845692
 10
161.72695094834978
 20
53.20141046935276
 10
161.62820469888558
 20
54.04635260394342
 10
161.48008532468927
 20
54.837340602228885
 10
161.28259282576084
 20
55.57437446420917
 10
161.03572720210033
 20
56.257454189884264
 10
160.7394884537077
 20
56.88657977925418
 10
160.39387658058297
 20
57.461751232318896
 10
160.20255572224607
 20
57.72910415773682
 10
160.00010046078015
 20
57.982554985533646
 10
159.56541336262325
 20
58.440401642198886
 10
159.09102416416633
 20
58.83284163362623
 10
158.57693286540936
 20
59.15987495981569
 10
158.02313946635238
 20
59.42150162076725
 10
157.42964396699531
 20
59.61772161648093
 10
156.7964463673382
 20
59.7485349469567
 10
156.12354666738108
 20
59.8139416121946
 10
155.77220852979
 20
59.822117445349335
 10
155.4238289621732
 20
59.8139416121946
 10
154.756273775718
 20
59.7485349469567
  0
LWPOLYLINE
  5
32
330
17
100
AcDbEntity
  8
TEXT_OUTLINE
100
AcDbPolyline
 90
94
 70
1
 10
77.02563759108445
 20
60.29039862837548
 10
77.00731354479213
 20
57.08572653236177
 10
76.9889894984998
 20
54.16813116159451
 10
76.98288148306902
 20
52.41920274324904
 10
76.99407951135878
 20
50.82093870552936
 10
77.05286915987999
 20
48.87400878696956
 10
77.12005732961853
 20
47.876366266609516
 10
77.16204993570511
 20
47.46763823403343
 10
77.21078680882984
 20
47.10179355979425
 10
77.33192911487357
 20
46.447217906129445
 10
77.48462950064297
 20
45.895460512216026
 10
77.66888796613803
 20
45.44652137805401
 10
77.7728514787827
 20
45.260608658379766
 10
77.91677159237035
 20
45.044919363480496
 10
78.23744240248608
 20
44.650952368195455
 10
78.60188732318905
 20
44.30686749892842
 10
79.01010635447922
 20
44.01266475567938
 10
79.23063116159453
 20
43.884269181311616
 10
79.4608269931419
 20
43.771652646806686
 10
79.94641421988857
 20
43.5914661915988
 10
80.46559553150452
 20
43.47134188812687
 10
81.01837092798972
 20
43.41127973639091
 10
81.30735640805831
 20
43.403771967423914
 10
81.65888542113161
 20
43.412329551543074
 10
82.33331212494643
 20
43.48079022449635
 10
82.96956373231892
 20
43.61771157040291
 10
83.56764024324904
 20
43.82309358926275
 10
84.12754165773684
 20
44.09693628107586
 10
84.64926797578227
 20
44.439239645842264
 10
85.13281919738536
 20
44.85000368356194
 10
85.5781953225461
 20
45.32922839423489
 10
85.78656772396059
 20
45.594513501928844
 10
85.98380572224605
 20
45.875005023039
 10
86.34010662237463
 20
46.475881041041575
 10
86.64550739391343
 20
47.12994769342048
 10
86.90000803686242
 20
47.837204980175734
 10
87.10360855122161
 20
48.59765290130733
 10
87.25630893699102
 20
49.411291456815256
 10
87.35810919417061
 20
50.27812064669953
 10
87.40900932276041
 20
51.19814047096013
 10
87.41537183883413
 20
51.67809687098157
 10
87.41537183883413
 20
65.75096442348908
 10
96.52853086155166
 20
65.75096442348908
 10
96.52853086155166
 20
37.246892413201884
 10
87.41537183883413
 20
37.246892413201884
 10
87.41537183883413
 20
41.36776682383198
 10
87.1568628107587
 20
41.06134804972139
 10
86.63411849014146
 20
40.479050578654096
 10
86.10373915023577
 20
39.937473210458634
 10
85.56572479104159
 20
39.43661594513502
 10
85.02007541255895
 20
38.97647878268324
 10
84.46679101478784
 20
38.5570617231033
 10
83.90587159772826
 20
38.1783647663952
 10
83.33731716138021
 20
37.84038791255894
 10
83.05017681097301
 20
37.68666952421775
 10
82.76026876607374
 20
37.54367197546078
 10
82.16957277378913
 20
37.28535382286755
 10
81.56437024485642
 20
37.06393826350193
 10
80.94466117927563
 20
36.87942529736391
 10
80.31044557704674
 20
36.731814924453495
 10
79.66172343816974
 20
36.62110714477068
 10
78.99849476264468
 20
36.54730195831547
 10
78.32075955047151
 20
36.51039936508787
 10
77.9764519931419
 20
36.505786540934416
 10
77.36775008036864
 20
36.517620820831546
 10
76.20570014466354
 20
36.61229506000857
 10
75.38259734649594
 20
36.745430708851266
 10
74.8569262684848
 20
36.86377350782254
 10
74.34970648708746
 20
37.00578486658809
 10
73.86093800230391
 20
37.171464785147876
 10
73.39062081413418
 20
37.36081326350193
 10
72.93875492257824
 20
37.57383030165023
 10
72.5053403276361
 20
37.8105158995928
 10
72.09037702930777
 20
38.07087005732962
 10
71.69386502759325
 20
38.354892774860694
 10
71.31580432249251
 20
38.66258405218603
 10
70.9561949140056
 20
38.99394388930561
 10
70.61503680213247
 20
39.34897228621946
 10
70.45137698242608
 20
39.53536219459923
 10
70.29254472179063
 20
39.72739883599443
 10
69.99000708248501
 20
40.12760109703172
 10
69.7076386191331
 20
40.5493086623982
 10
69.4454393317349
 20
40.99252153209387
 10
69.20340922029041
 20
41.45723970611873
 10
68.98154828479963
 20
41.94346318447278
 10
68.68657408647665
 20
42.71312084762109
 10
68.36386727121733
 20
43.81459963030433
 10
68.12183715977284
 20
45.00209963030433
 10
67.96048375214318
 20
46.275620847621084
 10
67.87980704832835
 20
47.6351632822546
 10
67.8697224603515
 20
48.34719245606515
 10
67.8697224603515
 20
65.75096442348908
 10
77.03174560651523
 20
65.75096442348908
 10
77.03174560651523
 20
62.90055722246035
  0
LWPOLYLINE
  5
33
330
17
100
AcDbEntity
  8
TEXT_OUTLINE
100
AcDbPolyline
 90
142
 70
1
 10
196.9801573215817
 20
41.154399847299615
 10
196.5075496276254
 20
40.54894281772396
 10
196.02043539702103
 20
39.98751439937848
 10
195.51881462976857
 20
39.47011459226318
 10
195.002687325868
 20
38.99674339637805
 10
194.47205348531935
 20
38.567400811723104
 10
193.92691310812262
 20
38.182086838298325
 10
193.3672661942778
 20
37.84080147610373
 10
193.08200278611233
 20
37.68666952421775
 10
192.7920629286327
 20
37.54367197546078
 10
192.18889640484358
 20
37.28535382286755
 10
191.55468080261468
 20
37.06393826350193
 10
190.88941612194603
 20
36.87942529736391
 10
190.19310236283758
 20
36.731814924453495
 10
189.46573952528937
 20
36.62110714477068
 10
188.70732760930136
 20
36.54730195831547
 10
187.9178666148736
 20
36.51039936508787
 10
187.51149271324476
 20
36.505786540934416
 10
186.96422089316334
 20
36.51587112891127
 10
185.90880672685387
 20
36.5965478327261
 10
184.90556519234894
 20
36.757901240355764
 10
183.95449628964855
 20
36.99993135180026
 10
183.0556000187527
 20
37.32263816705958
 10
182.2088763796614
 20
37.726021686133734
 10
181.41432537237466
 20
38.21008190902272
 10
180.67194699689244
 20
38.774818835726535
 10
180.32032254607805
 20
39.087441063009
 10
179.98600413898416
 20
39.41714664594942
 10
179.3820741132662
 20
40.11244240248607
 10
178.86441980550796
 20
40.85558427989713
 10
178.4330412157094
 20
41.646572278182596
 10
178.08793834387058
 20
42.48540639734248
 10
177.82911118999147
 20
43.37208663737677
 10
177.65655975407205
 20
44.306612998285466
 10
177.57028403611233
 20
45.28898548006858
 10
177.55949957136735
 20
45.79811401628804
 10
177.56286375174136
 20
46.10904222366588
 10
177.58977719473322
 20
46.715199130009644
 10
177.64360408071693
 20
47.30042335847085
 10
177.7243444096925
 20
47.8647149090495
 10
177.8319981816599
 20
48.40807378174561
 10
177.9665653966192
 20
48.93049997655915
 10
178.12804605457032
 20
49.43199349349014
 10
178.3164401555133
 20
49.912554332538576
 10
178.53174769944818
 20
50.37218249370446
 10
178.77396868637487
 20
50.81087797698778
 10
179.04310311629342
 20
51.22864078238855
 10
179.33915098920383
 20
51.625470909906774
 10
179.66211230510612
 20
52.00136835954243
 10
180.01198706400024
 20
52.35633313129554
 10
180.38877526588624
 20
52.6903652251661
 10
180.79247691076407
 20
53.00346464115409
 10
181.00442027432493
 20
53.15216459494213
 10
181.2240702354801
 20
53.29646645949421
 10
181.68637065339695
 20
53.571327153879125
 10
182.17933839878913
 20
53.82786380197171
 10
182.7029734716567
 20
54.066076403771966
 10
183.2572758719996
 20
54.285964959279895
 10
183.84224559981786
 20
54.4875294684955
 10
184.77720143056155
 20
54.75551864552079
 10
186.13114485105018
 20
55.04870338619803
 10
187.60775758144024
 20
55.26859194170596
 10
189.2070396217317
 20
55.41518431204458
 10
190.92899097192458
 20
55.488480497213885
 10
191.83596763823405
 20
55.49764252036005
 10
197.21102121731678
 20
55.49764252036005
 10
197.21102121731678
 20
56.20617231033005
 10
197.20434057543937
 20
56.47241179543506
 10
197.1508954404201
 20
56.97759557168881
 10
197.04400517038152
 20
57.44638575600086
 10
196.88366976532365
 20
57.878782348371196
 10
196.6698892252465
 20
58.27478534879983
 10
196.40266355015004
 20
58.63439475728675
 10
196.0819927400343
 20
58.95761057383198
 10
195.7078767948993
 20
59.24443279843549
 10
195.50077689669956
 20
59.37419631375911
 10
195.28053840280757
 20
59.496483872696096
 10
194.79520567670383
 20
59.71739043077582
 10
194.2500652995071
 20
59.90673890912988
 10
193.64511727121734
 20
60.06452930775825
 10
192.98036159183457
 20
60.19076162666095
 10
192.2557982613588
 20
60.285435865837975
 10
191.47142727979
 20
60.34855202528933
 10
190.6272486471282
 20
60.380110105015
 10
190.18273146163742
 20
60.384054864980705
 10
189.45804088084014
 20
60.374892841834544
 10
188.04607131375914
 20
60.30159665666523
 10
186.68398387269613
 20
60.155004286326616
 10
185.3717785576511
 20
59.93511573081869
 10
184.73438169738537
 20
59.79768538362623
 10
184.11072787183886
 20
59.64193099014145
 10
182.89625080368626
 20
59.275450064294894
 10
181.7255478461209
 20
58.83567295327904
 10
180.59861899914276
 20
58.32259965709387
 10
180.0515698671239
 20
58.038576939562795
 10
180.0515698671239
 20
64.98542648949851
 10
180.78478621945996
 20
65.15912317831119
 10
182.25274592798974
 20
65.47368597299615
 10
183.72274164166313
 20
65.74447465709387
 10
185.1947733604801
 20
65.97148923060438
 10
185.93155272181744
 20
66.06858122588942
 10
186.67049533861984
 20
66.1544751928847
 10
188.14761707029578
 20
66.29190554007715
 10
189.62372079939993
 20
66.3835257715388
 10
191.0988065259323
 20
66.42933588726962
 10
191.83596763823405
 20
66.43506215173596
 10
192.78325084387058
 20
66.42319605925847
 10
194.14130604037186
 20
66.36089907375161
 10
195.00476309673707
 20
66.28970251888663
 10
195.83468969339373
 20
66.19477377906665
 10
196.63108583034187
 20
66.0761128542917
 10
197.39395150758148
 20
65.93371974456173
 10
198.12328672511254
 20
65.76759444987677
 10
198.81909148293508
 20
65.57773697023683
 10
199.4813657810491
 20
65.36414730564188
 10
200.1101096194546
 20
65.12682545609195
 10
200.70532299815156
 20
64.86577142158701
 10
201.26700591713998
 20
64.5809852021271
 10
201.79515837641986
 20
64.27246679771217
 10
202.28978037599123
 20
63.94021620834226
 10
202.75087191585408
 20
63.58423343401736
 10
202.9688437633948
 20
63.397342477496785
 10
203.17978503067405
 20
63.203762925953704
 10
203.58157792072979
 20
62.79427139144878
 10
203.9565846181151
 20
62.355003281718815
 10
204.30480512283006
 20
61.88595859676382
 10
204.62623943487466
 20
61.3871373365838
 10
204.92088755424885
 20
60.85853950117873
 10
205.18874948095265
 20
60.30016509054865
 10
205.4298252149861
 20
59.71201410469353
 10
205.64411475634915
 20
59.09408654361337
 10
205.83161810504183
 20
58.446382407308185
 10
205.9923352610641
 20
57.76890169577796
 10
206.126266224416
 20
57.06164440902271
 10
206.23341099509753
 20
56.32461054704243
 10
206.3137695731087
 20
55.55780010983712
 10
206.36734195844946
 20
54.761213097406774
 10
206.39412815111984
 20
53.934849509751395
 10
206.39747642520362
 20
53.51050150021431
 10
206.39747642520362
 20
37.246892413201884
 10
197.21102121731678
 20
37.246892413201884
 10
197.21102121731678
 20
41.47363909129876
  0
LWPOLYLINE
  5
34
330
17
100
AcDbEntity
  8
TEXT_OUTLINE
100
AcDbPolyline
 90
56
 70
1
 10
190.24677018591944
 20
49.88822566170167
 10
189.71028283058297
 20
49.76708335565795
 10
189.21782408647667
 20
49.615655473103295
 10
188.76939395360054
 20
49.43394201403772
 10
188.3649924319546
 20
49.22194297846121
 10
188.17930240034295
 20
49.10458636948135
 10
188.00573296185172
 20
48.9808354318474
 10
187.69218816973856
 20
48.71157375160737
 10
187.4234354907844
 20
48.41329899807115
 10
187.19947492498932
 20
48.086011171238745
 10
187.0203064723532
 20
47.72971027111016
 10
186.88593013287615
 20
47.344396297685385
 10
186.79634590655812
 20
46.93006925096442
 10
186.7515537933991
 20
46.486729130947275
 10
186.74595477925422
 20
46.25417916845263
 10
186.75047216566657
 20
46.04125756804543
 10
186.7866112569653
 20
45.6327840361123
 10
186.85888943956283
 20
45.247470062687526
 10
186.9673067134591
 20
44.88531564777111
 10
187.11186307865412
 20
44.54632079136305
 10
187.29255853514792
 20
44.23048549346335
 10
187.50939308294045
 20
43.937809754072006
 10
187.76236672203174
 20
43.668293573189025
 10
187.90240570081443
 20
43.54222031718817
 10
188.0514794524218
 20
43.423877518216884
 10
188.37062325867984
 20
43.21009697813973
 10
188.71776213566227
 20
43.02685651521646
 10
189.09289608336908
 20
42.874156129447066
 10
189.49602510180029
 20
42.751995820831546
 10
189.92714919095587
 20
42.660375589369906
 10
190.38626835083585
 20
42.59929543506215
 10
190.87338258144024
 20
42.56875535790827
 10
191.12743784826407
 20
42.56493784826404
 10
191.4449592129233
 20
42.572127491427345
 10
192.0611052695028
 20
42.62964463673382
 10
192.65205576243036
 20
42.74467892734676
 10
193.21781069170598
 20
42.91723036326618
 10
193.75837005732964
 20
43.14729894449207
 10
194.27373385930136
 20
43.43488467102443
 10
194.76390209762113
 20
43.77998754286326
 10
195.22887477228892
 20
44.18260756000857
 10
195.45191277325335
 20
44.40548649807115
 10
195.66492981140166
 20
44.64019971603086
 10
196.04973478354054
 20
45.131385956922415
 10
196.37956761680243
 20
45.65158527111016
 10
196.65442831118733
 20
46.200797658594084
 10
196.87431686669527
 20
46.779023119374195
 10
197.0392332833262
 20
47.38626165345049
 10
197.1491775610802
 20
48.02251326082297
 10
197.20414969995716
 20
48.68777794149164
 10
197.21102121731678
 20
49.03129018431204
 10
197.21102121731678
 20
50.07372481783111
 10
192.47120124303476
 20
50.07372481783111
 10
192.12040391930992
 20
50.06993912076725
 10
191.45183073028292
 20
50.03965354425632
 10
190.8272861524861
 20
49.97908239123446
  0
LWPOLYLINE
  5
35
330
17
100
AcDbEntity
  8
TEXT_OUTLINE
100
AcDbPolyline
 90
136
 70
1
 10
257.20118903704997
 20
66.24488654629234
 10
258.0199176054168
 20
66.12069023253322
 10
258.81351423529253
 20
65.96544484033434
 10
259.58197892667704
 20
65.77915036969567
 10
260.3253116795703
 20
65.56180682061724
 10
261.04351249397234
 20
65.31341419309902
 10
261.7365813698832
 20
65.03397248714103
 10
262.40451830730285
 20
64.72348170274326
 10
263.04732330623125
 20
64.3819418399057
 10
263.66499636666845
 20
64.00935289862838
 10
264.25753748861445
 20
63.60571487891127
 10
264.82494667206925
 20
63.17102778075439
 10
265.3672239170328
 20
62.705291604157736
 10
265.62893806258035
 20
62.460780111444485
 10
265.88347051810973
 20
62.209914055802614
 10
266.36829424292756
 20
61.69028736806151
 10
266.8207963860909
 20
61.14680124504393
 10
267.2409769475996
 20
60.57945568674989
 10
267.6288359274539
 20
59.98825069317938
 10
267.9843733256537
 20
59.3731862643324
 10
268.3075891421989
 20
58.734262400208955
 10
268.59848337708956
 20
58.07147910080904
 10
268.8570560303258
 20
57.38483636613266
 10
269.0833071019074
 20
56.67433419617981
 10
269.27723659183454
 20
55.93997259095049
 10
269.43884450010717
 20
55.18175155044471
 10
269.5681308267252
 20
54.39967107466245
 10
269.6650955716888
 20
53.59373116360373
 10
269.72973873499785
 20
52.763931817268535
 10
269.76206031665237
 20
51.91027303565688
 10
269.7661005143592
 20
51.474496356622375
 10
269.76206031665237
 20
51.03821067630197
 10
269.72973873499785
 20
50.18353389211851
 10
269.6650955716888
 20
49.35271654321153
 10
269.5681308267252
 20
48.54575862958101
 10
269.43884450010717
 20
47.76266015122696
 10
269.27723659183454
 20
47.003421108149375
 10
269.0833071019074
 20
46.26804150034826
 10
268.8570560303258
 20
45.55652132782362
 10
268.59848337708956
 20
44.86886059057544
 10
268.3075891421989
 20
44.20505928860373
 10
267.9843733256537
 20
43.56511742190848
 10
267.6288359274539
 20
42.949034990489714
 10
267.2409769475996
 20
42.3568119943474
 10
266.8207963860909
 20
41.78844843348157
 10
266.36829424292756
 20
41.2439443078922
 10
265.88347051810973
 20
40.72329961757929
 10
265.62893806258035
 20
40.47192456065152
 10
265.3672239170328
 20
40.227914116079084
 10
264.82494667206925
 20
39.76313231689348
 10
264.25753748861445
 20
39.329335970986925
 10
263.66499636666845
 20
38.92652507835941
 10
263.04732330623125
 20
38.55469963901093
 10
262.40451830730285
 20
38.213859652941494
 10
261.7365813698832
 20
37.90400512015109
 10
261.04351249397234
 20
37.62513604063973
 10
260.3253116795703
 20
37.377252414407415
 10
259.58197892667704
 20
37.16035424145414
 10
258.81351423529253
 20
36.974441521779895
 10
258.0199176054168
 20
36.819514255384696
 10
257.20118903704997
 20
36.695572442268535
 10
256.3573285301918
 20
36.60261608243142
 10
255.48833608484247
 20
36.54064517587334
 10
254.59421170100197
 20
36.5096597225943
 10
254.13772503214747
 20
36.505786540934416
 10
253.6797113594353
 20
36.5096597225943
 10
252.78253296787935
 20
36.54064517587334
 10
251.9104865148146
 20
36.60261608243142
 10
251.06357200024112
 20
36.695572442268535
 10
250.24178942415884
 20
36.819514255384696
 10
249.44513878656775
 20
36.974441521779895
 10
248.67362008746787
 20
37.16035424145414
 10
247.9272333268592
 20
37.377252414407415
 10
247.20597850474178
 20
37.62513604063973
 10
246.50985562111555
 20
37.90400512015109
 10
245.83886467598052
 20
38.213859652941494
 10
245.1930056693367
 20
38.55469963901093
 10
244.57227860118414
 20
38.92652507835941
 10
243.97668347152273
 20
39.329335970986925
 10
243.40622028035258
 20
39.76313231689348
 10
242.86088902767364
 20
40.227914116079084
 10
242.59764787826836
 20
40.47192456065152
 10
242.34161227831657
 20
40.72329961757929
 10
241.85392542126556
 20
41.2439443078922
 10
241.3987510213513
 20
41.78844843348157
 10
240.97608907857375
 20
42.3568119943474
 10
240.58593959293296
 20
42.949034990489714
 10
240.22830256442887
 20
43.56511742190848
 10
239.90317799306155
 20
44.20505928860373
 10
239.61056587883093
 20
44.86886059057544
 10
239.35046622173707
 20
45.55652132782362
 10
239.12287902177994
 20
46.26804150034826
 10
238.9278042789595
 20
47.003421108149375
 10
238.76524199327585
 20
47.76266015122696
 10
238.63519216472892
 20
48.54575862958101
 10
238.53765479331872
 20
49.35271654321153
 10
238.47262987904526
 20
50.18353389211851
 10
238.44011742190852
 20
51.03821067630197
 10
238.43605336476642
 20
51.474496356622375
 10
238.44011742190852
 20
51.91027303565688
 10
238.47262987904526
 20
52.763931817268535
 10
238.53765479331872
 20
53.59373116360373
 10
238.63519216472892
 20
54.39967107466245
 10
238.76524199327585
 20
55.18175155044471
 10
238.9278042789595
 20
55.93997259095049
 10
239.12287902177994
 20
56.67433419617981
 10
239.35046622173707
 20
57.38483636613266
 10
239.61056587883093
 20
58.07147910080904
 10
239.90317799306155
 20
58.734262400208955
 10
240.22830256442887
 20
59.3731862643324
 10
240.58593959293296
 20
59.98825069317938
 10
240.97608907857375
 20
60.57945568674989
 10
241.3987510213513
 20
61.14680124504393
 10
241.85392542126556
 20
61.69028736806151
 10
242.34161227831657
 20
62.209914055802614
 10
242.59764787826836
 20
62.460780111444485
 10
242.86088902767364
 20
62.705291604157736
 10
243.40622028035258
 20
63.17102778075439
 10
243.97668347152273
 20
63.60571487891127
 10
244.57227860118414
 20
64.00935289862838
 10
245.1930056693367
 20
64.3819418399057
 10
245.83886467598052
 20
64.72348170274326
 10
246.50985562111555
 20
65.03397248714103
 10
247.20597850474178
 20
65.31341419309902
 10
247.9272333268592
 20
65.56180682061724
 10
248.67362008746787
 20
65.77915036969567
 10
249.44513878656775
 20
65.96544484033434
 10
250.24178942415884
 20
66.12069023253322
 10
251.06357200024112
 20
66.24488654629234
 10
251.9104865148146
 20
66.33803378161166
 10
252.78253296787935
 20
66.40013193849121
 10
253.6797113594353
 20
66.43118101693099
 10
254.13772503214747
 20
66.43506215173596
 10
254.59421170100197
 20
66.43118101693099
 10
255.48833608484247
 20
66.40013193849121
 10
256.3573285301918
 20
66.33803378161166
  0
LWPOLYLINE
  5
36
330
17
100
AcDbEntity
  8
TEXT_OUTLINE
100
AcDbPolyline
 90
72
 70
1
 10
251.76275684472787
 20
59.50364170327904
 10
251.18554938651954
 20
59.231835016609516
 10
250.6533885421132
 20
58.89207665827261
 10
250.1662743115088
 20
58.484366628268326
 10
249.72420669470642
 20
58.00870492659666
 10
249.52006536648096
 20
57.745392198885554
 10
249.32775831815263
 20
57.46607774324904
 10
248.98036494052724
 20
56.86240221817402
 10
248.68259918827692
 20
56.19866454136305
 10
248.43446106140166
 20
55.474864712816114
 10
248.23595055990145
 20
54.691002732533214
 10
248.08706768377627
 20
53.84707860051436
 10
247.98781243302616
 20
52.94309231675954
 10
247.9381848076511
 20
51.97904388126875
 10
247.93198135447923
 20
51.474496356622375
 10
247.9381848076511
 20
50.96991701939562
 10
247.98781243302616
 20
50.0056140832619
 10
248.08706768377627
 20
49.10111879822117
 10
248.23595055990145
 20
48.256431164273465
 10
248.43446106140166
 20
47.47155118141877
 10
248.68259918827692
 20
46.74647884965709
 10
248.98036494052724
 20
46.081214168988424
 10
249.32775831815263
 20
45.47575713941277
 10
249.52006536648096
 20
45.195456493784825
 10
249.72420669470642
 20
44.93214376607372
 10
250.1662743115088
 20
44.45648206440205
 10
250.6533885421132
 20
44.04877203439777
 10
251.18554938651954
 20
43.70901367606086
 10
251.76275684472787
 20
43.43720698939134
 10
252.38501091673814
 20
43.2333519743892
 10
253.05231160255042
 20
43.097448631054434
 10
253.7646589021646
 20
43.02949695938705
 10
254.13772503214747
 20
43.021003000428635
 10
254.50481039702103
 20
43.02949695938705
 10
255.2059596683455
 20
43.097448631054434
 10
255.8630803284398
 20
43.2333519743892
 10
256.4761723773039
 20
43.43720698939134
 10
257.0452358149379
 20
43.70901367606086
 10
257.5702706413416
 20
44.04877203439777
 10
258.0512768565152
 20
44.45648206440205
 10
258.4882544604586
 20
44.93214376607372
 10
258.69023253321905
 20
45.195456493784825
 10
258.88155339155594
 20
45.47575713941277
 10
259.2271652646807
 20
46.081214168988424
 10
259.52340401307333
 20
46.74647884965709
 10
259.7702696367338
 20
47.47155118141877
 10
259.96776213566227
 20
48.256431164273465
 10
260.1158815098586
 20
49.10111879822117
 10
260.21462775932275
 20
50.0056140832619
 10
260.2640008840549
 20
50.96991701939562
 10
260.27017252464634
 20
51.474496356622375
 10
260.2640008840549
 20
51.97904388126875
 10
260.21462775932275
 20
52.94309231675954
 10
260.1158815098586
 20
53.84707860051436
 10
259.96776213566227
 20
54.691002732533214
 10
259.7702696367338
 20
55.474864712816114
 10
259.52340401307333
 20
56.19866454136305
 10
259.2271652646807
 20
56.86240221817402
 10
258.88155339155594
 20
57.46607774324904
 10
258.69023253321905
 20
57.745392198885554
 10
258.4882544604586
 20
58.00870492659666
 10
258.0512768565152
 20
58.484366628268326
 10
257.5702706413416
 20
58.89207665827261
 10
257.0452358149379
 20
59.231835016609516
 10
256.4761723773039
 20
59.50364170327904
 10
255.8630803284398
 20
59.707496718281185
 10
255.2059596683455
 20
59.843400061615945
 10
254.50481039702103
 20
59.911351733283325
 10
254.13772503214747
 20
59.91984569224174
 10
253.7646589021646
 20
59.911351733283325
 10
253.05231160255042
 20
59.843400061615945
 10
252.38501091673814
 20
59.707496718281185
  0
LWPOLYLINE
  5
37
330
17
100
AcDbEntity
  8
TEXT_OUTLINE
100
AcDbPolyline
 90
91
 70
1
 10
124.77403021860268
 20
50.52978996999571
 10
124.76385019288473
 20
52.23138126875268
 10
124.71040505786543
 20
54.24740811187312
 10
124.64932490355768
 20
55.23385260394342
 10
124.6111498071153
 20
55.619802828975565
 10
124.56661219459924
 20
55.9584159344192
 10
124.45463191170167
 20
56.566163469781394
 10
124.31211155165023
 20
57.08127277111016
 10
124.13905111444494
 20
57.503743838405484
 10
124.04106836690956
 20
57.68024003429061
 10
123.90071126232318
 20
57.89796533433347
 10
123.58411246249467
 20
58.2960043399057
 10
123.21966754179171
 20
58.644161219459924
 10
122.80737650021433
 20
58.942435972996144
 10
122.58328868409774
 20
59.072867552507496
 10
122.35118409772826
 20
59.18930159665666
 10
121.8625428632662
 20
59.37559606729533
 10
121.34132554650665
 20
59.499792381054434
 10
120.78753214744965
 20
59.561890537933984
 10
120.4984194170596
 20
59.56965280754393
 10
120.1468904039863
 20
59.56103159826404
 10
119.47246370017147
 20
59.49206192402486
 10
118.83621209279899
 20
59.354122575546505
 10
118.23813558186885
 20
59.14721355282897
 10
117.67823416738106
 20
58.87133485587227
 10
117.15650784933564
 20
58.526486484676376
 10
116.67295662773255
 20
58.11266843924132
 10
116.22758050257181
 20
57.629880719567076
 10
116.01920810115732
 20
57.36262323189027
 10
115.82197010287186
 20
57.08114552078868
 10
115.46566920274326
 20
56.478487998285466
 10
115.16026843120447
 20
55.82289434204886
 10
114.90576778825547
 20
55.11436455207887
 10
114.70216727389628
 20
54.35289862837548
 10
114.54946688812689
 20
53.538496570938705
 10
114.4476666309473
 20
52.671158379768535
 10
114.3967665023575
 20
51.750884054864976
 10
114.39040398628377
 20
51.27089584226318
 10
114.39040398628377
 20
37.246892413201884
 10
105.28538898414061
 20
37.246892413201884
 10
105.28538898414061
 20
65.75096442348908
 10
114.39040398628377
 20
65.75096442348908
 10
114.39040398628377
 20
61.58122588941277
 10
114.64894482693958
 20
61.88761285094299
 10
115.17194364819976
 20
62.46965582136733
 10
115.70283198939136
 20
63.010724188276896
 10
116.24160985051438
 20
63.51081795167166
 10
116.78827723156881
 20
63.96993711155165
 10
117.34283413255467
 20
64.38808166791685
 10
117.90528055347194
 20
64.76525162076726
 10
118.47561649432063
 20
65.10144697010287
 10
118.76374303471925
 20
65.25417916845264
 10
119.05575070992286
 20
65.3971767172096
 10
119.65102771378055
 20
65.65549486980284
 10
120.26132025557224
 20
65.87691042916846
 10
120.88662833529791
 20
66.06142339530648
 10
121.52695195295757
 20
66.2090337682169
 10
122.18229110855124
 20
66.31974154789971
 10
122.85264580207888
 20
66.39354673435491
 10
123.5380160335405
 20
66.43044932758251
 10
123.88633197599658
 20
66.43506215173596
 10
124.49395226103731
 20
66.42322787183883
 10
125.65345719031292
 20
66.32855363266181
 10
126.47431720156452
 20
66.19541798381913
 10
126.99833402539652
 20
66.07707518484784
 10
127.5037723022932
 20
65.9350638260823
 10
127.99063203225462
 20
65.76938390752251
 10
128.45891321528077
 20
65.58003542916846
 10
128.90861585137165
 20
65.36701839102015
 10
129.33973994052727
 20
65.13033279307759
 10
129.75228548274757
 20
64.86997863534077
 10
130.1462524780326
 20
64.58595591780968
 10
130.5216409263824
 20
64.27826464048435
 10
130.87845082779685
 20
63.94690480336477
 10
131.21668218227606
 20
63.591876406450915
 10
131.37883090441494
 20
63.40548649807115
 10
131.536160020628
 20
63.21395090481676
 10
131.83583452770043
 20
62.814703021190525
 10
132.11553073430136
 20
62.39388620807437
 10
132.37524864043078
 20
61.95150046546828
 10
132.61498824608876
 20
61.48754579337227
 10
132.83474955127522
 20
61.002022191786324
 10
133.12693219567083
 20
60.2332950466138
 10
133.44658500321478
 20
59.13283426650236
 10
133.68632460887272
 20
57.9460977684312
 10
133.8461510126447
 20
56.673085552400345
 10
133.92606421453067
 20
55.31379761840977
 10
133.93605336476642
 20
54.6018002571796
 10
133.93605336476642
 20
37.246892413201884
 10
124.77403021860268
 20
37.246892413201884
 10
124.77403021860268
 20
40.0728675525075
  0
LWPOLYLINE
  5
38
330
17
100
AcDbEntity
  8
TEXT_OUTLINE
100
AcDbPolyline
 90
56
 70
1
 10
233.95900530432922
 20
58.74239846763823
 10
233.66162130304332
 20
58.81225889412773
 10
233.36614605657954
 20
58.87524780325761
 10
232.7736685597943
 20
58.97603005786541
 10
232.17915505786544
 20
59.04321822760394
 10
231.582605550793
 20
59.07681231247321
 10
231.28356729532794
 20
59.08101157308187
 10
230.85110707779685
 20
59.07219948831976
 10
230.02397998821263
 20
59.00170281022289
 10
229.2472440259323
 20
58.86070945402914
 10
228.52089919095587
 20
58.649219419738536
 10
227.84494548328334
 20
58.36723270735104
 10
227.21938290291473
 20
58.01474931686669
 10
226.64421144985002
 20
57.591769248285466
 10
226.11943112408918
 20
57.09829250160737
 10
225.87593763394773
 20
56.825117873981995
 10
225.64615536594516
 20
56.53654595745821
 10
225.23106481729536
 20
55.913782884162025
 10
224.87527291845265
 20
55.230194157201026
 10
224.5787796694171
 20
54.48577977657522
 10
224.34158507018861
 20
53.68053974228461
 10
224.1636891207673
 20
52.81447405432919
 10
224.04509182115305
 20
51.887582712708955
 10
223.98579317134593
 20
50.899865717423914
 10
223.97838084012005
 20
50.38319759965709
 10
223.97838084012005
 20
37.246892413201884
 10
214.87336583797688
 20
37.246892413201884
 10
214.87336583797688
 20
65.75096442348908
 10
223.97838084012005
 20
65.75096442348908
 10
223.97838084012005
 20
61.0681525932276
 10
224.2002735881912
 20
61.41239652539648
 10
224.65608423971284
 20
62.06519067456065
 10
225.1279284317403
 20
62.670393203493354
 10
225.6158061642735
 20
63.2280041121946
 10
226.1197174373125
 20
63.73802340066438
 10
226.6396622508573
 20
64.20045106890271
 10
227.17564060490787
 20
64.61528711690956
 10
227.72765249946423
 20
64.98253154468496
 10
228.0096710244321
 20
65.14830690098586
 10
228.29824294095587
 20
65.30412491963138
 10
228.89657395252897
 20
65.58560263073296
 10
229.5231545354694
 20
65.82686924024861
 10
230.17798468977713
 20
66.02792474817831
 10
230.86106441545223
 20
66.18876915452208
 10
231.57239371249466
 20
66.3094024592799
 10
232.31197258090444
 20
66.38982466245179
 10
233.07980102068154
 20
66.43003576403773
 10
233.47430882983286
 20
66.43506215173596
 10
233.94869802828978
 20
66.424882126018
 10
234.45973531933137
 20
66.39434204886413
 10
235.11736498071156
 20
66.33733390484355
 10
236.0152432490356
 20
66.23146163737677
 10
236.04781933133307
 20
57.98971281611659
 10
235.74865382554654
 20
58.12548890912988
 10
235.1510863159023
 20
58.368791523789106
 10
234.55453680882985
 20
58.574428043291896
  0
LWPOLYLINE
  5
39
330
17
100
AcDbEntity
  8
TEXT_OUTLINE
100
AcDbPolyline
 90
12
 70
1
 10
49.21787933990572
 20
75.24689241320189
 10
59.01513609087014
 20
75.24689241320189
 10
59.01513609087014
 20
37.246892413201884
 10
49.21787933990572
 20
37.246892413201884
 10
49.21787933990572
 20
53.35576510930132
 10
34.76224282040293
 20
53.35576510930132
 10
34.76224282040293
 20
37.246892413201884
 10
24.96498606943851
 20
37.246892413201884
 10
24.96498606943851
 20
75.24689241320189
 10
34.76224282040293
 20
75.24689241320189
 10
34.76224282040293
 20
60.76682383197599
 10
49.21787933990572
 20
60.76682383197599
  0
LWPOLYLINE
  5
3A
330
17
100
AcDbEntity
  8
TEXT_OUTLINE
100
AcDbPolyline
 90
54
 70
1
 10
289.00380411487356
 20
70.79701229639949
 10
288.62917916845265
 20
70.73135113051865
 10
288.2912023146164
 20
70.64380290934419
 10
287.98987355336476
 20
70.53436763287613
 10
287.72519288469783
 20
70.40304530111445
 10
287.4971603086155
 20
70.24983591405915
 10
287.39688705529363
 20
70.16502357479641
 10
287.3051713860909
 20
70.0734669684955
 10
287.13949146753106
 20
69.86630344513502
 10
286.99748010876556
 20
69.62707284076296
 10
286.87913730979426
 20
69.35577515537935
 10
286.7844630706172
 20
69.05241038898414
 10
286.71345739123444
 20
68.71697854157738
 10
286.6513274217745
 20
68.15370499357051
 10
286.63949314187744
 20
67.73810544363481
 10
286.63949314187744
 20
65.75096442348908
 10
294.42517681097297
 20
65.75096442348908
 10
294.42517681097297
 20
59.235747963994854
 10
286.63949314187744
 20
59.235747963994854
 10
286.63949314187744
 20
37.246892413201884
 10
277.52633411915986
 20
37.246892413201884
 10
277.52633411915986
 20
59.235747963994854
 10
272.99825867981144
 20
59.235747963994854
 10
272.99825867981144
 20
65.75096442348908
 10
277.52633411915986
 20
65.75096442348908
 10
277.52633411915986
 20
67.73810544363481
 10
277.53648233229745
 20
68.31089095317188
 10
277.6176680373982
 20
69.39939020306473
 10
277.7800394475997
 20
70.41179376071582
 10
278.02359656290184
 20
71.34810162612516
 10
278.2595425183508
 20
72.00039472714852
 10
278.44221035482747
 20
72.41147689067188
 10
278.6451746175793
 20
72.80353513113481
 10
278.8684353066063
 20
73.1765694485373
 10
279.1119924219085
 20
73.53057984287935
 10
279.37584596348586
 20
73.86556631416096
 10
279.6599959313384
 20
74.18152886238212
 10
279.9644423254661
 20
74.47846748754286
 10
280.1242766823832
 20
74.61980282897557
 10
280.2894237402218
 20
74.75709001955637
 10
280.63637174172203
 20
75.01858943018645
 10
281.00552492431956
 20
75.26265554677454
 10
281.39688328801435
 20
75.48928836932062
 10
282.025555548114
 20
75.79655017681097
 10
282.9415033620874
 20
76.1452160576511
 10
283.9462719004501
 20
76.4241487623232
 10
285.03986116320186
 20
76.63334829082726
 10
286.2222711503429
 20
76.77281464316331
 10
287.49350186187314
 20
76.84254781933134
 10
288.1624249892842
 20
76.85126446635235
 10
295.14185062151734
 20
76.85126446635235
 10
295.14185062151734
 20
70.86540934419203
 10
290.1007018859837
 20
70.86540934419203
 10
289.63445670810114
 20
70.85446581654523
  0
LWPOLYLINE
  5
3B
330
17
100
AcDbEntity
  8
TEXT_OUTLINE
100
AcDbPolyline
 90
145
 70
1
 10
306.3931967959708
 20
47.83555072599657
 10
306.5784732640377
 20
47.13363795274325
 10
306.8156678632662
 20
46.481861806150874
 10
307.10478059365624
 20
45.88022228621946
 10
307.4458114552079
 20
45.32871939294899
 10
307.8387604479211
 20
44.827353126339474
 10
308.283627571796
 20
44.37612348639091
 10
308.52553043291897
 20
44.169309901414486
 10
308.78006288844836
 20
43.975030473103295
 10
309.32596676757396
 20
43.62407408647664
 10
309.9209892707887
 20
43.32325432651093
 10
310.5651303980926
 20
43.07257119320617
 10
311.25839014948565
 20
42.87202468656236
 10
312.00076852496784
 20
42.72161480657951
 10
312.79226552453923
 20
42.62134155325761
 10
313.6328811481997
 20
42.57120492659666
 10
314.07160844406343
 20
42.56493784826404
 10
314.4315041657737
 20
42.56827816920274
 10
315.1545404923918
 20
42.595000736712386
 10
315.88190332994
 20
42.648445871731674
 10
316.61359267841834
 20
42.728613574260606
 10
317.7192389091299
 20
42.89896994213459
 10
319.2085766716674
 20
43.21964075225032
 10
319.95973531933134
 20
43.420060008572655
 10
320.7176382340334
 20
43.64745633304758
 10
322.24871410201456
 20
44.183943688384055
 10
323.80015002143165
 20
44.8293573189027
 10
325.3719459922846
 20
45.58369722460351
 10
326.1654789969996
 20
46.001714530647234
 10
326.1654789969996
 20
38.98156879554222
 10
325.35718495499356
 20
38.68545729747107
 10
323.74059687098156
 20
38.14896994213459
 10
322.12400878696957
 20
37.68679677453922
 10
320.5074207029576
 20
37.29893779468495
 10
319.69912666095155
 20
37.132876125160735
 10
318.8908326189456
 20
36.985902003857696
 10
317.2742445349336
 20
36.750743409772824
 10
315.65765645092154
 20
36.59397101371624
 10
314.04106836690954
 20
36.51558481568796
 10
313.2327743249036
 20
36.505786540934416
 10
312.7525872836745
 20
36.50962791001393
 10
311.81239828346014
 20
36.540358862650024
 10
310.8991227262377
 20
36.601820767922206
 10
310.01276061200707
 20
36.69401362583048
 10
309.15331194076833
 20
36.816937436374836
 10
308.3207767125214
 20
36.97059219955529
 10
307.5151549272664
 20
37.15497791537184
 10
306.7364465850032
 20
37.370094583824475
 10
305.9846516857319
 20
37.6159422049132
 10
305.25977022945244
 20
37.89252077863802
 10
304.56180221616484
 20
38.199830304998926
 10
303.89074764586906
 20
38.53787078399593
 10
303.24660651856516
 20
38.90664221562902
 10
302.6293788342531
 20
39.3061445998982
 10
302.0390645929329
 20
39.73637793680347
 10
301.4756637946046
 20
40.19734222634484
 10
301.2040559365624
 20
40.43934847835405
 10
300.9405046144985
 20
40.68828987288362
 10
300.43850209628164
 20
41.20473530258787
 10
299.9699664126125
 20
41.7459309198189
 10
299.5348975634912
 20
42.31187672457673
 10
299.1332955489177
 20
42.902572716861336
 10
298.765160368892
 20
43.518018896672736
 10
298.43049202341405
 20
44.15821526401093
 10
298.1292905124839
 20
44.82316181887591
 10
297.86155583610156
 20
45.51285856126768
 10
297.627287994267
 20
46.227305491186236
 10
297.4264869869803
 20
46.966502608631586
 10
297.2591528142413
 20
47.73044991360373
 10
297.1252854760501
 20
48.519147406102654
 10
297.02488497240677
 20
49.33259508612837
 10
296.9579513033112
 20
50.17079295368088
 10
296.9244844687634
 20
51.03374100876018
 10
296.9203011144449
 20
51.474496356622375
 10
296.9244128904576
 20
51.90729060624732
 10
296.9573070985587
 20
52.755413998874836
 10
297.02309551476105
 20
53.58025058267253
 10
297.12177813906453
 20
54.38180035764038
 10
297.25335497146915
 20
55.160063323778395
 10
297.4178260119749
 20
55.91503948108658
 10
297.61519126058187
 20
56.646728829564935
 10
297.84545071728996
 20
57.35513136921346
 10
298.1086043820992
 20
58.04024710003215
 10
298.40465225500964
 20
58.702076022021
 10
298.7335943360212
 20
59.34061813518002
 10
299.09543062513393
 20
59.95587343950921
 10
299.49016112234784
 20
60.54784193500857
 10
299.9177858276629
 20
61.11652362167809
 10
300.3783047410791
 20
61.66191849951779
 10
300.8717178625964
 20
62.18402656852765
 10
301.13075975139304
 20
62.43634804972138
 10
301.39701514278823
 20
62.682362686857054
 10
301.9481362850943
 20
63.15096199568688
 10
302.5240712400879
 20
63.588321350594725
 10
303.12482000776896
 20
63.994440751580576
 10
303.7503825881376
 20
64.36932019864446
 10
304.40075898119375
 20
64.71295969178632
 10
305.0759491869374
 20
65.02535923100622
 10
305.77595320536864
 20
65.30651881630412
 10
306.5007710364874
 20
65.55643844768002
 10
307.25040268029363
 20
65.77511812513396
 10
308.0248481367874
 20
65.96255784866588
 10
308.82410740596873
 20
66.11875761827582
 10
309.6481804878375
 20
66.24371743396378
 10
310.49706738239394
 20
66.33743729572976
 10
311.3707680896378
 20
66.39991720357372
 10
312.26928260956925
 20
66.43115715749572
 10
312.72784504929274
 20
66.43506215173596
 10
313.1451465722782
 20
66.43110943862517
 10
313.9640023909666
 20
66.39948773373875
 10
314.76186190661167
 20
66.33624432396593
 10
315.53872511921344
 20
66.24137920930669
 10
316.29459202877194
 20
66.11489238976104
 10
317.0294626352872
 20
65.95678386532897
 10
317.7433369387591
 20
65.7670536360105
 10
318.4362149391877
 20
65.54570170180561
 10
319.10809663657307
 20
65.29272806271432
 10
319.75898203091515
 20
65.0081327187366
 10
320.3888711222139
 20
64.69191566987249
 10
320.99776391046936
 20
64.34407691612195
 10
321.58566039568154
 20
63.964616457485
 10
322.1525605778504
 20
63.55353429396164
 10
322.698464456976
 20
63.11083042555186
 10
323.2233720330583
 20
62.636504852255676
 10
323.4779522074582
 20
62.38748392627518
 10
323.7259710371571
 20
62.132347031718815
 10
324.19838785563115
 20
61.6060397021003
 10
324.6393102195403
 20
61.058354318474066
 10
325.0487381288845
 20
60.48929088084012
 10
325.42667158366373
 20
59.89884938919845
 10
325.77311058387806
 20
59.28702984354908
 10
326.08805512952745
 20
58.65383224389198
 10
326.3715052206119
 20
57.99925659022717
 10
326.62346085713136
 20
57.32330288255465
 10
326.84392203908595
 20
56.625971120874404
 10
327.0328887664756
 20
55.90726130518645
 10
327.1903610393002
 20
55.16717343549078
 10
327.31633885756
 20
54.4057075117874
 10
327.4108222212548
 20
53.622863534076295
 10
327.4738111303847
 20
52.81864150235748
 10
327.5053055849496
 20
51.993041416630945
 10
327.5092423917703
 20
51.57222460351478
 10
327.5092423917703
 20
48.98242606086583
 10
306.21262858979856
 20
48.98242606086583
 10
306.2598384590656
 20
48.587600125910846
  0
LWPOLYLINE
  5
3C
330
17
100
AcDbEntity
  8
TEXT_OUTLINE
100
AcDbPolyline
 90
37
 70
1
 10
317.8536788737677
 20
56.68170676168024
 10
317.66433039541363
 20
57.204960083583366
 10
317.4276447974711
 20
57.69665532576082
 10
317.14362207994
 20
58.156792488212595
 10
316.8122622428204
 20
58.585371570938705
 10
316.62883090441494
 20
58.787826832404626
 10
316.43585579189886
 20
58.98112007072439
 10
316.02814576189456
 20
59.3302949528504
 10
315.59142265859407
 20
59.62958770895842
 10
315.12568648199743
 20
59.87899833904843
 10
314.6309372321046
 20
60.07852684312044
 10
314.10717490891557
 20
60.22817322117445
 10
313.55439951243034
 20
60.32793747321046
 10
312.97261104264896
 20
60.37781959922846
 10
312.67083690527215
 20
60.384054864980705
 10
312.34386720424345
 20
60.37823316277325
 10
311.71321461101587
 20
60.33165954511359
 10
311.11361109622806
 20
60.23851230979425
 10
310.54505665988
 20
60.098791456815256
 10
310.0075513019717
 20
59.9124969861766
 10
309.5010950225032
 20
59.67962889787827
 10
309.0256878214745
 20
59.400187191920274
 10
308.58132969888555
 20
59.074171868302614
 10
308.370794042006
 20
58.893699099871405
 10
308.1690068447278
 20
58.7022828037934
 10
307.7946363989499
 20
58.28871925900128
 10
307.45920455154305
 20
57.83418111069438
 10
307.1627113025075
 20
57.338668358872695
 10
306.90515665184313
 20
56.80218100353621
 10
306.6865405995499
 20
56.22471904468495
 10
306.50686314562796
 20
55.606282482318896
 10
306.36612429007715
 20
54.946871316438056
 10
306.31035683669097
 20
54.6018002571796
 10
318.14361873124733
 20
54.6018002571796
 10
318.13770159129876
 20
54.922598317616796
 10
318.09036447171025
 20
55.540525878696954
 10
317.9956902325332
 20
56.126895360051435
  0
LWPOLYLINE
  5
3D
330
17
100
AcDbEntity
  8
TEXT_OUTLINE
100
AcDbPolyline
 90
201
 70
1
 10
353.09979104157736
 20
59.229258197599655
 10
351.71123553364765
 20
59.611009162023144
 10
351.026119802829
 20
59.77325332190313
 10
350.3508023467638
 20
59.91640993356194
 10
349.02841700600084
 20
60.145460512216026
 10
347.74369776039435
 20
60.298160897985426
 10
346.49664460994427
 20
60.37451109087012
 10
345.8872428204029
 20
60.384054864980705
 10
345.2586262323189
 20
60.37387483926275
 10
344.12660737248177
 20
60.29243463351907
 10
343.38715575439346
 20
60.177909344192024
 10
342.94636064080584
 20
60.07610908701243
 10
342.5473036326618
 20
59.953948778396914
 10
342.1899847299614
 20
59.81142841834548
 10
342.0269770681526
 20
59.73253321903129
 10
341.87510380947276
 20
59.64838894395628
 10
341.60075211637377
 20
59.463875977818255
 10
341.3655935222889
 20
59.257730457029574
 10
341.16962802721815
 20
59.02995238159023
 10
341.0128556311616
 20
58.780541751500216
 10
340.89527633411916
 20
58.50949856675954
 10
340.8168901360909
 20
58.2168228273682
 10
340.77769703707673
 20
57.90251453332619
 10
340.7727978997
 20
57.737248178311184
 10
340.7765199716031
 20
57.601822023681954
 10
340.8062965468281
 20
57.34299486980283
 10
340.8658496972782
 20
57.10020125642949
 10
340.9551794229533
 20
56.87344118356194
 10
341.0742857238534
 20
56.66271465120017
 10
341.2231685999786
 20
56.46802165934419
 10
341.4018280513288
 20
56.289362207993996
 10
341.610264077904
 20
56.12673629714959
 10
341.725648306901
 20
56.05143591941705
 10
341.8506717477497
 20
55.98030298971282
 10
342.13622146913843
 20
55.84490864766395
 10
342.6533031504501
 20
55.658995927989714
 10
343.5084253107587
 20
55.44317938276897
 10
344.5528959494213
 20
55.264010930132876
 10
345.14613694813545
 20
55.18816973853408
 10
346.7505090012859
 20
54.96013716245178
 10
347.60804891770255
 20
54.84468930829404
 10
349.21547497856835
 20
54.58688015698671
 10
350.67936267681097
 20
54.29318641502358
 10
351.99971201243034
 20
53.963608082404626
 10
353.1765229854265
 20
53.59814515912988
 10
354.2097955957994
 20
53.19679764519931
 10
355.0995298435491
 20
52.75956554061295
 10
355.67263347888985
 20
52.40809219955529
 10
356.00984683079724
 20
52.16256270427025
 10
356.164996785255
 20
52.03643377625375
 10
356.3138080830744
 20
51.90691680842799
 10
356.5972581741588
 20
51.63428299466888
 10
356.8618115925043
 20
51.343516010099655
 10
357.1074683381108
 20
51.034615854720315
 10
357.44052219513503
 20
50.53726592638234
 10
357.81845564991426
 20
49.81066659076296
 10
358.1208024137377
 20
49.01153457190313
 10
358.3475624866052
 20
48.13986986980283
 10
358.4987358685169
 20
47.195672484462065
 10
358.57432255947276
 20
46.17894241588084
 10
358.58377089584224
 20
45.64337762537505
 10
358.5804862469192
 20
45.361048927748605
 10
358.5542090555347
 20
44.80960965963887
 10
358.50165467276577
 20
44.27579456105337
 10
358.4228230986123
 20
43.75960363199207
 10
358.3177143330744
 20
43.261036872454994
 10
358.18632837615195
 20
42.780094282442136
 10
358.02866522784507
 20
42.316775861953495
 10
357.8447248881537
 20
41.871081610989066
 10
357.6345073570778
 20
41.44301152954886
 10
357.39801263461743
 20
41.032565617632876
 10
357.13524072077263
 20
40.63974387524111
 10
356.84619161554326
 20
40.26454630237355
 10
356.5308653189295
 20
39.906972899030215
 10
356.18926183093123
 20
39.5670236652111
 10
355.82138115154845
 20
39.2446986009162
 10
355.42722328078116
 20
38.93999770614552
 10
355.2202903986284
 20
38.79425632233176
 10
355.00735289193096
 20
38.65346179476532
 10
354.5621040170917
 20
38.385281742257824
 10
354.09102332699314
 20
38.134980359917485
 10
353.59411082163524
 20
37.902557647744324
 10
352.8003074099871
 20
37.587446086048004
 10
351.6514915077154
 20
37.22987268270467
 10
350.39934834440635
 20
36.943813960030006
 10
349.04387792006
 20
36.729269918024
 10
347.58508023467635
 20
36.58624055668667
 10
346.02295528825545
 20
36.514725876018005
 10
345.20314509215603
 20
36.505786540934416
 10
344.49359729961424
 20
36.51278530861552
 10
343.0561776682383
 20
36.568775450064294
 10
341.5943259751393
 20
36.68075573296185
 10
340.1080422203172
 20
36.848726157308185
 10
339.35573831975995
 20
36.953707672524644
 10
338.59974415988
 20
37.072559472781826
 10
337.07172229961424
 20
37.35149217745392
 10
335.5223223853408
 20
37.685397021003
 10
333.95154441705955
 20
38.07427400342906
 10
333.1581386626661
 20
38.28932704672096
 10
333.1581386626661
 20
45.21174453493356
 10
333.842236390913
 20
44.89209172738963
 10
335.22264787826833
 20
44.313866266609516
 10
336.6193474067724
 20
43.81708101157308
 10
338.0323349764252
 20
43.40173596228033
 10
338.7449367766824
 20
43.22460351478782
 10
339.4628830904415
 20
43.06999437419631
 10
340.90641073724817
 20
42.822619749249895
 10
342.36011840977284
 20
42.657703332618944
 10
343.82400610801545
 20
42.57524512430347
 10
344.55976746678095
 20
42.56493784826404
 10
345.2087441063009
 20
42.576390377196745
 10
346.103950117874
 20
42.63651615409344
 10
346.64858149378483
 20
42.70523132768967
 10
347.15147476425204
 20
42.79685155915131
 10
347.6126299292756
 20
42.911376848478355
 10
348.03204698885554
 20
43.04880719567081
 10
348.4097259429918
 20
43.209142600728676
 10
348.58291363051865
 20
43.297899699957135
 10
348.7466211690956
 20
43.393337441063004
 10
349.04235091620234
 20
43.60100996570939
 10
349.2958335565795
 20
43.831078546935274
 10
349.50706909022716
 20
44.08354318474068
 10
349.6760575171453
 20
44.35840387912559
 10
349.8027988373339
 20
44.65566063009001
 10
349.88729305079295
 20
44.97531343763394
 10
349.9295401575225
 20
45.31736230175739
 10
349.9348210458637
 20
45.496785255036436
 10
349.93119441170165
 20
45.647036072117444
 10
349.9021813384055
 20
45.932840294149166
 10
349.8441551918131
 20
46.19904796667381
 10
349.7571159719246
 20
46.44565908969138
 10
349.64106367873984
 20
46.672673663201884
 10
349.4959983122589
 20
46.880091687205315
 10
349.32191987248177
 20
47.06791316170167
 10
349.1188283594085
 20
47.23613808669095
 10
349.00640270038576
 20
47.31290184312044
 10
348.88312895145737
 20
47.386198028289755
 10
348.59325271913843
 20
47.526682383197596
 10
348.0501165345049
 20
47.72213887698242
 10
347.1237341941706
 20
47.95424346335191
 10
345.96626527003855
 20
48.153771967423914
 10
345.30087333904845
 20
48.24132018859837
 10
343.69650128589797
 20
48.44492070295757
 10
342.9502735881912
 20
48.54567114498499
 10
341.5431395333262
 20
48.77752123071153
 10
340.2497672658594
 20
49.04983691866695
 10
339.0701567857908
 20
49.362618208851266
 10
338.00430809312047
 20
49.71586510126446
 10
337.05222118784826
 20
50.10957759590656
 10
336.2138960699743
 20
50.54375569277754
 10
335.4893327394985
 20
51.01839939187741
 10
335.16971174453494
 20
51.27089584226318
 10
334.87385474710675
 20
51.53681720156451
 10
334.33940339691384
 20
52.11886017198885
 10
333.88130223960565
 20
52.767836811508786
 10
333.49955127518217
 20
53.4837471201243
 10
333.19415050364336
 20
54.2665910978354
 10
332.96509992498926
 20
55.11636874464209
 10
332.8123995392199
 20
56.03308006054436
 10
332.73604934633516
 20
57.01672504554222
 10
332.7265055722246
 20
57.53364766395199
 10
332.73862616534507
 20
58.09049507072439
 10
332.80225927922737
 20
58.89140859408487
 10
332.8749828379501
 20
59.40244588512645
 10
332.97194758291363
 20
59.895159129875694
 10
333.0931535141181
 20
60.36954832833262
 10
333.23860063156343
 20
60.82561348049721
 10
333.4082889352497
 20
61.26335458636948
 10
333.60221842517683
 20
61.68277164594942
 10
333.82038910134486
 20
62.08386465923703
 10
334.0628009637538
 20
62.466633626232316
 10
334.3294540124036
 20
62.831078546935274
 10
334.62034824729426
 20
63.177199421345904
 10
334.93548366842583
 20
63.504996249464206
 10
335.27486027579835
 20
63.81446903129018
 10
335.6384780694117
 20
64.10561776682384
 10
335.8293774110587
 20
64.24432061723104
 10
336.0270369260341
 20
64.37910256710781
 10
336.4416820985587
 20
64.6358300906826
 10
336.88209546118196
 20
64.87544244601908
 10
337.3482770139038
 20
65.09793963311724
 10
338.0958646994213
 20
65.39959447331762
 10
339.1828369454565
 20
65.74189783808401
 10
340.372881951886
 20
66.01574052989713
 10
341.6659997187098
 20
66.22112254875697
 10
343.062190245928
 20
66.35804389466352
 10
344.5614535335405
 20
66.4265045676168
 10
345.34973746249466
 20
66.43506215173596
 10
345.98471656665237
 20
66.42908138662666
 10
347.2775798328333
 20
66.38123526575225
 10
348.60098317616803
 20
66.28554302400343
 10
349.95492659665666
 20
66.1420046613802
 10
350.6433508358337
 20
66.05229318474068
 10
351.34513635876556
 20
65.95176543077582
 10
352.79375401843123
 20
65.70948081868839
 10
354.3024338298328
 20
65.41222406772397
 10
355.8711757929704
 20
65.05999517788256
 10
356.6780700814402
 20
64.86326618088299
 10
356.6780700814402
 20
57.94084869267038
 10
355.95019824260606
 20
58.23670569009858
 10
354.51277861123015
 20
58.77115704029146
  0
LWPOLYLINE
  5
3E
330
17
100
AcDbEntity
  8
TEXT_OUTLINE
100
AcDbPolyline
 90
55
 70
1
 10
375.379795327904
 20
59.235747963994854
 10
375.379795327904
 20
47.150021431633085
 10
375.3828811481997
 20
46.906655191813115
 10
375.4075677105658
 20
46.45008103836262
 10
375.45694083529787
 20
46.03371798649807
 10
375.531000522396
 20
45.65756603621946
 10
375.62974677186025
 20
45.321625187526784
 10
375.75317958369055
 20
45.02589544042006
 10
375.90129895788687
 20
44.77037679489927
 10
376.0741048944492
 20
44.55506925096442
 10
376.16976532361764
 20
44.46249464209173
 10
376.2745877759323
 20
44.37768230282897
 10
376.52068989766394
 20
44.22447291577368
 10
376.8154016421989
 20
44.093150584012
 10
377.1587230095371
 20
43.98371530754393
 10
377.5506539996785
 20
43.89616708636948
 10
377.99119461262325
 20
43.83050592048864
 10
378.7431485747964
 20
43.773052400342905
 10
379.30521324474927
 20
43.762108872696096
 10
383.98802507501074
 20
43.762108872696096
 10
383.98802507501074
 20
37.246892413201884
 10
376.16976532361764
 20
37.246892413201884
 10
375.50809546453064
 20
37.25567268538363
 10
374.2582428070081
 20
37.32591486283755
 10
373.106372897021
 20
37.46639921774539
 10
372.05248573456925
 20
37.67712575010716
 10
371.0965813196528
 20
37.95809445992285
 10
370.44395418653556
 20
38.214917421238745
 10
370.0394890397289
 20
38.40808340923704
 10
369.65951957980604
 20
38.6188099415988
 10
369.304045806767
 20
38.84709701832405
 10
368.9730677206119
 20
39.09294463941277
 10
368.66658532134056
 20
39.35635280486498
 10
368.52253000428635
 20
39.49464209172739
 10
368.3842407174239
 20
39.638705361926704
 10
368.1208325519717
 20
39.94525138635876
 10
367.874984930883
 20
40.2763567228354
 10
367.6466978541577
 20
40.63202137135662
 10
367.435971321796
 20
41.012245331922415
 10
367.24280533379766
 20
41.41702860453279
 10
366.98598237248177
 20
42.07025222353193
 10
366.7050136626661
 20
43.027174641020146
 10
366.4942871303043
 20
44.08233430668667
 10
366.3538027753965
 20
45.235731220531505
 10
366.28356059794254
 20
46.48736538255465
 10
366.27478032576084
 20
47.150021431633085
 10
366.27478032576084
 20
59.235747963994854
 10
361.738560865838
 20
59.235747963994854
 10
361.738560865838
 20
65.75096442348908
 10
366.27478032576084
 20
65.75096442348908
 10
366.27478032576084
 20
73.84612087441063
 10
375.379795327904
 20
73.84612087441063
 10
375.379795327904
 20
65.75096442348908
 10
384.7779950707244
 20
65.75096442348908
 10
384.7779950707244
 20
59.235747963994854
  0
LWPOLYLINE
  5
3F
330
17
100
AcDbEntity
  8
TEXT_OUTLINE
100
AcDbPolyline
 90
136
 70
1
 10
473.9607148119374
 20
52.282798351773465
 10
473.8334644904629
 20
51.237564211181954
 10
473.6744015886198
 20
50.22598778062044
 10
473.4835261064081
 20
49.24806906008894
 10
473.2608380438277
 20
48.30380804958744
 10
473.0063374008787
 20
47.393204749115945
 10
472.7200241775611
 20
46.51625915867445
 10
472.4018983738748
 20
45.67297127826296
 10
472.05195998982
 20
44.86334110788148
 10
471.6702090253965
 20
44.087368647530006
 10
471.2566454806044
 20
43.34505389720853
 10
470.81126935544364
 20
42.63639685691706
 10
470.33408064991426
 20
41.961397526655595
 10
470.08355657951137
 20
41.636519502786115
 10
469.82572356876875
 20
41.32085917407844
 10
469.29006334052184
 20
40.71960140511145
 10
468.72774416992604
 20
40.158427487408915
 10
468.13876605698135
 20
39.63733742097085
 10
467.5231290016877
 20
39.15633120579726
 10
466.8808330040452
 20
38.71540884188813
 10
466.2118780640538
 20
38.314570329243466
 10
465.51626418171344
 20
37.95381566786327
 10
464.7939913570242
 20
37.63314485774754
 10
464.04505958998607
 20
37.35255789889627
 10
463.269468880599
 20
37.112054791309475
 10
462.46721922886303
 20
36.91163553498714
 10
461.6383106347782
 20
36.75130012992928
 10
460.7827430983444
 20
36.631048576135875
 10
459.9005166195617
 20
36.55088087360694
 10
458.9916311984301
 20
36.51079702234248
 10
458.5271913844835
 20
36.505786540934416
 10
458.06124842611445
 20
36.51079702234248
 10
457.1494998727497
 20
36.55088087360694
 10
456.264601137216
 20
36.631048576135875
 10
455.4065522195135
 20
36.75130012992928
 10
454.5753531196421
 20
36.91163553498714
 10
453.7710038376018
 20
37.112054791309475
 10
452.9935043733926
 20
37.35255789889627
 10
452.24285472701456
 20
37.63314485774754
 10
451.51905489846763
 20
37.95381566786327
 10
450.82210488775183
 20
38.314570329243466
 10
450.1520046948671
 20
38.71540884188813
 10
449.50875431981353
 20
39.15633120579726
 10
448.8923537625911
 20
39.63733742097085
 10
448.3028030231997
 20
40.158427487408915
 10
447.74010210163954
 20
40.71960140511145
 10
447.20425099791044
 20
41.32085917407844
 10
446.9463941277325
 20
41.636519502786115
 10
446.6958700573296
 20
41.961397526655595
 10
446.2186813518002
 20
42.63639685691706
 10
445.77330522663954
 20
43.34505389720853
 10
445.3597416818474
 20
44.087368647530006
 10
444.9779907174239
 20
44.86334110788148
 10
444.62805233336906
 20
45.67297127826296
 10
444.3099265296828
 20
46.51625915867445
 10
444.0236133063652
 20
47.393204749115945
 10
443.7691126634162
 20
48.30380804958744
 10
443.54642460083585
 20
49.24806906008894
 10
443.3555491186241
 20
50.22598778062044
 10
443.19648621678095
 20
51.237564211181954
 10
443.06923589530646
 20
52.282798351773465
 10
442.9737981542006
 20
53.36169020239498
 10
442.91017299346333
 20
54.474239763046505
 10
442.8783604130947
 20
55.620447033728034
 10
442.87438384054866
 20
56.20617231033005
 10
442.8783604130947
 20
56.79389382635019
 10
442.91017299346333
 20
57.943854981515216
 10
442.9737981542006
 20
59.05984030084655
 10
443.06923589530646
 20
60.14184978434419
 10
443.19648621678095
 20
61.18988343200814
 10
443.3555491186241
 20
62.20394124383841
 10
443.54642460083585
 20
63.18402321983498
 10
443.7691126634162
 20
64.13012935999787
 10
444.0236133063652
 20
65.04225966432705
 10
444.3099265296828
 20
65.92041413282254
 10
444.62805233336906
 20
66.76459276548435
 10
444.9779907174239
 20
67.57479556231247
 10
445.3597416818474
 20
68.35102252330691
 10
445.77330522663954
 20
69.09327364846764
 10
446.2186813518002
 20
69.80154893779469
 10
446.6958700573296
 20
70.47584839128804
 10
446.9463941277325
 20
70.80025717959708
 10
447.20425099791044
 20
71.11591750830476
 10
447.74010210163954
 20
71.71717527727175
 10
448.3028030231997
 20
72.27834919497428
 10
448.8923537625911
 20
72.79943926141235
 10
449.50875431981353
 20
73.28044547658594
 10
450.1520046948671
 20
73.72136784049508
 10
450.82210488775183
 20
74.12220635313973
 10
451.51905489846763
 20
74.48296101451993
 10
452.24285472701456
 20
74.80363182463566
 10
452.9935043733926
 20
75.08421878348693
 10
453.7710038376018
 20
75.32472189107372
 10
454.5753531196421
 20
75.52514114739606
 10
455.4065522195135
 20
75.68547655245393
 10
456.264601137216
 20
75.80572810624733
 10
457.1494998727497
 20
75.88589580877627
 10
458.06124842611445
 20
75.92597966004072
 10
458.5271913844835
 20
75.93099014144877
 10
458.9916311984301
 20
75.92597966004072
 10
459.9005166195617
 20
75.88589580877627
 10
460.7827430983444
 20
75.80572810624733
 10
461.6383106347782
 20
75.68547655245393
 10
462.46721922886303
 20
75.52514114739606
 10
463.269468880599
 20
75.32472189107372
 10
464.04505958998607
 20
75.08421878348693
 10
464.7939913570242
 20
74.80363182463566
 10
465.51626418171344
 20
74.48296101451993
 10
466.2118780640538
 20
74.12220635313973
 10
466.8808330040452
 20
73.72136784049508
 10
467.5231290016877
 20
73.28044547658594
 10
468.13876605698135
 20
72.79943926141235
 10
468.72774416992604
 20
72.27834919497428
 10
469.29006334052184
 20
71.71717527727175
 10
469.82572356876875
 20
71.11591750830476
 10
470.08355657951137
 20
70.80025717959708
 10
470.33408064991426
 20
70.47584839128804
 10
470.81126935544364
 20
69.80154893779469
 10
471.2566454806044
 20
69.09327364846764
 10
471.6702090253965
 20
68.35102252330691
 10
472.05195998982
 20
67.57479556231247
 10
472.4018983738748
 20
66.76459276548435
 10
472.7200241775611
 20
65.92041413282254
 10
473.0063374008787
 20
65.04225966432705
 10
473.2608380438277
 20
64.13012935999787
 10
473.4835261064081
 20
63.18402321983498
 10
473.6744015886198
 20
62.20394124383841
 10
473.8334644904629
 20
61.18988343200814
 10
473.9607148119374
 20
60.14184978434419
 10
474.05615255304326
 20
59.05984030084655
 10
474.11977771378054
 20
57.943854981515216
 10
474.1515902941492
 20
56.79389382635019
 10
474.15556686669527
 20
56.20617231033005
 10
474.1515902941492
 20
55.620447033728034
 10
474.11977771378054
 20
54.474239763046505
 10
474.05615255304326
 20
53.36169020239498
  0
LWPOLYLINE
  5
40
330
17
100
AcDbEntity
  8
TEXT_OUTLINE
100
AcDbPolyline
 90
84
 70
1
 10
464.10266421988854
 20
61.715411353407625
 10
463.935711798114
 20
62.96959052186026
 10
463.7270212708958
 20
64.09193835726532
 10
463.476592638234
 20
65.0824548596228
 10
463.1844259001286
 20
65.94114002893271
 10
463.0226907415345
 20
66.32104586369482
 10
462.8486123017574
 20
66.67410188062581
 10
462.4576993141877
 20
67.31188049185599
 10
462.00977818259753
 20
67.85854787291042
 10
461.6364257393913
 20
68.20875666389841
 10
461.3697090655808
 20
68.41375693179383
 10
461.0887403557651
 20
68.59597939214531
 10
460.79351960994427
 20
68.75542404495286
 10
460.4840468281183
 20
68.89209089021647
 10
460.1603220102872
 20
69.00597992793614
 10
459.64801221603085
 20
69.13410509537077
 10
458.9150503643378
 20
69.22521632554651
 10
458.5271913844835
 20
69.23660522931847
 10
458.14025496945993
 20
69.22521632554651
 10
457.40856562098156
 20
69.13410509537077
 10
456.8967091559955
 20
69.00597992793614
 10
456.5730479633251
 20
68.89209089021647
 10
456.26344793117767
 20
68.75542404495286
 10
455.96790905955316
 20
68.59597939214531
 10
455.68643134845155
 20
68.41375693179383
 10
455.41901479787293
 20
68.20875666389841
 10
455.04425464798544
 20
67.85854787291042
 10
454.5937885099657
 20
67.31188049185599
 10
454.1995670140377
 20
66.67410188062581
 10
454.0235480068581
 20
66.32104586369482
 10
453.85984046828116
 20
65.94114002893271
 10
453.5641107211745
 20
65.0824548596228
 10
453.31062808079724
 20
64.09193835726532
 10
453.0993925471496
 20
62.96959052186026
 10
452.93040412023146
 20
61.715411353407625
 10
452.80366280004284
 20
60.329400851907415
 10
452.7191685865838
 20
58.81155901735962
 10
452.6769214798543
 20
57.16188584976425
 10
452.6716405915131
 20
56.28761251607372
 10
452.6769214798543
 20
55.40328640698671
 10
452.7191685865838
 20
53.73427119052722
 10
452.80366280004284
 20
52.198105309687094
 10
452.93040412023146
 20
50.794788764466354
 10
453.0993925471496
 20
49.524321554864976
 10
453.31062808079724
 20
48.38670368088298
 10
453.5641107211745
 20
47.381935142520355
 10
453.85984046828116
 20
46.51001593977711
 10
454.0235480068581
 20
46.12387483926275
 10
454.1995670140377
 20
45.76687406236605
 10
454.5937885099657
 20
45.1219694331333
 10
455.04425464798544
 20
44.56919403664809
 10
455.41901479787293
 20
44.215072298274755
 10
455.68643134845155
 20
44.007781524592794
 10
455.96790905955316
 20
43.823523059097724
 10
456.26344793117767
 20
43.66229690178954
 10
456.5730479633251
 20
43.52410305266824
 10
456.8967091559955
 20
43.408941511733815
 10
457.40856562098156
 20
43.279384778182596
 10
458.14025496945993
 20
43.187255545435065
 10
458.5271913844835
 20
43.17573939134162
 10
458.91212360694385
 20
43.187255545435065
 10
459.63999544577797
 20
43.279384778182596
 10
460.1491557945778
 20
43.408941511733815
 10
460.4710991079083
 20
43.52410305266824
 10
460.77904488587654
 20
43.66229690178954
 10
461.07299312848266
 20
43.823523059097724
 10
461.35294383572653
 20
44.007781524592794
 10
461.6188970076082
 20
44.215072298274755
 10
461.99158138662665
 20
44.56919403664809
 10
462.4395025182169
 20
45.1219694331333
 10
462.8314335083583
 20
45.76687406236605
 10
463.00640270038576
 20
46.12387483926275
 10
463.1701102389627
 20
46.51001593977711
 10
463.46583998606945
 20
47.381935142520355
 10
463.7193226264466
 20
48.38670368088298
 10
463.9305581600943
 20
49.524321554864976
 10
464.0995465870124
 20
50.794788764466354
 10
464.226287907201
 20
52.198105309687094
 10
464.31078212066006
 20
53.73427119052722
 10
464.35302922738964
 20
55.40328640698671
 10
464.35831011573083
 20
56.28761251607372
 10
464.3530928525504
 20
57.16188584976425
 10
464.31135474710675
 20
58.81155901735962
 10
464.22787853621946
 20
60.329400851907415
  0
LWPOLYLINE
  5
41
330
17
100
AcDbEntity
  8
TEXT_OUTLINE
100
AcDbPolyline
 90
7
 70
1
 10
520.6762483926275
 20
37.246892413201884
 10
534.7002518216888
 20
68.03943420488642
 10
516.4006375910844
 20
68.03943420488642
 10
516.4006375910844
 20
75.24689241320189
 10
545.0350139305615
 20
75.24689241320189
 10
545.0350139305615
 20
69.72524646378054
 10
530.2210405057865
 20
37.246892413201884
  0
LWPOLYLINE
  5
42
330
17
100
AcDbEntity
  8
TEXT_OUTLINE
100
AcDbPolyline
 90
112
 70
1
 10
408.23684633519076
 20
44.44620660094299
 10
422.10611337333904
 20
56.69481354479211
 10
422.55708851264467
 20
57.11308535147878
 10
423.36741855979426
 20
57.9427574474925
 10
424.0555882983283
 20
58.76326752036005
 10
424.6215977282469
 20
59.57461557008144
 10
424.8587923274753
 20
59.97685383626232
 10
424.9662870365409
 20
60.17787753161166
 10
425.160471027111
 20
60.58278805454351
 10
425.3269144475997
 20
60.991516087119585
 10
425.46561729800686
 20
61.4040616293399
 10
425.5765795783326
 20
61.82042468120446
 10
425.65980128857694
 20
62.240605242713244
 10
425.71528242873984
 20
62.664603313866266
 10
425.74302299882123
 20
63.09241889466352
 10
425.74649057008145
 20
63.30775825117873
 10
425.7394918024003
 20
63.637591084440636
 10
425.68350166095155
 20
64.27282468924132
 10
425.571521378054
 20
64.87548221174454
 10
425.4035509537077
 20
65.44556365195028
 10
425.1795903879126
 20
65.98306900985855
 10
424.89963968066866
 20
66.48799828546936
 10
424.563698831976
 20
66.96035147878268
 10
424.17176784183454
 20
67.40012858979854
 10
423.9548060437205
 20
67.60780111444492
 10
423.7262008411916
 20
67.8050391127304
 10
423.24112261573083
 20
68.16134001285899
 10
422.7188872963995
 20
68.46674078439777
 10
422.1594948831976
 20
68.72124142734677
 10
421.5629453761252
 20
68.92484194170596
 10
420.92923877518217
 20
69.07754232747536
 10
420.25837508036864
 20
69.17934258465496
 10
419.5503542916845
 20
69.23024271324475
 10
419.182409987141
 20
69.23660522931847
 10
418.89463338512644
 20
69.23278771967425
 10
418.3087729050579
 20
69.20224764252036
 10
417.70916939027006
 20
69.1411674882126
 10
417.095822840763
 20
69.04954725675097
 10
416.46873325653667
 20
68.92738694813545
 10
415.8279006375911
 20
68.77468656236606
 10
414.84088351907417
 20
68.48837333904844
 10
414.16569331333045
 20
68.25932276039434
 10
413.47968683026147
 20
67.99998660522932
 10
412.07178927346763
 20
67.39122106729533
 10
410.6160455957994
 20
66.66233122588942
 10
409.11245579725676
 20
65.81331708101158
 10
408.3427186026575
 20
65.34376339477069
 10
408.3427186026575
 20
73.69138448349764
 10
409.1681914380626
 20
73.9560651521646
 10
410.8122655915131
 20
74.4365623660523
 10
412.4471777218174
 20
74.85190741534505
 10
414.07292782897554
 20
75.20210030004286
 10
414.8823671238748
 20
75.35276468066867
 10
415.6886251607372
 20
75.48828627303901
 10
417.2889252036005
 20
75.70512082083155
 10
418.87293720531505
 20
75.84967718602658
 10
420.44066116588084
 20
75.9219553686241
 10
421.218415130733
 20
75.93099014144877
 10
422.05960338084014
 20
75.91925129929277
 10
423.67059245070726
 20
75.82534056204457
 10
424.8163702515538
 20
75.69327858778934
 10
425.55047735614016
 20
75.5758901662291
 10
426.2607886506108
 20
75.43502406035685
 10
426.9473041349657
 20
75.27068027017253
 10
427.6100238092049
 20
75.08285879567617
 10
428.2489476733283
 20
74.87155963686777
 10
428.86407572733606
 20
74.63678279374733
 10
429.45540797122806
 20
74.37852826631483
 10
430.0229444050043
 20
74.09679605457029
 10
430.5666850286648
 20
73.79158615851372
 10
431.0866298422096
 20
73.46289857814509
 10
431.58277884563864
 20
73.11073331346442
 10
431.8219299185598
 20
72.92584654950707
 10
432.05441625589367
 20
72.73621175792971
 10
432.4972473746249
 20
72.34300826457351
 10
432.9105564187741
 20
71.93122622428204
 10
433.2943433883412
 20
71.5008656370553
 10
433.6486082833262
 20
71.05192650289327
 10
433.9733511037291
 20
70.58440882179598
 10
434.2685718495499
 20
70.0983125937634
 10
434.5342705207887
 20
69.59363781879554
 10
434.77044711744537
 20
69.07038449689242
 10
434.9771016395199
 20
68.52855262805402
 10
435.1542340870124
 20
67.96814221228033
 10
435.30184445992285
 20
67.38915324957136
 10
435.41993275825115
 20
66.79158573992713
 10
435.50849898199743
 20
66.17543968334762
 10
435.5675431311616
 20
65.54071507983284
 10
435.59706520574366
 20
64.88741192938278
 10
435.6007554650664
 20
64.55379339905701
 10
435.5944883867338
 20
64.16755686080154
 10
435.54435176007286
 20
63.40481843388341
 10
435.44407850675094
 20
62.655059539755676
 10
435.2936686267681
 20
61.91828017841834
 10
435.0931221201243
 20
61.194480349871405
 10
434.84243898681956
 20
60.48366005411487
 10
434.5416192268538
 20
59.785819291148734
 10
434.19066284022716
 20
59.10095806097299
 10
433.996383411916
 20
58.76339477068152
 10
433.7820302453922
 20
58.421314093977706
 10
433.27048395306474
 20
57.69420575707243
 10
432.64848438169736
 20
56.90983477550364
 10
431.9160315312902
 20
56.068201149271324
 10
431.07312540184313
 20
55.16930487837548
 10
430.11976599335617
 20
54.213145962816114
 10
429.0559533058294
 20
53.199724402593226
 10
427.8816873392627
 20
52.129040197706814
 10
427.25313437633946
 20
51.57222460351478
 10
419.1335458636948
 20
44.44620660094299
 10
435.85322010287183
 20
44.44620660094299
 10
435.85322010287183
 20
37.246892413201884
 10
408.23684633519076
 20
37.246892413201884
  0
LWPOLYLINE
  5
43
330
17
100
AcDbEntity
  8
TEXT_OUTLINE
100
AcDbPolyline
 90
112
 70
1
 10
480.7695295756537
 20
44.44620660094299
 10
494.63879661380196
 20
56.69481354479211
 10
495.0897717531076
 20
57.11308535147878
 10
495.9001018002572
 20
57.9427574474925
 10
496.5882715387913
 20
58.76326752036005
 10
497.1542809687098
 20
59.57461557008144
 10
497.3914755679383
 20
59.97685383626232
 10
497.4989702770039
 20
60.17787753161166
 10
497.69315426757396
 20
60.58278805454351
 10
497.8595976880626
 20
60.991516087119585
 10
497.9983005384698
 20
61.4040616293399
 10
498.1092628187955
 20
61.82042468120446
 10
498.19248452903986
 20
62.240605242713244
 10
498.24796566920276
 20
62.664603313866266
 10
498.2757062392842
 20
63.09241889466352
 10
498.27917381054436
 20
63.30775825117873
 10
498.27217504286324
 20
63.637591084440636
 10
498.21618490141447
 20
64.27282468924132
 10
498.1042046185169
 20
64.87548221174454
 10
497.9362341941706
 20
65.44556365195028
 10
497.7122736283755
 20
65.98306900985855
 10
497.4323229211316
 20
66.48799828546936
 10
497.0963820724389
 20
66.96035147878268
 10
496.70445108229745
 20
67.40012858979854
 10
496.4874892841834
 20
67.60780111444492
 10
496.2588840816545
 20
67.8050391127304
 10
495.77380585619375
 20
68.16134001285899
 10
495.2515705368624
 20
68.46674078439777
 10
494.69217812366054
 20
68.72124142734677
 10
494.0956286165881
 20
68.92484194170596
 10
493.4619220156451
 20
69.07754232747536
 10
492.79105832083155
 20
69.17934258465496
 10
492.08303753214744
 20
69.23024271324475
 10
491.7150932276039
 20
69.23660522931847
 10
491.42731662558936
 20
69.23278771967425
 10
490.8414561455208
 20
69.20224764252036
 10
490.241852630733
 20
69.1411674882126
 10
489.6285060812259
 20
69.04954725675097
 10
489.0014164969996
 20
68.92738694813545
 10
488.360583878054
 20
68.77468656236606
 10
487.3735667595371
 20
68.48837333904844
 10
486.6983765537934
 20
68.25932276039434
 10
486.0123700707244
 20
67.99998660522932
 10
484.60447251393055
 20
67.39122106729533
 10
483.1487288362623
 20
66.66233122588942
 10
481.6451390377197
 20
65.81331708101158
 10
480.8754018431204
 20
65.34376339477069
 10
480.8754018431204
 20
73.69138448349764
 10
481.7008746785255
 20
73.9560651521646
 10
483.344948831976
 20
74.4365623660523
 10
484.9798609622803
 20
74.85190741534505
 10
486.6056110694385
 20
75.20210030004286
 10
487.4150503643378
 20
75.35276468066867
 10
488.2213084012002
 20
75.48828627303901
 10
489.82160844406343
 20
75.70512082083155
 10
491.40562044577797
 20
75.84967718602658
 10
492.97334440634376
 20
75.9219553686241
 10
493.7510983711959
 20
75.93099014144877
 10
494.59228662130306
 20
75.91925129929277
 10
496.2032756911702
 20
75.82534056204457
 10
497.3490534920167
 20
75.69327858778934
 10
498.0831605966031
 20
75.5758901662291
 10
498.7934718910737
 20
75.43502406035685
 10
499.4799873754286
 20
75.27068027017253
 10
500.1427070496678
 20
75.08285879567617
 10
500.7816309137913
 20
74.87155963686777
 10
501.396758967799
 20
74.63678279374733
 10
501.98809121169097
 20
74.37852826631483
 10
502.5556276454672
 20
74.09679605457029
 10
503.09936826912775
 20
73.79158615851372
 10
503.61931308267253
 20
73.46289857814509
 10
504.11546208610156
 20
73.11073331346442
 10
504.35461315902273
 20
72.92584654950707
 10
504.58709949635664
 20
72.73621175792971
 10
505.0299306150879
 20
72.34300826457351
 10
505.443239659237
 20
71.93122622428204
 10
505.8270266288041
 20
71.5008656370553
 10
506.1812915237891
 20
71.05192650289327
 10
506.506034344192
 20
70.58440882179598
 10
506.80125509001283
 20
70.0983125937634
 10
507.0669537612516
 20
69.59363781879554
 10
507.30313035790823
 20
69.07038449689242
 10
507.5097848799828
 20
68.52855262805402
 10
507.6869173274754
 20
67.96814221228033
 10
507.8345277003857
 20
67.38915324957136
 10
507.9526159987141
 20
66.79158573992713
 10
508.0411822224603
 20
66.17543968334762
 10
508.10022637162456
 20
65.54071507983284
 10
508.1297484462066
 20
64.88741192938278
 10
508.13343870552944
 20
64.55379339905701
 10
508.12717162719673
 20
64.16755686080154
 10
508.0770350005357
 20
63.40481843388341
 10
507.9767617472139
 20
62.655059539755676
 10
507.8263518672311
 20
61.91828017841834
 10
507.62580536058726
 20
61.194480349871405
 10
507.3751222272824
 20
60.48366005411487
 10
507.0743024673168
 20
59.785819291148734
 10
506.7233460806901
 20
59.10095806097299
 10
506.5290666523789
 20
58.76339477068152
 10
506.3147134858551
 20
58.421314093977706
 10
505.80316719352766
 20
57.69420575707243
 10
505.18116762216033
 20
56.90983477550364
 10
504.4487147717531
 20
56.068201149271324
 10
503.60580864230604
 20
55.16930487837548
 10
502.65244923381914
 20
54.213145962816114
 10
501.5886365462923
 20
53.199724402593226
 10
500.4143705797257
 20
52.129040197706814
 10
499.7858176168024
 20
51.57222460351478
 10
491.6662291041577
 20
44.44620660094299
 10
508.3859033433348
 20
44.44620660094299
 10
508.3859033433348
 20
37.246892413201884
 10
480.7695295756537
 20
37.246892413201884
  0
ENDSEC
  0
SECTION
  2
OBJECTS
  0
DICTIONARY
  5
A
330
0
100
AcDbDictionary
281
1
  3
ACAD_COLOR
350
B
  3
ACAD_GROUP
350
C
  3
ACAD_LAYOUT
350
D
  3
ACAD_MATERIAL
350
E
  3
ACAD_MLEADERSTYLE
350
F
  3
ACAD_MLINESTYLE
350
10
  3
ACAD_PLOTSETTINGS
350
11
  3
ACAD_PLOTSTYLENAME
350
12
  3
ACAD_SCALELIST
350
14
  3
ACAD_TABLESTYLE
350
15
  3
ACAD_VISUALSTYLE
350
16
  3
EZDXF_META
350
2D
  0
DICTIONARY
  5
B
330
A
100
AcDbDictionary
281
1
  0
DICTIONARY
  5
C
330
A
100
AcDbDictionary
281
1
  0
DICTIONARY
  5
D
330
A
100
AcDbDictionary
281
1
  3
Model
350
1A
  3
Layout1
350
1E
  0
DICTIONARY
  5
E
330
A
100
AcDbDictionary
281
1
  3
ByBlock
350
1F
  3
ByLayer
350
20
  3
Global
350
21
  0
DICTIONARY
  5
F
330
A
100
AcDbDictionary
281
1
  3
Standard
350
2C
  0
DICTIONARY
  5
10
330
A
100
AcDbDictionary
281
1
  3
Standard
350
22
  0
DICTIONARY
  5
11
330
A
100
AcDbDictionary
281
1
  0
ACDBDICTIONARYWDFLT
  5
12
330
A
100
AcDbDictionary
281
1
  3
Normal
350
13
100
AcDbDictionaryWithDefault
340
13
  0
ACDBPLACEHOLDER
  5
13
330
12
  0
DICTIONARY
  5
14
330
A
100
AcDbDictionary
281
1
  0
DICTIONARY
  5
15
330
A
100
AcDbDictionary
281
1
  0
DICTIONARY
  5
16
330
A
100
AcDbDictionary
281
1
  0
LAYOUT
  5
1A
330
D
100
AcDbPlotSettings
  1

  4
A3
  6

 40
7.5
 41
20.0
 42
7.5
 43
20.0
 44
420.0
 45
297.0
 46
0.0
 47
0.0
 48
0.0
 49
0.0
140
0.0
141
0.0
142
1.0
143
1.0
 70
1024
 72
1
 73
0
 74
5
  7

 75
16
 76
0
 77
2
 78
300
147
1.0
148
0.0
149
0.0
100
AcDbLayout
  1
Model
 70
1
 71
0
 10
0.0
 20
0.0
 11
420.0
 21
297.0
 12
0.0
 22
0.0
 32
0.0
 14
1e+20
 24
1e+20
 34
1e+20
 15
-1e+20
 25
-1e+20
 35
-1e+20
146
0.0
 13
0.0
 23
0.0
 33
0.0
 16
1.0
 26
0.0
 36
0.0
 17
0.0
 27
1.0
 37
0.0
 76
1
330
17
  0
LAYOUT
  5
1E
330
D
100
AcDbPlotSettings
  1

  4
A3
  6

 40
7.5
 41
20.0
 42
7.5
 43
20.0
 44
420.0
 45
297.0
 46
0.0
 47
0.0
 48
0.0
 49
0.0
140
0.0
141
0.0
142
1.0
143
1.0
 70
0
 72
1
 73
0
 74
5
  7

 75
16
 76
0
 77
2
 78
300
147
1.0
148
0.0
149
0.0
100
AcDbLayout
  1
Layout1
 70
1
 71
1
 10
0.0
 20
0.0
 11
420.0
 21
297.0
 12
0.0
 22
0.0
 32
0.0
 14
1e+20
 24
1e+20
 34
1e+20
 15
-1e+20
 25
-1e+20
 35
-1e+20
146
0.0
 13
0.0
 23
0.0
 33
0.0
 16
1.0
 26
0.0
 36
0.0
 17
0.0
 27
1.0
 37
0.0
 76
1
330
1B
  0
MATERIAL
  5
1F
102
{ACAD_REACTORS
330
E
102
}
330
E
100
AcDbMaterial
  1
ByBlock
  2

 70
0
 40
1.0
 71
1
 41
1.0
 91
-1023410177
 42
1.0
 72
1
  3

 73
1
 74
1
 75
1
 44
0.5
 73
0
 45
1.0
 46
1.0
 77
1
  4

 78
1
 79
1
170
1
 48
1.0
171
1
  6

172
1
173
1
174
1
140
1.0
141
1.0
175
1
  7

176
1
177
1
178
1
143
1.0
179
1
  8

270
1
271
1
272
1
145
1.0
146
1.0
273
1
  9

274
1
275
1
276
1
 42
1.0
 72
1
  3

 73
1
 74
1
 75
1
 94
63
  0
MATERIAL
  5
20
102
{ACAD_REACTORS
330
E
102
}
330
E
100
AcDbMaterial
  1
ByLayer
  2

 70
0
 40
1.0
 71
1
 41
1.0
 91
-1023410177
 42
1.0
 72
1
  3

 73
1
 74
1
 75
1
 44
0.5
 73
0
 45
1.0
 46
1.0
 77
1
  4

 78
1
 79
1
170
1
 48
1.0
171
1
  6

172
1
173
1
174
1
140
1.0
141
1.0
175
1
  7

176
1
177
1
178
1
143
1.0
179
1
  8

270
1
271
1
272
1
145
1.0
146
1.0
273
1
  9

274
1
275
1
276
1
 42
1.0
 72
1
  3

 73
1
 74
1
 75
1
 94
63
  0
MATERIAL
  5
21
102
{ACAD_REACTORS
330
E
102
}
330
E
100
AcDbMaterial
  1
Global
  2

 70
0
 40
1.0
 71
1
 41
1.0
 91
-1023410177
 42
1.0
 72
1
  3

 73
1
 74
1
 75
1
 44
0.5
 73
0
 45
1.0
 46
1.0
 77
1
  4

 78
1
 79
1
170
1
 48
1.0
171
1
  6

172
1
173
1
174
1
140
1.0
141
1.0
175
1
  7

176
1
177
1
178
1
143
1.0
179
1
  8

270
1
271
1
272
1
145
1.0
146
1.0
273
1
  9

274
1
275
1
276
1
 42
1.0
 72
1
  3

 73
1
 74
1
 75
1
 94
63
  0
MLINESTYLE
  5
22
102
{ACAD_REACTORS
330
10
102
}
330
10
100
AcDbMlineStyle
  2
Standard
 70
0
  3

 62
256
 51
90.0
 52
90.0
 71
2
 49
0.5
 62
256
  6
BYLAYER
 49
-0.5
 62
256
  6
BYLAYER
  0
MLEADERSTYLE
  5
2C
102
{ACAD_REACTORS
330
F
102
}
330
F
100
AcDbMLeaderStyle
179
2
170
2
171
1
172
0
 90
2
 40
0.0
 41
0.0
173
1
 91
-1056964608
 92
-2
290
1
 42
2.0
291
1
 43
8.0
  3
Standard
 44
4.0
300

342
29
174
1
175
1
176
0
178
1
 93
-1056964608
 45
4.0
292
0
297
0
 46
4.0
 94
-1056964608
 47
1.0
 49
1.0
140
1.0
294
1
141
0.0
177
0
142
1.0
295
0
296
0
143
3.75
271
0
272
9
273
9
  0
DICTIONARY
  5
2D
330
A
100
AcDbDictionary
280
1
281
1
  3
CREATED_BY_EZDXF
350
2E
  3
WRITTEN_BY_EZDXF
350
46
  0
DICTIONARYVAR
  5
2E
330
2D
100
DictionaryVariables
280
0
  1
1.4.3 @ 2026-09-03T21:25:23.360185+00:00
  0
DICTIONARYVAR
  5
46
330
2D
100
DictionaryVariables
280
0
  1
1.4.3 @ 2026-09-03T21:25:23.365072+00:00
  0
ENDSEC
  0
EOF
